<svg width="265" height="265" viewBox="0 0 265 265" fill="none" xmlns="http://www.w3.org/2000/svg">
<g filter="url(#filter0_d_503_336857)">
<circle cx="132.322" cy="128.322" r="78.3221" fill="#F43B00"/>
</g>
<g clip-path="url(#clip0_503_336857)">
<path d="M117.676 120.238L112.105 120.238L106.723 127.926V120.187H102.16V136.614H106.723V129.484L111.479 136.619C111.508 136.559 111.58 136.486 111.646 136.419C111.696 136.367 111.744 136.319 111.767 136.282L111.781 136.283C111.782 136.267 111.793 136.244 111.803 136.224C111.817 136.196 111.829 136.171 111.809 136.173L111.86 136.145C111.895 136.073 111.89 136.047 111.882 136.007C111.877 135.982 111.871 135.952 111.873 135.903C111.885 135.885 111.928 135.867 111.969 135.849C112.02 135.828 112.068 135.807 112.057 135.79C112.16 135.713 112.224 135.532 112.272 135.398C112.273 135.397 112.274 135.394 112.274 135.391C112.279 135.377 112.284 135.363 112.289 135.35C112.277 135.35 112.276 135.367 112.275 135.38C112.275 135.384 112.275 135.388 112.274 135.391C112.274 135.392 112.274 135.393 112.273 135.394C112.273 135.395 112.272 135.396 112.272 135.398C112.27 135.4 112.266 135.398 112.261 135.392C112.236 135.362 112.239 135.348 112.264 135.326C112.279 135.305 112.289 135.282 112.293 135.256C112.307 135.252 112.321 135.245 112.332 135.234C112.342 135.225 112.351 135.213 112.357 135.2C112.333 135.199 112.334 135.177 112.335 135.152C112.335 135.149 112.336 135.147 112.336 135.145C112.422 135.072 112.429 134.979 112.435 134.877C112.439 134.82 112.443 134.76 112.462 134.699C112.467 134.697 112.473 134.695 112.481 134.692C112.553 134.669 112.737 134.61 112.762 134.579C112.736 134.571 112.749 134.539 112.762 134.509C112.776 134.474 112.79 134.44 112.749 134.442C112.851 134.343 112.928 134.221 112.973 134.086L112.955 134.102C112.985 134.012 113.028 133.93 113.07 133.849C113.118 133.757 113.166 133.665 113.195 133.561C113.196 133.557 113.197 133.552 113.198 133.548C113.216 133.485 113.231 133.428 113.289 133.358C113.289 133.358 113.33 133.207 113.374 133.143L113.378 133.07C113.373 133.044 113.374 133.017 113.381 132.992C113.395 132.993 113.289 132.963 113.303 133.016C113.303 133.016 113.331 133.046 113.275 133.051C113.268 133.075 113.258 133.098 113.246 133.12C113.25 133.119 113.254 133.118 113.259 133.118C113.263 133.118 113.267 133.119 113.271 133.121C113.261 133.127 113.252 133.134 113.244 133.144C113.236 133.151 113.23 133.161 113.227 133.171C113.146 133.385 113.046 133.591 112.927 133.787C112.925 133.739 112.927 133.691 112.934 133.644C112.906 133.687 112.88 133.733 112.857 133.779C112.852 133.784 112.841 133.785 112.83 133.786C112.812 133.787 112.794 133.789 112.806 133.812C112.817 133.832 112.802 133.85 112.785 133.87C112.772 133.887 112.757 133.906 112.754 133.928C112.749 133.96 112.741 133.965 112.727 133.972C112.72 133.976 112.711 133.981 112.701 133.991C112.702 133.979 112.71 133.964 112.718 133.951C112.726 133.936 112.732 133.925 112.721 133.929C112.715 133.93 112.71 133.931 112.705 133.931C112.693 133.933 112.685 133.934 112.672 133.952C112.682 133.846 112.704 133.742 112.738 133.642C112.759 133.539 112.794 133.44 112.844 133.347C112.869 133.216 112.918 133.091 112.99 132.979C113.015 132.872 113.057 132.77 113.113 132.676L113.129 132.676C113.13 132.661 113.139 132.639 113.148 132.619C113.161 132.59 113.173 132.565 113.153 132.567L113.323 132.365C113.377 132.248 113.529 131.938 113.529 131.938L113.745 131.805C113.745 131.805 113.815 131.635 113.819 131.61C113.826 131.608 113.819 131.55 113.812 131.494C113.805 131.443 113.799 131.393 113.804 131.388C113.815 131.377 113.935 131.241 113.942 131.227C113.921 131.226 113.957 131.049 113.973 130.965C113.978 130.944 113.981 130.929 113.981 130.924C114.115 130.807 113.529 130.852 113.529 130.852C112.939 130.92 112.483 130.865 112.022 130.809C111.577 130.755 111.127 130.701 110.546 130.755C110.558 130.725 110.596 130.657 110.649 130.564C110.754 130.379 110.916 130.094 111.042 129.804C111.138 129.583 111.149 129.464 111.159 129.35C111.17 129.24 111.18 129.136 111.266 128.949C111.284 128.923 111.305 128.847 111.328 128.765C111.356 128.669 111.385 128.565 111.412 128.526C111.42 128.515 111.474 128.409 111.528 128.302C111.586 128.189 111.644 128.073 111.653 128.06C111.659 128.052 111.664 128.038 111.669 128.023C111.674 128.009 111.679 127.994 111.685 127.986C111.692 127.976 111.704 127.965 111.717 127.953C111.73 127.942 111.742 127.93 111.749 127.921C111.769 127.894 111.779 127.868 111.788 127.843C111.798 127.816 111.808 127.79 111.829 127.762C111.833 127.756 111.842 127.751 111.851 127.746C111.86 127.74 111.868 127.735 111.872 127.73C111.879 127.721 111.89 127.712 111.901 127.703C111.912 127.694 111.922 127.686 111.929 127.677C111.941 127.662 111.948 127.646 111.956 127.631C111.964 127.616 111.971 127.601 111.983 127.586C112.055 127.495 112.123 127.414 112.182 127.351C112.252 127.276 112.311 127.288 112.287 127.387C112.287 127.387 112.182 127.565 112.175 127.643C112.17 127.691 112.134 127.713 112.106 127.73C112.089 127.741 112.075 127.75 112.072 127.762C112.07 127.768 112.07 127.775 112.069 127.78C112.065 127.801 112.063 127.817 112.03 127.84C111.999 127.862 111.988 127.889 111.976 127.92C111.972 127.93 111.968 127.941 111.963 127.952C111.952 127.975 111.95 127.99 111.947 128.002C111.945 128.013 111.944 128.022 111.936 128.034C111.921 128.059 111.888 128.082 111.888 128.082L111.76 128.305C111.761 128.303 111.761 128.305 111.761 128.308C111.759 128.321 111.756 128.364 111.808 128.354C111.805 128.358 111.812 128.351 111.823 128.342C111.843 128.326 111.872 128.302 111.872 128.305C111.905 128.379 111.954 128.311 112.03 128.208C112.067 128.157 112.11 128.098 112.162 128.042C112.167 128.035 112.173 128.032 112.179 128.029C112.186 128.026 112.192 128.022 112.197 128.016C112.2 128.012 112.203 128.006 112.206 128C112.208 127.993 112.211 127.987 112.214 127.983C112.251 127.942 112.288 127.9 112.321 127.861C112.327 127.854 112.331 127.846 112.335 127.837C112.339 127.829 112.343 127.821 112.349 127.815C112.352 127.81 112.358 127.808 112.363 127.805C112.368 127.802 112.373 127.8 112.377 127.796C112.381 127.791 112.386 127.788 112.391 127.785C112.396 127.782 112.401 127.78 112.404 127.776C112.409 127.77 112.412 127.763 112.415 127.757C112.417 127.75 112.42 127.744 112.424 127.739C112.477 127.676 112.512 127.633 112.516 127.628C112.516 127.627 112.518 127.626 112.52 127.624C112.526 127.619 112.536 127.612 112.542 127.596C112.545 127.59 112.548 127.586 112.552 127.582C112.557 127.576 112.561 127.571 112.564 127.564C112.567 127.557 112.574 127.553 112.582 127.549C112.59 127.546 112.598 127.542 112.601 127.534C112.626 127.468 112.671 127.351 112.688 127.315C112.693 127.305 112.721 127.277 112.76 127.238C112.862 127.137 113.038 126.961 113.073 126.832C113.109 126.701 113.189 126.606 113.281 126.497C113.316 126.456 113.352 126.413 113.388 126.366C113.427 126.315 113.476 126.252 113.527 126.189C113.651 126.033 113.782 125.868 113.786 125.831C113.786 125.831 113.963 125.39 114.055 125.248L114.479 124.82C114.479 124.82 114.584 124.607 114.67 124.472C114.71 124.41 114.725 124.342 114.74 124.276C114.757 124.199 114.773 124.126 114.827 124.072C114.827 124.072 115.047 123.958 115.126 123.856C115.126 123.856 115.252 123.607 115.287 123.563C115.296 123.552 115.316 123.512 115.337 123.468C115.365 123.411 115.396 123.346 115.41 123.334C115.446 123.263 115.564 123.195 115.671 123.133C115.739 123.093 115.804 123.056 115.841 123.022C115.841 123.022 116.051 122.728 116.091 122.522C116.111 122.555 116.125 122.513 116.14 122.469C116.155 122.428 116.17 122.385 116.19 122.401C116.194 122.391 116.202 122.38 116.21 122.367C116.236 122.324 116.271 122.268 116.264 122.232C116.381 122.119 116.394 122.065 116.429 121.921C116.431 121.91 116.434 121.899 116.437 121.887C116.461 121.869 116.488 121.854 116.499 121.873C116.509 121.863 116.516 121.85 116.52 121.836C116.524 121.823 116.524 121.81 116.521 121.796C116.543 121.781 116.561 121.761 116.574 121.737C116.589 121.717 116.641 121.71 116.641 121.71C116.704 121.647 116.702 121.617 116.7 121.569C116.698 121.541 116.696 121.507 116.707 121.456C116.747 121.458 116.775 121.41 116.798 121.368C116.836 121.346 116.882 121.325 116.929 121.304C117.026 121.261 117.129 121.215 117.185 121.144L117.188 121.088C117.197 121.104 117.216 121.081 117.237 121.055C117.251 121.039 117.265 121.021 117.279 121.012C117.276 121.01 117.273 121.009 117.27 121.009C117.266 121.008 117.263 121.009 117.26 121.011C117.286 120.97 117.298 120.925 117.309 120.88C117.324 120.821 117.338 120.763 117.386 120.721C117.425 120.686 117.441 120.643 117.456 120.597C117.474 120.546 117.493 120.492 117.549 120.446C117.582 120.403 117.594 120.379 117.607 120.353C117.62 120.327 117.634 120.299 117.669 120.248C117.672 120.245 117.675 120.241 117.676 120.238Z" fill="white"/>
<path d="M124.985 136.657V120.236L120.443 120.237L120.344 120.742C120.33 120.766 120.272 120.818 120.207 120.876C120.098 120.973 119.97 121.087 120.001 121.11C119.984 121.123 119.974 121.192 119.963 121.261C119.951 121.334 119.94 121.407 119.922 121.403C119.863 121.469 119.609 121.784 119.606 121.794C119.608 121.805 119.607 121.817 119.604 121.829C119.615 121.844 119.617 121.846 119.639 121.831C119.662 121.816 119.62 121.868 119.604 121.859C119.617 121.915 119.578 121.967 119.578 121.967C119.578 121.967 119.49 122.128 119.494 122.18L119.49 122.23C119.44 122.292 119.402 122.385 119.371 122.46C119.354 122.502 119.34 122.538 119.326 122.561C119.305 122.596 119.277 122.618 119.254 122.636C119.236 122.649 119.222 122.661 119.215 122.675C119.198 122.706 119.198 122.777 119.198 122.777C119.198 122.777 119.163 122.874 119.137 122.9C119.137 122.9 119.08 123.004 119.075 123.077C119.054 123.106 119.021 123.16 119.031 123.184C119.041 123.208 118.981 123.242 118.981 123.242C118.977 123.245 118.975 123.254 118.972 123.265C118.968 123.285 118.961 123.312 118.941 123.33C118.926 123.353 118.926 123.365 118.926 123.379C118.926 123.39 118.926 123.402 118.918 123.423L118.866 123.49C118.849 123.544 118.824 123.574 118.798 123.606C118.771 123.639 118.742 123.674 118.72 123.74C118.708 123.753 118.705 123.802 118.702 123.859C118.697 123.941 118.692 124.041 118.657 124.075C118.657 124.075 118.618 124.124 118.588 124.24C118.571 124.304 118.546 124.338 118.527 124.364C118.512 124.385 118.501 124.4 118.501 124.421C118.491 124.447 118.489 124.483 118.487 124.518C118.486 124.542 118.484 124.566 118.48 124.585C118.458 124.632 118.45 124.647 118.435 124.675C118.421 124.701 118.4 124.74 118.353 124.833C118.353 124.833 118.309 124.957 118.248 125.044C118.187 125.13 118.11 125.274 118.09 125.316C118.083 125.331 118.079 125.356 118.075 125.385C118.067 125.438 118.058 125.504 118.021 125.543C117.965 125.602 117.937 125.671 117.937 125.671C117.894 125.768 117.902 125.952 117.902 125.952L118.021 125.979C118.021 125.979 117.983 126.062 118.24 125.966C118.247 125.965 118.267 125.965 118.292 125.965C118.351 125.964 118.438 125.964 118.448 125.952C118.478 125.954 118.516 125.961 118.557 125.969C118.667 125.989 118.8 126.014 118.857 125.959C118.903 125.962 118.992 125.972 118.992 125.972L119.649 125.945C119.649 125.945 119.742 125.942 119.743 125.959C119.743 125.959 119.845 125.917 119.854 125.934C119.912 125.924 119.942 125.955 119.972 125.986C120.003 126.017 120.033 126.048 120.092 126.03C120.096 126.037 120.121 126.032 120.153 126.025C120.205 126.015 120.273 126.002 120.291 126.03C120.246 126.074 120.326 126.135 120.534 125.98C120.577 125.967 120.579 126.005 120.581 126.047C120.583 126.08 120.584 126.114 120.605 126.13C120.605 126.119 120.67 126.119 120.725 126.119C120.762 126.119 120.794 126.119 120.799 126.115C120.775 126.13 121.045 126.146 121.045 126.146C121.045 126.146 121.156 126.16 121.198 126.25C121.184 126.273 121.21 126.286 121.235 126.298C121.241 126.301 121.248 126.305 121.253 126.308C121.232 126.37 121.106 126.427 120.978 126.466C120.954 126.468 120.901 126.46 120.839 126.45C120.702 126.428 120.519 126.4 120.5 126.461C120.477 126.52 120.391 126.528 120.311 126.536C120.262 126.541 120.215 126.546 120.186 126.562C120.097 126.545 119.875 126.587 119.875 126.587C119.852 126.594 119.826 126.599 119.799 126.605C119.733 126.619 119.666 126.633 119.655 126.664C119.639 126.663 119.646 126.654 119.652 126.647C119.659 126.639 119.665 126.632 119.643 126.635C119.6 126.641 119.363 126.635 119.363 126.635C119.307 126.633 119.253 126.631 119.201 126.629C118.629 126.606 118.303 126.593 117.928 126.783C117.911 126.782 117.891 126.885 118.071 126.869C118.122 126.877 118.175 126.873 118.225 126.858C118.224 126.872 118.221 126.915 118.237 126.885C118.246 126.869 118.266 126.872 118.281 126.874C118.295 126.876 118.305 126.877 118.302 126.866L118.303 126.854C118.303 126.854 119.198 126.814 119.213 126.812C119.201 126.819 119.036 126.834 118.845 126.852C118.565 126.877 118.23 126.908 118.237 126.925C118.254 126.922 118.303 126.925 118.378 126.93C118.533 126.941 118.795 126.958 119.105 126.939C119.126 126.936 119.145 126.934 119.164 126.932C119.216 126.926 119.263 126.92 119.322 126.921C119.337 126.928 119.365 126.925 119.391 126.923C119.408 126.922 119.424 126.92 119.437 126.921C119.47 126.924 119.543 126.913 119.538 126.91C119.538 126.91 119.6 126.898 119.643 126.901C119.682 126.904 119.689 126.913 119.697 126.924C119.7 126.926 119.702 126.929 119.705 126.932C119.719 126.945 119.795 126.988 119.865 126.939C119.882 126.94 119.886 126.946 119.89 126.951C119.893 126.956 119.896 126.961 119.908 126.963C119.925 126.964 119.938 126.951 119.949 126.941C119.96 126.931 119.967 126.924 119.974 126.932C119.98 126.941 119.997 126.933 120.016 126.923C120.034 126.914 120.055 126.904 120.072 126.906C120.085 126.909 120.109 126.906 120.13 126.903C120.162 126.899 120.189 126.896 120.169 126.913C120.069 126.934 119.963 127.001 119.963 127.001C119.94 127.019 119.908 127.055 119.951 127.049C120.149 126.973 120.184 126.959 120.184 126.959C120.334 126.91 120.629 126.903 120.872 126.908C121.115 126.913 121.189 127.058 121.18 127.232C121.175 127.322 121.065 127.427 120.953 127.535C120.849 127.633 120.744 127.734 120.717 127.827C120.697 127.894 120.324 128.362 120.324 128.362C120.324 128.362 120.24 128.516 120.151 128.585C120.151 128.585 120.019 128.689 119.964 128.74C119.926 128.779 119.884 128.883 119.841 128.986C119.805 129.073 119.769 129.16 119.737 129.207C119.686 129.269 119.63 129.379 119.576 129.486C119.529 129.579 119.484 129.67 119.444 129.723C119.43 129.736 119.405 129.763 119.377 129.793C119.312 129.863 119.227 129.955 119.189 129.977C119.13 130.012 119.123 130.058 119.115 130.104C119.11 130.138 119.104 130.171 119.077 130.199C119.067 130.209 119.05 130.22 119.032 130.231C119.008 130.246 118.983 130.262 118.973 130.277C118.89 130.409 118.771 130.55 118.66 130.68C118.62 130.727 118.581 130.773 118.546 130.817C118.545 130.83 118.559 130.823 118.57 130.819C118.581 130.814 118.588 130.811 118.561 130.841C118.534 130.871 118.51 130.869 118.485 130.867C118.463 130.865 118.44 130.863 118.414 130.886C118.384 130.914 118.398 130.917 118.409 130.919C118.418 130.921 118.425 130.922 118.411 130.933C118.397 130.944 118.388 130.941 118.381 130.938C118.371 130.934 118.364 130.932 118.35 130.964C118.335 130.997 118.322 131.024 118.308 131.052C118.298 131.073 118.287 131.094 118.275 131.12C118.259 131.132 118.248 131.151 118.245 131.172C118.226 131.185 118.215 131.232 118.2 131.294C118.189 131.342 118.175 131.4 118.153 131.459C118.103 131.593 117.974 131.796 117.882 131.867C117.762 131.946 117.65 132.178 117.65 132.178C117.623 132.216 117.446 132.452 117.446 132.452L117.218 132.77C117.2 132.805 117.129 132.937 117.069 132.99C116.99 133.041 116.926 133.277 116.926 133.277C116.889 133.324 116.792 133.433 116.792 133.433C116.764 133.469 116.696 133.525 116.696 133.525C116.696 133.525 116.681 133.597 116.615 133.654C116.605 133.667 116.596 133.677 116.587 133.687C116.563 133.715 116.545 133.736 116.526 133.784C116.506 133.832 116.427 133.905 116.427 133.905L116.362 134.008C116.354 134.034 116.318 134.073 116.285 134.109C116.253 134.144 116.224 134.176 116.223 134.191C116.199 134.169 116.14 134.313 116.14 134.313C116.14 134.313 116.069 134.392 116.049 134.448C116.049 134.448 115.933 134.457 115.916 134.499C115.898 134.538 114.982 135.815 114.982 135.815L114.879 136.102C114.844 136.189 114.784 136.241 114.721 136.295C114.682 136.328 114.642 136.363 114.605 136.407C114.605 136.409 114.605 136.411 114.605 136.413C114.603 136.444 114.599 136.509 114.575 136.534C114.556 136.522 114.565 136.503 114.573 136.488C114.58 136.474 114.585 136.463 114.565 136.465C114.518 136.523 114.474 136.619 114.461 136.649H114.577L124.985 136.657Z" fill="white"/>
<path fill-rule="evenodd" clip-rule="evenodd" d="M149.961 136.643V120.238H156.556C157.372 120.245 158.187 120.315 158.992 120.448C159.263 120.514 162.525 121.297 162.525 124.177C162.525 126.569 160.876 127.791 160.016 128.057C160.341 128.111 163.189 128.817 163.189 131.936C163.189 135.445 159.906 136.539 157.543 136.643H149.961ZM154.521 132.935V129.784H156.957C157.51 129.784 158.624 130.088 158.624 131.301C158.624 132.584 157.51 132.888 156.957 132.935H154.521ZM154.521 123.854V126.635H156.721C157.218 126.592 158.226 126.326 158.226 125.191C158.226 124.123 157.218 123.854 156.721 123.854H154.521Z" fill="white"/>
<path fill-rule="evenodd" clip-rule="evenodd" d="M82.7852 136.642L89.4257 120.237H93.9846L100.547 136.642H95.5717L94.4929 133.712H88.7218L87.6546 136.642H82.7852ZM91.6407 125.239L89.8949 130.182H93.4119L91.6407 125.239Z" fill="white"/>
<path d="M127.738 120.238V136.647H132.302L132.092 125.988H132.227L135.822 136.647H138.99L142.724 125.988H142.906L142.713 136.647H147.277V120.238H140.746L137.582 130.129L134.255 120.238H127.738Z" fill="white"/>
<path fill-rule="evenodd" clip-rule="evenodd" d="M182.161 128.382C182.188 130.209 181.609 131.994 180.513 133.458C178.931 135.525 176.333 136.653 173.484 136.653C170.636 136.653 168.076 135.615 166.505 133.557C165.395 132.066 164.799 130.257 164.806 128.4C164.78 126.571 165.36 124.784 166.456 123.319C168.036 121.251 170.636 120.229 173.484 120.229C176.333 120.229 178.91 121.236 180.482 123.294C181.585 124.76 182.175 126.548 182.161 128.382ZM173.483 132.743C175.753 132.743 177.593 130.817 177.593 128.441C177.593 126.065 175.753 124.139 173.483 124.139C171.214 124.139 169.374 126.065 169.374 128.441C169.374 130.817 171.214 132.743 173.483 132.743Z" fill="white"/>
</g>
<defs>
<filter id="filter0_d_503_336857" x="0" y="0" width="264.645" height="264.644" filterUnits="userSpaceOnUse" color-interpolation-filters="sRGB">
<feFlood flood-opacity="0" result="BackgroundImageFix"/>
<feColorMatrix in="SourceAlpha" type="matrix" values="0 0 0 0 0 0 0 0 0 0 0 0 0 0 0 0 0 0 127 0" result="hardAlpha"/>
<feOffset dy="4"/>
<feGaussianBlur stdDeviation="27"/>
<feComposite in2="hardAlpha" operator="out"/>
<feColorMatrix type="matrix" values="0 0 0 0 0.407843 0 0 0 0 0.156863 0 0 0 0 0.929412 0 0 0 0.2 0"/>
<feBlend mode="normal" in2="BackgroundImageFix" result="effect1_dropShadow_503_336857"/>
<feBlend mode="normal" in="SourceGraphic" in2="effect1_dropShadow_503_336857" result="shape"/>
</filter>
<clipPath id="clip0_503_336857">
<rect width="100" height="16.8646" fill="white" transform="translate(82.5117 120)"/>
</clipPath>
</defs>
</svg>
