<svg width="222" height="222" viewBox="0 0 222 222" fill="none" xmlns="http://www.w3.org/2000/svg">
<g filter="url(#filter0_d_503_336865)">
<circle cx="111.166" cy="107.167" r="66.2723" transform="rotate(15 111.166 107.167)" fill="white"/>
</g>
<path d="M111.331 110.348C110.783 111.199 109.197 107.753 107.899 109.627C107.669 109.959 106.717 112.929 108.736 113.779C111.057 114.774 112.599 112.323 113.522 107.191C113.58 106.931 113.536 109.988 113.681 109.887C113.81 109.8 113.94 109.786 114.084 109.843C114.228 109.901 114.344 110.031 114.416 110.204C114.502 110.377 114.517 110.622 114.502 110.91C114.445 111.242 114.344 111.631 114.2 112.092C114.055 112.568 112.426 115.481 109.327 115.452C106.169 115.437 104.555 112.02 104.41 111.501C104.252 110.968 104.18 110.463 104.18 109.959C104.194 109.454 104.266 109.007 104.41 108.589C104.555 108.171 104.713 107.883 104.901 107.695C105.088 107.522 105.967 105.936 109.226 106.787C112.354 107.638 111.561 110.016 111.331 110.348Z" fill="black"/>
<path d="M119.071 101.035C119.071 101.035 116.476 111.891 116.404 112.324C116.274 113.376 116.274 113.924 117.11 114.213C118.321 114.616 119.403 112.656 119.403 112.656C120.859 109.614 120.181 109.368 122.603 109.469C122.935 109.484 121.897 110.752 121.854 111.055C121.825 111.214 121.738 111.531 121.594 112.007C121.436 112.497 121.219 113.002 120.917 113.521C120.614 114.025 120.253 114.487 119.835 114.89C119.403 115.294 118.941 115.496 118.451 115.496C117.428 115.496 116.563 115.207 115.885 114.645C115.207 114.083 114.645 113.376 114.213 112.54C113.78 111.69 113.362 110.752 113.319 109.83C113.189 106.514 115.15 99.3773 115.351 99.1611C115.553 98.9448 115.813 98.8295 116.13 98.8295C116.433 98.8295 116.808 99.0169 117.327 99.1899C119.576 99.8675 119.071 101.035 119.071 101.035ZM142.802 110.637C142.989 110.19 143.278 110.046 143.652 110.219C144.013 110.392 144.157 110.752 144.085 111.315C144.027 111.69 143.941 112.093 143.782 112.497C143.624 112.915 142.888 115.294 140.668 115.294C138.65 115.294 137.381 112.67 137.136 112.209C136.905 111.776 136.703 111.315 136.545 110.796C136.386 110.291 136.285 109.815 136.256 109.383C136.213 108.95 136.242 108.604 136.314 108.33C136.372 108.056 136.516 107.927 136.747 107.956C136.948 108.013 137.179 108.071 137.453 108.157C137.713 108.244 137.958 108.345 138.203 108.46C138.448 108.575 138.664 108.705 138.866 108.864C139.068 109.022 139.226 109.195 139.342 109.397C139.457 109.599 139.529 109.902 139.601 110.291C139.659 110.68 139.717 111.07 139.789 111.473C139.861 111.877 139.918 112.237 139.99 112.569C140.063 112.901 140.163 113.102 140.322 113.175C140.437 113.232 140.582 113.189 140.798 113.088C141.014 112.973 141.23 112.8 141.475 112.583C141.706 112.353 141.951 112.079 142.196 111.762C142.413 111.401 142.614 111.055 142.802 110.637Z" fill="black"/>
<path d="M111.616 103.688C113.087 103.572 114.514 103.457 115.912 103.284C117.311 103.125 116.273 103.197 117.397 103.053C118.522 102.909 119.459 102.794 120.194 102.678C120.944 102.578 121.391 102.52 121.564 102.52C121.895 102.505 122.27 102.563 122.688 102.678C123.121 102.794 123.51 102.938 123.885 103.125C124.245 103.298 124.563 103.486 124.793 103.702C125.024 103.918 125.096 104.106 125.024 104.279C124.966 104.38 124.606 104.452 123.928 104.495C123.251 104.538 122.357 104.567 121.232 104.596C120.108 104.625 118.81 104.654 117.354 104.682C115.884 104.711 119.819 104.336 114.99 104.582C110.131 104.855 111.616 103.688 111.616 103.688ZM98.482 107.047C98.8713 107.047 99.2317 107.133 99.5777 107.335C99.9237 107.523 100.154 107.797 100.255 108.114C101.005 108.272 101.567 108.618 101.957 109.137C102.346 109.656 102.562 110.262 102.634 110.925C103.341 111.012 104.681 110.233 104.681 108.705C104.681 108.373 105.056 109.7 104.926 110.637C104.898 110.882 104.22 112.742 102.259 112.944C101.913 112.987 101.755 113.318 101.596 113.693C101.481 113.953 100.529 115.423 98.1937 115.423C96.7519 115.423 95.7427 114.126 95.3535 113.65C94.9786 113.174 94.7768 112.655 94.7624 112.078C94.7191 111.531 94.7912 110.954 94.9498 110.363C95.1084 109.772 95.3535 109.224 95.6706 108.734C95.9878 108.229 96.3771 107.84 96.8529 107.508C97.3286 107.205 97.8621 107.047 98.482 107.047ZM97.5737 113.996C97.8332 114.328 98.2513 114.328 98.8424 113.996C99.4335 113.664 99.967 113.174 100.457 112.482C99.9525 112.151 99.5056 111.732 99.0875 111.185C98.6694 110.651 98.3378 110.002 98.1071 109.282C97.5737 110.204 97.2421 111.127 97.1124 112.05C96.997 112.929 97.1412 113.592 97.5737 113.996ZM124.072 107.047C124.462 107.047 124.822 107.133 125.168 107.335C125.514 107.523 125.745 107.797 125.846 108.114C126.595 108.272 127.143 108.618 127.547 109.137C127.936 109.656 128.153 110.262 128.225 110.925C128.931 111.012 130.272 110.233 130.272 108.705C130.272 108.373 130.647 109.7 130.517 110.637C130.488 110.882 129.811 112.742 127.85 112.944C127.504 112.987 127.345 113.318 127.187 113.693C127.071 113.953 126.12 115.423 123.784 115.423C122.342 115.423 121.333 114.126 120.944 113.65C120.569 113.174 120.367 112.655 120.353 112.078C120.324 111.531 120.382 110.954 120.54 110.363C120.699 109.772 120.944 109.224 121.261 108.734C121.578 108.229 121.968 107.84 122.443 107.508C122.934 107.205 123.467 107.047 124.072 107.047ZM123.179 113.996C123.438 114.328 123.856 114.328 124.447 113.996C125.038 113.664 125.572 113.174 126.062 112.482C125.557 112.151 125.111 111.732 124.692 111.185C124.274 110.651 123.943 110.002 123.712 109.282C123.179 110.204 122.847 111.127 122.717 112.05C122.602 112.929 122.746 113.592 123.179 113.996Z" fill="black"/>
<path d="M137.476 110.262C137.245 110.103 136.236 107.811 136.308 108.344C136.423 109.238 134.246 114.169 132.603 113.318C130.887 112.439 131.536 109.685 131.637 109.541C132.069 108.834 134.996 105.317 136.192 98.3242C136.308 97.6322 136.596 94.9362 133.799 94.4748C130.815 93.9847 130.137 95.4985 129.834 96.1472C128.667 98.8 129.056 108.214 130.065 112.165C130.296 113.059 131.478 115.308 133.049 115.308C135.587 115.308 136.884 112.727 137.072 112.309C137.259 111.891 137.447 111.487 137.605 111.083C137.749 110.694 137.706 110.42 137.476 110.262ZM132.011 101.669C132.055 100.934 132.098 100.213 132.127 99.492C132.17 98.7856 132.242 98.1512 132.357 97.6034C132.473 97.0411 132.617 96.6086 132.804 96.277C132.992 95.9454 133.222 95.8012 133.482 95.8012C133.886 95.8301 134.16 96.1184 134.304 96.6374C134.448 97.1564 134.491 97.8052 134.448 98.5837C134.405 99.3623 134.275 100.213 134.073 101.15C133.871 102.087 133.655 102.981 133.424 103.846C133.093 105.129 132.329 106.715 132.156 107.003C132.069 104.379 131.968 103.053 132.011 101.669ZM153.637 110.305C153.536 110.276 153.421 110.29 153.32 110.363C153.219 110.42 153.118 110.507 153.032 110.608C152.844 110.968 152.599 111.184 152.282 111.271C151.965 111.357 151.576 111.343 151.085 111.213C151.085 110.91 151.028 110.608 150.927 110.305C150.826 110.002 150.667 109.743 150.422 109.512C150.192 109.238 149.86 109.036 149.427 108.906C149.009 108.791 148.649 108.719 148.375 108.719C148.087 108.748 147.856 108.834 147.668 108.979C147.481 109.137 147.366 109.31 147.308 109.541C147.25 109.771 147.279 110.017 147.366 110.29C147.452 110.564 147.611 110.838 147.842 111.112C147.827 111.343 147.784 111.617 147.726 111.934C147.669 112.266 147.582 112.568 147.467 112.842C147.351 113.116 147.222 113.347 147.077 113.52C146.933 113.693 146.746 113.722 146.544 113.592C146.328 113.477 146.184 113.246 146.068 112.929C145.953 112.612 145.881 112.28 145.809 111.934C145.737 111.53 145.708 111.112 145.693 110.651C146.169 109.973 146.63 109.195 147.092 108.315C147.553 107.436 147.971 106.513 148.346 105.547C148.721 104.581 149.053 103.615 149.341 102.649C149.629 101.683 149.845 100.775 149.99 99.9245C150.148 99.0739 150.192 98.3098 150.148 97.6178C150.105 96.9258 149.961 96.3779 149.672 95.9742C149.442 95.6282 149.067 95.311 148.591 95.0515C148.101 94.792 147.596 94.5758 147.077 94.446C146.558 94.3162 146.083 94.2153 145.636 94.2009C145.189 94.1865 144.857 94.2153 144.641 94.3162C144.007 94.5902 143.488 95.1669 143.098 96.0751C142.709 96.969 142.435 98.007 142.248 99.2037C142.075 100.4 141.974 101.669 141.959 103.024C141.945 104.379 141.988 105.663 142.089 106.874C142.19 108.07 142.349 109.137 142.522 110.031C142.709 110.939 142.896 111.545 143.127 111.876C143.415 112.309 145.29 115.308 147.899 115.308C150.336 115.308 151.085 112.367 150.509 112.28C152.7 112.597 153.738 110.334 153.637 110.305ZM145.376 101.799C145.419 101.063 145.463 100.343 145.506 99.6218C145.564 98.9153 145.636 98.281 145.765 97.7331C145.881 97.1708 146.054 96.7383 146.27 96.4067C146.486 96.0751 146.731 95.931 147.02 95.931C147.481 95.9598 147.784 96.2482 147.942 96.7672C148.101 97.2862 148.144 97.935 148.101 98.7135C148.043 99.492 147.914 100.343 147.683 101.28C147.452 102.202 147.207 103.111 146.976 103.976C146.731 104.841 146.457 105.619 146.155 106.297C145.852 106.975 145.621 107.479 145.434 107.767C145.333 105.547 145.318 103.543 145.376 101.799ZM149.283 110.492C149.197 110.42 149.125 110.348 149.053 110.276C148.966 110.204 148.908 110.132 148.865 110.074C148.807 110.017 148.779 109.959 148.764 109.901C148.75 109.844 148.75 109.815 148.779 109.786C148.836 109.728 148.894 109.728 148.966 109.771C149.038 109.815 149.125 109.858 149.211 109.93C149.298 110.002 149.384 110.103 149.471 110.218C149.557 110.334 149.629 110.449 149.716 110.55C149.802 110.651 149.86 110.752 149.903 110.853C149.961 110.939 149.99 111.011 150.004 111.069C149.701 110.853 149.471 110.665 149.283 110.492Z" fill="black"/>
<path d="M139.398 103.99C139.398 104.826 138.749 105.504 137.941 105.504C137.134 105.504 136.485 104.826 136.485 103.99C136.485 103.154 137.134 102.476 137.941 102.476C138.749 102.476 139.398 103.154 139.398 103.99ZM70.5555 106.081C70.5555 106.081 70.5267 106.138 70.469 106.268C70.4114 106.383 70.3537 106.556 70.2672 106.773C70.0942 107.205 69.8779 107.854 69.777 108.618C69.7193 109.007 69.7049 109.425 69.7193 109.872C69.7338 110.103 69.7482 110.334 69.777 110.564C69.7914 110.68 69.8058 110.795 69.8347 110.838C69.8491 110.925 69.8923 111.011 69.9212 111.098C70.1807 111.819 70.9448 112.698 71.9972 113.477C73.0641 114.255 74.3761 114.976 75.8466 115.683C77.3172 116.36 78.9607 117.038 80.7917 117.297C81.7 117.413 82.6371 117.456 83.5742 117.312C84.05 117.254 84.4969 117.153 84.9583 117.009C85.4196 116.879 85.8522 116.706 86.2847 116.49C87.1353 116.072 87.9138 115.495 88.5482 114.803C89.1825 114.111 89.6727 113.304 90.0476 112.453C90.235 112.021 90.3792 111.602 90.5233 111.156C90.6531 110.709 90.754 110.276 90.8693 109.771L90.9558 109.411L91.0279 109.065C91.0856 108.834 91.1433 108.604 91.1865 108.373C91.2298 108.142 91.2874 107.897 91.3307 107.667C91.3739 107.436 91.4172 107.191 91.446 106.975C91.7776 105.129 91.8353 103.313 91.5325 101.77C91.3739 101.006 91.1433 100.328 90.8261 99.7227C90.6675 99.42 90.4801 99.146 90.2926 98.8865C90.0908 98.627 89.8601 98.3819 89.615 98.1801C88.6347 97.2862 87.3227 96.6951 86.0107 96.3203C84.6844 95.9454 83.3724 95.7436 82.1758 95.6282C80.9791 95.5129 79.9267 95.4696 79.0328 95.4408C78.139 95.4264 77.4469 95.412 76.9568 95.4264C76.481 95.4264 76.2215 95.4408 76.2215 95.4408H76.0341L75.962 95.1813L76.1206 95.0948C76.1206 95.0948 76.3512 94.9795 76.8126 94.7776C77.2739 94.5902 77.9371 94.3307 78.831 94.0712C79.7249 93.8117 80.8061 93.5377 82.1037 93.3647C83.4012 93.1917 84.9006 93.1052 86.573 93.3071C87.4092 93.408 88.2887 93.5954 89.1969 93.9126C89.4276 93.9847 89.6583 94.0856 89.8746 94.1721C90.1052 94.273 90.3359 94.3739 90.5522 94.5037C91.0135 94.7344 91.4604 95.0371 91.893 95.3543C92.3255 95.6859 92.7436 96.0752 93.1184 96.5077C93.4788 96.9402 93.8249 97.4304 94.1132 97.935C94.3871 98.4396 94.6178 98.9874 94.7908 99.5353C94.8773 99.8092 94.9494 100.083 95.0215 100.371C95.0792 100.645 95.1224 100.934 95.1657 101.208C95.3242 102.332 95.281 103.457 95.1657 104.524C95.0503 105.605 94.8196 106.657 94.5313 107.695C94.4592 107.955 94.3727 108.2 94.3006 108.46C94.2141 108.719 94.142 108.964 94.0411 109.209C93.9546 109.469 93.8537 109.714 93.7528 109.959L93.5942 110.334C93.5365 110.449 93.4933 110.564 93.4356 110.694L93.104 111.415C92.9887 111.675 92.8589 111.92 92.7292 112.165C92.4696 112.655 92.1525 113.131 91.8209 113.592C91.1433 114.5 90.3359 115.293 89.4709 115.956C88.6058 116.62 87.6399 117.139 86.6739 117.542C86.4288 117.643 86.1838 117.73 85.9387 117.816C85.6936 117.903 85.4341 117.989 85.189 118.047C84.6844 118.191 84.1942 118.306 83.6752 118.407C82.666 118.595 81.6712 118.739 80.662 118.811C78.658 118.941 76.654 118.84 74.823 118.364C72.992 117.888 71.3341 117.067 69.9933 115.956C69.3157 115.423 68.7245 114.789 68.2199 114.097C67.7298 113.405 67.3261 112.612 67.1819 111.761C67.1387 111.545 67.1098 111.329 67.0954 111.112C67.081 110.867 67.081 110.68 67.1098 110.507C67.1242 110.334 67.1531 110.175 67.1963 110.002C67.2252 109.844 67.254 109.671 67.3117 109.526C67.4703 108.921 67.7153 108.373 67.9893 107.926C68.5227 107.032 69.1426 106.513 69.5752 106.21C69.6761 106.124 69.777 106.066 69.8779 106.023C69.9644 105.965 70.0365 105.937 70.0942 105.908C70.2095 105.85 70.2672 105.821 70.2672 105.821L70.4258 105.735L70.5844 105.893L70.5555 106.081Z" fill="black"/>
<path d="M82.4736 99.5497C81.7095 103.428 80.9598 107.321 80.1957 111.199C79.9506 112.468 82.6033 111.011 82.7619 110.132C83.526 106.254 84.2757 102.361 85.0398 98.4829C85.2994 97.2142 82.6466 98.6847 82.4736 99.5497Z" fill="black"/>
<defs>
<filter id="filter0_d_503_336865" x="0.878906" y="0.877916" width="220.574" height="220.578" filterUnits="userSpaceOnUse" color-interpolation-filters="sRGB">
<feFlood flood-opacity="0" result="BackgroundImageFix"/>
<feColorMatrix in="SourceAlpha" type="matrix" values="0 0 0 0 0 0 0 0 0 0 0 0 0 0 0 0 0 0 127 0" result="hardAlpha"/>
<feOffset dy="4"/>
<feGaussianBlur stdDeviation="22"/>
<feComposite in2="hardAlpha" operator="out"/>
<feColorMatrix type="matrix" values="0 0 0 0 0 0 0 0 0 0 0 0 0 0 0 0 0 0 0.05 0"/>
<feBlend mode="normal" in2="BackgroundImageFix" result="effect1_dropShadow_503_336865"/>
<feBlend mode="normal" in="SourceGraphic" in2="effect1_dropShadow_503_336865" result="shape"/>
</filter>
</defs>
</svg>
