<svg width="266" height="265" viewBox="0 0 266 265" fill="none" xmlns="http://www.w3.org/2000/svg">
<g filter="url(#filter0_d_145_66507)">
<circle cx="132.81" cy="128.322" r="78.3221" fill="white"/>
</g>
<path d="M148.27 140.88C139.602 135.875 135.122 127.51 129.319 114.208C143.48 112.368 154.911 113.253 161.893 117.284C168.408 121.046 170.641 129.378 166.879 135.893C163.117 142.409 154.786 144.642 148.27 140.88Z" fill="#6828ED"/>
<path d="M116.453 114.806C125.12 119.811 129.6 128.176 135.403 141.478C121.243 143.318 109.812 142.433 102.83 138.402C96.3142 134.64 94.0818 126.308 97.8436 119.793C101.605 113.277 109.937 111.045 116.453 114.806Z" fill="#FF8C22"/>
<defs>
<filter id="filter0_d_145_66507" x="0.488281" y="0" width="264.645" height="264.644" filterUnits="userSpaceOnUse" color-interpolation-filters="sRGB">
<feFlood flood-opacity="0" result="BackgroundImageFix"/>
<feColorMatrix in="SourceAlpha" type="matrix" values="0 0 0 0 0 0 0 0 0 0 0 0 0 0 0 0 0 0 127 0" result="hardAlpha"/>
<feOffset dy="4"/>
<feGaussianBlur stdDeviation="27"/>
<feComposite in2="hardAlpha" operator="out"/>
<feColorMatrix type="matrix" values="0 0 0 0 0.407843 0 0 0 0 0.156863 0 0 0 0 0.929412 0 0 0 0.2 0"/>
<feBlend mode="normal" in2="BackgroundImageFix" result="effect1_dropShadow_145_66507"/>
<feBlend mode="normal" in="SourceGraphic" in2="effect1_dropShadow_145_66507" result="shape"/>
</filter>
</defs>
</svg>
