<svg width="211" height="211" viewBox="0 0 211 211" fill="none" xmlns="http://www.w3.org/2000/svg">
<path d="M179.574 105.631C179.574 146.5 146.443 179.631 105.574 179.631C64.7052 179.631 31.5742 146.5 31.5742 105.631C31.5742 64.7617 64.7052 31.6308 105.574 31.6308C146.443 31.6308 179.574 64.7617 179.574 105.631Z" fill="#F43B00"/>
<path d="M154.095 110.967C153.585 110.637 152.923 110.757 152.563 111.267C152.503 111.357 151.182 113.278 148.87 113.278C147.97 113.278 147.279 113.008 146.829 112.438C146.799 112.408 146.769 112.348 146.739 112.318C146.739 112.318 146.769 112.318 146.769 112.287C152.233 109.165 152.173 106.492 151.933 105.502C151.603 104.301 150.552 103.519 149.2 103.519C146.078 103.519 144.006 107.002 144.006 110.245C144.006 110.667 144.036 111.057 144.096 111.447C142.986 112.257 141.274 113.278 139.773 113.278C138.902 113.278 138.242 113.008 137.822 112.498C137.672 112.318 137.552 112.107 137.462 111.897C141.635 110.697 143.226 108.024 142.926 105.892C142.746 104.511 141.695 103.519 140.403 103.519C137.492 103.519 135.389 106.582 135.059 109.585C134.489 109.525 134.009 109.375 133.557 109.075C133.617 108.594 133.677 108.114 133.677 107.664C133.677 106.672 133.497 105.832 133.137 105.171C132.657 104.301 131.846 103.821 130.916 103.821C130.406 103.821 129.954 104.091 129.684 104.571C129.144 105.562 129.504 107.484 130.496 109.015C130.676 109.315 130.886 109.585 131.126 109.855C130.586 111.597 129.444 113.248 128.003 113.248C127.343 113.248 126.861 113.038 126.441 112.618C125.871 111.987 125.481 110.877 125.361 109.465C129.444 104.361 131.456 99.3463 130.314 96.9748C129.924 96.1634 129.204 95.7134 128.333 95.7134C125.511 95.7134 123.83 99.3763 123.168 106.912C123.138 107.364 123.108 107.934 123.108 108.534C121.607 110.577 119.115 113.248 116.894 113.248C116.263 113.248 115.782 113.038 115.482 112.588C115.452 112.558 115.422 112.498 115.392 112.468C115.422 112.468 115.452 112.438 115.482 112.408C120.977 108.865 120.887 106.192 120.617 105.231C120.317 104.181 119.355 103.489 118.124 103.489C114.942 103.489 112.78 107.154 112.78 110.577C112.78 110.877 112.81 111.177 112.84 111.477C111.82 112.197 111.008 112.858 110.198 113.488C110.318 112.558 110.498 111.357 110.708 109.585C110.768 109.225 110.798 108.925 110.828 108.774C111.008 107.484 108.877 107.214 108.637 108.654C108.397 110.155 107.767 113.248 105.995 113.248C104.944 113.248 104.374 112.077 104.494 110.365C104.644 107.664 106.115 105.472 107.917 105.472C108.547 105.472 108.847 106.132 108.847 106.132C109.417 107.154 111.189 106.282 110.798 105.201C110.618 104.721 110.048 103.489 107.977 103.489C103.772 103.489 102.451 107.754 102.271 110.577C102.241 111.027 102.241 111.477 102.301 111.927C101.701 112.648 101.011 113.248 100.319 113.248C99.6592 113.248 99.2392 112.498 99.4792 110.787C99.7192 109.135 99.8993 107.784 99.9893 107.002C100.499 103.429 96.0263 103.519 96.0263 103.519C96.0263 103.519 95.9663 101.418 94.2548 101.418C93.3834 101.418 92.5734 102.109 92.5734 103.399C92.5734 104.601 93.5634 105.201 93.5634 105.201C93.3534 107.064 92.4833 113.248 90.5319 113.248C89.6604 113.248 89.6004 112.318 89.6904 111.657C89.8105 110.757 89.9605 109.195 90.0205 108.804C90.2005 107.514 88.069 107.244 87.829 108.684C87.589 110.185 86.9589 113.278 85.1874 113.278C84.136 113.278 83.566 111.957 83.656 110.335C83.806 107.604 85.2774 105.502 87.0789 105.502C87.709 105.502 88.009 106.162 88.009 106.162C88.4904 107.184 90.3218 106.462 89.9605 105.231C89.8105 104.691 89.2104 103.519 87.1389 103.519C82.9346 103.519 81.6145 107.784 81.4331 110.607C81.4031 111.057 81.4031 111.477 81.4331 111.867C80.8331 112.678 80.1131 113.278 79.4216 113.278C78.7916 113.278 78.3116 112.948 78.4316 111.537C78.4916 110.877 79.2416 106.342 79.2116 105.532C79.1216 104.151 78.4916 103.549 76.9601 103.549C75.3387 103.549 74.1372 104.391 73.6272 104.901C73.6272 104.901 74.3773 99.1963 74.5286 98.0849C74.6787 96.9448 72.4558 96.9148 72.3358 98.0849C72.2758 98.5963 71.6757 103.099 71.1357 107.304C69.8743 110.065 67.3814 114.269 63.6884 114.269C56.6926 114.269 59.9055 99.0163 66.4813 99.0163C68.0128 99.0163 67.3214 101.478 66.3013 102.949C65.5799 104.031 67.4114 105.231 68.4328 103.519C71.2557 98.7463 68.8828 96.9748 66.6313 96.9748C56.9026 96.9748 53.2996 116.371 63.4184 116.371C66.7514 116.371 69.0028 114.51 70.4443 112.468C70.2943 113.608 70.2043 114.39 70.1743 114.54C69.9942 115.74 72.2457 115.65 72.3657 114.63C72.4558 113.998 72.7872 111.327 73.0572 109.255C73.2072 108.084 74.6486 105.922 76.2701 105.922C76.6601 105.922 76.9001 106.312 76.8701 106.642C76.8101 107.032 76.1187 112.107 76.1487 112.858C76.2701 114.99 77.8002 115.47 79.2416 115.47C80.3831 115.47 81.3131 114.93 82.0645 114.09C82.5745 114.93 83.356 115.47 84.436 115.47C86.8689 115.47 87.709 113.728 87.709 113.728C87.709 113.728 88.009 115.47 90.1105 115.47C94.3748 115.47 95.3649 108.054 95.5763 105.562C95.8163 105.562 97.3177 105.652 97.5878 106.492C97.8278 107.304 97.0764 109.885 97.0164 112.558C96.9864 113.968 97.4977 115.47 99.7192 115.47C101.071 115.47 102.151 114.84 102.902 114.15C103.412 114.96 104.192 115.47 105.244 115.47C106.445 115.47 107.255 115.08 107.767 114.69C107.737 114.93 107.707 115.14 107.675 115.38V115.41C107.675 115.38 102.061 119.434 102.061 123.247C102.061 124.748 102.752 125.708 104.524 125.708C108.037 125.708 109.147 120.994 109.658 117.121C109.688 116.941 109.718 116.761 109.718 116.611C110.258 116.191 110.768 115.801 111.279 115.41C112 114.84 112.72 114.299 113.531 113.698C113.561 113.758 113.621 113.818 113.651 113.878C114.401 114.9 115.512 115.44 116.864 115.44C119.415 115.44 121.788 113.488 123.47 111.567C123.74 112.498 124.13 113.398 124.79 114.12C125.601 114.99 126.711 115.47 127.973 115.47C130.406 115.47 132.086 113.518 132.987 111.267C133.647 111.567 134.399 111.747 135.179 111.807C135.359 112.588 135.66 113.308 136.14 113.878C136.74 114.6 137.852 115.47 139.803 115.47C141.755 115.47 143.676 114.42 144.967 113.548C145.027 113.638 145.087 113.728 145.147 113.818C145.748 114.57 146.919 115.47 148.9 115.47C152.413 115.47 154.365 112.588 154.455 112.468C154.725 111.987 154.575 111.297 154.095 110.967ZM104.794 123.577C104.464 123.577 104.224 123.367 104.224 122.947C104.224 121.025 107.195 118.412 107.225 118.412C106.865 120.994 105.814 123.577 104.794 123.577ZM118.064 105.562C118.335 105.562 118.395 105.772 118.455 105.892C118.575 106.312 118.154 107.904 114.942 110.125C115.122 108.024 116.413 105.562 118.064 105.562ZM128.273 97.9649C129.204 97.9649 128.453 101.148 125.481 105.592C126.171 99.6763 127.133 97.9649 128.273 97.9649ZM140.163 105.562C140.643 105.562 140.673 106.042 140.703 106.222C140.823 107.124 139.983 108.744 137.22 109.675C137.522 107.724 138.812 105.562 140.163 105.562ZM149.17 105.562C149.5 105.562 149.682 105.802 149.772 106.102C149.952 106.732 149.11 108.324 146.169 110.125C146.229 108.024 147.489 105.562 149.17 105.562Z" fill="#101010"/>
</svg>
