<svg width="129" height="129" viewBox="0 0 129 129" fill="none" xmlns="http://www.w3.org/2000/svg">
<circle cx="64.2316" cy="64.7397" r="52.4435" transform="rotate(15 64.2316 64.7397)" fill="#6828ED"/>
<path fill-rule="evenodd" clip-rule="evenodd" d="M93.622 64.5829C93.622 60.3873 91.5899 57.0767 87.7058 57.0767C83.8053 57.0767 81.4453 60.3873 81.4453 64.5501C81.4453 69.4834 84.2314 71.9744 88.2302 71.9744C90.1804 71.9744 91.6554 71.532 92.7698 70.9092V67.6312C91.6554 68.1886 90.3771 68.5328 88.7546 68.5328C87.1649 68.5328 85.7555 67.9754 85.5752 66.0416H93.5893C93.5893 65.8285 93.622 64.9762 93.622 64.5829ZM85.5261 63.0259C85.5261 61.1739 86.6569 60.4037 87.6894 60.4037C88.6891 60.4037 89.7543 61.1739 89.7543 63.0259H85.5261Z" fill="white"/>
<path fill-rule="evenodd" clip-rule="evenodd" d="M75.1217 57.0767C73.5156 57.0767 72.4831 57.8305 71.9084 58.355L71.6953 57.3389H68.0898V76.4485L72.1881 75.5799L72.2045 70.942C72.7945 71.3681 73.663 71.9744 75.1052 71.9744C78.0388 71.9744 80.7102 69.6145 80.7102 64.419C80.6938 59.6662 77.9897 57.0767 75.1217 57.0767ZM74.1383 68.3689C73.1714 68.3689 72.5978 68.0246 72.2045 67.5985L72.1881 61.5181C72.6142 61.0428 73.2042 60.715 74.1383 60.715C75.6297 60.715 76.6622 62.3868 76.6622 64.5337C76.6622 66.7299 75.6461 68.3689 74.1383 68.3689Z" fill="white"/>
<path d="M66.5706 57.3535H62.457V71.6937H66.5706V57.3535Z" fill="white"/>
<path fill-rule="evenodd" clip-rule="evenodd" d="M58.0444 58.5682L57.7821 57.3554H54.2422V71.6961H58.3393V61.9771C59.3063 60.7152 60.9451 60.9447 61.4532 61.1249V57.3554C60.9287 57.1588 59.0113 56.7982 58.0444 58.5682Z" fill="white"/>
<path fill-rule="evenodd" clip-rule="evenodd" d="M49.8512 53.7998L45.8523 54.652L45.8359 67.7798C45.8359 70.2057 47.6551 71.992 50.0806 71.992C51.4245 71.992 52.4078 71.7462 52.9486 71.4512V68.124C52.4242 68.3374 49.8348 69.0912 49.8348 66.6653V60.8471H52.9486V57.3562H49.8348L49.8512 53.7998Z" fill="white"/>
<path fill-rule="evenodd" clip-rule="evenodd" d="M38.7713 61.5181C38.7713 60.8789 39.2958 60.6331 40.1644 60.6331C41.4099 60.6331 42.9832 61.01 44.2287 61.682V57.8305C42.8685 57.2897 41.5246 57.0767 40.1644 57.0767C36.8375 57.0767 34.625 58.8139 34.625 61.7147C34.625 66.2382 40.8527 65.5171 40.8527 67.4674C40.8527 68.2213 40.1971 68.4673 39.2794 68.4673C37.9191 68.4673 36.1819 67.9098 34.8053 67.156V71.0567C36.3294 71.7122 37.87 71.9908 39.2794 71.9908C42.6882 71.9908 45.0318 70.3028 45.0318 67.369C45.0154 62.4851 38.7713 63.3537 38.7713 61.5181Z" fill="white"/>
</svg>
