<svg width="237" height="237" viewBox="0 0 237 237" fill="none" xmlns="http://www.w3.org/2000/svg">
<g filter="url(#filter0_d_503_336903)">
<path d="M192.652 114.652C192.652 155.521 159.521 188.652 118.652 188.652C77.7833 188.652 44.6524 155.521 44.6524 114.652C44.6524 73.7827 77.7833 40.6518 118.652 40.6518C159.521 40.6518 192.652 73.7827 192.652 114.652Z" fill="white"/>
</g>
<path d="M96.2191 119.681V115.874H98.9204C99.0152 115.874 99.1574 115.874 99.3312 115.858C99.505 115.842 99.6629 115.827 99.8051 115.811C100.437 115.716 100.958 115.511 101.369 115.179C101.78 114.863 102.096 114.452 102.301 113.963C102.506 113.473 102.601 112.92 102.601 112.335C102.601 111.735 102.506 111.182 102.301 110.692C102.096 110.203 101.796 109.792 101.385 109.476C100.974 109.16 100.453 108.939 99.8051 108.844C99.6629 108.813 99.505 108.797 99.347 108.797C99.1732 108.797 99.0468 108.781 98.9362 108.781H94.4023V119.681H96.2191V119.681ZM98.8415 114.168H96.2191V110.487H98.8415C98.9362 110.487 99.0626 110.487 99.189 110.503C99.3154 110.503 99.426 110.534 99.5365 110.566C99.8367 110.645 100.074 110.771 100.263 110.961C100.437 111.151 100.563 111.372 100.642 111.609C100.721 111.846 100.753 112.098 100.753 112.32C100.753 112.541 100.721 112.793 100.642 113.03C100.563 113.267 100.437 113.489 100.263 113.678C100.089 113.868 99.8525 114.01 99.5365 114.073C99.426 114.105 99.3154 114.12 99.189 114.136C99.0626 114.168 98.952 114.168 98.8415 114.168ZM111.179 116.111C111.258 115.132 111.148 114.278 110.848 113.568C110.563 112.841 110.121 112.288 109.521 111.893C108.92 111.498 108.194 111.293 107.341 111.293C106.535 111.293 105.824 111.466 105.208 111.83C104.592 112.193 104.118 112.699 103.77 113.362C103.423 114.026 103.249 114.8 103.249 115.684C103.249 116.506 103.423 117.248 103.786 117.88C104.134 118.512 104.623 119.018 105.255 119.365C105.887 119.729 106.614 119.902 107.451 119.902C108.241 119.902 108.968 119.697 109.631 119.286C110.295 118.876 110.769 118.307 111.085 117.564L109.268 117.027C109.094 117.406 108.841 117.691 108.51 117.896C108.178 118.101 107.799 118.196 107.341 118.196C106.645 118.196 106.108 117.975 105.745 117.517C105.476 117.185 105.303 116.743 105.239 116.222L105.224 116.111H110.279H111.179V116.111ZM109.315 114.721H105.271L105.287 114.626C105.366 114.247 105.492 113.915 105.682 113.662L105.745 113.568C106.108 113.109 106.677 112.872 107.42 112.872C108.083 112.872 108.573 113.078 108.889 113.489C109.094 113.757 109.236 114.136 109.299 114.626L109.315 114.721ZM114.228 119.681V115.479C114.228 114.974 114.291 114.563 114.402 114.247C114.513 113.931 114.655 113.678 114.844 113.489C115.034 113.299 115.239 113.173 115.46 113.094C115.682 113.015 115.919 112.983 116.156 112.983C116.598 112.983 116.945 113.078 117.198 113.267C117.451 113.457 117.641 113.694 117.783 113.978C117.909 114.263 117.988 114.563 118.035 114.879C118.083 115.195 118.083 115.479 118.083 115.732V119.665H119.947V115.1C119.947 114.91 119.931 114.642 119.9 114.326C119.868 114.01 119.789 113.678 119.678 113.331C119.568 112.983 119.394 112.651 119.157 112.335C118.92 112.019 118.604 111.767 118.209 111.561C117.814 111.356 117.309 111.261 116.708 111.261C115.934 111.261 115.287 111.435 114.765 111.767C114.528 111.925 114.307 112.098 114.118 112.288L114.023 112.399V111.498H112.364V119.665H114.228V119.681ZM123.486 119.681V115.479C123.486 114.974 123.549 114.563 123.659 114.247C123.77 113.931 123.912 113.678 124.102 113.489C124.291 113.299 124.497 113.173 124.718 113.094C124.939 113.015 125.176 112.983 125.413 112.983C125.855 112.983 126.203 113.078 126.456 113.267C126.708 113.457 126.898 113.694 127.04 113.978C127.166 114.263 127.245 114.563 127.293 114.879C127.34 115.195 127.34 115.479 127.34 115.732V119.665H129.204V115.1C129.204 114.91 129.189 114.642 129.157 114.326C129.125 114.01 129.046 113.678 128.936 113.331C128.825 112.983 128.651 112.651 128.414 112.335C128.177 112.019 127.862 111.767 127.467 111.561C127.072 111.356 126.566 111.261 125.966 111.261C125.192 111.261 124.544 111.435 124.023 111.767C123.786 111.925 123.565 112.098 123.375 112.288L123.28 112.399V111.498H121.637V119.665H123.486V119.681ZM133.406 123.315L137.988 111.514H136.155L133.912 117.359L131.621 111.514H129.71L133.043 119.634L131.685 123.33H133.406V123.315ZM140.831 119.681V108.56H138.999V119.681H140.831ZM145.16 119.918C145.902 119.918 146.518 119.776 147.008 119.507C147.372 119.302 147.703 119.018 147.988 118.654L148.035 118.591V119.697H149.646V114.673C149.646 114.326 149.631 113.994 149.599 113.694C149.567 113.394 149.473 113.094 149.33 112.809C149.062 112.272 148.651 111.877 148.098 111.64C147.545 111.403 146.898 111.277 146.171 111.277C145.207 111.277 144.433 111.482 143.864 111.909C143.296 112.335 142.901 112.888 142.695 113.568L144.37 114.089C144.512 113.662 144.749 113.378 145.097 113.204C145.444 113.03 145.808 112.951 146.171 112.951C146.787 112.951 147.229 113.078 147.482 113.346C147.672 113.552 147.798 113.836 147.845 114.199L147.861 114.326L147.687 114.357C147.545 114.373 147.419 114.389 147.277 114.421L146.882 114.484C146.36 114.563 145.871 114.642 145.428 114.721C144.986 114.8 144.591 114.895 144.259 115.005C143.817 115.147 143.47 115.337 143.185 115.574C142.917 115.811 142.711 116.079 142.569 116.395C142.443 116.711 142.364 117.059 142.364 117.454C142.364 117.896 142.474 118.307 142.68 118.686C142.885 119.065 143.201 119.365 143.612 119.586C144.054 119.792 144.56 119.918 145.16 119.918ZM145.523 118.465C145.239 118.465 144.986 118.417 144.797 118.323C144.607 118.228 144.449 118.117 144.354 117.959C144.259 117.801 144.196 117.628 144.196 117.422C144.196 117.248 144.228 117.09 144.307 116.964C144.386 116.838 144.496 116.711 144.639 116.617C144.781 116.522 144.97 116.427 145.176 116.348C145.397 116.285 145.65 116.206 145.934 116.158C146.218 116.095 146.566 116.032 146.961 115.969C147.182 115.937 147.435 115.89 147.719 115.842L147.814 115.827V115.89C147.814 115.969 147.814 116.064 147.798 116.158V116.301C147.782 116.601 147.735 116.869 147.64 117.106C147.577 117.296 147.466 117.485 147.293 117.707C147.119 117.912 146.882 118.101 146.582 118.244C146.297 118.386 145.934 118.465 145.523 118.465ZM153.201 119.681V115.479C153.201 114.974 153.264 114.563 153.375 114.247C153.485 113.931 153.627 113.678 153.817 113.489C154.006 113.299 154.212 113.173 154.433 113.094C154.654 113.015 154.891 112.983 155.128 112.983C155.57 112.983 155.918 113.078 156.171 113.267C156.424 113.457 156.613 113.694 156.755 113.978C156.882 114.263 156.961 114.563 157.008 114.879C157.04 115.195 157.055 115.479 157.055 115.732V119.665H158.92V115.1C158.92 114.91 158.904 114.642 158.872 114.326C158.841 114.01 158.762 113.678 158.651 113.331C158.54 112.983 158.367 112.651 158.13 112.335C157.893 112.019 157.577 111.767 157.182 111.561C156.787 111.356 156.281 111.261 155.681 111.261C154.907 111.261 154.259 111.435 153.738 111.767C153.501 111.925 153.28 112.098 153.09 112.288L152.995 112.399V111.498H151.352V119.665H153.201V119.681ZM167.956 116.111C168.035 115.132 167.924 114.278 167.624 113.568C167.34 112.841 166.897 112.288 166.297 111.893C165.697 111.498 164.97 111.293 164.117 111.293C163.311 111.293 162.6 111.466 161.984 111.83C161.368 112.193 160.894 112.699 160.547 113.362C160.199 114.026 160.025 114.8 160.025 115.684C160.025 116.506 160.199 117.248 160.562 117.88C160.91 118.512 161.4 119.018 162.032 119.365C162.664 119.729 163.39 119.902 164.227 119.902C165.017 119.902 165.744 119.697 166.408 119.286C167.071 118.876 167.545 118.307 167.861 117.564L166.044 117.027C165.87 117.406 165.618 117.691 165.286 117.896C164.954 118.101 164.575 118.196 164.117 118.196C163.422 118.196 162.885 117.975 162.521 117.517C162.253 117.185 162.079 116.743 162.016 116.222L162 116.111H167.055H167.956V116.111ZM166.092 114.721H162.047L162.063 114.626C162.142 114.247 162.269 113.915 162.458 113.662L162.521 113.568C162.885 113.109 163.453 112.872 164.196 112.872C164.859 112.872 165.349 113.078 165.665 113.489C165.87 113.757 166.013 114.136 166.076 114.626L166.092 114.721Z" fill="black"/>
<path d="M85.6202 110.803L83.9614 109.113L83.0452 108.181C81.7814 106.901 79.7593 106.901 78.4955 108.181L78.1795 108.497L79.5223 109.871C79.6961 110.045 79.9804 110.045 80.1542 109.871C80.3122 109.713 80.5334 109.618 80.7545 109.618C80.9757 109.618 81.1969 109.713 81.3548 109.871L82.2711 110.803L80.7703 112.336L74.9094 106.396L73.2507 108.086L75.9205 110.787L73.1875 113.568L83.1242 123.647L84.7987 121.956L82.4449 119.571L86.0783 115.874C87.3263 114.595 87.3263 112.541 86.0783 111.261L85.6202 110.803ZM84.4038 114.184L81.0705 117.549C80.8967 117.723 80.6123 117.723 80.4386 117.549L76.5208 113.568L77.5792 112.494L80.7703 115.732L83.9456 112.494L84.4038 112.952C84.5617 113.11 84.6565 113.331 84.6565 113.568C84.6565 113.805 84.5617 114.01 84.4038 114.184ZM86.5206 109.887L88.2742 108.102L86.6154 106.412L84.5301 108.513L85.8729 109.887C86.0625 110.061 86.3469 110.061 86.5206 109.887Z" fill="black"/>
<defs>
<filter id="filter0_d_503_336903" x="0.652344" y="0.651798" width="236" height="236" filterUnits="userSpaceOnUse" color-interpolation-filters="sRGB">
<feFlood flood-opacity="0" result="BackgroundImageFix"/>
<feColorMatrix in="SourceAlpha" type="matrix" values="0 0 0 0 0 0 0 0 0 0 0 0 0 0 0 0 0 0 127 0" result="hardAlpha"/>
<feOffset dy="4"/>
<feGaussianBlur stdDeviation="22"/>
<feComposite in2="hardAlpha" operator="out"/>
<feColorMatrix type="matrix" values="0 0 0 0 0 0 0 0 0 0 0 0 0 0 0 0 0 0 0.05 0"/>
<feBlend mode="normal" in2="BackgroundImageFix" result="effect1_dropShadow_503_336903"/>
<feBlend mode="normal" in="SourceGraphic" in2="effect1_dropShadow_503_336903" result="shape"/>
</filter>
</defs>
</svg>
