<svg width="177" height="177" viewBox="0 0 177 177" fill="none" xmlns="http://www.w3.org/2000/svg">
<circle cx="88.3129" cy="88.8237" r="71.8824" transform="rotate(15 88.3129 88.8237)" fill="white"/>
<path d="M70.4784 88.2566C70.4784 88.9421 70.5468 89.6264 70.6837 90.1736C70.8206 90.7894 71.0261 91.2692 71.3683 91.7479C71.7106 92.1592 72.0529 92.5693 72.6006 92.775C73.1483 92.9806 73.696 93.1863 74.3805 93.1863C75.0651 93.1863 75.6128 93.0492 76.2289 92.8435C76.7766 92.6379 77.1873 92.3649 77.5296 92.1592V83.6022C77.1873 83.4651 76.845 83.4652 76.4343 83.3966C76.0235 83.328 75.4759 83.328 74.7912 83.328C73.4906 83.328 72.4636 83.7381 71.6422 84.6281C70.8891 85.4495 70.4784 86.6823 70.4784 88.2566ZM68.4246 85.2451C68.7669 84.3551 69.1776 83.6022 69.7937 82.9853C70.4098 82.3695 71.0945 81.8897 71.916 81.5481C72.7374 81.3424 73.696 81.1368 74.7228 81.1368C75.8182 81.1368 76.845 81.2053 77.735 81.411C78.625 81.6167 79.3095 81.7538 79.8572 81.8897V100.785L77.4612 101.196V94.3493C77.1873 94.5549 76.7082 94.7606 76.092 94.9662C75.4759 95.1719 74.7912 95.3078 74.0382 95.3078C73.0797 95.3078 72.1898 95.1033 71.4368 94.7606C70.6837 94.4178 70.0675 93.9392 69.5198 93.3234C68.9723 92.7064 68.6299 91.9536 68.3561 91.0636C68.0823 90.1736 67.9453 89.2836 67.9453 88.2566C67.9453 87.1621 68.0823 86.1351 68.4246 85.2451ZM95.1921 88.188C95.1921 89.2836 95.0553 90.2422 94.7129 91.1321C94.3706 92.0221 93.9599 92.775 93.4122 93.3919C92.8645 94.0077 92.1799 94.4864 91.4268 94.8291C90.6739 95.1719 89.7839 95.3078 88.8939 95.3078C88.0039 95.3078 87.114 95.1719 86.3609 94.8291C85.6079 94.4864 84.9232 94.0077 84.3756 93.3919C83.8279 92.775 83.3487 92.0221 83.0748 91.1321C82.7325 90.2422 82.5957 89.2836 82.5957 88.188C82.5957 87.1621 82.7325 86.1351 83.0748 85.3136C83.4171 84.4237 83.8279 83.6696 84.3756 83.0538C84.9232 82.4381 85.6079 81.9582 86.3609 81.6166C87.114 81.2739 88.0039 81.1368 88.8939 81.1368C89.7839 81.1368 90.6739 81.2739 91.4268 81.6166C92.1799 81.9582 92.8645 82.4381 93.4122 83.0538C93.9599 83.6696 94.439 84.4237 94.7129 85.3136C95.0553 86.2036 95.1921 87.1621 95.1921 88.188ZM92.6591 88.188C92.6591 86.6823 92.3168 85.4495 91.6323 84.5596C90.9477 83.6696 89.9892 83.1909 88.8255 83.1909C87.6617 83.1909 86.7031 83.6696 86.0186 84.5596C85.334 85.4495 85.0602 86.6823 85.0602 88.188C85.0602 89.6949 85.4025 90.9265 86.087 91.8164C86.7717 92.7064 87.7301 93.1863 88.8939 93.1863C90.0577 93.1863 91.0161 92.7064 91.7007 91.8164C92.3168 90.9265 92.6591 89.7635 92.6591 88.188ZM97.8621 81.8223C98.4097 81.6852 99.1627 81.5481 100.053 81.411C100.943 81.2739 102.038 81.2053 103.202 81.2053C104.297 81.2053 105.187 81.3424 105.872 81.6852C106.556 81.9582 107.172 82.4381 107.583 82.9853C108.062 83.3966 108.336 84.0809 108.542 84.8338C108.747 85.5866 108.816 86.4081 108.816 87.3666V94.9662H106.419V87.915C106.419 87.0936 106.351 86.3395 106.283 85.7923C106.214 85.2451 106.009 84.6967 105.735 84.3551C105.461 84.0124 105.119 83.7382 104.708 83.5337C104.297 83.328 103.75 83.2595 103.065 83.2595H102.243C102.243 83.2595 101.627 83.328 101.354 83.3966C101.08 83.4652 100.874 83.4651 100.669 83.4651C100.464 83.5337 100.327 83.5337 100.258 83.5337V94.9662H97.8621V81.8223ZM114.292 81.411H119.427V83.4651H114.292V89.695C114.292 90.3793 114.361 90.9265 114.429 91.4063C114.566 91.8164 114.703 92.2278 114.908 92.4334C115.114 92.7064 115.388 92.8435 115.661 92.9806C116.004 93.1177 116.346 93.1177 116.757 93.1177C117.51 93.1177 118.058 93.0492 118.537 92.8435C118.948 92.7064 119.29 92.5693 119.427 92.502L119.906 94.4864C119.632 94.6235 119.221 94.7606 118.605 94.9662C117.989 95.1719 117.305 95.2392 116.551 95.2392C115.661 95.2392 114.84 95.1033 114.292 94.8977C113.676 94.692 113.197 94.2819 112.855 93.8706C112.512 93.3919 112.238 92.8435 112.102 92.1592C111.965 91.4749 111.896 90.6535 111.896 89.7635V77.6454L114.292 77.2354V81.411ZM133.667 88.188C133.667 89.2836 133.53 90.2422 133.187 91.1321C132.845 92.0221 132.434 92.775 131.887 93.3919C131.338 94.0077 130.654 94.4864 129.901 94.8291C129.148 95.1719 128.258 95.3078 127.368 95.3078C126.478 95.3078 125.588 95.1719 124.835 94.8291C124.082 94.4864 123.397 94.0077 122.85 93.3919C122.302 92.775 121.823 92.0221 121.549 91.1321C121.207 90.2422 121.07 89.2836 121.07 88.188C121.07 87.1621 121.207 86.1351 121.549 85.3136C121.891 84.4237 122.302 83.6696 122.85 83.0538C123.397 82.4381 124.082 81.9582 124.835 81.6166C125.588 81.2739 126.478 81.1368 127.368 81.1368C128.258 81.1368 129.148 81.2739 129.901 81.6166C130.654 81.9582 131.338 82.4381 131.887 83.0538C132.434 83.6696 132.914 84.4237 133.187 85.3136C133.53 86.2036 133.667 87.1621 133.667 88.188ZM131.133 88.188C131.133 86.6823 130.791 85.4495 130.106 84.5596C129.422 83.6696 128.463 83.1909 127.3 83.1909C126.136 83.1909 125.177 83.6696 124.493 84.5596C123.808 85.4495 123.466 86.6823 123.466 88.188C123.466 89.6949 123.808 90.9265 124.493 91.8164C125.177 92.7064 126.136 93.1863 127.3 93.1863C128.463 93.1863 129.422 92.7064 130.106 91.8164C130.791 90.9265 131.133 89.7635 131.133 88.188Z" fill="#262B3D"/>
<path d="M47.064 85.3125C48.5017 86.7509 50.4185 87.5723 52.4039 87.7094C52.267 85.7238 51.4455 83.8067 50.0078 82.3696C48.5701 80.9312 46.7218 80.1098 44.668 79.9727C44.8048 81.9583 45.6264 83.8753 47.064 85.3125Z" fill="#6B5BED"/>
<path d="M58.7031 85.3125C57.2654 86.7509 55.3486 87.5723 53.3633 87.7094C53.5001 85.7238 54.3217 83.8067 55.7594 82.3696C57.1286 80.9312 59.0454 80.1098 61.0992 79.9727C60.9623 81.9583 60.1408 83.8753 58.7031 85.3125Z" fill="#6B5BED"/>
<path d="M58.7031 90.9953C57.2654 89.5581 55.3486 88.7355 53.3633 88.5996C53.5001 90.584 54.3217 92.5011 55.7594 93.9394C57.197 95.3766 59.1138 96.198 61.0992 96.3352C60.9623 94.281 60.1408 92.364 58.7031 90.9953Z" fill="#6B5BED"/>
<path d="M47.064 90.9953C48.5017 89.5581 50.4185 88.7355 52.4723 88.5996C52.3354 90.584 51.5139 92.5011 50.0762 93.9394C48.5701 95.3766 46.7218 96.198 44.668 96.3352C44.8048 94.281 45.6264 92.364 47.064 90.9953Z" fill="#6B5BED"/>
</svg>
