<svg width="232" height="232" viewBox="0 0 232 232" fill="none" xmlns="http://www.w3.org/2000/svg">
<g filter="url(#filter0_d_503_336874)">
<circle cx="116.039" cy="112.038" r="71.8824" transform="rotate(15 116.039 112.038)" fill="white"/>
</g>
<g clip-path="url(#clip0_503_336874)">
<path d="M85.8298 104.908C85.1255 104.197 84.2927 103.625 83.3755 103.224C81.1354 102.036 78.5418 101.696 76.0712 102.267C72.3592 103.077 69.6534 105.203 68.049 108.672C67.0459 110.772 66.752 113.14 67.2115 115.421C67.6228 117.637 68.6912 119.677 70.2779 121.277C71.8646 122.877 73.8961 123.962 76.108 124.392C78.5692 124.931 81.1418 124.588 83.3755 123.422C83.8827 123.219 84.3588 122.945 84.7898 122.609C85.8295 121.928 86.7343 121.061 87.4588 120.051C88.8125 118.258 89.5864 116.095 89.6768 113.851C89.7984 111.725 89.2939 109.61 88.2257 107.767C87.5907 106.678 86.8759 105.651 85.8298 104.908ZM70.1013 113.36C69.9023 112.823 69.8115 112.251 69.8344 111.679C69.9817 109.452 72.7948 107.927 74.5772 107.148C76.6018 106.24 78.8341 105.896 81.0379 106.154C82.2988 106.301 84.0627 106.329 84.7775 107.586C85.5537 108.951 85.6979 111.697 85.4923 113.222C85.1641 115.734 83.5473 120.695 80.8907 121.812C80.0225 122.174 78.6604 121.67 77.8413 121.358C75.7982 120.581 73.936 119.054 72.5555 117.385C71.7303 116.369 70.6105 114.854 70.1013 113.36Z" fill="black"/>
<path d="M107.55 112.443C107.028 112.326 106.486 112.326 105.964 112.444C105.442 112.562 104.953 112.794 104.532 113.124C104.517 112.952 104.517 112.78 104.532 112.608C104.688 111.86 104.838 111.102 105.722 110.841C106.605 110.581 107.397 110.648 108.035 111.406C108.317 111.737 108.903 111.532 109.047 111.05C109.115 110.845 109.112 110.624 109.041 110.421C108.969 110.218 108.832 110.044 108.652 109.927C107.602 109.13 106.406 109.111 105.21 109.409C103.863 109.74 103.09 110.682 102.823 112.029C102.637 113.013 102.637 114.023 102.823 115.007C102.942 115.676 103.27 116.289 103.761 116.759C104.251 117.228 104.877 117.53 105.55 117.621C107.029 117.879 108.412 117.314 109.075 116.198C109.82 114.946 109.504 112.814 107.55 112.443ZM106.182 116.28C105.295 116.28 104.617 115.538 104.608 114.559C104.608 114.093 105.409 113.639 106.231 113.639C107.151 113.639 107.688 114.115 107.704 114.925C107.722 115.67 107.032 116.287 106.188 116.28H106.182Z" fill="black"/>
<path d="M114.764 109.36C113.332 109.09 112.003 109.264 111.022 110.531C110.365 111.39 110.264 112.391 110.304 113.421C110.304 113.753 110.279 114.09 110.304 114.421C110.448 116.142 111.424 117.262 113.04 117.584C114.942 117.965 116.722 116.971 117.17 115.204C117.455 114.087 117.464 112.917 117.194 111.795C116.893 110.507 116.099 109.611 114.764 109.36ZM115.412 114.897C115.172 115.719 114.617 116.182 113.816 116.167C113.432 116.177 113.058 116.044 112.766 115.795C112.473 115.546 112.282 115.198 112.23 114.817C112.06 113.942 112.054 113.044 112.212 112.167C112.375 111.262 112.961 110.734 113.777 110.719C114.593 110.703 115.222 111.231 115.436 112.136C115.505 112.594 115.53 113.057 115.513 113.519C115.536 113.981 115.502 114.444 115.412 114.897V114.897Z" fill="black"/>
<path d="M100.366 113.154C100.577 113.035 100.734 112.943 100.896 112.848C101.949 112.299 101.817 110.519 101.013 109.93C99.8963 109.105 97.5832 108.985 96.4114 109.74C95.9604 110.047 95.5432 110.387 95.5769 111.019C95.5869 111.193 95.6516 111.359 95.7619 111.493C95.8721 111.628 96.0222 111.724 96.1905 111.768C96.5739 111.93 96.666 111.657 96.8255 111.436C97.1034 111.063 97.502 110.798 97.9535 110.687C98.405 110.575 98.8813 110.623 99.3012 110.823C99.5065 110.892 99.68 111.032 99.7899 111.219C99.8999 111.405 99.9387 111.625 99.8994 111.838C99.8796 112.043 99.784 112.234 99.6315 112.372C99.4789 112.51 99.2802 112.587 99.0742 112.587C98.7398 112.608 98.4085 112.624 98.0741 112.639C97.6661 112.657 97.3348 112.765 97.3286 113.253C97.3225 113.74 97.6354 113.934 98.071 113.958C98.3778 113.977 98.6662 113.958 98.9607 113.958C99.2167 113.959 99.4642 114.05 99.6594 114.216C99.8546 114.382 99.985 114.611 100.028 114.864C100.07 115.116 100.022 115.375 99.892 115.596C99.7619 115.817 99.5581 115.984 99.3165 116.069C98.2888 116.48 96.8623 116.069 96.5555 115.148C96.4758 114.915 96.3255 114.894 96.123 114.931C95.9945 114.948 95.8716 114.994 95.7634 115.065C95.6551 115.136 95.5643 115.231 95.4977 115.342C95.4311 115.453 95.3903 115.578 95.3786 115.707C95.3668 115.836 95.3843 115.966 95.4297 116.087C95.5002 116.318 95.6186 116.531 95.7772 116.713C95.9358 116.895 96.131 117.041 96.35 117.143C97.3378 117.686 98.3962 117.722 99.4791 117.551C100.31 117.419 101.062 117.13 101.507 116.366C102.234 115.139 101.82 113.958 100.366 113.154Z" fill="black"/>
<path d="M164.227 117.044C163.837 116.847 163.425 116.695 163 116.593C162.641 116.504 162.285 116.403 161.929 116.302C161.834 116.287 161.749 116.235 161.692 116.159C161.635 116.082 161.61 115.986 161.622 115.891C161.653 115.71 161.858 115.75 161.996 115.728C162.233 115.691 162.475 115.688 162.711 115.639C164.086 115.351 164.942 113.909 164.319 112.734C164.012 112.167 164.175 111.924 164.552 111.608C164.638 111.538 164.705 111.443 164.791 111.372C165.147 111.081 164.966 110.875 164.675 110.7C164.383 110.525 163.969 110.605 163.883 110.838C163.54 111.759 162.905 111.532 162.251 111.357C162.178 111.343 162.104 111.336 162.03 111.335C160.496 111.228 159.251 112.326 159.343 113.737C159.404 114.71 160.03 115.271 160.895 115.618C160.527 115.989 160.45 116.366 160.754 116.781C160.299 116.911 159.865 117.104 159.462 117.354C158.625 118.005 158.665 119.305 159.622 119.704C161.156 120.339 162.751 120.37 164.224 119.569C164.456 119.451 164.652 119.27 164.789 119.048C164.925 118.825 164.998 118.569 164.998 118.308C164.999 118.046 164.927 117.79 164.791 117.567C164.654 117.344 164.459 117.163 164.227 117.044V117.044ZM160.57 113.544C160.588 113.18 160.745 112.838 161.009 112.587C161.273 112.336 161.623 112.197 161.987 112.197C162.341 112.211 162.676 112.36 162.924 112.614C163.171 112.867 163.313 113.205 163.319 113.559C163.319 113.925 163.173 114.277 162.914 114.536C162.655 114.794 162.304 114.94 161.938 114.94C161.572 114.94 161.221 114.794 160.962 114.536C160.703 114.277 160.558 113.925 160.558 113.559L160.57 113.544ZM163.181 119.066C162.759 119.23 162.307 119.3 161.855 119.272C161.438 119.295 161.021 119.234 160.628 119.091C160.486 119.05 160.358 118.971 160.258 118.863C160.157 118.755 160.088 118.621 160.058 118.477C160.057 118.328 160.098 118.183 160.176 118.056C160.254 117.93 160.366 117.828 160.499 117.762C161.251 117.247 162.831 117.33 163.53 117.916C163.997 118.268 163.831 118.824 163.181 119.066Z" fill="black"/>
<path d="M128.804 111.593C128.278 111.367 127.701 111.283 127.132 111.349C126.563 111.416 126.022 111.63 125.561 111.97C125.018 112.45 124.641 113.09 124.486 113.799C124.33 114.507 124.404 115.246 124.696 115.909C125.233 117.106 126.537 117.79 128.009 117.612C128.73 117.523 129.433 117.348 129.939 116.756C130.2 116.449 130.246 116.142 129.918 115.836C129.589 115.529 129.433 115.836 129.215 116.035C128.973 116.291 128.67 116.481 128.335 116.588C128 116.695 127.643 116.716 127.298 116.649C126.918 116.602 126.561 116.446 126.268 116.2C125.976 115.954 125.761 115.628 125.65 115.262C125.537 114.928 125.601 114.783 125.982 114.796C126.614 114.817 127.242 114.796 127.874 114.796C128.506 114.796 129.209 114.796 129.878 114.796C130.224 114.796 130.399 114.651 130.384 114.299C130.338 113.124 129.945 112.148 128.804 111.593ZM128.697 113.952C128.251 113.927 127.805 113.927 127.359 113.952H125.911C125.739 113.952 125.571 113.974 125.604 113.697C125.718 112.998 126.506 112.338 127.331 112.274C127.712 112.22 128.098 112.306 128.42 112.516C128.742 112.726 128.976 113.045 129.08 113.415C129.194 113.762 129.215 114.01 128.697 113.952V113.952Z" fill="black"/>
<path d="M136.629 113.777C136.629 113.075 136.466 112.418 135.902 111.937C135.046 111.203 134.027 111.225 133.015 111.421C132.718 111.455 132.432 111.556 132.179 111.715C131.926 111.874 131.711 112.088 131.552 112.341C131.456 112.468 131.412 112.627 131.431 112.785C131.45 112.943 131.53 113.088 131.653 113.188C131.96 113.418 132.193 113.32 132.429 113.001C132.607 112.775 132.836 112.595 133.098 112.476C133.359 112.357 133.645 112.303 133.932 112.317C134.745 112.317 135.362 112.857 135.371 113.544C135.371 113.78 135.347 113.888 135.037 113.885C134.129 113.855 133.223 113.997 132.368 114.302C131.794 114.523 131.325 114.894 131.227 115.547C131.113 116.274 131.297 116.912 131.972 117.311C132.48 117.585 133.065 117.683 133.635 117.59C134.311 117.505 134.929 117.163 135.362 116.636C135.497 116.756 135.429 116.876 135.457 116.977C135.49 117.151 135.589 117.306 135.732 117.41C135.876 117.514 136.054 117.559 136.23 117.535C136.69 117.535 136.626 117.189 136.626 116.894C136.632 115.854 136.638 114.817 136.629 113.777ZM133.506 116.701C133.393 116.703 133.28 116.695 133.168 116.676C132.98 116.658 132.803 116.579 132.664 116.452C132.525 116.324 132.432 116.154 132.398 115.968C132.366 115.782 132.396 115.591 132.485 115.424C132.573 115.257 132.714 115.125 132.886 115.047C133.592 114.67 134.371 114.639 135.15 114.639C135.377 114.639 135.356 114.793 135.368 114.946C135.466 115.949 134.712 116.695 133.506 116.701V116.701Z" fill="black"/>
<path d="M146.204 111.335C145.784 111.281 145.357 111.344 144.971 111.516C144.584 111.689 144.253 111.965 144.013 112.314C143.958 112.124 143.891 111.938 143.814 111.756C143.748 111.621 143.638 111.513 143.503 111.45C143.367 111.387 143.214 111.373 143.068 111.409C142.762 111.464 142.762 111.716 142.762 111.967C142.762 113.579 142.762 115.19 142.762 116.802C142.762 117.228 142.857 117.532 143.375 117.535C143.894 117.538 144.007 117.265 143.989 116.827C143.989 115.863 143.989 114.9 143.989 113.937C143.989 113.065 144.645 112.437 145.587 112.403C146.449 112.375 147.017 112.912 147.047 113.839C147.081 114.82 147.081 115.802 147.075 116.784C147.075 117.17 147.109 117.489 147.593 117.526C148.078 117.563 148.324 117.274 148.327 116.833C148.327 115.722 148.367 114.605 148.281 113.501C148.167 112.157 147.431 111.455 146.204 111.335Z" fill="black"/>
<path d="M158.123 113.204C158.102 112.801 157.954 112.416 157.7 112.103C157.447 111.79 157.101 111.565 156.712 111.461C155.62 111.154 154.672 111.354 153.914 112.28C153.843 112.069 153.755 111.864 153.65 111.667C153.573 111.55 153.461 111.46 153.33 111.411C153.198 111.362 153.055 111.356 152.92 111.394C152.69 111.436 152.613 111.605 152.613 111.848C152.613 113.513 152.613 115.182 152.613 116.851C152.613 117.305 152.822 117.544 153.291 117.523C153.761 117.501 153.877 117.235 153.871 116.817C153.871 115.836 153.871 114.854 153.871 113.869C153.848 113.648 153.895 113.424 154.006 113.231C154.217 112.913 154.519 112.667 154.873 112.525C155.227 112.382 155.616 112.351 155.988 112.433C156.601 112.627 156.957 113.21 156.96 114.072C156.96 115.037 156.96 116.001 156.96 116.965C156.96 117.37 157.193 117.529 157.574 117.517C157.954 117.505 158.187 117.388 158.187 116.971C158.166 115.722 158.279 114.464 158.123 113.204Z" fill="black"/>
<path d="M123.194 116.305C122.274 116.305 121.372 116.262 120.467 116.305C119.939 116.336 119.789 116.222 119.798 115.67C119.838 113.777 119.813 111.884 119.798 109.992C119.798 109.51 119.571 109.298 119.068 109.32C118.565 109.341 118.513 109.626 118.516 110.025C118.516 111.12 118.516 112.216 118.516 113.311V116.538C118.516 117.262 118.66 117.459 119.362 117.474C120.642 117.505 121.924 117.498 123.206 117.474C123.565 117.474 123.909 117.348 123.897 116.86C123.884 116.373 123.559 116.305 123.194 116.305Z" fill="black"/>
<path d="M141.15 111.357C140.344 111.209 139.761 111.538 139.356 112.277C139.3 112.106 139.233 111.939 139.153 111.777C139.087 111.644 138.979 111.535 138.845 111.468C138.712 111.401 138.561 111.379 138.414 111.406C138.027 111.467 138.135 111.783 138.135 112.019C138.135 113.612 138.135 115.207 138.135 116.799C138.135 117.213 138.172 117.541 138.702 117.544C139.233 117.547 139.316 117.259 139.316 116.823C139.316 116.25 139.316 115.676 139.316 115.099C139.291 114.488 139.396 113.879 139.623 113.311C139.929 112.578 140.512 112.329 141.239 112.648C141.681 112.842 141.776 112.568 141.853 112.283C141.882 112.067 141.824 111.849 141.693 111.675C141.561 111.502 141.366 111.387 141.15 111.357V111.357Z" fill="black"/>
<path d="M150.438 111.397C150.005 111.397 149.824 111.636 149.824 112.068C149.824 112.863 149.824 113.661 149.824 114.455C149.824 115.25 149.824 116.047 149.824 116.842C149.824 117.253 149.935 117.532 150.398 117.541C150.485 117.556 150.575 117.549 150.66 117.523C150.744 117.496 150.822 117.449 150.885 117.387C150.948 117.325 150.996 117.249 151.025 117.165C151.053 117.081 151.061 116.991 151.048 116.903C151.048 115.274 151.048 113.645 151.048 112.019C151.051 111.627 150.867 111.369 150.438 111.397Z" fill="black"/>
<path d="M150.47 108.795C150.374 108.783 150.277 108.792 150.185 108.821C150.093 108.85 150.009 108.899 149.938 108.964C149.866 109.029 149.81 109.109 149.773 109.198C149.736 109.287 149.718 109.383 149.721 109.479C149.713 109.573 149.725 109.668 149.758 109.756C149.791 109.845 149.844 109.925 149.912 109.99C149.98 110.056 150.062 110.105 150.152 110.134C150.241 110.164 150.336 110.173 150.43 110.16C150.523 110.169 150.617 110.158 150.705 110.129C150.794 110.099 150.876 110.052 150.945 109.99C151.015 109.929 151.072 109.853 151.111 109.768C151.151 109.684 151.172 109.592 151.175 109.499C151.178 109.406 151.161 109.313 151.127 109.226C151.092 109.139 151.041 109.061 150.974 108.995C150.908 108.929 150.83 108.877 150.743 108.843C150.656 108.808 150.563 108.792 150.47 108.795V108.795Z" fill="black"/>
</g>
<defs>
<filter id="filter0_d_503_336874" x="0.140625" y="0.137357" width="231.801" height="231.8" filterUnits="userSpaceOnUse" color-interpolation-filters="sRGB">
<feFlood flood-opacity="0" result="BackgroundImageFix"/>
<feColorMatrix in="SourceAlpha" type="matrix" values="0 0 0 0 0 0 0 0 0 0 0 0 0 0 0 0 0 0 127 0" result="hardAlpha"/>
<feOffset dy="4"/>
<feGaussianBlur stdDeviation="22"/>
<feComposite in2="hardAlpha" operator="out"/>
<feColorMatrix type="matrix" values="0 0 0 0 0 0 0 0 0 0 0 0 0 0 0 0 0 0 0.05 0"/>
<feBlend mode="normal" in2="BackgroundImageFix" result="effect1_dropShadow_503_336874"/>
<feBlend mode="normal" in="SourceGraphic" in2="effect1_dropShadow_503_336874" result="shape"/>
</filter>
<clipPath id="clip0_503_336874">
<rect width="98" height="22.6432" fill="white" transform="translate(67 102)"/>
</clipPath>
</defs>
</svg>
