<svg width="129" height="128" viewBox="0 0 129 128" fill="none" xmlns="http://www.w3.org/2000/svg">
<path d="M128.488 64C128.488 99.3462 99.8345 128 64.4883 128C29.1421 128 0.488281 99.3462 0.488281 64C0.488281 28.6538 29.1421 0 64.4883 0C99.8345 0 128.488 28.6538 128.488 64Z" fill="white"/>
<path d="M90.4336 68.2483L102.387 65.0532L103.178 67.9978L91.2241 71.1922L90.4336 68.2483Z" fill="#5EC1FF"/>
<path d="M101.99 70.6267C102.222 70.3867 102.514 70.2143 102.835 70.1241C103.299 70.0007 103.794 70.0657 104.211 70.3044C104.628 70.5432 104.934 70.9384 105.062 71.4013C105.223 71.9969 105.062 72.603 104.694 73.0367L104.678 73.054L104.669 73.0619C102.63 75.4467 101.033 75.8804 99.9499 76.1696C99.8902 76.1868 99.8305 76.204 99.7708 76.212C95.4602 77.2863 91.0739 74.7477 89.9293 70.4901C88.778 66.1814 91.3724 61.7526 95.7334 60.587C99.3689 59.6153 103.073 61.2165 104.883 64.2733C105.241 64.8869 105.344 65.2188 105.335 65.9336C105.294 66.3639 105.127 66.7725 104.855 67.1087C104.584 67.445 104.219 67.6939 103.807 67.8247L103.568 67.8837L102.339 68.2166C102.328 67.8802 102.28 67.546 102.194 67.2206C101.553 64.8439 99.0877 63.4305 96.6804 64.0769C94.2744 64.725 92.8406 67.1691 93.4799 69.5537C94.1046 71.8868 96.4841 73.2834 98.849 72.7303C98.9087 72.7131 98.9591 72.6958 99.0188 72.6786C99.8384 72.4571 101.145 71.5884 101.801 70.8482C101.861 70.7806 101.921 70.7023 101.99 70.6347V70.6267Z" fill="#5EC1FF"/>
<path d="M101.182 65.381L104.945 64.3755L104.954 64.384C105.816 65.7635 105.235 67.4584 103.665 67.8756L102.351 68.2253C102.351 68.2253 102.359 67.4668 102.01 66.6577C101.652 65.8487 101.182 65.381 101.182 65.381ZM90.2662 71.4615C90.2662 71.4615 89.6601 70.2015 89.668 68.4638C91.6058 67.9447 93.4322 67.4592 93.4322 67.4592C93.4322 67.4592 92.9799 68.9063 93.85 70.5078L90.2662 71.4615Z" fill="#0C6EED"/>
<path fill-rule="evenodd" clip-rule="evenodd" d="M72.6836 67.408C72.7512 63.5842 75.8748 60.5098 79.7238 60.5098C83.5742 60.5098 86.6978 63.5842 86.7654 67.408V74.3486C86.7482 74.846 86.5373 75.3168 86.1792 75.6617C85.821 76.0065 85.3422 76.2002 84.8449 76.2002C84.3475 76.2002 83.87 76.0065 83.5119 75.6617C83.1538 75.3168 82.9429 74.846 82.9256 74.3486V67.408C82.9256 66.5591 82.5874 65.7451 81.9879 65.1448C81.3871 64.5446 80.574 64.2075 79.7252 64.2075C78.8763 64.2075 78.0619 64.5446 77.4611 65.1448C76.8616 65.7451 76.5247 66.5591 76.5247 67.408V74.3486C76.5061 74.846 76.2952 75.3168 75.9371 75.6617C75.579 76.0065 75.1015 76.2002 74.6041 76.2002C74.1068 76.2002 73.6279 76.0065 73.2698 75.6617C72.9117 75.3168 72.7022 74.846 72.6836 74.3486V67.408Z" fill="#F7578C"/>
<path fill-rule="evenodd" clip-rule="evenodd" d="M74.6028 76.2639C74.0948 76.2639 73.6081 76.0622 73.2473 75.7028C72.8878 75.3434 72.6849 74.8566 72.6836 74.3486V62.0013C72.7022 61.504 72.9117 61.0332 73.2698 60.6878C73.6279 60.3424 74.1068 60.1494 74.6041 60.1494C75.1015 60.1494 75.579 60.3424 75.9371 60.6878C76.2952 61.0332 76.5061 61.504 76.5247 62.0013V74.3486C76.5234 74.8566 76.3204 75.3434 75.9597 75.7028C75.6002 76.0622 75.1121 76.2639 74.6028 76.2639Z" fill="#F7578C"/>
<path fill-rule="evenodd" clip-rule="evenodd" d="M76.5247 67.4075V62.0094C76.5247 61.7794 76.4822 61.5408 76.404 61.3369C75.2978 61.9258 74.3694 62.8003 73.7155 63.8694C73.0603 64.9386 72.7048 66.1634 72.6836 67.4168V74.4518C72.7088 74.9253 72.9091 75.3723 73.2446 75.7065C73.5802 76.0421 74.0285 76.2411 74.502 76.2649H74.7063C75.1798 76.2411 75.6281 76.0421 75.9636 75.7065C76.2992 75.3723 76.4982 74.9253 76.5247 74.4518V67.4083C76.5247 67.4168 76.5247 67.4083 76.5247 67.4083V67.4075Z" fill="#B31E50"/>
<path fill-rule="evenodd" clip-rule="evenodd" d="M66.3648 76.2638C65.8568 76.2638 65.37 76.0622 65.0093 75.7028C64.6498 75.3433 64.4469 74.8566 64.4456 74.3473V62.001C64.4642 61.5039 64.6737 61.033 65.0318 60.6876C65.3899 60.3422 65.8688 60.1491 66.3661 60.1491C66.8635 60.1491 67.341 60.3422 67.6991 60.6876C68.0586 61.033 68.2681 61.5039 68.2867 62.001V74.3473C68.2854 74.8566 68.0824 75.3433 67.7217 75.7028C67.3622 76.0622 66.8741 76.2638 66.3648 76.2638ZM64.3607 54.3527V54.5062C64.3607 55.5445 65.2401 56.4133 66.3489 56.4133C67.3901 56.4133 68.2694 55.5369 68.2694 54.5062V54.3527C68.2708 54.0989 68.223 53.847 68.1275 53.6117C68.032 53.3765 67.8914 53.1625 67.7124 52.982C67.5333 52.8013 67.3211 52.6579 67.0877 52.5598C66.8529 52.4616 66.6022 52.4108 66.3476 52.4102C65.2387 52.4102 64.3594 53.2529 64.3594 54.3519L64.3607 54.3527Z" fill="#FFD947"/>
<path fill-rule="evenodd" clip-rule="evenodd" d="M45.875 67.4006C45.9433 63.5769 49.0667 60.5024 52.9166 60.5024C56.7655 60.5024 59.8892 63.5769 59.9568 67.4006V74.3407C59.9396 74.8381 59.7287 75.309 59.3706 75.6538C59.0125 76 58.5344 76.1923 58.0368 76.1923C57.5393 76.1923 57.0611 76 56.703 75.6538C56.3448 75.309 56.1346 74.8381 56.1165 74.3407V67.4006C56.1165 66.5518 55.7794 65.7377 55.1792 65.1375C54.579 64.5373 53.7649 64.2002 52.916 64.2002C52.0673 64.2002 51.2532 64.5373 50.653 65.1375C50.0529 65.7377 49.7156 66.5518 49.7156 67.4006V74.3407C49.6975 74.8381 49.4873 75.309 49.1292 75.6538C48.7711 76 48.2929 76.1923 47.7953 76.1923C47.2978 76.1923 46.8196 76 46.4615 75.6538C46.1033 75.309 45.893 74.8381 45.875 74.3407V67.4006Z" fill="#5EC1FF"/>
<path fill-rule="evenodd" clip-rule="evenodd" d="M45.875 54.3444V74.3313C45.875 75.3871 46.7373 76.2638 47.7958 76.2638C48.3065 76.2612 48.7952 76.0569 49.1551 75.6948C49.515 75.3314 49.7165 74.842 49.7156 74.3313V54.3444C49.7072 53.2883 48.8451 52.4102 47.7958 52.4102C47.2858 52.4155 46.7984 52.6213 46.4391 52.983C46.0797 53.3448 45.877 53.8336 45.875 54.3434V54.3444Z" fill="#5EC1FF"/>
<path fill-rule="evenodd" clip-rule="evenodd" d="M49.7156 61.2681C48.5798 61.846 47.6225 62.7216 46.9459 63.8016C46.2695 64.8816 45.8993 66.1251 45.875 67.3994V74.3224C45.875 75.3184 46.6345 76.1461 47.6079 76.2389C47.8754 76.2641 48.1452 76.2323 48.3998 76.1474C48.6546 76.0612 48.8887 75.9233 49.0872 75.7429C49.2856 75.5612 49.4439 75.341 49.5522 75.0943C49.6604 74.8489 49.7161 74.5836 49.7156 74.3144V67.3909V61.2681Z" fill="#0C6EED"/>
<path d="M42.3869 70.1936V70.0994C42.3869 70.0994 42.37 68.3789 40.7393 68.3789H40.6803C40.2109 68.3789 39.792 68.5753 39.4852 68.899C39.4852 68.899 38.9475 69.4349 38.2817 70.3289C37.846 70.9854 36.5153 72.2282 34.6544 72.6115C32.3755 73.089 30.1312 72.1433 27.9719 69.8183C27.61 69.4296 27.1089 69.1988 26.578 69.179C26.0471 69.1577 25.5295 69.3487 25.1385 69.7082C24.749 70.0676 24.5185 70.5676 24.4976 71.0982C24.4768 71.6287 24.6673 72.1447 25.0272 72.5346C26.9564 74.6209 29.0726 75.9499 31.3178 76.4778C32.0426 76.6489 32.7767 76.7338 33.5107 76.7338C34.7142 76.7338 35.9093 76.503 37.0613 76.0614C38.4267 75.5242 39.733 74.6727 40.7224 73.6421C41.491 72.8503 42.3953 71.6327 42.3953 70.313C42.3869 70.2705 42.3869 70.2268 42.3869 70.1936Z" fill="#FFD947"/>
<path d="M26.3446 60.7241C25.9518 60.7241 25.7294 60.7325 25.4226 60.5369C25.1373 60.3558 24.9024 60.1053 24.7397 59.809C24.5771 59.5127 24.4919 59.1801 24.4922 58.8421C24.4922 56.7132 26.8478 54.141 29.8522 52.9915C31.6893 52.28 33.7018 52.1552 35.6127 52.6342C37.8486 53.1963 39.9572 54.5583 41.8771 56.6795C42.6196 57.4971 42.5598 58.7655 41.7322 59.5062C41.5367 59.683 41.3083 59.8195 41.0601 59.908C40.8118 59.9963 40.5485 60.0349 40.2854 60.0214C40.0222 60.008 39.7643 59.9427 39.5263 59.8295C39.2884 59.7162 39.0751 59.557 38.8987 59.3613C36.6966 56.9341 34.4091 55.9641 32.1059 56.4747C30.2451 56.8919 28.9732 58.1434 28.589 58.7907C28.53 58.859 28.4187 58.9871 28.4011 59.0376C27.7521 59.7962 27.1385 60.6558 26.3446 60.7241Z" fill="#13F0C0"/>
<path d="M42.3772 70.0991C42.3772 70.0991 42.3772 69.9546 42.3351 69.7503V69.7331C41.8901 67.2301 38.5535 65.2537 34.4054 62.8012C32.9465 61.9332 31.4354 61.0381 30.2757 60.2207C29.2248 59.4799 28.7723 59.0206 28.5843 58.7905C27.9522 58.0834 27.8932 58.0067 27.6622 57.7513C27.3639 57.4276 26.9796 57.104 26.2464 57.104H26.195C25.2739 57.104 24.5305 57.871 24.4883 58.841V59.0206C24.4883 59.0206 24.4883 59.1301 24.5221 59.3012C24.8558 61.6778 27.7752 63.5252 32.3658 66.25C33.8508 67.1272 35.3873 68.0383 36.5645 68.8727C37.6147 69.6137 38.0756 70.0819 38.2721 70.3286C38.3143 70.3803 38.3572 70.4228 38.3917 70.4652C38.9033 71.0448 38.9716 71.1218 39.1932 71.3592C39.4924 71.6828 39.8842 72.0064 40.6099 72.0064H40.6614C41.6086 72.0064 42.3688 71.1894 42.3688 70.1854C42.3763 70.1721 42.381 70.1575 42.3824 70.1429C42.3839 70.1283 42.3822 70.1137 42.3772 70.0991Z" fill="#5EC1FF"/>
<path d="M26.1958 60.7313C26.6652 60.7313 27.0833 60.535 27.3901 60.2114C27.3901 60.2114 27.9193 59.6753 28.5851 58.7812C27.953 58.074 27.8941 57.9973 27.6632 57.742C27.3647 57.4184 26.9805 57.0947 26.2473 57.0947H26.1958C25.2569 57.0947 24.4883 57.9122 24.4883 58.9084V59.0019C24.4883 59.0019 24.5053 60.7137 26.1192 60.722L26.195 60.7305L26.1958 60.7313Z" fill="#0C6EED"/>
<path d="M40.731 68.3706C42.3618 68.3706 42.3786 70.0913 42.3786 70.0913V70.1854C42.3786 71.1895 41.6109 72.0078 40.672 72.0078H40.6207C39.8865 72.0078 39.5023 71.6749 39.2039 71.3606C38.9646 71.1046 38.9139 71.037 38.2734 70.3207C38.6426 69.818 39.0447 69.3406 39.477 68.8907C39.7837 68.567 40.2102 68.3706 40.672 68.3706H40.731Z" fill="#F7578C"/>
</svg>
