<svg width="21" height="62" viewBox="0 0 21 62" fill="none" xmlns="http://www.w3.org/2000/svg">
<path d="M9.62669 13.0989C7.83095 15.6132 6.62238 18.2233 5.51475 20.8998C4.63849 23.004 3.94687 25.157 3.40667 27.4095C2.80126 29.9812 2.49743 32.5338 2.64659 35.1666C2.7058 36.7264 2.86595 38.3524 3.14304 39.9105C3.31669 40.966 3.40664 42.039 3.69723 43.0265C3.85114 43.5622 3.97182 44.1484 4.1762 44.7172C4.36459 45.4203 4.55298 46.1234 4.74138 46.8265C4.99748 47.6465 5.25358 48.4665 5.50969 49.2866C5.76579 50.1066 6.00465 50.8428 6.29399 51.6123C6.43066 52.0641 6.65104 52.4986 6.78771 52.9504C6.99209 53.5192 7.24694 54.1211 7.45133 54.6899C7.94629 56.2462 8.74159 57.5652 9.58736 58.9173C9.77325 59.1842 10.0761 59.3831 10.3284 59.5489C10.7827 59.8472 10.9871 60.416 10.8726 60.9202C10.8566 61.0546 10.7569 61.2063 10.64 61.2744C10.256 61.5291 9.8547 61.7001 9.45218 61.653C9.18383 61.6217 8.99919 61.5728 8.78006 61.3565C8.39228 60.9569 7.95403 60.5243 7.71641 60.0061C7.20795 59.0203 6.69949 58.0346 6.19104 57.0488C5.41173 55.5955 4.83306 54.0567 4.33809 52.5004C3.53655 50.091 2.76824 47.6309 2.08363 45.1534C1.5357 43.1278 1.28934 41.083 1.07621 38.9876C0.898818 37.2778 0.822367 35.6342 0.862849 33.9226C0.998029 31.1869 1.5025 28.5488 2.22485 25.909C3.02965 23.0337 4.03634 20.2909 5.36184 17.6127C6.30581 15.6254 7.35073 13.7044 8.648 11.9492C10.1114 9.94095 11.6426 8.0496 13.4765 6.35714C13.6599 6.18789 13.8433 6.01864 13.9763 5.81625C14.3258 5.39401 14.3578 5.12532 13.9195 4.69265C13.464 4.17623 12.9753 3.7104 12.5198 3.19398C12.2835 2.89389 11.9806 2.69501 11.5609 2.56417C11.3762 2.51532 11.2408 2.28154 11.29 2.09659C11.3552 1.77731 11.4377 1.54176 11.5534 1.25562C11.6851 0.835134 12.1688 0.428592 12.7227 0.575127C13.4613 0.770507 14.1814 0.664049 14.9015 0.557594C15.9564 0.381334 17.0285 0.288823 18.0502 0.163161C18.385 0.0933582 18.7038 0.1579 19.0731 0.255591C19.3083 0.337583 19.5778 0.587072 19.5963 0.88891C19.6321 1.27449 19.6678 1.66007 19.301 1.99857C19.0179 2.31961 18.9195 2.68949 18.9552 3.07508C19.0119 4.19868 19.2693 5.23679 19.6276 6.34119C19.7297 6.62558 19.9661 6.92566 20.1188 7.24319C20.4573 7.82766 20.4106 8.44879 20.2297 9.05422C20.1965 9.10482 20.0463 9.22347 19.9958 9.19032C19.6438 9.17637 19.325 9.11184 18.9729 9.09789C18.6209 9.08394 18.2848 8.93566 18.0989 8.66872C17.5757 8.0354 16.9023 7.52074 16.3127 6.98862C16.144 6.80543 15.9421 6.67284 15.7735 6.48965C15.5039 6.24016 15.2023 6.25936 14.8687 6.54726C13.1849 8.12107 11.6698 9.87808 10.3233 11.8183C10.0255 12.4917 9.79285 12.8459 9.62669 13.0989Z" fill="black"/>
</svg>
