<svg width="422" height="412" viewBox="0 0 422 412" fill="none" xmlns="http://www.w3.org/2000/svg">
<g clip-path="url(#clip0_966_164886)">
<path d="M210.451 219.201C220.443 227.455 237.542 211.207 238.369 195.019C239.196 178.832 232.925 165.922 210.451 160.945C189.577 156.297 163.152 177.048 164.308 209.292C165.135 232.41 187.418 260.473 232.825 255.519C278.233 250.565 295.568 208.442 293.914 176.282C292.261 144.122 264.71 100.996 218.789 91.287C179.623 82.9176 125.325 97.8492 97.4378 153.157C70.3389 206.911 85.8831 313.346 190.726 325.69C280.009 336.241 351.642 279.295 373.932 201.696C396.223 124.098 344.253 29.4166 258.416 8.78044C160.48 -14.7655 63.5929 17.7777 17.3586 130.04C-12.7036 203.082 0.022671 310.835 71.8474 366.181C143.672 421.528 249.61 422.845 318.686 382.69C399.584 335.637 421.759 240.702 421.759 240.702" fill="white"/>
<path d="M210.551 219.079C218.683 225.281 228.561 216.721 232.971 209.776C236.362 204.679 238.129 198.675 238.04 192.555C238.04 186.521 236.876 180.303 233.545 175.219C228.499 167.454 219.517 163.587 210.734 161.635C192.395 157.63 174.791 172.01 168.551 188.527C160.404 209.554 167.019 231.606 185.558 244.478C202.955 256.508 226.838 257.426 246.639 251.439C264.082 246.017 278.034 232.296 285.308 215.672C290.246 204.565 292.785 192.542 292.759 180.387C292.092 143.969 265.836 109.994 232.412 96.7474C192.418 81.2798 144.354 95.2159 116.405 127.169C104.353 140.822 95.0185 157.117 90.6233 174.866C80.4086 215.978 89.9801 263.514 120.777 293.691C142.715 315.491 173.873 325.147 204.241 326.25C253.378 328.983 302.813 308.163 335.18 271.118C355.647 248.128 369.701 220.156 375.931 190.012C383.857 147.767 371.069 103.156 345.632 69.0282C327.461 44.5251 302.407 25.0528 273.654 14.7002C233.239 1.41494 188.567 -1.09663 147.31 9.6924C86.2051 25.5658 42.1071 72.9104 18.9977 130.34C-3.65241 186.812 -0.995352 253.399 26.1112 307.865C58.9377 375.248 135.992 409.422 208.353 409.323C257.084 409.507 306.978 395.256 344.598 363.471C377.608 335.951 401.338 298.331 416.055 258.177C418.138 252.403 420.068 246.569 421.584 240.627L421.882 240.695C420.42 246.676 418.551 252.541 416.522 258.345C396.238 316.004 355.977 369.467 298.563 393.748C203.613 434.255 71.9473 406.26 23.3163 309.258C-4.36453 254.011 -7.05987 186.459 15.9884 129.107C30.093 94.879 51.3877 62.9943 80.6306 39.9078C134.369 -3.44739 210.612 -9.18265 274.573 12.3341C303.67 22.9394 329.107 42.8175 347.37 67.7648C369.293 97.582 381.644 134.811 379.637 171.903C377.34 208.88 360.326 244.225 336.037 271.83C303.356 309.021 253.63 329.848 204.211 327.291C173.551 326.288 142.103 316.517 119.828 294.664C88.4333 264.226 78.479 216.131 88.5635 174.346C94.5285 150.256 108.87 128.402 127.983 112.644C156.751 89.0442 198.376 80.6519 233.415 94.1898C262.467 105.591 285.01 131.771 292.942 161.834C298.938 185.977 293.164 213.053 277.796 232.625C266.165 247.533 247.727 256.125 228.989 256.975C210.482 258.345 190.558 253.651 177.257 240.052C170.576 233.35 166.019 224.827 164.156 215.549C160.227 194.109 171.644 169.813 192.533 161.903C198.408 159.566 204.852 159.064 211.018 160.463C217.021 161.88 223.001 164.062 228.002 167.86C233.045 171.666 236.562 177.149 237.918 183.32C239.189 189.369 239.357 195.801 237.519 201.751C234.748 210.22 228.17 219.056 219.18 221.33C217.656 221.707 216.065 221.721 214.534 221.371C213.004 221.021 211.576 220.318 210.367 219.317L210.566 219.079H210.551Z" fill="#1D1D1B"/>
</g>
<defs>
<clipPath id="clip0_966_164886">
<rect width="421.461" height="411.56" fill="white" transform="translate(0.443359 0.167969)"/>
</clipPath>
</defs>
</svg>
