<svg width="58" height="58" viewBox="0 0 58 58" fill="none" xmlns="http://www.w3.org/2000/svg">
<g clip-path="url(#clip0_962_236264)">
<path d="M57.9411 57.9997H0.00390625V0.0528585C0.0876104 0.0233876 0.177479 0.0158986 0.264906 0.0311084H57.668C57.9991 0.0311084 57.964 -0.00393316 57.964 0.32715V57.7387C57.9782 57.8263 57.9703 57.916 57.9411 57.9997Z" fill="black"/>
<path d="M57.9394 58.0001V0.36983C57.9394 0.0532467 57.9394 0.0532463 57.6228 0.0532463H0.00222266C0.0130977 0.0387463 -0.0219439 0.00370496 0.0263894 0.00491329C0.0747228 0.00612162 0.154473 0.00491329 0.219723 0.00491329C19.3984 0.00491329 38.5779 0.00491329 57.7581 0.00491329C57.9539 0.00491329 57.9926 0.0435798 57.9926 0.23933C57.9861 19.4228 57.9833 38.6055 57.9841 57.7874C57.9841 57.8539 58.0433 57.9469 57.9394 58.0001Z" fill="white"/>
<path d="M45.5081 18.2191C46.1038 15.7879 46.685 13.4172 47.2663 11.0476C47.6058 9.6665 47.9465 8.28779 48.2788 6.90545C48.3151 6.75925 48.3767 6.71937 48.5205 6.71937C51.344 6.7242 54.1683 6.7242 56.9933 6.71937C57.1794 6.71937 57.2145 6.77375 57.2145 6.94895C57.2096 13.532 57.2096 20.115 57.2145 26.698C57.2145 26.8575 57.1879 26.9179 57.009 26.9167C55.199 26.9094 53.3865 26.9094 51.5715 26.9167C51.3722 26.9167 51.3589 26.8417 51.3601 26.681C51.3601 22.874 51.3601 19.0673 51.3601 15.2611V14.8019L51.3226 14.7874C51.3021 14.8539 51.2803 14.9191 51.261 14.9844C50.1332 18.8776 49.0054 22.7709 47.8777 26.6641C47.8257 26.843 47.7629 26.9191 47.555 26.9179C46.18 26.9058 44.8041 26.9058 43.4274 26.9179C43.3914 26.924 43.3546 26.9228 43.3192 26.9141C43.2838 26.9055 43.2505 26.8898 43.2214 26.8678C43.1923 26.8458 43.168 26.8182 43.1501 26.7864C43.1321 26.7547 43.1208 26.7197 43.1168 26.6835C41.9891 22.7894 40.8613 18.8957 39.7335 15.0025C39.7162 14.9233 39.6792 14.8498 39.626 14.7886V15.0665C39.626 18.9211 39.626 22.7757 39.626 26.6303C39.626 26.8659 39.5667 26.9191 39.336 26.9179C37.5573 26.9082 35.779 26.9082 34.0012 26.9179C33.7595 26.9179 33.6846 26.8744 33.6846 26.6134C33.6846 21.7365 33.6737 16.8597 33.6737 11.9829C33.6737 11.7412 33.6205 11.6796 33.374 11.6796C30.7101 11.6909 28.0465 11.6909 25.3833 11.6796C25.1864 11.6796 25.1272 11.7219 25.1308 11.9212C25.1441 12.7187 25.1465 13.515 25.1308 14.3113C25.1308 14.5445 25.2057 14.5808 25.4148 14.5808C27.1125 14.5723 28.8102 14.5808 30.5079 14.5723C30.6807 14.5723 30.7495 14.5953 30.7495 14.7995C30.7383 16.2237 30.7383 17.6483 30.7495 19.0734C30.7495 19.2582 30.7 19.2993 30.5224 19.2981C28.8078 19.2981 27.0943 19.2981 25.3809 19.2897C25.1803 19.2897 25.1284 19.3392 25.1272 19.5398C25.1042 21.9142 25.068 24.2873 25.0462 26.6617C25.0462 26.8659 24.9858 26.9106 24.79 26.9094C22.9236 26.9022 21.0567 26.9022 19.1894 26.9094C18.9719 26.9094 18.9248 26.8514 18.9272 26.6424C18.9369 25.4667 18.9272 24.2922 18.9272 23.1177V22.8736C18.8583 22.8579 18.8535 22.9002 18.8438 22.9243C18.0898 24.6982 16.6845 25.7579 14.9603 26.4635C14.037 26.8262 13.052 27.0055 12.0603 26.9916C8.66483 27.0025 5.26942 27.017 1.87521 26.9529C1.5695 26.9529 1.26258 26.9348 0.958083 26.9408C0.76475 26.9408 0.703125 26.8816 0.703125 26.6798C0.710375 23.1225 0.710375 19.5652 0.703125 16.0078C0.703125 12.9979 0.703125 9.98791 0.703125 6.97916C0.703125 6.76166 0.759917 6.71816 0.96775 6.71816C4.92625 6.72541 8.88596 6.68191 12.8433 6.74354C14.425 6.76891 15.8943 7.28487 17.0458 8.46179C17.8433 9.2762 18.2046 10.2815 18.2783 11.398C18.3315 12.2076 18.2626 13.0039 17.9158 13.7567C17.569 14.5095 17.0277 15.0484 16.3631 15.4979C16.2701 15.5607 16.1782 15.626 16.0876 15.6925C16.0755 15.7009 16.0707 15.7178 16.0526 15.7456C17.3032 16.1299 18.1708 16.983 18.8849 18.0535C18.9286 17.967 18.9418 17.8682 18.9224 17.7732C18.9224 14.1917 18.9224 10.6106 18.9224 7.02991C18.9224 6.67708 18.8849 6.7242 19.2317 6.7242C26.924 6.7242 34.617 6.72179 42.3109 6.71695C42.5525 6.71695 42.6178 6.79066 42.6734 7.00454C43.5853 10.6746 44.5028 14.3432 45.426 18.01C45.455 18.0644 45.4755 18.1164 45.5081 18.2191Z" fill="white"/>
<path d="M36.6286 41.9519C37.0225 40.4882 37.4168 39.0245 37.8116 37.5608C38.5849 34.693 39.3566 31.8252 40.1267 28.9575C40.1751 28.7774 40.2596 28.7448 40.4264 28.7448C42.6715 28.7496 44.9165 28.7496 47.1616 28.7448C47.4468 28.7448 47.4468 28.7448 47.3634 29.013C45.5356 34.859 43.7082 40.7041 41.8812 46.5484C41.4136 48.0431 40.9436 49.5354 40.4856 51.0325C40.4806 51.0687 40.4684 51.1035 40.4496 51.1349C40.4308 51.1662 40.4059 51.1934 40.3763 51.2149C40.3467 51.2363 40.3131 51.2516 40.2775 51.2597C40.2419 51.2678 40.205 51.2686 40.169 51.2621C37.6976 51.2564 35.2273 51.2564 32.7583 51.2621C32.7224 51.2675 32.6857 51.2657 32.6505 51.2567C32.6153 51.2478 32.5822 51.2318 32.5533 51.2099C32.5243 51.1879 32.5001 51.1603 32.4819 51.1288C32.4638 51.0973 32.4522 51.0625 32.4478 51.0265C30.8431 45.6413 29.2372 40.257 27.6301 34.8735C27.5709 34.6777 27.4912 34.6197 27.2894 34.6209C25.8249 34.6306 24.3604 34.6209 22.8959 34.6209C22.5853 34.6209 22.5841 34.6209 22.5841 34.946C22.5696 40.2811 22.5576 45.6167 22.5479 50.9527C22.5479 51.1944 22.4971 51.2609 22.2482 51.2597C20.0917 51.2476 17.9353 51.2476 15.7788 51.2597C15.5516 51.2597 15.4864 51.2125 15.4864 50.9745C15.4783 45.6232 15.4654 40.2715 15.4477 34.9194C15.4477 34.6837 15.4018 34.6137 15.1505 34.6149C13.4588 34.6282 11.7671 34.6149 10.0815 34.6257C9.89905 34.6257 9.83984 34.5895 9.83984 34.3937C9.8479 32.5909 9.8479 30.7881 9.83984 28.9852C9.83984 28.7822 9.89664 28.7363 10.0948 28.7363C17.6179 28.7428 25.141 28.7428 32.6641 28.7363C32.8646 28.7363 32.9347 28.7967 32.9855 28.978C34.1576 33.2345 35.3337 37.4903 36.5138 41.7452C36.5319 41.8117 36.5573 41.877 36.5803 41.9422L36.6286 41.9519Z" fill="white"/>
<path d="M46.3974 47.9566C46.3974 46.9343 46.3974 45.9121 46.3974 44.891C46.3974 44.7122 46.4385 44.6639 46.621 44.6651C48.6647 44.6788 50.708 44.686 52.7508 44.6868C52.9381 44.6868 52.9925 44.7364 52.9925 44.9285C52.9853 46.9561 52.9853 48.9836 52.9925 51.0112C52.9925 51.2142 52.9345 51.2626 52.7363 51.2626C50.7015 51.2553 48.6663 51.2553 46.6306 51.2626C46.4385 51.2626 46.389 51.2082 46.395 51.0209C46.4023 49.9999 46.3974 48.9776 46.3974 47.9566Z" fill="white"/>
<path d="M9.3486 18.4513C10.0313 18.4513 10.7152 18.4513 11.4028 18.4996C11.7665 18.5194 12.1155 18.6497 12.4033 18.873C12.555 18.9802 12.6802 19.1206 12.7694 19.2835C12.8586 19.4464 12.9094 19.6275 12.918 19.8131C12.918 19.9496 12.9325 20.0861 12.9325 20.2227C12.9325 21.222 12.4866 21.7452 11.4994 21.9313C11.2305 21.9825 10.9575 22.0092 10.6838 22.011C9.5661 22.0195 8.4484 22.011 7.32948 22.0267C7.12769 22.0267 7.07694 21.9615 7.07815 21.7657C7.08781 20.7362 7.08781 19.7063 7.07815 18.676C7.07815 18.5032 7.10956 18.4428 7.30048 18.4464C7.97835 18.4597 8.66227 18.4513 9.3486 18.4513Z" fill="black"/>
<path d="M8.98584 14.5183C8.41551 14.5183 7.84396 14.5183 7.27363 14.5183C7.11413 14.5183 7.06942 14.4724 7.07063 14.3141C7.07788 13.5021 7.07063 12.6901 7.07063 11.8781C7.07063 11.7706 7.05613 11.6763 7.22288 11.6788C8.48438 11.7029 9.74588 11.6389 11.0062 11.7319C11.1832 11.7439 11.3571 11.7847 11.5209 11.8528C12.1178 12.1053 12.3547 12.5778 12.2459 13.287C12.1505 13.9371 11.7118 14.3613 11.0473 14.4458C10.9273 14.4661 10.8063 14.479 10.6848 14.4845C10.1144 14.4845 9.54409 14.4845 8.97375 14.4845L8.98584 14.5183Z" fill="black"/>
</g>
<defs>
<clipPath id="clip0_962_236264">
<rect width="58" height="58" fill="white"/>
</clipPath>
</defs>
</svg>
