<svg width="170" height="171" viewBox="0 0 170 171" fill="none" xmlns="http://www.w3.org/2000/svg">
<g clip-path="url(#clip0_962_385878)">
<path d="M55.5242 43.2764C56.0654 43.4536 56.5545 43.762 56.9476 44.1741C57.1507 44.3766 57.3302 44.6014 57.4826 44.8443C57.6476 45.0885 57.7673 45.3603 57.8361 45.6468C57.939 46.235 57.9043 46.839 57.7347 47.4115C57.6043 47.9676 57.3874 48.4998 57.0921 48.9887C56.7985 49.5349 56.3311 49.9676 55.764 50.2185C55.2016 50.4797 54.5796 50.5859 53.9624 50.5259C53.3816 50.4625 52.8199 50.2815 52.3114 49.994C51.8088 49.7307 51.3661 49.3665 51.0109 48.9241C51.0044 48.9186 50.9992 48.9118 50.9957 48.9041C50.9921 48.8964 50.9902 48.888 50.9902 48.8795C50.9902 48.871 50.9921 48.8627 50.9957 48.855C50.9992 48.8473 51.0044 48.8404 51.0109 48.835C51.0246 48.8235 51.0423 48.818 51.0601 48.8196C52.0437 49.0201 53.0402 49.1505 54.0423 49.21C54.4786 49.2432 54.9173 49.2153 55.3459 49.127C55.4511 49.101 55.554 49.066 55.6533 49.0225L55.8101 48.9702C55.8593 48.9518 55.9085 48.921 55.9577 48.8995C56.0591 48.8472 56.1637 48.8011 56.2651 48.7519L56.5726 48.5521L56.7263 48.4476C56.7724 48.4076 56.8154 48.3646 56.8585 48.3215C56.947 48.2366 57.0254 48.1417 57.0921 48.0387C57.2246 47.8323 57.3058 47.5972 57.3289 47.3531C57.375 46.855 57.0891 46.4092 56.8585 46.0188C56.6279 45.6283 56.425 45.1979 56.1729 44.7675C55.9208 44.3371 55.6717 43.8913 55.4319 43.3809C55.4254 43.3653 55.4249 43.3478 55.4306 43.3319C55.4363 43.3159 55.4477 43.3027 55.4627 43.2948C55.4697 43.2857 55.4795 43.2791 55.4905 43.2758C55.5015 43.2725 55.5133 43.2727 55.5242 43.2764Z" fill="#F43B00"/>
<path d="M50.7553 47.8271C51.1137 48.1077 51.3855 48.4839 51.5393 48.9123C51.6222 49.1229 51.679 49.3428 51.7084 49.5672C51.7247 49.6823 51.7319 49.7984 51.7299 49.9146C51.7217 50.0326 51.7043 50.1498 51.6776 50.2651C51.5264 50.7186 51.2741 51.1317 50.9398 51.4734C50.8598 51.5533 50.8045 51.6517 50.7184 51.7255C50.6323 51.7992 50.5616 51.8823 50.4878 51.9653C50.414 52.0483 50.3187 52.1098 50.2326 52.1897L50.1035 52.3096L49.9621 52.408C49.2273 53.0413 47.9729 52.9952 47.1736 52.4879C46.7789 52.2417 46.444 51.911 46.1928 51.5195C45.941 51.1448 45.7771 50.7181 45.7132 50.2712C45.7115 50.253 45.7169 50.2347 45.7284 50.2204C45.7399 50.206 45.7565 50.1967 45.7747 50.1944C45.7878 50.1913 45.8015 50.1913 45.8147 50.1944C46.5864 50.6248 47.2135 51.0552 47.8223 51.3381C48.1017 51.4923 48.3963 51.617 48.7016 51.7101C48.7772 51.7299 48.8543 51.7432 48.9321 51.7501L49.049 51.7685C49.0889 51.7685 49.1289 51.7685 49.1719 51.7685C49.215 51.7685 49.341 51.7685 49.4302 51.79L49.7038 51.7716H49.8453C49.89 51.7607 49.9341 51.7473 49.9775 51.7316C50.0671 51.7061 50.1545 51.6732 50.2388 51.6332C50.3965 51.5366 50.5267 51.4011 50.6169 51.2397C50.8014 50.9077 50.7092 50.508 50.66 50.1729C50.6232 49.8185 50.6058 49.4623 50.6077 49.106C50.5904 48.6958 50.6027 48.2848 50.6446 47.8763C50.6469 47.858 50.6562 47.8414 50.6706 47.8299C50.6849 47.8185 50.7032 47.813 50.7215 47.8148L50.7553 47.8271Z" fill="#F43B00"/>
<path opacity="0.2" d="M46.6875 51.3228C46.6875 51.3228 46.9027 53.7024 48.5906 53.7824C50.2784 53.8623 50.8257 52.7494 51.7265 52.8969C52.6273 53.0445 52.9809 51.08 53.8786 51.3843C54.7763 51.6887 55.7017 52.5895 58.3765 51.5749L58.4595 47.0586C58.4595 47.0586 57.4911 49.6657 54.9147 49.8256C53.7213 49.8433 52.5278 49.7982 51.3391 49.6903C51.3391 49.6903 50.549 54.4588 46.6875 51.3228Z" fill="#F43B00"/>
<path d="M42.2131 31.4866C42.908 32.6838 43.7762 33.7716 44.7895 34.7147C45.0385 34.9422 45.2968 35.1574 45.5581 35.3665C45.6934 35.4679 45.8287 35.5694 45.9578 35.6739L46.3298 35.9814C46.5881 36.1983 46.866 36.3908 47.1599 36.5563C47.4641 36.7196 47.7993 36.817 48.1437 36.8422C48.8152 36.8817 49.4794 36.686 50.0222 36.2888C50.2665 36.1302 50.4861 35.9365 50.674 35.7139C50.8445 35.4991 50.9729 35.254 51.0521 34.9914C51.2312 34.4137 51.3092 33.8094 51.2827 33.2052C51.2827 32.5442 51.1813 31.8493 51.129 31.1023C51.1281 31.0887 51.1314 31.0751 51.1386 31.0636C51.1458 31.052 51.1565 31.043 51.1691 31.0379C51.1818 31.0328 51.1957 31.0318 51.2089 31.0351C51.2221 31.0384 51.234 31.0457 51.2428 31.0561C51.7483 31.6262 52.1211 32.3014 52.3342 33.033C52.4457 33.4179 52.5057 33.816 52.5125 34.2167C52.5148 34.6381 52.4343 35.0559 52.2758 35.4464C52.1085 35.8457 51.8571 36.2042 51.5388 36.4976C51.2205 36.791 50.8427 37.0124 50.4311 37.1466C50.0463 37.2545 49.6467 37.3001 49.2474 37.2819C48.8631 37.2819 48.4911 37.2327 48.1253 37.1989L47.0154 37.0728C46.627 37.0369 46.2441 36.9554 45.8748 36.8299C45.6866 36.762 45.5071 36.6722 45.3398 36.5624C45.183 36.4548 45.0324 36.3411 44.8848 36.2273C44.5941 35.9878 44.3189 35.7301 44.0609 35.4556C43.0151 34.3771 42.3344 32.9973 42.1148 31.5112C42.1114 31.4961 42.1138 31.4804 42.1215 31.4671C42.1292 31.4537 42.1416 31.4438 42.1563 31.4391C42.1709 31.4345 42.1868 31.4355 42.2007 31.442C42.2147 31.4485 42.2257 31.46 42.2316 31.4743L42.2131 31.4866Z" fill="#F43B00"/>
<path d="M53.7521 15.3952C52.9442 14.5515 51.9778 13.8756 50.9082 13.406C49.8663 12.9703 48.7583 12.7135 47.6309 12.6466C46.4615 12.5147 45.2781 12.5906 44.1352 12.8711C43.004 13.171 42.0292 13.8898 41.4082 14.8818C40.861 15.8479 40.645 16.9665 40.7933 18.0669C40.9632 19.1757 41.333 20.2445 41.8847 21.2212C42.1574 21.7242 42.4592 22.2108 42.7886 22.6785C42.9546 22.9153 43.1237 23.152 43.3051 23.3764C43.4865 23.6009 43.671 23.8284 43.8554 24.0559C44.6444 24.9523 45.4928 25.7946 46.3949 26.5769C46.4064 26.5889 46.4128 26.6049 46.4128 26.6215C46.4128 26.6381 46.4064 26.6541 46.3949 26.6661C46.3843 26.6726 46.3721 26.6761 46.3596 26.6761C46.3471 26.6761 46.3349 26.6726 46.3242 26.6661C43.9926 25.7096 42.0351 24.0208 40.7472 21.8546C40.0938 20.7293 39.7176 19.4647 39.6496 18.1653C39.6041 17.5004 39.6791 16.8328 39.871 16.1945C40.0725 15.5641 40.4023 14.9821 40.8394 14.4852C41.2713 14.008 41.7743 13.6005 42.3305 13.2769C42.6011 13.114 42.8778 12.9695 43.1576 12.8403C43.4373 12.7112 43.7232 12.5913 44.0184 12.496C44.3135 12.4007 44.6025 12.2992 44.8977 12.207L45.3404 12.0625L45.5618 11.9887L45.7893 11.9334L46.7116 11.7182C47.019 11.6813 47.3265 11.6475 47.6585 11.6198C47.8181 11.6059 47.9786 11.6059 48.1381 11.6198C48.298 11.6198 48.4456 11.6352 48.6208 11.6475C48.941 11.6837 49.2583 11.7412 49.5708 11.8196C49.8783 11.8903 50.1857 12.0195 50.4932 12.1271C50.6407 12.1886 50.8006 12.2654 50.9297 12.3331C51.0771 12.398 51.2199 12.473 51.3571 12.5575C52.4701 13.1857 53.3509 14.156 53.8689 15.3245C53.8718 15.3321 53.8732 15.3403 53.8729 15.3485C53.8726 15.3567 53.8707 15.3648 53.8673 15.3722C53.8638 15.3797 53.859 15.3864 53.8529 15.3919C53.8468 15.3974 53.8397 15.4017 53.832 15.4044C53.8218 15.4107 53.8101 15.414 53.7982 15.414C53.7862 15.414 53.7745 15.4107 53.7644 15.4044L53.7521 15.3952Z" fill="#F43B00"/>
<path d="M45.6113 12.2246C45.2587 11.1752 44.8418 10.1484 44.3631 9.15018C43.9164 8.16334 43.336 7.24263 42.6384 6.41393C42.4672 6.21971 42.2855 6.03497 42.0942 5.86053C41.9198 5.69984 41.723 5.56522 41.51 5.46085C41.0588 5.24867 40.5759 5.11159 40.0804 5.05503C39.0211 4.94159 37.9511 4.97678 36.9015 5.15956C35.8145 5.33004 34.7574 5.65512 33.7625 6.12493C32.7608 6.58739 31.8642 7.24964 31.1277 8.07105C30.9432 8.27704 30.8018 8.4984 30.6081 8.7259L30.3406 9.06717C30.2422 9.17477 30.1316 9.27623 30.0332 9.37461C29.5923 9.81495 29.0266 10.109 28.413 10.217C27.7801 10.309 27.1342 10.2161 26.5529 9.94953C26.2641 9.82499 25.9882 9.6726 25.729 9.49451C25.4689 9.31446 25.2279 9.10844 25.0096 8.87963L25.9011 8.53529C25.9313 8.70986 25.9724 8.88236 26.0241 9.0518L26.1194 9.31927L26.2301 9.5806C26.391 9.92118 26.5923 10.2412 26.8296 10.5337C27.3179 11.1106 27.9424 11.5566 28.6466 11.8311C29.3813 12.1078 30.1513 12.2796 30.934 12.3414C31.7641 12.4183 32.5911 12.4859 33.4212 12.5075C35.0807 12.5673 36.7418 12.4436 38.3741 12.1385L38.989 12.0248C39.2123 11.9763 39.4381 11.9404 39.6654 11.9172C40.1215 11.888 40.5794 11.919 41.0274 12.0094C41.4546 12.0958 41.8765 12.2066 42.291 12.3414C42.7033 12.4668 43.1078 12.6167 43.5023 12.7903C43.5097 12.7933 43.5165 12.7978 43.5222 12.8035C43.5278 12.8092 43.5322 12.8161 43.5351 12.8236C43.538 12.8311 43.5393 12.8391 43.5389 12.8471C43.5386 12.8552 43.5366 12.863 43.533 12.8702C43.5276 12.8832 43.518 12.8939 43.5057 12.9006C43.4934 12.9073 43.4792 12.9096 43.4654 12.9071C42.6411 12.7324 41.8043 12.6234 40.9628 12.5812C40.5668 12.5542 40.1691 12.578 39.7791 12.652C39.6131 12.6858 39.3979 12.7565 39.1981 12.818L38.5832 13.0024C36.9049 13.4978 35.1649 13.7535 33.4151 13.7618C32.5445 13.7748 31.674 13.7369 30.8079 13.6481C29.8893 13.5806 28.989 13.3571 28.1455 12.9871C27.273 12.601 26.511 12.0028 25.9288 11.2469C25.643 10.8685 25.4064 10.4552 25.2248 10.0172L25.1141 9.66361L25.0188 9.32235C24.9583 9.08132 24.9192 8.83544 24.9019 8.58756L24.8066 7.09031L25.7812 8.22785C26.3961 8.95649 27.34 9.62671 28.3146 9.56523C28.8225 9.52325 29.3049 9.3245 29.695 8.99646C29.7965 8.91345 29.9041 8.83658 30.0024 8.74743L30.273 8.43998C30.4544 8.25244 30.6358 8.00956 30.8325 7.80357C31.6296 6.97557 32.5456 6.27097 33.5503 5.71296C34.5464 5.13272 35.6072 4.67147 36.7109 4.33869C37.8442 3.97974 39.039 3.85629 40.2219 3.9759C40.8522 4.03558 41.4645 4.21948 42.0235 4.517C42.313 4.67003 42.58 4.86247 42.8167 5.08885C43.0286 5.30173 43.2258 5.52873 43.407 5.7683C44.1155 6.7027 44.6602 7.7506 45.018 8.86733C45.392 9.95309 45.6315 11.0806 45.7312 12.2246C45.7321 12.2325 45.7313 12.2405 45.729 12.2481C45.7266 12.2558 45.7227 12.2628 45.7175 12.2688C45.7123 12.2749 45.706 12.2798 45.6988 12.2833C45.6917 12.2868 45.6839 12.2888 45.6759 12.2892C45.6622 12.2907 45.6484 12.2876 45.6367 12.2803C45.625 12.2731 45.6161 12.2621 45.6113 12.2492V12.2246Z" fill="#F43B00"/>
<path opacity="0.2" d="M35.0884 44.5312H37.7201C37.5973 46.0091 37.722 47.4971 38.0891 48.9338C38.7039 51.0859 39.5525 51.2858 38.7685 52.3772C37.9845 53.4686 38.5287 54.3233 38.5594 55.2303C38.5902 56.1372 40.7115 58.2463 38.6886 61.8957C36.6656 65.545 36.7455 66.9039 36.9423 67.8724C37.1391 68.8408 34.4827 74.1381 34.4827 74.1381L31.6758 73.4063C31.6758 73.4063 37.7662 57.5792 35.0884 44.5312Z" fill="#F43B00"/>
<path d="M46.562 20.3535C46.562 20.3535 44.7912 21.7555 46.1285 22.9453L46.562 20.3535Z" fill="#F43B00"/>
<path d="M46.562 20.3535C46.562 20.3535 44.7912 21.7555 46.1285 22.9453" stroke="#F43B00" stroke-width="0.307444" stroke-miterlimit="10" stroke-linecap="round"/>
<path d="M46.6156 21.854C46.5831 21.6722 46.4983 21.5039 46.3716 21.3696C46.2449 21.2353 46.0819 21.1408 45.9023 21.0977" fill="#F43B00"/>
<path d="M46.6156 21.854C46.5831 21.6722 46.4983 21.5039 46.3716 21.3696C46.2449 21.2353 46.0819 21.1408 45.9023 21.0977" stroke="#F43B00" stroke-width="0.307444" stroke-miterlimit="10" stroke-linecap="round"/>
<path d="M53.1886 18.7521C52.5172 18.6266 51.8255 18.6646 51.1718 18.8628C50.1173 19.1949 50.7721 19.8928 51.5899 19.9081C52.4077 19.9235 53.7082 19.7882 53.742 19.2933C53.7759 18.7983 53.1886 18.7521 53.1886 18.7521Z" fill="black" stroke="#F43B00" stroke-width="0.307444" stroke-miterlimit="10" stroke-linecap="round"/>
<path d="M52.5504 18.8066C52.5504 18.8066 52.2091 19.1909 52.7133 19.8397L53.6049 19.5322L53.6848 19.0249L52.5504 18.8066Z" fill="#F43B00"/>
<path d="M50.7402 17.2509C51.7425 17.1221 52.7571 17.1221 53.7593 17.2509H50.7402Z" fill="#F43B00"/>
<path d="M50.7402 17.2509C51.7425 17.1221 52.7571 17.1221 53.7593 17.2509" stroke="#F43B00" stroke-width="0.307444" stroke-linecap="round" stroke-linejoin="round"/>
<path d="M49.9621 74.2056C49.9621 74.2056 66.5918 105.872 67.179 115.403C67.7662 124.934 60.6704 149.6 60.6704 149.6H46.0883C46.0883 149.6 54.1034 124.368 53.6699 117.22C53.2364 110.072 42.1623 90.2665 42.1623 90.2665C42.1623 90.2665 36.3209 125.604 42.1623 149.603H28.3888C28.3888 149.603 20.9917 113.807 31.7246 73.4062L49.9621 74.2056Z" fill="#F43B00"/>
<path d="M61.3926 38.4473L63.062 42.4379" stroke="#F43B00" stroke-width="0.614887" stroke-miterlimit="10" stroke-linecap="round"/>
<path d="M105.372 9.03895C103.487 17.8902 101.932 26.8092 100.207 35.6912L99.6844 38.3537L99.5522 39.0147C99.4517 39.5487 99.4698 40.0983 99.6053 40.6246C99.7407 41.1508 99.9902 41.6408 100.336 42.06C100.682 42.4791 101.116 42.8172 101.606 43.0501C102.097 43.2831 102.634 43.4053 103.177 43.4081C104.985 43.4081 106.796 43.4296 108.603 43.445L119.462 43.6141C127.456 43.7739 135.929 43.7954 143.892 43.7278C144.617 43.694 145.822 43.7831 146.517 43.5341C148.337 42.9807 149.158 41.4958 149.426 39.6941C151.526 30.0343 153.767 20.2176 155.993 10.5669C156.3 9.62029 156.234 8.59193 155.808 7.69234C155.502 7.09305 155.036 6.59056 154.461 6.24094C153.886 5.89133 153.225 5.70834 152.552 5.71241L147.123 5.79234C143.504 5.82001 139.886 5.87228 136.267 5.8815C129.977 5.8815 120.926 5.82924 114.546 5.7739C112.745 5.7739 110.925 5.75238 109.126 5.7739C108.233 5.83991 107.385 6.19247 106.709 6.77911C106.033 7.36576 105.564 8.15512 105.372 9.02972V9.03895ZM105.252 9.01435C105.445 8.10691 105.924 7.28529 106.618 6.67039C107.313 6.0555 108.187 5.67982 109.111 5.59865L114.543 5.42956C120.959 5.25432 129.915 4.81467 136.249 4.69784C139.867 4.60561 143.486 4.55335 147.104 4.47956L152.534 4.4027C153.32 4.39321 154.097 4.57455 154.798 4.93116C155.499 5.28778 156.103 5.80904 156.558 6.45027C156.999 7.08428 157.287 7.81166 157.399 8.57546C157.512 9.33925 157.446 10.1187 157.207 10.8529C154.889 20.4789 152.519 30.2649 150.081 39.8509C149.669 42.4027 147.95 44.2751 145.248 44.2013C136.82 44.1152 127.905 44.1244 119.462 44.2996L108.603 44.4687C106.796 44.4687 104.985 44.5056 103.177 44.5026C102.472 44.5057 101.774 44.3514 101.136 44.0507C100.498 43.7501 99.9354 43.3108 99.4888 42.7649C99.0422 42.219 98.7231 41.5802 98.5548 40.8952C98.3865 40.2103 98.3733 39.4964 98.5161 38.8056C98.593 38.4644 99.1464 35.9064 99.2509 35.4883C101.246 26.6647 103.414 17.8749 105.252 9.01435Z" fill="#F43B00"/>
<path d="M113.33 36.0735C116.305 34.7377 118.633 32.2816 119.807 29.239C120.721 26.9711 120.953 24.4857 120.475 22.0879L109.689 25.2238L113.33 36.0735Z" fill="#F43B00" stroke="#F43B00" stroke-width="0.307444" stroke-linecap="round" stroke-linejoin="round"/>
<path d="M105.588 23.3087L116.44 20.2834C115.804 16.5941 113.486 13.4151 109.984 12.0194C104.395 9.80268 97.9016 12.9417 95.479 19.0598C93.0563 25.1779 95.6235 31.911 101.213 34.1245C102.507 34.6282 103.889 34.8671 105.278 34.8269C106.666 34.7868 108.032 34.4685 109.295 33.8909L105.588 23.3087Z" fill="black"/>
<path d="M105.535 23.2924C109.025 22.0996 112.696 20.8667 116.296 19.806L115.933 20.3809C115.528 18.2199 114.501 16.224 112.978 14.6379C107.718 9.25456 99.3925 11.462 96.315 18.0198C93.379 24.1441 95.7524 32.1284 102.698 33.9454C104.82 34.4588 107.051 34.2766 109.062 33.4258L108.788 34.053C107.669 30.585 106.565 26.7604 105.535 23.2678V23.2924ZM105.643 23.3478C106.823 26.3146 108.674 30.7818 109.781 33.7301C109.829 33.8546 109.826 33.9928 109.773 34.1152C109.72 34.2376 109.622 34.3344 109.498 34.385C107.293 35.4442 104.795 35.728 102.409 35.1905C98.1044 34.2128 95.0299 30.5788 94.2552 26.3238C93.7173 23.3705 94.2388 20.322 95.7278 17.7154C99.5647 10.6688 109.772 8.26459 114.922 15.2559C115.974 16.7279 116.666 18.4265 116.941 20.2149C116.964 20.3392 116.94 20.4676 116.873 20.5746C116.805 20.6817 116.701 20.7596 116.579 20.7929C113.523 21.6046 108.8 22.6376 105.643 23.357V23.3478Z" fill="#F43B00"/>
<path d="M60.0371 19.2957C60.0371 19.2957 61.7895 19.3971 62.2292 17.8691L60.0371 19.2957Z" fill="#F43B00"/>
<path d="M60.0395 19.2457C60.1211 19.1192 60.2253 19.0087 60.3469 18.9198C60.3889 18.8844 60.4384 18.859 60.4917 18.8457C60.545 18.8324 60.6006 18.8315 60.6543 18.843C60.765 18.8768 60.9126 18.9905 61.0263 18.9721C61.1401 18.9537 61.2231 18.8676 61.2692 18.7415C61.2982 18.6342 61.3405 18.5309 61.3953 18.4341C61.4261 18.3513 61.4708 18.2743 61.5275 18.2066C61.7277 18.0567 61.9509 17.9404 62.1885 17.8622C62.2031 17.8565 62.2192 17.8559 62.2342 17.8603C62.2492 17.8648 62.2623 17.8741 62.2715 17.8868C62.3678 18.02 62.4224 18.1787 62.4284 18.3429C62.4344 18.507 62.3916 18.6693 62.3053 18.8092C62.1674 18.9899 61.9741 19.1205 61.755 19.1812C61.6763 19.1889 61.597 19.1889 61.5183 19.1812C61.4466 19.1763 61.3747 19.1763 61.303 19.1812C61.2406 19.1931 61.1811 19.2171 61.1278 19.2519C61.0233 19.3226 60.9433 19.5009 60.8204 19.5901C60.7614 19.6271 60.6948 19.6503 60.6255 19.6578C60.5562 19.6652 60.4862 19.6568 60.4207 19.6331C60.2557 19.5835 60.1152 19.4738 60.0272 19.3257C60.0196 19.3126 60.0156 19.2977 60.0156 19.2826C60.0156 19.2675 60.0196 19.2527 60.0272 19.2396L60.0395 19.2457Z" fill="#F43B00"/>
<path d="M58.1762 33.2916C56.1839 31.5084 52.9496 30.3186 50.4716 31.7206C50.241 31.8435 49.9121 32.0895 49.6046 31.9235C48.6823 31.2809 48.8575 27.4348 48.9713 26.3096V26.2819C49.2634 25.7777 49.4786 25.996 49.4048 25.9468C49.4896 25.9559 49.5738 25.9702 49.6569 25.9898C50.7514 26.2296 51.809 26.5002 52.8789 26.8199C53.4692 26.9829 54.0165 27.2626 54.4376 27.1612C54.4784 26.9123 54.4877 26.6592 54.4653 26.4079C54.3731 25.5502 55.0249 24.8707 55.6951 24.4772C55.6528 24.5064 55.6201 24.5476 55.6013 24.5956C55.5826 24.6435 55.5786 24.6959 55.5898 24.7461C55.601 24.7963 55.627 24.842 55.6644 24.8774C55.7018 24.9127 55.7489 24.9361 55.7996 24.9445H55.7074C55.0231 24.855 54.3291 24.8737 53.6506 24.9999C53.1987 25.1136 52.8174 24.6155 52.9127 24.1759C53.088 23.6256 53.4661 23.561 53.9058 23.4842C54.7543 23.3181 55.7135 23.4842 56.5344 23.4319C56.5797 23.4297 56.6243 23.4204 56.6666 23.4042C56.6295 23.4195 56.5967 23.4438 56.5713 23.4749C56.5277 23.5235 56.5035 23.5864 56.5035 23.6517C56.5035 23.717 56.5277 23.78 56.5713 23.8285C56.1976 23.4781 55.8729 23.0789 55.6059 22.6418C55.5435 22.5228 55.5078 22.3916 55.5014 22.2575C55.5014 21.2675 56.7988 21.3351 57.1247 20.6403C57.107 20.7118 57.1091 20.7868 57.1308 20.8572C57.1524 20.9276 57.1928 20.9908 57.2477 21.04C57.286 21.0783 57.3337 21.1059 57.386 21.1199C57.0468 21.1271 56.7082 21.1517 56.3715 21.1937C52.6821 21.5534 54.0472 18.273 53.5122 16.1117C53.4631 15.838 53.2048 15.5337 53.2909 15.2354L53.5153 15.7028C50.4932 14.1194 48.5317 16.3791 47.9076 19.2445C47.9021 19.3223 47.8673 19.395 47.8102 19.4481C47.7532 19.5012 47.6781 19.5306 47.6001 19.5304C47.0944 19.3414 46.5357 19.3527 46.038 19.5618C45.5403 19.7709 45.1412 20.1622 44.9223 20.6557C44.3074 22.113 44.9807 24.0867 46.7147 24.2497C46.7494 24.2518 46.7832 24.2617 46.8136 24.2788C46.8439 24.2958 46.87 24.3195 46.8899 24.3481C46.9119 24.3821 46.9246 24.4213 46.9268 24.4618C46.9318 24.7995 46.9071 25.1369 46.853 25.4702C46.5456 27.4871 46.0629 29.467 45.5894 31.4346C45.5777 31.4764 45.554 31.5139 45.5212 31.5423C45.4884 31.5707 45.448 31.5889 45.405 31.5945C44.9069 31.6406 44.1752 31.7575 43.6833 31.779C41.977 31.8958 40.2676 32.0526 38.5736 32.2617C37.0609 32.4892 35.4991 32.6183 34.1033 33.2086C33.5157 33.5711 32.9481 33.9652 32.4032 34.3892C27.438 38.2384 22.7771 44.7439 21.6672 50.9635C21.5028 51.8543 21.5416 52.7707 21.781 53.6444C22.2109 54.8058 22.7601 55.9196 23.4197 56.9678C25.7747 60.817 28.554 64.4725 31.3702 68.0358L30.5308 67.9743L33.0058 65.7915L32.8797 66.434C31.5764 63.6933 30.4799 60.859 29.5993 57.9547C29.2734 56.7249 28.9137 55.4245 29.0336 54.1117C29.1773 53.3332 29.4473 52.5834 29.8329 51.8919C31.2626 49.2233 33.1072 46.8191 35.041 44.5071C35.0902 44.4457 35.1825 44.5287 35.1363 44.584C33.1564 47.4156 31.0043 50.2625 29.8575 53.5398C29.464 54.9479 30.0113 56.3652 30.4048 57.7395C30.7122 58.6803 31.0627 59.6088 31.4255 60.5342C32.1634 62.3788 32.9842 64.205 33.8574 65.9851C33.9096 66.0905 33.9258 66.2101 33.9036 66.3256C33.8814 66.4411 33.822 66.5461 33.7344 66.6246L31.3118 68.8659C31.2548 68.9188 31.1878 68.9597 31.1146 68.986C31.0415 69.0122 30.9638 69.0234 30.8862 69.0188C30.8086 69.0142 30.7327 68.994 30.6632 68.9592C30.5937 68.9245 30.5319 68.876 30.4817 68.8167C28.9936 67.0489 27.5763 65.2411 26.1959 63.3903C24.0745 60.4512 21.821 57.5212 20.5359 54.0686C19.6504 50.8589 21.3844 46.9974 22.8355 44.1843C25.4211 39.4589 29.0551 35.1855 33.7375 32.4646C35.2532 31.8497 36.9195 31.7882 38.5029 31.6007C40.781 31.3578 43.0838 31.3516 45.3588 31.1395L45.1621 31.3117C45.7063 29.055 46.4165 26.7922 46.5702 24.4772C46.574 24.5113 46.5891 24.5431 46.613 24.5676C46.637 24.5921 46.6684 24.6079 46.7024 24.6125C44.7132 24.4096 43.8616 22.2021 44.5841 20.4866C45.0545 19.3121 46.5179 18.5804 47.7415 19.057C47.7135 19.0471 47.6837 19.0432 47.6541 19.0456C47.6245 19.048 47.5958 19.0566 47.5697 19.0708C47.5436 19.085 47.5208 19.1045 47.5027 19.1281C47.4847 19.1516 47.4718 19.1787 47.4648 19.2076V19.1584C47.883 16.7265 49.5032 14.0456 52.3347 14.5099C52.8686 14.58 53.3877 14.7357 53.872 14.971C53.9644 15.013 54.0377 15.088 54.0776 15.1813C54.1174 15.2746 54.1208 15.3795 54.0872 15.4752L54.0626 15.2293C54.5022 16.0194 54.5852 17.0002 54.6283 17.8733C54.6043 18.4164 54.6529 18.9602 54.7728 19.4905C54.8061 19.6751 54.889 19.8473 55.0126 19.9885C55.772 20.462 56.7988 19.9147 57.6658 20.0777C57.7906 20.0954 57.9089 20.144 58.0101 20.2191C58.0799 20.2836 58.1352 20.3621 58.1723 20.4496C58.2094 20.5371 58.2275 20.6314 58.2254 20.7264C58.1393 21.5165 57.3768 21.9715 56.7711 22.2636C56.7005 22.2971 56.6326 22.3361 56.5682 22.3804C56.6088 22.3264 56.6304 22.2605 56.6297 22.1929C56.6297 22.1775 56.6297 22.1621 56.6297 22.1468C56.6297 22.1314 56.6143 22.1099 56.6297 22.116C56.8726 22.6233 57.6197 22.9861 57.6443 23.5825C57.6494 23.7536 57.6029 23.9223 57.5107 24.0665C57.4186 24.2107 57.2852 24.3238 57.1278 24.3911C56.6715 24.5217 56.1928 24.5552 55.7228 24.4895C55.1074 24.4293 54.4867 24.4541 53.8781 24.5633C53.8781 24.5633 53.9427 24.5448 53.9919 24.3757C54.006 24.3145 54.004 24.2506 53.9863 24.1903C53.9685 24.13 53.9355 24.0752 53.8904 24.0314L53.3985 23.9484C54.2107 23.8011 55.0415 23.7876 55.858 23.9084C55.9971 23.9159 56.1327 23.9548 56.2546 24.0222C56.3643 24.087 56.4567 24.1772 56.524 24.2853C56.5914 24.3933 56.6318 24.516 56.6417 24.643C56.6517 24.7699 56.6309 24.8974 56.5812 25.0146C56.5315 25.1319 56.4543 25.2354 56.3561 25.3165C56.0487 25.5379 55.609 25.7439 55.5106 26.1066C55.443 26.5248 55.5475 26.8291 55.4276 27.3641C55.2032 28.3325 54.0964 28.2588 53.3923 27.9974C52.0796 27.5455 50.7053 27.1335 49.3587 26.8045C49.3587 26.8045 49.3402 26.8045 49.3894 26.8045C49.3095 26.7554 49.5186 26.9736 49.8106 26.4725C49.8106 26.5186 49.7891 26.5863 49.783 26.6508L49.743 27.0443C49.6477 28.3879 49.5524 30.2725 49.9182 31.367C49.8928 31.3533 49.8641 31.3469 49.8352 31.3486C49.8352 31.3486 49.8352 31.3486 49.8537 31.3486C52.6207 29.7345 56.2577 31.0719 58.2715 33.2209C58.3207 33.2732 58.2438 33.3623 58.1854 33.3101L58.1762 33.2916Z" fill="#F43B00"/>
<path d="M35.0479 44.4846C35.2385 44.5092 35.1094 44.5092 35.1524 44.5184V44.543V44.5738L35.1678 44.6291L35.1893 44.7429L35.2354 44.9704C37.0801 54.1076 35.4875 64.0319 32.5023 72.7633L32.3362 73.2029L32.2471 73.4304L32.1917 73.5565L32.1764 73.5872V73.6057C32.2124 73.5298 32.2292 73.4461 32.2251 73.3622C32.221 73.2782 32.1963 73.1966 32.1531 73.1245C32.1099 73.0524 32.0496 72.9921 31.9775 72.9489C31.9054 72.9058 31.8237 72.8811 31.7398 72.877L40.8647 73.1845L49.9866 73.5411L50.1219 73.5626C50.0311 73.5375 49.9359 73.5325 49.843 73.5479C49.7501 73.5633 49.6617 73.5988 49.5838 73.6518C49.5034 73.7062 49.437 73.7789 49.3901 73.8639C49.5193 73.6303 49.7406 73.1783 49.8667 72.9416C52.3108 68.0693 54.3987 63.0263 56.1139 57.8523C57.15 54.5872 57.9586 51.2883 58.1092 47.8911C58.1398 47.7938 58.1952 47.7062 58.2699 47.6368C58.3447 47.5674 58.4362 47.5187 58.5354 47.4954C58.6347 47.4722 58.7383 47.4752 58.8361 47.5041C58.9339 47.533 59.0224 47.5869 59.0931 47.6605C60.3171 48.655 61.7914 49.2933 63.3542 49.5052C63.9421 49.6249 64.5486 49.6196 65.1343 49.4898C65.7513 49.0911 66.2909 48.5838 66.7269 47.9925C71.4707 41.2934 67.6984 30.8433 64.7808 24.0119C63.551 21.1589 62.1859 18.3642 60.7502 15.6187C60.6745 15.1709 60.4897 14.7485 60.2122 14.389C60.0941 14.2365 59.9313 14.1249 59.7466 14.0697C59.5619 14.0146 59.3645 14.0187 59.1822 14.0815C58.9435 14.1806 58.6966 14.2588 58.4444 14.3152C57.0977 14.5396 55.9848 13.5404 54.8811 13.0239C54.7981 12.987 54.7458 13.0239 54.8411 12.987C54.8842 12.9594 54.8903 12.9501 54.8995 12.9317C54.9015 12.9164 54.9015 12.9009 54.8995 12.8856C55.3791 13.5527 56.2861 13.9247 57.0363 14.2629C57.2106 14.3356 57.3919 14.3902 57.5774 14.4259L57.4821 15.3144C56.6373 15.1549 55.8125 14.9033 55.0225 14.5642C54.6747 14.3619 54.2953 14.2196 53.9003 14.143C53.9003 14.143 53.928 14.1584 54.051 14.0815C54.1015 14.0435 54.1431 13.9949 54.1728 13.9392C54.2025 13.8834 54.2197 13.8218 54.2232 13.7587C54.2232 13.7249 54.2232 13.7034 54.2232 13.688C54.2232 13.6019 54.1586 13.5681 54.2016 13.6081C54.8102 14.041 55.4781 14.3838 56.1846 14.6257C56.4301 14.7201 56.6861 14.7842 56.9471 14.8163L56.9256 15.9139C55.9845 15.8184 55.0615 15.5918 54.1832 15.2406L53.9649 15.1484L53.7958 15.0807C53.7558 15.0623 53.682 15.053 53.7466 15.0592C53.8365 15.0573 53.9242 15.0308 54.0001 14.9825C54.0759 14.9343 54.1372 14.8662 54.177 14.7856C54.2056 14.7322 54.2234 14.6737 54.2293 14.6134C54.2439 14.5065 54.2211 14.3979 54.1647 14.306C54.9757 14.9456 55.9729 15.3039 57.0055 15.3267L56.901 16.415C56.3539 16.297 55.7932 16.2546 55.2346 16.289C55.2765 16.2674 55.3132 16.237 55.3422 16.1998C55.3944 16.1352 55.4246 16.0557 55.4285 15.9727C55.4323 15.8898 55.4097 15.8078 55.3638 15.7386C55.3392 15.7079 55.3299 15.7048 55.3299 15.7048L55.413 15.7448C56.4739 16.02 57.5802 16.0734 58.6626 15.9016C58.9056 15.8721 59.1428 15.8068 59.3667 15.7079C59.4272 15.6766 59.4933 15.6575 59.5612 15.6518C59.6291 15.6462 59.6975 15.654 59.7623 15.6748C59.8272 15.6957 59.8873 15.7292 59.9392 15.7734C59.9911 15.8176 60.0337 15.8716 60.0646 15.9323C60.0945 15.9876 60.1133 16.0482 60.1199 16.1107C60.2244 16.9223 60.3782 18.6717 60.4981 19.4341C61.239 24.2764 61.9892 29.1555 61.7278 34.0715C61.7125 35.0184 61.651 37.3857 61.611 38.4372C61.6125 38.4878 61.5962 38.5373 61.5648 38.577C61.5335 38.6167 61.4892 38.6441 61.4396 38.6544C61.3901 38.6647 61.3385 38.6571 61.2939 38.6332C61.2494 38.6092 61.2147 38.5703 61.196 38.5233C61.0054 38.0406 60.827 37.5702 60.6241 37.1029C60.036 35.694 59.2033 34.4003 58.1646 33.2814C58.1062 33.226 58.1953 33.1399 58.2507 33.1922C59.7879 34.588 60.7748 36.4665 61.5803 38.3511L61.1652 38.4372L61.0945 36.2421L61.0607 34.0531V34.0254C61.2267 28.7988 60.1138 23.6184 59.3667 18.481L59.0838 16.2398L59.8463 16.6395C58.595 17.1652 57.3191 17.0945 56.0094 16.9807C55.5494 16.9465 55.1024 16.8122 54.6997 16.5872C54.5868 16.5184 54.4949 16.42 54.434 16.3027C54.3732 16.1853 54.3457 16.0535 54.3546 15.9216C54.3635 15.7897 54.4084 15.6627 54.4844 15.5546C54.5604 15.4464 54.6647 15.3612 54.7858 15.3082C55.5913 15.0438 56.323 15.2498 57.0977 15.342C57.2361 15.3624 57.3614 15.4349 57.448 15.5448C57.5345 15.6546 57.5757 15.7935 57.5631 15.9327C57.5505 16.072 57.4851 16.2012 57.3803 16.2937C57.2754 16.3863 57.1391 16.4352 56.9994 16.4304C56.0115 16.4109 55.044 16.1468 54.1832 15.6618C53.8104 15.484 53.4849 15.2206 53.2332 14.8932C53.16 14.77 53.1267 14.6271 53.1379 14.4843C53.1522 14.3852 53.1905 14.2911 53.2494 14.2102C53.3084 14.1293 53.3862 14.064 53.4761 14.02C53.8604 13.8663 54.091 14.02 54.3984 14.1399C55.231 14.4946 56.1099 14.7285 57.0086 14.8348C57.0834 14.8387 57.1566 14.8582 57.2235 14.8919C57.2904 14.9257 57.3496 14.9729 57.3973 15.0308C57.445 15.0886 57.4802 15.1556 57.5006 15.2278C57.521 15.2999 57.5262 15.3754 57.5159 15.4496C57.3499 16.2705 56.3261 15.8155 55.8342 15.6526C55.1904 15.4067 54.5725 15.0977 53.9895 14.7302C53.6821 14.515 53.3592 14.3674 53.2393 13.8878C53.2174 13.7726 53.2289 13.6534 53.2725 13.5444C53.316 13.4355 53.3899 13.3413 53.4853 13.2729C53.5988 13.2047 53.7256 13.1617 53.8571 13.1469C53.9887 13.132 54.1219 13.1456 54.2477 13.1869C54.8626 13.3221 55.3269 13.6665 55.8864 13.8971C56.4874 14.1283 57.1038 14.3173 57.7311 14.4628C57.8378 14.4911 57.9304 14.5578 57.991 14.6501C58.0516 14.7424 58.0761 14.8539 58.0597 14.9631C58.0434 15.0723 57.9873 15.1717 57.9023 15.2421C57.8173 15.3126 57.7092 15.3493 57.5989 15.3451C57.0411 15.248 56.5062 15.0478 56.0217 14.7548C55.333 14.3306 54.4353 13.9217 54.1494 13.07C54.1173 12.9275 54.1316 12.7784 54.1903 12.6446C54.2489 12.5107 54.3487 12.3991 54.4753 12.326C54.6004 12.2589 54.7435 12.2331 54.8842 12.2522C55.241 12.3375 55.5767 12.4944 55.871 12.7134C56.7503 13.2699 57.7833 14.017 58.8317 13.5496C60.3689 12.987 61.1714 14.5181 61.2636 15.4373C61.9369 16.8331 62.6041 18.2259 63.2466 19.634C65.7554 25.2694 68.5039 30.9509 69.4232 37.1121C70.0534 41.6346 69.7552 47.3992 65.6816 50.2922C64.5471 50.9071 62.4165 50.4521 60.9961 49.9448C60.0414 49.6051 59.1538 49.1004 58.3736 48.4537C58.3929 48.4729 58.4146 48.4894 58.4382 48.5029C58.5309 48.5573 58.6392 48.5789 58.7456 48.5644C58.8454 48.5504 58.9391 48.5087 59.0163 48.444C59.0935 48.3793 59.151 48.2943 59.1822 48.1985C59.2283 50.9655 58.2353 55.1591 57.2914 58.2181C55.5754 63.6564 53.4161 68.9448 50.8351 74.0299L50.706 74.279L50.6414 74.402L50.6076 74.4665L50.5892 74.5034V74.5219C50.6107 74.4757 50.5892 74.6049 50.3863 74.7494C50.3082 74.8046 50.2194 74.8427 50.1257 74.8612C50.0319 74.8798 49.9353 74.8783 49.8421 74.857L49.9774 74.8754C45.4057 74.6356 36.2377 74.2175 31.6998 73.9592C31.6087 73.9533 31.5203 73.9261 31.4417 73.8796C31.3631 73.8332 31.2966 73.7689 31.2475 73.692C31.1984 73.615 31.1681 73.5276 31.1591 73.4367C31.1501 73.3459 31.1626 73.2542 31.1956 73.1691C31.4385 72.6403 31.6353 72.0808 31.8351 71.5366C34.6667 63.2141 36.3761 54.2398 35.1647 45.45C35.1401 45.2256 35.0817 44.8689 35.051 44.6537V44.5984V44.5584C35.0909 44.5584 34.9618 44.5584 35.1463 44.5799C35.094 44.6322 35.0018 44.54 35.0633 44.4877L35.0479 44.4846Z" fill="#F43B00"/>
<path opacity="0.2" d="M48.4484 162.528C66.5324 162.127 81.1325 159.106 81.0588 155.78C80.9851 152.455 66.2654 150.084 48.1814 150.485C30.0975 150.886 15.4973 153.907 15.571 157.232C15.6447 160.558 30.3644 162.929 48.4484 162.528Z" fill="#F43B00"/>
<path d="M23.118 148.901C21.4517 149.153 19.7731 149.393 18.1436 149.781C17.7422 149.875 17.3469 149.994 16.96 150.137C16.7793 150.203 16.6061 150.287 16.4434 150.389C16.3789 150.438 16.3143 150.494 16.3051 150.528C16.2959 150.561 16.2897 150.528 16.3051 150.565C16.4075 150.683 16.5359 150.775 16.6802 150.835C16.858 150.923 17.0407 151.001 17.2274 151.069C17.418 151.139 17.6148 151.198 17.8116 151.25C18.0083 151.302 18.2051 151.367 18.408 151.41C20.0467 151.737 21.7055 151.954 23.3732 152.059C25.0488 152.191 26.7305 152.252 28.4153 152.317C35.1545 152.532 41.9151 152.495 48.6758 152.723C52.0577 152.846 55.4396 153.009 58.8215 153.261C60.5104 153.38 62.1962 153.535 63.8789 153.728C65.5637 153.906 67.2454 154.14 68.9148 154.444C69.7511 154.592 70.5812 154.77 71.4051 154.986C71.814 155.105 72.2291 155.204 72.6349 155.345C73.06 155.471 73.4648 155.658 73.837 155.899C73.9554 155.98 74.0473 156.094 74.1014 156.228C74.1321 156.318 74.1321 156.417 74.1014 156.507C74.0696 156.581 74.0237 156.648 73.9661 156.704C73.7858 156.858 73.5768 156.974 73.3512 157.045C72.942 157.186 72.5226 157.295 72.0969 157.371C71.2576 157.537 70.4182 157.654 69.5758 157.759C66.194 158.155 62.8367 158.423 59.4671 158.681C56.0975 158.939 52.7279 159.207 49.3707 159.499C47.692 159.656 46.0134 159.822 44.3716 160.083C43.9627 160.148 43.5538 160.224 43.1603 160.31C42.7906 160.38 42.4298 160.491 42.0842 160.639C42.0455 160.657 42.0093 160.68 41.9766 160.707C42.004 160.676 42.024 160.639 42.0351 160.599C42.0529 160.524 42.0475 160.445 42.0197 160.372C41.9736 160.289 42.0012 160.338 42.0473 160.372C42.0935 160.406 42.1673 160.446 42.2441 160.486C42.5986 160.645 42.9644 160.777 43.3386 160.882C46.5705 161.724 49.8769 162.247 53.2106 162.444C54.8831 162.561 56.5587 162.642 58.2373 162.687C59.916 162.73 61.5977 162.727 63.2825 162.715C66.649 162.699 70.0155 162.546 73.3912 162.407C75.0791 162.343 76.7731 162.269 78.4702 162.238C79.3218 162.238 80.1703 162.214 81.0466 162.266C81.271 162.29 81.4831 162.293 81.7168 162.333C81.8336 162.355 81.9443 162.364 82.0673 162.395C82.2026 162.429 82.3361 162.47 82.467 162.518L82.5899 162.579C82.6451 162.617 82.6975 162.658 82.7467 162.702C82.7801 162.734 82.8091 162.77 82.8328 162.81C82.8627 162.856 82.8884 162.904 82.9097 162.954C82.9403 163.071 82.9403 163.194 82.9097 163.311C82.8859 163.391 82.8517 163.467 82.8082 163.539L82.7006 163.668C82.6432 163.725 82.5816 163.777 82.5161 163.825C82.3132 163.96 82.0981 164.076 81.8736 164.172C81.0725 164.504 80.2509 164.784 79.414 165.011C78.5962 165.245 77.7754 165.46 76.9545 165.666C75.3097 166.078 73.6587 166.456 72.0077 166.819C70.3568 167.182 68.6966 167.52 67.0364 167.846C65.3762 168.172 63.719 168.492 62.0527 168.768C62.0446 168.77 62.0364 168.769 62.0284 168.767C62.0204 168.765 62.0129 168.762 62.0063 168.757C61.9998 168.752 61.9942 168.746 61.99 168.739C61.9858 168.732 61.9831 168.724 61.982 168.716C61.9799 168.701 61.9834 168.685 61.9919 168.672C62.0004 168.659 62.0132 168.65 62.0281 168.645L66.9472 167.443L71.8663 166.213C73.4988 165.792 75.1313 165.359 76.7485 164.891C77.5571 164.658 78.3626 164.415 79.1589 164.157C79.9466 163.912 80.7205 163.625 81.477 163.296C81.6407 163.224 81.7972 163.136 81.9443 163.034L81.9996 162.988C81.9803 163.013 81.9676 163.043 81.9627 163.074C81.9518 163.129 81.9536 163.185 81.968 163.238C81.9824 163.291 82.009 163.341 82.0458 163.382C82.0546 163.394 82.0662 163.403 82.0796 163.409C82.0796 163.409 82.0642 163.409 82.0581 163.409L81.849 163.357C81.7691 163.339 81.6645 163.33 81.5754 163.317C81.394 163.287 81.1818 163.287 80.9851 163.268C80.1703 163.237 79.331 163.268 78.4948 163.299C76.8161 163.366 75.1313 163.477 73.4435 163.579C70.0616 163.788 66.6797 163.941 63.2978 164C59.916 164.058 56.5033 164 53.1092 163.692C49.6929 163.447 46.309 162.867 43.0066 161.958C42.5638 161.84 42.1318 161.685 41.7153 161.494C41.5941 161.434 41.4779 161.364 41.3679 161.285C41.1938 161.171 41.0553 161.01 40.9682 160.821C40.8927 160.653 40.8785 160.463 40.9283 160.286C40.9714 160.145 41.0484 160.018 41.1527 159.914C41.274 159.796 41.4143 159.699 41.5677 159.628C41.9982 159.441 42.4491 159.304 42.9113 159.222C43.3417 159.133 43.769 159.065 44.1933 159.007C45.8965 158.773 47.5752 158.644 49.2753 158.524C52.6572 158.284 56.0391 158.168 59.421 158.008C61.1099 157.928 62.7967 157.84 64.4815 157.743C66.1663 157.645 67.8634 157.528 69.5236 157.344C70.3629 157.254 71.1991 157.15 72.0169 156.99C72.4234 156.916 72.824 156.813 73.216 156.683C73.3929 156.629 73.5586 156.544 73.7048 156.431C73.7571 156.372 73.7571 156.363 73.7479 156.338C73.7167 156.277 73.67 156.225 73.6126 156.188C73.2749 155.969 72.9073 155.802 72.5212 155.69C72.1276 155.554 71.7187 155.462 71.316 155.348C70.5043 155.142 69.6804 154.97 68.8564 154.832C65.5202 154.325 62.155 154.033 58.7815 153.956C55.3996 153.82 52.0362 153.783 48.6605 153.759C45.2847 153.734 41.8967 153.691 38.5148 153.617L33.4451 153.494C31.7541 153.439 30.0632 153.375 28.3692 153.282C26.6752 153.19 24.9873 153.073 23.2964 152.895C21.5931 152.741 19.9036 152.461 18.242 152.056C18.0329 152.003 17.8269 151.926 17.6271 151.862C17.4181 151.801 17.2128 151.728 17.0122 151.644C16.8008 151.562 16.5954 151.465 16.3973 151.355C16.2906 151.296 16.1879 151.23 16.0899 151.158L15.9423 151.023C15.8875 150.964 15.841 150.897 15.804 150.826C15.7826 150.786 15.7661 150.744 15.7548 150.7C15.7458 150.648 15.7396 150.596 15.7363 150.543C15.7444 150.445 15.7761 150.35 15.8286 150.266C15.9055 150.141 16.0109 150.036 16.136 149.959C16.3493 149.839 16.5764 149.746 16.8124 149.682C17.2251 149.555 17.645 149.452 18.0698 149.375C19.7418 149.087 21.428 148.889 23.1211 148.781C23.1378 148.78 23.1541 148.786 23.1667 148.797C23.1793 148.808 23.1872 148.823 23.1888 148.84C23.1884 148.849 23.1862 148.857 23.1824 148.865C23.1786 148.873 23.1732 148.88 23.1666 148.886C23.16 148.891 23.1523 148.896 23.1439 148.898C23.1356 148.901 23.1268 148.902 23.118 148.901Z" fill="#F43B00"/>
<path d="M127.311 24.5554C127.142 26.6399 126.89 28.5768 126.546 30.5721C126.254 32.4936 125.556 34.2276 125.079 36.106L124.882 35.8632C126.23 35.8996 127.58 35.8544 128.922 35.7279L128.593 35.9954C128.805 34.0339 129.144 32.0939 129.494 30.1539C129.845 28.214 130.312 26.2986 130.841 24.4017L131.32 24.9889C130.22 24.9059 128.443 24.6814 127.323 24.5492L127.311 24.5554ZM127.231 24.4601C128.716 24.2418 130.34 24.0604 131.883 23.9805C131.614 26.1443 131.236 28.2931 130.748 30.4183C130.281 32.4382 129.783 34.4458 129.165 36.4258C127.662 36.2798 126.152 36.2305 124.643 36.2782C124.996 34.2306 125.079 32.0324 125.611 30.0064C126.041 28.1312 126.582 26.2833 127.231 24.4724V24.4601Z" fill="#F43B00"/>
<path d="M132.224 36.0331C133.817 35.9194 135.249 35.7257 136.799 35.6642L136.402 35.9717C136.954 32.5566 137.702 29.1762 138.644 25.8475C139.626 22.5301 140.387 19.151 140.922 15.7326L141.251 16.1446C139.738 16.2246 138.226 16.3137 136.713 16.3445L137.242 15.9233C136.913 17.5865 136.568 19.2344 136.224 20.8762C135.111 25.949 133.645 30.9972 132.227 36.0209L132.224 36.0331ZM132.129 36.11C132.907 31.1509 133.804 25.8014 134.933 20.8762C135.382 18.9946 135.827 17.1284 136.295 15.2715C138.09 15.2992 139.889 15.4098 141.684 15.5021C140.692 18.9564 139.93 22.4732 139.406 26.0289C138.866 29.4454 138.129 32.8278 137.199 36.1592L137.106 36.4912H136.799C135.409 36.4574 133.525 36.2361 132.129 36.1223V36.11Z" fill="#F43B00"/>
<path d="M140.273 36.0336C141.81 35.8922 143.185 35.6985 144.676 35.6124L144.224 35.9844C144.414 34.7547 144.617 33.5034 144.86 32.2705C145.346 29.811 146.225 27.4252 146.677 24.9564C146.92 23.7267 147.101 22.4969 147.258 21.2333L147.587 21.6361C146.105 21.7406 144.62 21.8359 143.135 21.8666L143.695 21.4085C142.972 26.2846 141.589 31.2467 140.273 36.0336ZM140.178 36.1105C140.648 31.0888 141.45 26.1036 142.576 21.1872L142.683 20.7168C144.463 20.7506 146.244 20.8644 148.021 20.9904C147.285 23.5288 146.77 26.1261 146.483 28.7534C146.197 31.3859 145.713 33.9932 145.035 36.5532C143.47 36.4794 141.687 36.3011 140.181 36.1105H140.178Z" fill="#F43B00"/>
<path d="M86.631 91.7417C87.292 86.5336 89.1551 77.75 93.072 74.0914C95.7406 71.6318 98.5014 73.5011 100.776 75.4349C102.148 76.594 103.43 77.8391 104.801 78.992C108.075 81.7836 112.619 84.7228 116.044 80.4616C117.671 78.5155 118.636 75.7977 119.592 73.4642C120.917 70.153 122.153 66.8111 123.398 63.4692C125.307 58.464 127.048 53.3728 129.267 48.4813C130.042 46.8642 130.832 45.1825 132.133 43.9127C132.185 43.8605 132.274 43.9465 132.222 43.9988C131.097 45.3792 130.488 47.0732 129.842 48.7211C129.197 50.369 128.659 52.0784 128.093 53.7694C125.873 60.5639 123.521 67.3461 120.662 73.9069C119.936 75.564 119.272 77.2488 118.325 78.8014C112.625 88.1231 106.206 80.2587 100.352 75.9729C96.8627 73.3935 94.7813 72.8524 92.205 76.8615C89.4564 81.4178 88.1406 86.6259 86.754 91.7602C86.7522 91.768 86.7488 91.7755 86.7441 91.7821C86.7394 91.7886 86.7335 91.7942 86.7267 91.7985C86.7198 91.8028 86.7122 91.8057 86.7042 91.807C86.6962 91.8084 86.6881 91.8081 86.6802 91.8063C86.6656 91.8033 86.6525 91.7951 86.6434 91.7833C86.6344 91.7714 86.63 91.7566 86.631 91.7417Z" fill="#F43B00"/>
<path d="M33.1358 66.3965C33.1358 66.3965 36.1119 68.2873 36.9081 69.9198C37.7044 71.5523 35.6538 74.4577 33.8614 73.7782C32.069 73.0988 29.9753 71.5615 29.6709 70.6792C29.3665 69.7968 32.9052 72.2164 32.9052 72.2164L31.1528 68.3549C31.9025 67.7985 32.5701 67.1392 33.1358 66.3965Z" fill="black"/>
<path d="M33.1267 66.3496C33.1514 66.3541 33.1753 66.3624 33.1974 66.3742L33.2343 66.3896L33.305 66.4234L33.4526 66.4941L33.7385 66.6417C33.9292 66.7401 34.1106 66.8507 34.295 66.9491C34.6652 67.1693 35.0224 67.4105 35.3649 67.6716C35.7153 67.9308 36.0462 68.2155 36.3549 68.5232C36.6851 68.838 36.9688 69.1983 37.1973 69.5931C37.2306 69.6433 37.2604 69.6957 37.2864 69.7499L37.3602 69.9344C37.3818 69.9959 37.4063 70.0574 37.4248 70.1219L37.4586 70.3095C37.4823 70.4341 37.4926 70.5609 37.4894 70.6876C37.4945 70.811 37.4873 70.9346 37.4678 71.0566C37.3973 71.5247 37.2252 71.9717 36.9636 72.3663C36.7176 72.7529 36.4054 73.0932 36.0413 73.3716C35.6886 73.6582 35.2755 73.8611 34.833 73.965C34.7204 73.9869 34.6064 74.0013 34.4918 74.008C34.3767 74.0071 34.2618 73.9999 34.1474 73.9865L33.8123 73.9004L33.5049 73.7867C33.1083 73.6207 32.7178 73.4454 32.3335 73.2548C31.5461 72.8812 30.8043 72.418 30.123 71.8744C29.9466 71.7277 29.783 71.5662 29.6342 71.3917C29.5511 71.2962 29.477 71.1933 29.4128 71.0842C29.3745 71.0269 29.3416 70.9662 29.3144 70.9028L29.2683 70.8045C29.2482 70.7508 29.2338 70.6951 29.2253 70.6384C29.2192 70.5874 29.2192 70.5358 29.2253 70.4847C29.2226 70.4581 29.2226 70.4314 29.2253 70.4048C29.24 70.3661 29.2585 70.329 29.2806 70.2941C29.318 70.228 29.372 70.1729 29.4374 70.1342C29.4897 70.1013 29.5467 70.0764 29.6065 70.0605C29.6748 70.0507 29.7442 70.0507 29.8125 70.0605C29.858 70.0625 29.9033 70.0687 29.9478 70.0789C30.0772 70.106 30.2038 70.1451 30.3259 70.1957C30.5442 70.2849 30.744 70.3802 30.9408 70.4786C31.7044 70.8796 32.4427 71.3273 33.1513 71.819L32.4227 72.4339L32.0015 71.4593C31.8601 71.1375 31.7248 70.8116 31.5957 70.4817C31.3282 69.8268 31.073 69.1658 30.824 68.5017L30.7256 68.2342L30.9285 68.1082C31.113 67.9914 31.3036 67.8561 31.4881 67.7239C31.6725 67.5917 31.857 67.4503 32.0353 67.3058C32.2136 67.1613 32.395 67.0168 32.5641 66.86C32.6502 66.7831 32.7363 66.7032 32.8162 66.6202C32.8961 66.5371 33.0437 66.4234 33.1267 66.3496ZM33.1452 66.4418C33.1021 66.5471 33.0528 66.6498 32.9976 66.7493C32.933 66.8507 32.8654 66.9491 32.7978 67.0567C32.6594 67.2504 32.5149 67.441 32.3612 67.6255C32.2075 67.81 32.0538 67.9852 31.8754 68.1574C31.6971 68.3295 31.5342 68.4894 31.3436 68.6524L31.4481 68.2558C31.7832 68.8706 32.1122 69.5071 32.4288 70.1404C32.5887 70.4478 32.7363 70.7553 32.8961 71.0904L33.3542 72.0496L34.1505 73.7129L32.6133 72.6584C32.2751 72.4247 31.9216 72.1941 31.5741 71.9697C31.2267 71.7452 30.8762 71.5147 30.5258 71.3087C30.3505 71.2072 30.1753 71.1088 30.0062 71.0289C29.9357 70.9948 29.8627 70.966 29.7879 70.9428H29.7664C29.751 70.9428 29.7879 70.9428 29.8125 70.9428C29.847 70.9327 29.88 70.9183 29.9109 70.8998C29.9509 70.8694 29.9862 70.8331 30.0154 70.7922C30.0288 70.7679 30.0391 70.7421 30.0461 70.7153C30.0471 70.702 30.0471 70.6886 30.0461 70.6753C30.0508 70.651 30.0508 70.6259 30.0461 70.6016C30.0461 70.6016 30.0461 70.58 30.0461 70.5862L30.0646 70.6323C30.0742 70.6679 30.0887 70.7021 30.1076 70.7338C30.1485 70.8107 30.1947 70.8847 30.246 70.9551C30.3536 71.1027 30.4827 71.2626 30.6149 71.4009C31.1824 71.9992 31.8192 72.5276 32.5118 72.975C32.8614 73.2015 33.2284 73.3999 33.6094 73.5684L33.8984 73.6883L34.1782 73.759C34.2735 73.759 34.3688 73.759 34.4641 73.759C34.5603 73.7496 34.6558 73.7342 34.75 73.7129C35.5063 73.4854 36.0567 72.7905 36.358 72.0927C36.6593 71.3948 36.7761 70.6077 36.4625 70.0266C36.0388 69.3429 35.5213 68.722 34.9253 68.182C34.6178 67.893 34.3104 67.6009 34.0029 67.3211L33.5326 66.8938L33.2989 66.6816L33.179 66.574L33.1206 66.5218L33.0898 66.4941C33.0968 66.5014 33.1063 66.5057 33.1164 66.506C33.1265 66.5063 33.1363 66.5026 33.1436 66.4956C33.151 66.4887 33.1553 66.4792 33.1556 66.4691C33.1558 66.459 33.1521 66.4492 33.1452 66.4418Z" fill="#F43B00"/>
<path d="M32.2314 71.8159C32.0122 71.7622 31.8041 71.6706 31.6165 71.5454C31.4291 71.431 31.2644 71.283 31.1307 71.1088C31.0016 70.9274 30.9216 70.703 30.7894 70.5308C30.6505 70.357 30.4916 70.2002 30.316 70.0635C30.2221 69.9864 30.1375 69.8987 30.0639 69.8022C29.9677 69.6755 29.9139 69.5216 29.9102 69.3625C29.9128 69.3038 29.9242 69.2458 29.944 69.1904C29.9662 69.1373 29.994 69.0868 30.027 69.0397C30.1012 68.9477 30.2022 68.8811 30.316 68.8491C30.4771 68.8044 30.6483 68.8119 30.8048 68.8706C31.0346 68.9539 31.2442 69.0849 31.4197 69.2549C31.5932 69.4089 31.737 69.5933 31.844 69.7991C31.8461 69.8031 31.8473 69.8075 31.8477 69.8121C31.8481 69.8166 31.8475 69.8211 31.8461 69.8254C31.8446 69.8297 31.8423 69.8337 31.8393 69.8371C31.8363 69.8405 31.8327 69.8433 31.8286 69.8452C31.8252 69.8467 31.8215 69.8474 31.8178 69.8474C31.8141 69.8474 31.8105 69.8467 31.8071 69.8452C31.3551 69.753 30.9524 69.5747 30.6234 69.4978C30.5496 69.4763 30.4728 69.4732 30.4789 69.4671C30.4851 69.4609 30.5035 69.4486 30.5004 69.4363C30.4974 69.424 30.5004 69.4363 30.5004 69.4363C30.5004 69.4363 30.5004 69.4117 30.5004 69.4148C30.5004 69.4179 30.5004 69.507 30.5004 69.59C30.5222 69.687 30.55 69.7825 30.5835 69.876C30.6541 70.0773 30.7722 70.2587 30.9278 70.4048C31.1039 70.5334 31.2888 70.6495 31.4812 70.7522C31.6533 70.8786 31.8056 71.0298 31.9331 71.2011C32.0744 71.3761 32.1893 71.5708 32.2744 71.7791C32.2775 71.7872 32.2773 71.7963 32.2738 71.8043C32.2704 71.8123 32.264 71.8187 32.256 71.8221L32.2314 71.8159Z" fill="#F43B00"/>
<path opacity="0.2" d="M48.4805 75.8809C48.4805 75.8809 58.9336 93.1684 63.0717 105.279C67.2099 117.389 65.4575 118.717 64.9564 123.59C64.4552 128.463 59.7698 148.115 59.7698 148.115H53.0614C53.0614 148.115 58.0112 138.707 58.4539 134.845C58.8967 130.984 58.9612 130.981 59.7698 128.629C60.5784 126.277 59.6345 127.285 59.7698 124.764C59.9051 122.243 59.1303 123.756 59.7698 120.399C60.4093 117.041 58.1803 116.199 58.4539 112.67C58.7276 109.14 60.7352 105.952 58.2203 103.265C55.7054 100.578 53.7531 95.5419 54.3219 93.6972C54.8907 91.8526 52.0899 86.3186 51.89 85.6453C51.6902 84.972 48.4805 75.8809 48.4805 75.8809Z" fill="black"/>
<path opacity="0.2" d="M43.019 79.8965C43.019 79.8965 39.2098 99.8004 38.7732 112C38.3367 124.199 38.5549 141.228 40.4057 148.115H33.9863C33.9863 148.115 34.7457 148.798 34.7457 145.207C34.7457 141.616 34.2015 144.552 34.7457 141.613C35.2899 138.674 34.7457 137.803 34.6381 136.171C34.5305 134.538 35.1823 132.906 35.2899 130.185C35.3975 127.464 34.9517 127.353 34.9517 124.307C34.9517 121.26 34.8441 116.688 35.0624 113.531C35.2807 110.373 33.107 110.484 34.9517 104.062C36.7964 97.639 38.435 95.3332 38.4904 91.7638C38.5457 88.1944 37.2514 86.6449 43.019 79.8965Z" fill="black"/>
<path d="M49.3927 149.649L54.4876 149.661L54.5075 149.668C54.5762 149.694 54.6774 149.732 54.8077 149.781C55.0683 149.878 55.4452 150.018 55.9111 150.19C56.8427 150.534 58.1303 151.003 59.5545 151.507C62.3957 152.511 65.8041 153.661 68.007 154.211C69.0667 154.476 69.7426 154.771 70.148 155.045C70.5578 155.321 70.6286 155.53 70.6363 155.615C70.6433 155.694 70.6092 155.815 70.4392 155.954C70.2699 156.093 70.0147 156.203 69.739 156.237C69.065 156.321 64.1266 156.459 59.1956 156.326C56.7366 156.259 54.3029 156.126 52.4234 155.887C51.4815 155.768 50.6971 155.624 50.1243 155.456C49.8374 155.372 49.6206 155.286 49.4692 155.203C49.3132 155.118 49.2747 155.062 49.2729 155.059C49.2729 155.059 49.2728 155.059 49.2729 155.059C49.0549 154.657 48.9395 154.109 48.9077 153.475C48.8762 152.847 48.9284 152.174 49.0152 151.548C49.1017 150.923 49.2211 150.357 49.319 149.946C49.3456 149.835 49.3705 149.735 49.3927 149.649Z" fill="black" stroke="#F43B00"/>
<path d="M30.9314 149.946C30.958 149.834 30.9829 149.735 31.0051 149.648H36.0906L36.1099 149.656C36.1787 149.682 36.28 149.72 36.4104 149.769C36.6713 149.866 37.0486 150.007 37.5148 150.18C38.4473 150.524 39.7362 150.995 41.1615 151.501C44.005 152.508 47.4158 153.661 49.6189 154.211C50.6786 154.476 51.3551 154.771 51.7611 155.045C52.1716 155.321 52.2431 155.53 52.251 155.616C52.2581 155.695 52.2245 155.815 52.0549 155.954C51.886 156.093 51.6307 156.203 51.3541 156.237C50.6785 156.321 45.7385 156.459 40.8067 156.326C38.3474 156.259 35.9135 156.126 34.0341 155.887C33.0922 155.768 32.308 155.624 31.7354 155.456C31.4486 155.372 31.2319 155.286 31.0808 155.203C30.9261 155.119 30.8873 155.063 30.8852 155.06C30.8851 155.06 30.885 155.06 30.8851 155.06C30.6677 154.657 30.5526 154.109 30.5209 153.475C30.4896 152.847 30.5416 152.174 30.6283 151.548C30.7146 150.923 30.8337 150.357 30.9314 149.946Z" fill="black" stroke="#F43B00"/>
</g>
<defs>
<clipPath id="clip0_962_385878">
<rect width="141.861" height="164.864" fill="white" transform="translate(15.582 3.92383)"/>
</clipPath>
</defs>
</svg>
