<svg width="170" height="171" viewBox="0 0 170 171" fill="none" xmlns="http://www.w3.org/2000/svg">
<g clip-path="url(#clip0_962_385918)">
<path d="M85.84 162.249C73.0447 162.709 59.5182 162.895 46.6498 162.466H46.3817V162.213C46.4426 159.242 46.4731 155.986 46.4518 153.006C46.4183 150.337 46.3848 146.505 46.3086 143.8V143.474H46.6498C57.9828 143.215 69.5717 143.099 80.9047 143.196C81.0448 143.212 86.3305 143.257 86.3549 143.266C86.3701 143.367 86.2513 148.238 86.2574 148.5C86.1386 152.765 85.9924 157.996 85.84 162.264V162.249ZM85.7547 162.161C85.5567 156.982 85.3495 148.921 85.249 143.794L85.7974 144.342L80.9047 144.403C69.5717 144.5 57.9828 144.388 46.6498 144.126L46.9819 143.794C46.9605 146.514 46.8204 150.316 46.8387 153C46.8387 155.983 46.8387 159.233 46.9088 162.207L46.6498 161.945L56.3407 161.731C66.1596 161.616 75.8932 161.875 85.7547 162.176V162.161Z" fill="#F43B00"/>
<path d="M60.7631 62.4646L78.8807 61.578C78.8807 61.578 112.749 60.4508 117.023 72.6917C121.297 84.9325 124.03 110.383 124.03 110.383L109.583 112.302C109.583 112.302 107.375 88.5183 104.295 81.557C101.132 74.4069 78.3292 77.9012 78.3292 77.9012C78.3292 77.9012 79.0817 86.6325 77.2995 99.1049C75.9438 108.592 69.8447 132.041 69.8447 132.041L52.8574 134.313C52.8574 134.313 62.0579 97.8863 62.1249 95.0957C62.8591 65.2186 60.7631 62.4646 60.7631 62.4646Z" fill="#F43B00"/>
<path d="M38.5556 49.1275C36.5297 39.2447 42.1809 29.0206 50.6076 23.9177C54.6625 21.4957 57.581 21.1515 62.1843 21.9771C64.1371 22.297 66.0503 22.7936 67.9452 23.0769C69.6939 23.3358 71.7351 23.3815 72.8501 21.84C73.0654 21.473 73.2207 21.0739 73.3101 20.658C73.7062 19.1895 73.9834 17.6785 74.2454 16.1735V16.1522C74.2327 16.2336 74.2466 16.3169 74.285 16.3898C74.3288 16.4641 74.3949 16.5227 74.4739 16.5574C73.5599 16.2314 72.7282 15.6434 72.3779 14.6655C72.1937 14.0926 72.1755 13.4792 72.3254 12.8964C72.4752 12.3136 72.7871 11.7852 73.2248 11.3722C74.1388 10.574 75.3878 10.6136 76.4571 10.9457C76.3749 10.9235 76.2876 10.9291 76.2088 10.9616C76.13 10.9941 76.0642 11.0517 76.0215 11.1254L76.0459 11.0858C76.9933 9.6814 78.9065 9.01726 80.5425 8.97156C81.6149 8.93805 82.6415 8.48412 83.589 7.97231C83.6675 7.92712 83.753 7.89521 83.8419 7.87787C83.9446 7.86131 84.0498 7.86837 84.1495 7.89853C84.2491 7.92868 84.3405 7.98112 84.4169 8.05189C84.4932 8.12265 84.5525 8.20987 84.5901 8.30693C84.6277 8.404 84.6427 8.50835 84.634 8.61208C84.5599 9.67703 84.3553 10.7288 84.0247 11.7439C83.3301 13.3128 84.6492 14.2542 85.9104 14.9153C86.3278 15.156 86.6507 15.7957 86.1999 16.2009C85.3651 16.8255 84.311 16.3045 83.4275 16.3289C83.2996 16.3532 83.2387 16.3563 83.1869 16.4568C83.0833 16.7615 83.3026 17.2763 83.4336 17.5932C83.6134 18.1811 82.9553 18.4828 82.5197 18.2634C81.3712 17.7516 80.3871 16.926 79.2691 16.3746H79.2508H79.3117H79.3391C79.3942 16.3443 79.4356 16.2942 79.4549 16.2344C79.4701 16.1369 79.4549 16.1887 79.4762 16.2344C80.1465 17.3738 81.2706 18.367 82.2638 19.2352C82.337 19.2695 82.4005 19.3213 82.4489 19.386C82.4972 19.4507 82.5288 19.5264 82.5409 19.6063C82.5529 19.6862 82.5451 19.7678 82.518 19.8439C82.4909 19.92 82.4454 19.9882 82.3856 20.0426C82.0318 20.3412 81.7954 20.7558 81.7185 21.2124C81.7008 21.317 81.6712 21.4193 81.6301 21.5171C81.0817 22.4767 79.8174 21.84 79.135 21.4348C78.3204 20.917 77.5993 20.265 77.0025 19.5064C77.011 19.5155 77.0217 19.5222 77.0335 19.526C77.0454 19.5298 77.058 19.5305 77.0702 19.5281C77.0824 19.5257 77.0938 19.5201 77.1032 19.5121C77.1127 19.504 77.12 19.4937 77.1243 19.482V19.5094C76.8646 20.5635 76.7447 21.6472 76.7679 22.7326C76.735 23.1672 76.8085 23.6032 76.9821 24.0029C77.1557 24.4026 77.4241 24.754 77.7641 25.0266C78.7116 25.7822 79.9454 26.0716 81.097 26.4402C82.8908 26.9939 84.6312 27.7076 86.2974 28.5728C89.0971 29.9315 90.9463 32.7008 93.2525 34.6932C94.0416 35.3604 94.9129 36.0367 95.967 36.1098C98.0812 36.2865 103.215 25.9406 104.354 23.8568C104.793 22.9794 105.548 21.5201 105.975 20.6366L106.002 20.5848V20.5574V20.5391C106.289 20.6214 105.372 20.3289 106.66 20.6976L106.401 20.3564L112.19 21.8034L112.494 21.8766V22.2025C112.484 22.2936 112.458 22.3823 112.418 22.4645L112.369 22.5925L112.266 22.8393C109.542 29.176 106.618 35.4701 102.992 41.3559C101.792 43.1838 100.631 45.0787 98.7911 46.3857C98.0999 46.7827 97.3262 47.0142 96.5306 47.062C93.5998 47.2966 90.7696 46.7574 87.9486 46.1085C86.8916 45.8569 85.8516 45.5384 84.835 45.1549C84.4345 45.0097 84.0585 44.8042 83.72 44.5456C83.6365 44.4727 83.5645 44.3874 83.5068 44.2927C83.5661 44.3949 83.6632 44.4698 83.7771 44.5011C83.8911 44.5324 84.0128 44.5178 84.1161 44.4603C84.2196 44.4237 84.3263 44.2379 84.2653 44.3323C84.0125 44.771 83.784 45.228 83.5677 45.6911C81.2584 50.8701 80.2775 56.5427 79.659 62.1422L79.6438 62.2732V62.3067C79.6215 62.5101 79.5255 62.6983 79.374 62.8358C79.2224 62.9733 79.0258 63.0506 78.8212 63.0531C74.0931 63.1079 66.7967 63.0988 62.0472 63.1323C61.8575 63.1534 61.6656 63.1217 61.4927 63.0409C61.3815 62.9773 61.286 62.8895 61.2132 62.7841C61.1405 62.6786 61.0923 62.5582 61.0723 62.4316C60.9748 62.0813 60.8834 61.7309 60.8012 61.3836C58.9062 52.9814 59.0586 44.1861 60.5452 35.7625C60.5404 35.7969 60.5404 35.8317 60.5452 35.8661C60.5558 35.9337 60.583 35.9975 60.6245 36.0519C60.659 36.0971 60.7025 36.1344 60.7524 36.1616C60.8621 36.2043 60.7737 36.1616 60.6823 36.1616C60.5713 36.1186 60.4729 36.0484 60.396 35.9575C59.5635 35.1614 58.5323 34.6037 57.4104 34.3429C55.4286 33.8636 53.3393 34.1417 51.552 35.1228C45.9586 38.3734 43.4665 45.0605 42.9486 51.2692L42.7476 51.1687L38.5556 49.1275ZM38.65 49.0544L42.8847 50.8823L42.6623 51.0133C43.0522 44.5547 45.6753 37.4351 51.686 34.221C54.6564 32.7526 58.6442 32.9476 61.0906 35.3452L61.1149 35.3726C61.0878 35.3405 61.0533 35.3154 61.0144 35.2995C61.0144 35.2995 61.0144 35.2812 61.1942 35.3604C61.293 35.4152 61.373 35.4987 61.4235 35.5998C61.4741 35.701 61.4929 35.815 61.4775 35.927V35.9727L61.4592 36.1007C60.0669 44.7071 60.0669 53.6638 62.2726 62.1209L62.3092 62.2427C62.2839 62.1575 62.2339 62.0817 62.1656 62.0248C62.0973 61.9678 62.0137 61.9324 61.9253 61.9229H62.0563C66.7662 61.868 74.0382 61.8162 78.7298 61.7797H78.8304C78.7257 61.7842 78.6251 61.8216 78.543 61.8868C78.461 61.9519 78.4016 62.0413 78.3734 62.1422C78.7241 58.4715 79.3669 54.8347 80.2957 51.2662C81.0178 48.6584 81.8891 46.0536 83.2417 43.6926C83.3313 43.5431 83.4673 43.427 83.6291 43.3621C83.7908 43.2972 83.9693 43.287 84.1374 43.3331C84.3335 43.393 84.4999 43.5247 84.6035 43.7017C84.57 43.6469 84.5548 43.6408 84.5639 43.6438C84.6586 43.7163 84.7608 43.7786 84.8685 43.8297C87.2265 44.8502 89.813 45.3529 92.3477 45.752C93.7 45.9598 95.0708 46.0201 96.4361 45.9318C97.0556 45.9019 97.6605 45.7332 98.2061 45.4382C99.833 44.2745 100.969 42.4466 102.1 40.7771C105.755 34.9887 108.717 28.7556 111.544 22.5285L111.647 22.2878L111.699 22.169L111.72 22.1111V22.0868C111.712 22.1186 111.706 22.1513 111.705 22.1843L112.01 22.5833L106.249 21.0235L105.99 20.6793C107.273 21.054 106.352 20.7707 106.636 20.8621C105.216 23.5217 98.7667 36.3535 96.1985 36.5394C93.2708 36.6308 90.0598 31.4791 87.6683 29.8036C85.685 28.3748 83.2874 27.5309 80.966 26.7814C79.7717 26.4098 78.5013 26.1203 77.4808 25.3191C77.0893 25.0082 76.7777 24.6081 76.5721 24.1524C76.3665 23.6967 76.2728 23.1984 76.2987 22.6991C76.2682 21.5717 76.3849 20.4451 76.646 19.348C76.6606 19.2712 76.6965 19.2002 76.7497 19.143C76.8029 19.0858 76.8712 19.0449 76.9466 19.0248C77.0221 19.0047 77.1017 19.0064 77.1763 19.0296C77.2508 19.0528 77.3173 19.0967 77.368 19.156C77.5711 19.3876 77.7743 19.61 77.9773 19.8232C78.5964 20.4675 79.3464 20.9713 80.1769 21.3008C80.512 21.3922 80.9081 21.514 81.0909 21.2277C81.1758 20.6011 81.4713 20.0221 81.9287 19.5856L81.9652 19.5521C81.9488 19.5675 81.9362 19.5865 81.9283 19.6077C81.9205 19.6288 81.9176 19.6515 81.92 19.6739C81.9224 19.6963 81.9299 19.7179 81.9419 19.7369C81.954 19.7559 81.9703 19.7719 81.9896 19.7836C81.6671 19.5497 81.3617 19.2931 81.0756 19.0159C80.5821 18.501 77.9073 16.3045 79.0406 15.7043C79.4427 15.5215 79.8113 15.8414 80.1495 16.009C81.0239 16.4964 81.9926 17.1819 82.8548 17.5322C82.8386 17.5317 82.8224 17.5343 82.8072 17.5401C82.7921 17.5458 82.7782 17.5546 82.7665 17.5658C82.7274 17.5972 82.6988 17.6397 82.6842 17.6876C82.6647 17.7439 82.6647 17.805 82.6842 17.8613V17.8369L82.6629 17.7912L82.6233 17.6998L82.5471 17.514C82.2059 16.7432 82.2425 15.6129 83.324 15.485C84.1039 15.3875 84.9112 15.7896 85.5997 15.5459C85.5635 15.5827 85.5418 15.6314 85.5388 15.683C85.5327 15.708 85.5327 15.7342 85.5388 15.7592C85.5043 15.7181 85.4631 15.683 85.4169 15.6556C84.372 15.1255 83.2234 14.3913 82.9279 13.1239C82.8178 12.556 82.8717 11.9685 83.0833 11.4301C83.3623 10.5036 83.5401 9.54951 83.6134 8.58466C83.6194 8.63918 83.6381 8.69154 83.668 8.73751C83.6979 8.78349 83.7382 8.8218 83.7856 8.84936C83.833 8.87693 83.8862 8.89297 83.941 8.89621C83.9957 8.89944 84.0505 8.88977 84.1008 8.86798L83.9333 8.96243C83.0231 9.49845 82.0191 9.85619 80.9751 10.0165C80.2805 10.0187 79.5905 10.1308 78.9309 10.3486C78.21 10.5723 77.5613 10.9834 77.0512 11.5398C77.0268 11.5733 77.0116 11.6068 76.9872 11.6403L76.9629 11.6799C76.9118 11.768 76.8424 11.844 76.7593 11.9029C76.6763 11.9618 76.5815 12.0021 76.4815 12.0211C76.3356 12.0445 76.186 12.0276 76.0489 11.9724C75.6967 11.8655 75.3291 11.8181 74.9613 11.8322C73.7214 11.8079 73.0786 13.2702 73.4045 14.3182C73.5934 14.897 74.2088 15.3327 74.7907 15.5368C74.8502 15.5559 74.9074 15.5814 74.9613 15.6129C75.0958 15.6926 75.2006 15.8139 75.26 15.9585C75.3194 16.103 75.33 16.263 75.2903 16.4142C75.1045 17.4469 74.9065 18.4736 74.681 19.5003C74.4464 20.4386 74.2728 21.4104 73.8097 22.2817C73.476 22.7736 73.0447 23.1916 72.5426 23.5097C72.0406 23.8278 71.4784 24.0393 70.8912 24.131C67.8447 24.5209 64.9444 23.345 62.0319 22.9124C60.1492 22.6077 58.236 22.3031 56.338 22.5894C52.5725 23.2444 49.1757 25.4897 46.4003 28.0731C40.7369 33.3741 37.3949 41.2736 38.6592 49.0575L38.65 49.0544Z" fill="#F43B00"/>
<path d="M84.7857 8.36525C85.4866 7.79347 86.0604 7.08165 86.4704 6.27535C87.2259 4.7521 87.689 4.17022 82.0743 4.52056C77.011 4.8374 73.2547 3.84119 71.8289 6.24184C70.4031 8.64248 72.1335 9.6722 70.4641 11.9662C68.7946 14.2602 70.8479 16.1095 71.5669 16.5756C72.2859 17.0417 74.2021 18.0288 74.0041 18.961L74.7779 16.2405C74.2432 16.1703 73.7507 15.913 73.3877 15.5143C73.0246 15.1155 72.8145 14.6011 72.7946 14.0622C72.6819 12.0972 74.3727 10.2754 76.2402 11.5428C76.2402 11.5428 77.2913 9.97076 78.9608 9.71485C80.6302 9.45895 83.4757 9.16039 84.7857 8.36525Z" fill="black"/>
<path d="M84.7526 8.31605C85.7125 7.51481 86.4001 6.43547 86.7206 5.2269C86.8425 4.55057 85.0725 4.7882 84.6338 4.78515C82.4707 4.99841 80.2681 5.27869 78.096 5.21471C76.2467 5.30611 73.6663 4.91006 72.466 6.36934C72.0934 6.86951 71.8591 7.45897 71.7866 8.07842C71.7166 8.78217 71.8567 9.52247 71.7318 10.2719C71.5854 11.0644 71.2251 11.8019 70.6899 12.4045C69.8125 13.5042 70.1537 14.9635 71.1225 15.9171C71.8872 16.6939 72.9717 17.0626 73.7212 17.879C73.8845 18.0157 74.0123 18.1899 74.0934 18.3867C74.1746 18.5836 74.2068 18.7972 74.1873 19.0093L73.8126 18.9148C74.0654 18.0009 74.2939 17.0869 74.5133 16.173L74.7418 16.5172C71.808 16.2613 71.5368 12.0846 73.9558 10.8294C74.3689 10.6347 74.8285 10.5601 75.282 10.6139C75.7356 10.6678 76.1648 10.848 76.5209 11.1341L75.8141 11.2712C75.9476 11.0948 76.0932 10.9278 76.2498 10.7715C76.9867 9.98345 77.9873 9.49343 79.0617 9.39452L80.2346 9.30617C81.7579 9.15993 83.3816 9.06854 84.7526 8.32824V8.31605ZM84.8196 8.41659C83.4243 9.16603 81.8249 9.38233 80.2986 9.73877L79.1531 9.98554C78.102 10.1988 77.2338 10.9635 76.658 11.8134L76.396 12.2217L75.9512 11.9505C75.7339 11.792 75.4785 11.6938 75.2109 11.666C74.9434 11.6381 74.6732 11.6817 74.428 11.7921C72.8346 12.6756 72.7067 15.5637 74.7935 15.9628L75.1165 16.0298C74.7844 17.0169 74.4676 18.007 74.1751 19.0062L73.8004 18.9118C73.8674 17.9004 71.9512 17.1326 71.2261 16.6056C69.6876 15.5698 68.8803 13.6078 69.9587 11.9201C70.1509 11.6349 70.321 11.3355 70.4675 11.0244C70.9367 10.0099 70.5924 9.19649 70.6564 7.97789C70.7124 7.25423 70.9356 6.55344 71.3083 5.93064C72.6976 3.61834 75.808 3.92299 78.1112 3.94432C79.5674 3.98697 80.981 4.00525 82.4281 3.99002C83.5371 3.97257 84.6459 4.0357 85.7457 4.1789C86.748 4.32818 87.5157 4.72727 86.8516 5.83315C86.3723 6.82977 85.6833 7.71103 84.8318 8.41659H84.8196Z" fill="#F43B00"/>
<path d="M82.02 13.1239C82.02 13.1239 82.803 12.9198 82.3247 12.4171C81.9439 12.0059 80.6735 11.5854 79.8601 11.8627C79.0466 12.1399 80.445 13.3189 82.02 13.1239Z" fill="black" stroke="#F43B00" stroke-width="0.30465" stroke-miterlimit="10" stroke-linecap="round"/>
<path d="M81.209 13.0022C81.209 13.0022 80.9043 12.53 81.5136 11.9512L81.209 13.0022Z" fill="black"/>
<path d="M81.209 13.0022C81.209 13.0022 80.9043 12.53 81.5136 11.9512" stroke="#F43B00" stroke-width="0.30465" stroke-miterlimit="10" stroke-linecap="round"/>
<path d="M112.472 112.517C112.523 112.338 112.569 112.183 112.606 112.061L120.346 111.031L120.348 111.031L120.487 111.039C120.61 111.046 120.79 111.056 121.019 111.069C121.478 111.095 122.134 111.134 122.925 111.184C124.506 111.284 126.621 111.429 128.761 111.608C130.903 111.786 133.061 111.998 134.732 112.231C135.568 112.348 136.271 112.469 136.783 112.592C137.041 112.653 137.236 112.712 137.372 112.765C137.44 112.792 137.483 112.813 137.507 112.828C137.507 112.828 137.507 112.828 137.507 112.828C137.582 112.93 137.623 112.998 137.643 113.045C137.623 113.062 137.589 113.089 137.533 113.122C137.401 113.2 137.187 113.292 136.855 113.395C135.508 113.811 132.648 114.27 126.997 114.941C121.913 115.543 118.544 116.038 116.282 116.37C115.759 116.447 115.295 116.516 114.882 116.574C113.777 116.732 113.069 116.818 112.585 116.829C112.125 116.84 111.95 116.779 111.854 116.716C111.847 116.704 111.828 116.669 111.81 116.588C111.78 116.454 111.767 116.259 111.776 116.007C111.795 115.504 111.9 114.869 112.038 114.23C112.175 113.595 112.34 112.977 112.472 112.517ZM137.521 112.837C137.521 112.837 137.52 112.837 137.519 112.836C137.52 112.837 137.521 112.837 137.521 112.837Z" fill="black" stroke="#F43B00"/>
<path d="M70.7887 25.3284C70.65 25.1388 70.5342 24.9341 70.4435 24.7186C70.5415 24.8208 70.6387 24.9231 70.7357 25.0252C71.2513 25.568 71.7603 26.1039 72.361 26.5635C72.2944 26.5345 72.2284 26.5043 72.1631 26.473C71.6088 26.2068 71.1257 25.8603 70.7944 25.3369L70.7947 25.3367L70.7887 25.3284ZM73.9286 27.1223C73.8851 27.1075 73.8416 27.0929 73.7979 27.0783C74.4212 27.1286 75.0532 27.025 75.6704 26.8518C76.3315 26.6663 76.994 26.3946 77.618 26.1388C77.7301 26.0929 77.8409 26.0474 77.9503 26.0031C76.8767 26.9869 75.326 27.5289 73.9286 27.1223Z" fill="#F43B00" stroke="#F43B00" stroke-width="0.30465"/>
<mask id="path-11-inside-1_962_385918" fill="white">
<path d="M107.747 20.9657C107.747 20.9657 106.76 19.3815 106.915 17.9192C107.07 16.4569 109.352 17.9192 110.211 18.9733C111.07 20.0274 110.181 20.2102 108.112 18.7174"/>
</mask>
<path d="M107.747 20.9657C107.747 20.9657 106.76 19.3815 106.915 17.9192C107.07 16.4569 109.352 17.9192 110.211 18.9733C111.07 20.0274 110.181 20.2102 108.112 18.7174" fill="black"/>
<path d="M107.747 20.9657C108.005 20.8046 108.005 20.8046 108.005 20.8047C108.005 20.8047 108.005 20.8047 108.005 20.8048C108.005 20.8048 108.005 20.8048 108.005 20.8048C108.005 20.8048 108.005 20.8046 108.005 20.8044C108.005 20.804 108.004 20.8032 108.004 20.802C108.002 20.7996 108 20.7958 107.997 20.7905C107.99 20.78 107.981 20.7638 107.968 20.7423C107.944 20.6993 107.908 20.6353 107.865 20.5535C107.778 20.3897 107.665 20.1563 107.556 19.8794C107.336 19.3186 107.148 18.6111 107.218 17.9514L106.612 17.887C106.527 18.6896 106.755 19.5053 106.989 20.1022C107.108 20.4041 107.231 20.6581 107.325 20.8371C107.372 20.9267 107.412 20.9979 107.441 21.0472C107.455 21.0719 107.467 21.0911 107.475 21.1045C107.479 21.1112 107.482 21.1165 107.484 21.1202C107.485 21.1221 107.486 21.1235 107.487 21.1246C107.487 21.1252 107.487 21.1257 107.488 21.126C107.488 21.1262 107.488 21.1263 107.488 21.1265C107.488 21.1265 107.488 21.1266 107.488 21.1267C107.488 21.1267 107.488 21.1268 107.747 20.9657ZM107.218 17.9514C107.233 17.8086 107.271 17.7325 107.303 17.6926C107.332 17.6564 107.372 17.6305 107.437 17.6169C107.588 17.5853 107.84 17.6298 108.174 17.7803C108.826 18.0744 109.574 18.6733 109.975 19.1657L110.447 18.7808C109.99 18.2191 109.167 17.5599 108.425 17.2249C108.061 17.0608 107.66 16.948 107.312 17.0205C107.128 17.059 106.958 17.1505 106.829 17.3102C106.703 17.4661 106.636 17.6642 106.612 17.887L107.218 17.9514ZM109.975 19.1657C110.074 19.287 110.141 19.3879 110.183 19.4673C110.226 19.5507 110.232 19.5919 110.232 19.5988C110.232 19.5997 110.232 19.5862 110.24 19.5653C110.25 19.5426 110.265 19.5223 110.284 19.508C110.316 19.4833 110.327 19.4973 110.267 19.4958C110.148 19.4929 109.918 19.4328 109.568 19.2616C109.226 19.0949 108.798 18.8364 108.291 18.4703L107.934 18.9644C108.461 19.3447 108.92 19.6232 109.3 19.8091C109.672 19.9906 109.998 20.0987 110.252 20.105C110.379 20.1081 110.531 20.0868 110.656 19.9902C110.797 19.8818 110.846 19.7239 110.841 19.577C110.836 19.4419 110.787 19.3075 110.723 19.1849C110.656 19.0585 110.563 18.9231 110.447 18.7808L109.975 19.1657Z" fill="#F43B00" mask="url(#path-11-inside-1_962_385918)"/>
<path d="M107.723 20.9829C106.94 20.1939 106.115 18.241 107.065 17.3271C107.403 17.1077 107.824 17.2327 108.162 17.3271C108.846 17.5347 109.479 17.8811 110.023 18.3446C110.399 18.6283 110.684 19.0159 110.843 19.4596C110.986 20.139 110.27 20.2456 109.801 20.0233C109.146 19.7323 108.564 19.3006 108.095 18.759L108.131 18.7102C108.853 18.9844 109.548 19.4536 110.304 19.4962C110.267 19.5109 110.237 19.5393 110.221 19.5754C110.203 19.6242 110.221 19.6211 110.221 19.6028C110.213 19.5715 110.201 19.541 110.188 19.5114C109.944 18.9235 107.51 16.4832 107.141 17.778C107.141 18.8625 107.473 19.8618 107.796 20.9616L107.745 20.992L107.723 20.9829Z" fill="#F43B00"/>
<mask id="path-14-inside-2_962_385918" fill="white">
<path d="M111.031 22.0159C111.031 22.0159 113.307 18.878 112.801 16.4834C112.612 15.5847 112.244 15.6913 111.887 16.1788C111.312 17.0044 110.794 18.9206 111.278 19.0364C112.043 19.2435 112.466 17.5131 112.466 17.5131"/>
</mask>
<path d="M111.031 22.0159C111.031 22.0159 113.307 18.878 112.801 16.4834C112.612 15.5847 112.244 15.6913 111.887 16.1788C111.312 17.0044 110.794 18.9206 111.278 19.0364C112.043 19.2435 112.466 17.5131 112.466 17.5131" fill="#F43B00"/>
<path d="M112.801 16.4834L112.503 16.5461L112.503 16.5464L112.801 16.4834ZM111.887 16.1788L111.641 15.9989L111.637 16.0045L111.887 16.1788ZM111.278 19.0364L111.358 18.7422L111.349 18.7401L111.278 19.0364ZM111.031 22.0159C111.278 22.1947 111.278 22.1947 111.278 22.1946C111.278 22.1945 111.278 22.1944 111.278 22.1944C111.278 22.1942 111.278 22.194 111.279 22.1937C111.279 22.1932 111.28 22.1924 111.28 22.1915C111.281 22.1897 111.283 22.1871 111.286 22.1838C111.29 22.1771 111.297 22.1675 111.306 22.1551C111.324 22.1302 111.349 22.0939 111.38 22.0471C111.444 21.9536 111.533 21.8183 111.638 21.6486C111.848 21.3097 112.123 20.8319 112.382 20.2764C112.893 19.1811 113.374 17.7201 113.099 16.4205L112.503 16.5464C112.734 17.6413 112.33 18.9465 111.83 20.0188C111.583 20.5471 111.321 21.0034 111.12 21.3277C111.02 21.4896 110.935 21.6181 110.876 21.7056C110.846 21.7493 110.823 21.7828 110.807 21.805C110.8 21.8161 110.794 21.8244 110.79 21.8298C110.788 21.8325 110.786 21.8344 110.786 21.8356C110.785 21.8362 110.785 21.8367 110.785 21.8369C110.785 21.837 110.785 21.8371 110.785 21.8371C110.785 21.8371 110.785 21.8371 110.785 21.8371C110.785 21.837 110.785 21.837 111.031 22.0159ZM113.099 16.4208C113.049 16.1803 112.981 15.98 112.889 15.8289C112.795 15.6759 112.654 15.5411 112.454 15.5102C112.261 15.4804 112.093 15.5606 111.973 15.649C111.851 15.7392 111.74 15.8644 111.641 15.9989L112.133 16.3586C112.213 16.2494 112.282 16.1785 112.335 16.1397C112.39 16.0991 112.393 16.1174 112.361 16.1124C112.321 16.1062 112.33 16.0828 112.369 16.1474C112.41 16.2137 112.459 16.3372 112.503 16.5461L113.099 16.4208ZM111.637 16.0045C111.321 16.4586 111.035 17.1833 110.889 17.8037C110.815 18.1141 110.771 18.4222 110.784 18.6725C110.79 18.7963 110.811 18.9291 110.867 19.0455C110.925 19.1689 111.034 19.2912 111.207 19.3327L111.349 18.7401C111.401 18.7526 111.42 18.7897 111.416 18.783C111.41 18.7692 111.396 18.7268 111.392 18.6417C111.384 18.4744 111.414 18.2302 111.482 17.9438C111.617 17.3707 111.878 16.7245 112.137 16.353L111.637 16.0045ZM111.198 19.3304C111.522 19.4181 111.795 19.2883 111.991 19.1118C112.18 18.941 112.325 18.7043 112.432 18.4877C112.541 18.2664 112.623 18.0415 112.678 17.8744C112.705 17.7902 112.726 17.7193 112.74 17.6689C112.747 17.6436 112.752 17.6235 112.756 17.6093C112.758 17.6022 112.759 17.5966 112.76 17.5926C112.761 17.5906 112.761 17.589 112.762 17.5878C112.762 17.5873 112.762 17.5868 112.762 17.5864C112.762 17.5862 112.762 17.586 112.762 17.5859C112.762 17.5858 112.762 17.5857 112.762 17.5857C112.762 17.5856 112.762 17.5855 112.466 17.5131C112.17 17.4407 112.17 17.4407 112.17 17.4406C112.17 17.4406 112.17 17.4406 112.17 17.4405C112.17 17.4405 112.17 17.4405 112.17 17.4405C112.17 17.4405 112.17 17.4407 112.17 17.4409C112.17 17.4414 112.17 17.4423 112.17 17.4435C112.169 17.4461 112.168 17.4502 112.166 17.4557C112.164 17.4668 112.159 17.4836 112.153 17.5053C112.141 17.5487 112.123 17.6113 112.098 17.6861C112.049 17.837 111.978 18.0318 111.886 18.2172C111.792 18.4072 111.687 18.5644 111.582 18.6598C111.483 18.7494 111.416 18.7582 111.358 18.7423L111.198 19.3304Z" fill="#F43B00" mask="url(#path-14-inside-2_962_385918)"/>
<path d="M111.007 21.9981C111.366 21.1543 111.887 19.9905 112.244 19.1405C112.479 18.6811 112.648 18.1909 112.746 17.6843C112.834 17.1817 112.767 16.6644 112.555 16.2006C112.506 16.0971 112.421 16.0148 112.393 16.0209C111.86 16.5358 111.659 17.4223 111.479 18.1352C111.423 18.3425 111.403 18.5577 111.418 18.7719C111.418 18.8054 111.418 18.8084 111.397 18.7719C111.376 18.7353 111.397 18.7719 111.418 18.7719C111.491 18.7768 111.564 18.7552 111.622 18.711C111.981 18.367 112.263 17.9519 112.451 17.4924H112.509C112.499 18.0643 112.296 18.6162 111.933 19.0583C111.827 19.176 111.685 19.2551 111.529 19.2832C111.372 19.3113 111.212 19.2869 111.071 19.2136C110.407 18.6348 111.071 17.0537 111.415 16.4169C111.631 16.0605 112.024 15.3903 112.561 15.6035C112.715 15.7026 112.824 15.8578 112.865 16.0361C112.98 16.5715 113.008 17.1216 112.951 17.666C112.932 18.2082 112.859 18.7472 112.731 19.2746C112.412 20.3076 111.839 21.2441 111.065 21.9981L111.016 21.9616L111.007 21.9981Z" fill="#F43B00"/>
<mask id="path-17-inside-3_962_385918" fill="white">
<path d="M111.946 15.436C111.922 15.3588 111.879 15.2886 111.822 15.2312C111.764 15.1739 111.694 15.131 111.617 15.1063C111.54 15.0816 111.458 15.0756 111.378 15.089C111.298 15.1024 111.222 15.1346 111.157 15.1831C110.581 15.5183 109.543 18.4429 110.313 18.4673C111.084 18.4916 111.358 17.3279 111.358 17.3279"/>
</mask>
<path d="M111.946 15.436C111.922 15.3588 111.879 15.2886 111.822 15.2312C111.764 15.1739 111.694 15.131 111.617 15.1063C111.54 15.0816 111.458 15.0756 111.378 15.089C111.298 15.1024 111.222 15.1346 111.157 15.1831C110.581 15.5183 109.543 18.4429 110.313 18.4673C111.084 18.4916 111.358 17.3279 111.358 17.3279" fill="#F43B00"/>
<path d="M111.157 15.1831L111.311 15.4464L111.326 15.4377L111.34 15.4272L111.157 15.1831ZM112.237 15.3433C112.197 15.2198 112.129 15.1076 112.037 15.0159L111.606 15.4465C111.629 15.4695 111.646 15.4977 111.656 15.5287L112.237 15.3433ZM112.037 15.0159C111.946 14.9242 111.833 14.8557 111.71 14.8162L111.524 15.3964C111.555 15.4063 111.583 15.4235 111.606 15.4465L112.037 15.0159ZM111.71 14.8162C111.586 14.7766 111.455 14.7671 111.328 14.7885L111.428 15.3895C111.46 15.3841 111.493 15.3865 111.524 15.3964L111.71 14.8162ZM111.328 14.7885C111.2 14.8099 111.079 14.8615 110.975 14.939L111.34 15.4272C111.366 15.4078 111.396 15.3948 111.428 15.3895L111.328 14.7885ZM111.004 14.9198C110.877 14.9939 110.767 15.1175 110.678 15.2396C110.584 15.3682 110.491 15.5246 110.403 15.6943C110.228 16.0341 110.061 16.4493 109.939 16.8533C109.818 17.2524 109.732 17.665 109.734 17.9931C109.736 18.1539 109.758 18.3294 109.836 18.4762C109.925 18.6439 110.086 18.7649 110.304 18.7718L110.323 18.1628C110.326 18.1629 110.34 18.1646 110.357 18.1758C110.373 18.1861 110.377 18.1953 110.374 18.1896C110.363 18.1705 110.345 18.1109 110.344 17.9888C110.342 17.7512 110.408 17.4072 110.522 17.0301C110.635 16.6581 110.788 16.2778 110.945 15.9742C111.023 15.8222 111.1 15.6949 111.17 15.5994C111.245 15.4972 111.294 15.4562 111.311 15.4464L111.004 14.9198ZM110.304 18.7718C110.866 18.7896 111.21 18.3706 111.389 18.0581C111.484 17.8929 111.549 17.7295 111.591 17.6093C111.612 17.5486 111.628 17.4975 111.638 17.4609C111.643 17.4425 111.647 17.4277 111.65 17.417C111.651 17.4117 111.653 17.4073 111.653 17.4041C111.654 17.4025 111.654 17.4011 111.654 17.4001C111.654 17.3995 111.655 17.3991 111.655 17.3987C111.655 17.3985 111.655 17.3983 111.655 17.3982C111.655 17.3981 111.655 17.398 111.655 17.3979C111.655 17.3978 111.655 17.3977 111.358 17.3279C111.062 17.258 111.062 17.2579 111.062 17.2578C111.062 17.2578 111.062 17.2577 111.062 17.2577C111.062 17.2576 111.062 17.2575 111.062 17.2575C111.062 17.2574 111.062 17.2573 111.062 17.2574C111.062 17.2574 111.062 17.2578 111.062 17.2583C111.061 17.2595 111.061 17.2617 111.06 17.2649C111.058 17.2712 111.056 17.2814 111.052 17.2948C111.044 17.3217 111.032 17.3614 111.016 17.4094C110.982 17.5066 110.931 17.6327 110.861 17.7553C110.71 18.0186 110.531 18.1694 110.323 18.1628L110.304 18.7718Z" fill="#F43B00" mask="url(#path-17-inside-3_962_385918)"/>
<path d="M111.944 15.4457C111.9 15.3896 111.843 15.3454 111.778 15.3169C111.712 15.2885 111.641 15.2768 111.57 15.2828C111.499 15.2888 111.43 15.3125 111.371 15.3515C111.311 15.3906 111.262 15.4439 111.228 15.5066C110.981 15.7972 110.75 16.1002 110.534 16.4145C110.305 16.8623 110.345 17.4442 110.339 17.9164C110.339 18.0063 110.357 18.0952 110.391 18.1784C110.415 18.2119 110.391 18.151 110.339 18.148C110.75 18.1693 111.067 17.6666 111.329 17.3224H111.387C111.417 17.5495 111.392 17.7806 111.315 17.9962C111.237 18.2119 111.11 18.406 110.942 18.5623C110.29 19.0771 109.623 18.678 109.763 17.8768C109.821 17.298 110.196 16.8623 110.351 16.3292C110.485 15.8539 110.522 15.269 111.009 14.9735C111.402 14.7267 111.996 14.9126 111.987 15.4213L111.929 15.4427L111.944 15.4457Z" fill="#F43B00"/>
<mask id="path-20-inside-4_962_385918" fill="white">
<path d="M110.77 15.2855C110.753 15.103 110.671 14.9326 110.54 14.8044C110.409 14.6761 110.237 14.5984 110.054 14.5848C109.372 14.4812 108.58 17.2901 109.116 17.5217C109.652 17.7532 109.987 16.9763 109.987 16.9763"/>
</mask>
<path d="M110.77 15.2855C110.753 15.103 110.671 14.9326 110.54 14.8044C110.409 14.6761 110.237 14.5984 110.054 14.5848C109.372 14.4812 108.58 17.2901 109.116 17.5217C109.652 17.7532 109.987 16.9763 109.987 16.9763" fill="#F43B00"/>
<path d="M110.054 14.5848L110.009 14.886L110.02 14.8878L110.032 14.8886L110.054 14.5848ZM111.074 15.2565C111.049 15.0024 110.936 14.7652 110.754 14.5866L110.327 15.0221C110.407 15.1 110.456 15.2036 110.467 15.3146L111.074 15.2565ZM110.754 14.5866C110.571 14.4081 110.331 14.2999 110.077 14.281L110.032 14.8886C110.143 14.8969 110.248 14.9441 110.327 15.0221L110.754 14.5866ZM110.1 14.2836C109.901 14.2535 109.731 14.3355 109.608 14.432C109.485 14.5286 109.379 14.6618 109.288 14.803C109.106 15.0871 108.95 15.4645 108.837 15.8397C108.723 16.2154 108.647 16.6122 108.636 16.9407C108.631 17.1033 108.641 17.267 108.682 17.4087C108.72 17.5441 108.806 17.7194 108.995 17.8013L109.237 17.242C109.293 17.266 109.285 17.3029 109.267 17.2408C109.251 17.1849 109.241 17.0921 109.245 16.9604C109.253 16.7003 109.317 16.3579 109.42 16.0154C109.523 15.6725 109.66 15.3525 109.801 15.1319C109.872 15.0207 109.936 14.9496 109.984 14.9116C110.033 14.8734 110.037 14.8903 110.009 14.886L110.1 14.2836ZM108.995 17.8013C109.444 17.9949 109.795 17.7421 109.978 17.5412C110.073 17.4369 110.144 17.3269 110.191 17.246C110.214 17.2048 110.233 17.1694 110.245 17.1436C110.252 17.1306 110.257 17.12 110.26 17.1121C110.262 17.1081 110.264 17.1049 110.265 17.1023C110.265 17.1011 110.266 17.1 110.266 17.0991C110.266 17.0986 110.267 17.0983 110.267 17.0979C110.267 17.0977 110.267 17.0976 110.267 17.0974C110.267 17.0973 110.267 17.0972 110.267 17.0972C110.267 17.0971 110.267 17.097 109.987 16.9763C109.708 16.8557 109.708 16.8556 109.708 16.8555C109.708 16.8555 109.708 16.8554 109.708 16.8553C109.708 16.8552 109.708 16.8551 109.708 16.855C109.708 16.8549 109.708 16.8548 109.708 16.8547C109.708 16.8545 109.708 16.8546 109.708 16.8548C109.708 16.8552 109.707 16.8562 109.707 16.8579C109.705 16.8613 109.702 16.8671 109.699 16.875C109.691 16.8907 109.679 16.9142 109.663 16.9422C109.63 16.9997 109.583 17.0695 109.528 17.1305C109.41 17.2601 109.325 17.28 109.237 17.242L108.995 17.8013Z" fill="#F43B00" mask="url(#path-20-inside-4_962_385918)"/>
<path d="M110.743 15.2863C110.666 15.1625 110.56 15.0594 110.434 14.9861C110.308 14.9128 110.166 14.8715 110.021 14.8659C109.79 14.9574 109.594 15.1208 109.463 15.332C109.226 15.725 109.299 16.246 109.256 16.6694C109.247 16.8599 109.257 17.0508 109.287 17.2391C109.305 17.3123 109.287 17.2391 109.238 17.2391C109.482 17.3976 109.71 17.1508 109.96 16.9619L110.015 16.9863C110.013 17.1263 109.979 17.264 109.917 17.3894C109.855 17.5148 109.765 17.6248 109.655 17.7113C109.533 17.8023 109.383 17.8488 109.231 17.8433C109.079 17.8377 108.933 17.7805 108.818 17.6809C108.513 17.361 108.616 16.8949 108.687 16.575C108.781 16.0845 109.125 15.6946 109.296 15.2376C109.402 14.9573 109.451 14.5125 109.814 14.3511C110.332 14.1408 111.005 14.7532 110.81 15.265L110.743 15.2863Z" fill="black"/>
<path d="M109.509 14.7411C109.433 14.6584 109.337 14.5957 109.231 14.5584C109.126 14.5211 109.012 14.5104 108.901 14.5273C108.79 14.5441 108.685 14.588 108.595 14.655C108.505 14.7221 108.432 14.8102 108.384 14.9117C107.897 15.6977 107.973 17.3854 107.973 17.3854" fill="#F43B00"/>
<path d="M109.486 14.7658C109.249 14.7181 109.002 14.7436 108.779 14.839C108.637 14.8655 108.508 14.9423 108.417 15.0553C108.225 15.3173 108.368 15.6889 108.341 15.9692C108.363 16.4589 108.245 16.9448 108.003 17.3706H107.945C107.804 17.1508 107.715 16.9019 107.685 16.6427C107.655 16.3835 107.685 16.1209 107.771 15.8748C107.844 15.5396 108.131 15.2655 108.243 14.9608C108.283 14.7692 108.362 14.5877 108.475 14.4277C108.555 14.3532 108.653 14.3004 108.759 14.2743C108.866 14.2483 108.977 14.2498 109.082 14.2788C109.188 14.3078 109.284 14.3633 109.363 14.44C109.441 14.5167 109.498 14.6121 109.529 14.7171L109.486 14.7628V14.7658Z" fill="#F43B00"/>
<path d="M80.2617 10.7224C81.7464 10.2035 83.3756 10.2889 84.798 10.96" stroke="#F43B00" stroke-width="0.30465" stroke-miterlimit="10" stroke-linecap="round"/>
<path d="M69.5498 162.251C61.9823 162.601 54.2533 162.899 46.6492 162.647H46.1953V162.226C46.3019 159.5 46.4299 155.704 46.4421 153.02C46.4725 149.949 46.3903 146.881 46.2989 143.813V143.49H46.6431C52.1269 143.274 58.2503 143.237 63.7858 143.186C65.5071 143.186 68.4135 143.186 70.1317 143.21V143.834C70.089 149.812 69.8088 156.304 69.5468 162.29L69.5498 162.251ZM69.4615 162.162C69.2238 156.788 68.9222 149.087 68.8765 143.795L69.5072 144.422L66.6495 144.447C60.1361 144.432 53.1352 144.358 46.6492 144.127L46.9813 143.795C46.8381 148.395 46.7589 153.001 46.9295 157.605L47.0849 162.208L46.6492 161.769C54.2838 161.504 61.8056 161.839 69.4615 162.162Z" fill="#F43B00"/>
<path d="M58.3497 134.074L63.0106 133.455C63.0428 133.503 63.0789 133.558 63.1187 133.617C63.2958 133.879 63.5459 134.24 63.8385 134.636C64.4147 135.415 65.1876 136.371 65.9046 136.948C66.0686 137.08 66.2651 137.255 66.4959 137.46C68.0554 138.849 71.1828 141.634 76.46 141.993C79.3775 142.191 80.3257 142.825 80.6112 143.219C80.7047 143.349 80.737 143.465 80.7436 143.559H66.212C66.0854 143.559 65.8343 143.525 65.46 143.445C65.0973 143.367 64.6513 143.253 64.152 143.111C63.1537 142.826 61.9594 142.432 60.8227 141.997C59.6818 141.561 58.6182 141.091 57.871 140.658C57.4938 140.439 57.225 140.245 57.0675 140.087C57.0064 140.025 56.9757 139.984 56.9608 139.96C57.1585 139.256 57.5184 137.727 57.8294 136.372C57.9903 135.671 58.1394 135.011 58.2482 134.527C58.2878 134.351 58.3221 134.198 58.3497 134.074ZM56.9479 139.935C56.948 139.935 56.9485 139.937 56.9491 139.939C56.9481 139.936 56.9478 139.935 56.9479 139.935Z" fill="black" stroke="#F43B00"/>
<path d="M43.643 134.299L27.1035 162.205H46.6499V143.795H50.1046L43.643 134.299Z" fill="black" stroke="#F43B00" stroke-width="1.2186" stroke-miterlimit="10"/>
<path opacity="0.2" d="M123.333 162.353C135.779 162.078 145.827 159.998 145.776 157.709C145.726 155.419 135.595 153.787 123.149 154.063C110.703 154.339 100.654 156.418 100.705 158.708C100.756 160.997 110.887 162.629 123.333 162.353Z" fill="#F43B00"/>
<path d="M105.904 152.985C104.759 153.177 103.604 153.357 102.492 153.634C102.075 153.756 101.578 153.848 101.274 154.128C101.274 154.128 101.274 154.064 101.274 154.073C101.702 154.335 102.177 154.513 102.672 154.597C103.802 154.815 104.945 154.959 106.093 155.03C114.203 155.468 122.368 155.133 130.465 155.877C133.658 156.181 136.903 156.428 139.986 157.36C140.369 157.497 141.402 157.817 140.924 158.393C140.791 158.504 140.638 158.588 140.473 158.64C139.621 158.885 138.748 159.052 137.865 159.139C132.19 159.88 125.356 160.029 119.708 160.995C119.459 161.043 119.216 161.119 118.983 161.22C119.03 161.163 119.06 161.094 119.072 161.02C119.083 160.947 119.074 160.872 119.047 160.803C118.989 160.69 118.989 160.721 119.01 160.73C119.276 160.87 119.557 160.979 119.848 161.053C123.132 161.942 126.642 162.165 130.057 162.271C135.297 162.448 140.516 161.93 145.762 162.024C146.252 162.088 146.953 162.067 147.178 162.609C147.483 163.609 145.311 163.968 144.68 164.206C142.989 164.672 141.274 165.047 139.562 165.424C137.283 165.903 134.992 166.338 132.692 166.701C132.677 166.702 132.662 166.698 132.65 166.689C132.638 166.68 132.629 166.667 132.626 166.652C132.623 166.638 132.626 166.622 132.633 166.609C132.641 166.596 132.653 166.586 132.668 166.582C134.35 166.152 137.743 165.275 139.419 164.824C141.094 164.373 142.77 163.91 144.421 163.368C145.069 163.18 145.695 162.925 146.289 162.606H146.304C146.296 162.613 146.29 162.621 146.286 162.631C146.242 162.705 146.223 162.791 146.232 162.876C146.241 162.962 146.277 163.042 146.334 163.106C146.35 163.127 146.38 163.139 146.389 163.152L146.274 163.127C144.379 162.963 142.444 163.228 140.534 163.307C138.209 163.459 135.876 163.569 133.527 163.612C131.181 163.659 128.834 163.588 126.496 163.398C124.132 163.223 121.791 162.815 119.507 162.18C119.095 162.069 118.702 161.899 118.34 161.674C118.209 161.597 118.103 161.483 118.035 161.347C117.967 161.21 117.939 161.057 117.957 160.906C117.974 160.754 118.034 160.611 118.131 160.493C118.228 160.376 118.356 160.288 118.502 160.242C120.229 159.612 122.084 159.66 123.873 159.487C129.024 159.109 134.401 159.289 139.516 158.521C139.918 158.467 140.307 158.342 140.665 158.152C140.431 157.955 140.155 157.814 139.858 157.741C139.032 157.49 138.19 157.294 137.338 157.156C132.768 156.443 128.08 156.547 123.452 156.498C120.101 156.498 116.366 156.422 112.984 156.321C110.651 156.23 108.317 156.136 105.993 155.874C104.536 155.7 103.031 155.517 101.639 154.975C101.219 154.807 100.497 154.445 100.801 153.899C101.182 153.433 101.846 153.403 102.376 153.272C103.531 153.084 104.696 152.962 105.865 152.906C105.881 152.906 105.896 152.913 105.908 152.924C105.919 152.936 105.926 152.951 105.926 152.967C105.926 152.983 105.919 152.999 105.908 153.01C105.896 153.022 105.881 153.028 105.865 153.028L105.904 152.985Z" fill="#F43B00"/>
<path d="M124.324 159.662C136.353 159.662 146.104 149.911 146.104 137.883C146.104 125.855 136.353 116.104 124.324 116.104C112.296 116.104 102.545 125.855 102.545 137.883C102.545 149.911 112.296 159.662 124.324 159.662Z" fill="black"/>
<path d="M146.165 137.883C146.265 149.938 136.592 160.412 124.324 160.168C112.403 160.08 102.313 149.752 102.213 137.883C101.859 122.041 118.319 110.958 132.885 117.219C140.995 120.603 146.268 129.191 146.165 137.883ZM146.043 137.883C146.043 122.812 129.969 112.64 116.233 118.349C105.506 122.593 99.9856 135.443 104.394 146.139C109.457 158.736 125 162.825 136.154 155.583C142.131 151.83 146.107 144.991 146.043 137.877V137.883Z" fill="#F43B00"/>
<path d="M42.0476 50.6072C42.0476 50.6072 41.8984 54.0985 40.893 55.5944C39.8877 57.0902 36.3751 56.7612 36.0887 54.8876C35.8023 53.014 36.0643 50.4549 36.6736 49.7573C37.2829 49.0596 36.9448 53.2973 36.9448 53.2973L39.382 49.8822C40.2319 50.2482 41.1294 50.4923 42.0476 50.6072Z" fill="black"/>
<path d="M42.0806 50.5797C42.1144 50.8005 42.1327 51.0235 42.1355 51.2469C42.1538 52.7701 42.0502 54.3208 41.3068 55.6826C41.2101 55.8477 41.0946 56.001 40.9626 56.1395C39.6252 57.4038 36.7828 56.9469 36.0242 55.2469L35.9328 54.9179L35.8841 54.6132C35.6886 53.3389 35.6773 52.0431 35.8505 50.7655C35.9129 50.313 36.0798 49.8811 36.338 49.5043C36.3834 49.4407 36.4423 49.388 36.5103 49.3497C36.5784 49.3114 36.6541 49.2885 36.732 49.2827C36.8098 49.2769 36.8881 49.2883 36.9611 49.316C37.0341 49.3438 37.1001 49.3872 37.1544 49.4433C37.2995 49.6409 37.3861 49.8752 37.4043 50.1196C37.5093 51.1935 37.5093 52.2751 37.4043 53.3489L36.5177 53.026C36.8924 52.5294 37.4012 51.8287 37.7851 51.3504C38.2725 50.7198 38.7752 50.1014 39.284 49.489C40.1651 49.9658 41.0998 50.336 42.0685 50.5919L42.0806 50.5797ZM42.0136 50.6376C41.0694 50.6619 40.1293 50.5047 39.2444 50.1745L39.6343 50.0679C38.6229 51.7312 37.3951 53.4799 36.2831 55.0915C36.3837 53.4678 36.667 51.5911 36.5086 49.9826C36.5086 49.9369 36.5086 49.9826 36.536 49.9978C36.5604 50.0228 36.588 50.0443 36.6183 50.0618C36.6726 50.0884 36.7334 50.0994 36.7936 50.0935C36.8539 50.0876 36.9113 50.065 36.9595 50.0283C36.3502 50.9635 36.2283 52.2095 36.1308 53.3307C36.1033 53.8457 36.1278 54.3621 36.2039 54.8722C36.2629 55.1534 36.4002 55.4121 36.6 55.6186C37.6297 56.5661 39.8567 56.3863 40.6122 55.2621C40.9922 54.5656 41.2721 53.8189 41.4439 53.0443C41.6328 52.3101 41.8004 51.5058 41.9649 50.7594C41.9649 50.7411 41.9832 50.665 41.9893 50.6467H42.0075L42.0136 50.6376Z" fill="#F43B00"/>
<path d="M37.0514 51.7529C36.9798 51.3109 37.057 50.8577 37.2707 50.4642C37.5705 50.1376 37.7896 49.7453 37.9105 49.3187C38.1085 48.4718 39.0834 48.3743 39.19 49.3187C39.2037 49.7938 39.0433 50.2575 38.7391 50.6226C38.7362 50.6277 38.732 50.6319 38.7269 50.6348C38.7218 50.6377 38.716 50.6393 38.7102 50.6393C38.7043 50.6393 38.6986 50.6377 38.6935 50.6348C38.6884 50.6319 38.6842 50.6277 38.6812 50.6226C38.5929 50.1748 38.599 49.7392 38.5411 49.404C38.5411 49.3309 38.5076 49.2578 38.5137 49.2609C38.5198 49.2639 38.5502 49.2883 38.5624 49.2609C38.5746 49.2334 38.5807 49.2609 38.5777 49.2609C38.2433 49.4224 37.9822 49.7042 37.8465 50.0499C37.7947 50.26 37.7601 50.474 37.7429 50.6897C37.6334 51.1108 37.4161 51.4962 37.1123 51.8077C37.1076 51.8122 37.1018 51.8154 37.0956 51.8169C37.0893 51.8184 37.0827 51.8182 37.0765 51.8163C37.0703 51.8145 37.0647 51.811 37.0603 51.8063C37.0559 51.8016 37.0528 51.7958 37.0514 51.7895V51.7529Z" fill="#F43B00"/>
<path d="M75.5997 12.7174C75.5997 12.7174 74.4207 12.5864 74.3506 13.5034C74.3289 13.8156 74.4281 14.1243 74.6278 14.3653C74.8274 14.6064 75.1121 14.7614 75.423 14.7982" fill="black"/>
<path d="M75.5997 12.7174C75.5997 12.7174 74.4207 12.5864 74.3506 13.5034C74.3289 13.8156 74.4281 14.1243 74.6278 14.3653C74.8274 14.6064 75.1121 14.7614 75.423 14.7982" stroke="black" stroke-width="0.30465" stroke-miterlimit="10" stroke-linecap="round"/>
<path d="M137 136.412H129.728L134.87 131.266C134.062 130.13 133.069 129.138 131.933 128.329L126.791 133.472V126.203C126.107 126.087 125.415 126.029 124.722 126.029H124.707C124.014 126.03 123.322 126.088 122.638 126.203V133.475L117.496 128.332C116.929 128.735 116.397 129.184 115.906 129.676C115.415 130.168 114.965 130.7 114.562 131.266L119.705 136.409H112.43C112.43 136.409 112.256 137.774 112.256 138.48C112.256 139.175 112.314 139.867 112.43 140.552H119.702L114.559 145.691C115.367 146.828 116.359 147.821 117.496 148.628L122.638 143.489V150.764C123.321 150.877 124.012 150.935 124.704 150.938H124.722C125.415 150.935 126.107 150.876 126.791 150.764V143.501L131.933 148.631C132.5 148.228 133.032 147.777 133.524 147.285C134.016 146.794 134.465 146.262 134.867 145.694L129.728 140.552H137C137.115 139.868 137.173 139.177 137.173 138.483V138.465C137.173 137.777 137.115 137.09 137 136.412ZM127.351 141.122C126.51 141.439 125.618 141.602 124.719 141.603C123.82 141.602 122.929 141.44 122.087 141.125C121.77 140.283 121.608 139.392 121.609 138.493C121.607 137.595 121.768 136.704 122.084 135.863C122.925 135.546 123.817 135.383 124.716 135.382C125.614 135.381 126.505 135.544 127.345 135.863C127.662 136.704 127.824 137.595 127.823 138.493C127.826 139.39 127.666 140.281 127.351 141.122Z" fill="#F43B00"/>
<path d="M61.0686 150.82V149.138C61.2905 149.034 61.4784 148.869 61.6105 148.663C61.7425 148.456 61.8135 148.217 61.815 147.971V147.932C61.815 147.588 61.6786 147.259 61.4357 147.016C61.1929 146.774 60.8636 146.637 60.5202 146.637H60.4806C60.1372 146.637 59.8079 146.774 59.5651 147.016C59.3223 147.259 59.1858 147.588 59.1858 147.932V147.971C59.1874 148.217 59.2583 148.456 59.3904 148.663C59.5225 148.869 59.7103 149.034 59.9322 149.138V150.82C59.2937 150.917 58.6925 151.182 58.1896 151.588L53.5894 147.996C53.622 147.877 53.6394 147.754 53.6412 147.63C53.6418 147.342 53.5568 147.059 53.397 146.819C53.2371 146.579 53.0096 146.391 52.7432 146.28C52.4768 146.169 52.1834 146.14 51.9002 146.195C51.617 146.251 51.3567 146.39 51.1522 146.593C50.9477 146.797 50.8082 147.057 50.7513 147.34C50.6944 147.623 50.7227 147.916 50.8326 148.183C50.9425 148.45 51.129 148.678 51.3687 148.839C51.6083 149 51.8903 149.086 52.1789 149.087C52.4306 149.086 52.6778 149.019 52.8948 148.892L57.4371 152.425C57.0289 153.042 56.816 153.767 56.8263 154.506C56.8366 155.245 57.0697 155.964 57.495 156.569L56.1119 157.952C56.0005 157.916 55.8846 157.897 55.7677 157.894C55.5301 157.893 55.2978 157.963 55.1 158.095C54.9022 158.226 54.7479 158.414 54.6565 158.633C54.5652 158.852 54.541 159.094 54.587 159.327C54.633 159.56 54.747 159.774 54.9148 159.942C55.0825 160.11 55.2964 160.225 55.5293 160.271C55.7622 160.318 56.0037 160.294 56.2233 160.204C56.4428 160.113 56.6304 159.959 56.7624 159.761C56.8945 159.564 56.9649 159.332 56.9649 159.094C56.9653 158.977 56.9468 158.861 56.9101 158.75L58.278 157.382C58.7238 157.725 59.2422 157.961 59.7934 158.073C60.3446 158.184 60.9141 158.168 61.4581 158.025C62.0021 157.883 62.5062 157.617 62.9317 157.25C63.3573 156.882 63.693 156.422 63.9131 155.904C64.1331 155.387 64.2318 154.825 64.2014 154.264C64.1711 153.702 64.0125 153.155 63.7379 152.664C63.4633 152.173 63.08 151.752 62.6173 151.432C62.1546 151.113 61.6248 150.903 61.0686 150.82ZM60.5019 156.349C60.001 156.363 59.5151 156.177 59.1512 155.833C58.7872 155.488 58.575 155.013 58.5613 154.512C58.5476 154.011 58.7334 153.526 59.0779 153.162C59.4224 152.798 59.8974 152.585 60.3984 152.572H60.5019C61.0029 152.572 61.4833 152.771 61.8375 153.125C62.1918 153.479 62.3908 153.96 62.3908 154.461C62.3908 154.961 62.1918 155.442 61.8375 155.796C61.4833 156.15 61.0029 156.349 60.5019 156.349Z" fill="#F43B00"/>
<path d="M40.9622 147.523C40.3261 147.661 39.7435 147.98 39.2846 148.442C38.8257 148.903 38.5101 149.488 38.3757 150.125C38.0467 152.069 38.0467 154.054 38.3757 155.998C38.5106 156.635 38.8265 157.218 39.2853 157.679C39.7442 158.14 40.3265 158.459 40.9622 158.597C41.928 158.78 42.91 158.863 43.8929 158.847C44.8114 158.857 45.729 158.786 46.6347 158.634V156.044C46.6117 156.06 46.5872 156.073 46.5616 156.084C46.2318 156.18 45.8928 156.241 45.5502 156.266H45.4771C45.434 156.271 45.3904 156.261 45.3538 156.238C45.3172 156.215 45.2897 156.18 45.276 156.138C45.2208 156.008 45.1349 155.893 45.0256 155.803C44.9164 155.713 44.787 155.65 44.6484 155.621C44.1446 155.531 43.629 155.531 43.1252 155.621C42.9903 155.651 42.8646 155.714 42.7587 155.803C42.6527 155.892 42.5695 156.005 42.5159 156.132C42.4964 156.176 42.464 156.212 42.423 156.236C42.3821 156.26 42.3347 156.271 42.2874 156.266H42.2265C41.8819 156.241 41.5409 156.18 41.2089 156.084C41.1394 156.057 41.0797 156.01 41.0378 155.948C40.9959 155.887 40.9737 155.814 40.9743 155.739V155.688C41.1326 154.721 41.3825 153.771 41.7207 152.851C42.2051 151.41 42.7169 150.243 42.9393 150.015C42.9773 149.978 43.0203 149.946 43.0673 149.921C43.0897 149.909 43.1131 149.9 43.1374 149.893C43.6285 149.779 44.139 149.779 44.6301 149.893L44.7002 149.921C44.7462 149.947 44.7891 149.979 44.8282 150.015C45.0567 150.243 45.5685 151.41 46.0468 152.851C46.2966 153.595 46.4976 154.28 46.6317 154.816V147.486C45.7259 147.334 44.8083 147.263 43.8898 147.273C42.908 147.258 41.9272 147.342 40.9622 147.523Z" fill="#F43B00"/>
<g opacity="0.2">
<path d="M73.2935 12.1489C73.9028 11.2015 75.0392 10.7476 76.2334 11.5579C76.2334 11.5579 77.2845 9.98593 78.9539 9.73003C80.6234 9.47412 83.4749 9.18165 84.7849 8.38652C85.4859 7.81473 86.0597 7.10291 86.4697 6.29661C86.644 5.98964 86.785 5.66486 86.8901 5.32783L86.7652 4.80078C86.7652 4.80078 85.6928 6.10469 84.8032 6.15038C83.9136 6.19608 84.1421 6.54034 83.3074 6.85717C82.4726 7.17401 82.7164 7.26845 81.7598 7.16182C80.8032 7.05519 80.8458 5.83964 80.2548 6.93333C79.6638 8.02703 78.8443 8.56931 77.7506 8.36824C76.6569 8.16717 76.2486 7.92345 75.8374 8.40784C75.4261 8.89224 75.0635 9.71175 74.0612 9.71175C73.0589 9.71175 72.6934 9.11768 72.8426 10.3698C72.9525 10.9724 73.1032 11.5668 73.2935 12.1489Z" fill="#F43B00"/>
<path d="M74.7781 16.2405C74.2434 16.1703 73.7509 15.913 73.3878 15.5143C73.0248 15.1155 72.8147 14.6011 72.7948 14.0622C72.7734 13.6687 72.8229 13.2745 72.941 12.8984H72.9106C71.9966 13.0904 71.0827 15.1407 71.6219 15.686C72.009 16.1179 72.3182 16.6137 72.5358 17.1514C72.8258 17.2174 73.0953 17.3532 73.321 17.547C73.5466 17.7407 73.7215 17.9866 73.8306 18.2633C73.9084 18.3585 73.9652 18.469 73.9972 18.5877C74.0292 18.7064 74.0358 18.8305 74.0164 18.9518L74.7781 16.2405Z" fill="#F43B00"/>
</g>
<path opacity="0.2" d="M84.0586 43.9927L86.4531 40.212C86.4531 40.212 88.2018 42.8838 89.1219 42.8838C90.0419 42.8838 89.0305 42.3293 91.1478 42.698C93.2651 43.0666 95.0169 45.5525 95.2911 43.0666C95.5652 40.5806 98.8829 41.132 99.4373 40.934C99.9918 40.736 101.555 41.3027 102.383 37.4336C103.212 33.5645 103.763 33.1076 104.961 31.0816C106.158 29.0557 106.718 26.0823 106.898 25.6802C107.078 25.278 109.64 23.508 109.509 22L112.114 22.1706L108.543 30.0001L104.729 37.3818C104.729 37.3818 102.097 43.1366 99.4495 45.1199C96.8021 47.1032 87.5986 46.0004 84.0586 43.9927Z" fill="#F43B00"/>
<path opacity="0.2" d="M75.6015 67.9355C75.6015 67.9355 77.3837 79.4788 77.0394 86.1993C76.5974 94.573 75.4251 102.892 73.536 111.062C71.245 121.252 68.8444 130.523 68.8444 130.523L58.998 131.897C58.998 131.897 62.203 130.639 62.8884 127.891C63.5739 125.143 62.7909 122.407 64.2137 121.137C65.6364 119.866 66.5808 118.044 66.2244 115.412C65.8679 112.78 67.58 113.237 68.0523 111.29C68.5245 109.344 63.9395 106.06 68.8565 99.9178C73.7736 93.776 74.9221 91.8293 73.7766 89.7698C72.6312 87.7104 74.1209 84.9868 74.1209 82.3973C74.1209 79.8078 73.7401 79.7682 72.8627 77.7483C70.7332 72.8922 76.5215 74.0377 75.6015 67.9355Z" fill="black"/>
<path opacity="0.2" d="M81.2402 62.5371C81.2402 62.5371 101.813 63.4206 108.963 67.1312C116.114 70.8419 116.507 74.8176 117.957 80.0393C119.407 85.261 122.6 108.759 122.6 108.759L116.138 109.721C116.138 109.721 117.247 106.114 117.152 102.693C117.058 99.2719 116.321 100.104 116.415 97.3312C116.447 95.3238 116.355 93.3164 116.138 91.3205C116.138 91.3205 115.12 88.274 115.12 83.5549C115.12 78.8359 114.673 77.4619 111.288 75.6036C107.903 73.7452 106.983 75.2319 106.612 71.5334C106.24 67.835 102.081 68.7611 98.386 68.1122C94.6905 67.4633 93.9472 64.5052 91.2663 64.691C88.5854 64.8768 85.4962 64.5996 85.1733 63.6735C84.8503 62.7473 81.2402 62.5371 81.2402 62.5371Z" fill="black"/>
<path opacity="0.2" d="M85.7977 143.795C85.7977 143.795 85.7155 149.385 81.9347 149.501C78.154 149.617 78.154 149.501 77.9255 151.792C77.6971 154.083 76.8928 155.868 74.9461 156.362C72.9993 156.855 72.6459 159.174 71.732 159.664C70.818 160.155 69.502 162.208 69.502 162.208H85.7916L85.7977 143.795Z" fill="black"/>
<path opacity="0.2" d="M60.7636 35.6791L61.7842 31.7491C61.7842 31.7491 58.689 32.7087 57.3028 31.7491C55.9166 30.7894 54.104 30.04 53.452 31.1093C52.8001 32.1786 52.3857 32.4955 51.2098 32.4955C50.0338 32.4955 48.1267 31.4262 47.7002 34.0827C47.2737 36.7393 45.5677 37.6045 44.608 38.3478C43.6484 39.0912 41.6194 39.8406 42.0459 42.1895C42.4724 44.5383 41.4061 47.3106 41.2995 47.9504C41.1929 48.5902 41.1289 50.4363 41.1289 50.4363L42.8167 51.0091C42.8167 51.0091 42.7344 40.4895 50.3568 35.4415C57.9791 30.3934 60.7636 35.6791 60.7636 35.6791Z" fill="#F43B00"/>
</g>
<defs>
<clipPath id="clip0_962_385918">
<rect width="121.19" height="162.75" fill="white" transform="translate(26.0352 3.92383)"/>
</clipPath>
</defs>
</svg>
