<svg width="50" height="59" viewBox="0 0 50 59" fill="none" xmlns="http://www.w3.org/2000/svg">
<g clip-path="url(#clip0_962_236292)">
<path d="M47.5123 2.48985H1.79088V48.0072H6.78173V49.7912C4.52855 49.805 2.27955 49.7634 0 49.8647V0.676758H49.3254V49.8217H43.6154V48.0586H47.5123V2.48985Z" fill="black"/>
<path d="M25.6072 22.5597C24.6702 18.9835 21.6271 16.8414 18.1342 16.7067C16.5265 16.6442 14.9147 16.6956 13.3002 16.6956C13.2433 16.9996 13.2322 32.8468 13.3002 33.4104C15.4798 33.2563 17.6844 33.6423 19.857 33.1147C21.1194 32.822 22.2897 32.2215 23.2638 31.3669C23.3152 31.3225 23.3721 31.285 23.4582 31.2211C23.7527 31.9209 24.1317 32.582 24.5869 33.1897C23.4528 34.121 22.1362 34.8044 20.7219 35.1958C19.6417 35.4977 18.5241 35.6449 17.4025 35.6331L11.1039 35.6108C10.8874 35.4956 10.8915 35.2971 10.8915 35.0902C10.8915 33.7811 10.8915 32.4733 10.8915 31.1656C10.8915 25.7902 10.8915 20.4143 10.8915 15.038C10.8738 14.8798 10.8832 14.7197 10.9193 14.5646C11.0581 14.4563 11.2233 14.5077 11.3746 14.5077C13.5445 14.5077 15.7144 14.5077 17.8857 14.5077C18.0425 14.5264 18.2015 14.5166 18.3549 14.4785C20.9329 14.6479 23.2139 15.5392 25.0908 17.3384C27.8188 19.9608 28.6628 23.2135 28.145 26.8869C27.9294 28.3802 27.3809 29.8059 26.5402 31.0587C26.3139 31.0365 26.25 30.8463 26.1626 30.6866C25.614 29.6806 25.4185 28.5197 25.6072 27.3895C25.8502 25.8263 25.9141 24.2839 25.5823 22.7332C25.5759 22.6742 25.5845 22.6145 25.6072 22.5597Z" fill="black"/>
<path d="M25.609 22.5604C25.8867 23.1255 25.895 23.7502 25.9464 24.3527C26.0297 25.3245 25.8867 26.2866 25.752 27.2514C25.5632 28.6008 25.7437 29.8989 26.542 31.0553C27.1695 32.2145 28.1607 32.9406 29.3754 33.364C33.2182 34.7009 37.1095 31.569 36.7069 27.5221C36.3987 24.4235 33.7915 22.2661 30.8762 22.4244C30.1297 22.4795 29.3991 22.6676 28.7188 22.9797C28.5602 22.2589 28.3543 21.5494 28.1024 20.8556C29.6628 20.2045 31.2441 20.0574 32.8558 20.5183C34.4676 20.9792 35.7018 21.951 36.65 23.3518V14.4668H38.8129V35.5963H37.2622C37.1498 34.5426 37.2234 33.482 37.1484 32.3325C36.6639 33.0586 36.1905 33.6778 35.5838 34.1845C32.8225 36.4918 28.5036 36.2849 25.877 33.8194C22.8228 30.954 22.6395 25.8423 25.4147 22.7923C25.4855 22.7187 25.5452 22.6382 25.609 22.5604Z" fill="black"/>
<path d="M27.7865 51.833C27.7657 52.5785 27.7449 53.2518 27.9031 53.946C26.5259 54.729 25.6333 55.9673 24.7517 57.2931C24.1312 56.4352 23.3168 55.736 22.375 55.2523L23.9646 54.2903C24.2172 54.7553 24.4574 55.201 24.7198 55.6883C25.382 54.1139 26.2483 52.759 27.7865 51.833Z" fill="black"/>
<path d="M39.3618 49.6806C39.0008 49.7999 38.701 49.7763 38.3636 49.7833L36.8074 48.0674C36.5394 48.7338 36.8865 49.3293 36.7671 49.9304L35.948 50.0373C35.8272 48.6768 35.7092 47.3427 35.5898 46.0113C35.8758 45.8295 36.1452 45.9156 36.4436 45.8725C36.4978 46.3959 36.5491 46.8873 36.6116 47.4857L37.843 45.7406L38.8703 45.6504L37.5015 47.6495L39.3618 49.6806Z" fill="black"/>
<path d="M42.0547 45.3672C42.0395 45.6157 42.0297 45.7976 42.0159 46.0238L40.3249 46.1807C40.3555 46.4917 40.3832 46.7832 40.4124 47.0831C40.9677 47.1622 41.4939 46.9873 42.0214 47.0289C42.145 47.2039 42.1075 47.3899 42.1005 47.6009C41.5855 47.7814 41.0205 47.6412 40.4874 47.8272C40.4346 48.1854 40.5609 48.5297 40.579 48.9073C41.1954 48.9781 41.7882 48.8448 42.3837 48.824C42.5059 49.0225 42.4532 49.2169 42.4323 49.4515L39.746 49.6875C39.628 48.3298 39.5114 46.9956 39.3906 45.6046L42.0547 45.3672Z" fill="black"/>
<path d="M31.624 45.1289C31.363 45.2816 31.2964 45.0914 31.1978 44.9901C29.3556 42.9701 27.0732 41.947 24.3383 42.1052C21.4827 42.2635 19.2753 43.6115 17.7038 45.9952C17.5219 46.2728 17.5261 46.2728 17.2109 46.2964C17.9231 44.482 20.429 42.1205 23.6109 41.7554C26.8969 41.3792 29.5583 42.5259 31.624 45.1289Z" fill="black"/>
<path d="M35.0781 49.1987C35.1781 49.3875 35.2878 49.5416 35.3017 49.7332C34.6964 50.4149 33.3692 50.4357 32.6028 49.779C31.7949 49.0849 31.6519 47.6105 32.3099 46.7568C32.9263 45.9557 34.2355 45.7433 35.0296 46.3403C34.9768 46.518 34.9227 46.7054 34.8685 46.8956C33.9384 46.5791 33.3414 46.6901 32.9971 47.226C32.6528 47.7619 32.7417 48.7725 33.1873 49.2445C33.5802 49.6555 34.223 49.6458 35.0781 49.1987Z" fill="black"/>
<path d="M17.9152 51.5446C17.5306 51.6834 17.5306 51.6834 17.0586 51.6445C16.96 50.5436 16.8615 49.4358 16.7587 48.2891L15.6231 48.3432C15.5513 48.1427 15.5211 47.9297 15.5343 47.7171L18.7065 47.4395C18.7957 47.6247 18.8192 47.8347 18.7731 48.035C18.4288 48.2169 18.0318 48.0822 17.6333 48.2308C17.7319 49.3317 17.8221 50.4423 17.9152 51.5446Z" fill="black"/>
<path d="M32.6171 53.7612C31.3163 56.7598 29.0617 58.5479 25.8146 58.9394C21.6942 59.4364 17.7501 56.7987 16.57 52.8449C16.5423 52.7533 16.5312 52.6575 16.5117 52.5672C16.7297 52.5339 16.6977 52.6839 16.7283 52.7824C17.7584 55.9574 19.9144 57.919 23.1754 58.5604C27.0237 59.3143 30.8332 57.2804 32.5366 53.6765C32.6102 53.6556 32.656 53.6695 32.6171 53.7612Z" fill="black"/>
<path d="M18.3595 14.4745C18.2206 14.5967 18.0568 14.5425 17.9055 14.5425C15.762 14.5425 13.619 14.5425 11.4764 14.5425H11.0307C10.8919 14.7494 10.9405 14.941 10.9405 15.1215C10.9405 21.7093 10.9377 28.2962 10.9322 34.8822C10.9177 35.1355 10.9781 35.3875 11.1057 35.6068L10.8711 35.6207V14.4967C10.8975 14.4815 10.9197 14.4551 10.9419 14.4551L18.3595 14.4745Z" fill="black"/>
<path d="M40.3633 45.0909C40.4896 44.7106 40.6062 44.3593 40.7228 44.0123C40.9876 43.9297 41.2652 43.8968 41.5419 43.9151C41.3809 44.5842 40.8908 45.0896 40.3633 45.0909Z" fill="black"/>
<path d="M32.6185 53.7614L32.5352 53.6726C32.8422 52.9115 33.0693 52.1206 33.2126 51.3125C33.1898 52.1616 32.9873 52.9963 32.6185 53.7614Z" fill="black"/>
<path d="M26.7957 48.9522C26.7471 47.8041 26.2209 47.2085 25.1228 46.9906C24.3967 46.8518 23.697 47.0517 22.9141 47.0447C23.0404 48.4511 23.1612 49.788 23.282 51.1387C23.9761 51.0818 24.6314 51.0679 25.2602 50.9138C26.2473 50.6723 26.8359 49.9087 26.7957 48.9522ZM25.7753 49.6991C25.4352 50.353 24.7813 50.3932 24.0872 50.3766C24.008 49.4492 23.9317 48.5718 23.8539 47.6472C24.5189 47.6292 25.1728 47.4446 25.617 48.0318C25.8046 48.2633 25.9197 48.545 25.9479 48.8416C25.976 49.1382 25.916 49.4365 25.7753 49.6991Z" fill="black"/>
<path d="M29.3519 46.4023C28.14 46.4023 27.2695 47.2672 27.2695 48.4514C27.2779 49.7842 28.072 50.6477 29.2839 50.6449C30.5625 50.6449 31.4094 49.83 31.408 48.6125C31.408 47.2867 30.5847 46.4023 29.3519 46.4023ZM30.525 48.593C30.525 49.4677 30.1335 49.9341 29.4227 49.9633C28.712 49.9924 28.2691 49.5468 28.1955 48.7527C28.1767 48.5682 28.1744 48.3823 28.1886 48.1974C28.2385 47.5893 28.6217 47.177 29.1701 47.1187C29.4432 47.0733 29.7235 47.1315 29.9559 47.282C30.1883 47.4325 30.3562 47.6644 30.4265 47.9322C30.5046 48.1433 30.5381 48.3683 30.525 48.593Z" fill="black"/>
<path d="M11.6828 50.2502C11.6175 49.1785 11.1816 48.6051 10.2389 48.3761C9.44208 48.1831 8.64937 48.3136 7.81641 48.4247C7.93857 49.7741 8.05935 51.0957 8.18569 52.4937C8.98533 52.3549 9.75722 52.4368 10.4791 52.1425C10.8607 52.0045 11.1858 51.7439 11.4036 51.4016C11.6213 51.0592 11.7195 50.6543 11.6828 50.2502ZM10.6915 50.9985C10.357 51.7121 9.67808 51.6927 9.00199 51.7246C8.91037 50.8111 8.8007 49.9198 8.77848 48.9869C9.41987 48.8939 10.0501 48.8203 10.4902 49.3367C10.6855 49.5621 10.8091 49.8408 10.8449 50.1369C10.8808 50.4329 10.8274 50.733 10.6915 50.9985Z" fill="black"/>
<path d="M14.102 47.9043H13.269C12.89 49.3051 12.518 50.6808 12.1445 52.0691C12.4375 52.1746 12.6846 52.0691 13.0011 52.0303C13.1149 51.6138 13.2288 51.2056 13.3468 50.7808L14.506 50.6781L15.0474 51.8401C15.3258 51.8837 15.6107 51.8531 15.8734 51.7512L14.102 47.9043ZM13.4689 50.188C13.5647 49.7563 13.648 49.38 13.7466 48.9511C13.9868 49.3176 14.0659 49.7104 14.245 50.0742C13.9868 50.2158 13.7563 50.2005 13.4689 50.188Z" fill="black"/>
<path d="M21.0675 47.2354L20.2539 47.2909L19.1211 51.4918C19.4137 51.5069 19.7069 51.4764 19.9902 51.4016C20.104 50.9851 20.2123 50.5839 20.3317 50.1521L21.4867 50.0591L22.042 51.2558C22.3197 51.2405 22.5779 51.2558 22.8486 51.117C22.2517 49.8157 21.6579 48.5218 21.0675 47.2354ZM20.4538 49.5815C20.5455 49.1553 20.6274 48.7694 20.7204 48.3321C20.9717 48.7 21.0466 49.0901 21.2146 49.4649C20.976 49.5712 20.7133 49.6115 20.4538 49.5815Z" fill="black"/>
</g>
<defs>
<clipPath id="clip0_962_236292">
<rect width="49.3254" height="58.3228" fill="white" transform="translate(0 0.676758)"/>
</clipPath>
</defs>
</svg>
