<svg width="29" height="29" viewBox="0 0 29 29" fill="none" xmlns="http://www.w3.org/2000/svg">
<path d="M11.5938 11.3443H15.5894V13.0184C15.6778 12.9144 15.7209 12.8725 15.7538 12.8241C16.6428 11.5243 17.9061 10.9808 19.4427 11.0556C21.8049 11.1704 23.3594 12.5873 23.7354 14.9597C23.816 15.4716 23.8578 15.9888 23.8604 16.507C23.8741 18.7293 23.8664 20.9522 23.8658 23.1745C23.8658 23.257 23.8574 23.3401 23.8526 23.4382H19.8421V23.0962C19.8421 21.0897 19.851 19.0839 19.8355 17.078C19.833 16.6271 19.7825 16.1777 19.6848 15.7375C19.515 14.9878 19.0869 14.4366 18.2876 14.2817C17.4601 14.1209 16.7373 14.3248 16.1717 14.9764C15.7789 15.429 15.5989 15.957 15.6001 16.5584C15.6055 18.7341 15.6001 20.9098 15.6001 23.0849V23.4364H11.5943L11.5938 11.3443Z" fill="white"/>
<path d="M9.31807 23.4449H5.33203V11.3564H9.31807V23.4449Z" fill="white"/>
<path d="M7.32078 9.67394C5.69993 9.67394 4.66919 8.29165 5.20549 6.83582C5.53014 5.95515 6.44608 5.42603 7.52704 5.49299C9.02472 5.58626 9.95861 6.91175 9.49226 8.28149C9.19631 9.1502 8.38081 9.67334 7.32078 9.67394Z" fill="white"/>
</svg>
