<svg width="88" height="45" viewBox="0 0 88 45" fill="none" xmlns="http://www.w3.org/2000/svg">
<g clip-path="url(#clip0_491_384177)">
<path d="M47.1907 0.394059V13.9847C47.3038 13.9847 47.3997 13.9847 47.4957 13.9847H87.6405C88.0312 13.9847 87.9832 13.9059 87.9832 14.348V44.1987C87.9832 44.6065 88.0209 44.5688 87.62 44.5688H0.3636C-0.0270546 44.5688 0.0209205 44.6031 0.0209205 44.2261C0.0209205 38.7981 0.0209205 33.3701 0.0209205 27.942C0.0244254 27.9021 0.0244254 27.862 0.0209205 27.8221C-0.00306707 27.6405 0.0757433 27.5993 0.25051 27.5993H16.4901V15.3623C16.4901 15.0813 16.4901 15.0813 16.2057 15.0813H0.360169C-0.0304848 15.0813 0.0174903 15.1156 0.0174903 14.7215C0.0174903 10.045 0.0174903 5.36862 0.0174903 0.692188C0.0174903 0.332375 0.0174891 0.397489 0.30534 0.397489H47.201L47.1907 0.394059ZM1.09351 43.4928H86.9038V28.7062H1.09351V43.4928ZM9.3555 6.91524C9.41033 7.00777 9.46515 7.09344 9.51656 7.18253C10.058 8.10434 10.5994 9.0193 11.134 9.9411C11.1562 9.99225 11.194 10.035 11.242 10.0634C11.2901 10.0917 11.3458 10.1041 11.4013 10.0987C11.6652 10.0987 11.9256 10.0987 12.186 10.0987C12.2512 10.1068 12.3173 10.0939 12.3746 10.0619C12.4319 10.0298 12.4775 9.98031 12.5047 9.92055C13.0484 8.9816 13.5979 8.04494 14.153 7.11057L14.2764 6.91524V12.3741H16.4421V3.12178C16.4135 3.11098 16.3835 3.10406 16.353 3.10122C15.7225 3.10122 15.0919 3.10122 14.4614 3.10122C14.4208 3.10834 14.3822 3.12431 14.3485 3.148C14.3147 3.17169 14.2866 3.20252 14.2661 3.2383C13.4825 4.5085 12.7012 5.78212 11.9222 7.05917C11.8913 7.114 11.8536 7.1654 11.8091 7.23051L11.7303 7.11057L9.38292 3.26571C9.35593 3.20899 9.31226 3.16186 9.25776 3.13063C9.20326 3.0994 9.14051 3.08555 9.07793 3.09094C8.51593 3.09094 7.95394 3.09094 7.38852 3.09094C7.21033 3.09094 7.16578 3.14921 7.16578 3.32397C7.16578 6.27558 7.16578 9.22719 7.16578 12.1788C7.16578 12.2473 7.16578 12.3193 7.16578 12.3878H9.3418L9.3555 6.91524ZM54.2876 25.9956V16.7433C54.2572 16.7355 54.2263 16.7297 54.1951 16.7261C53.5645 16.7261 52.934 16.7261 52.3035 16.7261C52.2606 16.7343 52.2198 16.7514 52.1838 16.7761C52.1479 16.8009 52.1174 16.8329 52.0944 16.8701C51.3108 18.1426 50.5307 19.4162 49.7539 20.6909L49.6546 20.8349C49.6344 20.8148 49.6161 20.793 49.5997 20.7698C48.807 19.479 48.0177 18.186 47.2318 16.8906C47.2057 16.8342 47.1626 16.7873 47.1085 16.7566C47.0545 16.7259 46.9921 16.7128 46.9303 16.7193C46.3614 16.7193 45.7891 16.7193 45.2169 16.7193H45.025V25.9716H47.1907V20.5196L47.3141 20.7252C47.8624 21.6607 48.4141 22.5962 48.9589 23.5352C48.9846 23.5962 49.029 23.6476 49.0855 23.6821C49.1421 23.7165 49.2081 23.7323 49.2742 23.7271C49.5278 23.7271 49.7848 23.7271 50.0384 23.7271C50.098 23.7335 50.1581 23.7206 50.2099 23.6904C50.2617 23.6602 50.3024 23.6142 50.3262 23.5592C50.8814 22.602 51.4411 21.6482 52.0053 20.6978C52.0396 20.6395 52.0773 20.5847 52.0979 20.5504V22.5174C52.0979 23.6208 52.091 24.7266 52.0773 25.8346C52.0773 25.9682 52.1356 26.0025 52.2624 26.0025C52.8312 26.0025 53.4001 26.0025 53.9757 26.0025L54.2876 25.9956ZM33.2437 6.95979H33.2848L33.4013 7.12085C34.6418 8.83196 35.8823 10.5454 37.1228 12.261C37.1524 12.3119 37.1957 12.3534 37.2479 12.3807C37.3 12.408 37.3588 12.42 37.4175 12.4152C37.9932 12.4152 38.5723 12.4152 39.148 12.4152C39.3228 12.4152 39.3605 12.357 39.3605 12.1959C39.3605 9.22604 39.3605 6.26758 39.3605 3.32054C39.3605 3.15263 39.3057 3.10122 39.1412 3.10122C38.5312 3.10122 37.9212 3.10122 37.3113 3.10122C37.1468 3.10122 37.0885 3.1492 37.0885 3.32054C37.0885 4.8626 37.0885 6.40465 37.0885 7.94671V8.53612L36.924 8.32023C35.6904 6.63653 34.4567 4.95512 33.2231 3.27599C33.1864 3.21928 33.1354 3.17327 33.0752 3.14258C33.0151 3.1119 32.9479 3.09762 32.8804 3.10122C32.339 3.10122 31.7941 3.10122 31.2493 3.10122C31.1739 3.10122 31.0951 3.10123 31.0162 3.11836V12.3913H33.2368L33.2437 6.95979ZM42.986 21.3523C42.9995 20.7137 42.884 20.079 42.6467 19.486C42.4093 18.893 42.0548 18.354 41.6045 17.9011C41.1541 17.4481 40.6171 17.0906 40.0255 16.8499C39.4338 16.6092 38.7998 16.4902 38.1611 16.5C37.5215 16.4864 36.8858 16.6025 36.2924 16.8413C35.6989 17.0802 35.16 17.4367 34.7081 17.8896C34.2563 18.3424 33.9008 18.8821 33.6633 19.476C33.4257 20.07 33.3109 20.7059 33.3259 21.3455C33.3119 21.9832 33.4271 22.6172 33.6645 23.2093C33.9019 23.8014 34.2567 24.3394 34.7075 24.7908C35.1582 25.2422 35.6957 25.5977 36.2874 25.836C36.8792 26.0743 37.513 26.1903 38.1508 26.1772C38.7868 26.1883 39.4186 26.0716 40.0086 25.834C40.5987 25.5964 41.135 25.2429 41.5859 24.7942C42.0368 24.3455 42.3931 23.8109 42.6336 23.2221C42.8741 22.6332 42.9939 22.0021 42.986 21.366V21.3523ZM18.7655 7.73082C18.7512 8.36467 18.8643 8.99494 19.0981 9.5843C19.3318 10.1737 19.6814 10.7101 20.1262 11.1619C20.571 11.6138 21.1019 11.9717 21.6875 12.2147C22.2731 12.4576 22.9016 12.5806 23.5356 12.5763C24.1782 12.5974 24.8184 12.4873 25.4171 12.253C26.0159 12.0186 26.5606 11.6647 27.0181 11.2129C27.4757 10.7612 27.8364 10.221 28.0784 9.62527C28.3204 9.02956 28.4385 8.3908 28.4256 7.74795C28.4404 7.1118 28.3268 6.47919 28.0915 5.88797C27.8562 5.29674 27.5041 4.75904 27.0562 4.30702C26.6084 3.855 26.0739 3.49794 25.4849 3.2572C24.8959 3.01646 24.2643 2.89698 23.6281 2.9059C22.988 2.88864 22.3511 3.00135 21.7558 3.23724C21.1605 3.47312 20.6193 3.82726 20.1647 4.27826C19.7102 4.72926 19.3519 5.26775 19.1114 5.86118C18.8709 6.4546 18.7532 7.09063 18.7655 7.73082ZM77.0963 22.281H77.343C78.3711 22.281 79.3991 22.281 80.4032 22.281C80.5916 22.281 80.643 22.2262 80.6396 22.0411C80.6396 21.5442 80.6396 21.0473 80.6396 20.5539C80.6396 20.3517 80.5951 20.2866 80.386 20.29C79.358 20.29 78.3574 20.29 77.3465 20.29H77.0963V19.0838C77.0963 18.8131 77.0963 18.8096 77.367 18.8096H81.3729C81.558 18.8096 81.6334 18.7685 81.63 18.5663C81.63 18.0249 81.63 17.48 81.63 16.9352C81.63 16.8666 81.63 16.7947 81.6094 16.7227H74.8723V25.9751H81.6916C81.6916 25.8791 81.6916 25.8003 81.6916 25.7215C81.6916 25.204 81.6916 24.6934 81.6916 24.1726C81.6916 23.8881 81.6916 23.8881 81.4004 23.8881H77.4081C77.3494 23.9003 77.2887 23.9003 77.23 23.8881C77.1751 23.8676 77.1032 23.8093 77.1032 23.7648C77.0929 23.2816 77.0963 22.8087 77.0963 22.2844V22.281ZM31.8798 19.0084C31.3486 17.7987 29.529 16.2293 27.0275 16.5514C25.865 16.6872 24.7944 17.2502 24.0237 18.1311C23.2531 19.012 22.8372 20.1478 22.8571 21.318C22.8188 22.4895 23.2191 23.6331 23.9797 24.5249C24.7403 25.4167 25.8064 25.9925 26.9692 26.1395C29.2994 26.4822 31.3315 25.1321 32.0271 23.4529C32.0271 23.4529 31.9963 23.4221 31.9792 23.4187C31.2938 23.2371 30.6085 23.052 29.9025 22.8807C29.8657 22.8801 29.8293 22.8875 29.7956 22.9023C29.7619 22.9171 29.7317 22.9389 29.7072 22.9663C29.3917 23.3714 28.961 23.6717 28.4718 23.8276C27.9825 23.9836 27.4576 23.9879 26.9658 23.8402C25.9035 23.5969 25.2764 22.771 25.1941 21.6265C25.1171 20.9679 25.2709 20.303 25.6293 19.7451C25.8276 19.4766 26.0774 19.2503 26.3642 19.0795C26.651 18.9086 26.9689 18.7966 27.2994 18.75C27.63 18.7034 27.9665 18.7232 28.2893 18.8082C28.6121 18.8931 28.9147 19.0416 29.1795 19.2448C29.3262 19.3796 29.5089 19.4689 29.7054 19.5017C29.9019 19.5346 30.1038 19.5096 30.2863 19.4299C30.8278 19.2688 31.3555 19.1489 31.8798 19.0118V19.0084ZM59.1296 23.0931C59.4929 23.0931 59.815 23.0931 60.1577 23.0931C60.5586 23.0864 60.959 23.059 61.3571 23.0109C62.1042 22.9249 62.7982 22.5821 63.3206 22.0411C63.6124 21.7158 63.8318 21.3322 63.9641 20.9157C64.0964 20.4992 64.1387 20.0593 64.0882 19.6252C64.0775 19.1049 63.9234 18.5976 63.6429 18.1592C63.3623 17.7208 62.9662 17.3684 62.4982 17.1408C61.9792 16.8708 61.404 16.7265 60.8191 16.7193C59.5648 16.7022 58.3106 16.7193 57.0496 16.7193C56.8885 16.7193 56.8611 16.781 56.8611 16.9215C56.8611 19.8914 56.8611 22.8555 56.8611 25.814C56.8611 25.9613 56.9022 26.0128 57.053 26.0093C57.6733 26.0093 58.2901 26.0093 58.9069 26.0093C59.0851 26.0093 59.1365 25.9613 59.1331 25.7832C59.1331 24.9813 59.1331 24.176 59.1331 23.3844L59.1296 23.0931ZM65.4281 16.7159C65.4281 16.8015 65.4281 16.8701 65.4281 16.9352C65.4281 17.4766 65.4281 18.0215 65.4281 18.5629C65.4281 18.7617 65.4932 18.8131 65.6817 18.8131C66.4527 18.8131 67.2237 18.8131 67.9948 18.8131C68.173 18.8131 68.2381 18.8542 68.2346 19.0495C68.2346 21.2735 68.2346 23.5043 68.2346 25.7283V25.9888H70.4758V19.0906C70.4758 18.8131 70.4757 18.8096 70.7636 18.8096H73.015C73.1007 18.8096 73.1863 18.8096 73.2754 18.8096V16.733L65.4281 16.7159Z" fill="#87898F"/>
<path d="M39.1072 35.2171L38.9907 35.3919C38.4355 36.3411 37.8735 37.2869 37.3252 38.2396C37.2947 38.3028 37.2454 38.3551 37.1841 38.3895C37.1228 38.4238 37.0525 38.4385 36.9826 38.4315C36.7324 38.4315 36.4857 38.4315 36.2355 38.4315C36.1764 38.4371 36.1171 38.4243 36.0655 38.3948C36.014 38.3654 35.9728 38.3207 35.9477 38.267C35.3925 37.3109 34.8305 36.3582 34.272 35.4056C34.2331 35.3331 34.175 35.2726 34.104 35.2308C34.104 35.3645 34.104 35.4981 34.104 35.6318C34.104 36.2212 34.1486 36.8106 34.152 37.4C34.152 38.428 34.152 39.4389 34.152 40.4601C34.152 40.7206 34.152 40.724 33.8813 40.724C33.3296 40.724 32.7779 40.724 32.2296 40.724C32.0514 40.724 32 40.6623 32 40.4909C32 37.5508 32 34.6129 32 31.6772C32 31.5059 32.0548 31.4614 32.2193 31.4648C32.7779 31.4648 33.333 31.4648 33.8916 31.4648C33.9467 31.4592 34.0022 31.4706 34.0507 31.4976C34.0991 31.5246 34.138 31.5657 34.1623 31.6156C34.9482 32.904 35.7341 34.1914 36.5199 35.4775C36.5474 35.5221 36.5782 35.5632 36.6227 35.6249L36.7393 35.4433C37.5206 34.1617 38.3042 32.8812 39.09 31.6018C39.1209 31.547 39.1928 31.4751 39.2442 31.4751C39.8953 31.4751 40.543 31.4751 41.2146 31.4751C41.2146 31.5607 41.2146 31.6327 41.2146 31.7047C41.2146 34.6266 41.2146 37.5508 41.2146 40.4772C41.2146 40.6657 41.1701 40.7343 40.9713 40.7308C40.3956 40.7308 39.8165 40.7308 39.2408 40.7308C39.1277 40.7308 39.0523 40.7308 39.0523 40.5698C39.0523 39.6651 39.0523 38.7604 39.0523 37.8523C39.0523 37.023 39.1003 36.1938 39.1243 35.361C39.1277 35.3223 39.1277 35.2833 39.1243 35.2445L39.1072 35.2171Z" fill="#87898F"/>
<path d="M75.6134 31.4716C76.2987 31.4716 76.9464 31.4716 77.6043 31.4716C77.6591 31.4716 77.7243 31.5402 77.7654 31.595L81.4252 36.5707C81.5026 36.6844 81.5987 36.7841 81.7096 36.8654C81.7096 36.79 81.7096 36.7146 81.7096 36.6392C81.7096 35.0058 81.7096 33.3701 81.7096 31.7321C81.7096 31.4648 81.7096 31.4648 81.9701 31.4648H83.6389C83.8959 31.4648 83.8993 31.4648 83.8993 31.7321V38.3903C83.8993 39.0757 83.8993 39.761 83.8993 40.4464C83.8993 40.6349 83.8514 40.7068 83.6526 40.7034C83.1077 40.7034 82.5663 40.7034 82.0215 40.7034C81.9538 40.7089 81.8859 40.6954 81.8254 40.6646C81.7648 40.6337 81.7141 40.5867 81.6788 40.5287C80.4451 38.8175 79.2069 37.1041 77.9641 35.3885C77.9189 35.3218 77.8576 35.2676 77.7859 35.2308V40.4293C77.7859 40.6863 77.7859 40.6897 77.5186 40.6897C76.9498 40.6897 76.381 40.6897 75.8053 40.6897C75.6442 40.6897 75.5859 40.6486 75.5859 40.4738C75.5859 37.5222 75.5859 34.5717 75.5859 31.6224C75.6031 31.6053 75.6099 31.5539 75.6134 31.4716Z" fill="#87898F"/>
<path d="M73.8551 36.1046C73.8677 36.7381 73.7522 37.3676 73.5155 37.9554C73.2789 38.5431 72.926 39.077 72.4779 39.525C72.0299 39.9731 71.496 40.326 70.9083 40.5626C70.3205 40.7993 69.691 40.9147 69.0576 40.9022C68.42 40.9159 67.7863 40.7998 67.195 40.5608C66.6038 40.3217 66.0674 39.9648 65.6185 39.5118C65.1697 39.0588 64.8178 38.5191 64.5842 37.9257C64.3507 37.3323 64.2404 36.6975 64.2601 36.0601C64.2517 35.4292 64.3702 34.803 64.6088 34.2189C64.8473 33.6348 65.2008 33.1046 65.6484 32.6599C66.096 32.2152 66.6285 31.865 67.2142 31.6303C67.7998 31.3955 68.4267 31.281 69.0576 31.2934C69.692 31.2818 70.3222 31.3983 70.9104 31.6362C71.4987 31.874 72.0328 32.2282 72.4808 32.6775C72.9288 33.1268 73.2815 33.6619 73.5176 34.2508C73.7538 34.8397 73.8686 35.4703 73.8551 36.1046ZM71.5865 36.1046C71.5718 35.8979 71.5466 35.692 71.5111 35.4878C71.261 34.2747 70.5345 33.5928 69.2906 33.466C68.7438 33.3877 68.1868 33.5035 67.7166 33.7934C67.2464 34.0833 66.8927 34.5289 66.7171 35.0526C66.5781 35.4647 66.5234 35.9006 66.556 36.3342C66.6828 38.2772 68.3962 39.1065 69.9828 38.5754C70.9766 38.2533 71.5728 37.3006 71.5865 36.1184V36.1046Z" fill="#87898F"/>
<path d="M16.3234 31.3037C16.9567 31.2916 17.586 31.4074 18.1735 31.6443C18.761 31.8811 19.2947 32.234 19.7427 32.6819C20.1906 33.1298 20.5435 33.6636 20.7803 34.2511C21.0172 34.8386 21.133 35.4679 21.1209 36.1012C21.1311 36.7341 21.0139 37.3625 20.7764 37.9491C20.5389 38.5358 20.1859 39.0687 19.7384 39.5163C19.2909 39.9638 18.7579 40.3168 18.1713 40.5543C17.5846 40.7918 16.9562 40.9089 16.3234 40.8987C15.6834 40.9074 15.0483 40.7863 14.4564 40.5426C13.8646 40.299 13.3283 39.9378 12.8799 39.4811C12.4315 39.0244 12.0803 38.4815 11.8476 37.8853C11.6149 37.2891 11.5054 36.6519 11.5259 36.0121C11.5267 35.3865 11.652 34.7673 11.8945 34.1906C12.137 33.6139 12.4918 33.0912 12.9383 32.653C13.3848 32.2148 13.9141 31.8698 14.4952 31.6381C15.0764 31.4065 15.6978 31.2928 16.3234 31.3037ZM16.3439 33.466C15.7832 33.4485 15.2333 33.6225 14.7847 33.9595C13.9109 34.6688 13.7122 35.6181 13.8766 36.6735C13.9463 37.2171 14.2029 37.7195 14.6024 38.0947C15.0019 38.4698 15.5195 38.6943 16.0664 38.7296C16.5681 38.7955 17.0779 38.7039 17.5254 38.4676C17.9729 38.2312 18.336 37.8618 18.5645 37.4103C18.8002 36.8973 18.8926 36.3301 18.8318 35.7688C18.8068 35.1337 18.5308 34.5345 18.0643 34.1027C17.5979 33.6709 16.9791 33.4419 16.3439 33.466Z" fill="#87898F"/>
<path d="M22.9034 31.4716C24.0685 31.4716 25.2096 31.4476 26.3507 31.4716C26.8715 31.4852 27.3885 31.5646 27.8894 31.7081C28.466 31.8479 28.9836 32.1665 29.3683 32.6182C29.7529 33.07 29.9849 33.6318 30.0311 34.2233C30.1716 35.5187 29.7364 36.6221 28.4925 37.2526L28.3931 37.3246C29.0785 38.4417 29.7295 39.552 30.4149 40.6931C30.3418 40.6969 30.2686 40.6969 30.1956 40.6931C29.5102 40.6931 28.8249 40.6931 28.1635 40.6931C28.101 40.698 28.0385 40.6835 27.9846 40.6516C27.9306 40.6197 27.8878 40.572 27.8619 40.5149C27.3616 39.6274 26.8339 38.7467 26.3542 37.8557C26.3261 37.7907 26.2772 37.7369 26.2151 37.7028C26.1531 37.6686 26.0814 37.6561 26.0115 37.6673C25.7099 37.6673 25.4084 37.6673 25.0862 37.6673C25.0862 37.7666 25.0862 37.8455 25.0862 37.9208C25.0862 38.7673 25.0862 39.6137 25.0862 40.4567C25.0862 40.628 25.0485 40.6931 24.8669 40.6897C24.2844 40.6897 23.6984 40.6897 23.1158 40.6897C22.9479 40.6897 22.8828 40.6486 22.8828 40.4635C22.8828 37.5199 22.8828 34.5763 22.8828 31.6327C22.8931 31.6121 22.9 31.5539 22.9034 31.4716ZM25.0897 33.5277C25.0897 34.2508 25.0897 34.9532 25.0897 35.6557C25.0897 35.69 25.1651 35.7517 25.2062 35.7517C25.7613 35.7517 26.3199 35.7517 26.8716 35.714C27.1393 35.6797 27.3827 35.5415 27.5494 35.3293C27.7161 35.1171 27.7926 34.8479 27.7626 34.5797C27.7609 34.3149 27.66 34.0603 27.4798 33.8662C27.2997 33.6721 27.0533 33.5525 26.7894 33.5311C26.2376 33.5243 25.6791 33.5414 25.0897 33.5414V33.5277Z" fill="#87898F"/>
<path d="M51.9472 40.724H51.2618C50.7786 40.724 50.2955 40.724 49.8123 40.724C49.7437 40.7349 49.6736 40.7184 49.6172 40.6779C49.5607 40.6375 49.5225 40.5765 49.5107 40.5081C49.3942 40.1449 49.2469 39.7919 49.1235 39.4286C49.1127 39.3736 49.0809 39.325 49.0348 39.293C48.9888 39.2611 48.9321 39.2482 48.8768 39.2573C47.7688 39.2573 46.6619 39.2573 45.5562 39.2573C45.5003 39.251 45.444 39.2657 45.3984 39.2987C45.3528 39.3316 45.3211 39.3804 45.3095 39.4355C45.1793 39.8159 45.0456 40.1928 44.8983 40.5663C44.8833 40.6026 44.86 40.6349 44.8302 40.6605C44.8004 40.6861 44.7651 40.7043 44.7269 40.7137C44.0107 40.7137 43.2911 40.7137 42.5715 40.7137C42.5458 40.7075 42.5206 40.6995 42.4961 40.6897C42.5201 40.6177 42.5406 40.5492 42.5681 40.4841C43.7423 37.5393 44.9188 34.5946 46.0976 31.6498C46.1123 31.5896 46.1489 31.537 46.2002 31.5022C46.2514 31.4673 46.3138 31.4528 46.3752 31.4614C46.9441 31.4614 47.5163 31.4614 48.0886 31.4614C48.1401 31.4533 48.1927 31.4642 48.2367 31.4919C48.2808 31.5196 48.3134 31.5623 48.3285 31.6121C49.5142 34.582 50.7033 37.5588 51.8958 40.5424C51.9026 40.5903 51.9163 40.628 51.9472 40.724ZM47.2114 34.1754L46.0942 37.3315H48.3319L47.2114 34.1754Z" fill="#87898F"/>
<path d="M6.31383 33.538V35.3713H9.68922C9.68922 35.4467 9.68922 35.4981 9.68922 35.5495C9.68922 36.0807 9.68922 36.6084 9.68922 37.1395C9.68922 37.304 9.63439 37.3451 9.48361 37.3451C8.51725 37.3451 7.5509 37.3451 6.58455 37.3451C6.27956 37.3451 6.27956 37.3452 6.27956 37.657V40.4532C6.27956 40.724 6.27957 40.724 6.01913 40.7274C5.46056 40.7274 4.90542 40.7274 4.34685 40.7274C4.13782 40.7274 4.08984 40.6589 4.08984 40.4601C4.08984 37.5451 4.08984 34.6277 4.08984 31.7081C4.08984 31.5333 4.12411 31.4648 4.32286 31.4648C6.3618 31.4648 8.40074 31.4648 10.4431 31.4648C10.6144 31.4648 10.6761 31.5025 10.6727 31.6841C10.6727 32.2324 10.6727 32.7841 10.6727 33.3358C10.6727 33.49 10.6247 33.538 10.4637 33.538C9.16492 33.538 7.86274 33.538 6.56056 33.538H6.31383Z" fill="#87898F"/>
<path d="M56.2413 33.5311V40.4087C56.2413 40.724 56.2413 40.724 55.9192 40.724C55.3812 40.724 54.8466 40.724 54.3086 40.724C54.0996 40.724 54.0516 40.6589 54.0516 40.4601C54.0516 38.2601 54.0516 36.0601 54.0516 33.8601V33.538H51.2656V31.4819H59.0616V33.538L56.2413 33.5311Z" fill="#87898F"/>
<path d="M60.3242 36.091C60.3242 34.6346 60.3242 33.1782 60.3242 31.7252C60.3242 31.5299 60.3653 31.4579 60.5778 31.4648C61.1329 31.4648 61.6915 31.4648 62.2466 31.4648C62.5139 31.4648 62.5139 31.4648 62.5139 31.7218V40.4327C62.5139 40.7137 62.5139 40.7171 62.2227 40.7171C61.6675 40.7171 61.109 40.7171 60.5538 40.7171C60.3756 40.7171 60.3242 40.6589 60.3242 40.4841C60.3276 39.0277 60.3242 37.5439 60.3242 36.091Z" fill="#87898F"/>
<path d="M35.6822 21.3112C35.6654 20.8674 35.7608 20.4266 35.9597 20.0296C36.1271 19.6758 36.3852 19.3727 36.7079 19.1511C37.0306 18.9296 37.4062 18.7976 37.7965 18.7685C38.2337 18.6904 38.684 18.7353 39.0973 18.898C39.5105 19.0608 39.8704 19.3351 40.137 19.6903C40.8977 20.7184 40.8429 22.7504 39.5681 23.5557C39.1834 23.8119 38.7365 23.9589 38.2749 23.9812C37.8133 24.0036 37.3543 23.9003 36.9466 23.6825C36.0625 23.2405 35.7096 22.4455 35.6719 21.4894C35.6822 21.438 35.6822 21.3969 35.6822 21.3112Z" fill="#87898F"/>
<path d="M26.0823 7.73082C26.097 8.21572 25.986 8.69618 25.7602 9.12553C25.5206 9.55249 25.1561 9.89591 24.7157 10.1097C24.2753 10.3235 23.78 10.3974 23.2963 10.3215C21.8056 10.1638 21.1306 8.97475 21.1237 7.7925C21.0993 7.22009 21.246 6.6534 21.5452 6.16478C21.8104 5.77219 22.1846 5.46571 22.6218 5.28306C23.0589 5.1004 23.54 5.04954 24.0056 5.13674C25.2667 5.33207 26.0823 6.36011 26.0823 7.73082Z" fill="#87898F"/>
<path d="M59.1289 20.9788V19.6663C59.1289 19.4333 59.1289 19.1969 59.1289 18.9639C59.1289 18.9124 59.2009 18.8199 59.2351 18.8199C59.7842 18.806 60.3335 18.8267 60.88 18.8816C61.466 18.9639 61.747 19.3853 61.7264 19.9885C61.7097 20.231 61.6077 20.4598 61.4383 20.6342C61.2689 20.8086 61.0431 20.9174 60.8012 20.9411C60.7025 20.9587 60.603 20.9713 60.5031 20.9788H59.1289Z" fill="#87898F"/>
</g>
<defs>
<clipPath id="clip0_491_384177">
<rect width="88" height="44.1988" fill="white" transform="translate(0 0.390636)"/>
</clipPath>
</defs>
</svg>
