<svg width="86" height="69" viewBox="0 0 86 69" fill="none" xmlns="http://www.w3.org/2000/svg">
<g clip-path="url(#clip0_491_384103)">
<path d="M59.62 8.40423C58.5741 8.1611 57.519 7.83997 56.4409 7.684C53.115 7.22525 49.8762 7.50968 46.8072 9.02354C45.3429 9.746 44.0415 10.7599 42.9829 12.0031C41.9243 13.2463 41.1307 14.6926 40.6509 16.2534C39.3978 19.8885 39.2985 23.8219 40.3664 27.5156C41.9583 33.1077 46.665 36.6905 52.5783 37.0071C54.8608 37.1814 57.1566 36.9957 59.3815 36.4566C54.505 42.6496 45.4081 46.393 36.068 43.6956C31.4446 42.3905 27.3702 39.6191 24.4579 35.7985C21.5457 31.9778 19.9532 27.3146 19.9201 22.5107C19.8537 17.7458 21.323 13.0861 24.1106 9.22119C26.8982 5.35625 30.8559 2.49139 35.3982 1.05053C44.8025 -1.87627 54.4132 1.64232 59.62 8.40423Z" fill="#87898F"/>
<path d="M63.8871 27.7633C63.3458 28.1808 62.7678 28.5661 62.2586 29.0249C60.7585 30.3736 59.2675 31.7544 57.3316 32.4471C52.0515 34.3647 47.1383 31.1534 46.6153 25.4788C46.6153 25.2907 46.574 25.098 46.5603 24.9053C46.5144 23.9878 46.7392 23.7539 47.6796 23.7539C51.8083 23.7539 55.9829 23.7539 60.1392 23.7539C61.5659 23.7539 62.9971 23.6667 64.5752 23.6162C64.355 24.9925 64.1165 26.3687 63.8917 27.7908L63.8871 27.7633Z" fill="#87898F"/>
<path d="M53.5528 20.2766H47.5891C46.6716 20.2766 46.4284 19.9692 46.5477 19.0884C46.6999 17.6283 47.1696 16.2191 47.924 14.9597C49.5341 12.4137 51.9334 11.5742 54.8051 11.9595C57.6769 12.3449 59.4247 14.111 60.2459 16.8222C60.4603 17.581 60.6137 18.3557 60.7046 19.1389C60.8239 20.0013 60.5716 20.2582 59.677 20.2628C57.6264 20.2812 55.5896 20.2766 53.5528 20.2766Z" fill="#87898F"/>
<path d="M52.8974 57.2194C53.4895 56.5712 54.2638 56.1174 55.1186 55.9177C55.9734 55.7179 56.8687 55.7815 57.6867 56.1001C58.2685 56.3163 58.7741 56.6984 59.141 57.199C59.5079 57.6997 59.72 58.2969 59.7511 58.9168C59.93 60.9857 59.93 63.0684 60.0034 65.2062H58.3473C58.3473 63.7703 58.3473 62.3619 58.3473 60.9536C58.3428 60.5227 58.3152 60.0924 58.2647 59.6645C58.1042 58.2883 57.3472 57.6047 55.971 57.6369C54.5948 57.669 53.8241 58.3387 53.7644 59.7563C53.7048 61.261 53.7644 62.7748 53.7369 64.2841V65.2016H52.0717C52.0717 63.4583 52.0992 61.761 52.0717 60.0636C52.0304 58.1965 50.9798 57.38 49.1357 57.724C48.7238 57.7675 48.3419 57.9596 48.0615 58.2645C47.7811 58.5694 47.6215 58.966 47.6126 59.3801C47.5163 60.4536 47.5255 61.5316 47.5025 62.5913C47.5025 63.4308 47.5025 64.2657 47.5025 65.1741H45.8281C45.9153 62.9996 45.9153 60.8251 46.1263 58.669C46.1674 58.0233 46.4217 57.4094 46.8493 56.9237C47.2768 56.438 47.8535 56.108 48.4889 55.9854C50.0165 55.6367 51.5028 55.7055 52.6864 56.9533L52.8974 57.2194Z" fill="#87898F"/>
<path d="M1.54594 65.3117V68.9816H0.0229056C0.0229056 65.697 -0.0459099 62.4675 0.0550142 59.2425C0.0963013 57.8662 0.761483 56.6047 2.23406 56.1551C3.70663 55.7055 5.32601 55.6138 6.5371 56.8432C7.08661 57.406 7.44735 58.1259 7.56928 58.903C7.72371 60.1237 7.69589 61.3605 7.48671 62.573C7.161 64.33 5.8765 65.2337 4.07822 65.2704C3.27083 65.3254 2.45884 65.3117 1.54594 65.3117ZM1.41291 63.4767C2.49096 63.4767 3.37634 63.5272 4.25713 63.4767C4.66059 63.4852 5.05321 63.3458 5.36086 63.0846C5.66851 62.8234 5.86989 62.4587 5.92697 62.0592C6.05539 61.1201 6.05539 60.1678 5.92697 59.2287C5.76182 58.1461 5.00947 57.7286 3.73416 57.7378C2.55059 57.7378 1.77073 58.2286 1.64228 59.2792C1.47713 60.6187 1.4863 62.0087 1.41291 63.4675V63.4767Z" fill="#87898F"/>
<path d="M62.9202 65.3117V68.9816H61.3329C61.3329 68.7293 61.3008 68.5 61.3008 68.266C61.3008 65.7246 61.3008 63.1831 61.3008 60.6416C61.2999 60.116 61.3428 59.5912 61.4292 59.0727C61.8421 56.6047 63.4202 55.7606 65.6222 55.9028C67.604 56.0313 68.705 56.9717 68.971 58.9213C69.1379 60.1493 69.1069 61.3961 68.8793 62.6142C68.549 64.3483 67.2278 65.2612 65.4479 65.2887C64.6405 65.3209 63.8285 65.3117 62.9202 65.3117ZM63.0349 63.4767C63.9523 63.4767 64.8698 63.5226 65.7369 63.4767C66.1506 63.4749 66.5488 63.3187 66.8535 63.0387C67.1581 62.7586 67.3472 62.375 67.3838 61.9628C67.4989 61.204 67.5282 60.4345 67.4709 59.6691C67.3654 58.3433 66.7048 57.7561 65.4433 57.724C63.9294 57.6827 63.1862 58.1828 63.0578 59.5957C62.9477 60.8481 63.0349 62.1188 63.0349 63.4675V63.4767Z" fill="#87898F"/>
<path d="M43.1336 62.8849L44.2438 63.94C42.6015 65.9906 38.459 65.9539 37.2433 63.596C36.5589 62.1772 36.3965 60.5627 36.7846 59.036C37.3488 56.3661 39.9178 55.1092 42.3813 56.2836C43.9318 57.0267 44.3676 58.4534 44.5098 60.0223C44.542 60.371 44.5098 60.7288 44.5098 61.1738H38.5783C38.4688 61.6094 38.504 62.0687 38.6786 62.4825C38.8532 62.8963 39.1578 63.2421 39.5462 63.4675C40.5463 64.0731 41.8766 63.8712 43.1336 62.8849ZM38.5003 59.848H42.629C42.6565 58.3112 41.8216 57.3937 40.482 57.4258C39.2021 57.4579 38.4039 58.4259 38.5003 59.848Z" fill="#87898F"/>
<path d="M29.4737 62.8941L30.7307 64.0501C30.0013 64.4676 29.4003 64.9951 28.7076 65.1741C25.8955 65.9035 22.9045 65.0502 22.9779 60.6279C22.9941 59.7449 23.1729 58.8725 23.5054 58.0543C23.7961 57.3206 24.3265 56.7068 25.0103 56.3128C25.6942 55.9188 26.4912 55.7679 27.2718 55.8844C28.0717 55.9147 28.8378 56.2151 29.4451 56.7366C30.0525 57.2581 30.4652 57.97 30.616 58.7562C30.7903 59.5131 30.8224 60.3022 30.9325 61.1784H24.7991C24.8312 62.2335 25.1019 63.0913 26.0377 63.518C27.2672 64.0868 28.4186 63.8345 29.4737 62.8941ZM28.9599 59.8572C29.0379 58.4076 28.1617 57.4167 26.8726 57.4258C25.5836 57.435 24.7349 58.4167 24.8542 59.8572H28.9599Z" fill="#87898F"/>
<path d="M8.88672 60.5132C8.96471 59.9214 9.0014 59.3205 9.12985 58.7424C9.47391 57.1139 10.451 56.1138 12.1392 55.912C14.5568 55.6275 16.2679 56.5772 16.6304 59.1003C16.7702 60.0939 16.7702 61.1022 16.6304 62.0959C16.2634 64.674 14.4146 65.5319 12.1713 65.2475C10.1529 64.9951 9.07022 63.6189 8.96012 61.3802C8.96012 61.0958 8.96012 60.8068 8.96012 60.5178L8.88672 60.5132ZM15.144 60.6004C15.144 60.3389 15.144 60.0728 15.144 59.8113C15.0385 58.3984 14.355 57.7286 13.0154 57.7057C11.5199 57.6781 10.8135 58.2653 10.685 59.7333C10.6299 60.4012 10.6437 61.073 10.7263 61.7381C10.7559 62.2134 10.9691 62.6587 11.3209 62.9797C11.6728 63.3007 12.1357 63.4724 12.6117 63.4583C14.2449 63.573 15.0752 62.8299 15.1532 61.1646C15.1532 60.9995 15.144 60.8068 15.144 60.6141V60.6004Z" fill="#87898F"/>
<path d="M83.0124 60.5132C82.9252 61.2747 82.916 61.8344 82.7968 62.3482C82.338 64.3804 81.1223 65.3209 79.0075 65.3117C76.989 65.3117 75.622 64.2933 75.3375 62.2977C75.1708 61.0233 75.2064 59.7305 75.4431 58.4672C75.7412 56.8111 77.1129 55.9074 78.9341 55.8661C80.8654 55.8248 82.1453 56.6276 82.627 58.3066C82.8019 59.0333 82.9306 59.7703 83.0124 60.5132ZM81.3334 60.6279H81.3792C81.3196 60.1691 81.2967 59.6737 81.1911 59.2104C80.9709 58.2378 80.2737 57.7607 79.1727 57.7424C77.8744 57.7148 77.1312 58.0773 76.9799 59.1186C76.8353 60.1514 76.8492 61.2003 77.0211 62.2289C77.1087 62.4805 77.2489 62.7105 77.4324 62.9035C77.616 63.0965 77.8386 63.2481 78.0854 63.3482C79.7874 64.0547 81.2462 63.0547 81.3288 61.2197C81.3379 60.9949 81.3334 60.8022 81.3334 60.6095V60.6279Z" fill="#87898F"/>
<path d="M64.5892 23.2034C64.7576 18.0884 63.2231 13.0622 60.2266 8.91343C61.8679 9.59978 63.3133 10.6827 64.4333 12.065C66.3449 14.3775 67.3117 17.3271 67.1399 20.3225C67.0435 22.1024 66.2315 23.0107 64.5892 23.2034Z" fill="#87898F"/>
<path d="M18.2147 52.1273H19.7698V61.3848C19.7698 62.8253 20.1506 63.2198 21.6048 63.385C21.8388 63.4079 22.0636 63.4492 22.3113 63.4813V65.1511C19.8754 65.5181 18.2101 64.2015 18.1826 61.8114C18.1321 58.7195 18.1826 55.6275 18.1826 52.5356C18.1734 52.4209 18.1963 52.3062 18.2147 52.1273Z" fill="#87898F"/>
<path d="M74.5161 63.495C74.5161 63.729 74.5391 63.9538 74.5436 64.1556C74.5436 64.4859 74.5436 64.8162 74.5436 65.1374C74.1009 65.2512 73.6395 65.2726 73.1882 65.2002C72.7369 65.1278 72.3053 64.9631 71.9205 64.7164C71.5356 64.4697 71.2057 64.1464 70.9514 63.7666C70.6971 63.3867 70.5239 62.9585 70.4424 62.5087C70.4067 62.3211 70.3868 62.1308 70.3828 61.9399C70.3828 58.7011 70.3828 55.467 70.3828 52.1686H71.9655C71.9655 52.4301 72.0022 52.7053 72.0022 52.9806C72.0022 55.7331 72.0022 58.4488 72.0022 61.183C72.0022 62.8849 72.3462 63.2565 74.0711 63.4354C74.2088 63.4492 74.3464 63.4721 74.5161 63.495Z" fill="#87898F"/>
<path d="M63.8691 27.7817C64.0572 27.745 64.2453 27.6991 64.438 27.6807C65.6353 27.5615 66.4611 28.378 66.25 29.5616C66.143 30.1741 65.9353 30.7647 65.6353 31.3094C64.3508 33.6032 62.3553 35.117 59.9102 36.0896C61.7827 33.61 63.1355 30.7781 63.8875 27.7633L63.8691 27.7817Z" fill="#87898F"/>
<path d="M85.7703 65.2199H84.2656V55.9257H85.7703V65.2199Z" fill="#87898F"/>
<path d="M16.1395 54.0586L15.4192 55.0082L12.7585 53.5357L10.1207 54.9945L9.38672 54.0541L12.7493 52.164L16.1395 54.0586Z" fill="#87898F"/>
<path d="M84.2773 53.9256V52.187H85.8325V53.9256H84.2773Z" fill="#87898F"/>
</g>
<defs>
<clipPath id="clip0_491_384103">
<rect width="85.8314" height="69" fill="white"/>
</clipPath>
</defs>
</svg>
