<svg width="58" height="58" viewBox="0 0 58 58" fill="none" xmlns="http://www.w3.org/2000/svg">
<g clip-path="url(#clip0_491_384095)">
<path d="M57.9411 57.9999H0.00390625V0.0530988C0.0876104 0.023628 0.177479 0.0161389 0.264906 0.0313487H57.668C57.9991 0.0313487 57.964 -0.00369283 57.964 0.327391V57.7389C57.9782 57.8265 57.9703 57.9162 57.9411 57.9999Z" fill="#87898F"/>
<path d="M57.9394 57.9999V0.369681C57.9394 0.0530979 57.9394 0.0530976 57.6228 0.0530976H0.00222266C0.0130977 0.0385976 -0.0219439 0.00355618 0.0263894 0.00476452C0.0747228 0.00597285 0.154473 0.00476452 0.219723 0.00476452C19.3984 0.00476452 38.5779 0.00476452 57.7581 0.00476452C57.9539 0.00476452 57.9926 0.043431 57.9926 0.239181C57.9861 19.4227 57.9833 38.6054 57.9841 57.7873C57.9841 57.8537 58.0433 57.9468 57.9394 57.9999Z" fill="white"/>
<path d="M45.5081 18.2192C46.1038 15.788 46.685 13.4173 47.2663 11.0477C47.6058 9.6666 47.9465 8.28789 48.2788 6.90556C48.3151 6.75935 48.3767 6.71947 48.5205 6.71947C51.344 6.72431 54.1683 6.72431 56.9933 6.71947C57.1794 6.71947 57.2145 6.77385 57.2145 6.94906C57.2096 13.5321 57.2096 20.1151 57.2145 26.6981C57.2145 26.8576 57.1879 26.918 57.009 26.9168C55.199 26.9095 53.3865 26.9095 51.5715 26.9168C51.3722 26.9168 51.3589 26.8419 51.3601 26.6811C51.3601 22.8741 51.3601 19.0674 51.3601 15.2612V14.802L51.3226 14.7875C51.3021 14.854 51.2803 14.9192 51.261 14.9845C50.1332 18.8777 49.0054 22.771 47.8777 26.6642C47.8257 26.8431 47.7629 26.9192 47.555 26.918C46.18 26.9059 44.8041 26.9059 43.4274 26.918C43.3914 26.9241 43.3546 26.9229 43.3192 26.9142C43.2838 26.9056 43.2505 26.8899 43.2214 26.8679C43.1923 26.8459 43.168 26.8183 43.1501 26.7866C43.1321 26.7548 43.1208 26.7198 43.1168 26.6836C41.9891 22.7895 40.8613 18.8959 39.7335 15.0026C39.7162 14.9234 39.6792 14.8499 39.626 14.7887V15.0666C39.626 18.9212 39.626 22.7758 39.626 26.6304C39.626 26.866 39.5667 26.9192 39.336 26.918C37.5573 26.9083 35.779 26.9083 34.0012 26.918C33.7595 26.918 33.6846 26.8745 33.6846 26.6135C33.6846 21.7366 33.6737 16.8598 33.6737 11.983C33.6737 11.7413 33.6205 11.6797 33.374 11.6797C30.7101 11.691 28.0465 11.691 25.3833 11.6797C25.1864 11.6797 25.1272 11.722 25.1308 11.9214C25.1441 12.7189 25.1465 13.5151 25.1308 14.3114C25.1308 14.5446 25.2057 14.5809 25.4148 14.5809C27.1125 14.5724 28.8102 14.5809 30.5079 14.5724C30.6807 14.5724 30.7495 14.5954 30.7495 14.7996C30.7383 16.2238 30.7383 17.6484 30.7495 19.0735C30.7495 19.2584 30.7 19.2994 30.5224 19.2982C28.8078 19.2982 27.0943 19.2982 25.3809 19.2898C25.1803 19.2898 25.1284 19.3393 25.1272 19.5399C25.1042 21.9143 25.068 24.2874 25.0462 26.6618C25.0462 26.866 24.9858 26.9107 24.79 26.9095C22.9236 26.9023 21.0567 26.9023 19.1894 26.9095C18.9719 26.9095 18.9248 26.8515 18.9272 26.6425C18.9369 25.4668 18.9272 24.2923 18.9272 23.1178V22.8737C18.8583 22.858 18.8535 22.9003 18.8438 22.9244C18.0898 24.6983 16.6845 25.758 14.9603 26.4636C14.037 26.8263 13.052 27.0056 12.0603 26.9917C8.66483 27.0026 5.26942 27.0171 1.87521 26.953C1.5695 26.953 1.26258 26.9349 0.958083 26.9409C0.76475 26.9409 0.703125 26.8817 0.703125 26.6799C0.710375 23.1226 0.710375 19.5653 0.703125 16.0079C0.703125 12.998 0.703125 9.98802 0.703125 6.97927C0.703125 6.76177 0.759917 6.71827 0.96775 6.71827C4.92625 6.72552 8.88596 6.68202 12.8433 6.74364C14.425 6.76902 15.8943 7.28497 17.0458 8.46189C17.8433 9.27631 18.2046 10.2816 18.2783 11.3981C18.3315 12.2077 18.2626 13.004 17.9158 13.7568C17.569 14.5096 17.0277 15.0485 16.3631 15.498C16.2701 15.5608 16.1782 15.6261 16.0876 15.6926C16.0755 15.701 16.0707 15.7179 16.0526 15.7457C17.3032 16.13 18.1708 16.9831 18.8849 18.0536C18.9286 17.9671 18.9418 17.8683 18.9224 17.7733C18.9224 14.1918 18.9224 10.6107 18.9224 7.03002C18.9224 6.67718 18.8849 6.72431 19.2317 6.72431C26.924 6.72431 34.617 6.72189 42.3109 6.71706C42.5525 6.71706 42.6178 6.79077 42.6734 7.00464C43.5853 10.6748 44.5028 14.3433 45.426 18.0101C45.455 18.0645 45.4755 18.1165 45.5081 18.2192Z" fill="white"/>
<path d="M36.6286 41.9521C37.0225 40.4884 37.4168 39.0247 37.8116 37.561C38.5849 34.6932 39.3566 31.8254 40.1267 28.9576C40.1751 28.7776 40.2596 28.745 40.4264 28.745C42.6715 28.7498 44.9165 28.7498 47.1616 28.745C47.4468 28.745 47.4468 28.745 47.3634 29.0132C45.5356 34.8591 43.7082 40.7043 41.8812 46.5486C41.4136 48.0433 40.9436 49.5356 40.4856 51.0327C40.4806 51.0689 40.4684 51.1037 40.4496 51.1351C40.4308 51.1664 40.4059 51.1936 40.3763 51.2151C40.3467 51.2365 40.3131 51.2518 40.2775 51.2599C40.2419 51.268 40.205 51.2688 40.169 51.2623C37.6976 51.2566 35.2273 51.2566 32.7583 51.2623C32.7224 51.2677 32.6857 51.2659 32.6505 51.2569C32.6153 51.2479 32.5822 51.232 32.5533 51.21C32.5243 51.1881 32.5001 51.1605 32.4819 51.129C32.4638 51.0975 32.4522 51.0627 32.4478 51.0266C30.8431 45.6415 29.2372 40.2572 27.6301 34.8736C27.5709 34.6779 27.4912 34.6199 27.2894 34.6211C25.8249 34.6308 24.3604 34.6211 22.8959 34.6211C22.5853 34.6211 22.5841 34.6211 22.5841 34.9461C22.5696 40.2813 22.5576 45.6169 22.5479 50.9529C22.5479 51.1946 22.4971 51.2611 22.2482 51.2598C20.0917 51.2478 17.9353 51.2478 15.7788 51.2598C15.5516 51.2598 15.4864 51.2127 15.4864 50.9747C15.4783 45.6234 15.4654 40.2717 15.4477 34.9196C15.4477 34.6839 15.4018 34.6138 15.1505 34.6151C13.4588 34.6283 11.7671 34.6151 10.0815 34.6259C9.89905 34.6259 9.83984 34.5897 9.83984 34.3939C9.8479 32.5911 9.8479 30.7883 9.83984 28.9854C9.83984 28.7824 9.89664 28.7365 10.0948 28.7365C17.6179 28.743 25.141 28.743 32.6641 28.7365C32.8646 28.7365 32.9347 28.7969 32.9855 28.9782C34.1576 33.2347 35.3337 37.4905 36.5138 41.7454C36.5319 41.8119 36.5573 41.8771 36.5803 41.9424L36.6286 41.9521Z" fill="white"/>
<path d="M46.3974 47.9563C46.3974 46.934 46.3974 45.9118 46.3974 44.8907C46.3974 44.7119 46.4385 44.6636 46.621 44.6648C48.6647 44.6785 50.708 44.6857 52.7508 44.6865C52.9381 44.6865 52.9925 44.7361 52.9925 44.9282C52.9853 46.9558 52.9853 48.9833 52.9925 51.0109C52.9925 51.2139 52.9345 51.2623 52.7363 51.2623C50.7015 51.255 48.6663 51.255 46.6306 51.2623C46.4385 51.2623 46.389 51.2079 46.395 51.0206C46.4023 49.9996 46.3974 48.9773 46.3974 47.9563Z" fill="white"/>
<path d="M9.3486 18.4512C10.0313 18.4512 10.7152 18.4512 11.4028 18.4995C11.7665 18.5193 12.1155 18.6496 12.4033 18.8729C12.555 18.9801 12.6802 19.1205 12.7694 19.2834C12.8586 19.4463 12.9094 19.6274 12.918 19.813C12.918 19.9495 12.9325 20.0861 12.9325 20.2226C12.9325 21.2219 12.4866 21.7451 11.4994 21.9312C11.2305 21.9824 10.9575 22.0091 10.6838 22.0109C9.5661 22.0194 8.4484 22.0109 7.32948 22.0266C7.12769 22.0266 7.07694 21.9614 7.07815 21.7656C7.08781 20.7361 7.08781 19.7062 7.07815 18.6759C7.07815 18.5031 7.10956 18.4427 7.30048 18.4464C7.97835 18.4596 8.66227 18.4512 9.3486 18.4512Z" fill="#87898F"/>
<path d="M8.98584 14.5181C8.41551 14.5181 7.84396 14.5181 7.27363 14.5181C7.11413 14.5181 7.06942 14.4721 7.07063 14.3138C7.07788 13.5018 7.07063 12.6898 7.07063 11.8778C7.07063 11.7703 7.05613 11.6761 7.22288 11.6785C8.48438 11.7026 9.74588 11.6386 11.0062 11.7316C11.1832 11.7436 11.3571 11.7844 11.5209 11.8525C12.1178 12.105 12.3547 12.5775 12.2459 13.2868C12.1505 13.9368 11.7118 14.361 11.0473 14.4456C10.9273 14.4658 10.8063 14.4787 10.6848 14.4842C10.1144 14.4842 9.54409 14.4842 8.97375 14.4842L8.98584 14.5181Z" fill="#87898F"/>
</g>
<defs>
<clipPath id="clip0_491_384095">
<rect width="58" height="58" fill="white"/>
</clipPath>
</defs>
</svg>
