<svg width="120" height="39" viewBox="0 0 120 39" fill="none" xmlns="http://www.w3.org/2000/svg">
<g clip-path="url(#clip0_491_384142)">
<path d="M119.994 0.644922V34.3325C119.927 34.4073 119.844 34.4657 119.752 34.5033C119.659 34.5408 119.559 34.5564 119.459 34.5488C119.158 34.5488 118.86 34.5488 118.559 34.5488H1.48557C1.15237 34.5488 0.819178 34.5488 0.490956 34.5363C0.162734 34.5239 -0.00635383 34.3847 0.0135384 34.039C0.0135384 33.9396 0.0135384 33.8401 0.0135384 33.7407V1.21185C0.0135384 0.528054 -0.0535976 0.595196 0.627712 0.595196H119.447C119.63 0.565637 119.818 0.582734 119.994 0.644922Z" fill="#87898F"/>
<path d="M119.993 35.5359C119.993 36.2819 119.993 37.0278 119.993 37.7738C119.993 37.9876 119.951 38.0672 119.744 38.0225C119.678 38.0162 119.612 38.0162 119.545 38.0225H0.0601997C-0.0541807 37.2491 0.0328497 36.4684 0.015444 35.6926C0.015444 35.4439 0.191987 35.3519 0.410802 35.3295C0.758916 35.2947 1.10952 35.3072 1.46012 35.3072H75.3971C89.8837 35.3072 104.371 35.3072 118.859 35.3072C119.242 35.3271 119.67 35.1903 119.993 35.5359Z" fill="#87898F"/>
<path d="M33.8093 18.9831C33.8093 14.5322 33.8093 10.0838 33.7969 5.6329C33.7969 5.11073 33.9486 4.99138 34.4409 5.01127C36.0024 5.07343 37.5665 4.969 39.1305 5.11819C42.9175 5.47625 45.6427 8.15425 46.048 11.9313C46.3588 14.8007 45.9336 17.4986 44.2154 19.8882C42.8423 21.8123 40.858 23.2146 38.5859 23.8666C38.2179 23.976 38.1408 24.1451 38.1408 24.4908C38.1533 27.1638 38.1408 29.8393 38.1583 32.5123C38.1583 32.9201 38.0588 33.0544 37.6361 33.0419C36.5893 33.0096 35.5374 33.0419 34.4906 33.0419C33.8118 33.0419 33.8093 33.0419 33.8093 32.383V18.9831Z" fill="white"/>
<path d="M99.4278 15.2483C99.7908 14.9549 100.099 14.7311 100.375 14.475C100.514 14.3451 100.679 14.2447 100.858 14.1798C101.037 14.1148 101.227 14.0867 101.417 14.0971C104.47 14.1219 106.39 15.8202 106.805 18.8687C106.887 19.5285 106.925 20.1931 106.917 20.8579C106.917 24.727 106.917 28.596 106.917 32.4651C106.917 32.9624 106.771 33.0767 106.301 33.0569C105.42 33.0196 104.538 33.022 103.655 33.0569C103.215 33.0743 103.098 32.945 103.1 32.5048C103.118 28.3697 103.1 24.2346 103.1 20.102C103.1 19.4356 103.1 18.7742 102.79 18.1551C102.541 17.6329 102.168 17.2276 101.546 17.2201C100.925 17.2127 100.552 17.6279 100.303 18.1451C100.074 18.6443 99.9639 19.19 99.9823 19.739C99.9823 23.9661 99.9823 28.2081 99.9997 32.4427C99.9997 32.9649 99.848 33.0792 99.3607 33.0569C98.4804 33.0196 97.5977 33.0345 96.715 33.0569C96.3793 33.0569 96.25 32.9823 96.25 32.6217C96.2599 26.6922 96.2599 20.7634 96.25 14.8356C96.25 14.4949 96.3445 14.3656 96.7001 14.3755C97.3814 14.4004 98.0652 14.4104 98.7465 14.3755C99.2115 14.3507 99.4477 14.4651 99.3656 14.9673C99.3764 15.0629 99.3973 15.1571 99.4278 15.2483Z" fill="white"/>
<path d="M51.1915 31.9006C50.9429 32.1791 50.6569 32.4427 50.4257 32.7411C50.3375 32.8593 50.2207 32.9532 50.0864 33.0141C49.952 33.075 49.8044 33.1008 49.6573 33.0892C47.9764 33.0494 46.8053 32.1592 45.9648 30.8065C43.9184 27.5119 44.9379 22.7651 48.1704 20.3855C49.0181 19.7369 49.987 19.2643 51.02 18.9955C51.291 18.9309 51.3532 18.8016 51.3532 18.5455C51.3532 17.5757 50.8559 17.0337 49.8612 16.9914C49.0951 16.9488 48.3268 17.0191 47.5811 17.2002C47.2404 17.2873 47.1459 17.1804 47.1683 16.8397C47.2081 16.16 47.2272 15.4796 47.2255 14.7983C47.2255 14.5123 47.3175 14.3805 47.596 14.3283C48.8381 14.0675 50.1175 14.0372 51.3706 14.2388C53.596 14.659 54.8766 16.1634 55.0357 18.5181C55.1352 19.9802 55.0929 21.4423 55.0954 22.9044C55.0954 26.1095 55.0954 29.3146 55.0954 32.5223C55.0954 32.9226 55.0084 33.0743 54.5782 33.0593C53.6631 33.0245 52.7431 33.022 51.8306 33.0593C51.3656 33.0817 51.2413 32.9102 51.2935 32.4924C51.3047 32.3136 51.3047 32.1342 51.2935 31.9553L51.1915 31.9006Z" fill="white"/>
<path d="M84.7182 23.5036C84.7331 21.6064 84.8798 19.7266 85.5214 17.9164C85.7875 17.0904 86.2218 16.3284 86.797 15.6785C88.1969 14.1741 89.93 13.7713 91.8546 14.3432C93.7791 14.9151 94.8881 16.3076 95.2164 18.2819C95.9772 22.8695 92.5458 25.642 89.4675 26.3407C89.0647 26.4302 88.9826 26.5894 89.0448 26.93C89.1248 27.5391 89.2733 28.1371 89.4874 28.7129C89.9474 29.8045 90.6138 30.2471 91.7974 30.2446C92.4737 30.2446 92.4339 30.1352 92.4364 30.8836C92.4364 31.4331 92.4165 31.9802 92.4364 32.5272C92.4538 32.9101 92.3295 33.0245 91.9391 33.0618C88.0129 33.3801 86.0535 31.187 85.2255 28.039C85.0994 27.5576 85.0007 27.0695 84.9296 26.577C84.7687 25.5607 84.698 24.5323 84.7182 23.5036Z" fill="white"/>
<path d="M72.9658 33.0892C71.9667 33.0995 70.9722 32.9518 70.0192 32.6515C69.6985 32.5471 69.5915 32.4402 69.7954 32.1045C70.2007 31.4406 70.5712 30.7518 70.9368 30.0631C71.0735 29.802 71.2028 29.7075 71.5186 29.8144C72.1373 30.0254 72.802 30.0633 73.4407 29.9238C74.7909 29.6478 75.3727 28.5189 74.9525 27.032C74.6094 25.8111 73.8186 24.8637 72.9633 23.9661C72.3267 23.2898 71.633 22.6632 71.081 21.9097C69.9496 20.3755 69.6288 18.6946 70.4345 16.9367C71.2401 15.1787 72.8041 14.3034 74.7088 14.0971C75.8548 13.9685 77.015 14.0924 78.1079 14.4601C78.4461 14.572 78.4709 14.6913 78.3019 14.9773C77.9388 15.6138 77.5915 16.2545 77.26 16.8994C77.1332 17.148 77.0114 17.1953 76.7627 17.0958C76.3799 16.9783 75.9773 16.9393 75.5791 16.9814C74.2563 17.0162 73.5899 18.1178 74.1792 19.3163C74.5258 19.9423 74.9803 20.5021 75.5219 20.9698C76.422 21.8351 77.3346 22.6855 78.0656 23.705C79.1896 25.274 79.6297 27.022 79.1796 28.8919C78.6276 31.1845 76.9741 32.388 74.7635 32.9325C74.1723 33.0541 73.5691 33.1066 72.9658 33.0892Z" fill="white"/>
<path d="M13.1719 22.7402C13.1719 19.5078 13.1719 16.2628 13.1719 13.0229C13.1719 12.6151 13.2738 12.4734 13.6965 12.4883C14.5942 12.5181 15.4968 12.5231 16.3944 12.4883C16.847 12.4684 16.9439 12.6201 16.9439 13.0502C16.929 18.2139 16.929 23.3801 16.9439 28.5488C16.9439 29.0635 16.9688 29.5807 16.9439 30.0929C16.9191 30.4808 17.0683 30.5654 17.4413 30.5604C18.7914 30.5405 20.1416 30.5604 21.4893 30.543C21.8623 30.543 21.9866 30.64 21.9692 31.0179C21.9394 31.5649 21.9518 32.1145 21.9692 32.6615C21.9692 32.9251 21.9095 33.0494 21.6112 33.0494C18.9307 33.0395 16.2494 33.0395 13.5672 33.0494C13.157 33.0494 13.2141 32.8007 13.2141 32.5521V22.7402H13.1719Z" fill="white"/>
<path d="M21.2422 24.5629C21.2695 22.9392 21.3939 21.119 22.1398 19.4108C22.7664 17.9736 23.7561 16.9466 25.3723 16.6756C26.3995 16.4969 27.456 16.7198 28.3234 17.2984C29.1907 17.8769 29.8025 18.7667 30.0321 19.7837C30.8477 23.2226 28.7739 26.4526 25.2256 27.2309C24.885 27.3055 24.7631 27.4174 24.8377 27.7456C24.9123 28.0738 24.9496 28.3996 25.0466 28.7154C25.4917 30.1725 26.3172 30.7394 27.8365 30.6026C28.1572 30.5753 28.2467 30.6399 28.2343 30.9508C28.2144 31.4978 28.2144 32.0473 28.2343 32.5944C28.2467 32.8952 28.1199 32.9997 27.8414 33.0419C25.238 33.4348 23.0698 32.2288 22.0627 29.8094C21.4038 28.1907 21.2472 26.4924 21.2422 24.5629Z" fill="white"/>
<path d="M60.0265 15.8103C60.4666 15.5069 60.8098 15.2458 61.1753 15.0196C61.84 14.636 62.5912 14.4272 63.3585 14.4128C63.6071 14.3979 63.7638 14.4576 63.7588 14.7585C63.7588 15.5566 63.7588 16.3523 63.7588 17.1505C63.7588 17.2997 63.7588 17.4638 63.5475 17.4763C63.1385 17.4902 62.7378 17.5957 62.375 17.7851C62.0123 17.9744 61.6966 18.2428 61.4513 18.5703C60.8247 19.3809 60.6432 20.3333 60.6432 21.3354C60.6432 25.0204 60.6432 28.7054 60.6432 32.3905C60.6432 33.1364 60.7178 33.037 59.9693 33.0419C59.1363 33.0419 58.3034 33.0196 57.4828 33.0544C57.0477 33.0718 56.9233 32.9549 56.9258 32.5073C56.9432 27.3801 56.9258 22.2504 56.9258 17.1207C56.9258 16.3896 56.9383 15.6586 56.9258 14.93C56.9258 14.6341 57.0153 14.5173 57.3187 14.5073C58.0821 14.4825 58.8479 14.4427 59.6113 14.388C59.9271 14.3631 60.0738 14.4452 60.0464 14.7883C60.0191 15.1315 60.0265 15.4124 60.0265 15.8103Z" fill="white"/>
<path d="M68.7543 23.7125C68.7543 26.6516 68.7543 29.5881 68.7543 32.5272C68.7543 32.9425 68.64 33.0668 68.2247 33.0544C67.3097 33.022 66.3946 33.0245 65.4895 33.0544C65.1091 33.0544 65.0171 32.9475 65.0196 32.5794C65.032 28.9939 65.0196 25.4083 65.0196 21.8227C65.0196 19.5003 65.0196 17.1754 65.0196 14.8604C65.0196 14.4999 65.1016 14.3631 65.487 14.3631C66.4021 14.3905 67.3196 14.393 68.2347 14.3631C68.6524 14.3507 68.7668 14.4899 68.7643 14.8977C68.7469 17.8368 68.7543 20.7759 68.7543 23.7125Z" fill="white"/>
<path d="M83.7457 23.7249C83.7457 26.6292 83.7457 29.5359 83.7457 32.4402C83.7457 32.9002 83.6562 33.0842 83.1514 33.0569C82.3209 33.0121 81.4879 33.0569 80.6649 33.0419C79.9363 33.0419 80.0184 33.1265 80.0184 32.4153C80.0184 27.1223 80.0184 21.8277 80.0184 16.5314C80.0184 15.9495 80.0358 15.3677 80.0184 14.7908C80.006 14.4576 80.1253 14.3631 80.4461 14.3681C81.3959 14.3855 82.3458 14.393 83.2932 14.3681C83.686 14.3681 83.7606 14.5148 83.7581 14.8654C83.7407 17.8169 83.7457 20.7709 83.7457 23.7249Z" fill="white"/>
<path d="M65.0234 10.606C65.0234 10.1087 65.0359 9.61135 65.0234 9.11404C65.0234 8.83058 65.1179 8.73858 65.3989 8.74107C66.3935 8.7535 67.3881 8.74107 68.3952 8.74107C68.6438 8.74107 68.7607 8.81567 68.7582 9.08173C68.7582 10.1112 68.7582 11.1406 68.7582 12.17C68.7582 12.4186 68.6563 12.4908 68.4275 12.4908C67.3931 12.4908 66.3612 12.4908 65.3293 12.4908C65.0806 12.4908 65.0234 12.3689 65.0259 12.1526C65.0309 11.6354 65.0234 11.1207 65.0234 10.606Z" fill="white"/>
<path d="M80.0156 10.6134C80.0156 10.1161 80.0156 9.61881 80.0156 9.12151C80.0156 8.8455 80.0927 8.7361 80.3811 8.73859C81.3758 8.75351 82.3704 8.75102 83.3799 8.73859C83.6659 8.73859 83.7554 8.84799 83.7529 9.12151C83.7429 10.1161 83.7429 11.1107 83.7529 12.1053C83.7529 12.3813 83.6609 12.4883 83.3774 12.4858C82.3828 12.4742 81.3832 12.4742 80.3787 12.4858C80.0877 12.4858 80.0082 12.3739 80.0181 12.1029C80.0281 11.6105 80.0156 11.1107 80.0156 10.6134Z" fill="white"/>
<path d="M38.1482 14.3159C38.1482 12.4385 38.1482 10.5612 38.1482 8.68387C38.1482 8.28603 38.2551 8.15921 38.6579 8.20894C39.2076 8.2612 39.7317 8.46608 40.1711 8.80044C40.6104 9.13481 40.9476 9.58535 41.1445 10.1012C41.7586 11.5111 41.7984 13.008 41.7039 14.5048C41.6094 16.0017 41.316 17.434 40.498 18.7195C40.0772 19.4443 39.4336 20.0139 38.6629 20.3432C38.3148 20.4825 38.1358 20.4675 38.1407 19.9951C38.1631 18.1029 38.1482 16.2081 38.1482 14.3159Z" fill="#87898F"/>
<path d="M51.3002 25.6072C51.3002 26.6864 51.3002 27.763 51.3002 28.8397C51.3106 29.0238 51.2811 29.208 51.2137 29.3797C51.1463 29.5513 51.0427 29.7064 50.9098 29.8343C50.4125 30.3316 49.7934 30.2918 49.3557 29.7398C49.0301 29.2942 48.8362 28.7661 48.7963 28.2156C48.5824 26.4253 48.7789 24.7071 49.7909 23.153C50.049 22.7438 50.3874 22.391 50.7855 22.1161C50.9148 22.0266 51.064 21.8675 51.2256 21.9595C51.3872 22.0515 51.2977 22.233 51.2977 22.3747C51.3027 23.4489 51.3002 24.5281 51.3002 25.6072Z" fill="#87898F"/>
<path d="M88.8158 21.8302C88.8581 20.7535 88.8854 19.5252 89.2137 18.3316C89.298 17.9419 89.4726 17.5774 89.7234 17.2674C89.8253 17.134 89.9605 17.0298 90.1155 16.9651C90.2704 16.9005 90.4396 16.8778 90.6061 16.8992C90.7726 16.9206 90.9306 16.9854 91.0641 17.0871C91.1977 17.1888 91.3021 17.3239 91.367 17.4787C92.1701 19.1049 91.4068 22.0589 89.9149 23.0759C89.6264 23.2699 89.2833 23.5459 88.97 23.3967C88.6567 23.2475 88.8531 22.8248 88.8183 22.5239C88.7984 22.3449 88.8158 22.1609 88.8158 21.8302Z" fill="#87898F"/>
<path d="M24.6143 23.2201C24.6068 22.2585 24.7187 21.2997 24.9475 20.3656C25.0244 20.008 25.1884 19.6749 25.4249 19.3959C25.5115 19.2824 25.6268 19.1941 25.759 19.1402C25.8912 19.0863 26.0354 19.0687 26.1766 19.0892C26.3179 19.1098 26.4511 19.1677 26.5624 19.257C26.6738 19.3464 26.7592 19.4638 26.8099 19.5973C27.5434 21.119 26.7825 23.7 25.3379 24.5703C25.1563 24.6797 24.95 24.8612 24.7486 24.7568C24.5471 24.6524 24.6267 24.3739 24.6168 24.17C24.6043 23.8492 24.6143 23.5334 24.6143 23.2201Z" fill="#87898F"/>
</g>
<defs>
<clipPath id="clip0_491_384142">
<rect width="120" height="37.4546" fill="white" transform="translate(0 0.58773)"/>
</clipPath>
</defs>
</svg>
