<svg width="150" height="50" viewBox="0 0 150 50" fill="none" xmlns="http://www.w3.org/2000/svg">
<g clip-path="url(#clip0_461_336822)">
<path fill-rule="evenodd" clip-rule="evenodd" d="M85.0451 18.082V22.5617C85.6371 21.7847 86.4753 21.3963 87.5599 21.3963C89.7648 21.3963 90.8663 22.7217 90.8648 25.3725V29.8265H88.4502V25.3981C88.4808 24.9184 88.3275 24.445 88.0214 24.0743C87.8749 23.9182 87.6962 23.7958 87.4979 23.7153C87.2997 23.6348 87.0862 23.5983 86.8724 23.6081C86.6276 23.602 86.3842 23.6466 86.1574 23.7393C85.9308 23.832 85.7259 23.9706 85.5555 24.1465C85.3722 24.3472 85.2308 24.5826 85.1401 24.8388C85.0491 25.095 85.0105 25.3668 85.0264 25.6382V29.8334H82.6118V18.082H85.0451ZM78.6123 21.5874V19.273L76.1976 19.5411V21.5874H74.7224V23.5918H76.2094V26.729C76.2062 27.9441 76.4883 28.808 77.0555 29.3207C77.6225 29.8334 78.3917 30.0666 79.3629 30.0199C79.9606 29.9906 80.5498 29.8664 81.1084 29.6517L80.5352 27.6262C80.22 27.7715 79.8751 27.8409 79.5283 27.8291C78.9107 27.8291 78.596 27.4585 78.596 26.722V23.5918H80.71V21.5874H78.6123ZM45.0087 23.9214C44.4348 23.5178 43.7478 23.3065 43.0463 23.3177C42.7417 23.3017 42.4381 23.3652 42.1653 23.5019C42.0721 23.5489 41.9938 23.6208 41.939 23.7097C41.8844 23.7986 41.8553 23.9009 41.8553 24.0053C41.8553 24.4715 42.2631 24.7123 43.0789 24.7278C43.4124 24.736 43.7454 24.7609 44.0764 24.8024C44.4027 24.8477 44.7238 24.9258 45.0344 25.0355C45.3407 25.1375 45.627 25.2921 45.8803 25.4923C46.1266 25.6992 46.3221 25.96 46.4514 26.2544C46.6136 26.6154 46.6931 27.008 46.6845 27.4035C46.6906 27.776 46.6139 28.1455 46.46 28.4847C46.306 28.8241 46.0785 29.1252 45.7941 29.3659C45.1913 29.9145 44.28 30.1886 43.0602 30.1886C41.6369 30.2061 40.2549 29.7095 39.168 28.7902L40.2075 27.0796C41.02 27.7495 42.0397 28.1169 43.0928 28.119C43.4032 28.1415 43.7138 28.0778 43.9902 27.9349C44.0934 27.893 44.1815 27.8211 44.243 27.7284C44.3045 27.6357 44.3366 27.5264 44.3351 27.4151C44.3351 26.949 43.869 26.7159 42.9367 26.6763C42.5327 26.6567 42.1315 26.5981 41.7388 26.5015C41.352 26.4062 40.9796 26.2596 40.6316 26.0657C40.281 25.8715 39.9881 25.5875 39.7832 25.2429C39.5664 24.8747 39.4559 24.4535 39.464 24.0263C39.4391 23.6285 39.5218 23.2313 39.7035 22.8766C39.8853 22.5218 40.1591 22.2226 40.4965 22.0102C41.2573 21.5438 42.138 21.3105 43.03 21.339C44.3134 21.339 45.37 21.6964 46.1997 22.4111L45.0087 23.9214ZM47.7655 33.4809V21.5548H49.9306L50.0797 22.6106C50.7014 21.8073 51.6189 21.4048 52.8324 21.4033C53.3811 21.3815 53.9281 21.4755 54.4382 21.6791C54.948 21.8827 55.4095 22.1913 55.7924 22.585C56.5475 23.3758 56.9251 24.4138 56.9251 25.6988C56.9251 27.018 56.5452 28.066 55.7853 28.843C55.0255 29.6198 54.0295 30.0083 52.7975 30.0083C52.3034 30.0303 51.811 29.9363 51.3598 29.7339C50.9085 29.5315 50.5109 29.2264 50.1986 28.843V33.4904L47.7655 33.4809ZM53.9394 27.2324C54.3186 26.8103 54.517 26.2563 54.4918 25.6895C54.5118 25.13 54.3176 24.584 53.9488 24.1628C53.7604 23.9598 53.5299 23.8004 53.2734 23.6957C53.017 23.5911 52.7408 23.5437 52.4641 23.5569C51.8934 23.5423 51.3356 23.7269 50.8863 24.0789C50.4504 24.4239 50.2314 24.9623 50.2314 25.6895C50.2174 25.9833 50.2707 26.2764 50.387 26.5465C50.5034 26.8167 50.6795 27.0569 50.9026 27.2487C51.3351 27.6246 51.891 27.8278 52.4641 27.8197C52.7383 27.8313 53.012 27.7841 53.2665 27.6812C53.5208 27.5783 53.7504 27.422 53.9394 27.2231V27.2324ZM57.5963 25.6988C57.5963 26.973 58.0073 28.01 58.8293 28.8104V28.8009C59.6388 29.5996 60.7373 29.999 62.1249 29.999C63.5124 29.999 64.6165 29.5996 65.4368 28.8009C65.8477 28.3967 66.1698 27.9112 66.3824 27.3754C66.5952 26.8397 66.6937 26.2655 66.6721 25.6895C66.6899 25.1125 66.5878 24.5381 66.3723 24.0026C66.157 23.467 65.8329 22.982 65.4205 22.578C64.5768 21.7607 63.4783 21.352 62.1249 21.352C60.7714 21.352 59.6784 21.7607 58.8457 22.578C58.4325 22.9832 58.108 23.4698 57.8928 24.0071C57.6778 24.5443 57.5768 25.1204 57.5963 25.6988ZM64.2268 25.693C64.2268 26.2486 64.0389 26.7879 63.6934 27.2231H63.7121C63.3602 27.6425 62.8428 27.8523 62.1435 27.8523C61.4598 27.8539 60.9424 27.6387 60.5912 27.2068C60.246 26.7746 60.0579 26.2379 60.0579 25.6848C60.0579 25.1317 60.246 24.595 60.5912 24.1629C60.793 23.9557 61.0342 23.7911 61.3006 23.6787C61.5671 23.5663 61.8532 23.5084 62.1423 23.5084C62.4315 23.5084 62.7178 23.5663 62.9842 23.6787C63.2505 23.7911 63.4917 23.9557 63.6934 24.1629C64.0389 24.5981 64.2268 25.1373 64.2268 25.693ZM70.0587 21.5548L70.2427 22.4591C70.4883 22.1027 70.8202 21.8142 71.2073 21.6206C71.5945 21.427 72.0245 21.3346 72.457 21.352C73.2047 21.3385 73.9299 21.6082 74.487 22.1072L73.4801 24.0207C73.0949 23.7429 72.631 23.5959 72.1563 23.6012C71.6489 23.5859 71.1557 23.769 70.7812 24.1116C70.5939 24.2913 70.4475 24.5092 70.3517 24.7505C70.256 24.9917 70.2133 25.2508 70.2264 25.51V29.8218H67.8236V21.5548H70.0587ZM94.5871 27.0671C94.4686 26.8866 94.3893 26.6833 94.354 26.4703H100.453C100.705 24.8263 100.442 23.5569 99.6634 22.6619C98.8849 21.7669 97.7638 21.3194 96.3001 21.3194C94.9576 21.3194 93.8893 21.7141 93.0954 22.5034C92.3014 23.2927 91.9044 24.3245 91.9044 25.5986C91.9059 26.952 92.3115 28.0257 93.1209 28.8196C93.9305 29.6136 95.0741 30.0106 96.5518 30.0106C98.0931 30.0121 99.2787 29.6035 100.109 28.7846L98.7497 27.2768C98.2493 27.7118 97.533 27.9293 96.6007 27.9293C96.0512 27.9559 95.5068 27.8127 95.0415 27.5192C94.8603 27.4017 94.7055 27.2478 94.5871 27.0671ZM98.1067 24.1378C98.2126 24.3098 98.272 24.5064 98.2789 24.7082H94.3585C94.4691 24.3116 94.7169 23.9672 95.0578 23.7363C95.4262 23.4949 95.8597 23.372 96.3001 23.3844C96.7812 23.3702 97.257 23.4888 97.6752 23.727C97.8522 23.8242 98.001 23.9658 98.1067 24.1378ZM103.882 21.5548L104.066 22.4614C104.312 22.105 104.643 21.8165 105.031 21.6229C105.418 21.4294 105.848 21.337 106.28 21.3544C107.028 21.3413 107.753 21.611 108.31 22.1095L107.303 24.0207C106.919 23.7396 106.454 23.5893 105.977 23.5918C105.47 23.5775 104.976 23.7614 104.602 24.1046C104.415 24.2845 104.269 24.5025 104.174 24.7438C104.079 24.985 104.036 25.244 104.05 25.503V29.8148H101.633V21.5548H103.882ZM108.411 27.38C108.623 27.9172 108.945 28.4044 109.357 28.8104V28.8009C110.18 29.6011 111.279 30.0012 112.655 30.0012C114.041 30.0012 115.145 29.6011 115.967 28.8009C116.789 28.0008 117.2 26.9636 117.2 25.6895C117.219 25.1111 117.118 24.5351 116.903 23.9978C116.688 23.4606 116.363 22.9739 115.95 22.5686C115.107 21.7529 114.008 21.345 112.655 21.345C111.301 21.345 110.208 21.7529 109.375 22.5686C108.962 22.9738 108.637 23.4604 108.422 23.9976C108.206 24.5348 108.105 25.111 108.124 25.6895C108.101 26.2668 108.199 26.8426 108.411 27.38ZM114.754 25.6941C114.754 26.2497 114.567 26.7891 114.223 27.2255H114.242C113.89 27.6449 113.373 27.8523 112.673 27.8523C111.99 27.8539 111.472 27.6387 111.121 27.2068C110.776 26.7746 110.588 26.2379 110.588 25.6848C110.588 25.1317 110.776 24.595 111.121 24.1629C111.31 23.9418 111.548 23.7676 111.816 23.654C112.083 23.5404 112.374 23.4904 112.664 23.5079C112.957 23.4894 113.25 23.5389 113.52 23.6525C113.791 23.7661 114.032 23.9408 114.223 24.1629C114.567 24.5991 114.754 25.1385 114.754 25.6941ZM120.32 26.4703C120.357 26.6844 120.437 26.8886 120.558 27.0693C120.678 27.25 120.836 27.4033 121.02 27.5192C121.485 27.8127 122.029 27.9559 122.579 27.9293C123.511 27.9293 124.227 27.7118 124.725 27.2768L126.084 28.7846C125.258 29.6035 124.073 30.0121 122.53 30.0106C121.052 30.0106 119.909 29.6136 119.099 28.8196C118.29 28.0257 117.884 26.952 117.882 25.5986C117.882 24.3245 118.279 23.2927 119.073 22.5034C119.867 21.7141 120.936 21.3194 122.278 21.3194C123.733 21.3194 124.848 21.7661 125.625 22.6596C126.402 23.553 126.661 24.8224 126.404 26.4679L120.32 26.4703ZM124.245 24.7082C124.238 24.5064 124.179 24.3098 124.073 24.1378C123.967 23.9658 123.819 23.8242 123.642 23.727C123.223 23.4888 122.748 23.3702 122.267 23.3844C121.826 23.372 121.393 23.4949 121.024 23.7363C120.683 23.9666 120.435 24.3113 120.325 24.7082H124.245ZM130.853 23.2842C131.554 23.2721 132.242 23.4835 132.815 23.8878L133.999 22.3775C133.173 21.6612 132.116 21.3031 130.83 21.3031C129.938 21.2751 129.057 21.5084 128.296 21.9743C127.961 22.1848 127.688 22.4808 127.505 22.8319C127.322 23.183 127.237 23.5764 127.257 23.9717C127.249 24.3982 127.359 24.8185 127.576 25.186C127.779 25.531 128.071 25.8152 128.422 26.0088C128.774 26.2033 129.15 26.3499 129.541 26.4446C129.934 26.5409 130.336 26.6002 130.741 26.6217C131.681 26.6482 132.151 26.8945 132.151 27.3606C132.152 27.4751 132.118 27.5871 132.053 27.6817C131.989 27.7762 131.897 27.8488 131.79 27.8897C131.513 28.0314 131.203 28.0949 130.892 28.0737C129.839 28.0709 128.82 27.7036 128.007 27.0343L126.968 28.745C128.054 29.6648 129.436 30.1614 130.86 30.1434C132.08 30.1434 132.991 29.8699 133.594 29.3231C133.878 29.0824 134.106 28.7814 134.259 28.442C134.413 28.1025 134.489 27.7332 134.482 27.3606C134.492 26.9649 134.412 26.572 134.249 26.2115C134.121 25.921 133.93 25.6629 133.689 25.4564C133.435 25.2574 133.148 25.1037 132.841 25.0019C132.531 24.8921 132.211 24.814 131.885 24.7688C131.554 24.7265 131.221 24.7008 130.888 24.6919C130.07 24.6709 129.662 24.4379 129.662 23.9717C129.662 23.8673 129.691 23.765 129.746 23.6761C129.8 23.5873 129.879 23.5153 129.972 23.4683C130.244 23.3305 130.548 23.2669 130.853 23.2842Z" fill="#1F2020"/>
<path d="M15.6321 38.1494C22.5028 38.1494 28.0727 32.5795 28.0727 25.7087C28.0727 18.8379 22.5028 13.2681 15.6321 13.2681C8.76128 13.2681 3.19141 18.8379 3.19141 25.7087C3.19141 32.5795 8.76128 38.1494 15.6321 38.1494Z" fill="white"/>
<path d="M15.6158 10.0737C11.4742 10.0737 7.50227 11.719 4.57374 14.6475C1.64523 17.576 0 21.5479 0 25.6895C0 29.8311 1.64523 33.8029 4.57374 36.7314C7.50227 39.6599 11.4742 41.3052 15.6158 41.3052C19.7574 41.3052 23.7291 39.6599 26.6577 36.7314C29.5862 33.8029 31.2314 29.8311 31.2314 25.6895C31.2314 21.5479 29.5862 17.576 26.6577 14.6475C23.7291 11.719 19.7574 10.0737 15.6158 10.0737ZM24.1484 25.0485C24.1079 25.1128 24.0517 25.1657 23.9853 25.2024C23.6184 25.4209 23.2403 25.6201 22.8527 25.799C22.3584 26.0065 21.8434 26.1626 21.3354 26.3351C21.0417 26.433 20.7504 26.5262 20.4567 26.6194C20.4567 26.7127 20.4427 26.8082 20.438 26.9014C20.4241 27.2021 20.4031 27.5284 20.3844 27.8337C20.3541 28.2998 20.3541 28.4676 20.3237 28.7962C20.2934 29.1249 20.2703 29.4046 20.2469 29.7099C20.2212 30.0503 20.2119 30.3929 20.1746 30.7331C20.1 31.4402 20.0178 32.1455 19.9275 32.8494C19.8925 33.022 19.8426 33.1911 19.7784 33.3552H19.7271C19.7084 33.3342 19.6874 33.3108 19.6642 33.2806L19.578 33.5695C19.557 33.53 19.5407 33.502 19.515 33.4578C19.479 33.5065 19.4391 33.5524 19.3961 33.5953C19.3585 33.6265 19.3159 33.6517 19.2704 33.6697C19.2077 33.6926 19.1482 33.7232 19.0932 33.7607C19.0507 33.7535 19.007 33.7602 18.9688 33.78C18.9305 33.7997 18.8997 33.8315 18.881 33.8703C18.7879 34.0125 18.7039 34.1616 18.6131 34.3154C18.5968 34.164 18.585 34.0241 18.5711 33.8842H18.5337C18.4685 33.9775 18.4056 34.0707 18.3287 34.185C18.3147 34.1545 18.2984 34.1266 18.2892 34.1103L18.133 34.2781L18.1026 34.2571C18.1026 34.2152 18.1026 34.1756 18.1026 34.1196L18.0118 34.1569C17.9627 33.9076 17.9138 33.6628 17.8672 33.4157C17.5806 33.544 17.6342 33.8819 17.5246 34.115C17.5135 34.147 17.5049 34.1796 17.4989 34.2129C17.4934 34.226 17.4863 34.2386 17.4781 34.2502C17.4081 34.1687 17.4105 34.1687 17.4313 33.9634C17.4396 33.8572 17.4396 33.7504 17.4313 33.6442C17.359 33.8772 17.2893 34.0917 17.217 34.3247C17.1074 33.9891 17.2402 33.7002 17.2683 33.3925C17.3009 33.0313 17.3545 32.6722 17.3755 32.3017L17.2472 32.6256L17.1587 32.5278L17.1144 32.5418C17.1308 32.2923 17.1773 32.1945 17.2099 31.7796C17.3219 30.3206 17.4965 29.0713 17.5315 27.3512L16.7578 27.5027L16.4665 27.554H16.4408L16.1402 27.5936C15.7136 27.6496 15.2894 27.7148 14.8653 27.7638L14.5063 27.8034C14.4784 27.8034 14.4574 28.5446 14.4434 28.843C14.4201 29.3091 14.3455 29.9313 14.3152 30.4045C14.2896 30.8147 14.2546 31.2248 14.215 31.6305C14.1497 32.2901 14.0658 32.9427 13.9819 33.6C13.9679 33.7257 13.9633 33.8563 13.9493 33.9844C13.9493 34.066 13.9283 34.1453 13.8397 34.0333C13.8025 33.9891 13.7232 33.9984 13.6463 33.9775C13.6463 33.84 13.6463 33.6931 13.6626 33.5463H13.637C13.609 33.7281 13.5834 33.91 13.5507 34.0893C13.5411 34.1408 13.5187 34.1888 13.4855 34.2292C13.4144 34.3215 13.3113 34.3838 13.1965 34.404C13.1569 34.404 13.1126 34.3667 13.0566 34.3364C12.9797 34.4995 12.8958 34.6861 12.8072 34.8841C12.7187 34.7303 12.6068 34.7 12.5019 34.7839C12.4623 34.7395 12.4203 34.6953 12.3667 34.6325L12.3225 34.7769H12.2805C12.2152 34.6511 12.1476 34.5252 12.0684 34.3759L11.7398 34.6627C11.7398 34.5857 11.7141 34.4971 11.7002 34.4109C11.6722 34.4109 11.6209 34.4459 11.6093 34.4296C11.5849 34.3889 11.5735 34.3418 11.5766 34.2944C11.5766 33.9705 11.6069 33.6465 11.6209 33.3226C11.616 33.271 11.6051 33.2201 11.5883 33.171C11.5044 33.3831 11.4391 33.5835 11.3552 33.763C11.2713 33.9426 11.2666 34.1756 11.0662 34.2921C11.0918 34.1266 11.1082 33.9984 11.1268 33.8726H11.1035C11.0429 34.0638 10.9823 34.2571 10.924 34.4506L10.8797 34.4274C10.91 34.2268 10.945 34.0288 10.9683 33.8259C10.987 33.6697 10.9846 33.5067 11.0009 33.3598C11.0173 33.213 11.0452 33.0894 11.0662 32.9543C11.1291 32.5347 11.0103 32.7934 10.9473 33.0382L10.9054 33.0242C10.959 32.6979 11.0173 32.3716 11.0639 32.043C11.0942 31.8403 11.1128 31.6352 11.1291 31.4323C11.1711 30.9498 11.2107 30.4697 11.2503 29.9873C11.3226 29.3323 11.3762 28.6705 11.4135 28.0109C11.0918 28.0109 10.8308 28.0248 10.5558 28.0248C10.381 28.0248 10.1992 28.0248 9.99407 28.0062C9.82788 27.9983 9.6622 27.9818 9.49764 27.9572C9.49648 27.9433 9.49648 27.9293 9.49764 27.9152L9.86123 27.8944L9.87754 27.8639L8.01297 27.4165L8.05027 27.3699C8.03161 27.3257 8.01065 27.2813 7.985 27.2277C8.06184 27.2462 8.13965 27.2601 8.21807 27.2697H8.24838C8.30665 27.2697 8.36491 27.2697 8.42318 27.2534C8.39988 27.2045 8.37656 27.1532 8.34859 27.1065C8.32063 27.0599 8.31596 27.0856 8.28567 27.0646L8.51874 27.0483C8.40453 26.8618 8.15048 26.8781 7.94306 26.7872H8.12718C8.12626 26.7795 8.12626 26.7717 8.12718 26.7639C8.05727 26.7499 7.98967 26.7313 7.91974 26.722C7.83453 26.7209 7.75053 26.7016 7.67335 26.6654C7.59619 26.6292 7.52762 26.577 7.47225 26.5122C7.44281 26.4437 7.42244 26.3716 7.41165 26.2978L7.66337 26.2279C7.6051 26.2022 7.55849 26.1859 7.51653 26.1626C7.47459 26.1393 7.43496 26.1206 7.42331 26.0927C7.32775 25.834 7.33008 25.834 7.01776 25.6895C7.71613 25.8215 8.42366 25.8995 9.13405 25.9225L8.94526 25.7641L8.97323 25.7314L9.2063 25.841C9.24359 25.8573 9.27855 25.8922 9.31818 25.8946C9.48132 25.8946 9.64914 25.9086 9.81694 25.9132C9.78897 25.7874 9.64914 25.785 9.53027 25.7617C9.11701 25.7095 8.70964 25.6182 8.31364 25.489C8.14349 25.4191 7.93606 25.4121 7.7566 25.3562C7.57713 25.3003 7.44661 25.2327 7.29046 25.1697L7.31376 25.1254L8.01297 25.2303C8.01297 25.2303 8.01297 25.2303 8.01297 25.2117L7.12964 24.9646C7.1307 24.9499 7.1307 24.9351 7.12964 24.9203C7.25084 24.9343 7.36271 24.9436 7.49089 24.9646C7.65637 24.9903 7.8172 25.0299 7.98034 25.0555C8.03282 25.0719 8.08663 25.0836 8.14117 25.0905C8.1631 25.0904 8.18472 25.0851 8.20417 25.0749C8.22364 25.0648 8.2404 25.0501 8.25304 25.0322C8.25304 25.0322 8.26469 25.0322 8.27634 25.0322H8.33228C8.71685 25.0882 9.09909 25.1581 9.48598 25.193C9.6153 25.2063 9.74523 25.2125 9.8752 25.2117C9.96611 25.2117 10.0593 25.2117 10.1502 25.2117C10.1492 25.2063 10.1492 25.2008 10.1502 25.1954C10.1502 25.1791 10.2971 25.1954 10.1502 25.1534L10.0127 25.1254C10.0127 25.1254 10.0127 25.0998 10.0127 25.0858L10.4905 25.1371C10.656 25.1371 10.8961 25.1371 11.1897 25.1371H11.4508C11.4529 23.4001 11.3205 21.6655 11.0546 19.9489C11.0103 19.6786 10.931 19.4129 10.8727 19.1448C10.8401 18.9887 10.8122 18.8325 10.7888 18.6787C10.7888 18.6437 10.8168 18.6041 10.8331 18.5668C10.8611 18.5925 10.8867 18.6228 10.917 18.6461L11.0615 18.751C11.0703 18.7375 11.0805 18.725 11.0918 18.7137L11.1431 18.8279H11.1758C11.0872 18.5249 10.9963 18.2196 10.9054 17.9166L10.931 17.8956L11.1082 18.0401L11.3133 17.807L11.3389 17.8373C11.3389 17.8 11.3389 17.7627 11.3249 17.7138L11.558 17.814C11.558 17.7557 11.558 17.7045 11.572 17.6276L11.7421 17.7278L11.8097 17.6509L12.1407 17.7744L12.108 17.6182L12.4203 17.532L12.3527 17.4504L12.5345 17.4225C12.5345 17.4504 12.5625 17.4947 12.5788 17.5367C12.6161 17.5367 12.6581 17.5087 12.6837 17.5227C12.7471 17.5521 12.8169 17.565 12.8866 17.5601C12.9563 17.5553 13.0236 17.5327 13.0823 17.4947C13.2641 17.4155 13.3153 17.4551 13.3806 17.6648C13.4459 17.8746 13.5367 18.0634 13.6137 18.2638L13.6603 18.2499C13.6603 18.2219 13.6743 18.1939 13.6813 18.159C13.6813 18.1753 13.6952 18.1869 13.6999 18.2009C13.7722 18.4596 13.919 18.7183 13.9773 18.9794C14.1905 20.0403 14.3353 21.1139 14.4108 22.1934C14.532 23.7713 14.5133 24.9623 14.5133 24.967C15.0284 24.9133 15.4852 24.8411 15.9723 24.7455H15.998C16.5201 24.6733 17.0001 24.5824 17.5362 24.4612C17.545 23.4101 17.4819 22.3596 17.3474 21.3171C17.3358 21.338 17.3172 21.1842 17.3637 21.1982C17.3637 21.098 17.3451 21.0094 17.3311 20.9232C17.3125 20.802 17.2962 20.6761 17.2683 20.5572C17.243 20.5025 17.2143 20.4496 17.182 20.3988C17.1657 20.3615 17.1518 20.2869 17.1634 20.2799C17.3125 20.2007 17.2496 20.1237 17.1634 20.0468C17.1494 20.0468 17.1423 20.0142 17.1634 20.0049L17.2333 19.7065L17.182 19.6949L17.161 19.8417H17.1284C17.1284 19.7881 17.0981 19.7369 17.0911 19.6832C17.0751 19.5751 17.065 19.4662 17.0608 19.3569C17.0608 18.9327 16.872 18.5389 16.7974 18.1263C16.7904 18.0313 16.7951 17.9358 16.8114 17.842H16.8557L16.9606 18.0075L17.1703 17.7418C17.2076 17.6952 17.2402 17.6462 17.2752 17.5972C17.3195 17.6439 17.3661 17.6882 17.4103 17.7324C17.4547 17.7767 17.429 17.7534 17.4757 17.7557C17.4476 17.6462 17.4268 17.5343 17.3918 17.4271C17.3572 17.3512 17.3268 17.2734 17.3009 17.194C17.2997 17.1415 17.3189 17.0905 17.3545 17.0519C17.396 17.0156 17.4433 16.9864 17.4944 16.9656L17.5572 17.0682L17.7134 17.0659L17.9955 16.7465L18.0957 16.8677L18.1283 16.7535L18.2564 16.8304C18.2564 16.7955 18.2705 16.7652 18.275 16.7465L18.6457 16.7862L18.5991 16.5065H18.6363C18.7062 16.602 18.7856 16.6953 18.8461 16.7955C18.8594 16.8249 18.8836 16.8481 18.9135 16.8603C18.9434 16.8724 18.9769 16.8726 19.007 16.8608C19.0851 16.8578 19.1633 16.864 19.2399 16.8794C19.2628 16.8533 19.2879 16.8292 19.3146 16.8071C19.3845 16.8608 19.5057 16.8071 19.5476 16.926C19.6372 17.228 19.7422 17.5252 19.8623 17.8163C20.0954 18.3338 20.1094 18.8885 20.2096 19.4269C20.278 19.7176 20.3062 20.0164 20.2934 20.3149C20.2993 20.4566 20.3165 20.5977 20.3447 20.7367C20.3743 21.0475 20.3999 21.3582 20.4217 21.669C20.4217 21.7739 20.4217 21.8788 20.4217 21.9813C20.4357 22.1818 20.4636 22.3845 20.473 22.585C20.4822 22.7854 20.473 22.9299 20.473 23.1024C20.473 23.2749 20.473 23.4497 20.4846 23.6245C21.0067 23.4497 21.3727 23.3098 21.4821 23.2539C21.5043 23.2473 21.525 23.2362 21.5428 23.2213C21.7408 22.9882 22.0555 23.0045 22.2816 22.8367C22.3682 22.8724 22.4606 22.8914 22.5543 22.8926C22.5961 22.8959 22.6382 22.8959 22.6802 22.8926C22.6891 22.8949 22.6972 22.8993 22.7041 22.9054C22.7109 22.9114 22.7163 22.9191 22.7197 22.9276C22.7383 23.0325 22.7617 23.1304 22.8853 23.1467L22.8548 23.2888C22.8548 23.3028 22.2443 23.6198 22.2443 23.6198L22.9039 23.3518C22.9826 23.336 23.0604 23.3157 23.1369 23.2912C23.1976 23.2702 23.2489 23.2119 23.3094 23.2026H23.3233C23.3729 23.2131 23.4207 23.2304 23.4656 23.2539C23.4541 23.3001 23.4351 23.3442 23.4096 23.3844C23.355 23.428 23.3035 23.4755 23.2558 23.5266L23.3701 23.4916V23.5103L23.1556 23.6641V23.6921C23.2178 23.6825 23.2778 23.662 23.3328 23.6315C23.4141 23.5675 23.516 23.5353 23.6194 23.5406C23.6755 23.5418 23.7317 23.5465 23.7871 23.5546C23.8093 23.5589 23.83 23.5686 23.8475 23.5828C23.865 23.597 23.8788 23.6154 23.8875 23.6361C23.8934 23.7199 23.8934 23.804 23.8875 23.8878C23.8909 23.9199 23.8986 23.9512 23.9107 23.9811C23.9504 24.0953 23.9922 24.2141 24.0437 24.347C24.0543 24.3654 24.0691 24.3811 24.0869 24.3929C24.1047 24.4046 24.125 24.412 24.1462 24.4146C24.0879 24.5171 23.6333 24.6616 23.5775 24.7572C23.7663 24.8022 23.9591 24.8287 24.1531 24.8364C24.2067 24.8527 24.1415 25.0299 24.1112 25.0695" fill="#FFAA00"/>
</g>
<defs>
<clipPath id="clip0_461_336822">
<rect width="134.483" height="31.2672" fill="white" transform="translate(0 10.0737)"/>
</clipPath>
</defs>
</svg>
