<svg width="12" height="9" viewBox="0 0 12 9" fill="none" xmlns="http://www.w3.org/2000/svg">
<path d="M6.429 8.0712H2C1.448 8.0712 1 7.6232 1 7.0712V1.9292C1 1.3772 1.448 0.929199 2 0.929199H6.429C6.981 0.929199 7.429 1.3772 7.429 1.9292V7.0722C7.429 7.6242 6.981 8.0712 6.429 8.0712Z" stroke="#444549" stroke-width="1.5" stroke-linecap="round" stroke-linejoin="round"/>
<path d="M7.42969 3.78604L9.42569 1.79004C9.51969 1.69604 9.64669 1.64404 9.77969 1.64404H10.5007C10.7767 1.64404 11.0007 1.86804 11.0007 2.14404V6.85804C11.0007 7.13404 10.7767 7.35804 10.5007 7.35804H9.77969C9.64669 7.35804 9.51969 7.30504 9.42569 7.21204L7.42969 5.21604" stroke="#444549" stroke-width="1.5" stroke-linecap="round" stroke-linejoin="round"/>
</svg>
