<svg width="248" height="250" viewBox="0 0 248 250" fill="none" xmlns="http://www.w3.org/2000/svg">
<path d="M34.1175 123.607L57.6016 119.529C57.6016 119.529 75.0868 140.874 82.5042 154.024C89.9217 167.173 86.462 198.084 86.462 198.084H59.7806C59.7806 198.084 63.9918 174.96 62.5288 165.959C61.0657 156.959 52.2875 146.357 52.2875 146.357C52.2875 146.357 51.5004 158.471 51.4649 161.69C51.3492 172.536 44.7945 203.829 44.7945 203.829H15.6406C15.6406 203.829 26.6423 172.078 28.4121 162.767C30.5555 151.454 34.1175 123.607 34.1175 123.607Z" fill="#F43B00"/>
<path d="M101.612 80.4676C102.754 81.6045 103.462 83.1055 103.613 84.71C103.676 85.4998 103.618 86.2947 103.44 87.0668C103.338 87.7383 103.32 88.6633 104.027 88.9835C104.486 89.1183 104.959 89.2033 105.437 89.2369C105.517 89.2498 105.592 89.2843 105.654 89.3369C105.716 89.3894 105.762 89.4579 105.788 89.5349C105.802 89.6632 105.786 89.7929 105.743 89.9145C105.7 90.0361 105.63 90.1464 105.539 90.2375C104.89 90.9935 103.76 91.0691 103.204 91.5716C103.54 92.0573 104.001 92.443 104.538 92.6877C104.592 92.7236 104.636 92.7713 104.668 92.827C104.699 92.8827 104.718 92.9451 104.722 93.0091C104.726 93.0732 104.715 93.1373 104.69 93.1965C104.665 93.2557 104.627 93.3083 104.578 93.3503C104.074 93.7691 103.522 94.1259 102.933 94.4131C101.839 94.9834 100.605 95.2317 99.3754 95.1291C99.4605 95.138 99.5459 95.1167 99.6168 95.069C99.6878 95.0213 99.7397 94.9502 99.7636 94.8681C99.7874 94.786 99.7816 94.6981 99.7473 94.6198C99.7129 94.5415 99.6521 94.4778 99.5755 94.4398L99.6378 94.4665L99.9046 94.5732C100.684 94.8865 101.498 95.1088 102.328 95.2358H102.462H102.528C102.638 95.245 102.743 95.2821 102.834 95.3437C102.925 95.4053 102.999 95.4893 103.048 95.5876C103.097 95.6858 103.12 95.7951 103.115 95.9048C103.109 96.0145 103.076 96.121 103.017 96.2141C102.8 96.5476 102.293 96.5299 102.03 96.8145C101.883 96.9834 101.915 96.9301 101.915 97.1391C101.95 97.3775 101.958 97.6193 101.937 97.8595C101.903 98.0453 101.805 98.2135 101.661 98.3353C101.544 98.4301 101.405 98.4942 101.256 98.5221C100.207 98.611 99.1709 98.2908 98.1436 98.2019C97.4832 98.1183 96.8126 98.2231 96.2092 98.5043C96.037 98.6179 95.8352 98.6784 95.6289 98.6784C95.4226 98.6784 95.2208 98.6179 95.0486 98.5043C95.1333 98.5665 95.232 98.607 95.336 98.6223C95.44 98.6376 95.5461 98.6273 95.6452 98.5922C95.7443 98.5572 95.8333 98.4984 95.9045 98.4211C95.9756 98.3437 96.0268 98.2502 96.0536 98.1485C95.8401 99.4159 95.6756 100.781 96.0936 101.991C96.1557 102.131 96.2578 102.25 96.3871 102.333C98.2103 103.454 100.621 103.747 102.751 104.316C104.334 104.721 106.068 105.015 107.402 106.068C111.178 109.181 111.182 115.247 111.524 119.716L111.756 124.399C111.809 125.968 112.076 127.511 112.102 129.081L111.711 128.801C111.965 128.77 112.223 128.827 112.44 128.961C115.58 130.709 117.119 134.662 116.589 138.126C115.891 141.991 111.613 142.475 108.914 140.207C108.958 140.172 108.767 140.256 109.239 140.243C109.608 139.932 109.403 139.994 109.457 140.003C109.418 140.116 109.37 140.226 109.314 140.332L109.194 140.572C108.42 142.158 107.941 143.871 107.78 145.628C107.429 148.692 107.758 151.818 108.291 154.86L107.535 154.798C101.159 154.258 94.7847 153.677 88.4138 153.054C87.4987 151.343 86.7525 149.547 86.1859 147.691C84.572 142.608 83.5003 137.369 82.9886 132.061C82.2815 125.003 82.4016 117.782 83.958 110.844C84.5161 108.232 85.2591 105.663 86.1815 103.156C86.5906 102.182 86.8441 101.186 87.5556 100.35L87.6178 100.296L87.6534 100.27C87.5385 100.355 87.4567 100.478 87.4221 100.617V100.577L87.4977 100.274C87.8129 98.8092 88.018 97.3228 88.1114 95.8272C88.396 92.3453 87.6667 88.69 88.8363 85.3014C90.824 78.929 95.9513 77.6439 101.621 80.4943L101.612 80.4676ZM101.532 80.6277C96.058 77.9374 91.0241 79.1202 89.4188 85.4348C88.4094 88.8678 89.3521 92.3364 89.2365 95.8406C89.2308 97.5251 89.082 99.2062 88.7918 100.866C88.7761 100.969 88.7401 101.068 88.6859 101.157C88.6317 101.247 88.5604 101.324 88.4761 101.386C88.4272 101.417 88.4761 101.386 88.4761 101.386C88.4761 101.386 88.5561 101.306 88.5161 101.386C88.1593 102.121 87.8618 102.884 87.6267 103.667C83.5889 116.078 83.7757 129.504 86.5283 142.164C87.3243 145.472 88.2004 148.879 89.7079 151.92L89.0764 151.511C92.1892 151.849 95.3021 152.218 98.4149 152.579C101.528 152.939 104.641 153.303 107.753 153.69L107.117 154.357C106.513 149.537 106.375 144.232 108.856 139.86L109.083 139.611C109.563 139.611 109.377 139.691 109.421 139.656L109.457 139.687L109.51 139.732C112.952 142.542 116.825 140.492 116.216 135.987C115.958 133.359 114.437 130.429 111.978 129.441L111.582 129.161C111.449 127.631 111.137 126.048 111.031 124.51C110.422 119.676 110.617 110.453 106.584 107.327C105.401 106.46 103.893 106.282 102.484 105.904C100.972 105.544 99.4288 105.237 97.8768 104.734C96.8185 104.348 95.2443 103.845 94.764 102.587C94.2481 101.137 94.4171 99.5671 94.7017 98.1174L94.7329 97.9662V97.8862C94.76 97.76 94.8165 97.642 94.8978 97.5417C94.979 97.4415 95.0826 97.3617 95.2004 97.3089C95.3181 97.2561 95.4466 97.2317 95.5755 97.2377C95.7044 97.2438 95.8301 97.2801 95.9424 97.3436C95.9763 97.364 96.0089 97.3862 96.0402 97.4103C95.9724 97.3575 95.8941 97.3198 95.8105 97.2999C95.7268 97.2799 95.6399 97.2782 95.5555 97.2947C96.4435 96.8928 97.4273 96.751 98.3927 96.8856C99.331 97.0101 100.211 97.2858 101.105 97.3303C101.055 97.3471 101.009 97.3727 100.967 97.4059C100.894 97.4632 100.845 97.5456 100.83 97.6371C100.83 97.6905 100.83 97.5927 100.83 97.5037V97.1835C100.821 96.951 100.866 96.7195 100.962 96.5074C101.057 96.2952 101.201 96.1081 101.381 95.9606C101.694 95.7171 102.055 95.5415 102.439 95.4448C102.357 95.4698 102.284 95.5179 102.229 95.5835C102.174 95.649 102.139 95.7291 102.128 95.8142C102.117 95.8992 102.131 95.9856 102.168 96.0628C102.205 96.1401 102.264 96.205 102.337 96.2497C102.382 96.2782 102.432 96.2992 102.484 96.312C102.559 96.312 102.484 96.312 102.484 96.312H102.404C101.444 96.1369 100.511 95.838 99.6289 95.4226L99.3532 95.3025L99.2865 95.2669C99.1587 95.2122 99.0562 95.1111 98.9997 94.9841C98.9432 94.857 98.9369 94.7133 98.9818 94.5817C99.0268 94.4501 99.1199 94.3404 99.2423 94.2745C99.3648 94.2086 99.5076 94.1914 99.6422 94.2264C101.265 94.4576 102.915 93.8083 104.218 92.8567C104.192 92.882 104.172 92.913 104.159 92.9473C104.147 92.9816 104.143 93.0183 104.147 93.0546C104.152 93.0908 104.164 93.1255 104.184 93.156C104.204 93.1864 104.231 93.2119 104.263 93.2302L104.009 93.0791C103.48 92.7589 102.186 91.745 102.951 91.1135C103.68 90.6021 104.681 90.5977 105.29 89.9707C105.346 89.9133 105.393 89.8472 105.428 89.775C105.456 89.7294 105.473 89.6775 105.477 89.6238C105.477 89.6238 105.477 89.6016 105.388 89.5793C104.892 89.5395 104.405 89.4333 103.938 89.2636C102.346 88.3164 103.76 86.1508 103.449 84.7233C103.306 83.1851 102.648 81.7402 101.581 80.6233L101.532 80.6277Z" fill="#F43B00"/>
<path d="M97.468 94.8136C96.5252 91.643 97.9127 83.772 97.9127 83.772L99.7937 86.2711L102.533 84.8837L102.675 82.9448L104.085 84.0966L106.308 82.9715C105.33 80.6814 103.302 77.3506 99.7982 77.4173C99.0244 77.4173 98.2151 78.2044 98.2151 78.2044C98.021 77.84 97.7474 77.5239 97.4146 77.2795C95.6359 76.1767 87.1601 74.6736 83.6781 80.1166C81.8994 82.927 83.8071 86.9159 81.8994 88.9704C81.8994 88.9704 79.9161 90.638 76.6921 94.8848C74.6776 97.5529 75.2246 103.281 78.4975 105.722C81.7704 108.163 84.9099 109.448 90.811 108.114C94.5108 107.278 97.508 105.001 98.175 103.223C98.8421 101.444 98.4908 98.2733 97.468 94.8136Z" fill="#F43B00"/>
<path d="M111.833 141.209C110.841 140.97 109.935 140.462 109.214 139.741C104.255 134.823 102.316 126.054 102.316 126.054" stroke="#F43B00" stroke-width="0.44469" stroke-miterlimit="10" stroke-linecap="round"/>
<path d="M111.729 129.077L113.031 133.653" stroke="#F43B00" stroke-width="0.44469" stroke-miterlimit="10" stroke-linecap="round"/>
<path d="M108.76 147.98C108.76 147.98 130.31 184.169 131.439 187.94C131.933 189.617 141.142 226.046 141 226.593L113.985 231.702V194.966C113.985 194.815 111.846 188.149 108.511 183.658C106.508 180.958 104.205 178.495 101.645 176.316C101.227 175.694 100.978 175.898 100.947 176.65C100.747 181.061 99.9505 189.101 99.786 193.383C99.6393 197.297 98.3541 231.702 98.3541 231.702L74.8789 230.724C74.8789 230.724 81.9184 196.714 81.9184 193.179C81.9184 189.644 83.0745 167.022 86.0095 151.378L108.76 147.98Z" fill="#F43B00"/>
<path d="M106.855 100.715C106.086 101.16 105.286 101.511 104.481 101.871C103.676 102.231 102.835 102.592 101.964 102.431C101.841 102.401 101.725 102.345 101.626 102.267C101.408 100.982 104.232 100.199 105.183 99.8345L105.437 100.626C104.138 101.106 102.844 101.622 101.435 101.716C101.229 101.741 101.021 101.7 100.842 101.597C100.662 101.494 100.521 101.336 100.438 101.146C100.056 99.6833 103.685 98.8206 104.721 98.4426L105.068 99.6122C103.591 100.026 101.995 100.697 100.438 100.528C100.242 100.488 100.067 100.379 99.9425 100.223C99.8182 100.066 99.7529 99.8701 99.7581 99.67C99.8515 98.9585 100.501 98.7094 101.021 98.4204C102.119 97.9153 103.255 97.4961 104.418 97.1664L104.801 98.4337C104.267 98.5938 102.915 98.9851 102.395 99.1274C102.041 99.2613 101.659 99.3041 101.283 99.252C101.142 99.2294 101.007 99.1761 100.889 99.0958C100.77 99.0154 100.671 98.91 100.597 98.787C100.524 98.664 100.478 98.5264 100.464 98.3839C100.45 98.2414 100.467 98.0975 100.514 97.9623C100.919 96.9618 102.617 96.4904 103.138 96.3348C104.592 95.7567 106.38 94.9518 107.887 95.8456C109.786 97.1263 109.564 99.6166 109.795 101.627C110.039 104.855 110.271 108.124 109.91 111.356C109.875 107.056 109.163 102.778 108.541 98.5271C108.39 98.0335 107.94 97.073 107.322 96.7483C107.146 96.6389 106.943 96.5789 106.735 96.5749C105.73 96.5393 104.565 97.0196 103.622 97.4643C102.928 97.6458 102.279 97.9682 101.715 98.4115C101.715 98.4115 101.715 98.4382 101.715 98.4115C101.737 98.3342 101.732 98.2517 101.702 98.1774C101.671 98.1032 101.616 98.0414 101.546 98.0024C101.98 97.91 102.409 97.7958 102.831 97.66L104.401 97.1841L104.783 98.4471C103.526 98.7981 102.307 99.2702 101.141 99.8567C101.089 99.888 101.04 99.9237 100.994 99.9635C101.036 99.9052 101.058 99.835 101.057 99.7633C101.06 99.6848 101.046 99.6064 101.015 99.5341C100.984 99.4617 100.938 99.3972 100.879 99.3453C100.844 99.3148 100.803 99.292 100.759 99.2786C102.066 99.2786 103.427 98.7895 104.699 98.456L105.045 99.6255C103.826 99.9064 102.651 100.355 101.555 100.96C101.377 101.084 101.515 101.093 101.461 100.844C101.449 100.804 101.429 100.768 101.403 100.736C101.376 100.705 101.343 100.68 101.306 100.662C101.354 100.67 101.404 100.67 101.452 100.662C102.702 100.626 103.952 100.181 105.152 99.8345L105.406 100.626C104.455 100.848 103.534 101.18 102.662 101.618C102.488 101.72 102.217 101.911 102.159 102.062L102.066 101.889C102.76 102.102 103.654 101.791 104.383 101.573C105.214 101.289 106.05 101.026 106.864 100.684L106.855 100.715Z" fill="#F43B00"/>
<path d="M105.939 101.088C106.178 102.49 106.109 103.926 105.739 105.299C105.5 103.897 105.569 102.461 105.939 101.088Z" fill="#F43B00"/>
<path d="M119.565 230.297C119.756 232.436 120.009 235.553 120.103 237.644C120.152 239.916 120.276 244.189 122.829 244.972C123.619 245.062 124.413 245.111 125.208 245.119C130.317 245.417 135.436 245.666 140.567 245.332H140.474C140.723 245.248 141.154 244.999 141.212 244.785C141.198 244.703 141.154 244.628 141.088 244.576C140.336 243.945 139.309 243.709 138.313 243.42C133.915 242.291 129.432 241.521 124.91 241.117C124.883 241.117 124.536 241.085 124.505 241.081C124.225 241.053 123.956 240.958 123.719 240.806C123.483 240.653 123.286 240.446 123.145 240.203C123.004 239.959 122.923 239.686 122.908 239.405C122.893 239.124 122.945 238.843 123.06 238.586L123.029 238.662C123.353 237.741 123.705 236.834 124.052 235.923C124.999 233.392 126.253 230.288 127.289 227.776L128.085 228.665C125.701 229.159 122.024 229.857 119.565 230.297ZM119.427 230.186C122.54 229.088 125.781 227.963 128.943 226.993C127.978 230.039 126.844 233.561 125.79 236.567C125.461 237.515 125.145 238.466 124.785 239.4C124.793 239.383 124.798 239.364 124.798 239.345C124.798 239.327 124.795 239.308 124.788 239.29C124.781 239.273 124.77 239.257 124.757 239.244C124.743 239.23 124.727 239.22 124.71 239.213H124.674L125.088 239.253C129.719 239.747 134.277 240.782 138.668 242.335C139.767 242.82 141.394 243.251 141.973 244.461C142.23 245.35 141.301 245.848 140.638 246.017C135.493 245.901 130.357 246.333 125.217 246.591L123.5 246.622C122.797 246.638 122.103 246.464 121.49 246.119C120.877 245.774 120.369 245.27 120.018 244.661C118.76 242.495 118.715 239.791 118.906 237.603C119.004 235.131 119.209 232.596 119.445 230.195L119.427 230.186Z" fill="#F43B00"/>
<path d="M100.184 88.0547C100.184 88.0547 100.908 89.2286 102.122 88.944C103.336 88.6594 102.838 87.4766 102.838 87.4766" stroke="#F43B00" stroke-width="0.88938" stroke-miterlimit="10" stroke-linecap="round"/>
<path d="M80.9343 231.049C80.9877 231.022 80.9343 231.089 80.9343 231.129C80.9343 231.169 80.8899 231.436 80.881 231.512C80.8409 231.827 80.7075 232.726 80.6631 233.055C80.4185 235.278 78.8843 243.959 80.961 245.061C81.09 245.124 81.628 245.195 81.8148 245.248C87.2596 246.01 92.7786 246.083 98.2417 245.466C98.5263 245.395 99.3801 245.181 99.6158 244.879C99.6647 244.817 99.6158 244.821 99.6158 244.839C99.6158 244.857 99.5935 244.803 99.5268 244.732C98.4774 243.843 97.0143 243.496 95.6669 243.1C93.3212 242.519 90.9461 242.063 88.5519 241.735C87.3379 241.553 86.1328 241.348 84.8698 241.046C84.2824 240.932 83.7251 240.697 83.2334 240.357C82.1839 239.503 83.0244 238.049 83.4913 237.11C84.725 234.945 86.1225 232.877 87.6714 230.925L88.165 231.921C86.1328 231.721 82.9932 231.329 80.9121 231.058L80.9343 231.049ZM80.832 230.902C83.5002 230.782 86.6975 230.622 89.3523 230.64L88.7297 231.645C87.2934 234.1 85.5636 236.537 84.6208 239.205C84.6194 239.23 84.6194 239.255 84.6208 239.28C84.6142 239.163 84.5706 239.051 84.4963 238.96C87.956 239.921 92.4073 240.383 96.1383 241.655C97.6413 242.206 99.2911 242.785 100.412 244.079C101.403 245.542 99.4334 246.204 98.3128 246.271C95.538 246.293 92.7809 246.387 90.0149 246.547C87.2489 246.707 84.4652 247.031 81.6325 246.773C80.9692 246.757 80.3239 246.555 79.7692 246.191C76.7365 243.656 79.5069 234.104 80.8365 230.916L80.832 230.902Z" fill="#F43B00"/>
<path d="M79.2408 239.828C79.2408 239.828 82.5582 239.521 83.6877 239.463C83.6877 239.463 84.626 240.085 87.9656 240.686C91.3052 241.286 96.3124 241.855 98.1935 243.225C100.075 244.595 100.564 245.004 99.1229 245.653C97.6821 246.302 83.83 246.173 83.83 246.173C83.83 246.173 79.2497 246.56 79.2141 243.456C79.1785 240.352 79.2408 239.828 79.2408 239.828Z" fill="#F43B00"/>
<path d="M119.541 240.286L124.015 239.841C124.015 239.841 123.895 240.05 125.624 240.259C127.374 240.426 129.113 240.681 130.836 241.024C133.202 241.5 135.434 242.002 136.719 242.358C138.005 242.714 140.201 243.301 140.851 243.861C141.5 244.421 141.669 244.474 141.544 245.017C141.42 245.56 141.384 245.653 139.112 245.697C136.84 245.742 127.399 245.697 127.399 245.697C127.399 245.697 121.671 246.64 120.591 244.11C119.51 241.58 119.541 240.286 119.541 240.286Z" fill="#F43B00"/>
<path d="M105.811 103.761L109.666 104.285" stroke="#F43B00" stroke-width="0.44469" stroke-miterlimit="10" stroke-linecap="round"/>
<path d="M84.5273 106.842C84.5273 106.842 89.9792 110.635 102.315 105.063" stroke="#F43B00" stroke-width="0.88938" stroke-miterlimit="10" stroke-linecap="round"/>
<path opacity="0.2" d="M102.316 127.236C102.077 128.001 101.909 128.785 101.813 129.58C101.715 130.656 103.276 131.047 103.276 132.902C103.276 134.756 103.08 135.147 103.765 135.734C104.45 136.321 103.863 139.056 103.765 140.128C103.667 141.2 104.859 143.156 105.193 143.841C105.768 144.758 106.4 145.638 107.083 146.478L109.226 139.741C109.226 139.741 103.979 133.489 102.316 127.236Z" fill="#F43B00"/>
<path opacity="0.2" d="M84.7441 111.361C84.7441 111.361 87.6346 112.575 90.0804 111.361C92.5262 110.147 93.1933 109.56 94.4784 109.56C95.7636 109.56 97.9336 107.279 98.2271 104.023H96.1371C96.1371 104.023 91.6902 108.235 85.6691 107.381L84.7441 111.361Z" fill="#F43B00"/>
<path opacity="0.2" d="M80.0801 234.46C80.5844 234.578 81.1088 234.583 81.615 234.473C82.1212 234.363 82.5964 234.141 83.0061 233.824C84.3046 232.744 84.5225 232.686 85.2785 232.744C86.0345 232.801 87.7287 233.121 88.2357 231.28L80.9028 230.974L80.0801 234.46Z" fill="#F43B00"/>
<path opacity="0.2" d="M22.8965 207.435C23.4008 207.553 24.3539 207.545 24.8601 207.435C25.3663 207.325 25.8416 207.103 26.2513 206.786C27.5498 205.705 27.7677 205.648 28.5237 205.705C29.2796 205.763 31.9093 206.152 32.4163 204.311L24.1479 203.936L22.8965 207.435Z" fill="#F43B00"/>
<path opacity="0.2" d="M64.8027 201.512C65.3071 201.63 66.2602 201.622 66.7664 201.512C67.2726 201.402 67.7478 201.18 68.1576 200.863C69.456 199.783 69.6739 199.725 70.4299 199.783C71.1859 199.84 73.8156 200.229 74.3225 198.388L66.0542 198.013L64.8027 201.512Z" fill="#F43B00"/>
<path opacity="0.2" d="M119.543 233.766C119.543 233.766 121.859 234.367 123.429 232.557C124.999 230.747 126.787 231.121 127.147 230.133C127.351 229.443 127.351 228.707 127.147 228.017L119.498 230.24L119.543 233.766Z" fill="#F43B00"/>
<path opacity="0.2" d="M108.312 149.431L129.658 186.313C129.658 186.313 130.058 187.692 130.547 189.533C131.036 191.374 139.668 225.513 139.668 225.513L132.953 226.891C132.953 226.891 134.238 224.775 134.238 223.396C134.238 222.017 133.411 222.017 133.687 220.452C133.962 218.887 133.322 219.532 133.504 217.602C133.687 215.672 132.495 215.303 132.308 213.368C132.121 211.434 127.803 203.896 127.803 200.308C127.803 196.719 127.528 190.818 126.607 189.862C126.279 189.515 126.028 189.104 125.87 188.654C125.711 188.205 125.649 187.727 125.687 187.252C125.687 186.607 126.238 187.065 125.687 186.607C125.135 186.149 124.001 184.49 123.419 182.742C122.836 180.995 120.395 180.074 119.456 176.672C118.518 173.271 118.567 169.958 116.459 168.855C114.351 167.752 113.271 167.2 113.084 163.612C112.897 160.023 110.509 157.542 110.145 155.701C109.78 153.86 108.312 149.431 108.312 149.431Z" fill="white"/>
<path d="M28.79 92.5099C29.2347 102.987 31.0134 113.682 35.6071 123.194L34.9979 122.9C39.8895 121.908 49.8016 119.996 54.7154 119.049L54.124 119.823C53.7826 116.023 53.7053 112.205 53.8927 108.394C54.1551 104.116 54.6265 99.7273 56.4497 95.7829C58.2472 98.2154 60.5043 100.272 63.0934 101.835C65.0411 103.036 68.105 104.228 70.2084 105.166C75.1 107.265 80.0183 109.315 84.941 111.351L84.1495 111.978L83.2334 105.615L83.4602 105.966C79.5514 103.249 75.6781 100.505 71.9827 97.4949C68.1495 94.5822 65.8994 90.1353 63.2223 86.2532C61.8883 84.3499 60.5542 82.3488 58.642 80.9925C57.6564 80.3822 56.5802 79.9319 55.4536 79.6584C53.179 79.0389 50.8549 78.6179 48.5076 78.3999C47.3291 78.2487 46.0751 78.062 44.9989 77.3282C43.9228 76.5945 43.5226 75.256 43.3447 74.0331C43.1372 72.61 43.1162 71.1659 43.2824 69.7374C44.4386 70.8491 45.8305 71.8763 47.4003 72.2588C47.8183 72.3299 48.2897 72.4455 48.6143 72.1965C48.6419 72.166 48.6628 72.13 48.6758 72.091C48.6888 72.052 48.6936 72.0107 48.6899 71.9697C48.6635 71.5377 48.7373 71.1055 48.9055 70.7067C49.0736 70.3079 49.3316 69.9534 49.6593 69.6707L49.7705 70.4C48.4853 69.9997 47.0756 69.475 46.2797 68.2966C46.1377 68.0873 46.045 67.8486 46.0084 67.5984C45.9808 67.4033 46.0233 67.2047 46.1285 67.0381C46.1929 66.9437 46.2781 66.8654 46.3775 66.8091C46.477 66.7528 46.588 66.7201 46.7021 66.7135C46.8529 66.7062 47.0038 66.7273 47.1468 66.7757C47.8991 67.0516 48.6744 67.2599 49.4636 67.3983C49.7909 67.4579 50.1227 67.4891 50.4553 67.4917L50.104 68.2966C49.2546 67.3805 48.4097 65.4505 50.1974 64.9925C51.0868 64.788 51.8205 64.9925 52.6076 64.6723C52.7543 64.5923 52.6076 64.6234 52.6076 64.788C52.6076 64.9525 52.7099 64.9703 52.5809 64.8947C51.0556 64.45 49.1657 63.6006 48.8944 61.7819C48.761 60.7146 49.0901 59.6918 49.0234 58.629C49.0212 57.9872 48.9707 57.3466 48.8722 56.7124L49.9617 57.0726C48.6844 58.3236 47.0797 59.1884 45.3325 59.5673C44.114 59.9453 42.5576 60.8569 42.0862 62.0753L41.9706 62.7691C41.1257 62.609 40.0673 62.4444 39.2758 62.8625C38.2308 63.3071 38.0573 65.2327 38.8311 65.9753C39.4047 66.6112 40.4275 66.7579 41.2458 66.7935C41.2458 69.4617 41.4281 72.1565 40.8411 74.7979C39.4136 78.3332 35.0334 78.6089 31.845 79.2448C29.1502 79.7207 26.5443 80.4144 24.3342 81.824C18.9668 85.3504 15.2225 92.1053 13.048 98.1086C12.6002 99.3357 12.3016 100.612 12.1586 101.911C12.1853 104.49 13.4615 107.002 14.4354 109.386C15.5916 111.961 16.899 114.509 18.2775 116.972C18.1833 118.057 18.3798 119.147 18.8467 120.13C19.705 121.744 19.9718 123.371 20.71 124.901C20.71 124.923 20.7366 124.932 20.71 124.901C20.6558 124.86 20.5959 124.827 20.5321 124.803C20.3905 124.747 20.2347 124.738 20.0874 124.777C20.0033 124.795 19.9242 124.832 19.8559 124.884C19.7875 124.936 19.7314 125.003 19.6916 125.079C19.8295 123.865 19.4737 122.478 19.2469 121.215L20.8834 120.717C21.4393 122.131 22.0085 123.754 22.84 124.959C22.7428 124.887 22.6224 124.854 22.5021 124.866C22.4323 124.865 22.3629 124.877 22.2975 124.901C22.2444 124.919 22.1937 124.943 22.1463 124.972C22.1075 124.996 22.0729 125.026 22.044 125.061C21.9418 125.19 21.9684 125.212 21.9684 125.181C21.8795 123.643 21.1146 122.144 20.5365 120.734L21.9106 120.001C22.3553 120.774 22.8534 121.553 23.347 122.304C23.7423 122.946 24.198 123.549 24.7077 124.105C24.6129 124.06 24.508 124.039 24.4029 124.045C24.2979 124.051 24.1962 124.084 24.1074 124.141L24.0718 124.172C24.0152 124.222 23.9736 124.286 23.9518 124.359C23.8051 123.756 23.5553 123.182 23.2136 122.664C22.75 121.883 22.2438 121.127 21.6972 120.401C21.6424 120.316 21.606 120.221 21.5905 120.121C21.7016 120.183 21.2658 119.992 22.0351 119.351C22.7644 119.271 22.422 119.351 22.5421 119.351C22.6067 119.373 22.6669 119.407 22.72 119.449C22.9156 119.609 23.1647 119.85 23.3247 120.027C24.2808 120.917 25.2325 122.015 26.3397 122.696H26.2775C26.2407 122.689 26.2031 122.689 26.1663 122.696C26.1179 122.714 26.0739 122.743 26.0374 122.78C25.9783 122.837 25.9406 122.912 25.9306 122.993C25.7392 122.58 25.4956 122.193 25.2058 121.842C23.958 120.346 22.6089 118.937 21.168 117.626C22.2563 117.606 23.3421 117.516 24.4187 117.355C24.525 117.333 24.6291 117.302 24.73 117.261C24.73 117.261 24.73 117.261 24.681 117.306C24.6321 117.35 24.6588 117.337 24.6455 117.359L24.6099 117.453C24.5801 117.548 24.5801 117.651 24.6099 117.746C24.6677 117.88 24.6988 117.875 24.6988 117.88H24.6677C23.3648 117.257 21.4748 116.99 20.0385 116.71L19.6961 116.648C19.2514 114.238 18.8556 111.832 18.5532 109.404C18.4109 108.248 18.2909 107.087 18.233 105.913C18.1752 104.739 18.1397 103.374 18.7845 102.355C19.9584 100.274 21.6616 98.6378 23.3603 97.0191C24.85 95.6317 26.4242 94.3287 28.0296 93.0836C28.1452 92.9858 28.4387 92.7768 28.5499 92.6878C28.661 92.5989 28.7099 92.5277 28.8167 92.5455L28.79 92.5099ZM28.7144 92.67C28.7411 92.7145 28.8033 92.67 28.7633 92.6967L28.7233 92.7323C28.372 93.0124 27.8339 93.4794 27.4737 93.7729C24.939 96.0363 19.2603 100.803 18.8867 104.112C18.9846 108.114 19.8206 112.116 20.5899 116.065L20.1808 115.674C21.8484 115.927 23.6805 116.154 25.2191 116.875C25.4076 116.966 25.5551 117.125 25.6327 117.319C25.9929 118.653 23.347 118.582 22.5599 118.698L22.9334 117.675C24.0885 118.712 25.1716 119.826 26.1752 121.01C26.5977 121.597 27.2469 122.22 27.2113 123.14C27.181 123.331 27.0959 123.509 26.9665 123.653C26.8371 123.796 26.6688 123.9 26.482 123.95C26.3814 123.981 26.2758 123.993 26.1708 123.985C25.9808 123.971 25.7966 123.913 25.6327 123.816C24.6348 123.148 23.7106 122.376 22.8756 121.513C22.5777 121.25 22.1552 120.797 21.8617 120.539H21.8839C21.9323 120.573 21.9845 120.601 22.0396 120.623C22.1597 120.597 21.8128 120.699 22.5421 120.623C23.3025 119.983 22.8667 119.796 22.9868 119.863C22.9677 119.749 22.922 119.64 22.8534 119.547C23.4227 120.303 23.9526 121.089 24.4409 121.9C24.9345 122.824 25.9973 124.301 25.019 125.275C24.8841 125.395 24.7155 125.472 24.536 125.494C24.3564 125.516 24.1743 125.483 24.014 125.399C23.569 125.106 23.1891 124.725 22.8978 124.279C22.044 123.149 21.3014 121.975 20.5588 120.774L21.9329 120.045C22.4754 121.379 24.7655 125.662 22.8222 126.435C21.8662 126.675 21.4081 125.786 21.0435 125.181C20.3755 123.927 19.7903 122.63 19.2914 121.299L20.9279 120.797C21.226 121.976 21.4238 123.178 21.5193 124.39C21.5787 124.926 21.4863 125.469 21.2525 125.955C21.0978 126.216 20.8472 126.406 20.5543 126.484C20.3791 126.525 20.1965 126.524 20.0223 126.479C19.848 126.434 19.6872 126.347 19.5538 126.226C18.9179 125.586 18.7845 124.83 18.4865 124.079C18.1616 123.013 17.7588 121.972 17.2814 120.966C16.6765 119.776 16.3958 118.448 16.4676 117.115L16.5832 117.626C15.2003 115.171 13.9151 112.699 12.7456 110.133C11.5983 107.487 10.2331 104.797 10.2642 101.795C11.1269 94.6222 17.2236 84.0742 23.4003 80.2409C25.8639 78.689 28.7366 77.9552 31.556 77.4839C33.9973 76.9725 37.0657 76.9236 38.7599 75.0514C39.141 74.6583 39.3764 74.1469 39.427 73.6017C39.6355 71.5721 39.7216 69.5317 39.6849 67.4917L40.4186 68.2699C40.1633 68.2424 39.9105 68.1948 39.6627 68.1276C37.1146 67.5406 36.1051 64.7568 37.4392 62.5645C38.3286 61.1993 40.0718 60.9014 41.5659 61.1771L40.7077 61.7463C40.8436 61.2162 41.1148 60.7305 41.4948 60.3366C42.4457 59.3152 43.6573 58.5726 44.9989 58.1888C45.7619 58.0563 46.497 57.7962 47.1735 57.4194C48.1931 56.8074 49.1417 56.0841 50.0017 55.2627C50.2086 56.3563 50.3113 57.4671 50.3085 58.5801C50.4153 59.7541 49.7349 61.2482 50.3708 62.2532C50.8155 62.9603 51.7582 63.3961 52.5943 63.6673C52.941 63.7525 53.2577 63.9309 53.5103 64.1832C53.659 64.3492 53.74 64.5651 53.7371 64.788C53.7325 64.9027 53.705 65.0153 53.6561 65.1192C53.6072 65.2231 53.538 65.3161 53.4525 65.3927C52.8611 65.8774 52.074 65.8863 51.3802 65.9219C50.9897 65.8708 50.5926 65.923 50.2285 66.0731C50.2102 66.0852 50.1953 66.1018 50.1852 66.1212C50.1751 66.1407 50.1701 66.1624 50.1707 66.1843C50.1707 66.9625 51.0601 67.8385 51.5048 68.4433C50.3878 68.4896 49.2707 68.356 48.1963 68.0475C47.7205 67.9186 47.2357 67.7318 46.7733 67.6028C46.817 67.5917 46.855 67.5648 46.88 67.5272C46.9156 67.4694 46.88 67.465 46.9022 67.4917C47.4581 68.928 49.4503 69.3949 50.7977 69.8574L50.1351 70.3155C49.9216 70.5011 49.7567 70.7362 49.6549 71.0003C49.388 71.5428 49.6549 72.2276 49.179 72.7034C48.7032 73.1793 47.845 73.0814 47.2491 72.9436C45.7837 72.5037 44.4469 71.7148 43.3536 70.6445L43.905 70.44C43.7292 72.1599 43.8939 73.8976 44.3897 75.5539C45.0656 77.2082 46.96 77.555 48.6009 77.7774C50.9773 78.0167 53.3283 78.4631 55.627 79.1114C56.8056 79.4124 57.9327 79.8876 58.9711 80.5211C59.9514 81.236 60.8296 82.0813 61.5814 83.0336C63.836 85.7951 65.6326 88.9124 67.7048 91.7895C69.0169 93.7381 70.6445 95.4544 72.5208 96.8679C76.234 99.7851 80.1606 102.458 84.0828 105.077L84.2695 105.201L84.3051 105.433C84.443 106.029 85.4035 112.37 85.5013 112.788L84.5452 112.41C79.5825 110.459 74.6316 108.479 69.6926 106.469C67.2023 105.41 64.6854 104.512 62.3196 103.129C59.9254 101.737 57.7977 99.9301 56.0362 97.7929L57.3969 97.6461C56.1295 101.088 55.7115 104.828 55.4625 108.479C55.3098 111.281 55.2994 114.089 55.4314 116.892C55.4314 117.186 55.627 120.072 55.6315 120.361L55.0045 120.477C49.8505 121.401 39.9517 123.198 34.7978 124.087C30.3197 114.518 28.4076 103.209 28.7322 92.6878L28.7144 92.67Z" fill="#F43B00"/>
<path d="M50.334 56.5529C51.0188 55.7506 51.5291 54.8147 51.8326 53.8047C52.3885 51.9103 52.7887 51.1365 46.4297 52.7018C40.6887 54.1115 36.2018 53.7424 35.0367 56.793C33.8716 59.8436 36.1084 60.6618 34.6543 63.6412C33.2001 66.6206 35.9528 68.3283 36.8777 68.6973C37.8027 69.0664 40.1951 69.818 40.1595 70.9208V67.8302C40.1595 67.8302 37.6959 67.7946 37.1579 65.5623C36.6198 63.3299 38.443 60.1193 41.1601 61.9469C41.1601 61.9469 42.0495 59.9281 43.8994 59.2788C45.7493 58.6296 48.9955 57.7357 50.334 56.5529Z" fill="#F43B00"/>
<path d="M45.8398 61.7111C45.8398 61.7111 46.5602 62.8896 47.7742 62.5783C47.9289 62.5475 48.0744 62.4816 48.1995 62.3855C48.3246 62.2895 48.4258 62.166 48.4955 62.0245C48.5652 61.8831 48.6013 61.7275 48.6012 61.5698C48.601 61.4121 48.5646 61.2566 48.4946 61.1152" stroke="#F43B00" stroke-width="0.88938" stroke-miterlimit="10" stroke-linecap="round"/>
<path d="M38.4805 76.4121H44.5194" stroke="#F43B00" stroke-width="0.88938" stroke-miterlimit="10" stroke-linecap="round"/>
<path d="M16.6582 115.932L19.7399 114.296" stroke="#F43B00" stroke-width="0.88938" stroke-miterlimit="10" stroke-linecap="round"/>
<path d="M66.1608 198.155C66.1875 198.155 66.1875 198.133 66.1608 198.155C66.1341 198.177 66.1252 198.302 66.1208 198.337C65.9207 199.329 65.5293 201.005 65.2936 201.988C64.7778 204.238 63.9284 207.467 63.5149 209.686C63.3881 210.223 63.3358 210.775 63.3592 211.327C63.8039 213.439 65.3292 213.55 67.188 213.604C68.5221 213.684 69.8562 213.781 71.1902 213.844C73.8584 213.986 76.4998 213.982 79.1546 213.897L78.8256 214.208C78.831 212.35 78.9498 210.494 79.1813 208.65L79.7061 209.37C77.7716 209.263 75.8461 209.103 73.9251 208.925C72.7644 208.805 70.3676 208.592 69.238 208.481C67.7128 208.441 67.1347 206.786 68.233 205.741C70.5543 202.971 72.9734 200.249 75.4281 197.595L75.9973 198.826C72.7822 198.693 69.3981 198.413 66.1652 198.151L66.1608 198.155ZM66.0585 198.013C69.8517 197.661 73.7694 197.403 77.5849 197.266C75.0235 200.547 72.3953 203.825 69.6694 206.973L69.4559 207.222C69.4912 207.174 69.5145 207.118 69.5238 207.06C69.5331 207.001 69.5282 206.94 69.5095 206.884C69.4908 206.827 69.4588 206.776 69.4162 206.734C69.3736 206.693 69.3217 206.662 69.2647 206.644C69.1002 206.613 69.4204 206.666 69.447 206.666L71.2258 206.911C74.2497 207.325 77.5182 207.76 80.5109 208.307C79.9753 210.366 79.6167 212.467 79.4392 214.586C75.355 214.446 71.266 214.54 67.1925 214.866C66.4903 214.934 65.7836 214.941 65.0802 214.889C63.3014 214.742 61.8829 213.048 61.7539 211.331C61.8295 209.326 62.5455 207.4 63.088 205.519C63.9123 202.961 64.8955 200.457 66.0318 198.022L66.0585 198.013Z" fill="#F43B00"/>
<path d="M24.2323 203.887C24.2247 203.971 24.2052 204.053 24.1745 204.132L24.0766 204.416C23.9699 204.768 23.6319 205.751 23.503 206.12C22.4668 209.135 20.9015 213.146 19.9721 216.183C18.976 219.402 22.0933 219.371 24.4413 219.585C26.7892 219.798 29.2795 219.941 31.5785 219.998C34.7596 220.087 37.9376 220.034 41.1127 219.838H41.0193C41.4049 219.739 41.7528 219.529 42.0199 219.234C42.0554 219.162 42.0465 219.153 42.0199 219.118C41.8464 218.767 41.1972 218.433 40.7836 218.229C39.5774 217.724 38.3365 217.306 37.0705 216.979C33.5663 215.929 30.0043 214.844 26.518 213.742C26.0091 213.66 25.5381 213.422 25.1706 213.061C24.9188 212.744 24.7935 212.345 24.819 211.941C24.8445 211.537 25.0188 211.156 25.3084 210.873C25.5485 210.638 25.7931 210.406 26.0377 210.18L27.5007 208.801C29.4485 206.96 31.4362 205.159 33.4373 203.371L33.9132 204.559C33.135 204.528 32.3523 204.474 31.5608 204.43C30.0355 204.345 25.8154 204.025 24.2323 203.905V203.887ZM24.1389 203.723C27.8743 203.429 31.8098 203.185 35.5719 203.096C33.3484 205.439 31.0716 207.805 28.7725 210.082C28.2789 210.584 27.1272 211.727 26.6336 212.203C26.678 212.153 26.7025 212.088 26.7025 212.021C26.7025 211.954 26.678 211.889 26.6336 211.838C26.6011 211.798 26.558 211.767 26.5091 211.749H26.5402C27.4296 212.034 29.0394 212.581 29.9376 212.892C32.4768 213.782 35.0204 214.635 37.5463 215.56C38.8553 215.987 40.1221 216.533 41.3306 217.192C43.4162 218.304 43.7586 220.07 41.1083 220.643C36.3278 220.47 31.5563 220.59 26.7803 220.852C23.7298 220.941 18.0822 221.688 18.2112 217.126C18.3712 215.44 19.2073 213.884 19.812 212.336C21.0919 209.386 22.5365 206.511 24.1389 203.723Z" fill="#F43B00"/>
<path d="M160.943 76.8577C160.133 84.0305 159.346 91.0878 157.865 98.1094L157.238 97.2734C163.139 98.2206 169.041 99.1633 175.026 99.4969L174.621 99.7281C177.076 93.4446 179.927 86.6675 182.661 80.5175L183.36 81.8516C181.527 81.5358 179.709 81.1534 177.881 80.7843C172.474 79.6592 166.381 78.1918 160.956 76.8755L160.943 76.8577ZM160.84 76.7109C168.445 77.6003 176.133 78.5742 183.684 79.9661L184.867 80.1929L184.378 81.2868C181.594 87.4146 178.406 94.045 175.333 100.048L175.195 100.32L174.928 100.28C168.778 99.2879 162.561 99.0077 156.354 98.6475C157.354 91.2745 159.048 83.8971 160.84 76.7109Z" fill="#F43B00"/>
<path d="M160.966 76.737C162.623 78.3044 164.002 80.1419 165.043 82.1711C165.533 83.1939 165.875 84.3056 166.418 85.2839C167.2 86.7914 168.374 88.0588 169.419 89.3929C170.437 90.7462 171.385 92.1503 172.261 93.5996C173.409 95.5698 174.344 97.6568 175.049 99.8253L174.898 99.9142C172.499 97.4935 170.5 94.7078 168.975 91.6608C167.849 89.6997 167.227 87.4584 165.924 85.5996C165.292 84.6658 164.461 83.852 163.776 82.9315C162.794 81.5451 161.985 80.0444 161.366 78.4624C161.144 77.9273 160.96 77.3775 160.814 76.817L160.966 76.7236V76.737Z" fill="#F43B00"/>
<path d="M122.352 108.582C129.276 104.895 136.467 101.551 143.697 98.5539C149.189 96.3971 154.748 94.396 160.089 91.8835C161.014 91.4611 161.93 91.0342 162.846 90.5895C162.927 90.5399 163.022 90.5177 163.117 90.5262C163.212 90.5347 163.301 90.5734 163.373 90.6366C163.444 90.6998 163.493 90.7843 163.513 90.8774C163.532 90.9706 163.521 91.0676 163.482 91.1542C163.411 91.3499 163.13 91.4922 162.979 91.5989L162.392 92.0436C152.649 99.5322 142.71 106.776 132.416 113.495C119.431 121.891 119.048 121.971 131.611 112.348C141.701 104.677 152.204 97.5711 162.859 90.7051C162.798 90.7511 162.754 90.8174 162.737 90.8923C162.72 90.9671 162.73 91.0457 162.765 91.114C162.8 91.1823 162.858 91.2359 162.929 91.2653C163 91.2946 163.079 91.2978 163.153 91.2743L163.068 91.3099C153.868 94.8007 145.316 99.759 136.187 103.441C131.669 105.3 127.044 107.159 122.401 108.724L122.33 108.559L122.352 108.582Z" fill="#F43B00"/>
<path d="M172.75 78.2313C177.877 65.6244 183.445 53.0307 189.266 40.7306C195.22 28.6839 201.384 15.9614 206.609 3.6123L207.498 4.01697C199.382 22.8318 190.96 41.5088 182.031 59.9457C179.042 66.0868 176.041 72.2236 172.919 78.3025L172.759 78.2313H172.75ZM172.75 78.2313C183.156 52.9729 194.62 28.1636 206.604 3.6123L207.494 4.01697C203.767 11.6167 200.067 19.4522 196.688 27.2342C192.841 36.2481 188.43 46.5027 184.21 55.3164C180.581 62.9873 176.814 70.7605 172.91 78.3203L172.75 78.2491V78.2313Z" fill="#F43B00"/>
<path d="M215.217 9.93128C208.702 21.5911 201.765 33.1886 194.623 44.4704C187.29 55.6943 179.917 66.8872 173.22 78.5069L172.491 77.9555L179.384 70.1779C190.946 57.2819 202.632 44.5148 214.665 32.0635C233.636 12.4971 233.969 12.3771 215.701 33.024C204.211 45.9779 192.36 58.6026 180.393 71.1162L173.167 78.5781L172.438 78.0267C182.665 62.6982 191.341 46.3736 201.276 30.8584C205.723 23.8278 210.352 16.6995 215.061 9.83789L215.212 9.93128H215.217Z" fill="#F43B00"/>
<path d="M233.737 44.1546C223.954 50.3536 213.802 56.2635 203.627 61.8221C193.319 67.2296 182.998 72.6059 173.055 78.6714L172.316 79.1161L172.365 78.2267C173.353 60.3547 174.673 42.3002 176.577 24.5126C179.142 1.1575 179.32 0.743934 177.982 24.6282C177.115 39.5698 175.758 54.4758 174.269 69.3685L173.29 78.3201L172.601 77.8754C180.339 73.8288 187.938 69.5405 195.4 65.0106C201.568 61.2574 207.949 57.5664 214.304 54.1157C220.659 50.6649 227.16 47.1918 233.653 43.9989L233.737 44.1546Z" fill="#F43B00"/>
<path d="M165.88 210.927C173.764 208.815 181.658 206.662 189.742 205.448C190.285 205.364 190.836 205.348 191.383 205.399C191.543 205.428 191.695 205.492 191.828 205.586C192.495 206.115 192.077 206.871 191.534 207.174C189.173 208.508 186.527 209.237 183.974 210.086C178.509 211.865 172.924 213.164 167.521 215.036C166.498 215.409 165.297 215.881 164.626 216.494C164.626 216.454 164.586 216.441 164.626 216.494C164.756 216.607 164.907 216.693 165.071 216.748C167.014 217.424 169.211 217.233 171.261 217.144C176.984 216.726 182.636 215.681 188.301 214.76C192.335 214.182 208.535 210.949 210.9 214.124C211.011 214.373 211.034 214.651 210.967 214.915C210.9 215.179 210.747 215.412 210.531 215.578C208.864 216.868 206.912 217.299 204.995 217.984C199.53 219.701 193.878 220.99 188.466 222.769C187.283 223.214 185.98 223.56 185.006 224.285C185.048 224.201 185.07 224.108 185.07 224.014C185.07 223.92 185.048 223.827 185.006 223.743C184.953 223.672 184.975 223.663 184.917 223.618C184.859 223.574 184.917 223.618 184.917 223.618C184.917 223.618 184.948 223.64 184.979 223.654L185.068 223.698C186.406 224.07 187.785 224.278 189.173 224.316C193.389 224.508 197.586 223.894 201.78 223.102C206.511 222.293 211.096 220.763 215.912 220.141C216.49 220.105 217.331 220.141 217.477 220.883C217.485 221.048 217.458 221.213 217.398 221.366C217.337 221.519 217.244 221.658 217.126 221.773C216.747 222.141 216.328 222.467 215.877 222.742C214.213 223.801 212.506 224.663 210.789 225.535C207.352 227.242 203.857 228.817 200.326 230.315C200.305 230.323 200.282 230.322 200.262 230.314C200.241 230.305 200.225 230.29 200.215 230.27C200.206 230.25 200.204 230.227 200.211 230.206C200.217 230.185 200.231 230.167 200.25 230.155C203.225 228.568 207.481 226.389 210.367 224.739C212.328 223.6 214.787 222.32 216.246 220.919C216.23 221.008 216.239 221.1 216.274 221.183C216.309 221.267 216.367 221.339 216.441 221.39C215.374 221.479 214.318 221.671 213.288 221.964C209.589 222.92 205.88 223.978 202.127 224.774C196.946 225.846 191.454 226.753 186.118 225.877C185.34 225.786 184.586 225.551 183.894 225.184C183.587 225.008 183.36 224.722 183.258 224.383C183.156 224.045 183.188 223.68 183.347 223.365C183.598 222.96 183.953 222.63 184.375 222.409C185.497 221.821 186.675 221.347 187.892 220.995C193.437 219.278 199.009 218.077 204.541 216.468C206.231 215.916 208.21 215.507 209.633 214.48C209.64 214.478 209.648 214.478 209.655 214.48C209.655 214.515 209.633 214.551 209.655 214.591C209.678 214.631 209.655 214.702 209.695 214.747C209.735 214.791 209.695 214.778 209.722 214.787C209.262 214.533 208.758 214.369 208.237 214.302C205.484 213.764 202.625 213.897 199.814 214.057C192.206 214.587 184.646 215.961 177.073 217.108C173.235 217.588 169.38 218.464 165.511 217.9C164.595 217.766 163.083 217.086 163.808 215.916C164.657 214.822 166 214.418 167.134 213.884C174.654 210.771 182.747 209.339 190.236 206.24C190.436 206.146 190.636 206.044 190.792 205.951C190.858 205.92 190.938 205.826 190.863 205.924C190.819 206 190.791 206.084 190.781 206.171C190.772 206.259 190.78 206.347 190.807 206.43C190.833 206.514 190.877 206.591 190.934 206.657C190.992 206.723 191.063 206.776 191.143 206.813C190.266 206.796 189.389 206.86 188.524 207.005C184.77 207.534 181.004 208.268 177.246 208.961L165.907 211.1C165.884 211.104 165.86 211.099 165.841 211.086C165.822 211.072 165.809 211.052 165.804 211.029C165.8 211.007 165.804 210.985 165.816 210.966C165.827 210.947 165.845 210.933 165.867 210.927H165.88Z" fill="#F43B00"/>
<path opacity="0.2" d="M192.764 224.323C209.74 223.288 223.312 219.34 223.078 215.506C222.845 211.672 208.893 209.404 191.917 210.439C174.941 211.474 161.369 215.422 161.603 219.256C161.837 223.09 175.788 225.358 192.764 224.323Z" fill="#F43B00"/>
<path d="M233.619 158.707C233.765 176.562 219.433 192.059 201.263 191.712C183.578 191.565 168.676 176.317 168.516 158.707C167.996 135.241 192.369 118.836 213.932 128.126C225.939 133.138 233.761 145.847 233.61 158.725L233.619 158.707ZM233.441 158.707C233.441 136.37 209.632 121.291 189.274 129.753C173.372 136.046 165.199 155.101 171.731 170.941C179.237 189.618 202.268 195.674 218.797 184.948C227.651 179.381 233.534 169.246 233.441 158.712V158.707Z" fill="#F43B00"/>
<path d="M20.4438 212.639L26.2247 212.67L38.4448 216.672C38.4448 216.672 42.6738 218.006 42.5182 219.545C42.3626 221.083 30.7561 220.345 30.7561 220.345L20.4304 219.674C20.4304 219.674 18.6028 218.655 19.2031 216.063C19.8034 213.47 20.4438 212.639 20.4438 212.639Z" fill="#F43B00"/>
<path d="M63.2806 207.427L69.0972 207.547L79.7697 208.788L79.1561 214.244L64.926 214.106C64.926 214.106 60.5147 213.692 63.2806 207.427Z" fill="#F43B00"/>
<path d="M204.477 134.796C204.539 129.266 205.802 123.816 208.176 118.822C208.114 124.352 206.851 129.802 204.477 134.796Z" fill="#F43B00"/>
<path d="M195.527 190.987C195.083 196.323 194.345 202.18 193.615 207.516L192.962 206.667C198.471 207.24 210.749 209.095 214.129 213.635C215.756 216.232 212.768 218.7 210.638 219.709C205.182 222.28 199.098 223.133 193.131 223.489C187.127 223.689 180.991 223.351 175.196 221.573C171.954 220.585 166.098 217.935 168.606 213.684C172.026 208.819 181.502 207.903 187.021 207.609V207.787C183.156 208.445 179.252 209.255 175.61 210.678C173.835 211.313 172.201 212.287 170.798 213.546C166.076 218.117 178.491 220.576 181.4 221.106C185.262 221.738 189.172 222.036 193.086 221.995C199.023 221.897 208.139 221.666 212.755 217.601C217.308 212.901 207.556 210.958 204.386 210.188C200.557 209.352 196.666 208.659 192.788 208.143L192.001 208.041L192.143 207.28C192.495 205.244 193.242 201.13 193.633 199.098C194.162 196.376 194.718 193.655 195.345 190.951L195.523 190.978L195.527 190.987Z" fill="#F43B00"/>
<path d="M219.598 132.234C219.713 132.456 219.773 132.701 219.773 132.95C219.773 133.2 219.713 133.445 219.598 133.666C219.189 134.351 218.438 131.616 217.957 132.95C217.477 134.284 218.162 133.6 217.957 134.453C217.753 135.307 219.607 136.406 218.78 136.61C217.953 136.815 217.068 137.428 216.245 136.61C215.423 135.792 214.604 136.001 213.577 137.024C212.55 138.046 211.456 136.472 210.909 135.721C210.362 134.969 209.748 133.666 208.517 134.08C207.285 134.493 207.916 135.859 205.617 135.859C203.318 135.859 202.909 136.601 203.114 137.357C203.318 138.113 204.688 137.704 204.688 138.456C204.703 138.663 204.796 138.856 204.948 138.998C205.1 139.139 205.3 139.218 205.508 139.218C205.716 139.218 205.916 139.139 206.068 138.998C206.22 138.856 206.313 138.663 206.329 138.456C206.6 137.224 208.036 135.721 208.036 137.291C208.036 138.86 207.854 139.483 207.467 139.892C207.08 140.301 205.301 141.257 204.141 139.892C202.98 138.527 204.55 137.909 202.976 138.522C201.401 139.136 200.926 139.483 199.97 139.55C199.013 139.616 200.312 140.506 198.533 140.097C196.754 139.687 195.251 138.113 195.589 140.234C195.927 142.356 195.523 143.312 194.567 143.107C193.611 142.902 191.556 140.234 191.489 141.6C191.423 142.965 190.942 143.654 191.489 144.201C192.036 144.748 193.611 145.224 194.771 145.157C195.932 145.09 196.345 144.881 196.683 144.334C197.021 143.787 197.368 142.627 198.191 143.445C199.013 144.263 200.174 144.334 200.241 145.975C200.308 147.616 200.036 147.754 199.489 148.577C198.942 149.399 200.788 150.969 201.335 149.6C201.861 148.444 201.993 147.147 201.708 145.909C201.406 144.881 202.567 143.583 202.838 144.953C203.109 146.322 203.594 146.184 203.456 147.892C203.318 149.6 203.523 152.112 204.003 150.138C204.483 148.163 206.804 148.643 206.942 147.825C207.08 147.007 207.832 146.184 208.654 146.389C209.477 146.593 211.732 147.14 211.936 148.096C212.141 149.053 212.345 149.875 211.114 149.875C209.882 149.875 208.534 148.986 207.467 149.262C206.4 149.537 206.133 150.618 206.257 150.862C206.382 151.107 207.97 151.24 208.788 151.449C209.606 151.658 209.908 153.704 209.317 154.456C208.726 155.207 207.765 155.621 206.329 154.456C205.234 153.536 203.829 153.071 202.402 153.157C201.13 153.157 200.65 152.886 200.103 152.268C199.556 151.65 197.986 149.533 197.368 149.262C196.75 148.99 196.754 146.936 195.727 146.936C194.7 146.936 191.009 146.046 190.191 145.842C189.373 145.637 188.208 144.953 187.727 146.865C187.247 148.777 184.788 147.207 183.214 149.395C181.639 151.583 181.639 151.107 181.368 153.295C181.097 155.483 179.727 157.141 180.274 158.364C180.821 159.587 182.462 160.339 184.036 161.362C185.611 162.384 187.247 162.665 187.865 162.869C188.483 163.074 189.026 164.577 189.23 166.151C189.435 167.725 190.6 169.571 190.871 169.157C191.142 168.743 191.627 172.234 190.462 173.328C189.297 174.422 187.456 175.516 188.07 176.681C188.683 177.846 189.711 181.195 189.711 182.765C189.711 184.334 189.982 184.201 191.627 184.201C193.273 184.201 193.059 183.725 195.385 183.521C197.711 183.316 197.026 185.09 198.053 183.04C198.742 181.613 199.937 180.492 201.406 179.896C202.362 179.416 204.003 178.869 204.141 177.228C204.279 175.587 205.39 173.399 207.467 173.261C209.544 173.124 212.359 171.14 212.359 170.118C212.359 169.095 214.066 167.792 211.878 167.654C209.691 167.516 209.006 165.808 209.006 165.328C209.006 164.848 211.265 165.466 211.469 165.737C211.674 166.009 213.862 165.671 214.956 165.262C216.05 164.852 217.624 163.074 217.624 162.527C217.624 161.98 216.872 160.806 215.574 160.401C214.275 159.996 213.177 158.151 213.724 157.733C214.271 157.315 215.845 158.484 216.392 158.898C216.939 159.312 217.899 160.392 218.513 160.397C219.446 160.468 220.382 160.468 221.315 160.397C222.618 160.263 223.503 160.468 223.574 162.589C223.645 164.71 223.983 164.915 224.05 167.378C224.116 169.842 224.121 172.777 224.872 170.727C225.624 168.677 226.033 164.23 227.198 163.887C228.363 163.545 229.866 159.992 230.204 161.428C230.542 162.865 230.071 162.384 230.96 163.959C231.514 165.047 231.861 166.229 231.983 167.445C232.054 167.65 232.396 164.025 232.396 163.412C232.396 162.798 231.369 160.81 232.396 159.374C233.424 157.937 233.419 157.595 233.419 156.434C233.419 155.274 232.045 140.265 219.598 132.234Z" fill="#F43B00"/>
<path d="M199.458 136.019C199.213 136.166 198.884 136.224 198.884 136.828C198.893 137.047 198.841 137.263 198.734 137.454C198.628 137.645 198.47 137.802 198.279 137.909C197.827 138.202 197.355 138.462 196.865 138.687C197.215 138.743 197.555 138.849 197.875 139.003C198.506 139.35 198.764 139.955 199.053 139.492C199.373 138.99 199.579 138.424 199.658 137.833C199.658 137.42 200.036 137.1 200.063 136.553C200.089 136.006 199.862 135.774 199.458 136.019Z" fill="#F43B00"/>
<path d="M197.586 136.624C197.204 136.708 196.634 136.739 196.492 137.028C196.35 137.317 195.514 137.646 195.772 137.798C196.162 137.998 196.602 138.081 197.039 138.038C197.386 137.949 198.017 136.944 198.449 136.886C198.88 136.828 198.124 136.508 197.586 136.624Z" fill="#F43B00"/>
<path d="M205.62 128.441C204.685 128.052 203.646 127.991 202.672 128.267C200.986 128.712 202.472 128.614 200.417 128.614C198.363 128.614 198.638 128.094 197.678 128.614C196.717 129.135 195.65 128.801 195.334 129.602C195.019 130.402 194.138 130.375 196.393 130.344C198.647 130.313 200.048 130.375 200.96 130.602C201.871 130.829 202.294 130.687 203.499 130.402C204.704 130.117 205.891 130.847 206.781 130.144C207.67 129.441 206.251 128.499 205.62 128.441Z" fill="#F43B00"/>
<path d="M200.066 132.039C199.79 131.781 199.305 131.665 199.248 132.039C199.19 132.412 199.016 132.723 199.448 132.866C199.879 133.008 200.275 133.15 200.533 133.008C200.791 132.866 201.244 132.368 200.817 132.234C200.571 132.154 200.32 132.088 200.066 132.039Z" fill="#F43B00"/>
<path d="M184.543 131.469C184.543 131.469 186.322 130.353 186.322 131.153C186.322 131.954 186.922 131.723 187.322 130.98C187.723 130.237 188.234 130.091 188.376 130.353C188.518 130.615 188.149 130.895 187.807 131.153C187.465 131.411 187.291 131.438 187.322 132.043C187.353 132.648 188.376 133.212 188.603 132.585C188.83 131.958 188.234 131.251 188.603 130.726C188.972 130.202 189.377 130.615 189.804 130.389C190.231 130.162 190.773 129.557 191.173 129.303C191.574 129.05 193.032 129.161 193.317 128.619C193.601 128.076 194.059 128.018 194.744 127.845C195.429 127.671 196.63 127.218 195.429 127.302C194.228 127.387 191.004 128.303 191.004 128.303C191.004 128.303 186.629 130.126 184.543 131.469Z" fill="#F43B00"/>
<path d="M171.357 147.465C171.343 148.463 171.236 149.457 171.037 150.435C170.757 151.396 170.196 151.356 170.717 152.441C171.07 153.306 171.233 154.237 171.197 155.171C171.197 155.451 171.802 156.061 171.557 157.697C171.379 158.741 171.023 159.746 170.503 160.668C170.253 161.595 170.131 162.553 170.143 163.514C170.116 164.759 169.471 165.239 169.471 164.759C169.471 164.279 167.906 155.411 171.357 147.465Z" fill="#F43B00"/>
<path d="M208.725 178.82C208.062 179.322 206.902 180.279 206.244 180.221C205.586 180.163 205.216 180.021 205.216 180.906C205.216 181.791 204.705 181.902 204.363 182.075C204.02 182.249 203.918 182.818 203.918 183.409C203.918 184.001 204.629 184.152 205.172 183.809C205.715 183.467 206.657 182.155 207.284 181.67C207.911 181.186 208.618 180.416 208.707 179.958C208.796 179.5 209.672 178.126 208.725 178.82Z" fill="#F43B00"/>
<path opacity="0.2" d="M99.9954 175.339C99.9954 175.339 98.897 191.579 98.7947 193.126C98.6924 194.674 97.345 230.369 97.345 230.369H89.6074C89.6074 230.369 91.4484 228.661 91.4484 228.012C91.4484 227.363 92.4846 225.402 93.414 221.68C94.3434 217.958 93.9343 218.678 93.9343 217.233C93.9343 215.788 94.3478 215.579 94.3478 214.854C94.3478 214.129 92.7959 212.995 93.2094 210.718C93.623 208.441 94.7347 208.13 94.8014 206.476C94.8681 204.822 94.1388 206.787 94.8637 204.822C95.5885 202.856 95.8998 199.854 95.6908 198.596C95.4818 197.337 96.4156 197.146 96.6246 194.874C96.8336 192.602 95.4862 190.218 96.3134 185.251C97.1405 180.284 98.2789 179.265 97.8698 178.131C97.5012 177.247 97.4278 176.268 97.6608 175.339C97.8001 174.509 97.8671 173.668 97.8609 172.826L99.9954 175.339Z" fill="white"/>
<path d="M20.5186 212.994C18.6376 213.506 16.7432 213.995 14.9288 214.648C14.2155 214.861 13.5487 215.207 12.9633 215.667C13.5103 215.976 14.1164 216.167 14.7421 216.227C16.8847 216.497 19.0472 216.573 21.2034 216.454C34.8198 215.796 48.3784 213.786 62.0438 213.555C66.9354 213.461 71.8581 213.377 76.7185 214.057C77.5323 214.235 80.7608 214.502 79.9025 215.809C79.3066 216.396 78.5329 216.561 77.7991 216.823C76.8564 217.112 75.9048 217.352 74.9531 217.579C67.3267 219.287 59.6158 220.558 51.9715 222.101C49.2456 222.724 46.3195 223.12 43.807 224.294C43.7448 224.329 43.7047 224.378 43.7314 224.347C43.7764 224.287 43.8054 224.217 43.8159 224.143C43.8387 224.017 43.8183 223.887 43.7581 223.774C43.6603 223.631 43.6825 223.685 43.7225 223.702C44.2039 223.897 44.7071 224.033 45.2211 224.107C50.8731 225.023 56.7831 224.787 62.4973 224.352C68.3139 223.871 74.0593 223.066 79.8403 222.222C82.7663 221.821 85.6613 221.305 88.6318 221.145C89.2074 221.103 89.7861 221.148 90.3483 221.279C90.4876 221.318 90.6175 221.385 90.73 221.476C90.8424 221.567 90.935 221.68 91.002 221.808C91.669 223.271 88.1026 224.307 87.1732 224.774C84.4384 225.859 81.6501 226.793 78.8619 227.713C75.1488 228.927 71.4045 230.048 67.6424 231.106C67.6207 231.111 67.5979 231.108 67.5787 231.097C67.5594 231.086 67.545 231.068 67.5383 231.046C67.5316 231.025 67.5331 231.002 67.5425 230.982C67.5519 230.962 67.5685 230.946 67.5891 230.937C70.3239 229.937 75.838 227.9 78.564 226.864C82.1215 225.463 85.848 224.156 89.201 222.31C89.3872 222.203 89.5603 222.075 89.7168 221.928C89.6577 222.039 89.6378 222.166 89.6604 222.29C89.683 222.414 89.7468 222.526 89.8413 222.608C89.8605 222.629 89.8852 222.645 89.9125 222.653L89.6946 222.622C86.4928 222.666 83.2999 223.453 80.116 223.92C72.3917 225.21 64.6096 226.375 56.7519 226.535C54.2839 226.584 43.5046 226.535 42.3262 224.578C41.4946 222.729 44.772 222.222 45.9148 221.866C56.3917 219.42 67.22 218.962 77.6302 216.28C78.2616 216.058 79.0887 215.876 79.5067 215.391C79.1688 215.053 78.5684 214.946 78.0571 214.826C76.6328 214.551 75.1918 214.371 73.7436 214.288C65.9704 213.897 58.1794 214.84 50.4507 215.573C44.8298 216.174 38.6086 216.707 32.9432 217.139C29.0389 217.406 25.13 217.659 21.2079 217.646C18.9724 217.695 16.7377 217.52 14.5375 217.121C11.1223 216.432 11.5714 214.898 14.7243 214.075C16.6219 213.55 18.5475 213.131 20.4919 212.821C20.5139 212.818 20.5359 212.824 20.5538 212.837C20.5716 212.851 20.5839 212.87 20.5884 212.891C20.5928 212.913 20.589 212.936 20.5778 212.955C20.5665 212.974 20.5486 212.988 20.5275 212.994H20.5186Z" fill="#F43B00"/>
<path d="M30.3017 207.917C33.9022 206.852 37.61 206.191 41.3567 205.947C43.2289 205.862 45.1188 205.947 46.9865 205.867C48.2405 205.867 49.4946 205.631 50.7619 205.769C50.8545 205.777 50.9435 205.809 51.0211 205.86C51.0986 205.911 51.1624 205.981 51.2066 206.062C51.2456 206.195 51.2351 206.338 51.1771 206.464C51.119 206.59 51.0174 206.69 50.8909 206.747C48.7475 207.881 46.4662 208.526 44.1494 209.131C42.3306 209.602 40.5074 210.042 38.6663 210.371C34.975 211.037 31.243 211.453 27.4957 211.617C27.472 211.616 27.4495 211.606 27.4323 211.59C27.4151 211.573 27.4045 211.551 27.4023 211.528C33.4857 209.157 40.116 208.206 46.524 206.983C47.8581 206.707 49.3389 206.569 50.5796 206.058C50.5796 206.085 50.5796 206.058 50.5307 206.178C50.5251 206.224 50.5297 206.27 50.5443 206.314C50.559 206.358 50.5832 206.398 50.6152 206.431C46.8353 205.871 42.6686 207.521 38.7597 207.766C35.9664 208.073 33.1551 208.184 30.3462 208.099C30.326 208.097 30.3071 208.087 30.2925 208.073C30.2779 208.059 30.2684 208.04 30.2654 208.02C30.2624 208 30.266 207.979 30.2758 207.962C30.2856 207.944 30.3009 207.929 30.3195 207.921L30.3017 207.917Z" fill="#F43B00"/>
<path d="M14.3027 210.189L21.0309 208.348C21.2668 208.316 21.5056 208.379 21.695 208.524C21.8843 208.668 22.0085 208.881 22.0403 209.117C22.0722 209.353 22.009 209.592 21.8648 209.781C21.7205 209.971 21.5069 210.095 21.271 210.127L14.3027 210.207V210.189Z" fill="#F43B00"/>
<path opacity="0.2" d="M51.2618 225.554C71.9779 222.9 88.376 217.66 87.888 213.85C87.3999 210.04 70.2105 209.103 49.4943 211.756C28.7781 214.41 12.38 219.65 12.8681 223.46C13.3562 227.27 30.5456 228.207 51.2618 225.554Z" fill="#F43B00"/>
<path opacity="0.2" d="M56.1914 96.5521L57.2942 93.5371C57.2942 93.5371 59.7578 98.1619 60.9585 98.3309C62.1591 98.4999 63.3732 98.5932 64.1069 99.4337C64.8406 100.274 66.1036 101.479 67.2597 101.479C68.4159 101.479 69.9279 102.426 70.4082 102.844C72.2866 104.294 74.5946 105.077 76.9673 105.068C79.7555 105.068 80.636 107.149 80.636 107.149L84.158 108.11L84.7361 111.369L65.1919 103.783C65.1919 103.783 58.4415 100.79 56.1914 96.5521Z" fill="#F43B00"/>
<path opacity="0.2" d="M57.1973 121.775C66.1449 131.387 74.0606 141.909 80.8148 153.171C80.8148 153.171 83.7542 157.124 83.8876 160.984C83.8876 160.984 82.6024 179.932 82.5001 181.484C82.3979 183.036 81.6108 195.807 81.4996 196.483H74.8648C75.7346 195.197 76.3393 193.75 76.6436 192.228C77.2261 189.56 75.732 191.73 76.8926 188.225C78.0532 184.721 78.2267 183.489 78.1422 181.826C78.0577 180.163 77.4751 180.332 77.9732 178.171C78.4712 176.01 77.8931 174.845 77.8087 174.098C77.7242 173.351 78.7247 172.853 78.7247 170.54C78.7247 168.228 76.9771 168.543 76.9771 163.972C76.9771 159.401 78.8048 158.987 76.479 155.745C74.1533 152.503 74.8159 151.023 74.1533 147.981C73.4907 144.939 70.8937 146.024 70.5291 142.947C70.1644 139.87 67.0071 140.457 66.3401 137.215C65.6731 133.973 64.8459 134.72 63.9299 132.728C63.0138 130.736 62.9338 131.563 61.8532 129.322C60.7726 127.081 57.1973 121.775 57.1973 121.775Z" fill="white"/>
<path opacity="0.2" d="M51.4659 130.277C51.4659 130.277 50.4208 156.141 50.4208 159.129C50.4208 162.117 49.7138 167.716 48.6954 175.138C47.6771 182.56 44.0218 202.362 44.0218 202.362H30.8145C30.8145 202.362 34.5765 201.143 35.1858 199.111C35.795 197.079 34.5765 197.777 36.6088 195.963C38.641 194.148 36.1018 191.698 38.5387 184.787C40.9756 177.877 42.0962 180.421 42.0962 175.849C42.0962 171.278 40.5487 171.891 42.5409 169.45C44.5331 167.009 45.5515 164.069 45.5515 158.48C45.5515 152.89 47.9662 152.49 47.9795 149.141C47.9928 145.793 47.9795 145.993 48.4953 143.454C48.9718 140.806 49.1759 138.116 49.1046 135.427C49.1001 132.367 51.4659 130.277 51.4659 130.277Z" fill="white"/>
<path opacity="0.2" d="M160.889 76.7861C160.889 76.7861 166.225 81.7266 167.928 82.2158C169.631 82.705 171.343 81.1219 172.01 84.1591C172.677 87.1963 173.651 87.6188 175.288 87.9834C176.924 88.3481 177.956 91.3809 177.956 91.3809L182.452 81.3664L160.889 76.7861Z" fill="#F43B00"/>
<path opacity="0.2" d="M175.723 75.6519L216.746 30.8894C215.532 28.9861 218.467 24.3524 215.412 22.3246C212.357 20.2968 210.013 22.8316 208.297 20.9906L173.909 75.8698L201.262 16.3925C194.364 17.9044 195.165 12.6926 188.415 11.1718C181.664 9.65095 178.12 14.338 178.12 14.338L172.828 78.2666L177.466 75.6519H175.723Z" fill="#F43B00"/>
<path opacity="0.2" d="M208.179 126.813C208.179 126.813 215.223 133.617 214.289 139.687C213.355 145.757 209.842 146.687 210.651 156.221C211.461 165.755 219.042 166.115 214.289 174.391C209.535 182.667 203.976 179.803 201.264 186.486C198.551 193.17 197.15 190.729 197.15 190.729C197.15 190.729 225.13 194.442 231.974 167.467C238.818 140.492 218.598 129.704 208.179 126.813Z" fill="#F43B00"/>
<path opacity="0.2" d="M28.7539 92.5906L31.5332 90.3271C31.5332 90.3271 30.257 96.6996 31.5332 99.1187C32.8095 101.538 33.1875 101.92 33.063 104.344C32.9384 106.767 32.8673 109.44 34.2369 109.564C35.6066 109.689 34.3348 111.477 34.8462 113.26C35.3576 115.043 39.7066 118.2 40.1824 122.483L35.0818 123.439C35.0818 123.439 29.412 110.018 28.7539 92.5906Z" fill="#F43B00"/>
</svg>
