<svg width="170" height="171" viewBox="0 0 170 171" fill="none" xmlns="http://www.w3.org/2000/svg">
<g clip-path="url(#clip0_941_447467)">
<g clip-path="url(#clip1_941_447467)">
<path d="M61.8351 62.6656C61.7793 70.9018 61.4222 79.225 60.8355 87.4426C60.5468 91.1369 60.0066 96.1755 59.8203 99.8109C59.7374 101.897 59.3815 103.964 58.7617 105.958L56.7717 111.841L54.8003 117.718C53.5089 121.577 54.5365 125.721 55.9335 129.44C57.4143 133.259 59.1032 137.065 60.6182 140.887C61.8023 143.843 62.3318 147.02 62.1704 150.2C62.0835 153.18 61.9811 156.533 61.8258 159.514H61.7017C61.6427 158.48 61.6023 157.446 61.562 156.409C61.4812 154.661 61.4098 151.994 61.354 150.2C61.3308 147.159 60.6974 144.153 59.4912 141.362C58.6592 139.468 57.8521 137.565 57.0294 135.668C55.4212 131.831 53.6765 127.953 53.1798 123.747C52.8874 121.605 53.1175 119.425 53.8504 117.392C54.6079 115.448 55.3933 113.533 56.1384 111.608C56.7934 109.925 57.7683 107.504 58.3643 105.827C59.0218 103.883 59.3808 101.85 59.4292 99.7985L59.8141 87.4022C59.9724 83.3881 60.2798 79.0356 60.5778 75.0184C60.8883 70.8925 61.2453 66.7697 61.7265 62.6562H61.8476L61.8351 62.6656Z" fill="#F43B00"/>
<path d="M67.9525 62.5684C68.3809 70.8139 68.5113 79.1681 68.4057 87.423L68.2319 93.632C68.1745 94.6408 68.2793 95.6523 68.5423 96.6278C69.067 98.5775 70.0077 100.524 70.6689 102.446C71.9107 105.861 73.255 109.22 74.5682 112.601C74.711 112.97 74.9656 113.721 75.0773 114.1C76.2975 118.195 76.2975 122.557 75.0773 126.651C74.1149 129.657 72.7707 132.454 71.591 135.36C70.3492 138.439 68.561 141.311 68.4399 144.645C68.3343 149.56 68.2039 154.49 67.9618 159.401H67.8376C67.6296 155.259 67.5272 151.118 67.4092 146.983C67.4092 146.399 67.3688 145.201 67.3595 144.654C67.3667 143.296 67.5942 141.948 68.0332 140.662C68.682 138.65 69.5855 136.806 70.3709 134.857C71.5102 132.004 72.8917 129.191 73.9007 126.301C75.1827 122.171 75.2452 117.759 74.0808 113.594C72.9104 109.9 71.6344 106.23 70.3243 102.582C69.5078 100.099 68.1512 97.8262 67.6855 95.2308C67.4744 94.0325 67.4589 88.7114 67.375 87.4292C67.3099 84.421 67.3378 81.1302 67.375 78.1157C67.4464 72.9746 67.5458 67.7187 67.8407 62.5932L67.9525 62.5684Z" fill="#F43B00"/>
<path d="M55.9815 63.7793C56.2019 73.7447 56.0032 83.9989 55.3606 93.9613L55.1774 96.9757C55.0874 98.795 55.0191 101.26 54.6155 103.011C53.9356 105.954 53.1937 108.885 52.579 111.837C51.4341 117.71 51.5473 123.759 52.9112 129.585C53.8146 133.506 54.659 137.443 55.4724 141.383C56.1743 144.36 56.4616 147.42 56.3261 150.476C56.2423 153.375 56.1398 156.644 55.9846 159.531H55.8604C55.7549 157.52 55.67 155.508 55.6059 153.496C55.5127 150.569 55.5158 147.405 54.9508 144.552C54.3579 141.622 53.5879 138.682 52.9453 135.751C52.0978 131.793 51.0422 127.856 50.7939 123.799C50.5163 119.729 50.8905 115.642 51.9022 111.691C52.5417 109.257 53.262 106.829 53.8798 104.395C54.8949 101.002 54.6124 97.4445 54.6559 93.9426V87.9013C54.6994 83.9927 54.8794 79.7489 55.0595 75.8341C55.2613 71.8137 55.4879 67.7934 55.848 63.7793H55.9815Z" fill="#F43B00"/>
<path d="M73.7092 63.7773C74.1376 71.7963 74.268 79.9208 74.1656 87.9521C74.0476 91.9259 73.8365 96.0455 74.5412 99.9634C75.4384 104.872 76.5995 109.857 77.714 114.735C78.4878 117.705 78.8431 120.769 78.7695 123.837C78.6827 126.913 78.1707 129.963 77.2483 132.899C76.4287 135.693 75.5067 138.798 74.6468 141.592C73.6826 144.411 73.1743 147.367 73.1411 150.346C73.0914 152.038 73.0169 154.693 72.9362 156.391C72.8958 157.397 72.8524 158.406 72.7965 159.412H72.6723C72.5171 156.524 72.4146 153.258 72.3308 150.346C72.1839 147.271 72.5769 144.193 73.4919 141.253C74.0228 139.31 74.5847 137.376 75.128 135.435C76.2673 131.586 77.4781 127.82 77.6116 123.797C77.729 120.816 77.4872 117.832 76.8913 114.908C76.3915 112.021 75.8606 108.836 75.3204 105.977C74.594 102.006 73.6068 98.0604 73.3522 94.0183C73.0759 89.0511 73.079 83.8666 73.1287 78.8932C73.1783 73.9198 73.3025 68.7787 73.5943 63.7836L73.7092 63.7773Z" fill="#F43B00"/>
<path d="M49.471 66.3438C49.8963 74.0119 50.0267 81.7855 49.9242 89.463C49.8653 91.4343 49.7256 96.2432 49.6635 98.1338C49.5859 100.95 49.62 104.014 49.5362 106.826C49.381 112.179 48.9153 118.791 49.0674 124.119C49.294 128.85 49.7535 133.783 49.9522 138.517C50.095 141.417 49.9522 144.326 49.8963 147.225C49.7908 151.078 49.6759 154.934 49.471 158.786H49.3468C49.1388 154.934 49.0364 151.078 48.9184 147.225C48.8222 144.347 48.8687 141.47 48.6824 138.595C48.4061 134.854 48.1702 130.803 47.9933 127.055C47.6828 122.212 48.1454 117.376 48.6328 112.564C48.7787 110.875 49.0302 108.478 49.114 106.808C49.2847 104.014 49.204 100.947 49.1512 98.1463C48.965 92.6296 48.7725 86.315 48.8811 80.8045C48.9525 76.0205 49.0519 71.1309 49.3468 66.3562L49.471 66.3438Z" fill="#F43B00"/>
<path d="M43.6908 70.2339C44.2622 80.3657 44.3264 90.5198 43.8832 100.658C43.6908 107.1 43.9515 113.588 44.1254 120.024C44.3862 132.942 44.3737 145.85 43.6908 158.759H43.5666C42.8836 145.85 42.8681 132.942 43.1288 120.024C43.3027 113.588 43.5635 107.1 43.3741 100.658C43.1847 95.3804 42.9922 89.3328 43.1009 84.0583C43.1723 79.476 43.2748 74.7975 43.5666 70.2246L43.6908 70.2339Z" fill="#F43B00"/>
<path d="M37.7332 76.7969C37.8853 101.322 38.7484 128.527 37.9536 152.944C37.8791 154.636 37.8294 156.328 37.7332 158.02H37.609C37.5128 156.328 37.4631 154.636 37.3886 152.944C36.954 141.125 36.9819 129.226 37.1744 117.41C37.3762 107.376 37.2365 86.5761 37.7332 76.7969Z" fill="#F43B00"/>
<path opacity="0.2" d="M40.7098 72.7188C40.8588 97.2443 41.7249 124.449 40.9302 148.866C40.8557 150.558 40.806 152.25 40.7098 153.942H40.5856C40.4893 152.25 40.4397 150.558 40.3652 148.866C39.9305 137.047 39.9585 125.148 40.151 113.332C40.3527 103.298 40.213 82.4979 40.7098 72.7188Z" fill="#F43B00"/>
<path opacity="0.2" d="M46.1082 67.8164C46.2603 93.5838 47.1265 122.189 46.3317 147.854C46.2572 149.632 46.2044 151.411 46.1082 153.19H45.984C45.8909 151.411 45.8381 149.632 45.7636 147.854C45.329 135.436 45.3569 122.924 45.5494 110.503C45.7543 99.948 45.6115 78.1109 46.1082 67.8164Z" fill="#F43B00"/>
<path opacity="0.2" d="M52.8411 64.793C53.4144 74.9133 53.4787 85.0561 53.0336 95.1829C52.8443 101.615 53.105 108.091 53.2758 114.521C53.5366 127.417 53.5241 140.307 52.8411 153.197H52.717C52.034 140.307 52.0185 127.429 52.2792 114.521C52.4531 108.091 52.7139 101.615 52.5245 95.1829C52.3351 89.9053 52.1426 83.8732 52.2513 78.6049C52.3227 74.0289 52.4251 69.3597 52.717 64.793H52.8411Z" fill="#F43B00"/>
<path opacity="0.2" d="M58.7082 63.2859C59.2826 73.402 59.3468 83.5408 58.9006 93.6634C58.7113 100.099 58.972 106.575 59.1459 113.001C59.4067 125.897 59.3912 138.79 58.7082 151.677H58.584C57.901 138.79 57.8886 125.91 58.1494 113.001C58.3232 106.575 58.584 100.096 58.3915 93.6634C58.2021 88.3858 58.0097 82.3568 58.1183 77.0885C58.1928 72.5124 58.2922 67.8433 58.584 63.2734L58.7082 63.2859Z" fill="#F43B00"/>
<path opacity="0.2" d="M65.1219 62.6602C65.2709 89.8028 66.137 119.907 65.3423 146.929C65.2678 148.791 65.2181 150.676 65.1219 152.548H64.9977C64.9015 150.685 64.8518 148.801 64.7773 146.929C64.3426 133.846 64.3706 120.68 64.5631 107.604C64.7649 96.4961 64.6252 73.5197 65.1219 62.6602Z" fill="#F43B00"/>
<path opacity="0.2" d="M70.993 62.6602C71.1451 89.8028 72.0081 119.907 71.2134 146.929C71.1389 148.791 71.0892 150.676 70.993 152.548H70.8688C70.7726 150.685 70.7229 148.801 70.6484 146.929C70.2137 133.846 70.2417 120.68 70.4342 107.604C70.636 96.4961 70.4962 73.5197 70.993 62.6602Z" fill="#F43B00"/>
<path opacity="0.2" d="M76.993 64.6602C77.1451 91.1989 78.0081 120.633 77.2134 147.054C77.1389 148.875 77.0892 150.718 76.993 152.548H76.8688C76.7726 150.727 76.7229 148.884 76.6484 147.054C76.2137 134.262 76.2417 121.389 76.4342 108.604C76.636 97.7433 76.4962 75.2781 76.993 64.6602Z" fill="#F43B00"/>
<path opacity="0.2" d="M82.993 67.8164C83.1451 93.596 84.0081 122.189 83.2134 147.853C83.1389 149.622 83.0892 151.412 82.993 153.19H82.8688C82.7726 151.421 82.7229 149.631 82.6484 147.853C82.2137 135.428 82.2417 122.923 82.4342 110.503C82.636 99.9532 82.4962 78.1306 82.993 67.8164Z" fill="#F43B00"/>
<path opacity="0.2" d="M89.8504 74.2812C90.0025 98.3413 90.8656 125.027 90.0708 148.979C89.9963 150.631 89.9466 152.301 89.8504 153.96H89.7262C89.63 152.309 89.5803 150.639 89.5058 148.979C89.0712 137.383 89.0991 125.712 89.2916 114.121C89.4934 104.274 89.3537 83.9075 89.8504 74.2812Z" fill="#F43B00"/>
<path d="M79.3761 66.0339C79.5779 76.9586 79.5252 96.2251 79.8791 106.929C80.0964 110.267 80.6055 115.169 80.9036 118.565C81.2616 122.481 81.2813 126.421 80.9625 130.341L80.382 136.165C79.8356 141.976 78.9229 147.76 78.5193 153.584C78.392 155.518 78.3734 157.474 78.2678 159.42H78.1436C78.0598 157.468 77.9729 155.524 77.9512 153.568C78.0133 147.71 78.6869 141.883 79.1309 136.047C79.4413 132.616 79.9567 127.841 79.9443 124.445C80.025 118.829 79.2178 112.586 78.9663 106.976C78.7739 102.94 78.9943 93.546 78.9881 89.417C79.0998 89.4697 79.0191 65.7451 79.3606 66.0339H79.3761Z" fill="#F43B00"/>
<path d="M86.0066 70.5039C86.1588 97.3485 87.0249 127.124 86.2302 153.847C86.1557 155.71 86.1029 157.551 86.0066 159.404H85.8825C85.7893 157.542 85.7365 155.701 85.662 153.847C85.2274 140.911 85.2554 127.888 85.4478 114.954C85.6527 103.967 85.5099 81.2393 86.0066 70.5039Z" fill="#F43B00"/>
<path d="M92.6063 78.4023C93.4445 104.418 93.4259 130.868 92.6994 156.875L92.6063 159.405L92.5132 156.875C91.7867 130.856 91.7681 104.409 92.6063 78.4023Z" fill="#F43B00"/>
<path d="M97.7459 92.9737C97.6 94.4328 91.3258 95.1469 89.9536 95.4294C77.5977 97.32 65.0431 97.3635 52.5941 96.5067C48.4434 96.2428 44.2957 95.9572 40.1605 95.476C38.0898 95.209 36.0036 94.9699 33.9857 94.3739C33.0916 94.1317 31.3313 93.3587 32.4552 92.2721C33.4766 91.4743 34.7929 91.2445 36.0036 90.9248C37.3696 90.6143 38.748 90.3815 40.1264 90.189C48.3875 89.0776 56.7355 88.7827 65.0618 88.7609C73.3917 88.7302 81.7125 89.3133 89.9567 90.5056C91.4314 90.8006 97.5876 91.5146 97.7459 92.9737ZM97.6218 92.9737C96.8487 90.8192 84.1762 90.4405 81.6367 90.3256C70.594 90.0151 59.5326 89.9251 48.4961 90.4994C45.7424 90.664 42.9763 90.8689 40.2506 91.1793C37.9129 91.4898 35.4759 91.6729 33.2872 92.5795C33.157 92.6441 33.0333 92.7211 32.9177 92.8092C32.8551 92.8535 32.8065 92.9149 32.778 92.9862C32.7988 93.0614 32.8435 93.1279 32.9053 93.1755C33.8367 93.8554 35.0381 94.0665 36.1464 94.3552C37.4845 94.6657 38.8473 94.883 40.2164 95.0724C42.9515 95.4449 45.7114 95.6778 48.4713 95.8392C59.5202 96.3607 70.5878 95.9137 81.6398 95.6498C84.2631 95.5194 96.8208 95.15 97.6218 92.9862V92.9737Z" fill="#F43B00"/>
<path d="M64.7881 159.64C82.8048 159.64 97.4102 158.051 97.4102 156.091C97.4102 154.132 82.8048 152.543 64.7881 152.543C46.7714 152.543 32.166 154.132 32.166 156.091C32.166 158.051 46.7714 159.64 64.7881 159.64Z" fill="#F43B00"/>
<path d="M64.7689 62.5871C47.5327 62.525 33.1868 76.9237 32.482 93.9891C32.3765 98.2019 32.5162 102.939 32.4448 107.155C32.302 109.484 31.737 111.753 31.9543 114.091C32.1592 116.373 32.4914 118.847 32.3827 121.132C32.3827 125.478 32.2213 132.603 32.2492 136.924C32.2678 138.07 32.5317 139.274 32.5597 140.426C32.5597 142.202 32.1002 143.919 32.1561 145.685C32.1095 147.992 32.1095 153.863 32.0878 156.225L31.8922 156.029H32.6C32.6455 156.206 32.7566 156.358 32.9105 156.455C33.3279 156.727 33.7829 156.936 34.2609 157.076C38.899 158.352 43.7638 158.578 48.5416 158.938C54.0397 159.274 59.5533 159.345 65.0607 159.308C73.3093 159.202 81.5797 158.907 89.7632 157.883C91.7872 157.649 93.7896 157.255 95.7518 156.706C96.2487 156.583 96.7141 156.357 97.1178 156.042L97.661 155.654H97.6859L97.1147 156.225L97.0898 149.175C97.0743 147.489 97.1488 145.645 96.8818 143.987C96.7483 142.925 96.4782 141.504 96.3882 140.457C96.1119 137.818 96.9905 135.13 97.0308 132.522C97.0153 129.272 97.0308 125.183 97.0308 121.939C97.0582 121.021 97.1873 120.109 97.4158 119.219C97.5949 118.136 97.5366 117.027 97.245 115.969C96.888 114.681 97.1053 108.462 97.0557 107.047C97.0557 106.537 97.0557 104.917 97.0557 104.405C97.0524 103.479 97.1492 102.556 97.3444 101.651C97.72 100.307 97.9342 98.9377 97.5896 97.5655C97.3492 96.6847 97.1902 95.7837 97.1147 94.8739L97.0339 93.1136C96.1026 76.1879 81.7815 62.5001 64.7689 62.5871ZM64.7689 62.4629C81.8591 62.2735 96.9501 75.9116 98.1547 93.036C98.2168 94.0822 98.2602 95.4451 98.5303 96.4354C98.8408 97.6338 99.0891 98.8911 98.9153 100.13C98.76 101.291 98.3689 102.393 98.3347 103.563C98.3161 104.02 98.3006 104.805 98.313 105.286C98.2819 106.342 98.3627 112.855 98.344 114.075C98.3857 114.925 98.5104 115.768 98.7166 116.593C98.8904 117.54 98.8904 118.511 98.7166 119.458C98.4302 120.564 98.3057 121.705 98.3471 122.845C98.3471 125.742 98.3471 129.641 98.3471 132.538C98.3689 133.972 97.9777 135.589 97.8225 136.999C97.5698 138.389 97.5415 139.81 97.7387 141.209C97.838 141.829 98.0088 143.199 98.105 143.826C98.3875 145.539 98.2726 147.458 98.2882 149.19L98.2664 156.241V156.815H97.6704L98.2136 156.424C97.5927 158.165 91.6569 158.668 89.9091 158.945C81.6635 159.895 73.359 160.05 65.0731 159.997C55.4274 159.814 45.701 159.659 36.1826 157.948C35.1472 157.765 34.1352 157.469 33.165 157.063C32.8204 156.877 32.4634 156.716 32.2927 156.303L32.4758 156.436H31.6966V156.241L31.6687 149.215C31.6687 147.101 31.5662 144.232 31.8642 142.168C32.0049 141.031 31.9725 139.88 31.768 138.753C31.6 137.58 31.5263 136.395 31.5476 135.211C31.529 131.709 31.4327 124.655 31.411 121.16C31.4221 120.004 31.3724 118.849 31.262 117.698C31.0043 115.376 30.6411 112.93 30.9515 110.589C31.0788 109.422 31.2961 108.295 31.3365 107.137C31.3365 106.115 31.3365 104.687 31.3365 103.647C31.3365 101.499 31.3365 97.8915 31.3582 95.7431C31.3241 77.737 46.8062 62.3511 64.772 62.4908L64.7689 62.4629Z" fill="#F43B00"/>
<path d="M61.7134 62.676C60.543 60.4717 60.3691 57.3236 62.412 55.5726C63.7252 54.4301 65.9544 54.0203 67.3794 55.2249C69.4346 57.0659 69.0062 60.3258 67.9475 62.5859L67.8264 62.5549C67.7675 60.9219 67.7519 59.3292 67.4135 57.898C67.2896 57.2367 66.999 56.6179 66.5691 56.1004C65.6905 55.169 63.6507 54.7592 62.6821 55.8706C62.1667 56.4388 62.0829 57.2429 62.0301 57.9725C61.9773 58.7021 61.909 59.4751 61.8935 60.2544C61.878 61.0336 61.8718 61.8315 61.8221 62.6605L61.701 62.6884L61.7134 62.676Z" fill="#F43B00"/>
<path d="M33.9327 161.942C33.8591 161.985 33.7864 162.03 33.7147 162.077V161.996C33.7147 161.953 33.6898 161.909 33.6867 161.894C33.6836 161.878 33.6464 161.853 33.6588 161.857C33.7493 161.888 33.8406 161.916 33.9327 161.942C34.3324 162.052 34.7459 162.106 35.1614 162.102C36.8778 162.108 38.5926 161.994 40.2931 161.76C48.8895 160.643 57.3337 158.656 65.8928 157.268C68.4794 156.822 71.0893 156.523 73.7099 156.374C74.6083 156.332 75.5085 156.364 76.4015 156.47C76.6244 156.499 76.8402 156.568 77.038 156.675C77.143 156.736 77.2303 156.823 77.2909 156.929C77.3515 157.034 77.3835 157.153 77.3835 157.274C77.3835 157.396 77.3515 157.515 77.2909 157.62C77.2303 157.725 77.143 157.813 77.038 157.873C75.7744 158.687 74.3184 158.997 72.9307 159.46C67.9418 160.925 62.8504 162.093 57.8739 163.527C56.9693 163.816 56.0109 164.052 55.1155 164.385C54.6864 164.545 54.2718 164.727 53.8846 164.949C53.9645 164.842 54.0007 164.708 53.9857 164.576C53.9712 164.448 53.9102 164.33 53.8146 164.244L53.7853 164.235H53.8039C53.8075 164.238 53.8111 164.241 53.8146 164.244L53.8536 164.256C54.2693 164.323 54.6908 164.364 55.1155 164.385C56.0109 164.052 56.9693 163.816 57.8739 163.527C62.8504 162.093 67.9418 160.925 72.9307 159.46C74.3184 158.997 75.7744 158.687 77.038 157.873C77.143 157.813 77.2303 157.725 77.2909 157.62C77.3515 157.515 77.3835 157.396 77.3835 157.274C77.3835 157.153 77.3515 157.034 77.2909 156.929C77.2303 156.823 77.143 156.736 77.038 156.675C76.8402 156.568 76.6244 156.499 76.4015 156.47C75.5085 156.364 74.6083 156.332 73.7099 156.374C71.0893 156.523 68.4794 156.822 65.8928 157.268C57.3337 158.656 48.8895 160.643 40.2931 161.76C38.5926 161.994 36.8778 162.108 35.1614 162.102C34.7459 162.106 34.3324 162.052 33.9327 161.942Z" fill="#F43B00"/>
<path opacity="0.2" d="M65.834 163.739C87.2027 163.739 104.525 161.392 104.525 158.498C104.525 155.604 87.2027 153.258 65.834 153.258C44.4653 153.258 27.1426 155.604 27.1426 158.498C27.1426 161.392 44.4653 163.739 65.834 163.739Z" fill="#F43B00"/>
<path d="M41.9485 160.409C46.5494 159.195 51.1982 158.043 55.9429 157.011C58.3872 156.496 60.7356 155.889 63.3236 155.646C64.4259 155.585 64.7614 156.314 63.9946 156.708C62.0775 157.618 59.825 158.164 57.7162 158.771C53.1632 160.075 48.4664 161.137 44.0093 162.441C43.1945 162.714 42.2839 162.957 41.7567 163.351C41.7567 163.351 41.7567 163.351 41.7567 163.321C41.7567 163.291 41.7567 163.26 41.7567 163.23C41.7088 163.2 41.7088 163.2 41.7088 163.2C41.9485 163.291 42.3798 163.321 42.6673 163.351C45.8305 163.442 49.1853 162.836 52.3005 162.381C58.7706 161.349 65.049 159.984 71.519 158.983C74.3946 158.558 77.366 158.103 80.3854 158.316C80.9126 158.376 81.4877 158.467 81.7752 158.831C82.4941 159.923 78.2287 160.834 77.0785 161.228C72.5255 162.502 67.7808 163.564 63.2757 164.868C62.3171 165.172 61.119 165.475 60.4001 165.9C60.3522 165.9 60.4001 165.9 60.4001 165.9C60.4001 165.9 60.4001 165.9 60.4001 165.869C60.448 165.809 60.4959 165.687 60.448 165.566C60.4001 165.445 60.3042 165.354 60.1605 165.293C60.2084 165.293 60.2563 165.323 60.3042 165.323C65.0969 165.596 69.8416 164.747 74.4425 163.867C77.6057 163.26 80.6729 162.532 83.8361 161.835C84.9384 161.622 86.0407 161.319 87.2868 161.319C87.5743 161.319 87.9098 161.38 88.1015 161.592C88.2453 161.744 88.2453 161.895 88.1974 162.047C87.9577 162.411 87.5743 162.563 87.143 162.805C84.4591 164.11 81.5835 165.172 78.708 166.233C77.2702 166.749 75.8324 167.265 74.3467 167.78C74.2508 167.811 74.155 167.72 74.2508 167.689C76.6471 166.628 80.0978 165.172 82.4462 164.11C83.9799 163.382 85.6094 162.714 86.9034 161.835C86.9513 161.804 86.9513 161.774 86.9513 161.804C86.9034 161.895 86.9513 161.956 86.9992 162.047C87.143 162.168 87.2389 162.168 87.2868 162.168C87.3347 162.168 87.2868 162.168 87.2868 162.168C87.2868 162.168 87.2389 162.168 87.1909 162.168C85.4177 162.411 81.5835 163.473 79.7623 163.897C75.0176 165.05 70.3208 166.112 65.1927 166.537C63.4195 166.658 61.6941 166.749 59.8729 166.567C59.3936 166.506 58.8665 166.385 58.5789 166.082C58.2434 165.718 58.4351 165.263 58.8185 165.02C59.154 164.777 59.6333 164.595 60.0646 164.443C63.8029 163.2 67.8287 162.381 71.7107 161.41C73.2444 161.046 74.778 160.652 76.3116 160.257C77.6536 159.893 79.1393 159.529 80.2895 158.983C80.2895 158.983 80.2416 159.013 80.2416 159.044C80.1937 159.135 80.3375 159.317 80.3854 159.317C80.2895 159.286 80.1458 159.256 80.002 159.256C77.2222 159.013 74.3946 159.347 71.6149 159.65C63.4674 160.621 55.5595 162.32 47.5079 163.594C45.8784 163.837 44.2489 164.079 42.4756 164.049C41.9964 164.019 41.613 164.019 41.0379 163.867C39.2166 163.048 42.3798 162.077 43.2904 161.713C47.6996 160.196 52.3964 159.044 56.9494 157.8C58.9623 157.224 61.119 156.708 62.8923 155.95C62.6526 156.162 62.7964 156.587 63.3236 156.617C63.084 156.617 62.6047 156.678 62.2213 156.738C55.4158 157.8 48.7061 159.286 41.9485 160.5C41.9005 160.561 41.8047 160.439 41.9485 160.409Z" fill="#F43B00"/>
<path d="M108.555 49.8407C107.456 49.937 106.423 49.611 105.333 49.6389C101.968 49.4868 98.5031 49.9152 95.5911 51.7065C94.5169 52.3274 93.6446 53.2215 92.6946 54.0101C90.5214 55.9007 88.3731 57.8069 86.1068 59.5982C84.3745 60.9207 82.6422 62.3022 80.587 63.1342C80.0313 63.3298 79.3452 63.5254 78.7243 63.2553C77.9265 62.8765 77.8954 62.06 78.2618 61.3677C79.696 58.8127 82.0803 56.978 84.0082 54.8483C84.0773 54.7705 84.1416 54.6886 84.2007 54.603C84.2007 54.603 84.2007 54.603 84.1852 54.6434C84.1819 54.6629 84.1819 54.6828 84.1852 54.7024C84.1821 54.7862 84.2049 54.869 84.2504 54.9395C84.2959 55.0101 84.362 55.0649 84.4397 55.0966C84.5887 55.137 84.5887 55.1122 84.6012 55.1153C84.6136 55.1184 84.6012 55.1153 84.6012 55.1153C81.7699 56.1118 75.6509 59.9862 72.9655 59.4088C69.1749 58.0739 78.6591 51.3992 79.9692 50.3623L80.4629 51.2284C77.9482 52.256 70.9662 55.3326 68.6099 54.4695C65.0118 52.405 75.7502 47.4099 77.3025 46.6182L77.6688 47.6676C75.631 48.1397 73.5624 48.4675 71.4784 48.6486C70.9466 48.6902 70.4129 48.7037 69.8796 48.6889C69.1935 48.6486 68.2839 48.602 67.6816 48.0277C67.1849 47.5651 67.2874 46.6927 67.6568 46.2643C69.5878 43.8677 77.9172 42.5172 81.0993 41.9646L81.1272 42.9456C80.0965 42.8276 79.0907 42.6755 78.0786 42.483C76.5419 42.1509 74.9555 41.8621 73.5864 40.9867C73.1424 40.7042 72.655 40.0553 72.8755 39.4344C73.1424 38.4037 75.6323 38.8135 76.4736 38.8135C79.5036 38.9532 82.5087 39.0091 85.4766 38.4193C88.4569 37.8822 91.3224 36.8204 94.2065 35.9356C99.0154 34.3089 103.396 31.6825 108.049 29.677C108.997 29.261 109.997 28.9729 111.02 28.8201L110.996 29.2299C109.443 28.9567 107.795 29.3945 106.28 29.8136C105.498 30.0402 104.752 30.3072 103.961 30.5928C103.529 30.725 103.071 30.7456 102.629 30.6528C102.187 30.5599 101.776 30.3567 101.434 30.0619C101.277 29.9183 101.129 29.766 100.99 29.6056C100.046 28.5983 98.7885 27.9415 97.4228 27.7429C95.4421 27.6466 93.5794 26.8457 94.1165 24.508L94.6535 24.896C93.6539 25.5883 92.5425 26.2496 91.2634 26.2155C90.7782 26.1952 90.3187 25.9917 89.9776 25.646C89.6366 25.3004 89.4393 24.8382 89.4256 24.3528C89.4442 23.4214 89.9533 22.7074 90.4966 22.0523C90.7621 21.7433 91.0507 21.4548 91.3597 21.1893L91.8564 21.925C90.4997 22.5708 89.0375 22.8005 87.5691 22.9899C86.883 23.0427 86.1969 23.2382 85.5201 22.8936C83.7598 21.7357 87.1841 18.7802 88.0627 17.9078L88.4166 18.8392C86.9357 18.8392 85.5046 18.7491 84.0548 18.6684L82.9713 18.6032C82.4808 18.5722 81.9251 18.566 81.537 18.1127C80.8727 17.0975 82.2604 16.25 82.9278 15.716C85.3773 14.0489 87.9664 12.7916 90.6115 11.5094L91.0523 12.655C89.4783 13.0958 87.9851 13.456 86.3117 13.3566C84.3963 13.279 83.3935 11.587 84.6943 10.0037C85.5573 9.04446 86.7402 8.54153 87.8671 8.07896C90.0571 7.27742 92.3164 6.67985 94.6163 6.29387L94.548 7.58534C93.2689 7.19728 91.3472 6.24109 91.8998 4.5895C92.0447 4.34622 92.2714 4.16244 92.5394 4.07105C93.4323 3.79307 94.3523 3.61095 95.2837 3.52776C101.612 2.90751 107.982 2.84414 114.321 3.33839C119.257 3.80096 129.598 4.60192 132.156 9.33007C133.624 12.745 127.378 15.2907 125.149 16.7467C124.003 17.4483 122.703 18.1375 121.899 19.2303C121.175 20.4036 120.738 21.731 120.623 23.1047C120.486 24.4848 120.579 25.878 120.899 27.2275C120.901 27.2355 120.901 27.2437 120.9 27.2518C120.898 27.2598 120.895 27.2675 120.891 27.2744C120.887 27.2813 120.881 27.2873 120.875 27.2921C120.868 27.2968 120.86 27.3002 120.852 27.302C120.837 27.3051 120.821 27.3024 120.807 27.2944C120.793 27.2864 120.783 27.2736 120.778 27.2586C120.033 24.5483 120.061 21.45 121.539 18.9727C122.38 17.7619 123.653 17.0417 124.845 16.2593C126.037 15.477 127.26 14.8157 128.415 14.0458C129.765 13.071 132.227 11.5405 131.405 9.65294C130.824 8.53532 129.542 7.76851 128.427 7.19418C126.545 6.35429 124.562 5.75756 122.529 5.4184C117.056 4.43427 111.436 4.23559 105.87 4.25421C102.386 4.25892 98.9049 4.45376 95.4421 4.83786C94.6044 4.9156 93.7772 5.08104 92.974 5.33148L92.9957 5.30664C93.0095 5.29455 93.022 5.28102 93.033 5.26628C93.0813 5.20335 93.1143 5.13 93.1292 5.05207C93.1156 5.12494 93.1265 5.20027 93.1603 5.26628C93.4956 5.80025 94.2468 6.09208 94.9112 6.3125C95.0533 6.35645 95.1766 6.44683 95.2612 6.56915C95.3458 6.69147 95.387 6.83866 95.378 6.98714C95.3691 7.13562 95.3106 7.27681 95.2119 7.38809C95.1132 7.49936 94.9799 7.57429 94.8336 7.60087C93.3647 7.86001 91.9099 8.19366 90.4749 8.60051C88.8202 9.12518 86.9419 9.625 85.6908 10.842C84.1075 13.0151 89.8633 11.7733 90.7046 11.4629C90.8602 11.4069 91.0317 11.415 91.1813 11.4854C91.331 11.5559 91.4465 11.6829 91.5025 11.8385C91.5585 11.9941 91.5503 12.1656 91.4799 12.3152C91.4094 12.4649 91.2824 12.5804 91.1268 12.6364C89.8322 13.2355 88.5377 13.8782 87.271 14.5332C86.0039 15.1736 84.7756 15.8878 83.5922 16.6722C83.1942 16.9285 82.8364 17.2424 82.5305 17.6036C82.4994 17.6439 82.4901 17.6781 82.4963 17.6563C82.5062 17.5784 82.4863 17.4997 82.4404 17.4359C82.3876 17.38 82.3876 17.3956 82.4187 17.408C82.6208 17.4647 82.8297 17.494 83.0396 17.4949C84.8123 17.616 86.6594 17.7464 88.4104 17.8054C88.5187 17.8049 88.6246 17.8376 88.7138 17.899C88.803 17.9605 88.8713 18.0477 88.9095 18.1491C88.9477 18.2505 88.954 18.3611 88.9274 18.4662C88.9009 18.5712 88.8429 18.6656 88.7612 18.7367C88.0695 19.3404 87.4221 19.993 86.824 20.6894C86.5135 21.0806 86.051 21.6487 86.0106 22.0741C86.0106 22.0741 85.9858 22.0461 86.0106 22.0741C86.0621 22.1002 86.1178 22.117 86.1751 22.1237C87.0666 22.1305 87.9566 22.0504 88.8326 21.8847C89.7255 21.7544 90.5991 21.5157 91.4342 21.1737C91.5323 21.1267 91.6442 21.1171 91.7489 21.1466C91.8536 21.1762 91.9439 21.2429 92.0029 21.3343C92.062 21.4257 92.0856 21.5355 92.0695 21.6431C92.0534 21.7507 91.9986 21.8487 91.9154 21.9188C91.1237 22.6204 89.5901 24.092 90.5463 25.1382C91.5087 26.0695 93.2751 25.0047 94.2344 24.3776C94.2944 24.3378 94.3651 24.3172 94.4371 24.3187C94.5091 24.3201 94.579 24.3435 94.6373 24.3856C94.6957 24.4278 94.7398 24.4868 94.7638 24.5547C94.7878 24.6226 94.7905 24.6962 94.7715 24.7657C94.2996 26.6284 96.0412 27.0661 97.5159 27.1778C98.3601 27.3151 99.1698 27.6145 99.9001 28.0595C100.532 28.4507 101.098 28.9401 101.577 29.5093C101.853 29.8162 102.211 30.0379 102.61 30.1485C103.008 30.259 103.429 30.2537 103.824 30.1333C106.134 29.3603 108.59 28.4196 111.079 28.8077C111.128 28.8184 111.17 28.8457 111.2 28.8849C111.23 28.9241 111.245 28.9726 111.242 29.0218C111.24 29.071 111.22 29.1177 111.186 29.1535C111.152 29.1893 111.107 29.212 111.058 29.2175C109.102 29.4721 107.239 30.4283 105.442 31.2634C101.806 33.0733 98.2175 35.0198 94.3741 36.3765C91.5614 37.3078 88.5221 38.5217 85.6194 39.0991C82.6205 39.7573 79.4818 39.7387 76.4425 39.6393C75.59 39.5854 74.7346 39.5999 73.8844 39.6828C73.8123 39.6945 73.7423 39.7164 73.6764 39.748C73.6764 39.748 73.6981 39.748 73.723 39.6828C73.7478 39.6176 73.723 39.6828 73.723 39.6828C73.6392 40.2447 74.8903 40.6638 75.3653 40.847C77.2736 41.4194 79.2355 41.795 81.2204 41.9677C81.285 41.9739 81.3478 41.9928 81.4051 42.0234C81.4625 42.0539 81.5132 42.0954 81.5545 42.1456C81.5957 42.1958 81.6266 42.2536 81.6455 42.3158C81.6643 42.378 81.6707 42.4432 81.6643 42.5079C81.6533 42.617 81.6066 42.7194 81.5313 42.7991C81.4561 42.8788 81.3566 42.9315 81.2483 42.9487C79.2428 43.2933 77.2311 43.7 75.2566 44.1905C73.7882 44.5817 68.762 45.7987 68.4267 47.2143C68.4546 47.2826 68.5136 47.3199 68.613 47.3695C69.3953 47.68 70.5005 47.6086 71.3822 47.5527C73.4011 47.3674 75.4043 47.0396 77.377 46.5717C77.5109 46.5418 77.6512 46.5622 77.771 46.6291C77.8908 46.696 77.9819 46.8046 78.0268 46.9343C78.0717 47.064 78.0673 47.2056 78.0144 47.3323C77.9616 47.4589 77.864 47.5617 77.7402 47.621C75.9582 48.4747 74.1825 49.3999 72.4905 50.415C71.2953 51.1725 69.9852 51.9331 69.1128 53.0197C69.0076 53.1357 68.9433 53.2829 68.9296 53.4388C69.2587 53.6313 69.8051 53.5723 70.218 53.532C73.6174 52.9856 76.8585 51.5948 80.0375 50.3002C80.1504 50.2545 80.2761 50.2513 80.3912 50.2912C80.5063 50.3312 80.6029 50.4115 80.6632 50.5173C80.7235 50.6232 80.7434 50.7473 80.7191 50.8666C80.6948 50.986 80.628 51.0925 80.5312 51.1663C78.0227 53.0632 75.3528 54.9693 73.4094 57.4498C73.2045 57.7603 72.9655 58.0987 73.0214 58.3812C73.0713 58.4316 73.135 58.4662 73.2045 58.4805C74.1173 58.6358 75.1386 58.2291 76.0452 57.9217C78.8392 56.9003 81.4066 55.4381 84.1696 54.3329L84.3124 54.2833C84.3506 54.2691 84.3902 54.2587 84.4304 54.2522C84.5284 54.2297 84.6309 54.2361 84.7253 54.2708C84.821 54.3065 84.9028 54.3718 84.9587 54.4573C85.0145 54.5428 85.0415 54.6439 85.0358 54.7458C85.0123 54.8999 84.9456 55.0442 84.8433 55.1618C83.6977 56.6054 78.6064 60.8027 78.8113 62.355C79.8016 63.6713 84.6446 59.8093 85.6784 59.0456C87.9385 57.2946 90.1023 55.4133 92.2817 53.5382C93.3962 52.6068 94.4548 51.5482 95.7836 50.9397C99.0433 49.226 102.831 49.077 106.42 49.4651C107.115 49.6264 107.826 49.7087 108.54 49.7103C108.556 49.7103 108.572 49.7169 108.584 49.7285C108.596 49.7402 108.602 49.7559 108.602 49.7724C108.602 49.7889 108.596 49.8047 108.584 49.8163C108.572 49.828 108.556 49.8345 108.54 49.8345L108.555 49.8407Z" fill="#F43B00"/>
<path fill-rule="evenodd" clip-rule="evenodd" d="M108.948 44.7978C108.133 45.0321 107.18 44.5492 107.527 43.5512L107.539 43.5295C107.546 43.5142 107.547 43.4969 107.541 43.4811C107.535 43.4654 107.523 43.4527 107.508 43.4457C107.493 43.4387 107.476 43.438 107.46 43.4438C107.444 43.4496 107.431 43.4615 107.424 43.4767C107.036 44.4436 107.781 45.0486 108.604 45.0591C108.596 45.065 108.589 45.071 108.582 45.0769C108.188 45.3898 107.806 45.6944 107.645 46.2304C107.622 46.397 107.638 46.5667 107.693 46.7257C107.748 46.8847 107.84 47.0284 107.961 47.1452C108.069 47.2493 108.197 47.3293 108.338 47.3804C107.896 47.6542 107.503 47.9939 107.216 48.447C106.811 49.297 107.346 49.7628 108.033 49.987C107.578 50.2011 107.158 50.4914 106.797 50.8933C105.86 52.1445 106.561 53.4421 108.005 53.7309C108.113 53.7543 108.221 53.7752 108.328 53.7939C108.167 53.9546 108.044 54.151 107.97 54.3688C107.865 54.6772 107.864 55.0114 107.968 55.3204C108.439 56.2949 109.559 56.3944 110.49 56.4772C110.544 56.4819 110.597 56.4867 110.649 56.4915C110.402 56.7833 110.228 57.1359 110.169 57.5649C110.041 59.0116 111.442 60.1106 112.749 60.2534C113.359 60.3237 113.974 60.3362 114.584 60.292C112.107 62.7498 108.649 66.7512 110.216 69.1784C108.277 71.5007 106.505 74.72 108.042 77.6635C108.225 77.9793 108.439 78.2761 108.68 78.5496C108.449 79.3905 108.401 80.2443 108.936 81.0474C110.506 82.9189 113.61 81.4993 115.676 80.5542C115.93 80.438 116.169 80.3289 116.387 80.234C127.129 74.8322 136.619 66.4097 142.254 55.7084C147.011 46.2826 145.108 46.072 139.763 45.4808C137.508 45.2313 134.641 44.9142 131.403 43.8089C130.275 43.4569 129.178 43.0092 128.125 42.4708C126.876 41.7571 125.701 40.6426 125.42 39.1964C126.351 38.1022 127.56 37.278 128.92 36.8113C129.568 36.5857 130.258 36.5356 130.948 36.4855C131.834 36.4211 132.721 36.3567 133.521 35.9203C134.27 35.564 134.731 34.8789 135.002 34.1167L134.969 34.1316H133.997C133.446 35.4031 132.081 35.5461 130.716 35.6892C129.989 35.7653 129.263 35.8415 128.659 36.088C127.135 36.6499 125.801 37.6302 124.81 38.9162C124.698 39.103 124.787 39.3672 124.862 39.5896C124.885 39.6591 124.907 39.7246 124.921 39.7823C125.421 41.1794 126.598 42.2411 127.874 42.9179C129.24 43.6381 130.941 44.1411 132.422 44.5695C133.974 44.9851 135.55 45.3085 137.141 45.5381C137.877 45.6479 138.621 45.7308 139.362 45.8134C140.213 45.9083 141.061 46.0028 141.89 46.1373L141.912 46.1412C142.995 46.336 144.317 46.5738 144.529 47.7888C144.665 48.8404 144.296 49.8611 143.936 50.8559C143.9 50.9566 143.863 51.057 143.828 51.1572C142.338 54.8405 140.353 58.3039 137.929 61.4518C134.064 66.4904 129.289 70.787 124.083 74.4006C122.596 75.5089 107.958 84.8597 109.982 78.6134C110.025 78.4975 110.034 78.3717 110.009 78.2508C109.983 78.1298 109.923 78.0187 109.837 77.9305C107.356 75.45 109.688 71.7494 111.578 69.6383C111.697 69.5052 111.758 69.3305 111.748 69.1524C111.738 68.9743 111.658 68.8075 111.525 68.6884C110.046 67.1971 113.464 63.4336 114.747 62.0198C114.8 61.962 114.849 61.9081 114.894 61.8585C115.583 61.132 116.306 60.4118 117.042 59.7474C117.149 59.6481 117.219 59.5157 117.242 59.3715C117.264 59.2273 117.237 59.0798 117.165 58.9528C117.094 58.8258 116.981 58.7266 116.846 58.6714C116.711 58.6162 116.561 58.6081 116.421 58.6484C115.66 58.8756 114.876 59.0152 114.083 59.0644C113.006 59.0954 111.882 59.0334 111.454 58.0337C111.404 57.931 111.382 57.817 111.39 57.703C111.398 57.5891 111.436 57.4793 111.501 57.3849C111.795 56.944 112.603 56.5746 113.295 56.4007C113.438 56.3631 113.561 56.2732 113.641 56.1488C113.721 56.0244 113.751 55.8747 113.726 55.7291C113.7 55.5835 113.621 55.4528 113.504 55.3628C113.387 55.2727 113.24 55.2299 113.093 55.2428C113.078 55.2442 113.063 55.2456 113.047 55.247L113.047 55.2428C113.038 55.245 113.029 55.2473 113.02 55.2496C112.928 55.2583 112.835 55.2674 112.741 55.2765C111.558 55.3918 110.258 55.5184 109.169 55.0782C109.092 55.0433 109.026 54.9873 108.98 54.9168C108.959 54.8542 108.959 54.7868 108.98 54.7243C109.194 54.358 109.666 54.1965 110.125 54.0475C110.375 53.9816 110.628 53.9253 110.882 53.8787C111.355 53.8424 111.828 53.7851 112.3 53.7201C112.346 53.7182 112.392 53.7166 112.438 53.7153L112.437 53.7012C112.469 53.6966 112.502 53.692 112.534 53.6874C112.661 53.6676 112.776 53.6002 112.855 53.499C112.934 53.3978 112.972 53.2703 112.96 53.1423C112.949 53.0144 112.889 52.8956 112.793 52.81C112.697 52.7245 112.573 52.6785 112.444 52.6815C112.4 52.6842 112.355 52.6869 112.31 52.6895C111.547 52.7348 110.781 52.7802 110.046 52.9643C108.915 53.016 107.771 52.913 107.322 52.34C106.887 50.7195 109.973 50.2135 111.144 50.0986L111.142 50.0798C111.158 50.0778 111.174 50.0758 111.19 50.0738C111.285 50.0614 111.372 50.0136 111.434 49.94C111.495 49.8664 111.527 49.7722 111.522 49.6764C111.519 49.627 111.507 49.5787 111.486 49.5342C111.464 49.4897 111.434 49.4498 111.397 49.4169C111.36 49.3841 111.317 49.3588 111.27 49.3426C111.224 49.3264 111.174 49.3195 111.125 49.3225C110.713 49.3633 110.291 49.4059 109.872 49.4705C108.332 49.5417 106.55 49.2996 108.738 47.8634C109.292 47.5282 109.876 47.2455 110.482 47.0189L110.477 47.0042C110.489 46.9988 110.501 46.9934 110.513 46.9879C110.577 46.9634 110.629 46.9151 110.658 46.8532C110.687 46.7912 110.691 46.7204 110.669 46.6557C110.657 46.6217 110.639 46.5903 110.615 46.5634C110.591 46.5366 110.562 46.5148 110.53 46.4995C110.497 46.4841 110.462 46.4755 110.426 46.474C110.39 46.4726 110.354 46.4784 110.321 46.4912C110.244 46.5208 110.167 46.5504 110.09 46.5802C109.828 46.6803 109.562 46.7826 109.298 46.8947C108.681 47.0666 108.07 47.0663 108.039 46.3266C108.108 46.1085 108.232 45.9118 108.399 45.7554C108.757 45.4055 109.141 45.0847 109.548 44.7958C109.793 44.6717 110.024 44.5224 110.238 44.3504C110.251 44.3426 110.264 44.335 110.277 44.3273L110.273 44.3216C110.287 44.3101 110.301 44.2986 110.315 44.287C110.341 44.2644 110.358 44.2336 110.364 44.1998C110.37 44.166 110.365 44.131 110.349 44.1007C110.329 44.0667 110.297 44.0418 110.259 44.0313C110.222 44.0209 110.181 44.0257 110.147 44.0448C109.734 44.2741 109.334 44.5255 108.948 44.7978ZM134.267 33.0465L135.306 32.6932C135.308 32.6719 135.31 32.6507 135.312 32.6296C135.424 31.7789 135.467 30.8538 135.045 30.087C133.732 27.6686 130.447 26.2157 127.812 25.8835C126.383 25.8191 125.077 26.0164 123.719 26.2213C123.505 26.2537 123.289 26.2863 123.071 26.3181C119.975 26.7911 116.91 27.4526 113.894 28.2988C113.884 28.304 113.873 28.3092 113.863 28.3144C113.377 28.5573 112.897 28.7969 112.593 29.2953C112.343 29.7479 112.56 30.1593 112.912 30.4098C111.598 31.078 110.011 32.1073 110.653 33.2877C110.791 33.4879 110.976 33.6501 111.193 33.7596L111.386 33.8652L111.578 33.9335C112.721 34.2463 113.865 34.1352 114.988 33.8751C114.605 34.3072 114.419 34.7894 114.748 35.2684C115.164 35.6732 115.676 35.6669 116.166 35.661C116.224 35.6603 116.283 35.6596 116.34 35.6596C116.971 35.6211 117.599 35.5463 118.22 35.4357C118.093 35.6196 117.991 35.8218 117.933 36.0631C117.852 36.8804 118.595 36.8689 119.165 36.6812C118.556 37.3877 118.003 38.2347 118.206 38.9752C118.706 39.9407 120.019 39.5619 120.795 39.2235C120.932 39.1956 123.09 38.0066 122.54 38.0314C121.701 38.6419 120.741 39.0654 119.724 39.2732C118.287 39.4098 118.231 38.5778 118.992 37.5781C119.403 37.03 119.87 36.5264 120.386 36.0756C120.427 36.0354 120.454 35.9816 120.459 35.9239C120.465 35.8662 120.449 35.8084 120.416 35.7611C120.382 35.7137 120.333 35.6799 120.277 35.6659C120.221 35.6518 120.161 35.6584 120.109 35.6844C120.038 35.7192 119.964 35.7573 119.887 35.7968C119.447 36.0219 118.921 36.2911 118.486 36.2277C118.508 36.0853 118.568 35.9514 118.66 35.8396C118.833 35.5974 119.031 35.3746 119.252 35.1753C119.292 35.1394 119.322 35.0941 119.338 35.0435C119.355 34.9929 119.359 34.9389 119.349 34.8865C119.34 34.8465 119.324 34.8086 119.301 34.7749C119.278 34.7412 119.248 34.7125 119.214 34.6903C119.179 34.668 119.141 34.6528 119.101 34.6455C119.061 34.6382 119.019 34.6388 118.979 34.6475C118.951 34.6533 118.922 34.6591 118.893 34.6649C118.338 34.7775 117.776 34.8912 117.204 34.9207C117.088 34.9266 116.966 34.9367 116.84 34.947C116.308 34.9907 115.71 35.0398 115.291 34.8089C115.288 34.6071 115.524 34.3743 115.757 34.1663C116.207 33.8039 116.695 33.4916 117.213 33.2349C117.302 33.1892 117.371 33.1112 117.406 33.0166C117.44 32.922 117.437 32.8179 117.398 32.7253C117.359 32.6327 117.286 32.5585 117.194 32.5176C117.102 32.4768 116.997 32.4724 116.902 32.5054C116.887 32.5106 116.872 32.5158 116.857 32.5209L116.856 32.5178C116.851 32.5206 116.846 32.5233 116.842 32.5261C115.617 32.9424 114.339 33.1821 113.047 33.238C112.564 33.2711 112.081 33.1769 111.646 32.9649C111.572 32.9276 111.438 32.8469 111.42 32.7724C111.479 32.4743 111.895 32.167 112.171 31.9745C112.894 31.498 113.662 31.0954 114.465 30.7731C114.567 30.7313 114.652 30.6574 114.708 30.5626C114.764 30.4678 114.787 30.3574 114.774 30.2482C114.761 30.139 114.712 30.0371 114.636 29.9581C114.559 29.8791 114.459 29.8273 114.35 29.8107C114.104 29.7882 113.863 29.7316 113.633 29.6426C113.823 29.4954 114.031 29.3732 114.253 29.2792C117.206 28.4879 120.202 27.8672 123.226 27.4202C123.446 27.3893 123.668 27.3567 123.893 27.3238C125.156 27.1387 126.479 26.9448 127.697 26.9949C129.152 27.187 130.554 27.6694 131.819 28.4137C132.959 29.0873 134.25 30.1025 134.378 31.4561C134.385 31.9887 134.348 32.5207 134.267 33.0465ZM113.482 29.7792C113.481 29.7811 113.481 29.7821 113.481 29.7821C113.481 29.7822 113.481 29.7813 113.482 29.7792Z" fill="#F43B00"/>
<path d="M134.738 34.0825C135.884 34.3278 137.598 33.6913 138.188 35.0977C138.335 35.5194 138.366 35.9731 138.278 36.411L137.803 36.2092C138.659 35.7466 138.653 34.2626 137.98 33.682C137.079 33.2598 136.008 33.1014 135.114 32.6233L135.459 32.5923C133.829 33.2132 132.174 33.8124 130.538 34.4551L130.454 34.0794C131.885 34.126 133.307 34.1322 134.738 34.098V34.0825ZM134.738 34.2067C133.316 34.2502 131.891 34.3309 130.473 34.4582C130.447 34.4603 130.422 34.4574 130.398 34.4496C130.373 34.4419 130.351 34.4294 130.332 34.413C130.312 34.3965 130.296 34.3764 130.285 34.3538C130.273 34.3312 130.266 34.3065 130.265 34.2812C130.261 34.2391 130.27 34.1967 130.292 34.1604C130.314 34.1241 130.347 34.0958 130.386 34.0794C131.165 33.6789 131.938 33.2598 132.708 32.8376C133.537 32.434 134.332 31.9062 135.192 31.5957C136.14 31.6255 137.069 31.8742 137.905 32.3222C139.103 32.8593 139.315 33.7627 138.97 34.958C138.81 35.5526 138.55 36.1154 138.2 36.6221C138.173 36.6613 138.136 36.6919 138.093 36.7104C138.049 36.7288 138.001 36.7343 137.954 36.7261C137.908 36.7178 137.865 36.6963 137.83 36.6641C137.795 36.6319 137.771 36.5904 137.759 36.5445C137.677 36.2014 137.515 35.8823 137.287 35.6131C137.125 35.4338 136.927 35.2901 136.707 35.1909C136.117 34.8494 135.443 34.3216 134.738 34.2253V34.2067Z" fill="#F43B00"/>
<path d="M134.006 35.0079C134.693 35.0262 135.373 35.1487 136.024 35.3711C136.424 35.2997 136.809 35.0606 137.247 34.9551C137.134 35.1906 136.975 35.4011 136.779 35.5744C136.583 35.7476 136.355 35.8801 136.108 35.9641C135.935 35.9773 135.762 35.9551 135.599 35.8989C135.005 35.7308 134.46 35.4256 134.006 35.0079Z" fill="#F43B00"/>
<path d="M130.579 31.6083C131.079 31.5276 131.662 31.4903 132.05 31.1643C132.094 31.1129 132.152 31.077 132.218 31.0619C132.422 31.0212 132.617 30.9455 132.795 30.8384C132.81 30.8306 132.826 30.8282 132.842 30.8316C132.858 30.835 132.872 30.844 132.882 30.857C132.94 30.9441 132.979 31.0421 132.997 31.145C133.015 31.2479 133.011 31.3534 132.987 31.4549C132.962 31.5563 132.916 31.6516 132.853 31.7346C132.79 31.8177 132.71 31.8867 132.618 31.9374C132.277 32.0412 131.918 32.0739 131.563 32.0333C131.209 31.9927 130.866 31.8797 130.557 31.7014C130.547 31.6962 130.54 31.688 130.536 31.6781C130.531 31.6683 130.53 31.6572 130.533 31.6466C130.535 31.6361 130.541 31.6266 130.549 31.6197C130.558 31.6128 130.568 31.6088 130.579 31.6083Z" fill="#F43B00"/>
<path opacity="0.2" d="M119.157 26.4146C119.157 26.4146 117.794 19.6499 120.536 17.0111C123.277 14.3723 129.374 13.6831 129.834 10.1222C130.293 6.56136 110.253 4.3137 101.368 4.61484C92.4833 4.91597 98.7388 6.90906 99.9372 6.90906C99.9372 6.90906 94.2497 8.63206 95.5132 10.352C96.7768 12.0718 105.615 11.156 105.615 11.156C105.615 11.156 101.03 12.1898 101.368 13.5682C101.707 14.9466 106.814 14.4996 106.814 14.4996C106.814 14.4996 104.426 16.7969 106.398 17.4861C107.506 17.8858 108.69 18.0321 109.862 17.9145C109.862 17.9145 108.599 18.7186 109.862 19.6375C110.656 20.1894 111.624 20.4343 112.585 20.3267C112.585 20.3267 106.065 22.2763 107.45 23.9993C108.835 25.7223 112.585 27.3274 112.585 27.3274L119.157 26.4146Z" fill="#F43B00"/>
<path opacity="0.2" d="M125.793 42.3613C125.793 42.3613 128.022 45.9098 134.007 46.6704C139.993 47.431 142.532 47.4341 142.532 48.9553C142.532 50.4765 137.584 63.2919 123.629 73.8223C123.629 73.8223 121.403 75.1511 120.049 73.276C118.696 71.4008 123.958 66.7068 123.958 66.7068C123.958 66.7068 121.664 68.9483 120.465 66.7596C119.267 64.5709 122.291 60.8611 122.291 60.8611C122.291 60.8611 120.934 61.2771 120.36 60.2402C119.785 59.2033 121.456 57.2691 121.456 57.2691C121.456 57.2691 117.6 60.1874 116.296 57.89C114.992 55.5927 121.248 50.908 121.248 50.908C121.248 50.908 119.944 51.0105 120.102 49.2378C120.26 47.4651 123.8 44.1837 123.8 44.1837C123.8 44.1837 122.101 43.2399 125.793 42.3613Z" fill="#F43B00"/>
</g>
</g>
<defs>
<clipPath id="clip0_941_447467">
<rect width="170" height="170" fill="white" transform="translate(0 0.955078)"/>
</clipPath>
<clipPath id="clip1_941_447467">
<rect width="117.895" height="168" fill="white" transform="translate(27.1055 2.95508)"/>
</clipPath>
</defs>
</svg>
