<svg width="170" height="171" viewBox="0 0 170 171" fill="none" xmlns="http://www.w3.org/2000/svg">
<g clip-path="url(#clip0_992_221585)">
<path d="M63.5791 24.2705C64.1156 24.3139 65.9609 24.4287 65.2259 25.3559L65.0212 25.6102C64.8838 25.7446 64.7779 25.9077 64.7111 26.0878C64.6397 26.3701 65.0863 26.8694 64.7111 27.1361C64.3358 27.4028 63.9637 27.226 63.5853 27.164C61.8579 26.6585 60.2173 25.8584 58.9334 24.5589L59.6001 24.3201C59.6467 25.8056 59.7335 27.3036 59.9103 28.7705C60.0188 29.6761 60.1832 30.8235 60.5957 31.481C60.565 31.4739 60.5332 31.4739 60.5026 31.481C60.5326 31.4622 60.5598 31.4393 60.5832 31.4128C60.6307 31.3655 60.6733 31.3135 60.7104 31.2577L60.8841 31.0313C63.0209 28.1688 66.4664 26.5065 69.9492 26.1809C71.0501 26.0785 72.21 25.9762 73.2924 25.8428C76.2446 25.5154 79.1154 24.667 81.7713 23.337C83.1266 22.7167 84.4415 21.9879 85.7627 21.2715C92.3499 17.6523 99.0983 14.3246 105.239 10.0169C106.644 9.11504 107.944 8.05924 109.115 6.86909C109.291 6.6801 109.502 6.52732 109.736 6.4194C111.159 5.79914 113.532 6.81017 114.406 7.94214C114.837 8.67715 114.23 9.20437 113.504 9.18266C112.778 9.16095 112.037 8.89734 111.355 8.96867C111.295 8.97397 111.238 8.9966 111.19 9.0338C110.88 9.38425 110.328 10.141 109.981 10.6682C109.621 11.1671 109.344 11.7212 109.162 12.3088C109.165 12.2799 109.165 12.2508 109.162 12.2219C109.14 12.1404 109.1 12.065 109.044 12.0017C108.963 11.9103 108.854 11.8481 108.734 11.825C108.666 11.8075 108.594 11.8075 108.526 11.825C109.472 11.1675 110.285 10.1906 111.082 9.34393C111.196 9.21068 111.358 9.12814 111.533 9.11448C111.707 9.10081 111.88 9.15713 112.014 9.27105C112.147 9.38497 112.229 9.54715 112.243 9.72192C112.257 9.8967 112.2 10.0697 112.087 10.203C111.335 11.0953 110.649 12.0406 110.033 13.0314C109.864 13.303 109.731 13.5961 109.64 13.9028C109.626 13.8343 109.598 13.7696 109.556 13.7137C109.491 13.626 109.401 13.5592 109.298 13.5214C109.207 13.4919 109.108 13.4919 109.016 13.5214C110.027 12.7833 110.862 11.6389 111.674 10.6682L112.635 11.4373C111.748 12.5631 110.617 13.7788 110.092 15.0875C110.08 15.0131 110.047 14.944 109.995 14.8888C109.944 14.8336 109.877 14.7948 109.804 14.7774C109.652 14.7588 109.699 14.7774 109.736 14.7619C110.713 14.1944 111.522 13.233 112.307 12.4049C112.391 12.3166 112.506 12.2625 112.628 12.2529C112.75 12.2432 112.871 12.2787 112.968 12.3525C113.066 12.4263 113.133 12.5334 113.157 12.6534C113.181 12.7734 113.16 12.898 113.098 13.0035C112.663 13.7571 112.043 14.6751 111.969 15.5155C111.949 15.4854 111.919 15.4634 111.885 15.4535C111.817 15.438 111.804 15.4535 111.835 15.4535C112.129 15.2767 112.386 15.045 112.592 14.7712C113.201 14.0154 113.755 13.2163 114.248 12.3801C114.589 11.825 114.912 11.2543 115.225 10.6806C115.385 10.4348 115.491 10.1578 115.535 9.86805C115.535 8.93766 114.577 8.34841 113.814 7.90803C113.238 7.59891 112.636 7.34052 112.015 7.1358C112 7.13018 111.988 7.11913 111.98 7.1048C111.973 7.09048 111.971 7.07389 111.975 7.05827C111.98 7.04337 111.99 7.03092 112.004 7.02344C112.018 7.01596 112.034 7.014 112.049 7.01795C112.703 7.17018 113.34 7.38409 113.954 7.65682C114.837 8.0755 115.988 8.72677 116.019 9.87425C115.996 10.2396 115.89 10.5948 115.709 10.9132C115.433 11.5334 115.126 12.1072 114.809 12.6933C114.339 13.5854 113.803 14.4416 113.206 15.255C112.937 15.6557 112.578 15.9881 112.158 16.2257C111.983 16.3062 111.783 16.3142 111.601 16.248C111.42 16.1818 111.272 16.0467 111.19 15.8722C110.973 15.3356 111.209 14.7619 111.352 14.3215C111.605 13.6779 111.91 13.0556 112.263 12.4607L113.063 13.0469C112.555 13.6485 112.04 14.2223 111.469 14.7805C111.041 15.1713 110.57 15.6737 109.95 15.8474C109.793 15.8879 109.628 15.8799 109.477 15.8245C109.325 15.7691 109.194 15.6689 109.1 15.5372C109.026 15.4008 108.983 15.2499 108.974 15.095C108.965 14.9401 108.99 14.7851 109.047 14.6409C109.364 13.8749 109.781 13.1543 110.288 12.498C110.741 11.856 111.218 11.2419 111.702 10.6372C111.805 10.5084 111.955 10.426 112.119 10.408C112.283 10.3899 112.448 10.4378 112.577 10.541C112.705 10.6443 112.788 10.7944 112.806 10.9584C112.824 11.1224 112.776 11.2869 112.673 11.4156C111.93 12.4121 111.112 13.3504 110.226 14.2223C109.954 14.5052 109.606 14.7025 109.224 14.7898C109.112 14.8019 108.998 14.7905 108.891 14.7562C108.783 14.722 108.684 14.6658 108.599 14.5911C108.515 14.5164 108.447 14.4249 108.399 14.3224C108.352 14.2199 108.327 14.1087 108.325 13.9959C108.306 13.357 108.61 12.8701 108.877 12.3646C109.521 11.3061 110.247 10.2993 111.048 9.35323L112.049 10.2185C111.562 10.7643 111.066 11.2977 110.542 11.8188C110.128 12.2528 109.664 12.6359 109.159 12.96C108.955 13.0914 108.71 13.1422 108.47 13.1027C108.327 13.0715 108.195 13.0006 108.09 12.8981C107.984 12.7955 107.91 12.6655 107.875 12.5228C107.855 12.4048 107.855 12.2841 107.875 12.1661C108.03 11.335 108.495 10.6496 108.933 9.96419C109.361 9.33773 109.825 8.73614 110.322 8.16233C110.534 7.98333 110.783 7.85395 111.051 7.78366C111.32 7.71337 111.6 7.70394 111.873 7.75606C112.465 7.80878 112.952 7.97626 113.479 7.99176C113.524 7.99678 113.57 7.99678 113.615 7.99176C113.615 7.99176 113.674 7.95765 113.55 8.03208C113.486 8.08217 113.435 8.1475 113.402 8.2222C113.369 8.2969 113.355 8.37863 113.361 8.46006C113.38 8.5624 113.395 8.5686 113.395 8.5717C112.732 7.94416 111.894 7.53222 110.992 7.39011C110.668 7.31979 110.33 7.37171 110.043 7.53587C109.956 7.5948 109.574 7.97626 109.481 8.05999C108.347 9.08709 107.119 10.005 105.813 10.8015C103.254 12.408 100.627 13.9028 97.957 15.2891C94.0804 17.2957 89.7758 19.4542 86.017 21.6313C83.4119 23.1199 80.8223 24.7016 77.9288 25.7281C75.0353 26.7546 72.0363 26.9872 69.0405 27.4245C66.2059 27.9362 63.5202 29.3659 61.7493 31.6578C61.4144 32.0951 60.9709 32.6471 60.3165 32.4362C58.707 31.8749 58.9272 25.8739 58.8868 24.3201C58.8856 24.2702 58.8944 24.2205 58.9127 24.1741C58.9311 24.1277 58.9586 24.0854 58.9936 24.0498C59.0286 24.0142 59.0704 23.986 59.1165 23.9669C59.1627 23.9478 59.2122 23.9382 59.2621 23.9386C59.3177 23.9398 59.3724 23.9531 59.4222 23.9778C59.4721 24.0024 59.5159 24.0378 59.5505 24.0813C59.8077 24.3913 60.1002 24.6702 60.422 24.9125C61.4234 25.684 62.5387 26.295 63.728 26.7236C63.9708 26.8211 64.2341 26.8562 64.494 26.826C64.494 26.826 64.494 26.826 64.494 26.826C64.5011 26.7985 64.5011 26.7697 64.494 26.7422C64.2118 25.9793 64.5188 25.7281 65.0243 25.1916C65.6198 24.6706 63.9078 24.4504 63.5667 24.4007C63.5585 24.4 63.5506 24.3976 63.5434 24.3937C63.5361 24.3899 63.5297 24.3846 63.5246 24.3783C63.5194 24.3719 63.5155 24.3646 63.5131 24.3568C63.5108 24.3489 63.51 24.3407 63.5109 24.3325C63.5124 24.3166 63.5201 24.3019 63.5322 24.2915C63.5444 24.2811 63.56 24.2758 63.576 24.2767L63.5791 24.2705Z" fill="#F43B00"/>
<path d="M64.8756 16.5733C65.1082 17.7021 65.0648 18.9147 65.3284 20.0126C65.4494 20.5243 65.682 20.9988 66.2588 21.0857C66.6992 21.2066 67.1489 20.8779 67.5986 21.0608C68.2467 21.5788 67.1024 22.7542 66.6031 23.0085C66.4356 23.1108 66.1751 23.2318 66.1472 23.3775C66.1472 23.4519 66.3363 23.6876 66.4046 23.8086C66.4489 23.886 66.4722 23.9737 66.4722 24.0629C66.4722 24.1521 66.4489 24.2398 66.4046 24.3172C65.8246 25.1142 63.356 24.6677 62.6582 24.2242C63.7002 23.9637 64.8074 24.249 65.8339 23.9823C65.8774 23.9823 65.9022 23.9389 65.8649 23.9823C65.8507 24.0111 65.8443 24.0432 65.8463 24.0753C65.6808 23.8563 65.5847 23.5927 65.5703 23.3186C65.5871 23.1923 65.6387 23.0731 65.7192 22.9743C66.1162 22.5433 66.6744 22.5433 67.0776 22.1494C67.2919 21.9832 67.4579 21.7626 67.5583 21.5105C67.5924 21.3896 67.5831 21.2748 67.4993 21.2283C67.3845 21.179 67.2558 21.1724 67.1365 21.2097C66.6905 21.3699 66.2071 21.3947 65.7471 21.281C64.6089 20.8251 64.6306 19.3458 64.643 18.3441C64.6663 17.7508 64.7253 17.1595 64.8198 16.5733C64.8198 16.5423 64.8787 16.5392 64.8818 16.5733H64.8756Z" fill="#F43B00"/>
<path d="M51.5172 19.1669C52.1809 21.0091 53.564 22.4419 54.3642 24.2189C54.7984 25.3168 54.8666 26.5139 55.0527 27.6769C55.1705 28.8461 55.3628 30.1579 54.7767 31.2744C54.6002 31.5935 54.317 31.8403 53.9767 31.9713C53.6364 32.1023 53.2608 32.1092 52.9159 31.9908C52.3794 31.8574 51.7777 31.6807 51.2412 31.5659C48.7849 30.9643 47.1413 30.7224 44.8618 32.1583C39.3973 35.5697 34.2119 44.7371 33.7157 51.1382C34.0848 57.713 48.602 65.2429 54.1502 67.8852H53.9176C54.5703 67.4808 55.1051 66.9118 55.4682 66.2353C55.8412 65.5451 56.0603 64.7823 56.1102 63.9993L56.2126 64.204C51.818 61.3105 47.4018 58.3487 43.6585 54.5807C42.5792 53.3681 40.4952 51.2251 42.083 49.6465L42.3932 49.2743C44.6633 46.7406 47.1319 44.3123 50.1464 42.6438C51.6971 43.9928 52.8818 45.6489 53.9455 47.3422C56.9321 52.2609 59.013 57.6572 60.7529 63.1278L60.2411 62.7216L76.1911 63.6334L75.5119 64.2536C75.6918 59.7443 75.5988 55.2164 75.3879 50.7071C75.1739 46.0552 74.8359 41.3846 74.3986 36.7513C80.3159 33.6314 86.3448 30.6479 92.0047 27.0721C97.7483 22.3582 103.061 17.0921 108.513 12.0339C108.566 11.9812 108.656 12.068 108.6 12.1239C103.697 17.1697 98.7686 22.1721 93.546 26.8985C92.2373 28.1204 90.6587 29.0011 89.1453 29.9253C84.5988 32.6111 79.9685 35.1324 75.3228 37.6414L75.6329 37.0397C76.5633 46.1017 77.1835 55.2133 76.7804 64.3312L76.7463 64.9824L76.1012 64.939L60.1574 63.8815L59.7604 63.8535C58.6661 60.1001 57.3298 56.4215 55.7598 52.8408C54.2091 49.4697 52.5189 45.9746 49.8456 43.3633L50.2395 43.4191C47.9662 44.6596 45.9659 46.4025 44.1237 48.2106C43.5437 48.7812 42.9793 49.3891 42.4335 49.9938C42.2631 50.1258 42.13 50.2999 42.0473 50.4989C41.9647 50.6979 41.9353 50.9151 41.9621 51.1289C42.173 52.3508 43.1375 53.396 43.9562 54.314C44.8666 55.2528 45.8295 56.1391 46.8404 56.9687C49.8849 59.4776 53.097 61.7759 56.4545 63.8473L56.5661 63.9156V64.0489C56.4824 65.7484 55.6574 67.4604 54.175 68.3908L54.0696 68.4559L53.9424 68.4001C47.4824 65.46 39.0096 61.2392 34.4942 55.6847C32.7605 53.4704 32.2147 51.5011 32.9435 48.7378C34.4166 42.4918 38.836 34.782 44.4183 31.3705C47.3273 29.6307 49.5168 30.3285 52.5468 31.172C52.6554 31.1969 53.1454 31.3519 53.2384 31.3736C53.4283 31.4279 53.6312 31.4154 53.813 31.338C53.9947 31.2607 54.1444 31.1233 54.237 30.9488C54.758 29.9905 54.6061 28.8058 54.5472 27.7203C54.4107 26.5976 54.3921 25.4315 54.0168 24.3492C53.288 22.5752 51.9669 21.0649 51.4086 19.201C51.4037 19.185 51.4051 19.1676 51.4126 19.1526C51.4201 19.1376 51.4331 19.126 51.449 19.1204C51.4642 19.1161 51.4805 19.1175 51.4947 19.1244C51.509 19.1312 51.5203 19.143 51.5265 19.1576L51.5172 19.1669Z" fill="#F43B00"/>
<path d="M64.854 16.5116C65.8434 15.7611 65.5456 14.5237 64.8137 13.6212C64.0632 12.4985 61.6659 10.9014 62.2769 9.35381C62.7607 8.45753 63.8585 8.42342 64.6742 8.16291C65.189 7.99234 65.7999 7.85278 65.5549 7.31005C65.2696 6.82935 64.5222 6.49441 63.9516 6.29593C62.8727 5.93851 61.756 5.70747 60.6239 5.60744C57.0481 5.29731 52.2907 5.53301 50.1167 8.83279C49.0591 10.492 48.9785 12.5264 48.9878 14.443C48.9351 15.1594 49.1087 16.2852 48.2931 16.6822C47.31 17.135 46.3083 16.3224 45.5019 15.8913C44.7762 15.4789 44.3234 15.8665 43.6132 16.0495C42.8999 16.3069 41.8052 16.4899 41.1322 15.8851L40.9957 15.7518C40.974 15.7363 40.9523 15.7084 40.9461 15.7084C40.9399 15.7084 40.9461 15.7084 40.9461 15.7084H40.9833C41.0406 15.7238 41.1004 15.7274 41.159 15.7189C41.2177 15.7103 41.274 15.6899 41.3245 15.6588C41.3966 15.6134 41.4521 15.546 41.4826 15.4665C41.5416 15.9875 42.0068 16.7225 42.6115 16.8869C43.1331 17.0449 43.6323 17.269 44.097 17.5536C44.8072 17.9692 45.3065 18.8686 45.7686 19.3772C46.5172 20.0536 47.4831 20.4397 48.4916 20.4658C49.0467 20.4658 49.2421 20.1742 49.5584 19.8455C50.3282 19.0531 51.2897 18.4731 52.3496 18.1615C52.6876 18.0654 53.342 18.0592 53.6738 18.4096C53.7421 18.4716 53.801 18.5306 53.8847 18.5957C54.6021 19.1028 55.475 19.3413 56.3505 19.2693C57.2261 19.1973 58.0483 18.8194 58.6731 18.2018C59.6035 17.3024 60.5339 15.7828 62.007 15.6339C63.0274 15.4975 64.026 15.9782 64.8633 16.5054L64.854 16.5116ZM64.854 16.6357C61.607 15.2153 61.1635 16.4372 59.2531 18.7787C57.6621 20.7077 54.5329 20.7294 52.9171 19.2873C52.4906 19.3486 52.084 19.5078 51.7293 19.7525C51.0985 20.1468 50.5317 20.6352 50.0484 21.2008C48.4978 22.5778 45.5329 21.3248 44.4847 19.8951C44.4196 19.8052 44.1374 19.3989 44.0691 19.2997C43.5512 18.4685 42.6952 18.2762 41.8486 17.9041C41.4006 17.6597 41.0247 17.3018 40.7585 16.8664C40.4923 16.431 40.3453 15.9332 40.3321 15.4231C40.331 15.2815 40.3643 15.1418 40.4291 15.0159C40.4939 14.89 40.5883 14.7818 40.7042 14.7004C40.8227 14.6244 40.9604 14.584 41.1012 14.584C41.2419 14.584 41.3797 14.6244 41.4981 14.7004C41.8083 14.8865 41.9416 15.1718 42.3417 15.1812C43.2721 15.2277 44.3575 14.4741 45.3283 14.7749C46.2928 14.992 47.0495 16.2263 48.0171 15.9751C48.1659 15.9193 48.1939 15.7332 48.2497 15.5254C48.6218 12.2628 48.4823 9.01267 51.4564 6.84176C54.7283 4.62123 59.2934 4.11571 63.1266 4.90344C64.3671 5.21357 65.8092 5.58263 66.538 6.85416C67.0808 8.1381 66.0884 8.92583 64.9378 9.13982C64.4012 9.28868 63.3871 9.38172 63.0956 9.76008C63.074 9.79541 63.0643 9.83668 63.0677 9.87793C63.0589 10.0953 63.1127 10.3106 63.2228 10.4982C63.7345 11.4472 64.6866 12.359 65.2789 13.3266C65.9829 14.3469 66.2093 16.065 64.8571 16.6543L64.854 16.6357Z" fill="#F43B00"/>
<path d="M63.5691 16.0099C62.6877 15.7832 62.044 15.8453 61.4769 16.161C61.0746 16.3849 60.7241 16.7298 60.3598 17.1554C60.1517 17.3985 59.9324 17.6762 59.6939 17.9783C59.5184 18.2006 59.3325 18.436 59.1331 18.6805C58.37 19.6054 57.2338 20.078 56.0857 20.1423C54.9359 20.2067 53.7923 19.8605 53.0204 19.1716L52.9665 19.1235L52.8951 19.1338C52.446 19.1983 52.0179 19.3657 51.6442 19.6228C51.0043 20.0232 50.4288 20.5185 49.9377 21.0917C49.2205 21.722 48.1616 21.7636 47.1227 21.4519C46.0823 21.1398 45.1105 20.4861 44.61 19.8038C44.5462 19.7157 44.2703 19.3186 44.1988 19.2146C43.9209 18.77 43.553 18.4983 43.1533 18.292C42.9541 18.1892 42.7459 18.1021 42.5377 18.0184C42.4884 17.9986 42.4392 17.979 42.3901 17.9594C42.232 17.8965 42.0747 17.8339 41.9171 17.7648C41.4955 17.5335 41.1416 17.1959 40.8908 16.7855C40.6391 16.3737 40.4999 15.903 40.4871 15.4205C40.4864 15.3045 40.5138 15.19 40.5669 15.0869C40.6198 14.9843 40.6965 14.8959 40.7906 14.8292C40.8835 14.7704 40.9912 14.7391 41.1012 14.7391C41.2122 14.7391 41.3209 14.771 41.4144 14.831L41.4144 14.831L41.4184 14.8334C41.4853 14.8735 41.5443 14.92 41.604 14.9709C41.6216 14.9858 41.6401 15.0019 41.6592 15.0185C41.7014 15.0553 41.7465 15.0946 41.7905 15.1291C41.9285 15.2373 42.0928 15.33 42.336 15.3361C42.7597 15.3568 43.2123 15.2231 43.6406 15.0965C43.7154 15.0744 43.7894 15.0526 43.8623 15.0318C44.3724 14.8865 44.8455 14.7876 45.2824 14.923L45.2822 14.9235L45.2942 14.9262C45.5098 14.9747 45.7203 15.0817 45.9354 15.2198C46.0792 15.3121 46.217 15.4126 46.3581 15.5156C46.4314 15.5691 46.5056 15.6233 46.582 15.6772C47.0101 15.9797 47.4962 16.2705 48.056 16.1252L48.0639 16.1231L48.0715 16.1203C48.2038 16.0707 48.2716 15.9641 48.3118 15.866C48.3406 15.7957 48.3624 15.7101 48.3821 15.6327C48.388 15.6094 48.3937 15.5868 48.3994 15.5656L48.4024 15.5545L48.4037 15.543C48.4557 15.0879 48.4975 14.6361 48.5389 14.1895C48.6473 13.0186 48.7525 11.8827 49.0275 10.8128C49.404 9.34773 50.0958 8.02771 51.5457 6.96857C54.7736 4.77906 59.2905 4.27423 63.0922 5.05468C64.3422 5.3672 65.7072 5.72554 66.3988 6.92314C66.6444 7.51091 66.5369 7.96335 66.2544 8.29823C65.9612 8.64572 65.4637 8.88428 64.9094 8.98737L64.9093 8.98679L64.8963 8.9904C64.7684 9.02588 64.6101 9.05854 64.4337 9.09437L64.409 9.09938C64.2417 9.13335 64.0612 9.17001 63.8872 9.21344C63.7051 9.25893 63.5243 9.31324 63.368 9.3828C63.2138 9.45136 63.0686 9.54111 62.9728 9.66544L62.9676 9.67213L62.9632 9.67934C62.9264 9.73968 62.9088 9.80967 62.9124 9.88009C62.9042 10.1233 62.9649 10.3639 63.0875 10.5741C63.3511 11.0622 63.7254 11.5372 64.0998 12.0026C64.1276 12.0372 64.1554 12.0717 64.1832 12.1063C64.5335 12.541 64.8782 12.969 65.1467 13.4075L65.1465 13.4077L65.1513 13.4146C65.4872 13.9015 65.7071 14.5537 65.6841 15.1461C65.6777 15.3114 65.6527 15.4713 65.6062 15.6215C65.6399 15.4549 65.648 15.2835 65.6339 15.1107C65.5885 14.557 65.3155 13.9956 64.9386 13.5291C64.7419 13.2365 64.4432 12.9185 64.1263 12.5906C64.0796 12.5423 64.0324 12.4937 63.9849 12.4448C63.7041 12.1555 63.4134 11.8561 63.1534 11.547C62.5376 10.8151 62.155 10.099 62.4177 9.41932C62.6343 9.02419 62.9866 8.81199 63.4024 8.66628C63.6125 8.59264 63.8342 8.53754 64.0596 8.48367C64.0817 8.47839 64.1038 8.47311 64.126 8.46783C64.3273 8.41988 64.5315 8.37126 64.7213 8.31063L64.7229 8.31011C64.7631 8.29679 64.8053 8.28323 64.8484 8.26937C64.9373 8.24082 65.0299 8.21105 65.1162 8.17982C65.2456 8.13299 65.3765 8.07758 65.4854 8.00514C65.5946 7.9325 65.6942 7.83432 65.7401 7.69758C65.7868 7.55829 65.7686 7.40643 65.6963 7.24625L65.6927 7.23836L65.6883 7.23091C65.5254 6.95651 65.2399 6.73625 64.9374 6.56267C64.632 6.38737 64.2925 6.25034 64.0025 6.14947L64.0025 6.14945L64.0003 6.14873C62.9101 5.78754 61.7816 5.55406 60.6375 5.45298L60.6373 5.45295C58.8422 5.29727 56.7408 5.27746 54.8103 5.71517C52.8792 6.15302 51.1039 7.05254 49.9872 8.74748L49.9859 8.74945C48.9021 10.4498 48.8236 12.5255 48.8327 14.4378C48.8228 14.5762 48.8208 14.7302 48.8189 14.8854C48.8182 14.9358 48.8176 14.9863 48.8167 15.0365C48.8128 15.2477 48.8042 15.4593 48.7733 15.6587C48.7115 16.0575 48.5665 16.3759 48.2267 16.542C47.7925 16.7414 47.3467 16.6678 46.8916 16.4754C46.6639 16.3791 46.4393 16.2554 46.218 16.1265C46.1534 16.0888 46.0886 16.0504 46.024 16.0122C45.8714 15.9218 45.7203 15.8324 45.5768 15.7555C45.1764 15.5285 44.8415 15.5204 44.5166 15.5961C44.3606 15.6325 44.2069 15.6881 44.0558 15.7428L44.0531 15.7438C43.8987 15.7997 43.7439 15.8557 43.5745 15.8994L43.5675 15.9012L43.5606 15.9037C43.2148 16.0284 42.7809 16.1334 42.3568 16.1356C42.1921 16.1364 42.0313 16.1219 41.8787 16.088C41.7434 15.8704 41.6582 15.6387 41.6367 15.449L41.3379 15.4109C41.3194 15.4589 41.286 15.4996 41.2425 15.5271C41.2102 15.5469 41.1742 15.56 41.1367 15.5654C41.099 15.5709 41.0606 15.5686 41.0238 15.5587L41.0039 15.5533H40.9833H40.9461H40.9461H40.9461H40.9461H40.9461H40.9461H40.9461H40.9461H40.946H40.946H40.946H40.946H40.946H40.946H40.946H40.946H40.946H40.9459H40.9459H40.9459H40.9459H40.9459H40.9459H40.9459H40.9459H40.9458H40.9458H40.9458H40.9458H40.9458H40.9458H40.9458H40.9458H40.9458H40.9458H40.9458H40.9457H40.9457H40.9457H40.9457H40.9457H40.9457H40.9457H40.9457H40.9457H40.9456H40.9456H40.9456H40.9456H40.9456H40.9456H40.9456H40.9456H40.9456H40.9456H40.9455H40.9455H40.9455H40.9455H40.9455H40.9455H40.9455H40.9455H40.9455H40.9454H40.9454H40.9454H40.9454H40.9454H40.9454H40.9454H40.9453H40.9453H40.9453H40.9453H40.9453H40.9453H40.9453H40.9453H40.9452H40.9452H40.9452H40.9452H40.9452H40.9452H40.9452H40.9452H40.9451H40.9451H40.9451H40.9451H40.9451H40.9451H40.9451H40.9451H40.945H40.945H40.945H40.945H40.945H40.945H40.945H40.945H40.9449H40.9449H40.9449H40.9449H40.9449H40.9449H40.9449H40.9449H40.9448H40.9448H40.9448H40.9448H40.9448H40.9448H40.9448H40.9448H40.9447H40.9447H40.9447H40.9447H40.9447H40.9447H40.9447H40.9447H40.9446H40.9446H40.9446H40.9446H40.9446H40.9446H40.9446H40.9446H40.9446H40.9445H40.9445H40.9445H40.9445H40.9445H40.9445H40.9444H40.9444H40.9444H40.9444H40.9444H40.9444H40.9444H40.9443H40.9443H40.9443H40.9443H40.9443H40.9443H40.9443H40.9442H40.9442H40.9442H40.9442H40.9442H40.9442H40.9442H40.9442H40.9441H40.9441H40.9441H40.9441H40.9441H40.9441H40.944H40.944H40.944H40.944H40.944H40.944H40.944H40.944H40.944H40.9439H40.9439H40.9439H40.9439H40.9439H40.9439H40.9439H40.9438H40.9438H40.9438H40.9438H40.9438H40.9437H40.9437H40.9437H40.9437H40.9437H40.9437H40.9436H40.9436H40.9436H40.9436H40.9436H40.9436H40.9435H40.9435H40.9435H40.9435H40.9435H40.9435H40.9435H40.9434H40.9434H40.9434H40.9434L40.9434 15.8054L40.8952 15.8547C40.8927 15.8538 40.8904 15.8529 40.8883 15.852C40.8774 15.8475 40.8693 15.8427 40.8651 15.8399C40.857 15.8347 40.8518 15.8301 40.851 15.8294L40.851 15.8294C40.8497 15.8282 40.8494 15.8279 40.8506 15.829L40.8555 15.8339L40.856 15.8344C40.8602 15.8386 40.867 15.8454 40.8744 15.8523C40.8796 15.8571 40.8863 15.8631 40.8941 15.8693L41.0238 15.996L41.0237 15.9961L41.0285 16.0005C41.2238 16.176 41.4489 16.2901 41.6861 16.3588C41.6965 16.3735 41.707 16.3881 41.7177 16.4026C41.929 16.6883 42.2222 16.941 42.5686 17.0359C43.0768 17.1901 43.5632 17.4085 44.0161 17.6859L44.016 17.6859L44.0187 17.6875C44.3481 17.8802 44.6358 18.19 44.9046 18.5272C45.0069 18.6555 45.1044 18.785 45.2 18.9121C45.2297 18.9516 45.2593 18.9908 45.2887 19.0297C45.4117 19.1922 45.5332 19.3487 45.6539 19.4815L45.659 19.4871L45.6647 19.4923C46.4407 20.1935 47.442 20.5938 48.4876 20.6208L48.4876 20.6208H48.4916C48.8012 20.6208 49.0207 20.538 49.2054 20.4046C49.3387 20.3083 49.4558 20.1824 49.5697 20.0599C49.6033 20.0238 49.6366 19.9879 49.67 19.9532C50.4209 19.1804 51.3588 18.6145 52.3926 18.3105C52.5413 18.2683 52.7683 18.2443 52.9952 18.272C53.2241 18.3 53.43 18.3776 53.5613 18.5162L53.5609 18.5165L53.5695 18.5243C53.5842 18.5377 53.5991 18.5515 53.6145 18.5659C53.6649 18.6127 53.7206 18.6645 53.7895 18.7181L53.7894 18.7182L53.7952 18.7223C54.5423 19.2505 55.4514 19.4988 56.3633 19.4238C57.2748 19.3489 58.1309 18.9555 58.7816 18.3127M58.7816 18.3127C58.7814 18.3129 58.7811 18.3131 58.7809 18.3133L58.6731 18.2018L58.7822 18.3121C58.782 18.3123 58.7818 18.3125 58.7816 18.3127Z" fill="#F43B00" stroke="#F43B00" stroke-width="0.31013"/>
<path d="M70.596 45.1819C68.8823 45.4637 67.2214 44.3494 66.4345 42.8503C66.6641 42.9585 66.8923 43.0706 67.1196 43.1823C67.6922 43.4637 68.2589 43.7421 68.826 43.9485C69.7017 44.2673 70.6083 44.4281 71.6148 44.1926L71.615 44.1926C72.2583 44.0414 72.9389 43.6635 73.1915 42.9674C73.3944 42.4482 73.2485 41.8917 73.1331 41.4512C73.1273 41.4289 73.1215 41.4068 73.1158 41.3851C73.0587 41.1653 73.0099 40.9381 72.9592 40.7021L72.953 40.6732C72.9003 40.4281 72.8454 40.1743 72.7777 39.9177C72.6616 39.4779 72.5443 39.0256 72.4472 38.5357C72.8398 38.8484 73.1656 39.2381 73.4038 39.6817C73.6763 40.1892 73.8268 40.7532 73.8432 41.329C73.7683 42.1071 73.3714 43.025 72.779 43.7745C72.1831 44.5284 71.4102 45.0867 70.6032 45.1808L70.6032 45.1807L70.596 45.1819Z" fill="#F43B00" stroke="#F43B00" stroke-width="0.31013"/>
<path d="M66.2288 41.5269C66.5018 41.9206 66.6661 42.3793 66.7053 42.8568C66.7445 43.3343 66.6572 43.8137 66.4521 44.2467C66.1733 44.6617 65.8043 45.0083 65.3729 45.2608C64.5665 45.7942 63.6206 46.3122 62.6096 45.9927C61.1303 45.602 60.2712 44.0141 60.4387 42.5565C60.4417 42.5387 60.4514 42.5227 60.4658 42.5117C60.4802 42.5008 60.4982 42.4957 60.5162 42.4976C61.1861 43.1178 61.6947 43.8094 62.2467 44.2684C62.7217 44.7825 63.3528 45.1258 64.0424 45.2453C64.233 45.2909 64.4321 45.2878 64.6212 45.2363C64.8103 45.1848 64.9835 45.0866 65.1247 44.9507C65.4101 44.6685 65.4349 44.2374 65.4876 43.8838C65.5403 43.5303 65.6489 43.1705 65.7388 42.7829C65.8378 42.3619 65.9631 41.9476 66.1141 41.5424C66.119 41.5312 66.1268 41.5214 66.1366 41.5141C66.1465 41.5068 66.158 41.5021 66.1702 41.5006C66.1823 41.499 66.1947 41.5006 66.206 41.5052C66.2174 41.5098 66.2274 41.5173 66.235 41.5269H66.2288Z" fill="#F43B00"/>
<path d="M59.4324 28.3246C59.0385 28.6348 58.6292 28.7836 58.1919 28.5976C58.0089 28.4859 57.8445 28.2595 57.6553 28.1944C57.4561 28.1311 57.2399 28.1489 57.0537 28.244C56.6625 28.4391 56.2132 28.4838 55.7913 28.3694C55.3693 28.2551 55.0041 27.9897 54.7649 27.6237C54.7513 27.6047 54.7456 27.5811 54.749 27.5579C54.7525 27.5348 54.7649 27.5139 54.7835 27.4997C55.1202 27.2202 55.5478 27.0741 55.9851 27.0889C56.4224 27.1038 56.8391 27.2786 57.156 27.5803C57.3061 27.7267 57.5078 27.808 57.7174 27.8067C58.0275 27.7881 58.3376 27.4718 58.6478 27.5927C58.8154 27.6383 58.9724 27.7165 59.1098 27.823C59.2471 27.9294 59.362 28.062 59.4479 28.213C59.4596 28.2326 59.4641 28.2557 59.4607 28.2783C59.4573 28.3009 59.4462 28.3217 59.4293 28.337L59.4324 28.3246Z" fill="#F43B00"/>
<path d="M64.8505 16.574C64.4848 17.1719 63.9917 17.6818 63.4063 18.0672C62.8209 18.4527 62.1577 18.7042 61.4639 18.8038C61.4639 18.8038 60.3102 22.9813 55.9436 22.6494C51.577 22.3176 49.0587 27.6797 47.874 29.0102C46.6893 30.3407 43.7431 31.8479 40.0897 30.4337C36.4364 29.0195 36.2938 27.0161 35.7231 25.3073C35.1525 23.5984 36.7496 19.4613 40.9054 19.5171C45.0611 19.5729 47.3313 20.9716 47.3313 20.9716C47.3313 20.9716 48.7486 21.5206 49.7224 20.6119C50.6962 19.7032 51.6173 18.8814 52.7586 18.7015C53.2722 18.8578 53.7556 19.1 54.1883 19.4179C55.1186 20.0381 57.6524 19.9234 59.262 18.1619C60.8716 16.4003 61.5631 14.8652 64.8505 16.574Z" fill="#F43B00"/>
<path opacity="0.2" d="M39.1035 29.292C37.5102 28.6473 36.48 25.9894 36.1641 24.741C36.6372 22.9869 37.1131 25.5469 37.5871 25.5469C38.0612 25.5469 38.7723 25.2625 39.1035 27.538C39.4347 29.8135 41.0478 28.7705 42.47 28.7705C43.8921 28.7705 44.5558 29.292 45.741 28.7705C46.9261 28.249 46.0254 27.0639 46.8787 26.258C47.732 25.4521 47.4002 26.1158 48.0639 25.2625C48.7276 24.4092 48.9172 23.5559 49.8653 23.5559C50.8134 23.5559 50.6238 23.3662 52.5675 22.1811C54.5111 20.9959 55.2222 22.1811 54.7007 22.1811C54.1793 22.1811 52.4252 22.6551 50.6238 24.1247C48.8224 25.5943 48.1113 28.2965 45.741 29.6238C43.3707 30.9512 41.0952 30.0979 39.1035 29.292Z" fill="black"/>
<g opacity="0.2">
<path opacity="0.2" d="M63.6668 17.8906C63.6668 17.8906 62.9783 19.5622 62.1657 19.677C61.3532 19.7917 62.2216 20.6632 61.471 21.147C60.7205 21.6308 60.8508 22.6976 60.2305 22.7504C59.6103 22.8031 56.5462 23.4482 56.3942 24.332C56.2423 25.2159 54.9831 25.954 54.9831 25.954C54.9831 25.954 54.9397 23.9816 54.0527 23.1628C55.1123 22.8167 56.2119 22.6082 57.3246 22.5426C59.4211 22.3782 61.1516 20.474 61.4617 18.8024L63.6668 17.8906Z" fill="#F43B00"/>
<path opacity="0.2" d="M63.7099 17.8355C63.7347 17.8541 63.7099 17.9316 63.7099 17.9285V18.006C63.682 18.1053 63.6603 18.2107 63.6293 18.3162C63.3688 19.076 63.0401 19.842 62.1686 20.1056C62.1686 20.1056 62.2058 20.0839 62.2213 20.0684C62.2523 20.0064 62.2399 20.0932 62.2647 20.2204C62.2938 20.3862 62.3022 20.5549 62.2895 20.7228C62.2589 20.9133 62.1876 21.0949 62.0806 21.2554C61.9736 21.416 61.8333 21.5516 61.6693 21.6532C61.2661 22.0967 61.2537 23.0395 60.4908 23.2503C59.4208 23.3992 58.2051 23.4426 57.1817 23.8706C56.9408 23.9524 56.7329 24.1102 56.5894 24.3203C56.3661 25.2817 55.5132 25.8896 54.7751 26.4602C54.6914 25.5019 54.4277 24.2086 53.6896 23.5884L52.998 23.0612L53.8509 22.7107C54.8039 22.3448 55.7971 22.0939 56.8095 21.9633C57.3268 21.9232 57.8349 21.805 58.3168 21.6129C58.9906 21.3295 59.5945 20.9028 60.0867 20.3624C60.5789 19.822 60.9475 19.1809 61.1669 18.4836C61.9856 18.1921 62.9315 18.0433 63.7099 17.8262V17.8355ZM63.6231 17.9254C62.8757 18.3007 62.2926 18.7814 61.6228 19.1659L61.8554 18.8806C61.5731 21.0515 59.7341 22.9464 57.5415 23.1945C56.4245 23.248 55.3153 23.409 54.2293 23.6752L54.3905 22.7976C54.6067 23.0233 54.7792 23.2873 54.8991 23.576C55.1737 24.3374 55.2898 25.1468 55.2403 25.9547L54.8495 25.7407C55.4202 25.4306 56.0466 24.9561 56.1986 24.2955C56.2154 24.2066 56.2458 24.1209 56.2885 24.0412C56.8313 23.3124 57.6872 23.0426 58.4594 22.6828C59.0133 22.4488 59.5933 22.2822 60.1869 22.1866C60.1869 22.1866 60.1372 22.1866 60.131 22.2021C60.2799 21.9664 60.376 21.6098 60.6024 21.2717C60.7681 21.0191 60.9886 20.8071 61.2475 20.6515C61.3871 20.5305 61.294 20.2359 61.3343 20.0312C61.3421 19.9029 61.3794 19.7782 61.4434 19.6668C61.5075 19.5555 61.5964 19.4604 61.7034 19.3892C61.8311 19.327 61.9685 19.2871 62.1097 19.2714C62.5966 19.2156 63.0401 18.5736 63.3688 18.1859C63.4184 18.1208 63.5456 17.9533 63.5952 17.8758C63.5952 17.8603 63.5952 17.9223 63.6231 17.9254V17.9254Z" fill="#F43B00"/>
</g>
<path d="M64.4963 19.6414C64.4963 19.6414 65.2065 20.0601 64.6141 20.423C64.1303 20.7331 62.7532 20.7859 62.046 20.2865C61.3388 19.7872 63.0137 19.018 64.4963 19.6414Z" fill="black" stroke="#F43B00" stroke-width="0.31013" stroke-miterlimit="10" stroke-linecap="round"/>
<path d="M63.6674 19.5391C63.6674 19.5391 63.2424 19.9175 63.6674 20.6494Z" fill="#F43B00"/>
<path d="M63.6674 19.5391C63.6674 19.5391 63.2424 19.9175 63.6674 20.6494" stroke="#F43B00" stroke-width="0.31013" stroke-miterlimit="10" stroke-linecap="round"/>
<path d="M113.841 7.94984C115.804 5.97121 118.958 4.65316 121.681 5.81305C122.544 6.2244 123.329 6.78032 124.004 7.45674C124.684 8.04471 125.396 8.59349 126.138 9.10042C127.608 10.0804 129.239 10.9922 131.007 11.1845C131.448 11.2395 131.896 11.2035 132.323 11.0786C132.749 10.9538 133.146 10.7429 133.488 10.4588C133.492 10.4542 133.497 10.4505 133.503 10.4479C133.508 10.4454 133.514 10.4441 133.521 10.4441C133.527 10.4441 133.533 10.4454 133.538 10.4479C133.544 10.4505 133.549 10.4542 133.553 10.4588C133.562 10.4675 133.566 10.4792 133.566 10.4914C133.566 10.5035 133.562 10.5152 133.553 10.5239C133.217 10.8504 132.816 11.1031 132.377 11.2659C131.937 11.4288 131.469 11.4982 131.001 11.4698C128.188 11.3148 125.729 9.66796 123.542 8.03358C120.639 5.35405 117.101 6.22862 113.906 8.03358C113.866 8.06459 113.807 7.99946 113.847 7.96225L113.841 7.94984Z" fill="#F43B00"/>
<path d="M112.222 37.8605C112.297 41.8052 112.337 45.8379 111.937 49.7397C111.55 45.8207 111.571 41.812 111.654 37.8608L111.654 37.8592C111.667 36.6148 111.735 35.37 111.802 34.1212C111.814 33.9021 111.826 33.6828 111.838 33.4635C111.879 32.6719 111.918 31.8789 111.938 31.0851C111.958 31.8789 111.996 32.6719 112.038 33.4635C112.05 33.6828 112.062 33.9021 112.073 34.1212C112.141 35.37 112.209 36.6148 112.222 37.8592L112.222 37.8605ZM111.936 28.9084C111.908 28.2705 111.874 27.6337 111.84 26.9977C111.719 24.7457 111.599 22.5031 111.731 20.2544L111.732 20.2515C111.777 19.1154 111.834 17.9817 111.938 16.8477C112.17 19.4392 112.248 22.0425 112.169 24.6438C112.145 25.2811 112.102 25.9184 112.06 26.5586C112.053 26.6522 112.047 26.7459 112.041 26.8397C111.996 27.5267 111.953 28.2168 111.936 28.9084ZM111.499 37.8576L111.499 37.8576L111.499 37.8576Z" stroke="#F43B00" stroke-width="0.31013"/>
<path d="M83.3239 51.6596C83.3239 51.6596 82.7253 53.8307 83.7519 53.8307C84.9429 53.8152 84.9274 48.865 83.3239 51.6596Z" fill="#F43B00" stroke="#F43B00" stroke-width="0.93039" stroke-miterlimit="10" stroke-linecap="round"/>
<path d="M83.8729 50.8775C83.8729 50.8775 105.315 51.5536 109.849 51.5536C114.383 51.5536 133.252 49.6556 137.063 49.6556C138.856 49.6203 140.642 49.8737 142.354 50.4061C142.527 50.4542 142.688 50.54 142.824 50.6574C142.96 50.7749 143.069 50.921 143.142 51.0853C143.264 51.4186 143.279 51.7818 143.185 52.1242C143.089 52.4995 142.584 52.7445 142.087 52.6452C140.332 52.3103 135.724 51.6931 129.431 52.8158C121.315 54.261 88.1837 53.9788 83.752 53.8144" fill="#F43B00"/>
<path d="M83.8729 50.8775C83.8729 50.8775 105.315 51.5536 109.849 51.5536C114.383 51.5536 133.252 49.6556 137.063 49.6556C138.856 49.6203 140.642 49.8737 142.354 50.4061C142.527 50.4542 142.688 50.54 142.824 50.6574C142.96 50.7749 143.069 50.921 143.142 51.0853C143.264 51.4186 143.279 51.7818 143.185 52.1242C143.089 52.4995 142.584 52.7445 142.087 52.6452C140.332 52.3103 135.724 51.6931 129.431 52.8158C121.315 54.261 88.1837 53.9788 83.752 53.8144" stroke="#F43B00" stroke-width="0.93039" stroke-miterlimit="10" stroke-linecap="round"/>
<path d="M76.9689 64.0727C76.9689 64.0727 94.5719 95.25 95.1611 104.855C95.7504 114.459 88.5988 148.654 88.5988 148.654H73.8831C73.8831 148.654 81.9651 113.898 81.5278 106.688C81.0905 99.4771 69.9228 79.4985 69.9228 79.4985C69.9228 79.4985 64.0303 124.449 69.9228 148.658H56.0258C56.0258 148.658 48.5827 104.048 59.4 63.3066L76.9689 64.0727Z" fill="#F43B00"/>
<path d="M95.2913 53.9819C93.3705 58.0606 91.2114 62.0226 88.8251 65.8475C86.3161 69.5908 83.863 73.3558 81.8162 77.3875L81.23 77.0432C82.2689 75.046 83.3296 73.058 84.4492 71.1042C86.6201 67.1656 88.9305 63.2952 91.3899 59.5209C92.6118 57.626 93.8709 55.7559 95.1859 53.9199L95.2913 53.9819V53.9819ZM95.2913 53.9819C91.8799 61.1149 87.8885 67.9037 83.6645 74.5622C83.0443 75.5112 82.424 76.4447 81.8037 77.3875L81.2207 77.0432C82.4612 75.1607 83.6676 73.2596 84.7686 71.2965C86.4216 68.3534 87.8234 65.2645 89.6128 62.3958C90.0439 61.6763 90.934 60.2249 91.3868 59.524C92.5963 57.6229 93.8275 55.7373 95.1766 53.9199L95.282 53.9819H95.2913Z" fill="#F43B00"/>
<path d="M107.933 77.2451C106.52 75.5343 105.316 73.6601 104.348 71.6628C103.886 70.6549 103.529 69.588 103.033 68.6018C102.053 66.6108 100.608 64.8803 99.5071 62.9699C97.7333 60.1501 96.2831 57.1394 95.1839 53.9947C95.1797 53.9787 95.1814 53.9616 95.1888 53.9468C95.1963 53.9319 95.2088 53.9203 95.2242 53.9141C96.7159 55.5609 97.8603 57.5705 99.0078 59.4623C99.5567 60.4206 100.044 61.4161 100.534 62.4054C101.56 64.3685 102.233 66.5115 103.384 68.4095C103.948 69.3585 104.652 70.2331 105.245 71.1635C105.829 72.1036 106.352 73.0805 106.811 74.088C107.288 75.0927 107.697 76.1289 108.033 77.1893C108.039 77.2035 108.039 77.2195 108.034 77.2341C108.029 77.2487 108.019 77.2608 108.005 77.2682C107.992 77.2756 107.976 77.2776 107.961 77.2739C107.946 77.2702 107.933 77.2611 107.924 77.2482L107.933 77.2451Z" fill="#F43B00"/>
<path d="M129.196 53.1136C127.366 57.3239 125.295 61.4255 122.994 65.3979C120.562 69.2962 118.168 73.21 116.22 77.3782L115.625 77.0525C116.624 74.984 117.641 72.9278 118.726 70.9027C120.832 66.8245 123.043 62.8083 125.425 58.882C126.61 56.9158 127.828 54.9682 129.109 53.0547L129.218 53.1136H129.196ZM129.196 53.1136C125.946 60.4699 122.085 67.5223 117.997 74.4382C117.414 75.4275 116.803 76.3982 116.205 77.3782L115.609 77.0525C116.806 75.0925 117.979 73.1201 119.039 71.0856C120.63 68.0371 121.967 64.8489 123.691 61.8686C124.107 61.1212 124.969 59.6232 125.403 58.8851C126.576 56.9127 127.77 54.9527 129.081 53.0547L129.19 53.1136H129.196Z" fill="#F43B00"/>
<path d="M142.316 77.2442C140.861 75.4564 139.617 73.5062 138.61 71.4324C138.13 70.3873 137.751 69.2863 137.233 68.2629C136.216 66.2005 134.73 64.408 133.586 62.4138C131.753 59.4851 130.244 56.3654 129.086 53.1099C129.083 53.1022 129.082 53.094 129.082 53.0857C129.082 53.0774 129.084 53.0693 129.088 53.0618C129.091 53.0543 129.096 53.0475 129.102 53.0419C129.108 53.0364 129.116 53.0321 129.123 53.0293C130.658 54.7474 131.84 56.8315 133.028 58.7946C133.595 59.7901 134.104 60.8198 134.616 61.8494C135.679 63.8838 136.393 66.0982 137.584 68.0675C138.17 69.0537 138.896 69.9655 139.516 70.93C140.122 71.9053 140.665 72.9184 141.141 73.9631C141.641 75.0058 142.07 76.0813 142.425 77.1822C142.431 77.1964 142.431 77.2124 142.426 77.227C142.421 77.2416 142.411 77.2537 142.397 77.2611C142.384 77.2685 142.368 77.2705 142.353 77.2668C142.338 77.2631 142.325 77.254 142.316 77.2411V77.2442Z" fill="#F43B00"/>
<path d="M99.9187 74.9983C101.804 74.895 103.695 75.0179 105.551 75.3642C106.403 75.5565 107.312 75.7457 108.032 76.2946C108.265 76.4496 108.43 76.6868 108.496 76.9588C108.561 77.2308 108.522 77.5175 108.385 77.7615C107.399 79.0796 104.738 79.1943 103.231 79.3587C98.8549 79.5603 93.5827 80.1961 89.2099 79.9262C87.5104 79.8053 80.5262 79.458 80.948 76.9893C81.528 74.9797 87.6468 74.9611 89.4425 75.0107C89.4589 75.0107 89.4747 75.0172 89.4863 75.0289C89.498 75.0405 89.5045 75.0563 89.5045 75.0727C89.5045 75.0892 89.498 75.1049 89.4863 75.1166C89.4747 75.1282 89.4589 75.1347 89.4425 75.1347C87.1816 75.603 84.896 75.9194 82.7995 76.8001C82.6194 76.8802 82.447 76.9768 82.2847 77.0886C82.218 77.1333 82.1594 77.1889 82.111 77.2529C82.142 77.1196 82.0738 77.1289 82.2102 77.2312C82.7383 77.5334 83.3108 77.7501 83.9066 77.8732C85.6824 78.2839 87.4828 78.5792 89.2967 78.7571C92.9748 79.0889 96.6933 79.5231 100.384 79.1292C102.212 78.9222 104.016 78.5347 105.768 77.9724C106.341 77.7801 107.055 77.5445 107.424 77.1878C107.424 77.2188 107.424 77.2684 107.424 77.2498C107.339 77.144 107.233 77.0565 107.114 76.9924C104.871 75.9039 102.338 75.6837 99.8845 75.1316C99.8681 75.1316 99.8523 75.1251 99.8407 75.1135C99.8291 75.1018 99.8225 75.0861 99.8225 75.0696C99.8225 75.0532 99.8291 75.0374 99.8407 75.0258C99.8523 75.0141 99.8681 75.0076 99.8845 75.0076L99.9187 74.9983Z" fill="#F43B00"/>
<path d="M81.5821 77.1907C83.0738 79.1259 85.3502 80.2083 87.5707 81.0828C91.3884 82.8692 94.4494 82.4815 98.4625 81.9047C101.93 81.2255 105.751 80.1773 107.937 77.1876C107.968 77.1287 108.067 77.1876 108.049 77.2372C107.698 78.5088 106.808 79.5446 105.822 80.3974C103.288 82.5156 99.8984 83.1359 96.6947 83.1483C94.7905 83.0801 92.9173 82.7823 91.0255 82.618C89.785 82.4598 88.4608 82.4071 87.2389 82.0628C85.9781 81.7268 84.7978 81.1404 83.7685 80.3385C82.7575 79.5291 81.8178 78.5119 81.4673 77.2372C81.465 77.2295 81.4643 77.2213 81.4653 77.2133C81.4662 77.2053 81.4688 77.1976 81.4729 77.1906C81.4769 77.1836 81.4824 77.1775 81.4889 77.1727C81.4954 77.168 81.5029 77.1646 81.5108 77.1628C81.5241 77.1588 81.5383 77.1594 81.5512 77.1644C81.5642 77.1695 81.575 77.1787 81.5821 77.1907V77.1907Z" fill="#F43B00"/>
<path d="M115.965 77.1907C117.457 79.1259 119.733 80.2052 121.954 81.0828C125.771 82.8692 128.832 82.4815 132.845 81.9047C136.313 81.2255 140.133 80.1773 142.32 77.1876C142.351 77.1287 142.453 77.1876 142.431 77.2372C142.081 78.5088 141.191 79.5446 140.205 80.3974C137.671 82.5156 134.284 83.1359 131.078 83.1483C129.173 83.0801 127.3 82.7823 125.408 82.618C124.168 82.4598 122.844 82.4071 121.622 82.0628C120.361 81.7268 119.181 81.1404 118.151 80.3385C117.14 79.5291 116.201 78.5119 115.85 77.2372C115.848 77.2295 115.847 77.2213 115.848 77.2133C115.849 77.2053 115.852 77.1976 115.856 77.1906C115.86 77.1836 115.865 77.1775 115.872 77.1727C115.878 77.168 115.886 77.1646 115.894 77.1628C115.907 77.1588 115.921 77.1594 115.934 77.1644C115.947 77.1695 115.958 77.1787 115.965 77.1907V77.1907Z" fill="#F43B00"/>
<path d="M93.046 78.1975C88.8252 77.3602 89.0981 71.9019 89.8889 68.6331C90.2833 67.0543 90.9805 65.5671 91.942 64.2541L92.2149 65.2372C92.4568 66.1118 92.6801 66.9956 92.9127 67.8733H92.2924C93.167 65.5225 94.2214 62.3561 95.2294 60.0859L95.4806 60.5387C97.1398 63.7331 98.892 67.008 99.1091 70.6831L97.8996 70.5373C98.2624 68.8533 98.8765 66.3164 99.3107 64.6262L99.8565 67.6469C100.319 70.6242 100.734 73.8495 99.5929 76.7244C98.4206 79.1682 95.2107 78.6968 93.046 78.1882V78.1975ZM93.0677 78.0766C94.8138 78.458 97.1677 78.6534 98.4392 77.1896C98.7696 76.699 98.9594 76.1274 98.9881 75.5366C99.1233 74.2734 99.1357 73 99.0253 71.7344C98.9292 70.4598 98.771 69.1572 98.557 67.9012L99.8472 67.9353C99.7324 68.4222 99.6022 68.906 99.475 69.3867L97.8158 75.6669L97.881 70.7048C97.881 69.0394 97.3599 67.3275 96.873 65.7148C96.3577 64.0367 95.7446 62.3902 95.0371 60.7837H95.4806C94.3371 63.105 93.4761 65.5549 92.9158 68.0811L92.677 69.0766L92.2955 68.0904C91.9668 67.2406 91.6287 66.3971 91.3093 65.5473L92.1653 65.6528C91.1294 67.7461 90.6146 70.1 90.2828 72.4167C89.8889 74.7644 90.3138 77.568 93.0739 78.089L93.0677 78.0766Z" fill="#F43B00"/>
<path d="M130.827 78.0751C133.584 77.551 134.009 74.7536 133.618 72.4028C133.289 70.0861 132.771 67.7323 131.735 65.6389L132.588 65.5303C132.278 66.3801 131.931 67.2236 131.602 68.0734L131.218 69.0627L130.979 68.0672C130.418 65.541 129.557 63.0911 128.414 60.7698H128.857C128.15 62.3763 127.537 64.0228 127.022 65.7009C126.535 67.3136 126.02 69.0255 126.014 70.6909L126.079 75.653L124.42 69.3728C124.292 68.8921 124.162 68.4083 124.047 67.9214L125.337 67.8873C125.123 69.1433 124.965 70.4459 124.869 71.7205C124.759 72.9862 124.771 74.2595 124.906 75.5227C124.935 76.1135 125.125 76.6851 125.455 77.1757C126.73 78.6395 129.081 78.4441 130.827 78.0627V78.0751ZM130.849 78.196C128.678 78.7078 125.471 79.176 124.302 76.7322C123.16 73.8604 123.579 70.632 124.038 67.6547L124.584 64.6341C125.021 66.3336 125.632 68.8518 125.995 70.5451L124.785 70.6909C125.015 67.0159 126.755 63.7409 128.414 60.5434L128.665 60.0938C129.67 62.3515 130.734 65.5365 131.602 67.8811H130.982C131.214 67.0034 131.438 66.1196 131.68 65.245L131.953 64.2619C132.914 65.5749 133.611 67.0621 134.006 68.6409C134.796 71.9066 135.069 77.3711 130.849 78.2053V78.196Z" fill="#F43B00"/>
<path d="M134.294 74.9068C136.179 74.8 138.07 74.9207 139.926 75.2665C140.778 75.4557 141.687 75.648 142.407 76.1969C142.64 76.3519 142.805 76.5891 142.871 76.8611C142.936 77.1331 142.897 77.4198 142.76 77.6638C141.774 78.9819 139.116 79.0966 137.606 79.261C133.23 79.4626 127.958 80.1015 123.585 79.8316C121.885 79.7076 114.901 79.3602 115.323 76.8916C115.903 74.882 122.022 74.8634 123.817 74.913C123.834 74.913 123.85 74.9195 123.861 74.9311C123.873 74.9428 123.879 74.9586 123.879 74.975C123.879 74.9915 123.873 75.0072 123.861 75.0189C123.85 75.0305 123.834 75.037 123.817 75.037C121.557 75.5053 119.271 75.8248 117.174 76.7055C116.994 76.7846 116.822 76.8801 116.66 76.9909C116.595 77.0376 116.536 77.0928 116.486 77.1552C116.517 77.0219 116.449 77.0343 116.585 77.1335C117.113 77.437 117.685 77.6538 118.282 77.7755C120.063 78.1932 121.87 78.4947 123.69 78.678C127.368 79.0098 131.087 79.444 134.777 79.0501C136.606 78.8419 138.409 78.4534 140.161 77.8902C140.735 77.698 141.448 77.4623 141.817 77.1087C141.817 77.1366 141.817 77.1862 141.817 77.1676C141.732 77.0631 141.627 76.9767 141.507 76.9133C139.265 75.8248 136.731 75.6046 134.278 75.0525C134.207 75.0525 134.219 74.9316 134.278 74.9285L134.294 74.9068Z" fill="#F43B00"/>
<path d="M56.2369 64.6621C56.2369 64.6621 59.7538 65.1893 61.1587 66.3647C62.5636 67.5401 61.8565 71.0632 59.9182 71.1686C57.9799 71.2741 55.4306 70.7189 54.7886 70.0274C54.1467 69.3358 58.4016 70.1328 58.4016 70.1328L55.2073 67.2889C55.6724 66.4661 56.019 65.5818 56.2369 64.6621V64.6621Z" fill="black"/>
<path d="M56.21 64.6243C56.4375 64.614 56.6654 64.6191 56.8923 64.6398C58.4274 64.7856 59.9936 65.0554 61.2961 65.9548C61.4539 66.0685 61.5976 66.2008 61.7241 66.3486C62.8592 67.8373 62.0931 70.6656 60.2913 71.2518L59.947 71.3076L59.6369 71.3262C58.326 71.3877 57.0131 71.2603 55.7386 70.9479C55.288 70.8379 54.8689 70.6256 54.5136 70.3276C54.4538 70.2749 54.4065 70.2096 54.3748 70.1365C54.3431 70.0634 54.3279 69.9843 54.3303 69.9047C54.3327 69.825 54.3526 69.7469 54.3885 69.6758C54.4245 69.6047 54.4756 69.5424 54.5384 69.4933C54.7548 69.3682 55.0018 69.3059 55.2517 69.3135C56.3496 69.3214 57.4442 69.4346 58.5204 69.6515L58.0987 70.5137C57.6366 70.0795 56.9791 69.4902 56.548 69.0499C55.965 68.4916 55.3912 67.9148 54.8268 67.3348C55.4031 66.4939 55.8768 65.587 56.2379 64.6336L56.21 64.6243ZM56.2658 64.6987C56.1881 65.6571 55.9281 66.5918 55.4998 67.4527L55.4346 67.0464C57.0101 68.2466 58.6476 69.6794 60.161 70.9696C58.5266 70.6967 56.6597 70.2066 55.0129 70.1942C54.9632 70.1942 55.0129 70.1942 55.0315 70.1694C55.0501 70.1446 55.0873 70.126 55.1028 70.0919C55.1346 70.0395 55.1513 69.9795 55.1513 69.9182C55.1513 69.857 55.1346 69.7969 55.1028 69.7446C55.9774 70.461 57.2365 70.7215 58.353 70.9386C58.8718 71.0201 59.3975 71.0492 59.9222 71.0254C60.2133 71.0014 60.4912 70.8937 60.7224 70.7153C61.7892 69.7849 61.845 67.4992 60.7906 66.6153C60.1207 66.1563 59.39 65.7931 58.6197 65.5361C57.9002 65.2663 57.1031 65.0089 56.365 64.767L56.2503 64.7298C56.2529 64.7228 56.2529 64.715 56.2503 64.708L56.2658 64.6987Z" fill="#F43B00"/>
<path d="M55.1097 68.067C55.4566 68.0517 55.7987 68.1359 56.0967 68.3067C55.98 68.323 55.8645 68.3351 55.7511 68.3462C55.7236 68.3489 55.696 68.3515 55.6685 68.3542C55.4953 68.3707 55.3249 68.387 55.1726 68.4152C55.1571 68.4159 55.1422 68.4174 55.128 68.4195C55.124 68.417 55.1198 68.4147 55.1156 68.4126L55.1107 68.4224C55.0829 68.4275 55.059 68.4344 55.0414 68.44C55.0278 68.4443 55.0152 68.4489 55.0085 68.4513C55.0071 68.4518 55.006 68.4522 55.0051 68.4525C55.0035 68.4531 55.0028 68.4533 55.0029 68.4533C55.0029 68.4532 55.0073 68.4518 55.0128 68.4505C55.0155 68.4498 55.0212 68.4486 55.0287 68.4477C55.034 68.447 55.0519 68.4449 55.0746 68.4491C55.0791 68.45 55.0862 68.4515 55.0947 68.4544L55.0758 68.4922L54.9089 68.5316C54.9112 68.5251 54.9133 68.5211 54.9137 68.5204L54.9137 68.5203C54.9139 68.5199 54.914 68.5196 54.914 68.5196C54.914 68.5196 54.9139 68.5198 54.9137 68.5203L54.9121 68.5231L54.912 68.5232C54.9115 68.5241 54.9096 68.5275 54.9075 68.5316C54.9075 68.5317 54.9074 68.5319 54.9073 68.532L54.8912 68.5358V68.5513V68.5943C54.8909 68.599 54.8909 68.6039 54.8912 68.609V68.6472L54.8993 68.6512C54.9004 68.6544 54.9016 68.6576 54.9029 68.6609C54.9228 68.7088 54.9582 68.7325 54.9856 68.7441C55.0666 68.8732 55.1647 68.9898 55.2766 69.0911C55.242 69.0808 55.2072 69.071 55.1722 69.0619L55.1722 69.0617L55.165 69.0602C54.7829 68.9797 54.6013 68.7319 54.5876 68.5296C54.5808 68.4289 54.6131 68.3306 54.691 68.2495C54.7692 68.1681 54.9022 68.0952 55.1097 68.067ZM56.3959 69.7028C56.2969 69.6178 56.1929 69.5394 56.0845 69.468C56.2188 69.4894 56.354 69.5049 56.4898 69.5146C56.7945 69.5878 57.0805 69.721 57.3316 69.9053C57.0089 69.9192 56.6865 69.8502 56.3959 69.7028Z" fill="#F43B00" stroke="#F43B00" stroke-width="0.31013"/>
<path d="M94.3558 77.2157C94.3558 77.2157 91.9771 76.0496 92.9819 73.9438C93.9868 71.838 95.1932 69.5586 95.1932 69.5586C95.1932 69.5586 96.9206 73.9004 96.9206 75.0603C96.9206 76.2202 96.4647 77.0979 94.3558 77.2157Z" fill="#F43B00"/>
<path d="M128.932 77.2376C128.932 77.2376 126.429 76.3724 127.173 74.158C127.918 71.9437 128.833 69.5371 128.833 69.5371C128.833 69.5371 131.075 73.6215 131.218 74.7876C131.36 75.9537 131.01 76.8655 128.932 77.2376Z" fill="#F43B00"/>
<path d="M127.341 71.6565C127.341 71.6565 126.674 69.7955 127.341 68.3223C127.653 68.8223 127.819 69.3999 127.819 69.9894C127.819 70.5788 127.653 71.1565 127.341 71.6565Z" fill="#F43B00"/>
<path d="M95.24 68.1318C94.8298 67.3465 94.6615 66.4572 94.7562 65.5763C94.8895 64.0257 95.426 63.2969 95.426 63.2969C95.426 63.2969 96.1424 65.5918 96.0463 66.6649C96.0386 66.956 95.9613 67.241 95.8211 67.4961C95.6808 67.7513 95.4816 67.9693 95.24 68.1318Z" fill="#F43B00"/>
<path d="M92.7855 75.3066C92.4812 74.8426 92.3566 74.2835 92.435 73.7341C92.4956 73.0996 92.6503 72.4776 92.8941 71.8887C92.8941 71.8887 93.6695 73.8737 92.7855 75.3066Z" fill="#F43B00"/>
<path opacity="0.2" d="M60.9355 43.5758C60.9355 43.5758 61.9869 47.2974 63.4786 47.2974C64.9703 47.2974 66.89 46.2647 67.6809 47.2974C68.4717 48.3301 69.7184 48.5379 70.8566 47.6075C71.9948 46.6771 71.787 45.2133 73.4989 44.7574C75.2108 44.3015 73.4989 40.1055 73.4989 40.1055C73.4989 40.1055 74.4882 44.2519 70.8566 44.7171C67.225 45.1823 66.2295 42.6454 66.2295 42.6454C66.2295 42.6454 66.4093 44.9125 64.2446 45.5669C62.0799 46.2212 60.9355 43.5758 60.9355 43.5758Z" fill="#F43B00"/>
<path opacity="0.2" d="M71.2193 162.154C89.4613 161.75 104.189 158.702 104.115 155.348C104.04 151.993 89.1919 149.602 70.95 150.006C52.708 150.41 37.9802 153.458 38.0546 156.812C38.1289 160.167 52.9773 162.558 71.2193 162.154Z" fill="#F43B00"/>
<path d="M45.6687 148.407C43.5815 148.748 41.4509 148.969 39.4661 149.648C39.2158 149.72 38.9883 149.856 38.8055 150.042C38.8055 150.082 38.8055 150.042 38.8055 150.079C39.342 150.575 40.2259 150.73 40.9268 150.932C42.581 151.261 44.2552 151.481 45.9385 151.589C57.8288 152.312 69.7906 151.825 81.6871 152.799C85.0951 153.025 88.4892 153.426 91.8563 153.999C93.125 154.218 94.3776 154.521 95.6058 154.908C96.1113 155.119 96.7905 155.236 97.0851 155.798C97.2867 156.604 95.581 156.812 95.0569 156.951C87.468 158.149 79.7581 158.341 72.1289 159.098C70.4387 159.253 68.7454 159.408 67.0893 159.684C66.3012 159.781 65.527 159.97 64.782 160.245C64.7429 160.263 64.7064 160.286 64.6734 160.313C64.7006 160.282 64.7197 160.245 64.7292 160.205C64.7536 160.13 64.7536 160.05 64.7292 159.975C64.6827 159.891 64.7106 159.944 64.7572 159.975C65.1676 160.202 65.6053 160.375 66.0597 160.49C70.9101 161.817 76.0521 162.165 81.0886 162.31C87.8959 162.49 94.6847 162.05 101.495 161.87C102.589 161.826 103.684 161.858 104.773 161.966C105.078 161.999 105.375 162.082 105.651 162.214C105.793 162.303 105.902 162.436 105.961 162.593C105.992 162.691 106.001 162.795 105.986 162.897C105.971 162.999 105.932 163.097 105.874 163.182C105.621 163.468 105.302 163.687 104.944 163.821C104.135 164.155 103.307 164.438 102.463 164.667C98.3442 165.815 94.1637 166.696 89.9738 167.527C88.2991 167.859 86.6244 168.178 84.9435 168.457C84.9282 168.459 84.9128 168.455 84.9004 168.446C84.8879 168.437 84.8793 168.423 84.8762 168.408C84.8731 168.393 84.8758 168.377 84.8836 168.364C84.8915 168.351 84.904 168.341 84.9187 168.336C90.4421 166.956 96.7936 165.505 102.199 163.79C103.176 163.436 104.23 163.17 105.062 162.611C105.04 162.638 105.026 162.67 105.021 162.704C105.004 162.768 105.006 162.835 105.026 162.898C105.047 162.961 105.085 163.016 105.136 163.058C103.967 162.779 102.736 162.921 101.52 162.937C99.8297 163.005 98.1302 163.117 96.4276 163.219C89.6048 163.625 82.7416 163.911 75.9094 163.34C73.8005 163.173 64.5339 162.143 63.6748 160.422C63.1631 158.933 66.0287 158.775 66.9312 158.592C73.7323 157.761 80.5769 157.761 87.3997 157.317C89.9457 157.208 92.4835 156.956 95.001 156.561C95.5748 156.43 96.2415 156.34 96.7036 155.999C96.7564 155.94 96.7564 155.931 96.7471 155.906C96.4803 155.556 95.9469 155.422 95.5065 155.252C94.2929 154.881 93.0558 154.592 91.8036 154.387C85.0831 153.32 78.2323 153.382 71.4405 153.286C62.9863 153.152 54.2934 153.211 45.864 152.414C44.1469 152.259 42.4437 151.976 40.7686 151.568C39.9988 151.391 39.2647 151.085 38.5977 150.662L38.4488 150.526C38.3223 150.396 38.2493 150.223 38.2441 150.042C38.2621 149.92 38.3088 149.804 38.3806 149.703C38.4523 149.603 38.5469 149.521 38.6566 149.465C39.2575 149.169 39.9011 148.969 40.5639 148.873C42.2466 148.586 43.9433 148.389 45.6469 148.283C45.6551 148.283 45.6632 148.284 45.6709 148.287C45.6786 148.29 45.6857 148.294 45.6917 148.299C45.6978 148.305 45.7027 148.311 45.7062 148.319C45.7097 148.326 45.7117 148.334 45.7121 148.342C45.713 148.358 45.7081 148.373 45.6984 148.385C45.6886 148.397 45.6747 148.405 45.6593 148.407H45.6687Z" fill="#F43B00"/>
<path d="M105.043 10.7344C105.043 10.7344 105.192 12.7318 106.743 13.8608" stroke="#F43B00" stroke-width="0.62026" stroke-miterlimit="10"/>
<path opacity="0.2" d="M70.2928 71.8887C70.2928 71.8887 67.7715 82.2377 66.8008 104.846C65.8301 127.455 66.4906 135.298 68.5468 147.024H58.8242C58.8242 147.024 61.3053 146.329 61.8976 144.388C62.49 142.446 61.7115 141.057 61.8976 139.531C62.0837 138.005 65.0888 135.924 64.5585 134.259C64.0282 132.594 64.8128 132.038 64.5585 129.681C64.3042 127.324 62.6388 124.13 62.9179 121.078C63.1971 118.027 64.2546 115.391 64.5647 113.031C64.8749 110.67 63.3242 110.674 63.6157 108.313C63.9073 105.953 65.1416 105.817 65.1416 101.801C65.1416 97.7845 64.8656 98.1939 65.2811 95.9765C65.6967 93.759 65.2811 88.0681 65.5571 86.5423C65.8332 85.0165 67.2225 83.6426 66.5309 79.9614C65.8394 76.2801 70.2928 71.8887 70.2928 71.8887Z" fill="black"/>
<path opacity="0.2" d="M76.0703 65.7207C76.0703 65.7207 86.4845 83.7827 90.8325 95.3784C95.1805 106.974 94.5541 105.303 93.2143 116.157C91.8745 127.012 87.8925 147.347 87.8925 147.347H78.7157C78.7157 147.347 80.0369 147.272 80.9176 145.362C81.7984 143.452 82.9211 142.059 83.7925 141.544C84.664 141.03 83.8546 140.738 84.4438 139.417C85.0331 138.096 86.5713 138.462 86.0565 135.671C85.5417 132.879 87.0117 133.909 87.6723 128.77C88.3328 123.631 90.6092 124.658 90.6836 120.989C90.7581 117.32 90.389 115.996 91.5644 112.615C92.7398 109.235 92.5909 109.238 92.5196 107.402C92.4483 105.566 91.6388 105.054 91.5644 102.998C91.49 100.942 89.3625 96.5383 87.3808 94.262C85.399 91.9856 85.613 89.4891 85.1385 87.0669C84.664 84.6448 83.4142 85.3054 83.4142 83.8354C83.4142 82.3654 76.0703 65.7207 76.0703 65.7207Z" fill="black"/>
<path opacity="0.2" d="M95.1928 79.734C95.1928 79.734 95.7789 80.7357 95.1928 81.1885C94.6066 81.6413 91.4371 81.052 91.1797 82.429C91.1797 82.429 103.151 84.2246 106.968 78.4531C106.968 78.4624 98.3313 79.9635 95.1928 79.734Z" fill="#F43B00"/>
<path opacity="0.2" d="M129.298 79.734C129.298 79.734 129.884 80.7357 129.298 81.1885C128.712 81.6413 125.543 81.052 125.285 82.429C125.285 82.429 137.256 84.2246 141.074 78.4531C141.074 78.4624 132.437 79.9635 129.298 79.734Z" fill="#F43B00"/>
<path d="M78.2955 149.458C78.3226 149.344 78.3481 149.242 78.3707 149.155L83.5143 149.163L83.5349 149.171C83.6042 149.197 83.7062 149.236 83.8376 149.285C84.1002 149.383 84.4802 149.525 84.9499 149.698C85.8891 150.044 87.1873 150.518 88.6233 151.026C91.4882 152.039 94.9255 153.199 97.149 153.754C98.219 154.021 98.9021 154.319 99.312 154.595C99.7265 154.875 99.7993 155.086 99.8072 155.175C99.8145 155.256 99.7793 155.379 99.6071 155.52C99.4357 155.66 99.1775 155.771 98.8987 155.806C98.2183 155.891 93.2365 156.031 88.2624 155.897C85.7819 155.831 83.3267 155.696 81.4306 155.456C80.4804 155.335 79.6889 155.191 79.1108 155.021C78.8212 154.936 78.6021 154.849 78.4491 154.766C78.3735 154.725 78.3218 154.688 78.2884 154.659C78.2584 154.633 78.2494 154.619 78.2491 154.618C78.0289 154.211 77.9125 153.658 77.8804 153.019C77.8486 152.385 77.9013 151.706 77.9889 151.074C78.0762 150.444 78.1966 149.873 78.2955 149.458Z" fill="black" stroke="#F43B00"/>
<path d="M59.7467 149.458C59.7738 149.344 59.7993 149.242 59.8219 149.155L64.9656 149.163L64.9863 149.171C65.0556 149.197 65.1577 149.236 65.2891 149.285C65.5519 149.383 65.9321 149.525 66.4021 149.698C67.3418 150.044 68.6407 150.518 70.0773 151.026C72.9433 152.039 76.3813 153.199 78.6032 153.754C79.6724 154.021 80.3548 154.319 80.7643 154.595C81.1782 154.875 81.2509 155.086 81.2588 155.174C81.266 155.256 81.2306 155.379 81.0583 155.52C80.8869 155.66 80.6286 155.771 80.3498 155.806C79.6695 155.891 74.6876 156.031 69.7135 155.897C67.2331 155.831 64.7779 155.696 62.8818 155.456C61.9315 155.335 61.14 155.191 60.5619 155.021C60.2723 154.936 60.0533 154.849 59.9003 154.766C59.8246 154.725 59.773 154.688 59.7396 154.659C59.7096 154.633 59.7005 154.619 59.7002 154.618C59.4801 154.211 59.3637 153.658 59.3316 153.019C59.2998 152.385 59.3525 151.706 59.4401 151.074C59.5274 150.444 59.6478 149.873 59.7467 149.458Z" fill="black" stroke="#F43B00"/>
</g>
<defs>
<clipPath id="clip0_992_221585">
<rect width="111.092" height="163.91" fill="white" transform="translate(32.623 4.55664)"/>
</clipPath>
</defs>
</svg>
