<svg width="170" height="171" viewBox="0 0 170 171" fill="none" xmlns="http://www.w3.org/2000/svg">
<g clip-path="url(#clip0_992_221581)">
<path opacity="0.2" d="M71.2922 161.785C89.0327 161.392 103.356 158.429 103.283 155.166C103.211 151.904 88.7708 149.578 71.0302 149.971C53.2897 150.365 38.9668 153.328 39.0392 156.591C39.1115 159.853 53.5516 162.179 71.2922 161.785Z" fill="#F43B00"/>
<path d="M80.6952 70.9434L97.5036 73.0546C97.5036 73.0546 108.392 95.3975 110.991 107.968C113.591 120.539 94.8434 148.383 94.8434 148.383H80.4328C80.4328 148.383 95.4617 118.766 96.6138 111.114C97.766 103.462 89.7523 91.3379 89.7523 91.3379C89.7523 91.3379 77.4469 104.156 65.2138 106.575C52.9807 108.994 27.8359 96.4139 27.8359 96.4139L32.4535 86.8651C36.9444 87.0581 57.4294 93.9618 60.1106 93.3013C75.963 89.3865 80.6952 70.9434 80.6952 70.9434Z" fill="#F43B00"/>
<path d="M83.3913 44.6587C80.7945 53.0131 79.6001 62.1155 80.7764 70.7294C80.7706 70.7158 80.7598 70.705 80.7462 70.6992C80.7462 70.6992 80.71 70.6992 80.7613 70.6992L81.1353 70.7414C85.7499 71.2753 92.2283 72.0052 96.8549 72.5511L97.2289 72.5933L97.3978 72.6144C97.335 72.608 97.2719 72.6242 97.2199 72.6601C97.168 72.6961 97.1305 72.7494 97.1143 72.8104V72.7743C98.4987 66.905 100.305 61.0117 103.68 55.9236C103.867 55.6182 104.096 55.3401 104.359 55.0972C104.445 55.0464 104.542 55.0145 104.641 55.0033C104.741 54.9922 104.842 55.0022 104.938 55.0326C105.033 55.0631 105.121 55.1133 105.196 55.18C105.271 55.2467 105.331 55.3285 105.372 55.4199L105.52 55.7698C106.689 58.4409 108.458 60.8065 110.69 62.6826C112.285 63.5512 114.457 63.2858 116.254 63.0686C120.423 62.3658 124.495 61.1785 128.388 59.5308C128.469 59.3438 128.189 59.8475 128.228 59.7781V59.7299L128.243 59.6394L128.273 59.4524L128.336 59.0814C128.557 57.7785 128.84 56.1046 129.06 54.8077V54.7624C129.059 54.7744 129.059 54.7866 129.06 54.7986C129.064 54.833 129.077 54.8655 129.099 54.8921L129.458 55.0097C125.975 55.9146 122.458 56.7138 118.839 56.7771C117.705 56.741 116.393 56.744 115.491 55.9296C115.012 55.3777 114.888 54.678 114.61 54.0265C113.404 50.6787 113.009 47.0323 111.441 43.8323C110.659 42.2096 109.172 41.1842 107.686 40.2583C106.163 39.3393 104.579 38.526 102.944 37.8243C101.135 37.019 99.6267 35.7674 100.049 33.5717C100.168 32.5541 100.406 31.554 100.758 30.5918L100.788 30.5104V30.4712C100.811 30.3921 100.857 30.3215 100.92 30.268C100.982 30.2145 101.059 30.1803 101.141 30.1696C101.229 30.1646 101.317 30.1853 101.393 30.2292C101.47 30.2731 101.532 30.3383 101.572 30.4169C102.092 31.2704 102.777 32.0117 103.587 32.5975C103.898 32.833 104.267 32.9799 104.654 33.0228C104.713 33.0257 104.772 33.0102 104.822 32.9783C104.871 32.9464 104.91 32.8997 104.932 32.8448C105.094 32.2425 105.468 31.7189 105.985 31.37C105.969 31.3807 105.956 31.3946 105.946 31.4107C105.936 31.4268 105.93 31.4448 105.927 31.4635C105.926 31.4862 105.93 31.509 105.938 31.5299C105.947 31.5509 105.961 31.5695 105.978 31.5841C105.454 31.1739 103.698 29.8981 104.344 29.123C104.421 29.0568 104.512 29.0081 104.61 28.9805C104.708 28.9529 104.81 28.947 104.911 28.9632C105.656 29.0205 106.419 29.4759 107.073 29.5362C107.045 29.543 107.02 29.5565 106.998 29.5754C106.977 29.5943 106.96 29.6181 106.95 29.6448C106.93 29.6829 106.924 29.7264 106.932 29.7685C106.748 29.2195 106.536 28.182 107.233 27.7507C107.821 27.431 108.289 27.6482 108.835 27.7929C109.235 27.9287 109.659 27.9821 110.08 27.9498C110.051 27.9789 110.032 28.0171 110.026 28.0584C110.026 28.0946 110.026 28.1006 110.026 28.0915C109.999 28.0452 109.963 28.0043 109.92 27.9709C109.89 27.9436 109.858 27.9184 109.824 27.8955C108.521 27.0842 107.287 25.549 108.014 23.9384C108.495 22.9655 108.854 21.9375 109.085 20.8772L109.1 20.7987C109.1 20.7837 109.1 20.7656 109.1 20.7987C109.094 20.8609 109.108 20.9234 109.14 20.9774C109.171 21.0314 109.218 21.0744 109.275 21.1003C109.346 21.1281 109.424 21.1281 109.495 21.1003H109.477C108.772 21.4049 108.033 21.6246 107.275 21.7548C106.404 21.9448 105.499 21.6734 104.603 21.8272C103.707 21.981 102.794 22.2495 102.19 22.8557C102.109 22.9979 101.982 23.1081 101.829 23.1679C101.677 23.2277 101.508 23.2335 101.352 23.1844C100.556 22.8104 99.4759 22.5812 98.8365 23.3111C98.1217 24.1134 98.0131 25.3982 98.9451 26.0979C99.1663 26.2728 99.4036 26.4264 99.6538 26.5564C99.7726 26.6464 99.8606 26.7709 99.906 26.9129C99.9513 27.0549 99.9517 27.2074 99.9072 27.3496C99.4789 28.6978 99.0265 30.1123 98.4957 31.4273C98.2859 32.016 97.9945 32.5724 97.6301 33.0801C96.7102 34.0724 95.4917 34.8897 94.1043 35.0043C93.1589 35.0598 92.2106 34.9744 91.2903 34.751C89.5139 34.3559 87.8189 33.9065 86.0786 33.6139C82.6343 32.9263 79.1085 33.3907 75.7034 34.1327C72.2531 34.8927 64.351 37.3056 62.4781 40.2522C61.908 41.9955 62.1463 44.0555 62.2699 45.8983C62.5052 48.6127 62.9938 51.3091 63.4764 53.9843C63.4752 54.0793 63.4568 54.1733 63.4221 54.2618C63.0872 55.1724 63.0131 56.1584 63.2079 57.1089C63.3919 58.4209 63.2351 59.7902 63.3979 61.081C63.4029 61.1107 63.4099 61.1399 63.4191 61.1685C63.4191 61.1866 63.4191 61.1957 63.3979 61.1444C63.361 61.1017 63.3159 61.0668 63.2652 61.0418C63.1951 61.0108 63.1185 60.9973 63.042 61.0026C62.9766 61.0095 62.9146 61.0358 62.8641 61.078C63.1325 60.6286 63.2079 59.9802 63.3195 59.4403V59.3679C63.331 59.3112 63.3502 59.2564 63.3768 59.2051C63.4492 59.0592 63.5686 58.942 63.7158 58.8723C63.863 58.8027 64.0294 58.7848 64.1881 58.8214C64.3467 58.858 64.4884 58.947 64.5902 59.0741C64.692 59.2012 64.748 59.3589 64.7491 59.5218C64.7876 60.2827 64.9183 61.0362 65.1382 61.7657C65.1382 61.7657 65.1593 61.7657 65.0809 61.7174C65.0528 61.6993 65.0224 61.6851 64.9904 61.6752C64.9427 61.6551 64.8914 61.6448 64.8396 61.6448C64.7878 61.6448 64.7366 61.6551 64.6888 61.6752C64.664 61.6857 64.6422 61.7023 64.6255 61.7235C64.6499 61.6807 64.6691 61.6351 64.6828 61.5877C64.8154 60.9341 64.857 60.2652 64.8064 59.6002C64.8045 59.569 64.8045 59.5378 64.8064 59.5067C64.8097 59.4523 64.8198 59.3986 64.8366 59.3468C64.8808 59.2122 64.9659 59.0948 65.0799 59.0107C65.194 58.9267 65.3314 58.8803 65.473 58.878C65.6147 58.8757 65.7535 58.9175 65.8703 58.9978C65.987 59.078 66.0759 59.1926 66.1244 59.3257L66.3114 59.9923C66.4502 60.5219 66.637 61.0377 66.8694 61.5335C66.8039 61.4845 66.7249 61.4571 66.6432 61.455C66.6081 61.4516 66.5728 61.4516 66.5376 61.455H66.5105L66.4653 61.4852C66.4381 61.5093 66.4351 61.5214 66.4381 61.5154C66.5028 61.0664 66.4772 60.6091 66.3627 60.1702C66.1832 59.2972 65.9505 58.4361 65.666 57.5915C65.1653 57.7694 66.2692 56.8978 66.3838 57.1602C66.4153 57.1849 66.4428 57.2144 66.4653 57.2477C66.5256 57.3381 66.595 57.4829 66.6462 57.5824C67.1921 58.6471 67.8707 60.0405 68.5433 60.8639C68.4739 60.8639 68.5222 60.8639 68.5162 60.8639H68.5011C68.4678 60.874 68.439 60.8953 68.4197 60.9242C68.4649 60.4447 68.1754 59.8294 67.9944 59.3076C67.6174 58.3726 67.165 57.4527 66.6945 56.557C66.6506 56.4757 66.6308 56.3836 66.6371 56.2914C66.6435 56.1992 66.6759 56.1108 66.7305 56.0362C66.7851 55.9617 66.8597 55.9042 66.9457 55.8704C67.0317 55.8366 67.1255 55.8279 67.2163 55.8452C67.7367 56.002 68.2772 56.0822 68.8208 56.0835C68.8208 56.0835 68.7876 56.0835 68.7454 56.186C68.7372 56.2056 68.733 56.2266 68.733 56.2478C68.733 56.2691 68.7372 56.2901 68.7454 56.3097C67.8406 55.3868 66.4592 54.7504 65.3252 54.1291C65.2638 54.0989 65.211 54.0538 65.1715 53.998C65.132 53.9421 65.1071 53.8773 65.099 53.8094C65.0913 53.7624 65.0913 53.7145 65.099 53.6676V53.5801L65.1231 53.4112L65.2136 52.7326C65.672 49.6864 66.0913 46.5859 67.0534 43.6543C67.7018 42.1131 71.2427 42.4992 72.6421 42.5595C75.8267 42.8576 78.9869 43.3746 82.1004 44.1067L82.767 44.2696C82.951 44.348 83.4275 44.345 83.3521 44.6466L83.3913 44.6587ZM83.2767 44.6225C83.2767 44.5772 83.2767 44.5712 83.2465 44.5441C83.0939 44.4838 82.9366 44.4363 82.776 44.4023C82.1366 44.2485 81.4158 44.0856 80.7734 43.9529C78.1012 43.4462 69.3727 41.6637 67.4847 43.4975C67.4241 43.5749 67.3763 43.6614 67.3429 43.7539C67.0981 44.5088 66.8967 45.2771 66.7397 46.0551C66.2813 48.2689 65.9767 50.5581 65.7052 52.802C65.6751 52.989 65.6208 53.5892 65.5966 53.7762C65.5966 53.749 65.5635 53.7159 65.5665 53.7189L65.7173 53.7943C66.5463 54.1901 67.3519 54.6332 68.1301 55.1213C68.5494 55.4229 69.0199 55.6461 69.2913 56.1106C69.5627 57.0999 67.6928 56.5962 67.2132 56.5148L67.1288 56.4967H67.0956C67.1272 56.5023 67.1598 56.498 67.1889 56.4846C67.218 56.4711 67.2423 56.449 67.2585 56.4213C67.2696 56.3998 67.2754 56.376 67.2754 56.3519C67.2754 56.3277 67.2696 56.304 67.2585 56.2825C67.542 56.7802 67.8104 57.2959 68.0698 57.7905C68.3895 58.5536 70.1056 61.4822 68.5222 61.645C68.455 61.6474 68.3878 61.6393 68.3231 61.6209C68.2108 61.5889 68.1075 61.5311 68.0215 61.452C67.2826 60.692 66.8724 59.7902 66.3537 58.9095C66.1818 58.6079 65.9163 58.0891 65.7505 57.7905L65.7354 57.7664C65.7543 57.7933 65.7766 57.8176 65.8017 57.8388C65.9013 58.0891 67.0082 57.2356 66.5165 57.4165C66.8935 58.445 67.4606 60.0827 67.4213 61.4581C67.4213 61.8773 67.1197 62.4383 66.5889 62.4202C66.1878 62.3749 66.1154 62.1638 65.9556 61.9316C65.6986 61.3969 65.4887 60.8408 65.3282 60.2697L65.1442 59.6484C65.1712 59.7228 65.2229 59.7857 65.2908 59.8264C65.3587 59.8671 65.4385 59.8831 65.5168 59.8717C65.5952 59.8604 65.6672 59.8224 65.7207 59.7641C65.7743 59.7059 65.8061 59.6309 65.8108 59.5519C65.8455 60.0741 65.8455 60.598 65.8108 61.1203C65.7474 61.639 65.7022 62.3267 65.1412 62.6283C65.0323 62.6838 64.9106 62.7092 64.7886 62.7017C64.6666 62.6943 64.5489 62.6544 64.4475 62.586C64.1007 62.3237 64.0705 62.0281 63.9529 61.6812C63.7912 60.9862 63.6783 60.2808 63.6151 59.57C63.6311 59.6592 63.6779 59.7399 63.7473 59.7981C63.8168 59.8562 63.9045 59.8881 63.9951 59.8881C64.0857 59.8881 64.1734 59.8562 64.2429 59.7981C64.3124 59.7399 64.3592 59.6592 64.3751 59.57C64.2394 60.2758 64.1731 61.262 63.588 61.8924C63.4584 62.015 63.2919 62.0914 63.1144 62.1095C62.9932 62.1194 62.8714 62.1002 62.7592 62.0536C62.6469 62.0069 62.5474 61.934 62.469 61.8411C62.1674 61.446 62.1915 60.9604 62.1372 60.5321C62.086 59.6273 62.1071 58.7496 62.0347 57.8659C62.0106 57.4196 61.9201 56.9973 61.8628 56.557C61.7908 55.6308 61.9141 54.6999 62.2247 53.8244C62.2247 53.8244 62.2458 53.7611 62.2247 53.8244C62.2141 53.8638 62.208 53.9043 62.2066 53.9451C62.2026 53.9751 62.2026 54.0055 62.2066 54.0356C62.0196 53.1308 61.8507 52.241 61.6939 51.3392C61.1931 48.673 60.8907 45.9732 60.7891 43.2622C60.7891 42.1131 60.7891 40.8162 61.2475 39.6792C63.1235 36.253 71.6227 33.6863 75.3626 32.8539C78.0285 32.2187 80.7666 31.9378 83.5059 32.0184C86.2023 32.1813 88.9046 32.9655 91.4864 33.5596C93.4347 34.0422 95.0845 34.0241 96.5352 32.51C96.9786 32.124 97.1626 31.5479 97.4129 31.002C97.9015 29.8258 98.3449 28.4806 98.743 27.2591L98.7943 27.1023L98.8184 27.0239C98.8019 27.0842 98.7998 27.1476 98.8124 27.2089C98.825 27.2703 98.8518 27.3277 98.8908 27.3767C98.9098 27.4009 98.9321 27.4222 98.9571 27.4401C98.9571 27.4401 99.0355 27.4883 99.0054 27.4702C97.7145 26.867 96.7826 25.4042 97.2651 23.9746C97.7899 22.0353 99.5995 21.3296 101.403 22.1107L101.575 22.1831L101.663 22.2253C101.687 22.2253 101.69 22.2253 101.663 22.2253C101.636 22.221 101.608 22.221 101.581 22.2253C101.523 22.2226 101.465 22.2344 101.412 22.2597C101.359 22.285 101.314 22.3229 101.279 22.3701C102.067 21.42 103.297 21.0581 104.452 20.8621C104.939 20.7987 105.432 20.7987 105.918 20.8621C106.741 20.9314 107.569 20.8287 108.349 20.5605C108.678 20.473 108.985 20.3041 109.314 20.2347C109.407 20.2268 109.5 20.2393 109.587 20.2713C109.674 20.3033 109.753 20.354 109.818 20.4199C109.883 20.4858 109.933 20.5652 109.965 20.6526C109.996 20.7399 110.008 20.8331 109.999 20.9254C110.001 20.9535 110.001 20.9818 109.999 21.0099L109.981 21.0973C109.786 22.0028 109.493 22.8846 109.109 23.7273L108.826 24.3305C108.277 25.4827 109.248 26.5534 110.159 27.1897C110.414 27.3405 110.623 27.5586 110.762 27.8201C110.82 27.9452 110.838 28.0851 110.815 28.2209C110.791 28.3568 110.726 28.4821 110.629 28.5801C110.479 28.7075 110.292 28.7845 110.095 28.8003C109.595 28.8186 109.096 28.7439 108.624 28.5801C108.364 28.4957 107.854 28.3117 107.631 28.4354C107.375 28.6676 107.541 29.2497 107.631 29.5784C107.631 29.6116 107.631 29.5996 107.664 29.7021C107.682 29.8043 107.668 29.9094 107.625 30.0037C107.218 30.8271 105.571 29.684 104.89 29.675H104.793C104.772 29.675 104.793 29.675 104.82 29.6508C104.846 29.626 104.862 29.5929 104.866 29.5573C105.125 30.245 105.807 30.7064 106.374 31.1709C106.467 31.2434 106.53 31.3488 106.549 31.4659C106.568 31.5829 106.542 31.7028 106.476 31.8013C106.436 31.8602 106.384 31.9097 106.322 31.946C106.08 32.0953 105.879 32.3026 105.737 32.5493C105.636 32.7365 105.551 32.9323 105.484 33.1344C105.221 33.7617 104.419 33.7074 103.934 33.4601C102.727 32.881 101.822 31.7741 101.15 30.6914C101.18 30.7396 101.261 30.7185 101.282 30.6703L101.231 30.806C100.875 31.7262 100.632 32.6863 100.507 33.6652C99.871 36.7295 103.496 37.4895 105.559 38.6417C107.885 39.9265 110.533 41.2234 111.772 43.7056C113.582 47.343 113.902 51.4629 115.533 55.1485C116.538 57.9413 126.958 55.0339 129.283 54.3975L129.501 54.3372L129.645 54.5151C129.693 54.5772 129.727 54.6494 129.743 54.7261C129.759 54.8029 129.758 54.8823 129.739 54.9585L129.712 55.1455C129.685 55.4048 129.576 55.999 129.543 56.2644C129.38 57.3231 129.148 58.8854 128.988 59.941C129.03 59.8897 128.729 60.3994 128.801 60.2215C128.666 60.2838 128.528 60.3391 128.388 60.3874C124.521 61.9949 120.546 63.331 116.411 64.0398C114.357 64.3082 112.077 64.6128 110.156 63.5693C109.251 62.9661 108.578 62.1729 107.857 61.3887C106.499 59.8299 105.381 58.0774 104.54 56.189L104.395 55.8452C104.417 55.8939 104.448 55.9375 104.488 55.9731C104.527 56.0087 104.574 56.0355 104.625 56.0517C104.676 56.068 104.729 56.0733 104.782 56.0673C104.835 56.0614 104.886 56.0442 104.932 56.0171C104.992 55.9839 105.059 55.8965 105.013 55.9538C104.569 56.5323 104.159 57.1366 103.786 57.7634C101.071 62.3599 99.3794 67.5293 98.0553 72.6898L98.0071 72.8708L97.9829 72.9613L97.9679 73.0155C97.9542 73.0705 97.9329 73.1233 97.9045 73.1724C97.8476 73.2719 97.7634 73.3532 97.6619 73.4066C97.5604 73.46 97.4458 73.4834 97.3315 73.474L97.1264 73.4468C96.5232 73.3714 90.7927 72.5631 90.0357 72.4666L80.6437 71.1697C80.5572 71.1506 80.479 71.1048 80.42 71.0388C80.361 70.9727 80.3242 70.8898 80.3149 70.8018C80.2757 70.5183 80.2426 70.2347 80.2124 69.9512C79.4644 61.4128 80.7493 52.7809 83.2827 44.6165L83.2767 44.6225Z" fill="#F43B00"/>
<path d="M110.254 20.7597C111.016 20.2885 111.673 19.6641 112.181 18.9259C113.119 17.5386 113.644 17.0198 108.094 16.6307C103.085 16.2809 99.5349 14.8211 97.8158 16.9836C96.0966 19.1461 97.677 20.3917 95.7287 22.4125C93.7803 24.4332 95.5628 26.5415 96.2113 27.0813C96.8597 27.6212 98.606 28.8517 98.2863 29.7415L99.1067 27.2502C99.1067 27.2502 97.1221 26.5776 97.2699 24.6323C97.4177 22.6869 99.737 20.5757 101.447 22.7593C101.447 22.7593 102.684 21.3539 104.355 21.3146C106.025 21.2754 108.864 21.3689 110.254 20.7597Z" fill="#F43B00"/>
<path opacity="0.2" d="M97.7582 26.8782C98.1669 27.1669 98.4103 27.6401 98.4809 27.8406C96.4064 26.848 95.9834 25.585 96.5548 24.8932C97.1263 24.2015 96.9766 23.5398 97.0367 22.1865C97.0969 20.8331 98.9014 21.2241 99.5931 21.2241C100.285 21.2241 100.886 21.2241 101.608 20.6827C102.33 20.1413 102.45 20.3819 103.623 19.9308C104.796 19.4796 104.405 19.9308 106.18 19.9308C107.954 19.9308 106.541 19.6601 107.774 19.2692C109.007 18.8782 108.435 19.2692 109.668 19.2692C110.901 19.2692 112.345 17.0736 111.804 18.3669C111.262 19.6601 108.676 20.6225 107.202 21.2241C105.729 21.8257 106.029 21.194 104.135 21.2241C102.24 21.2542 102.24 21.8857 101.608 22.5775C100.977 23.2692 100.525 22.2166 99.2924 22.1865C98.07 22.1567 97.7635 23.1612 97.4365 24.2334L97.4279 24.2617C97.0975 25.3444 97.2474 26.5173 97.7582 26.8782Z" fill="black"/>
<path d="M100.665 23.9781C100.736 24.0201 100.828 23.9962 100.87 23.9248C100.912 23.8533 100.888 23.7614 100.816 23.7195L100.665 23.9781ZM99.014 24.3045L99.1443 24.3787L99.014 24.3045ZM100.176 26.23C100.254 26.2588 100.34 26.2192 100.369 26.1416C100.398 26.0639 100.359 25.9776 100.281 25.9488L100.176 26.23ZM100.086 25.0444C100.112 25.1232 100.196 25.1663 100.275 25.1407C100.354 25.1151 100.397 25.0305 100.371 24.9517L100.086 25.0444ZM98.8836 24.2303C98.7409 24.4809 98.7084 24.7262 98.7593 24.9556C98.8094 25.181 98.9372 25.3785 99.0937 25.5447C99.4049 25.8752 99.8573 26.1115 100.176 26.23L100.281 25.9488C99.9861 25.8394 99.5802 25.6238 99.3121 25.3391C99.179 25.1977 99.0869 25.0468 99.0522 24.8905C99.0184 24.7382 99.0362 24.5686 99.1443 24.3787L98.8836 24.2303ZM100.816 23.7195C100.498 23.5324 99.8085 23.3313 99.2474 23.7889L99.4371 24.0214C99.8557 23.68 100.393 23.8188 100.665 23.9781L100.816 23.7195ZM99.2474 23.7889C99.1129 23.8987 98.9898 24.0439 98.8836 24.2303L99.1443 24.3787C99.2341 24.2211 99.334 24.1055 99.4371 24.0214L99.2474 23.7889ZM99.2871 24.0447C99.4495 24.1089 99.8787 24.4064 100.086 25.0444L100.371 24.9517C100.136 24.227 99.6414 23.8622 99.3974 23.7657L99.2871 24.0447Z" fill="black"/>
<path d="M95.5059 33.75L100.392 35.3183" stroke="#F43B00" stroke-width="0.603209" stroke-miterlimit="10" stroke-linecap="round"/>
<path d="M62.6328 52.7715H65.1995" stroke="#F43B00" stroke-width="0.603209" stroke-miterlimit="10" stroke-linecap="round"/>
<path d="M46.4418 148.416C44.412 148.745 42.34 148.962 40.4097 149.622C40.1659 149.692 39.9444 149.824 39.7673 150.005C39.7673 150.045 39.7673 150.005 39.7673 150.038C40.2891 150.524 41.1487 150.672 41.8303 150.868C43.4376 151.191 45.065 151.404 46.7012 151.507C58.2678 152.213 69.9006 151.74 81.4702 152.684C84.7893 152.904 88.0951 153.293 91.3749 153.848C92.609 154.059 93.8273 154.354 95.0213 154.731C95.5129 154.937 96.1734 155.048 96.46 155.597C96.653 156.381 94.9972 156.58 94.4844 156.719C87.1072 157.883 79.6093 158.07 72.1898 158.803C70.5461 158.957 68.8993 159.105 67.2857 159.376C66.5224 159.469 65.7724 159.65 65.0508 159.916C64.9905 159.946 64.9392 159.985 64.9453 159.979C64.9513 159.973 64.9785 159.952 65.0026 159.874C65.0263 159.802 65.0263 159.725 65.0026 159.654C64.9573 159.569 64.9845 159.62 65.0267 159.654C65.4272 159.873 65.8538 160.042 66.2965 160.154C71.0106 161.445 76.0142 161.783 80.9122 161.925C87.5324 162.097 94.1346 161.671 100.758 161.496C101.821 161.454 102.887 161.485 103.946 161.59C104.242 161.621 104.531 161.703 104.799 161.831C104.938 161.917 105.045 162.046 105.101 162.199C105.131 162.295 105.139 162.396 105.125 162.495C105.11 162.595 105.073 162.689 105.016 162.772C104.769 163.044 104.458 163.251 104.112 163.375C103.326 163.703 102.52 163.98 101.699 164.202C97.6935 165.318 93.6279 166.174 89.5532 166.983C87.9245 167.302 86.2959 167.616 84.6612 167.887C84.6463 167.889 84.6313 167.885 84.6192 167.876C84.6071 167.867 84.5988 167.854 84.5957 167.84C84.5927 167.825 84.5953 167.81 84.6029 167.797C84.6106 167.784 84.6227 167.774 84.637 167.77C90.0086 166.431 96.1855 165.016 101.439 163.348C102.393 163.007 103.418 162.745 104.226 162.205C104.204 162.231 104.191 162.262 104.187 162.296C104.17 162.358 104.172 162.423 104.192 162.484C104.212 162.545 104.249 162.599 104.299 162.64C103.162 162.368 101.964 162.507 100.782 162.522C99.1382 162.588 97.4824 162.697 95.8296 162.796C89.1943 163.191 82.5198 163.466 75.8724 162.914C73.8245 162.751 64.8126 161.747 63.9771 160.076C63.4795 158.628 66.2663 158.474 67.144 158.296C73.7552 157.488 80.4146 157.488 87.0348 157.057C89.511 156.951 91.9791 156.705 94.4271 156.318C94.9851 156.194 95.6336 156.104 96.0799 155.772C96.1342 155.718 96.1342 155.709 96.1252 155.685C95.8658 155.341 95.347 155.211 94.9187 155.048C93.7385 154.687 92.5354 154.405 91.3176 154.204C84.7818 153.169 78.1194 153.226 71.5142 153.136C63.2925 153.003 54.8385 153.064 46.6409 152.288C44.9709 152.138 43.3145 151.862 41.6855 151.465C40.9587 151.242 40.2077 151.043 39.5743 150.584L39.4295 150.452C39.306 150.326 39.2349 150.158 39.2305 149.981C39.248 149.863 39.2933 149.751 39.3624 149.653C39.4316 149.556 39.5228 149.476 39.6286 149.42C40.2141 149.133 40.841 148.938 41.4865 148.844C43.1267 148.562 44.7809 148.368 46.4418 148.262C46.4496 148.261 46.4575 148.262 46.4649 148.264C46.4724 148.267 46.4793 148.27 46.4852 148.276C46.4912 148.281 46.496 148.287 46.4994 148.294C46.5028 148.301 46.5048 148.309 46.5052 148.316C46.5062 148.332 46.5015 148.347 46.4921 148.359C46.4826 148.371 46.4691 148.38 46.4539 148.383L46.4418 148.416Z" fill="#F43B00"/>
<path opacity="0.2" d="M104.607 54.6574L106.284 52.5039C106.284 52.5039 107.078 56.8802 108.013 57.3296C108.948 57.779 109.898 58.1711 110.275 59.0397C110.652 59.9083 111.357 61.2142 112.292 61.5159C113.045 61.7752 113.813 61.9907 114.591 62.1613C116.635 62.5111 116.681 58.9462 119.576 59.8721C121.832 60.596 125.557 58.7019 125.557 58.7019L128.663 56.9405L128.401 59.8993L119.449 62.9213L113.073 63.7658L109.813 62.861C109.813 62.861 105.328 58.6506 104.607 54.6574Z" fill="#F43B00"/>
<path opacity="0.2" d="M96.8227 75.3047C96.8227 75.3047 105.608 88.7955 109.831 106.834C109.831 106.834 111.185 110.798 110.292 113.952C110.292 113.952 106.39 125.642 105.901 126.873C105.412 128.104 97.1545 143.446 94.4853 147.337H89.8496C89.8496 147.337 92.7903 145.389 93.9514 143.389C95.1126 141.389 95.7219 136.714 97.5707 134.193C99.4195 131.672 99.8749 130.706 100.24 129.34C100.605 127.974 100.089 127.956 101.054 126.339C102.019 124.723 101.85 123.625 101.977 123C102.104 122.376 103.054 122.216 103.657 120.343C104.26 118.47 102.752 118.277 103.959 114.58C105.165 110.882 106.733 111.021 105.69 107.794C104.646 104.566 105.572 103.541 105.823 100.911C106.073 98.2809 103.696 98.48 104.2 95.8982C104.704 93.3165 101.995 92.9666 102.3 90.1678C102.604 87.3689 101.736 87.7549 101.516 85.9121C101.296 84.0693 99.5854 84.1025 99.2928 82.0154C99.0003 79.9283 96.8227 75.3047 96.8227 75.3047Z" fill="black"/>
<path opacity="0.2" d="M83.4495 44.312L86.2876 43.2051C86.2876 43.2051 83.6033 48.0308 84.0074 50.3139C84.4116 52.597 84.6106 53.0283 83.8868 54.9375C83.1629 56.8467 82.4089 59.0092 83.4826 59.4616C84.5564 59.914 83.0664 61.0329 83.0152 62.6103C82.9639 64.1877 85.6632 67.8643 84.9575 71.4594L80.5812 70.9075C80.5812 70.9075 79.4502 58.5779 83.4495 44.312Z" fill="#F43B00"/>
<path d="M107.4 24.2137C106.918 23.9744 106.385 23.8544 105.847 23.8638C104.975 23.8909 105.325 24.5605 105.941 24.7505C106.556 24.9405 107.575 25.1094 107.696 24.7505C107.817 24.3916 107.4 24.2137 107.4 24.2137Z" stroke="#F43B00" stroke-width="0.301605" stroke-miterlimit="10" stroke-linecap="round"/>
<path d="M106.904 24.1191C106.904 24.1191 106.56 24.3363 106.804 24.9365L107.546 24.8943L107.715 24.5263L106.904 24.1191Z" fill="#F43B00"/>
<path opacity="0.2" d="M93.3826 86.8652C93.3826 86.8652 77.6329 103.034 66.8595 105.326C53.031 108.261 29.4395 96.0129 29.4395 96.0129L32.7782 89.5646C32.7782 89.5646 29.7803 97.4304 38.569 94.0283C39.9443 93.4975 39.513 96.6101 43.0931 98.1845C43.7687 98.4861 44.1789 98.293 44.8002 98.5072C45.135 98.6248 45.705 99.1737 46.0066 99.2642C46.6822 99.4542 47.5146 99.3185 48.1389 99.3848C48.4978 99.421 49.1011 99.5899 49.4419 99.5809C50.2958 99.6143 51.1418 99.4052 51.8819 98.9777C54.3158 97.6898 55.1814 102.522 61.4095 101.327C61.9313 101.228 62.6401 100.766 63.1408 100.908C64.4738 101.282 65.2731 101.387 66.3981 100.757C66.9621 100.437 68.3042 101.191 68.8109 100.908C69.5106 100.507 69.6856 99.237 70.0505 98.6399C72.2492 95.0206 76.8638 96.1818 79.2977 95.4549C81.7317 94.7281 83.1763 91.0425 84.8231 89.7244C87.6884 87.3961 93.3826 86.8652 93.3826 86.8652Z" fill="black"/>
<path d="M129.079 18.5102C125.668 22.4311 121.539 25.7246 117.253 28.6562C114.174 30.7403 110.869 32.4625 107.629 34.26C97.4652 40.1051 86.5743 45.8929 75.1012 48.5712C72.2109 49.2913 69.2647 49.7655 66.2944 49.9887L66.2793 49.8681C72.0852 48.6797 77.689 46.852 83.2114 44.789C87.3635 43.2649 91.4633 41.6051 95.5108 39.8095C99.5583 38.0452 103.639 36.1903 107.436 33.9222C110.624 32.0372 113.61 29.8536 116.647 27.7695C118.457 26.5088 120.267 25.2451 122.052 23.927C124.427 22.1777 126.739 20.344 128.989 18.4258L129.076 18.5102H129.079Z" fill="#F43B00"/>
<path d="M61.4756 50.2654C57.7116 50.389 53.3323 49.059 54.5236 44.366C55.5038 40.9036 58.0283 38.162 60.4532 35.6526C65.3965 30.6973 71.326 26.9091 77.2586 23.2899C85.1697 18.4642 93.2889 13.8738 101.867 10.3571C110.143 7.03941 119.915 3.54079 128.936 4.02336C131.876 4.21337 135.701 5.55853 135.209 9.19588C134.965 10.9693 134.002 12.5407 132.965 13.9371L132.865 13.8707C133.975 12.031 135.227 9.70257 134.473 7.57023C132.862 3.86049 125.343 5.00357 122.083 5.5163C110.758 7.62753 99.9966 12.037 89.6033 16.92C83.325 19.8681 77.35 23.4228 71.7634 27.5334C67.5831 30.7214 52.4607 41.9893 55.5008 47.6414C56.7073 49.5445 59.3553 49.9215 61.4786 50.1327V50.2533L61.4756 50.2654Z" fill="#F43B00"/>
<path d="M61.1646 9.49715C69.5402 8.73107 77.97 10.1335 86.1315 11.9371C99.7489 15.0768 112.974 20.1498 124.999 27.2918C128.92 29.7047 139.175 36.0172 137.504 41.3466C135.944 45.4394 128.299 45.6927 124.568 45.7168C104.273 45.4364 72.3149 35.1818 56.8788 21.8901C55.46 20.665 54.2311 19.2359 53.2324 17.6495L53.335 17.5862C55.4462 20.6414 58.5648 22.822 61.6231 24.8549C67.8633 28.8451 74.6403 31.9486 81.529 34.6419C91.8951 38.6171 102.605 41.8261 113.562 43.6509C119.495 44.5557 129.982 45.9642 135.254 43.0476C139.175 40.7162 136.113 36.4546 133.746 34.1986C128.362 29.0894 121.597 25.6541 114.868 22.6441C101.245 16.8654 86.9458 12.3684 72.2727 10.2783C70.4359 10.0431 68.5931 9.84701 66.7413 9.72034C64.8894 9.59366 63.0376 9.56954 61.1827 9.64494V9.52731L61.1646 9.49715Z" fill="#F43B00"/>
<path d="M31.8531 86.7514L29.4765 91.8455L22.0631 99.8652C22.0631 99.8652 19.5296 102.655 18.3986 101.976C17.2675 101.298 21.9605 92.6266 21.9605 92.6266L26.1438 84.8935C26.1438 84.8935 27.5794 83.8469 29.3709 85.2283C31.1625 86.6096 31.8531 86.7514 31.8531 86.7514Z" fill="black"/>
<path d="M80.4332 148.381L86.2511 147.777L96.949 152.377L100.037 155.031L98.5475 155.299L81.4707 154.132C81.4707 154.132 77.7459 153.55 80.4332 148.381Z" fill="black"/>
<path d="M86.2998 139.407C86.336 139.392 86.3299 139.383 86.3179 139.407C86.3058 139.431 86.2425 139.549 86.2184 139.594C85.2713 141.446 83.6638 144.326 82.6534 146.178C81.9506 147.559 80.9252 149.155 80.4698 150.621C80.1501 153.525 80.9946 153.724 83.6065 154.029C87.4338 154.511 91.2944 154.801 95.1489 154.958C96.4307 155.015 97.7336 155.048 99.0004 155.081C99.1947 155.091 99.3888 155.056 99.5674 154.979C99.5306 154.884 99.4729 154.798 99.3985 154.728C98.8223 154.206 98.1854 153.754 97.5014 153.383C96.4005 152.741 95.2544 152.177 94.0993 151.613C92.0423 150.795 89.0142 149.604 86.9422 148.732C86.8155 148.678 85.9771 148.349 85.8775 148.283C85.7107 148.184 85.5725 148.042 85.4766 147.874C85.3807 147.705 85.3302 147.514 85.3302 147.319C85.3302 147.125 85.3807 146.934 85.4766 146.765C85.5725 146.596 85.7107 146.455 85.8775 146.356C88.5498 144.676 89.8949 141.606 92.6335 140.041L92.7451 140.946C90.5343 140.149 88.5136 140.266 86.2968 139.386L86.2998 139.407ZM86.2606 139.292C89.3158 140.037 91.0742 139.419 94.0993 140.294C91.2521 142.203 89.7411 145.511 86.8125 147.3C86.7643 147.33 86.5531 147.457 86.5109 147.478C86.5329 147.462 86.5503 147.441 86.5614 147.416C86.5725 147.391 86.5769 147.364 86.5742 147.337C86.5714 147.31 86.5616 147.285 86.5457 147.263C86.5299 147.241 86.5085 147.223 86.4838 147.212L86.5381 147.24L87.4187 147.638L90.9445 149.233C93.3219 150.266 95.6185 151.476 97.8151 152.852C98.373 153.26 100.792 154.632 99.8298 155.383C99.5698 155.514 99.278 155.568 98.9883 155.54L95.1187 155.326C92.543 155.187 89.9673 155.084 87.3886 154.994C86.1007 154.943 84.8099 154.903 83.516 154.819C82.5237 154.725 81.3655 154.777 80.4758 154.192C79.3026 153.438 79.2483 151.878 79.3719 150.645C79.4468 150.1 79.6249 149.575 79.8967 149.097C80.4849 147.912 81.1393 146.799 81.821 145.698C83.1796 143.482 84.6566 141.341 86.2455 139.283L86.2606 139.292Z" fill="#F43B00"/>
<path d="M33.44 86.9098C33.44 86.9098 31.1749 86.6655 28.7983 85.3686C28.168 85.0398 27.4411 84.7141 26.7866 85.0881C25.4294 86.011 24.8322 87.8025 23.9998 89.1839C21.981 92.9338 20.1795 96.7967 18.6041 100.753L18.6222 100.693C18.5714 101.012 18.593 101.337 18.6855 101.646C19.1439 102.602 21.8946 99.3118 22.3198 98.8563C24.033 96.9653 26.6087 94.094 28.3007 92.1939C28.4303 92.0582 28.741 91.6993 28.8647 91.5696C28.8978 91.5394 28.9732 91.4429 29.0034 91.4127C29.1452 91.256 29.3252 91.1387 29.5259 91.0723C29.7265 91.0059 29.941 90.9928 30.1483 91.0341C30.3555 91.0755 30.5486 91.1699 30.7084 91.3081C30.8683 91.4464 30.9895 91.6238 31.0603 91.8229L30.8945 91.5696C33.0781 93.6687 28.9712 89.6333 31.0603 91.8229C32.116 89.9982 32.3572 88.7466 33.44 86.9098ZM33.44 86.9098C32.3874 89.1326 32.1552 89.6544 31.0603 91.8229C32.8659 93.4777 29.1984 90.2365 31.0603 91.8229C30.5054 91.3072 30.5506 93.0263 30.0017 92.5076L29.8358 92.2512C29.8396 92.2624 29.8461 92.2724 29.8548 92.2804C29.8635 92.2883 29.8741 92.2939 29.8856 92.2966C29.8971 92.2993 29.909 92.2991 29.9204 92.2959C29.9317 92.2927 29.9421 92.2866 29.9504 92.2783C29.2356 93.0746 28.4424 93.9251 27.7155 94.6912C26.6418 95.8222 24.1234 98.4763 23.0558 99.55C22.1932 100.373 18.975 103.969 18.0883 101.857C17.9706 101.423 17.9706 100.965 18.0883 100.53C19.898 96.8477 21.7076 92.6554 23.2789 88.834C24.1506 87.0033 25.0735 83.758 27.5949 83.8455C28.4997 83.9329 29.1572 84.3763 29.7755 84.7111C31.0181 85.4199 32.2245 86.1648 33.44 86.9098Z" fill="#F43B00"/>
<path d="M61.0157 11.0831C61.0489 15.8695 56.736 19.3862 52.1908 17.1604C49.1144 15.6524 47.2837 11.822 48.4901 8.50435C48.9633 7.23773 49.8123 6.14592 50.9232 5.37512C52.0341 4.60432 53.354 4.19131 54.7062 4.19141C58.5214 4.19141 61.067 7.48794 61.0157 11.0831ZM60.8951 11.0831C60.8438 6.09755 54.1723 3.68471 50.6948 7.06871C47.6637 9.89173 48.2669 15.212 52.4441 16.5451C56.0634 17.7335 60.9132 15.1849 60.889 11.0831H60.8951Z" fill="#F43B00"/>
<path d="M134.099 16.3203C134.183 19.3785 131.264 20.79 129.161 18.4315C128.38 17.5719 127.886 16.269 128.257 15.0867C128.465 14.4523 128.87 13.9002 129.411 13.5096C129.953 13.119 130.605 12.9098 131.273 12.9121C133.17 12.9121 134.168 14.6071 134.111 16.3323L134.099 16.3203ZM133.978 16.3203C133.909 14.3417 131.077 13.5666 129.701 14.761C128.389 15.8558 128.444 18.1631 130.329 18.5763C131.761 18.7814 133.948 18.0515 133.978 16.3203Z" fill="#F43B00"/>
<path d="M129.326 55.6788C129.756 55.4799 130.173 55.2543 130.575 55.0032C130.834 54.8403 130.855 54.5357 130.946 54.216C131.06 53.7485 131.169 53.094 131.302 52.6326C131.434 52.1711 131.549 51.7066 131.986 51.4262C132.066 51.3766 132.155 51.3438 132.248 51.3299C132.34 51.316 132.435 51.3212 132.526 51.3452C132.616 51.3692 132.701 51.4115 132.775 51.4695C132.849 51.5275 132.91 51.6 132.954 51.6825C133.226 52.4184 132.798 53.3172 132.915 53.9868C132.925 54.0977 132.955 54.2059 133.003 54.3065C133.077 54.3131 133.151 54.3059 133.223 54.2854C134.655 53.8752 135.838 52.6718 137.421 52.6477C137.518 52.6373 137.615 52.6541 137.702 52.6963C137.79 52.7385 137.863 52.8043 137.915 52.8862C137.967 52.9682 137.995 53.063 137.995 53.16C137.996 53.257 137.97 53.3522 137.919 53.4348C137.822 53.5813 137.702 53.7107 137.563 53.8179C136.465 54.6805 135.219 55.2294 134.079 55.9864C134.104 55.9516 134.116 55.909 134.112 55.8664C134.108 55.8237 134.089 55.7839 134.058 55.7542C133.98 55.6939 133.986 55.7059 133.941 55.6999C135.147 55.3983 136.384 54.9187 137.62 54.584C137.946 54.4905 139.572 54.026 139.198 54.7951C138.787 55.2173 138.266 55.3983 137.768 55.6999C136.77 56.2247 135.693 56.6499 134.752 57.2079C134.79 57.1688 134.816 57.119 134.825 57.0651C134.834 57.0112 134.826 56.9558 134.803 56.9063C134.737 56.7796 134.722 56.7887 134.655 56.7495C135.847 56.7495 137.089 56.5474 138.299 56.6469C138.588 56.6519 138.869 56.7456 139.104 56.9154C139.208 57.0069 139.274 57.1341 139.29 57.272C139.305 57.4099 139.268 57.5484 139.186 57.6603C139.026 57.8183 138.822 57.9236 138.6 57.9619C137.291 58.2877 135.886 58.1851 134.616 58.5832C134.616 58.5832 134.589 58.5832 134.598 58.5832C134.646 58.5415 134.68 58.4855 134.695 58.4234C134.7 58.3874 134.7 58.3508 134.695 58.3148C134.694 58.2632 134.676 58.2134 134.643 58.173C135.63 58.7763 136.824 58.7401 137.801 59.4609C137.898 59.5357 137.97 59.6383 138.008 59.7551C138.045 59.8718 138.046 59.9972 138.01 60.1144C137.974 60.2317 137.904 60.3353 137.808 60.4114C137.712 60.4876 137.595 60.5326 137.472 60.5406C136.568 60.604 135.753 60.3235 134.909 60.1455C133.856 59.8922 132.816 59.5906 131.79 59.3584C130.659 59.1261 129.477 59.3282 128.34 59.4488C128.596 58.2937 129.009 56.8158 129.305 55.6637L129.326 55.6788ZM129.395 55.7391C129.26 56.7555 129.046 58.2454 128.892 59.2377L128.623 58.9633C129.571 58.7445 130.54 58.6302 131.513 58.6224C133.434 58.8486 135.521 59.5514 137.307 59.6419C137.263 59.6653 137.224 59.6975 137.193 59.7365C137.162 59.7755 137.14 59.8205 137.127 59.8686C137.114 59.9168 137.111 59.967 137.119 60.0162C137.127 60.0654 137.144 60.1125 137.171 60.1546C136.621 59.9139 136.054 59.7124 135.476 59.5514C135.054 59.4279 134.645 59.2643 134.254 59.0628C134.123 59.0024 134.008 58.9101 133.921 58.7943C133.834 58.6784 133.778 58.5426 133.757 58.3993C133.752 58.2514 133.794 58.1059 133.877 57.9834C133.959 57.8609 134.079 57.7679 134.218 57.7176C135.569 57.2501 137.029 57.4341 138.404 57.1385C138.464 57.1263 138.523 57.1081 138.579 57.0843C138.597 57.0843 138.558 57.0843 138.546 57.1235C138.5 57.1779 138.475 57.2468 138.475 57.318C138.475 57.3892 138.5 57.4581 138.546 57.5125C138.186 57.4241 137.816 57.3805 137.445 57.3828C136.465 57.3255 135.482 57.4703 134.493 57.3346C134.435 57.3236 134.382 57.2985 134.336 57.2617C134.291 57.2249 134.256 57.1774 134.233 57.1235C134.214 57.0746 134.206 57.0218 134.211 56.9694C134.215 56.917 134.232 56.8665 134.26 56.8219C134.292 56.7704 134.334 56.7262 134.384 56.6922C134.94 56.3993 135.516 56.1444 136.106 55.9291C137.05 55.5038 138.118 55.2083 138.941 54.5809C138.956 54.5809 138.941 54.5598 138.941 54.6081C138.941 54.6563 138.977 54.6654 138.959 54.6503C138.546 54.5628 138.091 54.7348 137.678 54.8252C136.643 55.1027 135.636 55.4797 134.622 55.8477C134.478 55.8989 134.179 56.0045 134.019 56.0497C133.966 56.0608 133.912 56.0608 133.859 56.0497C133.817 56.0286 133.832 56.0498 133.748 55.9894C133.724 55.966 133.706 55.9368 133.696 55.9045C133.687 55.8723 133.686 55.8382 133.693 55.8055C133.742 55.6607 133.766 55.6788 133.826 55.6124C134.275 55.2415 135.352 54.5508 135.832 54.2069C136.311 53.8631 136.902 53.4891 137.249 53.0367C137.201 53.094 137.249 53.2931 137.337 53.3383C137.424 53.3836 137.385 53.3594 137.337 53.3685C136.637 53.4167 135.952 53.8541 135.292 54.1738C134.574 54.4754 133.181 55.4918 132.424 54.8283C131.754 54.0049 132.393 52.7713 132.327 51.9238C132.327 51.9238 132.327 51.9238 132.342 51.9238C132.357 51.9238 132.321 51.9238 132.294 51.9238C132.212 51.9238 132.155 52.0052 132.077 52.1138C131.531 52.9764 131.513 54.2431 130.87 55.0967C130.423 55.3685 129.937 55.5719 129.429 55.6999L129.38 55.715H129.356C129.356 55.715 129.338 55.715 129.356 55.715L129.395 55.7391Z" fill="#F43B00"/>
<path d="M75.5182 14.9719C75.6453 14.8662 75.8019 14.8025 75.9667 14.7896C76.1314 14.7766 76.2961 14.815 76.4381 14.8995C76.6224 14.9772 76.7958 15.0786 76.9539 15.2011C77.1912 15.4525 77.3191 15.7876 77.3098 16.1331C77.3098 17.5808 76.1697 19.879 74.9422 19.879C74.155 19.879 73.6875 19.2276 73.6875 18.371C73.7026 17.2581 74.6225 15.6475 75.5182 14.9719ZM76.0943 15.7953C75.5665 15.7953 74.6225 17.6743 74.6225 18.4102C74.6225 18.7299 74.731 18.926 74.9241 18.926C75.5846 18.926 76.408 17.0108 76.408 16.1512C76.4019 15.931 76.2662 15.7832 76.0943 15.7953V15.7953Z" fill="#F43B00"/>
<path d="M88.1856 20.8591C88.3182 20.748 88.4819 20.6809 88.6542 20.6668C88.8265 20.6528 88.999 20.6925 89.1477 20.7806C89.3388 20.8598 89.52 20.961 89.6876 21.0822C89.9342 21.347 90.0674 21.6977 90.0586 22.0594C90.0586 23.5675 88.8672 25.9803 87.5824 25.9803C86.762 25.9803 86.2734 25.2987 86.2734 24.412C86.2855 23.2598 87.2476 21.5648 88.1856 20.8591ZM88.7888 21.7186C88.2369 21.7186 87.2476 23.6821 87.2476 24.4512C87.2476 24.7859 87.3652 24.991 87.5492 24.991C88.2399 24.991 89.0995 22.9884 89.0995 22.0896C89.1085 21.8604 88.9698 21.7066 88.7888 21.7186Z" fill="#F43B00"/>
<path d="M121.67 36.8195C121.74 36.6468 121.86 36.4997 122.016 36.3982C122.172 36.2968 122.356 36.2459 122.542 36.2524C122.764 36.2231 122.989 36.2231 123.211 36.2524C123.581 36.3758 123.887 36.6389 124.065 36.9853C124.843 38.421 124.949 41.3073 123.733 41.9679C122.952 42.3901 122.141 41.998 121.685 41.1565C121.103 40.0708 121.148 37.9716 121.67 36.8195ZM122.684 37.3262C122.159 37.6097 122.234 39.9773 122.629 40.7071C122.801 41.0088 123.015 41.1596 123.199 41.06C123.857 40.7041 123.64 38.3637 123.178 37.5132C123.161 37.4661 123.134 37.4233 123.098 37.3877C123.063 37.3521 123.02 37.3245 122.974 37.3067C122.927 37.289 122.876 37.2815 122.826 37.2849C122.776 37.2882 122.728 37.3023 122.684 37.3262V37.3262Z" fill="#F43B00"/>
<path d="M53.9837 25.8505C53.9934 25.6942 54.051 25.5446 54.1487 25.4221C54.2464 25.2996 54.3793 25.2102 54.5296 25.1659C54.7 25.0886 54.8793 25.0329 55.0635 25C55.3902 25.0002 55.704 25.1279 55.9381 25.3559C56.9394 26.2909 57.7869 28.562 56.9937 29.4095C56.487 29.9523 55.736 29.8528 55.1509 29.3069C54.3969 28.5861 53.8721 26.9092 53.9837 25.8505ZM54.9247 25.9832C54.5839 26.3482 55.2716 28.2121 55.7813 28.6977C56.0014 28.9058 56.2065 28.954 56.3272 28.8274C56.7524 28.3719 55.9622 26.5683 55.3681 26.0134C55.342 25.9808 55.3094 25.9539 55.2724 25.9346C55.2353 25.9152 55.1947 25.9037 55.153 25.9009C55.1113 25.898 55.0695 25.9039 55.0302 25.9181C54.9909 25.9323 54.955 25.9544 54.9247 25.9832V25.9832Z" fill="#F43B00"/>
<path d="M126.852 37.781C126.747 37.5729 126.602 36.4962 126.497 35.2143C126.448 34.6322 126.4 34.0532 126.316 33.459C126.231 32.9583 126.367 32.6718 126.681 32.6205C126.994 32.5693 127.266 32.7894 127.329 33.2841C127.423 33.9536 127.76 37.2441 127.769 37.6272C127.761 37.7364 127.714 37.8391 127.637 37.9173C127.561 37.9956 127.459 38.0445 127.35 38.0555C127.248 38.0723 127.144 38.0544 127.054 38.0046C126.963 37.9548 126.892 37.876 126.852 37.781V37.781Z" fill="#F43B00"/>
<path d="M129.046 37.7424C128.964 37.5192 128.955 36.4334 129.006 35.1516C129.031 34.5665 129.055 33.9844 129.043 33.3842C129.022 32.8775 129.19 32.6121 129.51 32.6C129.83 32.588 130.068 32.8383 130.071 33.3359C130.071 34.0115 130.011 37.3171 129.972 37.7002C129.949 37.8065 129.89 37.9016 129.804 37.9688C129.719 38.036 129.613 38.0712 129.504 38.0681C129.402 38.073 129.302 38.0435 129.219 37.9845C129.135 37.9254 129.075 37.8402 129.046 37.7424V37.7424Z" fill="#F43B00"/>
<path d="M52.3035 31.0208C51.9414 30.3896 51.6385 29.7263 51.3987 29.0393C51.2237 28.5839 51.0488 28.1345 50.8407 27.667C50.6567 27.2839 50.6989 27.0246 50.9402 26.9069C51.1815 26.7893 51.4469 26.9069 51.6158 27.29C51.848 27.8057 52.8916 30.3754 52.9881 30.68C53.0077 30.7702 52.9949 30.8644 52.9518 30.9461C52.9088 31.0277 52.8383 31.0916 52.7529 31.1264C52.6765 31.1591 52.5917 31.1664 52.5108 31.1474C52.43 31.1285 52.3573 31.0841 52.3035 31.0208V31.0208Z" fill="#F43B00"/>
<path d="M105.117 22.4931C105.703 22.4655 106.289 22.5559 106.839 22.759C107.389 22.9621 107.893 23.2738 108.32 23.6754" fill="#F43B00"/>
<path d="M105.117 22.4931C105.703 22.4655 106.289 22.5559 106.839 22.759C107.389 22.9621 107.893 23.2738 108.32 23.6754" stroke="#F43B00" stroke-width="0.301605" stroke-linecap="round" stroke-linejoin="round"/>
</g>
<defs>
<clipPath id="clip0_992_221581">
<rect width="121.305" height="163.937" fill="white" transform="translate(18 3.98633)"/>
</clipPath>
</defs>
</svg>
