<svg width="19" height="19" viewBox="0 0 19 19" fill="none" xmlns="http://www.w3.org/2000/svg">
<path d="M16.9252 0.95459H1.58266C1.23025 0.95459 0.892277 1.09407 0.643088 1.34235C0.393899 1.59062 0.253906 1.92736 0.253906 2.27847V17.5648C0.253906 17.9159 0.393899 18.2526 0.643088 18.5009C0.892277 18.7492 1.23025 18.8887 1.58266 18.8887H16.9252C17.2776 18.8887 17.6155 18.7492 17.8647 18.5009C18.1139 18.2526 18.2539 17.9159 18.2539 17.5648V2.27847C18.2539 1.92736 18.1139 1.59062 17.8647 1.34235C17.6155 1.09407 17.2776 0.95459 16.9252 0.95459ZM5.61891 16.2322H2.91266V7.66741H5.61891V16.2322ZM4.26391 6.48052C3.95693 6.4788 3.65734 6.38652 3.40296 6.21531C3.14857 6.04411 2.95079 5.80167 2.83456 5.51858C2.71834 5.23549 2.68889 4.92444 2.74993 4.62469C2.81097 4.32494 2.95976 4.04992 3.17752 3.83434C3.39529 3.61876 3.67227 3.47228 3.97351 3.4134C4.27474 3.35451 4.58674 3.38585 4.87012 3.50346C5.1535 3.62107 5.39556 3.81968 5.56575 4.07423C5.73595 4.32878 5.82665 4.62785 5.82641 4.93371C5.8293 5.13848 5.79079 5.34174 5.71317 5.53137C5.63554 5.72099 5.52039 5.89311 5.37458 6.03745C5.22878 6.1818 5.05529 6.29542 4.86447 6.37154C4.67366 6.44766 4.46941 6.48472 4.26391 6.48052ZM15.5939 16.2396H12.8889V11.5606C12.8889 10.1807 12.3002 9.75474 11.5402 9.75474C10.7377 9.75474 9.95016 10.3575 9.95016 11.5955V16.2396H7.24391V7.67364H9.84641V8.86052H9.88141C10.1427 8.33371 11.0577 7.43327 12.4539 7.43327C13.9639 7.43327 15.5952 8.32624 15.5952 10.9416L15.5939 16.2396Z" fill="white"/>
</svg>
