<svg width="121" height="20" viewBox="0 0 121 20" fill="none" xmlns="http://www.w3.org/2000/svg">
<path d="M42.3647 0.0607843L35.6368 0.0605375L29.1382 9.3441V0H23.6289V19.8358H29.1382V11.2263L34.8821 19.841C34.917 19.7686 35.0034 19.6806 35.0832 19.5993C35.1441 19.5372 35.2013 19.479 35.2289 19.4346L35.2459 19.4354C35.2468 19.4162 35.2602 19.389 35.2724 19.3642C35.2891 19.3302 35.3036 19.3009 35.2804 19.3031L35.3418 19.2689C35.384 19.1819 35.3777 19.1504 35.368 19.1021C35.362 19.0723 35.3548 19.0361 35.3568 18.9764C35.3719 18.9553 35.4236 18.9333 35.4737 18.912C35.5345 18.8861 35.5929 18.8612 35.5797 18.8403C35.7035 18.7476 35.7815 18.5291 35.8387 18.3668C35.8403 18.3654 35.8412 18.3623 35.8418 18.3583C35.8478 18.3412 35.8535 18.3249 35.8591 18.3095C35.8453 18.3088 35.844 18.3289 35.8429 18.3457C35.8426 18.3503 35.8423 18.3546 35.8418 18.3583C35.8414 18.3594 35.841 18.3605 35.8406 18.3616C35.84 18.3633 35.8394 18.3651 35.8387 18.3668C35.8363 18.3691 35.8324 18.3674 35.8255 18.3592C35.7958 18.3237 35.7994 18.3067 35.8291 18.2796C35.8479 18.2552 35.86 18.2263 35.8643 18.1958C35.8818 18.191 35.8979 18.182 35.9111 18.1695C35.9242 18.1582 35.9346 18.1441 35.9414 18.1282C35.9126 18.1268 35.914 18.1003 35.9156 18.0694C35.9157 18.0668 35.9159 18.0642 35.916 18.0615C36.0205 17.973 36.0281 17.8608 36.0364 17.7378C36.0411 17.6686 36.046 17.5961 36.0684 17.5224C36.0743 17.5205 36.0822 17.518 36.0916 17.5149C36.1789 17.4866 36.4002 17.415 36.4302 17.3778C36.3999 17.3684 36.4155 17.3302 36.4308 17.2929C36.4481 17.2508 36.4649 17.2097 36.415 17.212C36.538 17.0926 36.6306 16.9455 36.6852 16.783L36.6644 16.802C36.7001 16.6929 36.7515 16.5944 36.8028 16.4964C36.8609 16.3852 36.9188 16.2744 36.9533 16.1489C36.9548 16.1435 36.9563 16.1381 36.9578 16.1327C36.9784 16.0566 36.9969 15.9887 37.067 15.9036C37.067 15.9036 37.1161 15.7211 37.17 15.6435L37.1741 15.5554C37.1688 15.5242 37.1703 15.4923 37.1784 15.4617C37.1954 15.4624 37.0676 15.4267 37.0844 15.4905C37.0844 15.4905 37.1184 15.5273 37.0498 15.5327C37.0419 15.562 37.0301 15.5902 37.0147 15.6165C37.0197 15.6146 37.0251 15.6137 37.0305 15.614C37.0358 15.6142 37.0411 15.6156 37.0459 15.6179C37.0333 15.6245 37.0222 15.6337 37.0134 15.6449C37.0031 15.6536 36.9957 15.6651 36.9919 15.6781C36.8943 15.9364 36.7733 16.1853 36.6305 16.4218C36.6275 16.3639 36.6301 16.3058 36.6384 16.2484C36.6047 16.3014 36.5737 16.3561 36.5455 16.4122C36.5391 16.4181 36.5261 16.4192 36.5134 16.4203C36.4908 16.4222 36.4688 16.4241 36.4839 16.4521C36.4969 16.4761 36.4791 16.4979 36.459 16.5224C36.4425 16.5426 36.4244 16.5647 36.4206 16.5915C36.4151 16.6305 36.405 16.6362 36.3886 16.6454C36.38 16.6503 36.3696 16.6562 36.3573 16.6684C36.358 16.6539 36.3686 16.6351 36.3772 16.6197C36.3872 16.6018 36.3946 16.5886 36.3807 16.5926C36.3735 16.5946 36.3675 16.5954 36.3621 16.5961C36.3479 16.5979 36.3379 16.5992 36.3224 16.6212C36.3338 16.4935 36.3606 16.3675 36.4022 16.2462C36.427 16.122 36.4699 16.0021 36.5295 15.8904C36.5596 15.7323 36.6196 15.5813 36.7064 15.4458C36.7367 15.3169 36.7865 15.1934 36.8542 15.0796L36.874 15.0805C36.8749 15.0619 36.8865 15.0359 36.8972 15.0117C36.9128 14.9766 36.9266 14.9457 36.9029 14.948L37.1079 14.7043C37.1735 14.5629 37.3571 14.1895 37.3571 14.1895L37.618 14.0279C37.618 14.0279 37.7018 13.8237 37.7066 13.7928C37.7156 13.7909 37.7069 13.7208 37.6983 13.6528C37.6906 13.5907 37.683 13.5303 37.6894 13.5247C37.702 13.5119 37.8477 13.347 37.8552 13.3306C37.8303 13.3294 37.8732 13.1158 37.8936 13.0142C37.8987 12.9888 37.9024 12.9703 37.9033 12.9641C38.0643 12.823 37.3571 12.8774 37.3571 12.8774C36.6445 12.9593 36.0942 12.8929 35.537 12.8256C34.9999 12.7608 34.4564 12.6952 33.7546 12.7609C33.7695 12.7243 33.8159 12.6424 33.8796 12.53C34.0064 12.3065 34.2016 11.9623 34.3535 11.6118C34.4693 11.3448 34.4828 11.201 34.4956 11.0645C34.5081 10.9316 34.5199 10.8057 34.6247 10.5798C34.6455 10.5481 34.6715 10.4565 34.6995 10.3581C34.7325 10.2419 34.7681 10.1163 34.8009 10.0691C34.8107 10.055 34.8751 9.92794 34.9411 9.79795C35.0103 9.66148 35.0811 9.52183 35.0919 9.50647C35.0989 9.49661 35.1047 9.47936 35.1106 9.462C35.1166 9.44431 35.1226 9.42649 35.1299 9.41626C35.1381 9.40476 35.1535 9.39102 35.1689 9.37725C35.1842 9.36353 35.1996 9.34979 35.208 9.33818C35.2317 9.30541 35.2434 9.27452 35.2551 9.2437C35.2672 9.21172 35.2793 9.17982 35.3047 9.14596C35.3095 9.13952 35.3201 9.13309 35.3306 9.12667C35.3411 9.1203 35.3515 9.11394 35.3563 9.10759C35.3645 9.09677 35.3778 9.08598 35.3909 9.07524C35.4038 9.06474 35.4167 9.05428 35.4246 9.04388C35.4389 9.02528 35.4483 9.00686 35.4575 8.98868C35.4669 8.97016 35.4762 8.95189 35.4904 8.93391C35.5771 8.82434 35.6596 8.72566 35.7305 8.6495C35.8148 8.55904 35.8864 8.57408 35.8574 8.69379C35.8574 8.69379 35.7305 8.90804 35.7217 9.00245C35.7162 9.06121 35.673 9.08756 35.639 9.10833C35.6184 9.12093 35.6011 9.13147 35.5977 9.14596C35.5957 9.15415 35.5946 9.16152 35.5935 9.1684C35.5897 9.19376 35.5869 9.21239 35.547 9.24007C35.5089 9.26658 35.4961 9.2996 35.4815 9.3374C35.4767 9.34977 35.4717 9.36265 35.4656 9.37597C35.4527 9.40384 35.4497 9.42122 35.4472 9.43561C35.4448 9.44915 35.4429 9.46005 35.4337 9.47454C35.4148 9.50444 35.3757 9.53248 35.3757 9.53248L35.2209 9.80185C35.2221 9.80002 35.2219 9.80184 35.2215 9.80583C35.2201 9.82191 35.2154 9.87322 35.2783 9.8617C35.2747 9.86552 35.284 9.85781 35.2973 9.84678C35.3206 9.82758 35.3559 9.79831 35.3563 9.80227C35.3965 9.89087 35.4556 9.80987 35.5466 9.68505C35.5914 9.62361 35.644 9.55157 35.7058 9.4839C35.7125 9.47653 35.7199 9.47256 35.7273 9.46859C35.7347 9.46458 35.7421 9.46057 35.7489 9.45308C35.7527 9.44878 35.7559 9.441 35.7592 9.43323C35.7623 9.42553 35.7655 9.41783 35.7693 9.41356C35.8142 9.36324 35.8579 9.31324 35.8984 9.26609C35.9055 9.25783 35.9105 9.24743 35.9155 9.23718C35.9203 9.22729 35.925 9.21754 35.9315 9.20996C35.9361 9.20452 35.9426 9.20134 35.949 9.19819C35.9553 9.1951 35.9615 9.19205 35.9658 9.18695C35.9702 9.18179 35.9765 9.17818 35.9827 9.17461C35.9887 9.17112 35.9947 9.16768 35.9987 9.1629C36.0044 9.15611 36.0079 9.14793 36.0114 9.13994C36.0147 9.13235 36.0179 9.12495 36.0228 9.11905C36.0867 9.04233 36.1288 8.99013 36.1331 8.98476C36.1343 8.98335 36.1362 8.98182 36.1387 8.97991C36.1459 8.97425 36.1574 8.9652 36.1656 8.94555C36.1683 8.93919 36.1728 8.93396 36.1776 8.92849C36.183 8.92227 36.1886 8.91574 36.1921 8.90688C36.1954 8.8987 36.2043 8.89425 36.2135 8.88972C36.223 8.88498 36.2328 8.88014 36.2364 8.87085C36.2671 8.79091 36.3213 8.65062 36.3415 8.60692C36.3471 8.59474 36.3811 8.56086 36.4286 8.51361C36.5514 8.39134 36.764 8.17959 36.8067 8.02301C36.8498 7.86505 36.9464 7.75043 37.0576 7.61864C37.0992 7.56929 37.1429 7.51755 37.1865 7.46022C37.2332 7.3988 37.2931 7.32362 37.3546 7.24637C37.5039 7.05887 37.6629 6.85924 37.6669 6.81506C37.6669 6.81506 37.8809 6.28243 37.9918 6.11043L38.5042 5.59339C38.5042 5.59339 38.6307 5.33656 38.7352 5.17418C38.7834 5.09935 38.8016 5.0165 38.819 4.93712C38.8394 4.84423 38.8588 4.75608 38.9239 4.69113C38.9239 4.69113 39.1898 4.5525 39.2853 4.42978C39.2853 4.42978 39.4377 4.12877 39.4801 4.07553C39.4906 4.06242 39.5142 4.0143 39.5399 3.96169C39.574 3.89205 39.6119 3.81452 39.6286 3.79982C39.6719 3.71381 39.8137 3.63178 39.9436 3.55656C40.0261 3.50883 40.1038 3.46384 40.1487 3.42232C40.1487 3.42232 40.4027 3.06768 40.4511 2.81934C40.4742 2.85855 40.4919 2.80789 40.5103 2.75495C40.5276 2.70518 40.5456 2.6534 40.5696 2.67243C40.5755 2.66121 40.5843 2.64707 40.5942 2.63126C40.6259 2.58048 40.6684 2.51248 40.6596 2.46865C40.801 2.33249 40.8169 2.26668 40.8585 2.09315C40.8617 2.08008 40.865 2.0664 40.8685 2.05204C40.8979 2.03061 40.9301 2.01215 40.9432 2.03553C40.9552 2.02312 40.9638 2.00781 40.968 1.9911C40.9731 1.9755 40.9739 1.95881 40.9703 1.9428C40.996 1.92379 41.0175 1.89955 41.0333 1.87166C41.0515 1.84686 41.1145 1.83836 41.1145 1.83836C41.1907 1.76191 41.1888 1.72658 41.1856 1.66864C41.1837 1.63494 41.1815 1.5936 41.1939 1.53207C41.2422 1.53427 41.2762 1.47604 41.3041 1.42606C41.3503 1.39893 41.4057 1.37408 41.4629 1.34843C41.5795 1.29613 41.7034 1.24053 41.7722 1.15552L41.7753 1.08733C41.7864 1.10672 41.809 1.07902 41.8342 1.04814C41.8508 1.0278 41.8685 1.00609 41.8848 0.99553C41.8816 0.993056 41.8777 0.99163 41.8736 0.991444C41.8696 0.991258 41.8655 0.992321 41.8621 0.994491C41.894 0.945427 41.9078 0.890205 41.9213 0.836052C41.9391 0.764709 41.9565 0.695222 42.0142 0.644118C42.0618 0.602036 42.0801 0.549509 42.0992 0.494772C42.1209 0.432581 42.1437 0.367536 42.2113 0.311711C42.2507 0.260022 42.265 0.231537 42.2811 0.199488C42.2966 0.168713 42.3137 0.134651 42.3563 0.0735992C42.36 0.0693526 42.3628 0.0650797 42.3647 0.0607843Z" fill="white"/>
<path d="M51.186 19.8874V0.0585938L45.7018 0.0596203L45.5828 0.670353C45.5652 0.698813 45.495 0.76161 45.4168 0.831491C45.2852 0.9492 45.1311 1.08701 45.1685 1.11469C45.1482 1.12971 45.1351 1.21384 45.1222 1.29624C45.1083 1.38533 45.0947 1.47239 45.0728 1.46789C45.0013 1.54733 44.6953 1.92764 44.6918 1.93961C44.6934 1.95386 44.6924 1.96828 44.6888 1.98217C44.7018 2.00019 44.7044 2.00323 44.7314 1.98516C44.7583 1.9671 44.7083 2.02916 44.6891 2.01926C44.7043 2.08591 44.6571 2.14968 44.6571 2.14968C44.6571 2.14968 44.5515 2.34395 44.5557 2.40664L44.5515 2.46622C44.4902 2.5418 44.4447 2.65396 44.408 2.74452C44.3875 2.79513 44.3697 2.83899 44.3534 2.86595C44.3276 2.90878 44.2939 2.93504 44.266 2.95679C44.2449 2.97323 44.2271 2.98709 44.2186 3.00358C44.1986 3.04189 44.1987 3.12702 44.1987 3.12702C44.1987 3.12702 44.1559 3.24394 44.1251 3.276C44.1251 3.276 44.0566 3.40088 44.0503 3.48914C44.0251 3.52443 43.9846 3.58928 43.9967 3.61865C44.0089 3.64802 43.9363 3.68845 43.9363 3.68845C43.9319 3.69227 43.9294 3.70283 43.9261 3.71637C43.9203 3.74022 43.9123 3.7733 43.8881 3.79503C43.8699 3.82214 43.8699 3.8367 43.8699 3.85356C43.8699 3.86725 43.87 3.88245 43.8602 3.90713L43.7975 3.98825C43.7776 4.05369 43.7474 4.09005 43.7157 4.12829C43.6825 4.16836 43.6475 4.21049 43.6209 4.29029C43.6069 4.3053 43.6035 4.36428 43.5996 4.43345C43.594 4.53318 43.5871 4.65407 43.5454 4.69475C43.5454 4.69475 43.4982 4.75389 43.4615 4.89347C43.4411 4.97091 43.4111 5.0123 43.3884 5.04358C43.3702 5.06868 43.3568 5.08727 43.3568 5.11276C43.3448 5.14411 43.3424 5.18726 43.3401 5.2289C43.3385 5.25844 43.337 5.28722 43.332 5.3105C43.3047 5.36769 43.2952 5.38543 43.2776 5.41849C43.2604 5.45076 43.2354 5.49761 43.1784 5.60994C43.1784 5.60994 43.1248 5.75992 43.0513 5.86418C42.9777 5.96845 42.8852 6.1419 42.8608 6.19271C42.8522 6.21059 42.8477 6.24099 42.8426 6.27599C42.8332 6.3404 42.8215 6.42042 42.7775 6.46677C42.7096 6.53831 42.6755 6.62225 42.6755 6.62225C42.6239 6.73829 42.6341 6.96057 42.6341 6.96057L42.7775 6.99318C42.7775 6.99318 42.7315 7.09327 43.0421 6.97833C43.05 6.97714 43.0742 6.97691 43.1045 6.97662C43.1756 6.97595 43.2809 6.97495 43.2931 6.96057C43.3287 6.96308 43.3745 6.97172 43.4243 6.98111C43.557 7.00616 43.7176 7.03648 43.7862 6.96941C43.8419 6.97296 43.9496 6.98575 43.9496 6.98575L44.7431 6.95259C44.7431 6.95259 44.8555 6.94935 44.857 6.96941C44.857 6.96941 44.9804 6.91882 44.9904 6.93948C45.0602 6.92695 45.0974 6.96483 45.1335 7.00163C45.171 7.03976 45.2073 7.07675 45.2776 7.05529C45.2824 7.06321 45.3132 7.05714 45.3515 7.04959C45.414 7.03725 45.4965 7.02098 45.5187 7.05529C45.4636 7.10845 45.5608 7.1817 45.8113 6.99443C45.8642 6.97872 45.8664 7.02511 45.8687 7.07619C45.8705 7.11508 45.8724 7.15668 45.897 7.17566C45.8979 7.16212 45.9761 7.16224 46.0422 7.16234C46.0868 7.16241 46.126 7.16247 46.132 7.15829C46.1022 7.17616 46.4293 7.19574 46.4293 7.19574C46.4293 7.19574 46.5627 7.21213 46.614 7.32061C46.5962 7.34871 46.6276 7.36418 46.6577 7.37904C46.6656 7.38294 46.6735 7.38681 46.6803 7.39085C46.6551 7.46606 46.5019 7.53514 46.3476 7.58131C46.3188 7.58397 46.2554 7.57402 46.1806 7.56229C46.015 7.53631 45.7938 7.50162 45.7712 7.57616C45.7434 7.64642 45.6392 7.65691 45.5426 7.66663C45.4829 7.67264 45.426 7.67837 45.392 7.69777C45.284 7.67699 45.0156 7.72772 45.0156 7.72772C44.9887 7.73577 44.9566 7.74253 44.9242 7.74937C44.8447 7.76612 44.7631 7.78331 44.7503 7.82088C44.7309 7.81951 44.7394 7.80915 44.7471 7.79986C44.7551 7.79019 44.7622 7.78168 44.7357 7.78564C44.6838 7.7934 44.3978 7.78564 44.3978 7.78564C44.3302 7.78314 44.2653 7.78056 44.2028 7.77808C43.5117 7.75064 43.1175 7.73498 42.6646 7.96464C42.6448 7.96324 42.6198 8.0879 42.8374 8.06807C42.8996 8.07796 42.9633 8.07366 43.0236 8.05549C43.0224 8.07252 43.0188 8.12359 43.0384 8.0879C43.049 8.06867 43.0729 8.0719 43.0917 8.07444C43.1077 8.07661 43.1201 8.07828 43.117 8.06491L43.118 8.05073C43.118 8.05073 44.1992 8.00169 44.2164 8.00004C44.2019 8.00828 44.0028 8.02647 43.7722 8.04753C43.4345 8.07838 43.0292 8.11539 43.0379 8.13633C43.0586 8.13222 43.1183 8.13621 43.2085 8.14224C43.395 8.15473 43.7124 8.17597 44.0869 8.15233C44.1116 8.14979 44.1347 8.147 44.157 8.14431C44.2203 8.13668 44.2773 8.12981 44.3479 8.13147C44.3669 8.13934 44.3999 8.13652 44.4318 8.13379C44.4519 8.13207 44.4716 8.13039 44.487 8.13147C44.5267 8.13426 44.6152 8.12142 44.6089 8.11826C44.6089 8.11826 44.6841 8.10343 44.7357 8.10705C44.7826 8.11035 44.7917 8.12177 44.8016 8.13426C44.8043 8.13764 44.8071 8.14109 44.8106 8.14448C44.8274 8.16043 44.9196 8.212 45.0036 8.15233C45.0251 8.15384 45.0296 8.16082 45.0341 8.16771C45.0379 8.17356 45.0417 8.17934 45.0557 8.18165C45.0762 8.18309 45.0925 8.16761 45.1057 8.15512C45.1181 8.14336 45.1277 8.13426 45.1353 8.14448C45.1433 8.15518 45.163 8.14534 45.186 8.13385C45.2083 8.12273 45.2336 8.11007 45.2544 8.11294C45.2699 8.11641 45.2985 8.11287 45.3245 8.10966C45.3627 8.10493 45.3951 8.10093 45.3708 8.12111C45.25 8.14688 45.1226 8.22729 45.1226 8.22729C45.0945 8.24966 45.0557 8.29338 45.1083 8.28514C45.3471 8.19398 45.3897 8.17662 45.3897 8.17662C45.5706 8.11805 45.9265 8.1089 46.2197 8.11501C46.5129 8.12111 46.6026 8.29674 46.5914 8.50625C46.5856 8.61537 46.4529 8.74231 46.3173 8.87194C46.1927 8.99119 46.0656 9.11272 46.0328 9.22474C46.009 9.30595 45.5584 9.87082 45.5584 9.87082C45.5584 9.87082 45.4566 10.0573 45.3498 10.1404C45.3498 10.1404 45.1898 10.2664 45.1232 10.3273C45.0781 10.3751 45.0265 10.5001 44.9751 10.6245C44.9315 10.7297 44.8882 10.8345 44.8493 10.8916C44.7877 10.9664 44.7206 11.0994 44.6556 11.2282C44.5988 11.3407 44.5436 11.4501 44.4952 11.5145C44.4783 11.5308 44.449 11.5624 44.4145 11.5995C44.3368 11.6832 44.233 11.795 44.1882 11.8215C44.1169 11.8636 44.1078 11.9197 44.0989 11.9744C44.0922 12.0156 44.0856 12.056 44.0526 12.0893C44.0407 12.1013 44.0195 12.1146 43.9978 12.1282C43.9687 12.1465 43.9384 12.1655 43.9271 12.1834C43.8267 12.3431 43.6826 12.513 43.5488 12.6707C43.5007 12.7275 43.4539 12.7826 43.411 12.8352C43.4099 12.8512 43.4274 12.8433 43.4399 12.8377C43.454 12.8314 43.4617 12.828 43.4289 12.865C43.3966 12.9013 43.3674 12.8987 43.3378 12.896C43.3105 12.8936 43.2828 12.8911 43.2521 12.919C43.2154 12.9524 43.2324 12.9558 43.2462 12.9586C43.2564 12.9607 43.2649 12.9624 43.2481 12.9758C43.2312 12.9894 43.2208 12.9853 43.212 12.9819C43.2004 12.9775 43.1916 12.974 43.1742 13.0134C43.1567 13.053 43.1407 13.0852 43.1239 13.119C43.1113 13.1442 43.0984 13.1703 43.084 13.2009C43.0644 13.2165 43.0515 13.2391 43.0482 13.264C43.0244 13.2804 43.0112 13.3365 42.9936 13.4111C42.9798 13.4697 42.9633 13.5398 42.9368 13.611C42.8766 13.7727 42.7211 14.0179 42.6095 14.1036C42.464 14.1993 42.3295 14.4791 42.3295 14.4791C42.297 14.525 42.0834 14.8103 42.0834 14.8103L41.8081 15.194C41.7857 15.2363 41.6997 15.3953 41.6274 15.459C41.5318 15.5207 41.4548 15.8064 41.4548 15.8064C41.4109 15.8632 41.2936 15.9942 41.2936 15.9942C41.2591 16.0374 41.1777 16.1059 41.1777 16.1059C41.1777 16.1059 41.1598 16.1921 41.0791 16.2616C41.067 16.2768 41.0561 16.2894 41.0462 16.3009C41.0167 16.3351 40.9952 16.3599 40.9715 16.4185C40.948 16.4767 40.8528 16.5641 40.8528 16.5641L40.7744 16.6885C40.7648 16.7201 40.7213 16.7674 40.681 16.8113C40.6429 16.8527 40.6077 16.891 40.6063 16.9103C40.5769 16.8826 40.5055 17.0571 40.5055 17.0571C40.5055 17.0571 40.4199 17.1529 40.3957 17.2195C40.3957 17.2195 40.2566 17.2312 40.236 17.281C40.2136 17.3289 39.1078 18.8708 39.1078 18.8708L38.9833 19.2175C38.9407 19.3224 38.8685 19.3846 38.7921 19.4504C38.7453 19.4907 38.6969 19.5324 38.6529 19.5861C38.6528 19.5882 38.6526 19.5905 38.6524 19.5931C38.6499 19.6307 38.6448 19.7084 38.6159 19.7384C38.5933 19.725 38.6046 19.702 38.6136 19.6836C38.6221 19.6664 38.6286 19.6531 38.6036 19.6555C38.547 19.7253 38.4944 19.8416 38.4785 19.8782H38.6187L51.186 19.8874Z" fill="white"/>
<path fill-rule="evenodd" clip-rule="evenodd" d="M81.3496 19.8704V0.0605469H89.3135C90.2989 0.0695079 91.2821 0.154256 92.2545 0.314045C92.5816 0.393797 96.5209 1.33943 96.5209 4.81719C96.5209 7.70535 94.5299 9.18076 93.4917 9.50262C93.8842 9.56813 97.3232 10.4204 97.3232 14.1858C97.3232 18.4241 93.358 19.7451 90.5053 19.8704H81.3496ZM86.8556 15.3929V11.5876H89.797C90.4654 11.5876 91.8108 11.955 91.8108 13.419C91.8108 14.9685 90.4654 15.3359 89.797 15.3929H86.8556ZM86.8556 4.42697V7.7851H89.5126C90.1128 7.73383 91.3301 7.41198 91.3301 6.04195C91.3301 4.75168 90.1128 4.42697 89.5126 4.42697H86.8556Z" fill="white"/>
<path fill-rule="evenodd" clip-rule="evenodd" d="M0.234375 19.8688L8.2529 0.0585938H13.7578L21.6819 19.8688H15.6743L14.3717 16.3298H7.403L6.11426 19.8688H0.234375ZM10.9276 6.09864L8.81951 12.0678H13.0662L10.9276 6.09864Z" fill="white"/>
<path d="M54.5156 0.0605469V19.8745H60.0264L59.7732 7.00366H59.9354L64.2771 19.8745H68.1026L72.6114 7.00366H72.8304L72.5972 19.8745H78.1087V0.0605469H70.2222L66.4018 12.004L62.3843 0.0605469H54.5156Z" fill="white"/>
<path fill-rule="evenodd" clip-rule="evenodd" d="M120.233 9.89433C120.266 12.101 119.566 14.2564 118.244 16.0241C116.333 18.5205 113.196 19.8823 109.756 19.8823C106.316 19.8823 103.226 18.6288 101.328 16.1433C99.9885 14.3436 99.2686 12.1587 99.2764 9.91599C99.2452 7.70745 99.9457 5.55053 101.269 3.78076C103.177 1.28443 106.316 0.0498047 109.756 0.0498047C113.196 0.0498047 116.308 1.26548 118.206 3.75098C119.537 5.52152 120.25 7.67995 120.233 9.89433ZM109.755 15.1608C112.496 15.1608 114.717 12.835 114.717 9.96607C114.717 7.09711 112.496 4.77136 109.755 4.77136C107.014 4.77136 104.793 7.09711 104.793 9.96607C104.793 12.835 107.014 15.1608 109.755 15.1608Z" fill="white"/>
</svg>
