<svg width="124" height="27" viewBox="0 0 124 27" fill="none" xmlns="http://www.w3.org/2000/svg">
<g clip-path="url(#clip0_324_218010)">
<path d="M123.407 11.9277V9.7574H120.712V6.38337L120.621 6.4113L118.09 7.18584L118.04 7.201V9.75752H114.045V8.33332C114.045 7.67016 114.193 7.16268 114.485 6.82424C114.775 6.48986 115.19 6.31986 115.72 6.31986C116.1 6.31986 116.494 6.40951 116.891 6.58632L116.99 6.63072V4.34508L116.944 4.32789C116.574 4.1949 116.071 4.12793 115.447 4.12793C114.661 4.12793 113.946 4.299 113.323 4.63804C112.7 4.97756 112.21 5.46224 111.866 6.07847C111.524 6.694 111.35 7.4049 111.35 8.19161V9.7574H109.474V11.9277H111.35V21.0709H114.045V11.9277H118.04V17.738C118.04 20.131 119.169 21.3437 121.395 21.3437C121.761 21.3437 122.146 21.3008 122.539 21.2169C122.939 21.1307 123.211 21.0446 123.372 20.9527L123.407 20.9317V18.7413L123.298 18.8138C123.152 18.9112 122.969 18.9908 122.756 19.05C122.542 19.1103 122.363 19.1405 122.224 19.1405C121.702 19.1405 121.317 19 121.077 18.7227C120.835 18.4429 120.712 17.9535 120.712 17.269V11.9277H123.407ZM103.458 19.1409C102.48 19.1409 101.709 18.8166 101.165 18.178C100.619 17.5361 100.342 16.6209 100.342 15.4581C100.342 14.2585 100.619 13.3196 101.166 12.6663C101.709 12.0174 102.473 11.688 103.436 11.688C104.37 11.688 105.113 12.0026 105.646 12.6235C106.181 13.2476 106.453 14.179 106.453 15.3926C106.453 16.6211 106.198 17.5648 105.694 18.1961C105.193 18.8226 104.441 19.1409 103.458 19.1409ZM103.577 9.48485C101.712 9.48485 100.23 10.0315 99.1735 11.1096C98.1177 12.1878 97.5824 13.68 97.5824 15.5449C97.5824 17.3163 98.105 18.7411 99.1357 19.7791C100.166 20.8174 101.569 21.3434 103.305 21.3434C105.113 21.3434 106.565 20.7892 107.621 19.6961C108.677 18.6043 109.212 17.1262 109.212 15.3049C109.212 13.5058 108.71 12.0704 107.72 11.0393C106.729 10.0077 105.335 9.48485 103.577 9.48485ZM93.2388 9.48485C91.9698 9.48485 90.9201 9.80945 90.1182 10.4494C89.3115 11.0933 88.9022 11.9376 88.9022 12.9594C88.9022 13.4905 88.9906 13.9623 89.1644 14.3625C89.3393 14.7639 89.6099 15.1174 89.9695 15.4141C90.3263 15.7084 90.8771 16.0166 91.607 16.3302C92.2206 16.5827 92.6782 16.7963 92.9689 16.9646C93.253 17.1296 93.4546 17.2954 93.5685 17.4569C93.6792 17.615 93.7353 17.8313 93.7353 18.0982C93.7353 18.8583 93.1661 19.2281 91.9949 19.2281C91.5605 19.2281 91.0649 19.1374 90.5221 18.9586C89.9831 18.7825 89.4744 18.5245 89.0138 18.1938L88.902 18.1136V20.7074L88.9431 20.7265C89.3242 20.9024 89.8049 21.0508 90.3713 21.1676C90.9367 21.2845 91.4504 21.3439 91.8966 21.3439C93.2737 21.3439 94.3826 21.0178 95.1917 20.374C96.006 19.7257 96.4187 18.8614 96.4187 17.8043C96.4187 17.0417 96.1966 16.3877 95.7587 15.8603C95.3238 15.3372 94.5689 14.8569 93.5161 14.4324C92.6774 14.0958 92.14 13.8163 91.9183 13.6018C91.7047 13.3945 91.5961 13.1015 91.5961 12.7303C91.5961 12.4013 91.7301 12.1377 92.005 11.9243C92.2821 11.7097 92.6678 11.6006 93.1515 11.6006C93.6004 11.6006 94.0597 11.6715 94.5164 11.8105C94.9728 11.9494 95.3737 12.1356 95.7083 12.3632L95.8184 12.4384V9.97801L95.7761 9.95986C95.4674 9.82747 95.0603 9.71418 94.5658 9.62226C94.0736 9.53093 93.6272 9.48485 93.2388 9.48485ZM81.879 19.1409C80.9014 19.1409 80.1302 18.8166 79.587 18.178C79.0403 17.5361 78.7638 16.6211 78.7638 15.4581C78.7638 14.2585 79.0406 13.3196 79.5876 12.6663C80.1308 12.0174 80.8942 11.688 81.8574 11.688C82.7912 11.688 83.5348 12.0026 84.0676 12.6235C84.603 13.2476 84.8746 14.179 84.8746 15.3926C84.8746 16.6211 84.619 17.5648 84.1152 18.1961C83.6149 18.8226 82.8629 19.1409 81.879 19.1409ZM81.9991 9.48485C80.1331 9.48485 78.6512 10.0315 77.5953 11.1096C76.5395 12.1878 76.0038 13.68 76.0038 15.5449C76.0038 17.317 76.5267 18.7411 77.5575 19.7791C78.5882 20.8174 79.9908 21.3434 81.7262 21.3434C83.5343 21.3434 84.9869 20.7892 86.043 19.6961C87.0986 18.6043 87.6338 17.1262 87.6338 15.3049C87.6338 13.5058 87.1317 12.0704 86.141 11.0393C85.1498 10.0077 83.7561 9.48485 81.9991 9.48485ZM71.9144 11.7167V9.7574H69.2532V21.0707H71.9144V15.2835C71.9144 14.2994 72.1375 13.491 72.5778 12.8804C73.0124 12.277 73.5917 11.9713 74.2989 11.9713C74.5386 11.9713 74.8077 12.0108 75.0991 12.089C75.3875 12.1667 75.5964 12.2511 75.7196 12.3399L75.8315 12.421V9.73806L75.7884 9.71955C75.5405 9.61426 75.1899 9.56114 74.7463 9.56114C74.0775 9.56114 73.4791 9.77602 72.9665 10.1991C72.5165 10.571 72.1913 11.0808 71.9427 11.7167H71.9144ZM64.4874 9.48485C63.2665 9.48485 62.1775 9.74665 61.2513 10.2627C60.3231 10.78 59.6053 11.5185 59.1169 12.4575C58.6306 13.3943 58.3838 14.4885 58.3838 15.7088C58.3838 16.7778 58.6231 17.7587 59.0962 18.6232C59.5696 19.4892 60.2395 20.1667 61.0876 20.6366C61.9345 21.1059 62.9133 21.3438 63.997 21.3438C65.2617 21.3438 66.3415 21.0909 67.2072 20.5923L67.2422 20.5722V18.1341L67.1304 18.2158C66.7382 18.5015 66.3 18.7295 65.8284 18.8938C65.3581 19.0579 64.9292 19.1409 64.5532 19.1409C63.509 19.1409 62.6707 18.8141 62.0622 18.17C61.4524 17.525 61.1432 16.6192 61.1432 15.4795C61.1432 14.3326 61.4657 13.4036 62.1011 12.7181C62.7347 12.0347 63.5745 11.688 64.5971 11.688C65.4718 11.688 66.3242 11.9842 67.1306 12.5691L67.2422 12.6502V10.0813L67.2062 10.061C66.9027 9.8911 66.4888 9.75083 65.975 9.64446C65.4633 9.53834 64.9629 9.48485 64.4874 9.48485ZM56.5509 9.75752H53.8897V21.0707H56.5509V9.75752ZM55.2475 4.93804C54.8095 4.93804 54.4275 5.08715 54.1137 5.38261C53.7985 5.67891 53.6387 6.05197 53.6387 6.49224C53.6387 6.92559 53.7966 7.29185 54.1088 7.58027C54.4189 7.86786 54.8021 8.01362 55.2477 8.01362C55.6931 8.01362 56.0777 7.86786 56.3916 7.58075C56.7074 7.29185 56.8677 6.92571 56.8677 6.49224C56.8677 6.06737 56.7117 5.69813 56.4046 5.39455C56.0977 5.09156 55.7082 4.93804 55.2475 4.93804ZM48.6077 8.92281V21.0707H51.3235V5.28436H47.5646L42.7868 17.01L38.1502 5.28436H34.2383V21.0705H36.7905V8.92162H36.8781L41.7742 21.0707H43.7003L48.52 8.92281H48.6077Z" fill="#706D6E"/>
<path d="M12.5191 12.5298H0V0.0107422H12.5191V12.5298Z" fill="#F1511B"/>
<path d="M26.3431 12.5298H13.8242V0.0107422H26.3431V12.5298Z" fill="#80CC28"/>
<path d="M12.5187 26.3559H0V13.8369H12.5187V26.3559Z" fill="#00ADEF"/>
<path d="M26.3431 26.3559H13.8242V13.8369H26.3431V26.3559Z" fill="#FBBC09"/>
</g>
<defs>
<clipPath id="clip0_324_218010">
<rect width="123.408" height="26.36" fill="white" transform="translate(0 0.00195312)"/>
</clipPath>
</defs>
</svg>
