<svg width="36" height="56" viewBox="0 0 36 56" fill="none" xmlns="http://www.w3.org/2000/svg">
<path d="M14.3723 11.1152C17.018 12.7109 19.1628 14.6275 21.2412 16.6451C22.8802 18.2291 24.3691 19.9311 25.7585 21.7846C27.3343 23.9052 28.6257 26.1279 29.5331 28.6038C30.0974 30.0592 30.5954 31.6154 30.959 33.1555C31.2183 34.1934 31.5614 35.214 31.6863 36.2358C31.7575 36.7885 31.8793 37.3745 31.9172 37.9777C32.0232 38.6979 32.1292 39.418 32.2351 40.1382C32.3253 40.9925 32.4155 41.8469 32.5056 42.7012C32.5958 43.5555 32.6686 44.3262 32.7082 45.1472C32.7619 45.6162 32.732 46.1024 32.7857 46.5715C32.8237 47.1747 32.8285 47.8283 32.8665 48.4315C33.0295 50.0564 32.8226 51.5827 32.5825 53.1594C32.5178 53.4781 32.3187 53.7808 32.1528 54.0331C31.8541 54.4871 31.8921 55.0903 32.1972 55.5078C32.2651 55.6247 32.4168 55.7245 32.5512 55.7406C33.0048 55.8221 33.4409 55.8199 33.7918 55.6171C34.0256 55.4818 34.1758 55.3637 34.2911 55.0782C34.4886 54.5576 34.7193 53.9866 34.7319 53.4167C34.8076 52.3101 34.8834 51.2036 34.9591 50.097C35.098 48.4538 35.0188 46.8116 34.8559 45.1867C34.636 42.657 34.3655 40.094 34.0112 37.5482C33.7107 35.4714 33.1258 33.4966 32.4903 31.4885C31.9749 29.8486 31.3932 28.3096 30.6771 26.7544C29.4679 24.2967 27.9584 22.0752 26.2482 19.9385C24.3689 17.6182 22.3568 15.4997 20.0777 13.567C18.4229 12.1172 16.7018 10.7682 14.8147 9.67154C12.6747 8.40851 10.519 7.27965 8.16414 6.45347C7.92865 6.37086 7.69317 6.28824 7.49087 6.15517C7.00251 5.90622 6.86657 5.67226 7.09725 5.10125C7.31053 4.44651 7.57439 3.82505 7.78768 3.17031C7.88562 2.80109 8.08472 2.4984 8.41815 2.21179C8.56827 2.09372 8.59986 1.82539 8.48132 1.67514C8.2948 1.40791 8.12568 1.2244 7.90599 1.00762C7.61832 0.673855 7.01302 0.492536 6.56265 0.846772C5.96215 1.31909 5.2589 1.50699 4.55566 1.6949C3.51737 1.95153 2.49648 2.29188 1.50878 2.58178C1.17374 2.6505 0.906678 2.83621 0.60643 3.07237C0.423123 3.2409 0.274605 3.57686 0.377358 3.86127C0.497504 4.22939 0.617643 4.59752 1.08861 4.76275C1.47582 4.94517 1.71291 5.24566 1.83306 5.61379C2.22668 6.66772 2.40221 7.72275 2.51137 8.87867C2.53037 9.18026 2.43242 9.54948 2.41823 9.90152C2.33928 10.5723 2.62855 11.124 3.03475 11.608C3.08533 11.6413 3.27023 11.6906 3.30342 11.6402C3.62106 11.4877 3.88813 11.302 4.20576 11.1496C4.5234 10.9971 4.77308 10.7277 4.83784 10.4089C5.06692 9.62003 5.4809 8.88049 5.81113 8.15812C5.89329 7.92306 6.02602 7.72127 6.10817 7.48621C6.2567 7.15025 6.54115 7.04826 6.96154 7.18022C9.13148 7.95705 11.2193 8.96893 13.2249 10.2159C13.7654 10.716 14.1195 10.9488 14.3723 11.1152Z" fill="white"/>
</svg>
