<svg width="17" height="16" viewBox="0 0 17 16" fill="none" xmlns="http://www.w3.org/2000/svg">
<path d="M12.3889 15H8.5C7.11553 15 5.76215 14.5895 4.61101 13.8203C3.45987 13.0511 2.56266 11.9579 2.03285 10.6788C1.50303 9.3997 1.36441 7.99224 1.63451 6.63437C1.9046 5.2765 2.57129 4.02922 3.55026 3.05026C4.52922 2.07129 5.7765 1.4046 7.13437 1.13451C8.49224 0.86441 9.8997 1.00303 11.1788 1.53285C12.4579 2.06266 13.5511 2.95987 14.3203 4.11101C15.0895 5.26215 15.5 6.61553 15.5 8V9.16667C15.5 9.68237 15.2951 10.1769 14.9305 10.5416C14.5658 10.9063 14.0713 11.1111 13.5556 11.1111C13.0399 11.1111 12.5453 10.9063 12.1806 10.5416C11.816 10.1769 11.6111 9.68237 11.6111 9.16667V8C11.6111 7.17488 11.2833 6.38356 10.6999 5.80011C10.1164 5.21667 9.32512 4.88889 8.5 4.88889V4.88889C7.88468 4.88889 7.28318 5.07136 6.77156 5.41321C6.25994 5.75506 5.86118 6.24095 5.62571 6.80943C5.39024 7.37791 5.32863 8.00345 5.44867 8.60695C5.56871 9.21045 5.86502 9.76479 6.30011 10.1999C6.73521 10.635 7.28956 10.9313 7.89305 11.0513C8.49655 11.1714 9.12209 11.1098 9.69057 10.8743C10.2591 10.6388 10.7449 10.2401 11.0868 9.72844C11.4286 9.21682 11.6111 8.61532 11.6111 8" stroke="#444549" stroke-width="1.5" stroke-linecap="round" stroke-linejoin="round"/>
</svg>
