<svg width="170" height="171" viewBox="0 0 170 171" fill="none" xmlns="http://www.w3.org/2000/svg">
<g clip-path="url(#clip0_962_385837)">
<path d="M49.1711 154.256L1.4375 159.605L59.4089 160.752L53.5041 167.249L81.4564 160.752H140.122L123.587 157.011L151.954 155.066L112.167 151.106L103.112 146.381L81.8517 149.531L28.6987 148.351L49.1711 154.256Z" fill="black"/>
<path d="M49.238 154.263C43.346 154.951 31.4207 156.397 25.5319 157.156C17.5506 158.146 9.51463 159.123 1.49153 160.071L1.44975 159.149C17.9813 159.425 43.1082 159.833 59.4244 160.203L60.6555 160.229C60.3019 160.621 54.4356 167.005 53.9053 167.603L53.3878 166.751C53.4585 166.751 81.3947 160.441 81.459 160.447C97.6145 160.579 116.618 160.57 132.793 160.518L140.125 160.473L140.06 161.036L123.503 157.394L120.932 156.828L137.74 155.542L151.918 154.488L151.899 155.668C140.536 154.584 123.313 152.919 112.105 151.81H111.973L111.854 151.749L102.802 146.979L103.214 147.047L81.9443 150.136C68.6561 149.814 41.9831 149.043 28.6949 148.644L28.7849 148.069C35.6122 150.097 42.4492 152.267 49.238 154.263ZM49.1126 154.263C42.2531 152.334 35.4386 150.55 28.6209 148.647L26.4287 148.037L28.7077 148.069L55.2875 148.464C55.2875 148.496 82.2111 148.908 81.7643 148.94L103.015 145.726L103.23 145.693L103.426 145.793L112.487 150.505L112.24 150.431C123.4 151.524 140.745 153.324 152.015 154.488L151.995 155.664C144.898 156.121 130.707 156.995 123.616 157.41L123.673 156.642L140.186 160.499L142.664 161.074H140.125C123.976 160.968 104.963 160.981 88.7942 161.048L81.459 161.103C81.8093 161.052 53.5485 167.795 53.6224 167.792L52.0152 168.181C52.5584 167.538 58.2993 161.228 59.0129 160.415L59.4147 161.347C43.1692 161.084 17.8527 160.47 1.44332 160.103L1.38867 159.146C16.7181 157.5 33.6997 155.905 49.1126 154.25V154.263Z" fill="#F43B00"/>
<path d="M81.8555 149.531V160.753" stroke="#F43B00" stroke-width="1.28575" stroke-miterlimit="10"/>
<path d="M49.1758 154.256V160.55" stroke="#F43B00" stroke-width="1.28575" stroke-miterlimit="10"/>
<path d="M59.4121 160.752V165.876" stroke="#F43B00" stroke-width="1.28575" stroke-miterlimit="10"/>
<path d="M112.17 151.105V160.752" stroke="#F43B00" stroke-width="1.28575" stroke-miterlimit="10"/>
<path d="M123.586 157.01V160.751" stroke="#F43B00" stroke-width="1.28575" stroke-miterlimit="10"/>
<path d="M65.3552 75.7835C65.3536 75.7184 65.3518 75.6631 65.35 75.6169L85.9095 77.3339L85.9108 77.3341L85.9117 77.3341L85.9159 77.3346L85.9367 77.3367L86.0193 77.3453C86.0924 77.353 86.201 77.3647 86.3428 77.3806C86.6265 77.4123 87.0433 77.4608 87.5749 77.5276C88.6382 77.6614 90.1609 77.8687 91.9978 78.163C95.6719 78.7517 100.601 79.6881 105.622 81.0788C110.646 82.47 115.754 84.3136 119.791 86.7137C123.832 89.1165 126.77 92.0586 127.51 95.6346C129.014 102.903 129.473 114.042 129.556 123.375C129.598 128.04 129.545 132.249 129.482 135.292C129.45 136.814 129.416 138.044 129.39 138.893C129.377 139.318 129.365 139.648 129.357 139.871C129.355 139.945 129.353 140.007 129.351 140.057H112.954L112.961 139.909C112.972 139.701 112.987 139.395 113.006 139.003C113.042 138.219 113.092 137.09 113.144 135.708C113.249 132.946 113.362 129.175 113.399 125.141C113.436 121.107 113.397 116.81 113.194 112.994C112.993 109.183 112.628 105.839 112.01 103.722C111.36 101.493 109.171 99.8847 106.324 98.7181C103.469 97.5481 99.9066 96.8038 96.4329 96.3303C92.9574 95.8567 89.5618 95.653 87.0358 95.5676C85.7726 95.5249 84.7264 95.5118 83.9958 95.5094C83.6304 95.5082 83.344 95.5097 83.1487 95.5114C83.0511 95.5123 82.9763 95.5133 82.9258 95.514L82.8685 95.5149L82.8539 95.5152L82.8502 95.5152L82.8492 95.5153C82.849 95.5153 82.8489 95.5153 82.8521 95.676L82.8489 95.5153L82.7135 95.518L82.6932 95.6518C81.309 104.764 79.3848 113.785 76.9307 122.669C75.4443 127.96 72.2607 135.714 69.4451 142.151C68.0379 145.368 66.7238 148.254 65.7615 150.336C65.2804 151.376 64.8872 152.216 64.6143 152.795C64.4779 153.085 64.3715 153.31 64.2993 153.462L64.2326 153.602H44.8984L44.9711 153.436C45.0831 153.181 45.2474 152.806 45.4566 152.328C45.8751 151.371 46.4736 150 47.1932 148.346C48.6326 145.037 50.5569 140.592 52.497 136.049C54.437 131.505 56.393 126.862 57.8955 123.156C58.6467 121.303 59.2849 119.684 59.7512 118.428C60.2148 117.18 60.5151 116.274 60.5809 115.858L60.5809 115.858C63.2572 98.9149 64.4471 88.813 64.9678 82.9455C65.2282 80.0117 65.3214 78.1357 65.3494 76.9918C65.3633 76.4198 65.361 76.0306 65.3552 75.7835Z" fill="#F43B00" stroke="#F43B00" stroke-width="0.321438"/>
<mask id="path-9-inside-1_962_385837" fill="white">
<path d="M50.0364 22.6615C52.0871 30.9 60.5763 30.4178 67.394 30.8646C69.1556 30.9578 70.911 31.1444 72.6528 31.4239C74.3918 31.7035 76.1114 32.0957 77.8151 32.4911C80.8012 33.2047 83.1027 33.6065 85.3303 31.0735C86.1146 29.8488 86.5132 28.3509 87.005 26.9752C87.1818 26.4416 87.5225 25.3519 87.6832 24.8183C87.6649 24.8779 87.6669 24.9418 87.689 25C87.7112 25.0583 87.7521 25.1075 87.8054 25.1398C86.9728 24.7508 86.06 23.928 85.8028 22.9122C85.2821 20.8164 86.9761 18.4378 89.2101 18.7817C89.7667 18.8413 90.3097 18.9923 90.8172 19.2285C90.8751 19.2542 90.7883 19.2125 90.7497 19.2092C90.6974 19.202 90.644 19.2056 90.5931 19.22C90.5422 19.2344 90.4949 19.2592 90.454 19.2928C90.4331 19.3127 90.4137 19.3342 90.3962 19.3571C90.611 19.0772 90.8719 18.8359 91.1676 18.6435C92.3878 17.8792 93.8075 17.4943 95.2467 17.5378C96.4858 17.6896 97.7432 17.5293 98.9046 17.0717C98.9593 17.0492 99.2807 16.9335 99.3418 16.9045L99.4157 16.8756C99.4754 16.8491 99.538 16.8297 99.6021 16.8177C99.7102 16.7974 99.8213 16.8004 99.928 16.8265C100.035 16.8527 100.135 16.9013 100.221 16.9691C100.308 17.037 100.379 17.1226 100.429 17.2201C100.48 17.3176 100.509 17.4248 100.515 17.5345C100.52 17.609 100.513 17.6838 100.496 17.7563C100.39 18.289 100.252 18.8149 100.084 19.3314C99.8071 20.1668 99.4797 20.9848 99.1039 21.7807C98.9966 22.1089 98.9766 22.4593 99.0459 22.7975C99.1152 23.1357 99.2715 23.45 99.4993 23.7094C99.8777 24.1756 100.325 24.5811 100.827 24.9116C101.11 25.0909 101.334 25.3504 101.47 25.6573C101.791 26.7405 100.644 27.0009 99.885 26.8563C99.2196 26.792 98.6282 26.4962 98.011 26.4159C97.9286 26.4005 97.8435 26.4142 97.77 26.4545C97.7539 26.4545 97.7057 26.5284 97.6896 26.6763C97.6766 26.9909 97.7191 27.3053 97.815 27.6052C97.8474 27.6965 97.868 27.7915 97.876 27.8881C97.8757 28.0003 97.8503 28.1111 97.8017 28.2123C97.753 28.3134 97.6823 28.4024 97.5947 28.4727C97.5072 28.543 97.405 28.5928 97.2958 28.6184C97.1865 28.6441 97.0728 28.6449 96.9631 28.621C96.4341 28.5028 95.915 28.3437 95.4106 28.1452C95.4587 28.1264 95.4986 28.091 95.5231 28.0456C95.5488 27.9909 95.5231 27.9909 95.5392 28.0231C95.6142 28.3564 95.7576 28.6705 95.9603 28.9456C96.0782 29.136 96.2233 29.3082 96.391 29.4567C96.465 29.5305 96.521 29.6205 96.5545 29.7196C96.588 29.8187 96.5982 29.9241 96.5842 30.0278C96.5702 30.1314 96.5324 30.2304 96.4738 30.317C96.4152 30.4036 96.3373 30.4755 96.2463 30.5271C95.8675 30.7811 95.5829 31.1527 95.4363 31.5846C95.394 31.7746 95.306 31.9515 95.18 32.0999C95.054 32.2483 94.8937 32.3638 94.7131 32.4364C92.9387 32.9057 90.9072 30.3728 90.094 29.0388C90.094 29.0388 90.0779 29.0099 90.094 29.0388L90.1133 29.0645C90.1448 29.0968 90.185 29.1191 90.229 29.1288C90.2764 29.1361 90.3249 29.1278 90.3672 29.1052C90.4095 29.0826 90.4434 29.0469 90.4637 29.0035C90.1291 29.8493 89.873 30.7241 89.6986 31.6168C88.8533 35.1011 90.7465 35.9722 93.5559 37.2773C95.4341 38.1437 97.2408 39.1572 98.9593 40.3084C100.129 41.0648 101.173 42.001 102.052 43.0825C102.935 44.1464 103.72 45.2715 104.52 46.3772C105.806 48.0262 107.375 50.6748 109.609 50.8773C111.997 50.3695 116.825 43.5293 118.493 41.3724C120.1 39.2188 121.679 36.8723 123.183 34.6576C123.408 34.754 122.694 34.4165 123.704 34.8536L123.53 34.5322L129.891 37.1037L130.107 37.1905L130.081 37.438C130.069 37.4823 130.053 37.5253 130.033 37.5666C129.901 37.8173 129.621 38.2641 129.473 38.5309C126.58 43.3525 123.514 48.1194 120.229 52.6935C118.008 55.7278 115.729 58.8008 112.923 61.3723C110.779 63.3716 109.065 63.4263 106.269 62.9795C102.511 62.3033 98.874 61.0761 95.4749 59.3376C94.9831 59.0387 94.3306 58.759 94.0348 58.1772C94.0544 58.2259 94.0849 58.2695 94.1239 58.3046C94.1629 58.3396 94.2094 58.3654 94.2598 58.3797C94.3207 58.3973 94.3852 58.398 94.4464 58.3815C94.5076 58.3651 94.5632 58.3322 94.607 58.2865C94.6263 58.264 94.6263 58.2576 94.607 58.2865C91.5083 62.5552 89.6311 67.6403 88.0786 72.6612C87.5546 74.3745 87.0564 76.3224 86.6385 78.0614L86.6193 78.1321V78.1642C86.5709 78.3666 86.4481 78.5434 86.2755 78.6595C86.1028 78.7756 85.8928 78.8226 85.6871 78.791H85.5489L84.9606 78.6753L67.0855 76.4767L66.5261 76.406C66.3072 76.4113 66.0936 76.3385 65.9234 76.2007C65.7532 76.0629 65.6376 75.869 65.5972 75.6538C65.4172 74.4677 65.3143 73.2784 65.2404 72.0858C64.7197 62.957 66.1469 53.6835 68.8823 45.0272C68.8678 45.095 68.8678 45.1651 68.8823 45.2329C68.8934 45.3074 68.9211 45.3784 68.9634 45.4408C69.0057 45.5031 69.0614 45.5551 69.1266 45.5929C69.1652 45.6122 69.1266 45.5929 69.1041 45.5929C68.1012 45.3293 66.3333 44.9339 65.3175 44.6897C62.3735 44.0005 59.4697 43.1496 56.6194 42.1406C54.4786 41.3435 52.3186 40.4531 50.4607 39.0709C46.8734 36.2423 44.6748 29.5563 43.6397 25.0305C42.7076 21.1475 42.354 15.6348 41.9297 11.6426H42.0808L47.4777 11.6779H47.5613L47.5774 11.7583C48.307 15.4163 49.117 19.0614 50.0428 22.6872L50.0364 22.6615ZM49.9142 22.6936C48.9499 19.0807 48.1559 15.4356 47.3716 11.784L47.4713 11.8644L42.0743 11.9029L42.2126 11.7487L43.0194 18.3574C43.4883 22.7534 44.5781 27.0607 46.2562 31.1507C47.0676 33.1698 48.156 35.0662 49.4899 36.7855C49.9104 37.37 50.4305 37.876 51.0264 38.2802C55.3594 41.1153 60.602 42.2596 65.5908 43.4843L67.783 43.9664L68.8887 44.2043C69.3419 44.3168 70.0459 44.3939 70.1423 45.0143C70.1599 45.2071 70.1301 45.4013 70.0555 45.58C68.7268 49.8479 67.7591 54.2198 67.1626 58.6497C66.494 63.7927 66.2529 69.0322 66.7769 74.2009C66.8219 74.6123 66.8733 75.0206 66.9344 75.4224C66.9158 75.2968 66.8518 75.1824 66.7544 75.1009C66.6851 75.0477 66.6031 75.0133 66.5165 75.0013H66.5454L66.6837 75.0206L67.243 75.0913L85.1053 77.3992L85.6646 77.4699L85.8028 77.4892C85.7111 77.4816 85.6192 77.503 85.5403 77.5502C85.4613 77.5975 85.3991 77.6684 85.3624 77.7528C85.3525 77.773 85.346 77.7947 85.3432 77.8171V77.7849L85.3624 77.7142L85.6389 76.6181C86.9439 71.4751 88.6154 66.4189 91.0808 61.7162C91.8329 60.2564 92.7105 58.8646 93.7038 57.5568C93.7819 57.4563 93.8846 57.3777 94.002 57.3286C94.1194 57.2794 94.2475 57.2614 94.3739 57.2763C94.5003 57.2911 94.6207 57.3384 94.7235 57.4134C94.8263 57.4885 94.9079 57.5888 94.9606 57.7047C94.9953 57.7429 95.0329 57.7784 95.0731 57.8108C95.9625 58.4153 96.914 58.9228 97.9114 59.3247C100.629 60.5272 103.477 61.4116 106.397 61.9605C107.744 62.1598 109.306 62.3881 110.541 61.8191C111.17 61.4896 111.756 61.0836 112.286 60.6105C115.063 58.1451 117.313 55.146 119.551 52.1727C123.029 47.4315 126.301 42.4717 129.338 37.438L129.409 37.3191L129.441 37.2644L129.457 37.2355C129.457 37.2098 129.435 37.2805 129.438 37.2998L129.628 37.6373L123.289 35.0336L123.112 34.7122C124.115 35.159 123.395 34.8311 123.617 34.934L123.601 34.9565L123.565 35.0079C123.565 35.0304 123.369 35.2876 123.347 35.3294C121.219 38.2802 112.64 50.9416 109.605 51.2149C107.191 51.0381 105.513 48.3219 104.141 46.5829C102.923 44.9532 101.782 43.2368 100.264 41.8867C98.1814 40.1542 95.732 38.8973 93.273 37.7787C88.2264 35.7344 88.0336 33.8283 89.599 28.8845L89.644 28.7624L89.6665 28.7013C89.7018 28.5821 89.7728 28.4766 89.8699 28.399C89.967 28.3214 90.0856 28.2755 90.2097 28.2675C90.3337 28.2594 90.4572 28.2896 90.5636 28.3539C90.6699 28.4183 90.754 28.5137 90.8044 28.6274C91.4473 29.6399 93.0866 31.6457 94.3756 31.546C94.3992 31.5372 94.4205 31.5231 94.4378 31.5047C94.4551 31.4863 94.4679 31.4641 94.4752 31.44C94.6343 30.8835 94.9343 30.3775 95.3463 29.971C95.4702 29.8505 95.6059 29.7428 95.7513 29.6496C95.7127 29.6744 95.6798 29.7073 95.6549 29.746C95.6198 29.8062 95.6076 29.8771 95.6206 29.9456C95.6336 30.0141 95.6709 30.0757 95.7256 30.1189C95.2174 29.6659 94.8316 29.0921 94.6038 28.4506C94.3434 27.7049 94.7613 27.0813 95.5681 27.1263C96.1563 27.2484 96.571 27.4798 97.0178 27.5538H97.0789H97.1046C97.0445 27.55 96.985 27.5683 96.9374 27.6052C96.8879 27.6426 96.8481 27.6913 96.8213 27.7472C96.7944 27.8031 96.7814 27.8646 96.7831 27.9266C96.7831 27.9781 96.8024 28.0327 96.7831 27.9781L96.7574 27.8945C96.3781 26.7759 96.5067 25.2458 98.0432 25.323C98.8821 25.368 99.6761 25.863 100.483 25.7569C100.531 25.7569 100.538 25.7216 100.46 25.7923C100.423 25.8409 100.398 25.8985 100.39 25.9594C100.39 26.0816 100.431 26.0752 100.338 25.9787C98.8468 24.9791 97.3103 23.3622 98.0046 21.4047C98.6154 20.1685 99.0731 18.8623 99.3675 17.5153C99.3584 17.5789 99.3653 17.6438 99.3874 17.7042C99.4095 17.7645 99.4463 17.8184 99.4944 17.8611C99.5425 17.9038 99.6004 17.9339 99.6629 17.9487C99.7255 17.9635 99.7908 17.9626 99.8529 17.946C98.4932 18.4796 96.9921 18.891 95.4942 18.6885C94.1937 18.5796 92.892 18.8845 91.7751 19.5596C91.5442 19.7176 91.3384 19.9094 91.1644 20.1286C91.0498 20.2197 90.9118 20.2767 90.7663 20.2932C90.6208 20.3097 90.4736 20.2849 90.3415 20.2218C89.3515 19.7332 87.9789 19.5789 87.275 20.5818C86.2432 22.0218 86.7028 23.5229 88.3004 24.3105C88.4216 24.3851 88.5161 24.4962 88.5704 24.6279C88.6246 24.7595 88.6359 24.9049 88.6025 25.0433L88.4965 25.3841L88.2875 26.0269C87.8536 27.2452 87.3939 28.5309 86.8893 29.7363C86.6517 30.3937 86.3274 31.0164 85.925 31.5878C84.4367 33.195 82.4888 34.0083 80.2998 33.6065C77.6833 33.1693 75.1921 32.3207 72.5853 31.8739C70.8679 31.5591 69.1351 31.3359 67.394 31.2053C60.5313 30.6074 51.9361 30.9964 49.9239 22.6936H49.9142Z"/>
</mask>
<path d="M50.0364 22.6615C52.0871 30.9 60.5763 30.4178 67.394 30.8646C69.1556 30.9578 70.911 31.1444 72.6528 31.4239C74.3918 31.7035 76.1114 32.0957 77.8151 32.4911C80.8012 33.2047 83.1027 33.6065 85.3303 31.0735C86.1146 29.8488 86.5132 28.3509 87.005 26.9752C87.1818 26.4416 87.5225 25.3519 87.6832 24.8183C87.6649 24.8779 87.6669 24.9418 87.689 25C87.7112 25.0583 87.7521 25.1075 87.8054 25.1398C86.9728 24.7508 86.06 23.928 85.8028 22.9122C85.2821 20.8164 86.9761 18.4378 89.2101 18.7817C89.7667 18.8413 90.3097 18.9923 90.8172 19.2285C90.8751 19.2542 90.7883 19.2125 90.7497 19.2092C90.6974 19.202 90.644 19.2056 90.5931 19.22C90.5422 19.2344 90.4949 19.2592 90.454 19.2928C90.4331 19.3127 90.4137 19.3342 90.3962 19.3571C90.611 19.0772 90.8719 18.8359 91.1676 18.6435C92.3878 17.8792 93.8075 17.4943 95.2467 17.5378C96.4858 17.6896 97.7432 17.5293 98.9046 17.0717C98.9593 17.0492 99.2807 16.9335 99.3418 16.9045L99.4157 16.8756C99.4754 16.8491 99.538 16.8297 99.6021 16.8177C99.7102 16.7974 99.8213 16.8004 99.928 16.8265C100.035 16.8527 100.135 16.9013 100.221 16.9691C100.308 17.037 100.379 17.1226 100.429 17.2201C100.48 17.3176 100.509 17.4248 100.515 17.5345C100.52 17.609 100.513 17.6838 100.496 17.7563C100.39 18.289 100.252 18.8149 100.084 19.3314C99.8071 20.1668 99.4797 20.9848 99.1039 21.7807C98.9966 22.1089 98.9766 22.4593 99.0459 22.7975C99.1152 23.1357 99.2715 23.45 99.4993 23.7094C99.8777 24.1756 100.325 24.5811 100.827 24.9116C101.11 25.0909 101.334 25.3504 101.47 25.6573C101.791 26.7405 100.644 27.0009 99.885 26.8563C99.2196 26.792 98.6282 26.4962 98.011 26.4159C97.9286 26.4005 97.8435 26.4142 97.77 26.4545C97.7539 26.4545 97.7057 26.5284 97.6896 26.6763C97.6766 26.9909 97.7191 27.3053 97.815 27.6052C97.8474 27.6965 97.868 27.7915 97.876 27.8881C97.8757 28.0003 97.8503 28.1111 97.8017 28.2123C97.753 28.3134 97.6823 28.4024 97.5947 28.4727C97.5072 28.543 97.405 28.5928 97.2958 28.6184C97.1865 28.6441 97.0728 28.6449 96.9631 28.621C96.4341 28.5028 95.915 28.3437 95.4106 28.1452C95.4587 28.1264 95.4986 28.091 95.5231 28.0456C95.5488 27.9909 95.5231 27.9909 95.5392 28.0231C95.6142 28.3564 95.7576 28.6705 95.9603 28.9456C96.0782 29.136 96.2233 29.3082 96.391 29.4567C96.465 29.5305 96.521 29.6205 96.5545 29.7196C96.588 29.8187 96.5982 29.9241 96.5842 30.0278C96.5702 30.1314 96.5324 30.2304 96.4738 30.317C96.4152 30.4036 96.3373 30.4755 96.2463 30.5271C95.8675 30.7811 95.5829 31.1527 95.4363 31.5846C95.394 31.7746 95.306 31.9515 95.18 32.0999C95.054 32.2483 94.8937 32.3638 94.7131 32.4364C92.9387 32.9057 90.9072 30.3728 90.094 29.0388C90.094 29.0388 90.0779 29.0099 90.094 29.0388L90.1133 29.0645C90.1448 29.0968 90.185 29.1191 90.229 29.1288C90.2764 29.1361 90.3249 29.1278 90.3672 29.1052C90.4095 29.0826 90.4434 29.0469 90.4637 29.0035C90.1291 29.8493 89.873 30.7241 89.6986 31.6168C88.8533 35.1011 90.7465 35.9722 93.5559 37.2773C95.4341 38.1437 97.2408 39.1572 98.9593 40.3084C100.129 41.0648 101.173 42.001 102.052 43.0825C102.935 44.1464 103.72 45.2715 104.52 46.3772C105.806 48.0262 107.375 50.6748 109.609 50.8773C111.997 50.3695 116.825 43.5293 118.493 41.3724C120.1 39.2188 121.679 36.8723 123.183 34.6576C123.408 34.754 122.694 34.4165 123.704 34.8536L123.53 34.5322L129.891 37.1037L130.107 37.1905L130.081 37.438C130.069 37.4823 130.053 37.5253 130.033 37.5666C129.901 37.8173 129.621 38.2641 129.473 38.5309C126.58 43.3525 123.514 48.1194 120.229 52.6935C118.008 55.7278 115.729 58.8008 112.923 61.3723C110.779 63.3716 109.065 63.4263 106.269 62.9795C102.511 62.3033 98.874 61.0761 95.4749 59.3376C94.9831 59.0387 94.3306 58.759 94.0348 58.1772C94.0544 58.2259 94.0849 58.2695 94.1239 58.3046C94.1629 58.3396 94.2094 58.3654 94.2598 58.3797C94.3207 58.3973 94.3852 58.398 94.4464 58.3815C94.5076 58.3651 94.5632 58.3322 94.607 58.2865C94.6263 58.264 94.6263 58.2576 94.607 58.2865C91.5083 62.5552 89.6311 67.6403 88.0786 72.6612C87.5546 74.3745 87.0564 76.3224 86.6385 78.0614L86.6193 78.1321V78.1642C86.5709 78.3666 86.4481 78.5434 86.2755 78.6595C86.1028 78.7756 85.8928 78.8226 85.6871 78.791H85.5489L84.9606 78.6753L67.0855 76.4767L66.5261 76.406C66.3072 76.4113 66.0936 76.3385 65.9234 76.2007C65.7532 76.0629 65.6376 75.869 65.5972 75.6538C65.4172 74.4677 65.3143 73.2784 65.2404 72.0858C64.7197 62.957 66.1469 53.6835 68.8823 45.0272C68.8678 45.095 68.8678 45.1651 68.8823 45.2329C68.8934 45.3074 68.9211 45.3784 68.9634 45.4408C69.0057 45.5031 69.0614 45.5551 69.1266 45.5929C69.1652 45.6122 69.1266 45.5929 69.1041 45.5929C68.1012 45.3293 66.3333 44.9339 65.3175 44.6897C62.3735 44.0005 59.4697 43.1496 56.6194 42.1406C54.4786 41.3435 52.3186 40.4531 50.4607 39.0709C46.8734 36.2423 44.6748 29.5563 43.6397 25.0305C42.7076 21.1475 42.354 15.6348 41.9297 11.6426H42.0808L47.4777 11.6779H47.5613L47.5774 11.7583C48.307 15.4163 49.117 19.0614 50.0428 22.6872L50.0364 22.6615ZM49.9142 22.6936C48.9499 19.0807 48.1559 15.4356 47.3716 11.784L47.4713 11.8644L42.0743 11.9029L42.2126 11.7487L43.0194 18.3574C43.4883 22.7534 44.5781 27.0607 46.2562 31.1507C47.0676 33.1698 48.156 35.0662 49.4899 36.7855C49.9104 37.37 50.4305 37.876 51.0264 38.2802C55.3594 41.1153 60.602 42.2596 65.5908 43.4843L67.783 43.9664L68.8887 44.2043C69.3419 44.3168 70.0459 44.3939 70.1423 45.0143C70.1599 45.2071 70.1301 45.4013 70.0555 45.58C68.7268 49.8479 67.7591 54.2198 67.1626 58.6497C66.494 63.7927 66.2529 69.0322 66.7769 74.2009C66.8219 74.6123 66.8733 75.0206 66.9344 75.4224C66.9158 75.2968 66.8518 75.1824 66.7544 75.1009C66.6851 75.0477 66.6031 75.0133 66.5165 75.0013H66.5454L66.6837 75.0206L67.243 75.0913L85.1053 77.3992L85.6646 77.4699L85.8028 77.4892C85.7111 77.4816 85.6192 77.503 85.5403 77.5502C85.4613 77.5975 85.3991 77.6684 85.3624 77.7528C85.3525 77.773 85.346 77.7947 85.3432 77.8171V77.7849L85.3624 77.7142L85.6389 76.6181C86.9439 71.4751 88.6154 66.4189 91.0808 61.7162C91.8329 60.2564 92.7105 58.8646 93.7038 57.5568C93.7819 57.4563 93.8846 57.3777 94.002 57.3286C94.1194 57.2794 94.2475 57.2614 94.3739 57.2763C94.5003 57.2911 94.6207 57.3384 94.7235 57.4134C94.8263 57.4885 94.9079 57.5888 94.9606 57.7047C94.9953 57.7429 95.0329 57.7784 95.0731 57.8108C95.9625 58.4153 96.914 58.9228 97.9114 59.3247C100.629 60.5272 103.477 61.4116 106.397 61.9605C107.744 62.1598 109.306 62.3881 110.541 61.8191C111.17 61.4896 111.756 61.0836 112.286 60.6105C115.063 58.1451 117.313 55.146 119.551 52.1727C123.029 47.4315 126.301 42.4717 129.338 37.438L129.409 37.3191L129.441 37.2644L129.457 37.2355C129.457 37.2098 129.435 37.2805 129.438 37.2998L129.628 37.6373L123.289 35.0336L123.112 34.7122C124.115 35.159 123.395 34.8311 123.617 34.934L123.601 34.9565L123.565 35.0079C123.565 35.0304 123.369 35.2876 123.347 35.3294C121.219 38.2802 112.64 50.9416 109.605 51.2149C107.191 51.0381 105.513 48.3219 104.141 46.5829C102.923 44.9532 101.782 43.2368 100.264 41.8867C98.1814 40.1542 95.732 38.8973 93.273 37.7787C88.2264 35.7344 88.0336 33.8283 89.599 28.8845L89.644 28.7624L89.6665 28.7013C89.7018 28.5821 89.7728 28.4766 89.8699 28.399C89.967 28.3214 90.0856 28.2755 90.2097 28.2675C90.3337 28.2594 90.4572 28.2896 90.5636 28.3539C90.6699 28.4183 90.754 28.5137 90.8044 28.6274C91.4473 29.6399 93.0866 31.6457 94.3756 31.546C94.3992 31.5372 94.4205 31.5231 94.4378 31.5047C94.4551 31.4863 94.4679 31.4641 94.4752 31.44C94.6343 30.8835 94.9343 30.3775 95.3463 29.971C95.4702 29.8505 95.6059 29.7428 95.7513 29.6496C95.7127 29.6744 95.6798 29.7073 95.6549 29.746C95.6198 29.8062 95.6076 29.8771 95.6206 29.9456C95.6336 30.0141 95.6709 30.0757 95.7256 30.1189C95.2174 29.6659 94.8316 29.0921 94.6038 28.4506C94.3434 27.7049 94.7613 27.0813 95.5681 27.1263C96.1563 27.2484 96.571 27.4798 97.0178 27.5538H97.0789H97.1046C97.0445 27.55 96.985 27.5683 96.9374 27.6052C96.8879 27.6426 96.8481 27.6913 96.8213 27.7472C96.7944 27.8031 96.7814 27.8646 96.7831 27.9266C96.7831 27.9781 96.8024 28.0327 96.7831 27.9781L96.7574 27.8945C96.3781 26.7759 96.5067 25.2458 98.0432 25.323C98.8821 25.368 99.6761 25.863 100.483 25.7569C100.531 25.7569 100.538 25.7216 100.46 25.7923C100.423 25.8409 100.398 25.8985 100.39 25.9594C100.39 26.0816 100.431 26.0752 100.338 25.9787C98.8468 24.9791 97.3103 23.3622 98.0046 21.4047C98.6154 20.1685 99.0731 18.8623 99.3675 17.5153C99.3584 17.5789 99.3653 17.6438 99.3874 17.7042C99.4095 17.7645 99.4463 17.8184 99.4944 17.8611C99.5425 17.9038 99.6004 17.9339 99.6629 17.9487C99.7255 17.9635 99.7908 17.9626 99.8529 17.946C98.4932 18.4796 96.9921 18.891 95.4942 18.6885C94.1937 18.5796 92.892 18.8845 91.7751 19.5596C91.5442 19.7176 91.3384 19.9094 91.1644 20.1286C91.0498 20.2197 90.9118 20.2767 90.7663 20.2932C90.6208 20.3097 90.4736 20.2849 90.3415 20.2218C89.3515 19.7332 87.9789 19.5789 87.275 20.5818C86.2432 22.0218 86.7028 23.5229 88.3004 24.3105C88.4216 24.3851 88.5161 24.4962 88.5704 24.6279C88.6246 24.7595 88.6359 24.9049 88.6025 25.0433L88.4965 25.3841L88.2875 26.0269C87.8536 27.2452 87.3939 28.5309 86.8893 29.7363C86.6517 30.3937 86.3274 31.0164 85.925 31.5878C84.4367 33.195 82.4888 34.0083 80.2998 33.6065C77.6833 33.1693 75.1921 32.3207 72.5853 31.8739C70.8679 31.5591 69.1351 31.3359 67.394 31.2053C60.5313 30.6074 51.9361 30.9964 49.9239 22.6936H49.9142Z" fill="#F43B00" stroke="#F43B00" stroke-width="0.642877" mask="url(#path-9-inside-1_962_385837)"/>
<path d="M87.7406 24.959C87.8049 24.987 87.8629 25.0096 87.9122 25.0276L86.9668 27.2185C86.9403 27.1466 86.9082 27.0755 86.8719 27.0055C86.7113 26.6965 86.4563 26.3889 86.1744 26.1025C85.7548 25.6762 85.2524 25.2752 84.8737 24.9728C84.7456 24.8705 84.6316 24.7795 84.5398 24.7026C84.18 24.4016 83.4975 23.6597 83.1811 22.7152C83.0238 22.2455 82.9582 21.7295 83.0638 21.1928C83.1692 20.657 83.4472 20.0902 83.9933 19.5209C84.5723 18.9171 84.8945 18.3662 85.0798 17.8367C85.2643 17.3097 85.31 16.8119 85.3466 16.3271C85.3492 16.2931 85.3517 16.2592 85.3542 16.2252C85.4233 15.2962 85.4917 14.3747 86.4237 13.1997C87.3673 12.0099 88.8183 11.7988 90.8167 11.9602C91.6818 12.03 92.6366 12.1683 93.6833 12.3199C93.842 12.3429 94.0029 12.3662 94.1658 12.3896C95.401 12.5671 96.7528 12.7502 98.2119 12.8519C99.8201 12.9643 100.982 13.086 101.805 13.2296C102.637 13.3747 103.093 13.5381 103.315 13.7144C103.421 13.7977 103.465 13.8774 103.481 13.9546C103.497 14.0359 103.485 14.136 103.436 14.2655C103.346 14.5028 103.156 14.7805 102.919 15.1287C102.89 15.1723 102.859 15.2169 102.828 15.2628C102.255 16.1021 101.514 16.8132 100.652 17.3511C99.8701 17.6869 98.6741 17.831 97.4123 17.8942C96.5979 17.935 95.7725 17.9418 95.0266 17.9479C94.6125 17.9513 94.223 17.9545 93.8733 17.9632C92.861 17.9884 91.9877 18.4248 91.3735 18.8468C91.0653 19.0585 90.8194 19.2686 90.6502 19.426C90.5873 19.4845 90.5349 19.5359 90.4937 19.5775C90.024 19.1945 89.5341 18.9992 89.054 18.9626C88.534 18.923 88.0381 19.0706 87.6062 19.347C86.7457 19.8975 86.1296 20.9633 86.041 22.1362C85.9513 23.3251 86.4629 24.0684 86.9998 24.5089C87.2659 24.7272 87.5366 24.8704 87.7406 24.959Z" fill="#F43B00" stroke="#F43B00" stroke-width="0.321438"/>
<path opacity="0.2" d="M99.6181 17.2944C100.882 17.2943 101.965 15.5174 102.349 14.6289C101.328 15.8135 98.6299 14.6289 96.3922 14.6289C94.1544 14.6289 94.5822 15.682 91.6221 16.1098C88.6621 16.5377 90.2064 17.6565 89.4814 17.6565C88.7564 17.6565 87.7702 17.2944 87.3094 17.854C86.8487 18.4136 86.7176 18.5122 85.6974 18.94C84.6772 19.3678 84.381 21.079 84.7758 21.4081C85.1706 21.7372 84.4797 22.527 84.7758 24.0737C85.0128 25.311 86.3006 25.9714 86.9149 26.1469C87.1342 26.0592 87.3425 25.627 86.4211 24.6002C85.2693 23.3168 85.7641 21.4739 86.2248 19.8614C86.6855 18.2489 89.285 18.7425 90.2064 18.94C91.1279 19.1374 90.7665 18.8412 91.6221 17.854C92.4778 16.8667 94.3527 17.4591 95.6033 17.4591C96.8538 17.4591 98.0385 17.2946 99.6181 17.2944Z" fill="black"/>
<path d="M96.8531 22.4906C96.8531 22.4906 97.7789 22.3749 97.3256 21.732C96.956 21.2081 95.5706 20.5363 94.603 20.7291C93.6355 20.922 95.0338 22.4745 96.8531 22.4906Z" fill="black" stroke="#F43B00" stroke-width="0.321438" stroke-miterlimit="10" stroke-linecap="round"/>
<path d="M95.9554 22.2289C95.9554 22.2289 95.6822 21.6471 96.4504 21.0781L95.9554 22.2289Z" fill="#F43B00"/>
<path d="M95.9554 22.2289C95.9554 22.2289 95.6822 21.6471 96.4504 21.0781" stroke="#F43B00" stroke-width="0.321438" stroke-miterlimit="10" stroke-linecap="round"/>
<path d="M46.583 11.8323C47.332 10.7619 48.0649 9.77188 48.4249 8.57612C48.4249 7.02679 44.9341 8.80756 44.439 9.38294C44.4114 9.41072 44.3877 9.44207 44.3683 9.47615C44.3523 9.49544 44.3683 9.5083 44.3683 9.45687C44.3629 9.42154 44.3446 9.38948 44.3169 9.36686C45.1687 9.59187 46.1009 9.309 46.9881 9.24472L47.0073 9.30579C46.3019 9.72046 45.5162 9.98015 44.7026 10.0676C44.1369 10.1415 43.4169 9.8008 43.7833 9.12578C44.1124 8.71402 44.5515 8.40414 45.0498 8.23219C45.8019 7.913 46.6114 7.7511 47.4284 7.75646C48.277 7.7211 48.9585 8.04897 48.772 9.0165C48.5824 10.2476 47.6695 11.2666 46.6345 11.8805L46.5927 11.8323H46.583Z" fill="#F43B00"/>
<path d="M42.3995 10.8355C42.408 10.9065 42.4166 10.9776 42.4251 11.0489C42.0912 10.1762 41.9213 9.24694 41.9265 8.30794C41.9411 8.0665 41.9886 7.66668 42.0705 7.21336C42.0674 7.57652 42.0919 7.93717 42.1265 8.29446C42.1492 8.52798 42.1758 8.75723 42.2022 8.98492C42.2437 9.34333 42.2848 9.69784 42.3094 10.059L42.3092 10.059L42.3099 10.0654C42.3381 10.3242 42.3688 10.5797 42.3995 10.8355ZM42.7822 4.97349C42.9363 4.71956 43.0933 4.5727 43.2435 4.52809C43.4642 4.52263 43.6206 4.65967 43.7453 4.89768C43.8723 5.13997 43.9413 5.44351 43.9951 5.67996L43.9965 5.68601C44.0673 6.08251 44.1449 6.75247 44.0959 7.36819C44.0713 7.67719 44.0155 7.96347 43.9169 8.19226C43.8222 8.41208 43.6936 8.56703 43.5259 8.64843C43.3931 8.66542 43.2582 8.64076 43.1398 8.57759L43.0641 8.71938L43.1398 8.57758C43.0163 8.51173 42.9177 8.40763 42.8585 8.28095C42.7346 7.96845 42.669 7.63835 42.6624 7.30665C42.6646 7.31594 42.6667 7.32521 42.6689 7.33448C42.7388 7.62874 42.8402 7.92356 43.0063 8.16286L43.0063 8.16286L43.0074 8.16449C43.0801 8.2665 43.1849 8.34115 43.3051 8.37649L43.3273 8.38302H43.3505H43.3506H43.3508H43.351H43.3511H43.3513H43.3515H43.3517H43.3518H43.352H43.3522H43.3524H43.3526H43.3527H43.3529H43.3531H43.3533H43.3535H43.3537H43.3539H43.354H43.3542H43.3544H43.3546H43.3548H43.355H43.3552H43.3554H43.3556H43.3558H43.356H43.3562H43.3564H43.3566H43.3568H43.357H43.3572H43.3574H43.3576H43.3578H43.358H43.3582H43.3584H43.3586H43.3588H43.359H43.3592H43.3594H43.3596H43.3598H43.3601H43.3603H43.3605H43.3607H43.3609H43.3611H43.3613H43.3615H43.3618H43.362H43.3622H43.3624H43.3626H43.3628H43.3631H43.3633H43.3635H43.3637H43.3639H43.3642H43.3644H43.3646H43.3648H43.3651H43.3653H43.3655H43.3657H43.366H43.3662H43.3664H43.3666H43.3669H43.3671H43.3673H43.3675H43.3678H43.368H43.3682H43.3684H43.3687H43.3689H43.3691H43.3694H43.3696H43.3698H43.3701H43.3703H43.3705H43.3708H43.371H43.3712H43.3714H43.3717H43.3719H43.3721H43.3724H43.3726H43.3728H43.3731H43.3733H43.3735H43.3738H43.374H43.3743H43.3745H43.3747H43.375H43.3752H43.3754H43.3757H43.3759H43.3761H43.3764H43.3766H43.3768H43.3771H43.3773H43.3775H43.3778H43.378C43.3822 8.38305 43.386 8.38303 43.389 8.38302C43.3902 8.38302 43.3913 8.38302 43.3922 8.38302H43.3923H43.3925H43.3926H43.3927H43.3929H43.393H43.3931H43.3933H43.3934H43.3936H43.3937H43.3938H43.394H43.394H43.3942H43.3943H43.3944H43.3947H43.3947H43.3949H43.395H43.3951H43.3953H43.3953H43.3955H43.3957H43.3957H43.3959H43.396H43.3961H43.3963H43.3963H43.3966H43.3966H43.3968H43.397H43.397H43.3972H43.3973H43.3974H43.3976H43.3978H43.3979H43.398H43.3982H43.3984H43.3985H43.3986H43.3988H43.399H43.3991H43.3992H43.3994H43.3994H43.3996H43.3997H43.3998H43.4H43.4H43.4002H43.4002H43.4004H43.4005H43.4006H43.4008H43.4008H43.4009H43.4011H43.4011H43.4013H43.4014H43.4015H43.4016H43.4017H43.4019H43.4021H43.4022H43.4023H43.4024H43.4024H43.4026H43.4027H43.4028H43.4029H43.403H43.4032H43.4032H43.4034H43.4034H43.4035H43.4037H43.4037H43.4039H43.4039H43.4041H43.4042H43.4042H43.4044H43.4046H43.4046H43.4048H43.4049H43.4049H43.4051H43.4051H43.4053H43.4053H43.4054H43.4056H43.4056H43.4058H43.4058H43.4059H43.406H43.4061H43.4062H43.4063H43.4064H43.4064H43.4066H43.4067H43.4067H43.4069H43.4069H43.4071H43.4071H43.4072H43.4073H43.4074H43.4075H43.4075H43.4077H43.4078H43.4079H43.408H43.4081H43.4081H43.4083H43.4083H43.4084H43.4084H43.4086H43.4086H43.4087H43.4088H43.4089H43.409H43.409H43.4091H43.4092H43.4093H43.4093H43.4094H43.4095H43.4096H43.4097H43.4098H43.4099H43.41H43.41H43.4101H43.4102H43.4102H43.4103H43.4105H43.4105H43.4106H43.4107H43.4107H43.4108H43.4109H43.411H43.411H43.4111H43.4111H43.4112H43.4113H43.4113H43.4114H43.4114H43.4115H43.4116H43.4117H43.4117H43.4118H43.4118H43.4119H43.4119H43.412H43.4121H43.4121H43.4122H43.4122H43.4123H43.4123H43.4124H43.4124H43.4125H43.4126H43.4126H43.4127H43.4127H43.4128H43.4128H43.4129H43.4129H43.413H43.413H43.4131H43.4131H43.4132H43.4132H43.4133H43.4133H43.4134H43.4134H43.4135H43.4135H43.4136H43.4136H43.4137H43.4137H43.4137H43.4138H43.4138H43.4139H43.4139H43.414H43.414H43.4141H43.4141H43.4141H43.4142H43.4142H43.4143H43.4143H43.4143H43.4144H43.4144H43.4144H43.4145H43.4146H43.4146H43.4146H43.4146H43.4147H43.4147H43.4147H43.4148H43.4148H43.4148H43.4149H43.4149H43.4149H43.4149H43.415H43.415H43.415H43.4151H43.4151H43.4151H43.4151H43.4152H43.4152H43.4153H43.4153H43.4153H43.4153H43.4153H43.4153H43.4154H43.4154H43.4154H43.4154H43.4154H43.4155H43.4155H43.4155H43.4155H43.4155H43.4155H43.4155H43.4156H43.4156H43.4156H43.4156H43.4156H43.4156H43.4156H43.4156H43.4157H43.4157H43.4157H43.4157H43.4157H43.4157H43.4157H43.4157H43.4157H43.4157H43.4157H43.4157L43.4157 8.20425L43.4157 8.19877L43.4157 8.12299C43.4209 8.10758 43.4259 8.09205 43.4308 8.07641C43.4537 8.08755 43.4935 8.11376 43.5123 8.16826C43.521 8.19358 43.5226 8.21682 43.5204 8.23712C43.5193 8.24671 43.5174 8.25565 43.5151 8.26384C43.506 8.29504 43.4898 8.31545 43.486 8.32016C43.4742 8.33489 43.4624 8.34389 43.4603 8.34552L43.4601 8.34567C43.4387 8.3621 43.4996 8.32361 43.5301 8.27284L43.5379 8.25977L43.5431 8.24546C43.8168 7.4988 43.7806 6.49959 43.7166 5.72755C43.7012 5.3685 43.5918 5.01975 43.3994 4.71616L43.3521 4.64147H43.2637C43.2267 4.64147 43.1914 4.65186 43.1683 4.65986C43.141 4.6693 43.1116 4.68232 43.0818 4.69822C43.0228 4.72977 42.9547 4.77688 42.8955 4.84039L42.8954 4.84037L42.8933 4.84271C42.855 4.88537 42.818 4.92898 42.7822 4.97349Z" fill="#F43B00" stroke="#F43B00" stroke-width="0.321438"/>
<path d="M43.9078 4.31472C44.1553 3.62363 45.0489 3.85185 45.2739 4.44008C45.5022 4.89974 45.3704 5.4044 45.3672 5.87691C45.3672 6.51979 45.5889 7.12088 45.4507 7.77019C45.3157 8.67343 44.4864 8.86629 43.9689 8.09162C43.8423 7.86551 43.77 7.61307 43.7577 7.35422C43.7455 7.09538 43.7935 6.83722 43.8982 6.60015H43.9625C44.1103 7.05981 44.2614 7.70911 44.7018 7.8634C44.7183 7.86852 44.7345 7.87497 44.75 7.88269H44.7211C44.8992 7.53589 45.028 7.16586 45.1036 6.78337C45.2476 6.19625 45.1686 5.57655 44.8818 5.04439C44.7275 4.56545 44.5603 4.0415 43.9625 4.3533L43.911 4.31472H43.9078Z" fill="#F43B00"/>
<path d="M45.5305 4.26136C45.6045 4.16372 45.7111 4.07984 45.8394 4.02072C46.09 3.9052 46.365 3.91149 46.5433 4.05318C46.6611 4.165 46.7124 4.31693 46.7335 4.50021C46.7418 4.57323 46.7451 4.64813 46.7466 4.72466C46.6556 4.54152 46.5281 4.37749 46.3705 4.24336L46.3436 4.22048L46.3096 4.21097C46.1161 4.15686 45.912 4.15307 45.7166 4.19996C45.6527 4.21529 45.5905 4.23586 45.5305 4.26136ZM46.8362 5.90987C46.8432 5.87872 46.8498 5.84728 46.856 5.81557C46.8625 5.85128 46.8689 5.88664 46.8751 5.92159C46.9233 6.19639 46.9572 6.45461 46.9264 6.7125L46.9263 6.71349C46.9051 6.90122 46.8815 7.10843 46.8159 7.29823C46.7525 7.48186 46.6544 7.63483 46.4935 7.73159C46.3741 7.77937 46.2421 7.78651 46.1181 7.75171C45.9913 7.71614 45.8803 7.63885 45.8029 7.53237C45.7268 7.42175 45.6757 7.29589 45.6531 7.16352C45.6507 7.14989 45.6487 7.13622 45.647 7.12253C45.6826 7.17354 45.7199 7.22224 45.7588 7.26471C45.8221 7.3339 45.899 7.39854 45.9941 7.43777C45.9945 7.43794 45.9949 7.43811 45.9954 7.43829L45.9829 7.46442H46.0792C46.1537 7.48062 46.233 7.47992 46.3164 7.46005L46.3016 7.33427L46.3825 7.37275C46.489 7.14906 46.5751 6.91628 46.64 6.6772L46.6403 6.67727L46.6422 6.66822C46.6667 6.55161 46.6996 6.43105 46.7347 6.30336C46.7361 6.29814 46.7376 6.2929 46.739 6.28765C46.7724 6.16623 46.8075 6.03869 46.8362 5.90987Z" fill="#F43B00" stroke="#F43B00" stroke-width="0.321438"/>
<path d="M47.737 4.34527C47.8144 4.39277 47.8794 4.4579 47.9268 4.53525C47.9644 4.65256 47.9873 4.77385 47.9951 4.89633C47.9236 4.79378 47.8312 4.70651 47.7231 4.6407C47.6335 4.56091 47.5342 4.49279 47.4274 4.43801L47.4198 4.43411L47.4118 4.43104C47.3222 4.39648 47.2307 4.36734 47.1377 4.34374C47.1539 4.33392 47.1706 4.32488 47.1878 4.31666C47.2744 4.27521 47.3701 4.25611 47.466 4.26111C47.5619 4.2661 47.6551 4.29504 47.737 4.34527ZM48.0541 5.73256C48.0639 5.70334 48.0734 5.67322 48.0822 5.64233C48.1056 5.76617 48.1276 5.88689 48.1438 6.00713C48.1817 6.28902 48.1853 6.55378 48.1013 6.80994L48.1012 6.80988L48.0991 6.81723C48.0232 7.0923 47.8886 7.34656 47.7057 7.56305C47.6676 7.11769 47.726 6.66828 47.8781 6.24587L47.8816 6.23609L47.8839 6.22594C47.899 6.15735 47.9244 6.0829 47.9559 5.99861C47.9641 5.97666 47.9729 5.95375 47.9818 5.9302C48.0059 5.86709 48.0317 5.79931 48.0541 5.73256Z" fill="black" stroke="#F43B00" stroke-width="0.321438"/>
<path d="M81.7003 33.3527C82.5328 34.4906 83.2304 35.6188 84.2718 36.5157C86.2519 37.7018 88.772 36.7374 90.8581 36.1942L90.887 36.2521C89.4405 37.4864 87.258 38.1003 85.4451 37.3257C84.1593 36.7149 82.7193 36.0946 82.0732 34.7349C81.8425 34.3087 81.6932 33.8432 81.6328 33.3623L81.6939 33.3398L81.7003 33.3527Z" fill="#F43B00"/>
<path opacity="0.2" d="M95.8672 54.7532L94.375 57.6677C98.3563 60.5823 106.246 62.8572 109.232 62.644C112.218 62.4307 114.99 58.4498 118.687 54.1135C121.644 50.6444 127.17 41.5784 129.563 37.479L128.283 36.9102C127.264 38.2846 125.227 41.2467 125.227 42.0997C125.227 43.1661 122.17 48.2843 119.824 49.4928C117.478 50.7012 117.549 53.2604 114.99 56.2461C112.431 59.2318 112.218 56.7437 109.232 59.445C106.246 62.1463 106.175 59.445 104.327 58.4498C102.479 57.4546 103.189 58.6631 101.768 58.4498C100.346 58.2365 100.488 57.6677 98.7109 57.6677C97.2892 57.6677 96.2227 55.7247 95.8672 54.7532Z" fill="#F43B00"/>
<path d="M124.934 35.3267C124.194 34.3303 123.552 31.942 124.741 31.0837C125.647 30.698 127.348 32.048 127.926 32.6909C128.301 33.061 128.565 33.5287 128.688 34.041C128.743 34.8124 127.936 34.8092 127.457 34.4974C126.758 34.0718 126.157 33.502 125.696 32.8259L125.741 32.7777C126.515 33.2149 127.235 33.8706 128.103 34.0313C128.103 34.0313 128.045 34.0313 128.02 34.0924C127.994 34.1535 128.02 34.1278 128.003 34.0924C127.998 34.053 127.988 34.0142 127.975 33.9767C127.778 33.2502 125.368 30.1194 124.718 31.5434C124.532 32.7777 124.773 33.9831 124.992 35.2721L124.934 35.301V35.3267Z" fill="#F43B00"/>
<path d="M128.518 36.9812C129.16 35.9558 129.781 34.9593 130.379 33.9243C130.711 33.4271 130.973 32.8862 131.157 32.3171C131.324 31.7539 131.324 31.1542 131.157 30.591C131.115 30.4656 131.031 30.3563 130.993 30.3499C130.932 30.3712 130.877 30.4039 130.829 30.4463C130.244 31.0024 129.864 31.8735 129.594 32.6257C129.498 32.8589 129.441 33.1066 129.427 33.3586C129.427 33.3971 129.427 33.41 129.427 33.3875C129.427 33.365 129.427 33.3875 129.466 33.3875C129.555 33.4013 129.645 33.3843 129.723 33.3393C130.179 33.0789 130.533 32.5196 130.838 32.0535L130.896 32.076C130.789 32.7199 130.472 33.3106 129.996 33.7572C129.861 33.8667 129.695 33.9301 129.521 33.9382C129.348 33.9463 129.176 33.8986 129.032 33.8022C128.389 33.0596 129.379 31.3657 129.855 30.7067C130.147 30.3371 130.671 29.6395 131.247 29.9545C131.992 30.5717 131.202 33.32 130.874 34.1332C130.352 35.2562 129.567 36.2366 128.585 36.9908L128.537 36.9458L128.518 36.9812Z" fill="#F43B00"/>
<path d="M130.561 29.6592C130.52 29.5855 130.461 29.5232 130.39 29.478C130.319 29.4328 130.238 29.406 130.154 29.4003C130.07 29.3945 129.986 29.4099 129.909 29.445C129.833 29.4801 129.766 29.5339 129.715 29.6013C129.398 29.8956 129.097 30.2079 128.815 30.5367C128.494 31.0188 128.43 31.6746 128.349 32.2178C128.329 32.324 128.329 32.4331 128.349 32.5393C128.369 32.5843 128.349 32.5393 128.317 32.52C128.796 32.6068 129.236 32.0667 129.577 31.7003L129.638 31.7196C129.632 31.9763 129.567 32.2282 129.448 32.4557C129.328 32.6831 129.158 32.88 128.95 33.0311C128.147 33.5004 127.485 32.9764 127.751 32.1021C127.903 31.4592 128.375 31.0092 128.635 30.4274C128.864 29.9131 129.005 29.2638 129.6 29.0034C130.082 28.7849 130.696 29.0677 130.632 29.6463H130.567L130.561 29.6592Z" fill="#F43B00"/>
<mask id="path-25-inside-2_962_385837" fill="white">
<path d="M129.231 29.3025C129.168 29.1438 129.064 29.0038 128.932 28.8959C128.799 28.7879 128.641 28.7155 128.473 28.6853C128.191 28.7608 127.94 28.9254 127.759 29.1546C127.438 29.5693 127.418 30.1575 127.303 30.6429C127.26 30.862 127.242 31.0851 127.248 31.3083C127.248 31.395 127.248 31.3404 127.206 31.334C127.476 31.5493 127.778 31.2922 128.087 31.1025L128.142 31.1379C128.113 31.2939 128.052 31.442 127.961 31.5719C127.87 31.7017 127.752 31.8103 127.615 31.8901C127.466 31.9703 127.295 31.9983 127.129 31.9698C126.963 31.9412 126.811 31.8577 126.698 31.7326C126.422 31.3308 126.596 30.8293 126.721 30.4789C126.898 29.9357 127.332 29.5371 127.586 29.0421C127.753 28.7432 127.881 28.2578 128.309 28.1325C128.916 27.9814 129.572 28.756 129.296 29.3057L129.231 29.3025Z"/>
</mask>
<path d="M129.231 29.3025C129.168 29.1438 129.064 29.0038 128.932 28.8959C128.799 28.7879 128.641 28.7155 128.473 28.6853C128.191 28.7608 127.94 28.9254 127.759 29.1546C127.438 29.5693 127.418 30.1575 127.303 30.6429C127.26 30.862 127.242 31.0851 127.248 31.3083C127.248 31.395 127.248 31.3404 127.206 31.334C127.476 31.5493 127.778 31.2922 128.087 31.1025L128.142 31.1379C128.113 31.2939 128.052 31.442 127.961 31.5719C127.87 31.7017 127.752 31.8103 127.615 31.8901C127.466 31.9703 127.295 31.9983 127.129 31.9698C126.963 31.9412 126.811 31.8577 126.698 31.7326C126.422 31.3308 126.596 30.8293 126.721 30.4789C126.898 29.9357 127.332 29.5371 127.586 29.0421C127.753 28.7432 127.881 28.2578 128.309 28.1325C128.916 27.9814 129.572 28.756 129.296 29.3057L129.231 29.3025Z" fill="#F43B00"/>
<path d="M129.231 29.3025L128.303 29.6754L128.542 30.2693L129.181 30.3012L129.231 29.3025ZM128.473 28.6853L128.649 27.701L128.43 27.6617L128.214 27.7193L128.473 28.6853ZM127.759 29.1546L126.975 28.5346L126.969 28.542L127.759 29.1546ZM127.303 30.6429L126.33 30.411L126.325 30.4322L126.321 30.4536L127.303 30.6429ZM127.248 31.3083H128.248V31.295L128.248 31.2817L127.248 31.3083ZM127.206 31.334L127.358 30.3456L123.648 29.7747L126.583 32.1158L127.206 31.334ZM128.087 31.1025L128.63 30.263L128.101 29.9203L127.563 30.2506L128.087 31.1025ZM128.142 31.1379L129.126 31.3159L129.244 30.6603L128.685 30.2984L128.142 31.1379ZM127.615 31.8901L128.09 32.7696L128.104 32.7622L128.118 32.7543L127.615 31.8901ZM126.698 31.7326L125.875 32.2994L125.912 32.3537L125.956 32.4027L126.698 31.7326ZM126.721 30.4789L127.662 30.8158L127.667 30.8022L127.672 30.7884L126.721 30.4789ZM127.586 29.0421L126.713 28.5541L126.704 28.5697L126.696 28.5857L127.586 29.0421ZM128.309 28.1325L128.068 27.162L128.047 27.167L128.027 27.1729L128.309 28.1325ZM129.296 29.3057L129.246 30.3045L129.896 30.337L130.189 29.755L129.296 29.3057ZM130.159 28.9296C130.032 28.6136 129.827 28.3351 129.563 28.1202L128.301 29.6716C128.302 29.6726 128.303 29.6739 128.303 29.6754L130.159 28.9296ZM129.563 28.1202C129.299 27.9053 128.984 27.761 128.649 27.701L128.296 29.6697C128.298 29.6699 128.299 29.6706 128.301 29.6716L129.563 28.1202ZM128.214 27.7193C127.724 27.8505 127.289 28.1364 126.975 28.5346L128.544 29.7747C128.591 29.7144 128.657 29.6712 128.731 29.6513L128.214 27.7193ZM126.969 28.542C126.676 28.9192 126.551 29.3366 126.479 29.6489C126.443 29.8071 126.415 29.9642 126.393 30.0888C126.369 30.2231 126.351 30.3224 126.33 30.411L128.275 30.8748C128.312 30.7206 128.34 30.5645 128.362 30.439C128.386 30.3038 128.405 30.197 128.429 30.0956C128.476 29.8887 128.521 29.8047 128.55 29.7673L126.969 28.542ZM126.321 30.4536C126.265 30.7438 126.241 31.0393 126.248 31.3348L128.248 31.2817C128.244 31.131 128.256 30.9803 128.285 30.8322L126.321 30.4536ZM126.248 31.3083C126.248 31.3622 126.247 31.3096 126.252 31.2568C126.254 31.2369 126.259 31.1849 126.275 31.1196C126.286 31.0746 126.327 30.9051 126.463 30.7338C126.541 30.6365 126.659 30.5259 126.827 30.4484C127 30.369 127.174 30.3475 127.328 30.3603C127.594 30.3825 127.771 30.5057 127.812 30.534C127.899 30.5943 127.978 30.6761 127.936 30.6358C127.93 30.6299 127.898 30.5977 127.853 30.5621C127.757 30.4856 127.591 30.3813 127.358 30.3456L127.054 32.3223C126.843 32.2898 126.693 32.1948 126.608 32.1277C126.569 32.0967 126.542 32.0692 126.54 32.0673C126.502 32.031 126.584 32.116 126.674 32.1782C126.716 32.2074 126.894 32.3311 127.162 32.3534C127.315 32.3662 127.491 32.3447 127.664 32.265C127.832 32.1873 127.951 32.0764 128.029 31.9787C128.166 31.8065 128.208 31.6354 128.219 31.5883C128.235 31.5209 128.241 31.4662 128.243 31.4428C128.248 31.3951 128.248 31.3543 128.248 31.3465C128.248 31.3323 128.248 31.3167 128.248 31.3083H126.248ZM126.583 32.1158C126.81 32.2973 127.081 32.4013 127.369 32.4143C127.637 32.4264 127.861 32.3577 128.014 32.2944C128.26 32.1928 128.563 31.9835 128.611 31.9545L127.563 30.2506C127.514 30.2809 127.467 30.3112 127.429 30.3358C127.388 30.3624 127.357 30.3821 127.328 30.4007C127.265 30.4401 127.246 30.4477 127.25 30.4459C127.256 30.4437 127.334 30.4107 127.46 30.4164C127.525 30.4193 127.595 30.4326 127.665 30.459C127.734 30.4854 127.789 30.5196 127.83 30.5522L126.583 32.1158ZM127.544 31.9421L127.598 31.9774L128.685 30.2984L128.63 30.263L127.544 31.9421ZM127.158 30.9599C127.155 30.9736 127.15 30.9866 127.142 30.9979L128.78 32.1458C128.954 31.8974 129.072 31.6143 129.126 31.3159L127.158 30.9599ZM127.142 30.9979C127.134 31.0093 127.123 31.0188 127.111 31.0258L128.118 32.7543C128.38 32.6017 128.606 32.3941 128.78 32.1458L127.142 30.9979ZM127.139 31.0105C127.188 30.9841 127.244 30.9748 127.299 30.9842L126.96 32.9553C127.347 33.0218 127.745 32.9565 128.09 32.7696L127.139 31.0105ZM127.299 30.9842C127.353 30.9936 127.403 31.0212 127.441 31.0624L125.956 32.4027C126.219 32.6942 126.573 32.8888 126.96 32.9553L127.299 30.9842ZM127.522 31.1658C127.564 31.2262 127.545 31.267 127.553 31.1975C127.557 31.1614 127.567 31.1114 127.586 31.0433C127.606 30.9742 127.631 30.9037 127.662 30.8158L125.779 30.1421C125.72 30.3074 125.604 30.6241 125.565 30.9754C125.524 31.3447 125.557 31.8371 125.875 32.2994L127.522 31.1658ZM127.672 30.7884C127.71 30.6697 127.786 30.5381 127.941 30.32C128.07 30.1373 128.306 29.8285 128.475 29.4986L126.696 28.5857C126.611 28.7508 126.503 28.8887 126.308 29.1649C126.138 29.4057 125.908 29.7449 125.77 30.1695L127.672 30.7884ZM128.458 29.5302C128.522 29.4167 128.581 29.2866 128.613 29.2183C128.654 29.1316 128.68 29.0811 128.703 29.0433C128.748 28.9698 128.716 29.0552 128.59 29.092L128.027 27.1729C127.474 27.3351 127.164 27.7258 126.996 28.0011C126.913 28.1377 126.848 28.2724 126.805 28.3647C126.752 28.4754 126.733 28.5181 126.713 28.5541L128.458 29.5302ZM128.55 29.1029C128.459 29.1256 128.392 29.1057 128.371 29.0965C128.353 29.089 128.358 29.0873 128.369 29.1009C128.381 29.1151 128.373 29.1137 128.366 29.0818C128.358 29.0435 128.352 28.9556 128.402 28.8564L130.189 29.755C130.571 28.9947 130.255 28.2343 129.898 27.8117C129.539 27.3854 128.862 26.9645 128.068 27.162L128.55 29.1029ZM129.346 28.3069L129.281 28.3037L129.181 30.3012L129.246 30.3045L129.346 28.3069Z" fill="#F43B00" mask="url(#path-25-inside-2_962_385837)"/>
<path d="M126.277 30.2403L126.101 30.1922C126.102 30.1893 126.102 30.1864 126.103 30.1835C126.146 29.9229 126.25 29.6768 126.406 29.4649C126.379 29.7258 126.336 29.9848 126.277 30.2403ZM126.277 30.2403L126.1 30.1993C126.073 30.3758 126.074 30.5548 126.102 30.7296C126.173 30.5714 126.231 30.4079 126.277 30.2403ZM125.801 31.269V31.2431L125.825 31.2335C125.817 31.2454 125.809 31.2572 125.801 31.269ZM125.801 31.269L125.777 31.2527L125.737 31.269M125.801 31.269H125.737M125.737 31.269V31.2251L125.714 31.2094C125.721 31.2293 125.729 31.2492 125.737 31.269ZM125.588 30.6471C125.573 30.466 125.579 30.2828 125.609 30.1018C125.657 29.8123 125.763 29.5367 125.919 29.2908C125.897 29.5691 125.855 29.8455 125.792 30.1176C125.791 30.1222 125.79 30.1268 125.788 30.1314C125.738 30.3095 125.671 30.4822 125.588 30.6471Z" fill="#F43B00" stroke="#F43B00"/>
<path d="M56.534 154.087C56.533 155.395 56.9821 156.912 57.4282 158.11C57.6872 158.805 57.9548 159.418 58.1582 159.858L48.3257 160.003L50.064 153.977L56.534 154.087Z" fill="black" stroke="#F43B00"/>
<path opacity="0.2" d="M69.6621 62.3989C68.415 61.8653 69.2829 59.3742 70.1282 57.1402C70.9736 54.9062 70.7358 54.4337 70.2665 51.7786C69.9964 50.2357 71.5072 47.6963 72.8155 45.8416C72.9845 45.6006 73.0911 45.3214 73.1256 45.029C73.1601 44.7367 73.1215 44.4403 73.0131 44.1665C72.9048 43.8928 72.7301 43.6503 72.5049 43.4607C72.2796 43.2711 72.0108 43.1405 71.7226 43.0805C69.8807 42.6915 67.5728 42.0005 66.1263 40.8143C63.4166 38.5836 57.1261 39.0464 54.6253 37.3653C52.1245 35.6842 51.9316 33.2895 49.3312 32.7302C46.7307 32.1709 47.2868 29.6637 46.8175 27.9086C46.3482 26.1535 45.6153 26.0282 45.2489 25.0157C44.8825 24.0031 45.6153 23.1577 44.5675 22.0456C43.5196 20.9334 42.5488 15.9961 42.5488 15.9961C44.5 35.3178 49.8326 37.886 53.0952 40.0558C56.3578 42.2255 69.6236 44.8034 69.6236 44.8034C64.9949 61.3543 66.2967 75.6615 66.2967 75.6615L71.3722 76.3044C72.1919 72.1257 69.0611 67.8666 69.1221 66.0376C69.1832 64.2086 70.9093 62.9261 69.6621 62.3989Z" fill="#F43B00"/>
<path d="M94.7227 19.4381C94.7227 19.4381 97.2106 19.1167 99.0942 20.351" stroke="#F43B00" stroke-width="0.321438" stroke-miterlimit="10" stroke-linecap="round"/>
<path d="M89.2582 21.0768C89.2582 21.0768 87.9724 20.7907 87.7988 21.5943C87.7252 21.918 87.7562 22.2568 87.8873 22.5617C88.0184 22.8667 88.2429 23.1222 88.5285 23.2915" stroke="#F43B00" stroke-width="0.321438" stroke-miterlimit="10" stroke-linecap="round"/>
<path d="M88.5129 22.3511C88.5441 22.4279 88.6316 22.4648 88.7084 22.4336C88.7851 22.4025 88.8221 22.315 88.7909 22.2382L88.5129 22.3511ZM87.8003 21.5145C87.9637 21.615 88.3418 21.9298 88.5129 22.3511L88.7909 22.2382C88.5876 21.7377 88.1535 21.3796 87.9575 21.259L87.8003 21.5145Z" fill="black"/>
<path opacity="0.2" d="M57.5147 156.814C57.5147 156.814 63.2363 159.343 64.6667 158.582C66.0971 157.82 68.5754 157.723 69.1476 158.199C69.7197 158.675 71.0537 157.46 71.3398 157.402C71.6258 157.344 74.297 160.295 76.3928 159.536C78.4885 158.778 81.8572 158.25 81.8572 158.25C81.8572 158.25 83.6123 155.284 87.2027 156.987C90.7932 158.691 92.1272 157.659 93.2715 156.457C94.4158 155.255 101.568 154.718 101.854 155.939C102.14 157.161 103.378 157.926 104.715 157.926C106.052 157.926 105.094 155.853 106.907 157.46C108.72 159.067 112.172 158.893 112.172 158.893C112.172 158.893 115.296 158.694 116.351 157.023C117.405 155.351 119.115 153.541 120.452 154.589C121.79 155.637 123.31 154.763 125.026 155.155C125.502 155.242 125.953 155.431 126.35 155.708C126.746 155.985 127.077 156.345 127.321 156.762L122.548 157.016L122.452 160.758H81.4586L56.7754 166.495C56.8568 166.007 57.0424 165.541 57.3198 165.131C57.5971 164.72 57.9596 164.375 58.3826 164.117C59.8098 163.258 59.4176 162.593 59.4176 162.593L58.5015 159.401L57.5147 156.814Z" fill="#F43B00"/>
<path opacity="0.2" d="M140.575 149.861C154.981 149.542 166.612 147.135 166.553 144.485C166.494 141.835 154.768 139.946 140.362 140.265C125.956 140.585 114.325 142.992 114.384 145.642C114.442 148.291 126.169 150.181 140.575 149.861Z" fill="#F43B00"/>
<path d="M124.465 138.28C123.314 138.473 122.154 138.662 121.039 138.945C120.606 139.02 120.194 139.187 119.83 139.434C119.83 139.434 119.83 139.356 119.83 139.363C119.895 139.423 119.97 139.471 120.052 139.504C120.172 139.562 120.295 139.613 120.421 139.655C122.89 140.372 125.532 140.33 128.136 140.453C138.039 140.732 148.123 140.321 157.888 142.404C158.383 142.571 160.312 142.924 159.688 143.706C159.555 143.819 159.4 143.905 159.232 143.956C158.373 144.203 157.494 144.372 156.606 144.461C151.958 145.011 147.284 145.303 142.633 145.766C140.981 145.978 139.219 146.02 137.663 146.557C137.631 146.557 137.612 146.592 137.644 146.557C137.687 146.512 137.718 146.456 137.734 146.396C137.761 146.3 137.754 146.198 137.715 146.107C137.65 145.985 137.65 146.013 137.667 146.017L137.779 146.081C140.145 146.933 142.752 147.18 145.291 147.389C149.933 147.711 154.574 147.56 159.229 147.389C161.157 147.351 163.086 147.164 165.015 147.367C165.312 147.39 165.595 147.502 165.828 147.688C166.737 148.845 164.14 149.324 163.456 149.565C161.752 150.031 160.029 150.404 158.313 150.771C156.021 151.25 153.716 151.668 151.405 152.057C151.389 152.058 151.373 152.054 151.36 152.044C151.347 152.035 151.338 152.021 151.335 152.005C151.332 151.99 151.335 151.974 151.343 151.96C151.351 151.946 151.364 151.936 151.379 151.931C153.067 151.494 156.477 150.607 158.161 150.15C159.846 149.694 161.533 149.234 163.189 148.681C163.836 148.491 164.462 148.235 165.056 147.916C164.997 148.008 164.975 148.118 164.994 148.225C165.014 148.332 165.074 148.428 165.162 148.492C164.939 148.446 164.712 148.421 164.484 148.418C158.055 148.582 151.627 149.366 145.182 148.739C143.677 148.604 137.204 147.904 136.628 146.592C136.217 145.306 138.236 145.216 139.013 145.065C143.623 144.512 148.435 144.554 153.067 144.287C155.076 144.149 157.146 144.127 159.094 143.59C159.213 143.555 159.322 143.495 159.415 143.413V143.436C159.397 143.406 159.373 143.381 159.344 143.362C158.38 142.815 157.165 142.661 156.075 142.439C153.772 142.097 151.448 141.908 149.119 141.873C143.334 141.735 137.4 141.838 131.598 141.619C129.251 141.526 126.905 141.427 124.565 141.163C123.102 140.989 121.588 140.803 120.187 140.253C119.756 140.083 119.023 139.707 119.338 139.151C119.727 138.669 120.386 138.649 120.929 138.508C122.092 138.327 123.264 138.209 124.439 138.154C124.456 138.154 124.473 138.161 124.485 138.173C124.497 138.185 124.504 138.202 124.504 138.219C124.504 138.236 124.497 138.252 124.485 138.264C124.473 138.276 124.456 138.283 124.439 138.283L124.465 138.28Z" fill="#F43B00"/>
<path opacity="0.2" d="M81.6684 84.082C81.6684 84.082 79.0776 107.888 76.6989 116.927C74.3203 125.965 63.4075 152.233 63.4075 152.233H52.2246C52.2246 152.233 55.8472 150.578 57.2969 147.884C58.7466 145.191 56.9755 142.812 59.412 142.812C61.8485 142.812 62.1635 140.016 63.7192 137.026C65.275 134.037 66.654 135.576 66.9336 129.569C67.2133 123.561 71.0577 125.634 71.6781 120.247C72.2984 114.86 72.8192 115.274 73.6453 113.204C74.4714 111.134 75.201 108.958 74.7864 106.059C74.3717 103.159 76.2039 102.227 76.6861 95.911C77.1682 89.5947 80.3923 97.2224 81.6684 84.082Z" fill="black"/>
<path opacity="0.2" d="M94.2832 79.6211C94.2832 79.6211 110.57 81.9001 119.204 87.117C127.838 92.334 127.658 98.0877 128.018 105.912C128.378 113.735 129.185 125.966 128.661 138.914H121.728C121.728 138.914 124.788 139.094 124.248 132.62C123.708 126.146 126.315 127.763 125.855 122.099C125.395 116.435 125.045 117.512 125.135 114.005C125.225 110.498 120.461 112.565 122.348 105.372C124.235 98.1777 123.068 94.5808 121.358 93.7708C119.648 92.9608 117.025 88.2871 114.38 89.0039C111.734 89.7207 113.795 87.027 111.551 87.027C109.307 87.027 107.87 86.757 106.7 85.767C105.53 84.777 99.2269 80.7172 94.2832 79.6211Z" fill="black"/>
<path d="M116.272 141.263C116.367 141.044 116.451 140.859 116.514 140.719H125.527L125.536 140.72L125.694 140.75C125.832 140.777 126.035 140.815 126.295 140.865C126.813 140.965 127.555 141.109 128.447 141.286C130.233 141.64 132.62 142.126 135.03 142.653C137.442 143.182 139.869 143.75 141.737 144.27C142.673 144.53 143.457 144.774 144.025 144.992C144.311 145.102 144.528 145.2 144.679 145.283C144.755 145.325 144.804 145.359 144.833 145.382C144.838 145.386 144.842 145.389 144.845 145.392C144.987 145.653 144.994 145.826 144.927 145.963C144.844 146.135 144.566 146.422 143.736 146.706C142.088 147.268 138.702 147.674 132.174 147.581C124.945 147.477 120.804 147.265 118.359 146.978C115.91 146.69 115.267 146.333 114.931 146.027C114.928 146.021 114.901 145.975 114.89 145.84C114.876 145.674 114.891 145.444 114.942 145.155C115.042 144.58 115.26 143.867 115.515 143.157C115.769 142.452 116.052 141.77 116.272 141.263Z" fill="black" stroke="#F43B00"/>
</g>
<defs>
<clipPath id="clip0_962_385837">
<rect width="165.174" height="164.361" fill="white" transform="translate(1.39062 3.78125)"/>
</clipPath>
</defs>
</svg>
