<svg width="140" height="59" viewBox="0 0 140 59" fill="none" xmlns="http://www.w3.org/2000/svg">
<g clip-path="url(#clip0_491_384121)">
<path d="M106.512 2.49025H60.7909V48.0076H65.7817V49.7916C63.5286 49.8055 61.2795 49.7638 59 49.8651V0.677158H108.325V49.8221H102.615V48.059H106.512V2.49025Z" fill="#87898F"/>
<path d="M84.6072 22.5605C83.6702 18.9843 80.6271 16.8422 77.1342 16.7076C75.5265 16.6451 73.9147 16.6965 72.3002 16.6965C72.2433 17.0005 72.2322 32.8477 72.3002 33.4113C74.4798 33.2572 76.6844 33.6432 78.857 33.1156C80.1194 32.8228 81.2897 32.2224 82.2638 31.3678C82.3152 31.3233 82.3721 31.2859 82.4582 31.222C82.7527 31.9218 83.1317 32.5829 83.5869 33.1906C82.4528 34.1219 81.1362 34.8052 79.7219 35.1966C78.6417 35.4986 77.5241 35.6458 76.4025 35.6339L70.1039 35.6117C69.8874 35.4965 69.8915 35.298 69.8915 35.0911C69.8915 33.782 69.8915 32.4742 69.8915 31.1665C69.8915 25.7911 69.8915 20.4152 69.8915 15.0389C69.8738 14.8806 69.8832 14.7205 69.9193 14.5655C70.0581 14.4572 70.2233 14.5085 70.3746 14.5085C72.5445 14.5085 74.7144 14.5085 76.8857 14.5085C77.0425 14.5273 77.2015 14.5174 77.3549 14.4794C79.9329 14.6488 82.2139 15.54 84.0908 17.3392C86.8188 19.9617 87.6628 23.2144 87.145 26.8878C86.9294 28.3811 86.3809 29.8068 85.5402 31.0596C85.3139 31.0374 85.25 30.8472 85.1626 30.6875C84.614 29.6815 84.4185 28.5206 84.6072 27.3904C84.8502 25.8272 84.9141 24.2848 84.5823 22.7341C84.5759 22.6751 84.5845 22.6154 84.6072 22.5605Z" fill="#87898F"/>
<path d="M84.609 22.5605C84.8867 23.1256 84.895 23.7503 84.9464 24.3528C85.0297 25.3246 84.8867 26.2867 84.752 27.2515C84.5632 28.6009 84.7437 29.899 85.542 31.0554C86.1695 32.2146 87.1607 32.9407 88.3754 33.3641C92.2182 34.701 96.1095 31.5691 95.7069 27.5222C95.3987 24.4236 92.7915 22.2662 89.8762 22.4245C89.1297 22.4797 88.3991 22.6677 87.7188 22.9798C87.5602 22.259 87.3543 21.5495 87.1024 20.8557C88.6628 20.2046 90.2441 20.0575 91.8558 20.5184C93.4676 20.9793 94.7018 21.9511 95.65 23.3519V14.4669H97.8129V35.5965H96.2622C96.1498 34.5428 96.2234 33.4821 96.1484 32.3326C95.6639 33.0587 95.1905 33.6779 94.5838 34.1846C91.8225 36.4919 87.5036 36.285 84.877 33.8195C81.8228 30.9541 81.6395 25.8424 84.4147 22.7924C84.4855 22.7188 84.5452 22.6383 84.609 22.5605Z" fill="#87898F"/>
<path d="M86.7865 51.8337C86.7657 52.5792 86.7449 53.2525 86.9031 53.9467C85.5259 54.7297 84.6333 55.968 83.7517 57.2938C83.1312 56.4359 82.3168 55.7367 81.375 55.253L82.9646 54.291C83.2172 54.756 83.4574 55.2017 83.7198 55.689C84.382 54.1147 85.2483 52.7597 86.7865 51.8337Z" fill="#87898F"/>
<path d="M98.3618 49.6805C98.0008 49.7999 97.701 49.7763 97.3636 49.7832L95.8074 48.0673C95.5394 48.7337 95.8865 49.3293 95.7671 49.9304L94.948 50.0373C94.8272 48.6768 94.7092 47.3426 94.5898 46.0113C94.8758 45.8294 95.1452 45.9155 95.4436 45.8725C95.4978 46.3958 95.5491 46.8873 95.6116 47.4856L96.843 45.7406L97.8703 45.6503L96.5015 47.6495L98.3618 49.6805Z" fill="#87898F"/>
<path d="M101.055 45.3671C101.039 45.6156 101.03 45.7975 101.016 46.0238L99.3249 46.1807C99.3555 46.4916 99.3832 46.7832 99.4124 47.083C99.9677 47.1622 100.494 46.9872 101.021 47.0289C101.145 47.2038 101.107 47.3899 101.101 47.6009C100.585 47.7813 100.02 47.6411 99.4874 47.8272C99.4346 48.1853 99.5609 48.5296 99.579 48.9072C100.195 48.978 100.788 48.8448 101.384 48.8239C101.506 49.0225 101.453 49.2168 101.432 49.4514L98.746 49.6874C98.628 48.3297 98.5114 46.9956 98.3906 45.6045L101.055 45.3671Z" fill="#87898F"/>
<path d="M90.624 45.1297C90.363 45.2824 90.2964 45.0922 90.1978 44.9909C88.3556 42.971 86.0732 41.9478 83.3383 42.1061C80.4827 42.2643 78.2753 43.6124 76.7038 45.996C76.5219 46.2737 76.5261 46.2737 76.2109 46.2973C76.9231 44.4828 79.429 42.1213 82.6109 41.7562C85.8969 41.38 88.5583 42.5267 90.624 45.1297Z" fill="#87898F"/>
<path d="M94.0781 49.1988C94.1781 49.3876 94.2878 49.5417 94.3017 49.7333C93.6964 50.4149 92.3692 50.4357 91.6028 49.7791C90.7949 49.0849 90.6519 47.6106 91.3099 46.7568C91.9263 45.9558 93.2355 45.7433 94.0296 46.3403C93.9768 46.518 93.9227 46.7054 93.8685 46.8956C92.9384 46.5791 92.3414 46.6902 91.9971 47.226C91.6528 47.7619 91.7417 48.7726 92.1873 49.2446C92.5802 49.6555 93.223 49.6458 94.0781 49.1988Z" fill="#87898F"/>
<path d="M76.9152 51.545C76.5306 51.6838 76.5306 51.6838 76.0586 51.6449C75.96 50.544 75.8615 49.4362 75.7587 48.2894L74.6231 48.3436C74.5513 48.1431 74.5211 47.93 74.5343 47.7175L77.7065 47.4398C77.7957 47.625 77.8192 47.8351 77.7731 48.0354C77.4288 48.2173 77.0318 48.0826 76.6333 48.2311C76.7319 49.332 76.8221 50.4427 76.9152 51.545Z" fill="#87898F"/>
<path d="M91.6171 53.762C90.3163 56.7607 88.0617 58.5488 84.8146 58.9403C80.6942 59.4373 76.7501 56.7996 75.57 52.8458C75.5423 52.7541 75.5312 52.6584 75.5117 52.5681C75.7297 52.5348 75.6977 52.6847 75.7283 52.7833C76.7584 55.9583 78.9144 57.9199 82.1754 58.5613C86.0237 59.3151 89.8332 57.2813 91.5366 53.6773C91.6102 53.6565 91.656 53.6704 91.6171 53.762Z" fill="#87898F"/>
<path d="M77.3595 14.4752C77.2206 14.5974 77.0568 14.5433 76.9055 14.5433C74.762 14.5433 72.619 14.5433 70.4764 14.5433H70.0307C69.8919 14.7501 69.9405 14.9417 69.9405 15.1222C69.9405 21.71 69.9377 28.2969 69.9322 34.8829C69.9177 35.1362 69.9781 35.3882 70.1057 35.6076L69.8711 35.6214V14.4974C69.8975 14.4822 69.9197 14.4558 69.9419 14.4558L77.3595 14.4752Z" fill="#87898F"/>
<path d="M99.3633 45.0909C99.4896 44.7105 99.6062 44.3592 99.7228 44.0122C99.9876 43.9296 100.265 43.8967 100.542 43.915C100.381 44.5841 99.8908 45.0895 99.3633 45.0909Z" fill="#87898F"/>
<path d="M91.6185 53.762L91.5352 53.6732C91.8422 52.9121 92.0693 52.1212 92.2126 51.3131C92.1898 52.1622 91.9873 52.9969 91.6185 53.762Z" fill="#87898F"/>
<path d="M85.7957 48.953C85.7471 47.8049 85.2209 47.2094 84.1228 46.9914C83.3967 46.8526 82.697 47.0525 81.9141 47.0456C82.0404 48.4519 82.1612 49.7888 82.282 51.1396C82.9761 51.0827 83.6314 51.0688 84.2602 50.9147C85.2473 50.6731 85.8359 49.9096 85.7957 48.953ZM84.7753 49.6999C84.4352 50.3538 83.7813 50.3941 83.0872 50.3774C83.008 49.4501 82.9317 48.5727 82.8539 47.6481C83.5189 47.63 84.1728 47.4454 84.617 48.0326C84.8046 48.2641 84.9197 48.5458 84.9479 48.8424C84.976 49.139 84.916 49.4373 84.7753 49.6999Z" fill="#87898F"/>
<path d="M88.3519 46.4028C87.14 46.4028 86.2695 47.2677 86.2695 48.4519C86.2779 49.7846 87.072 50.6481 88.2839 50.6454C89.5625 50.6454 90.4094 49.8304 90.408 48.6129C90.408 47.2871 89.5847 46.4028 88.3519 46.4028ZM89.525 48.5935C89.525 49.4681 89.1335 49.9346 88.4227 49.9637C87.712 49.9929 87.2691 49.5472 87.1955 48.7531C87.1767 48.5686 87.1744 48.3828 87.1886 48.1978C87.2385 47.5898 87.6217 47.1774 88.1701 47.1191C88.4432 47.0737 88.7235 47.132 88.9559 47.2825C89.1883 47.433 89.3562 47.6648 89.4265 47.9327C89.5046 48.1438 89.5381 48.3688 89.525 48.5935Z" fill="#87898F"/>
<path d="M70.6828 50.2511C70.6175 49.1793 70.1816 48.606 69.2389 48.3769C68.4421 48.1839 67.6494 48.3144 66.8164 48.4255C66.9386 49.7749 67.0594 51.0965 67.1857 52.4945C67.9853 52.3557 68.7572 52.4376 69.4791 52.1433C69.8607 52.0053 70.1858 51.7448 70.4036 51.4024C70.6213 51.06 70.7195 50.6552 70.6828 50.2511ZM69.6915 50.9994C69.357 51.7129 68.6781 51.6935 68.002 51.7254C67.9104 50.8119 67.8007 49.9207 67.7785 48.9878C68.4199 48.8947 69.0501 48.8212 69.4902 49.3376C69.6855 49.563 69.8091 49.8416 69.8449 50.1377C69.8808 50.4338 69.8274 50.7339 69.6915 50.9994Z" fill="#87898F"/>
<path d="M73.102 47.9049H72.269C71.89 49.3057 71.518 50.6814 71.1445 52.0697C71.4375 52.1752 71.6846 52.0697 72.0011 52.0309C72.1149 51.6144 72.2288 51.2062 72.3468 50.7814L73.506 50.6787L74.0474 51.8407C74.3258 51.8843 74.6107 51.8537 74.8734 51.7518L73.102 47.9049ZM72.4689 50.1886C72.5647 49.7569 72.648 49.3806 72.7466 48.9517C72.9868 49.3182 73.0659 49.711 73.245 50.0748C72.9868 50.2164 72.7563 50.2011 72.4689 50.1886Z" fill="#87898F"/>
<path d="M80.0675 47.2357L79.2539 47.2913L78.1211 51.4922C78.4137 51.5073 78.7069 51.4768 78.9902 51.402C79.104 50.9855 79.2123 50.5843 79.3317 50.1525L80.4867 50.0595L81.042 51.2562C81.3197 51.2409 81.5779 51.2562 81.8486 51.1174C81.2517 49.8161 80.6579 48.5222 80.0675 47.2357ZM79.4538 49.5819C79.5455 49.1557 79.6274 48.7698 79.7204 48.3325C79.9717 48.7004 80.0466 49.0905 80.2146 49.4653C79.976 49.5716 79.7133 49.6119 79.4538 49.5819Z" fill="#87898F"/>
</g>
<defs>
<clipPath id="clip0_491_384121">
<rect width="49.3254" height="58.3228" fill="white" transform="translate(59 0.677162)"/>
</clipPath>
</defs>
</svg>
