<svg width="342" height="345" viewBox="0 0 342 345" fill="none" xmlns="http://www.w3.org/2000/svg">
<g clip-path="url(#clip0_463_351398)">
<path opacity="0.2" d="M205.539 342.593C246.867 342.593 280.37 337.978 280.37 332.286C280.37 326.593 246.867 321.979 205.539 321.979C164.21 321.979 130.707 326.593 130.707 332.286C130.707 337.978 164.21 342.593 205.539 342.593Z" fill="#F43B00"/>
<path d="M53.0697 282.415C57.0775 281.033 61.2573 280.213 65.49 279.979C68.6536 279.979 71.8172 280.137 75.0377 279.859C75.5457 279.773 76.0678 279.848 76.5309 280.074C76.6017 280.13 76.6563 280.204 76.6891 280.289C76.736 280.405 76.7472 280.533 76.7212 280.656C76.6953 280.779 76.6335 280.891 76.5436 280.979C75.9957 281.392 75.3903 281.722 74.7466 281.959C70.803 283.555 66.7011 284.728 62.5099 285.458C58.331 286.191 54.0982 286.574 49.8555 286.603C49.8384 286.604 49.8212 286.602 49.8052 286.596C49.7891 286.59 49.7744 286.581 49.7619 286.569C49.7495 286.557 49.7396 286.543 49.7329 286.527C49.7261 286.511 49.7226 286.494 49.7227 286.477C53.5569 284.674 57.8847 283.794 61.9594 282.801C64.0094 282.364 66.0784 282.048 68.1411 281.694C69.1724 281.472 74.8352 280.669 75.6957 280.27C75.7337 280.27 75.7653 280.232 75.759 280.27C75.7163 280.325 75.6881 280.391 75.6767 280.46C75.6673 280.53 75.6745 280.601 75.6975 280.668C75.7206 280.735 75.759 280.796 75.8096 280.846C75.9108 280.915 75.8729 280.846 75.8476 280.846C75.8028 280.828 75.7561 280.815 75.7084 280.808C71.2793 280.213 66.9705 282.231 62.5605 282.503C59.4084 282.844 56.2321 282.902 53.0697 282.674C52.9432 282.674 52.9052 282.459 53.0697 282.421V282.415Z" fill="#F43B00"/>
<path d="M42.059 288.185C39.9458 288.78 37.8198 289.362 35.7951 290.115C35.0086 290.344 34.2782 290.734 33.6502 291.26C33.6502 291.26 33.6502 291.089 33.6502 291.102C33.783 291.192 33.9279 291.262 34.0805 291.311C34.3142 291.396 34.553 291.465 34.7954 291.52C39.5535 292.361 44.4697 291.754 49.348 291.469C67.9119 290.014 86.6783 287.3 105.331 289.274C106.305 289.489 109.994 289.773 108.963 291.381C108.733 291.621 108.458 291.812 108.153 291.944C106.597 292.575 104.988 293.064 103.344 293.405C94.7644 295.354 86.0899 296.835 77.4912 298.631C74.4605 299.346 71.1641 299.777 68.3864 301.08C68.3358 301.118 68.3042 301.162 68.3864 301.08C68.4602 300.981 68.5101 300.866 68.5319 300.745C68.5585 300.546 68.5185 300.343 68.4181 300.169C68.2599 299.935 68.2599 299.992 68.2852 299.992C68.3554 300.025 68.4272 300.054 68.5003 300.08C73.0812 301.2 77.9911 301.15 82.7744 301.036C91.5123 300.719 100.149 299.524 108.804 298.283C112.405 297.834 115.979 297.107 119.643 297.113C120.212 297.09 120.774 297.24 121.256 297.543C123.23 299.581 118.447 300.992 117.175 301.593C114.088 302.795 110.937 303.832 107.786 304.851C103.597 306.184 99.379 307.422 95.1314 308.565C95.1005 308.572 95.0681 308.567 95.0407 308.551C95.0133 308.535 94.9928 308.51 94.9832 308.48C94.9737 308.45 94.9758 308.417 94.9892 308.388C95.0026 308.359 95.0262 308.337 95.0555 308.325C98.1242 307.173 104.318 304.832 107.374 303.643C111.373 302.048 115.543 300.542 119.289 298.461C119.478 298.352 119.654 298.223 119.814 298.075C119.711 298.244 119.671 298.445 119.702 298.641C119.734 298.837 119.834 299.015 119.985 299.144C120.026 299.18 120.073 299.21 120.124 299.233C120.056 299.237 119.989 299.237 119.921 299.233C116.34 299.308 112.765 300.194 109.197 300.726C100.497 302.206 91.7211 303.529 82.8567 303.693C78.3746 303.828 73.8902 303.521 69.4684 302.776C68.3864 302.485 67.1779 302.453 66.3997 301.34C65.5139 299.625 67.7664 298.72 68.9306 298.391C75.8905 296.493 83.0845 295.803 90.1835 294.715C95.2453 293.918 101.414 293.196 106.33 291.798C107.072 291.63 107.771 291.314 108.387 290.868C108.387 290.868 108.387 290.919 108.387 290.925C107.912 290.612 107.374 290.409 106.811 290.33C100.895 289.223 94.834 289.641 88.8548 290.058C75.7955 291.159 62.5844 292.861 49.4682 293.443C45.0391 293.608 40.6101 293.798 36.1811 293.12C35.0802 292.886 33.9033 292.728 32.9795 292.02C31.518 290.438 34.4348 289.615 35.5484 289.286C37.6857 288.721 39.853 288.275 42.0401 287.951C42.0713 287.948 42.1027 287.956 42.1281 287.975C42.1535 287.993 42.171 288.021 42.1773 288.052C42.1836 288.082 42.1783 288.114 42.1623 288.142C42.1462 288.169 42.1207 288.189 42.0907 288.198L42.059 288.185Z" fill="#F43B00"/>
<path d="M21.8281 282.035L31.8061 279.359C31.9723 279.336 32.1413 279.346 32.3036 279.389C32.4659 279.431 32.6182 279.505 32.7518 279.607C32.8855 279.708 32.9979 279.835 33.0826 279.979C33.1673 280.124 33.2227 280.284 33.2455 280.45C33.2684 280.617 33.2583 280.786 33.2158 280.948C33.1733 281.11 33.0993 281.263 32.9979 281.396C32.8966 281.53 32.7699 281.642 32.6251 281.727C32.4803 281.812 32.3203 281.867 32.1541 281.89L21.8281 282.061V282.035Z" fill="#F43B00"/>
<path opacity="0.2" d="M75.6732 302.358C99.1871 302.358 118.249 298.851 118.249 294.525C118.249 290.199 99.1871 286.692 75.6732 286.692C52.1594 286.692 33.0977 290.199 33.0977 294.525C33.0977 298.851 52.1594 302.358 75.6732 302.358Z" fill="#F43B00"/>
<path d="M96.6469 264.863C95.5144 268.558 93.2682 274.405 91.9585 278.15C91.1948 280.119 90.5607 282.135 90.0603 284.186C89.5478 288.04 94.1983 287.919 96.9759 288.192C105.183 288.892 113.428 289.013 121.652 288.552H121.519C122.097 288.405 122.619 288.09 123.019 287.647C123.076 287.54 123.063 287.515 123.019 287.458C122.759 286.92 121.797 286.42 121.171 286.123C119.382 285.373 117.543 284.751 115.666 284.262C110.953 282.858 106.176 281.358 101.443 279.916C100.981 279.757 99.7726 279.378 99.3233 279.226C98.7877 279.09 98.316 278.772 97.9892 278.326C97.6625 277.881 97.5011 277.335 97.5327 276.784C97.5707 275.613 98.5767 274.942 99.3233 274.208L101.494 272.165C104.379 269.438 107.321 266.768 110.276 264.11L110.959 265.8C106.929 265.616 100.69 265.167 96.609 264.87L96.6469 264.863ZM96.5141 264.648C102.019 264.243 107.814 263.889 113.357 263.769C110.061 267.211 106.726 270.684 103.341 274.031C102.607 274.778 100.899 276.474 100.177 277.195C100.233 277.13 100.264 277.047 100.264 276.961C100.264 276.875 100.233 276.792 100.177 276.727C100.135 276.676 100.081 276.637 100.019 276.613H100.064C101.386 277.037 103.771 277.878 105.125 278.308C108.884 279.618 112.648 280.884 116.4 282.225C118.336 282.855 120.21 283.66 122 284.629C125.069 286.262 125.587 288.837 121.69 289.691C114.603 289.444 107.536 289.615 100.462 289.988C95.9636 290.102 87.6181 291.254 87.8079 284.496C88.0546 282.016 89.2884 279.713 90.1806 277.423C92.0538 273.052 94.166 268.787 96.5077 264.648H96.5141Z" fill="#F43B00"/>
<path d="M91.0354 277.834L99.6214 277.885L117.73 283.788C117.73 283.788 124 285.762 123.766 288.04C123.532 290.317 106.335 289.223 106.335 289.223L91.0354 288.236C91.0354 288.236 88.3274 286.724 89.2132 282.877C90.099 279.03 91.0354 277.834 91.0354 277.834Z" fill="white"/>
<path d="M51.1925 153.745L81.8857 147.633C81.8857 147.633 111.908 179.32 122.917 198.814C133.927 218.308 116.761 277.941 116.761 277.941L88.2002 276.075C88.2002 276.075 100.734 230.348 98.5704 217.023C96.4065 203.698 78.121 187.425 78.121 187.425C78.121 187.425 76.9568 205.375 76.8999 210.146C76.729 226.217 49.4716 286.072 49.4716 286.072L21.8281 285.673C21.8281 285.673 47.5418 228.514 50.1549 214.714C53.3311 197.972 51.1925 153.745 51.1925 153.745Z" fill="#F43B00"/>
<path d="M175.111 177.978C171.416 184.483 171.991 192.373 173.118 199.491L172.713 199.453L144.974 197.156L144.519 197.118L144.291 196.713C139.951 188.102 138.052 178.548 136.812 169.076C134.914 153.695 136.249 137.845 141.634 123.267C142.033 122.11 142.537 120.992 143.139 119.927C143.226 119.8 143.333 119.689 143.456 119.598C143.412 119.625 143.376 119.662 143.348 119.705C143.285 119.851 143.348 119.768 143.348 119.737C144.251 115.284 144.528 110.726 144.171 106.197C143.038 93.6309 149.929 83.0075 163.437 89.1133C163.728 89.2204 164.006 89.3605 164.266 89.5309C165.52 90.7907 166.444 92.3395 166.959 94.0409C167.473 95.7423 167.561 97.544 167.214 99.2874C167.069 100.078 166.873 101.325 167.505 101.818C168.018 102.248 169.132 102.033 169.865 102.318C170.051 102.39 170.217 102.505 170.349 102.654C170.482 102.802 170.578 102.98 170.629 103.172C170.68 103.364 170.685 103.566 170.644 103.761C170.602 103.955 170.516 104.137 170.391 104.292C169.454 105.754 167.955 105.887 166.689 106.576C166.62 106.614 166.588 106.665 166.689 106.576C166.739 106.496 166.768 106.405 166.771 106.311C166.778 106.237 166.765 106.162 166.734 106.095L166.778 106.152L166.892 106.298C167.301 106.814 167.828 107.224 168.429 107.494L168.486 107.532C168.575 107.583 168.656 107.647 168.727 107.721C169.517 108.677 168.587 109.449 167.822 109.917C166.227 111.048 164.373 111.757 162.431 111.98C161.8 112.047 161.164 112.047 160.533 111.98C160.738 112.002 160.945 111.954 161.119 111.843C161.294 111.733 161.426 111.568 161.495 111.373C161.564 111.178 161.565 110.966 161.498 110.771C161.432 110.576 161.301 110.409 161.128 110.297C161.001 110.221 160.995 110.227 161.033 110.24L161.134 110.284L161.526 110.442C162.768 110.967 164.075 111.325 165.411 111.505C165.674 111.571 165.909 111.719 166.081 111.928C166.254 112.137 166.354 112.396 166.369 112.667C166.383 112.937 166.31 113.206 166.16 113.431C166.011 113.657 165.792 113.829 165.538 113.922C165.386 113.985 165.202 114.036 165.063 114.112C164.924 114.188 164.639 114.346 164.601 114.466V114.561V114.745C164.886 116.738 163.602 117.143 161.944 116.852C160.318 116.674 158.666 116.105 157.053 116.396C156.098 116.523 155.085 117.491 154.136 116.769C154.277 116.866 154.438 116.929 154.608 116.951C154.777 116.974 154.949 116.956 155.11 116.899C155.271 116.842 155.417 116.748 155.534 116.625C155.652 116.501 155.739 116.351 155.787 116.187C155.486 117.583 155.392 119.016 155.509 120.439C155.623 121.319 155.712 122.065 156.559 122.489C158.382 123.514 160.799 124.008 162.887 124.526C166.354 125.412 170.296 125.843 173.402 127.987C180.445 132.916 178.799 144.748 180.191 152.176L180.134 151.948C180.134 151.986 180.217 152.151 180.267 152.258C180.318 152.366 180.394 152.499 180.463 152.619C181.068 153.732 182.03 154.609 183.194 155.107C184.358 155.606 185.657 155.697 186.879 155.365C191.403 154.239 195.668 152.252 199.945 150.373C202.722 149.108 205.475 147.779 208.208 146.437L208.6 147.355L211.315 153.828L211.517 154.308C209.461 156.675 207.297 158.915 205.057 161.079C200.805 165.166 196.256 169.026 191.074 171.904C188.493 173.309 185.664 174.486 182.659 174.555C179.749 174.056 176.218 175.043 175.098 178.029L175.111 177.978ZM174.877 177.884C175.712 175.612 178.04 174.277 180.362 174.087C181.13 174.022 181.902 174.041 182.665 174.144C185.582 174.062 188.36 172.803 190.834 171.373C198.306 166.817 204.437 160.269 209.973 153.568L209.86 154.41L206.854 148.083L208.183 148.544C205.779 149.873 203.355 151.075 200.907 152.341C196.56 154.429 192.169 156.567 187.461 157.801C183.475 158.972 179.135 156.612 177.648 152.739C177.218 150.303 177.015 147.817 176.794 145.387C176.199 139.123 176.256 130.873 169.056 128.734C166.942 128.032 164.627 127.545 162.304 126.975C159.571 126.216 156.648 125.792 154.332 123.862C152.434 121.787 152.997 118.395 153.396 115.884C153.398 115.635 153.468 115.392 153.598 115.18C153.728 114.969 153.914 114.797 154.135 114.684C154.356 114.57 154.604 114.519 154.852 114.537C155.099 114.554 155.338 114.639 155.541 114.783C155.648 114.859 155.389 114.675 155.326 114.669C155.23 114.632 155.13 114.609 155.028 114.599C154.718 114.599 154.744 114.637 154.75 114.599C155.978 114.021 157.34 113.783 158.692 113.909C160.077 114.036 161.596 114.473 162.956 114.542C162.956 114.542 163.007 114.542 162.956 114.542C162.816 114.581 162.689 114.657 162.589 114.764C162.465 114.881 162.384 115.037 162.361 115.207C162.361 115.263 162.361 115.238 162.361 115.207V114.783V114.517C162.273 112.992 163.627 112.049 164.892 111.708C164.813 111.736 164.737 111.772 164.665 111.815C164.504 111.923 164.38 112.077 164.307 112.256C164.235 112.435 164.217 112.632 164.256 112.821C164.295 113.01 164.39 113.183 164.528 113.319C164.666 113.454 164.841 113.545 165.032 113.58H164.785C163.122 113.285 161.51 112.757 159.995 112.011C159.795 111.879 159.639 111.689 159.548 111.467C159.457 111.245 159.435 111.001 159.485 110.766C159.535 110.531 159.654 110.317 159.828 110.151C160.001 109.985 160.22 109.875 160.457 109.835C160.608 109.812 160.761 109.812 160.913 109.835C161.355 109.895 161.802 109.908 162.248 109.873C164.12 109.675 165.897 108.948 167.373 107.778C167.275 107.861 167.197 107.965 167.146 108.082C167.094 108.199 167.069 108.326 167.073 108.454C167.078 108.581 167.111 108.706 167.17 108.82C167.23 108.933 167.314 109.031 167.417 109.107C165.987 108.386 163.621 106.222 165.765 104.957C166.752 104.362 168.296 104.223 168.929 103.4C168.929 103.356 168.986 103.248 168.967 103.4C168.965 103.533 169.01 103.663 169.094 103.767C169.139 103.826 169.197 103.874 169.264 103.906C169.194 103.883 169.122 103.866 169.049 103.856L168.625 103.811C165.791 103.647 165.12 101.451 165.765 98.9647C166.282 96.8042 165.991 94.5295 164.949 92.5679C164.55 91.7863 164.043 91.0643 163.443 90.423C163.48 90.4554 163.52 90.483 163.564 90.5052C154.421 85.8295 147.284 88.9677 145.278 99.1925C144.304 103.83 145.474 108.588 145.076 113.289C144.986 115.531 144.728 117.762 144.304 119.965V120.022C144.289 120.088 144.263 120.153 144.228 120.211C144.139 120.363 144.07 120.344 143.994 120.477C142.989 122.562 142.199 124.743 141.634 126.988C139.067 136.027 137.887 145.403 138.135 154.796C138.301 164.172 139.461 173.504 141.596 182.635C142.697 187.115 143.924 191.689 145.911 195.846L145.227 195.397L172.827 198.845L172.485 199.206C171.669 192.126 171.219 184.293 174.927 177.896L174.877 177.884Z" fill="#F43B00"/>
<path d="M157.715 111.081C156.323 106.374 158.347 94.7129 158.347 94.7129L161.138 98.4143L165.193 96.358L165.408 93.4918L167.496 95.1938L170.787 93.5298C169.338 90.1321 166.326 85.2032 161.138 85.3044C159.992 85.3044 158.79 86.4749 158.79 86.4749C158.505 85.9315 158.101 85.4598 157.607 85.0956C154.943 83.4695 142.422 81.2424 137.253 89.3095C134.589 93.4665 137.442 99.3761 134.633 102.426C134.633 102.426 131.697 104.9 126.92 111.189C123.94 115.118 124.744 123.628 129.597 127.247C134.45 130.866 139.087 132.746 147.857 130.772C153.343 129.538 157.784 126.134 158.771 123.502C159.758 120.869 159.233 116.2 157.715 111.081Z" fill="#F43B00"/>
<path d="M174.447 189.861C174.447 189.861 206.381 243.477 208.032 249.07C208.766 251.551 213.309 323.333 213.094 324.142L184.78 327.268L182.166 259.485C182.166 259.251 179.003 249.362 174.055 242.724C171.088 238.721 167.674 235.067 163.881 231.835C163.248 230.911 162.894 231.203 162.85 232.335C162.552 238.865 161.369 250.804 161.129 257.131C160.913 262.927 156.263 325.402 156.263 325.402L128.746 324.136C128.746 324.136 134.656 262.067 134.656 256.828C134.656 251.589 138.983 217.675 143.337 194.486L174.447 189.861Z" fill="#F43B00"/>
<path d="M170.057 129.563C169.57 124.773 169.943 119.939 170.304 115.156C170.683 112.169 170.304 108.569 173.107 106.665C175.315 105.399 177.922 106.557 180.067 107.392C180.883 107.677 183.275 108.291 183.895 109.746C183.959 109.932 183.982 110.13 183.961 110.326C183.941 110.522 183.878 110.711 183.777 110.88C183.675 111.049 183.538 111.194 183.375 111.304C183.212 111.414 183.026 111.487 182.832 111.518C182.292 111.591 181.742 111.53 181.231 111.341C180.472 111.144 178.447 110.562 177.669 110.335L178.187 108.607C179.333 108.943 180.434 109.31 181.547 109.727C182.623 110.079 183.637 110.598 184.553 111.265C184.701 111.384 184.824 111.531 184.914 111.698C185.004 111.866 185.06 112.05 185.078 112.239C185.086 112.53 184.993 112.814 184.815 113.045C184.638 113.275 184.387 113.438 184.103 113.504C183.555 113.603 182.994 113.603 182.446 113.504C180.681 113.211 178.941 112.788 177.238 112.239L177.776 110.429C178.896 110.752 179.972 111.1 181.06 111.53C182.224 112.068 184.61 112.796 184.224 114.511C183.591 116.156 181.142 115.251 179.896 115.004C178.776 114.7 177.7 114.371 176.612 113.947L177.144 112.277C178.934 112.91 180.775 113.384 182.205 114.675C182.424 114.885 182.584 115.148 182.669 115.439C182.755 115.73 182.763 116.038 182.692 116.333C181.933 117.073 180.763 116.908 179.839 116.7C177.911 116.106 176.036 115.353 174.233 114.447L175.233 113.713C175.536 115.611 175.815 117.51 176.081 119.37C176.814 125.033 177.783 130.721 177.783 136.453C177.188 129.892 175.049 120.54 173.879 113.966L173.626 112.657C174.562 113.093 175.631 113.593 176.612 113.96C178.112 114.454 179.915 115.453 181.503 115.225L181.402 115.289L181.111 115.82C181.102 115.86 181.102 115.901 181.111 115.94C181.083 115.905 181.053 115.871 181.022 115.839C179.801 114.877 178.124 114.441 176.644 113.979L177.175 112.315C178.206 112.663 179.276 112.992 180.339 113.258C181.124 113.497 181.941 113.619 182.762 113.618C182.686 113.653 182.618 113.703 182.563 113.767C182.508 113.83 182.468 113.905 182.446 113.985C182.415 114.047 182.399 114.116 182.399 114.185C182.399 114.254 182.415 114.322 182.446 114.384C180.971 113.27 178.972 112.821 177.219 112.258L177.751 110.448C179.649 110.967 181.629 111.714 183.585 111.714C183.585 111.714 183.547 111.714 183.42 111.802C183.336 111.876 183.27 111.968 183.226 112.071C183.182 112.174 183.162 112.285 183.167 112.397C183.171 112.496 183.202 112.592 183.256 112.676C183.183 112.608 183.105 112.546 183.021 112.492C181.297 111.601 179.487 110.889 177.618 110.366L178.143 108.639L180.465 109.367C181.107 109.576 181.759 109.749 182.42 109.885C182.348 109.937 182.293 110.01 182.263 110.093C182.232 110.177 182.228 110.267 182.25 110.354C181.554 109.626 180.32 109.265 179.326 108.898C176.081 107.449 173.29 106.367 171.968 110.645C171.076 116.681 170.006 123.299 170.038 129.626L170.057 129.563Z" fill="#F43B00"/>
<path d="M170.282 120.376C170.62 122.453 170.521 124.578 169.991 126.614C169.651 124.537 169.75 122.412 170.282 120.376Z" fill="#F43B00"/>
<path d="M190.426 327.901L197.057 327.224C197.057 327.224 196.88 327.534 199.442 327.857C202.005 328.179 203.656 328.281 207.161 328.989C210.667 329.698 213.976 330.438 215.886 330.989C217.797 331.539 221.043 332.387 221.999 333.216C222.954 334.045 223.22 334.121 223.03 334.924C222.84 335.728 222.796 335.873 219.43 335.936C216.064 336 202.068 335.936 202.068 335.936C202.068 335.936 193.583 337.335 191.982 333.583C190.382 329.831 190.426 327.901 190.426 327.901Z" fill="white"/>
<path d="M190.456 313.095C190.728 316.259 191.088 320.884 191.215 323.978C191.284 327.369 191.474 333.722 195.29 334.886C196.462 335.023 197.64 335.095 198.82 335.101C206.413 335.525 214.005 335.879 221.598 335.392H221.465C221.845 335.259 222.484 334.892 222.579 334.563C222.655 334.487 222.269 334.032 221.75 333.772C220.644 333.215 219.476 332.791 218.27 332.507C211.752 330.821 205.108 329.67 198.403 329.065L197.808 329.014C197.396 328.985 196.998 328.855 196.648 328.637C196.298 328.418 196.007 328.117 195.8 327.761C195.593 327.404 195.476 327.002 195.46 326.589C195.444 326.177 195.529 325.767 195.707 325.395L195.663 325.503C196.144 324.143 196.663 322.795 197.175 321.447C198.58 317.695 200.427 313.095 201.958 309.369L203.091 310.634C199.56 311.374 194.119 312.425 190.475 313.089L190.456 313.095ZM190.259 312.937C194.6 311.438 199.908 309.577 204.299 308.268C202.87 312.747 201.187 317.942 199.63 322.371C199.143 323.769 198.675 325.18 198.143 326.56C198.151 326.541 198.156 326.522 198.156 326.502C198.156 326.482 198.152 326.462 198.145 326.444C198.137 326.425 198.125 326.409 198.111 326.395C198.097 326.381 198.08 326.37 198.061 326.363H198.023L198.656 326.427C205.516 327.152 212.268 328.675 218.776 330.963C220.062 331.409 221.293 331.999 222.446 332.722C222.982 333.04 223.405 333.518 223.654 334.089C224.034 335.354 222.667 336.12 221.68 336.373C214.056 336.208 206.444 336.835 198.826 337.196C195.587 337.309 193.132 337.506 191.158 334.355C189.304 331.191 189.26 327.173 189.513 323.927C189.652 320.264 189.943 316.512 190.278 312.95L190.259 312.937Z" fill="#F43B00"/>
<path d="M133.216 312.937C133.242 312.925 133.248 312.931 133.246 312.947C135.84 313.286 139.516 313.735 142.407 314.046C142.669 313.62 142.958 313.201 143.282 312.792L143.978 314.209C143.493 314.161 142.964 314.106 142.407 314.046C140.815 316.634 140.199 319.505 138.632 322.258C137.955 323.637 136.468 325.288 137.999 326.554C138.723 327.05 138.25 327.542 139.113 327.705C140.979 328.154 142.763 328.464 144.56 328.736C148.112 329.224 151.635 329.901 155.114 330.767C157.113 331.356 159.29 331.906 160.846 333.209C160.948 333.317 160.979 333.393 160.986 333.38C160.992 333.368 161.03 333.374 160.954 333.469C160.593 333.918 159.336 334.228 158.898 334.336L158.898 334.336C150.785 335.242 142.592 335.133 134.506 334.013C134.234 333.937 133.443 333.829 133.241 333.735C130.084 332.121 132.425 319.233 132.804 315.911C132.868 315.43 133.07 314.095 133.133 313.633C133.146 313.513 133.216 313.114 133.216 313.057C133.216 313.022 133.243 312.972 133.246 312.947C133.238 312.946 133.23 312.945 133.222 312.943L133.216 312.937Z" fill="#F43B00"/>
<path d="M131.393 325.983L131.393 325.984L131.393 325.983ZM131.381 326.934C131.382 326.8 131.382 326.684 131.383 326.583C131.44 326.577 131.499 326.572 131.562 326.566C132.049 326.522 132.717 326.463 133.438 326.4C134.778 326.284 136.287 326.16 137.171 326.108C137.215 326.131 137.268 326.158 137.328 326.187C137.56 326.301 137.913 326.454 138.416 326.633C139.424 326.992 141.043 327.454 143.54 327.903C144.474 328.07 145.479 328.234 146.519 328.403C148.278 328.69 150.136 328.992 151.911 329.356C153.312 329.644 154.631 329.965 155.766 330.337C156.91 330.711 157.822 331.124 158.44 331.577C159.149 332.096 159.702 332.503 160.11 332.843C160.508 333.174 160.693 333.382 160.765 333.505C160.666 333.607 160.431 333.768 159.942 333.995C159.886 334.021 159.748 334.066 159.493 334.116C159.25 334.164 158.94 334.21 158.567 334.254C157.822 334.34 156.862 334.412 155.755 334.471C153.545 334.588 150.789 334.653 148.093 334.686C145.398 334.72 142.768 334.722 140.812 334.717C139.834 334.714 139.025 334.709 138.46 334.704C138.178 334.702 137.957 334.7 137.806 334.699L137.635 334.697L137.591 334.697L137.58 334.697L137.577 334.697L137.577 334.697C137.576 334.697 137.576 334.697 137.569 335.386L137.576 334.697L137.543 334.696L137.511 334.699L137.511 334.699L137.511 334.699L137.511 334.699L137.509 334.699L137.499 334.7C137.488 334.701 137.472 334.702 137.45 334.703C137.405 334.706 137.338 334.71 137.252 334.713C137.079 334.719 136.828 334.723 136.526 334.715C135.919 334.698 135.123 334.629 134.336 334.43C133.543 334.23 132.811 333.91 132.283 333.424C131.776 332.957 131.424 332.31 131.412 331.353C131.384 329.056 131.379 327.707 131.381 326.934Z" fill="white" stroke="#F43B00" stroke-width="1.37903"/>
<path d="M170.086 124.337L175.793 125.108" stroke="#F43B00" stroke-width="0.632718" stroke-miterlimit="10" stroke-linecap="round"/>
<path d="M138.551 128.905C138.551 128.905 146.631 134.517 164.884 126.254" stroke="#F43B00" stroke-width="1.26544" stroke-miterlimit="10" stroke-linecap="round"/>
<path opacity="0.2" d="M126.926 116.727C126.676 113.145 130.431 108.502 132.34 106.628C132.617 107.808 133.234 110.418 133.484 111.417C133.797 112.666 132.34 114.957 131.298 118.184C130.256 121.411 133.068 123.389 136.191 123.389C139.314 123.389 139.002 123.91 142.229 125.576C145.456 127.241 145.04 125.055 146.393 123.91C147.747 122.765 150.558 124.014 152.536 123.91C154.118 123.827 156.11 119.086 156.908 116.727C156.943 118.774 156.762 123.306 155.763 125.055C154.514 127.241 146.81 129.428 142.229 129.532C137.648 129.636 135.15 128.491 131.298 126.513C127.473 124.548 127.242 121.249 126.932 116.819L126.926 116.727Z" fill="white"/>
<path opacity="0.2" d="M138.863 135.593C138.863 135.593 143.147 137.396 146.766 135.593C150.385 133.789 151.397 132.929 153.277 132.929C155.156 132.929 158.402 129.544 158.838 124.704H155.732C155.732 124.704 149.158 130.948 140.217 129.677L138.863 135.593Z" fill="#F43B00"/>
<path opacity="0.2" d="M131.918 317.999C132.666 318.176 133.444 318.183 134.195 318.019C134.946 317.856 135.651 317.527 136.258 317.056C138.157 315.455 138.498 315.373 139.624 315.455C140.751 315.538 143.256 316.012 144.003 313.291L133.145 312.823L131.918 317.999Z" fill="#F43B00"/>
<path opacity="0.2" d="M190.425 316.968C190.425 316.968 193.861 317.866 196.183 315.183C198.505 312.501 201.162 313.057 201.694 311.589C202.001 310.557 202.001 309.458 201.694 308.426L190.355 311.729L190.425 316.968Z" fill="#F43B00"/>
<path opacity="0.2" d="M173.789 192.006L205.425 246.654C205.425 246.654 206.013 248.697 206.741 251.424C207.469 254.151 210.86 321.656 210.86 321.656L198.668 322.922C198.668 322.922 200.566 319.79 200.566 317.746C200.566 315.702 199.338 315.702 199.749 313.38C200.161 311.058 199.205 312.02 199.477 309.16C199.749 306.3 197.978 305.75 197.706 302.89C197.434 300.03 202.685 272.684 202.685 267.369C202.685 262.054 202.274 253.304 200.914 251.886C200.43 251.372 200.059 250.763 199.825 250.097C199.59 249.431 199.498 248.724 199.553 248.02C199.553 247.065 200.37 247.748 199.553 247.065C198.737 246.382 197.022 243.933 196.187 241.339C195.352 238.745 191.714 237.391 190.316 232.348C188.917 227.305 188.974 222.395 185.887 220.763C182.799 219.131 181.16 218.308 180.888 212.993C180.616 207.678 177.092 203.996 176.522 201.275C175.953 198.555 173.789 192.006 173.789 192.006Z" fill="white"/>
<path d="M43.2997 107.671C43.73 119.408 45.394 131.151 49.0511 142.338C50.2177 146.027 51.6624 149.623 53.3726 153.094L52.5058 152.676C59.7757 151.208 74.4421 148.386 81.731 146.982L80.9085 148.057L80.6111 143.837C80.3739 139.606 80.3549 135.365 80.5542 131.132C80.8958 125.438 81.4906 119.648 83.5532 114.258L84.2998 112.53L85.4893 114.049C88.3851 117.528 91.9421 120.399 95.9545 122.495C96.4543 122.761 96.9668 122.995 97.4793 123.242C97.7889 123.395 98.1308 123.47 98.4758 123.461C98.8207 123.452 99.1584 123.36 99.4598 123.191C109.197 118.263 125.445 88.8792 131.33 78.3445L131.52 79.3631L126.122 74.6241L127.211 74.4912C122.889 80.4198 118.429 86.2218 113.652 91.796C111.286 94.6222 108.723 97.2778 105.983 99.743C104.927 100.708 103.733 101.51 102.44 102.122C101.586 102.508 100.327 102.578 99.6875 101.666L99.4661 101.407C98.9093 100.774 97.3465 98.9584 96.7644 98.3067C89.931 90.1067 83.6039 87.8858 73.183 86.7786C70.0574 86.5382 65.8624 85.5638 65.2424 81.8371C64.6429 79.2454 64.4994 76.569 64.8185 73.9281C66.5331 75.5668 68.6148 77.0917 70.8989 77.6421C71.5316 77.7497 72.2592 77.9269 72.7274 77.5472C72.8102 77.4485 72.8511 77.3214 72.8413 77.1929C72.8024 76.5566 72.9112 75.9199 73.1593 75.3327C73.4073 74.7454 73.7879 74.2235 74.2713 73.8079L74.4294 74.8455C72.2845 74.1306 69.4879 73.1941 68.8679 70.7139C68.8301 70.4315 68.8928 70.1448 69.045 69.904C69.2167 69.688 69.4542 69.5339 69.7215 69.4654C69.9888 69.3969 70.2711 69.4176 70.5256 69.5244L70.9242 69.6572C72.3739 70.1955 73.8973 70.5091 75.4418 70.5873L74.9419 71.7579C74.5809 71.3342 74.2649 70.874 73.9992 70.3849C73.2399 69.1194 73.2399 67.3288 75.0685 66.9112C76.4162 66.5886 77.5994 66.9872 78.7572 66.3671C78.7572 66.3671 78.6876 66.4304 78.675 66.5822C78.675 66.829 78.8078 66.8037 78.6244 66.7088C76.8717 66.114 75.0115 65.5066 73.86 63.8109C73.2114 62.77 72.9851 61.5206 73.2273 60.3183C73.4795 58.4104 73.4625 56.4765 73.1767 54.5733L74.7268 55.0858C73.0455 56.7265 70.9818 57.9225 68.7223 58.5657C66.7915 58.9505 65.0338 59.9413 63.7049 61.394C63.1848 61.9746 62.8887 62.7216 62.8697 63.5009C60.7944 63.0264 57.8079 63.0074 57.5422 65.7913C57.1246 68.5943 59.4404 69.5117 61.7624 69.5876V70.6063C61.7624 74.2002 61.9649 77.8256 61.1297 81.3625C60.3532 83.2082 58.9224 84.702 57.112 85.5574C54.1951 86.9811 50.8923 87.3101 47.8363 87.8985C43.8439 88.6071 39.9716 89.6321 36.6878 91.7264C28.7029 97.0602 23.1414 107.101 19.9208 115.985C19.258 117.807 18.8161 119.702 18.6048 121.629C18.5162 123.413 19.1489 125.381 19.731 127.127C21.8716 132.83 24.4656 138.352 27.4881 143.641L27.6779 143.97C27.6189 144.852 27.6699 145.739 27.8298 146.608C27.95 147.324 28.1828 148.016 28.5195 148.658C29.7849 151.044 30.1898 153.467 31.2844 155.732C31.2844 155.77 31.3287 155.783 31.2844 155.732C31.1661 155.64 31.0281 155.576 30.8811 155.545C30.7341 155.514 30.582 155.518 30.4366 155.555C30.3224 155.582 30.215 155.633 30.1213 155.703C30.0277 155.774 29.9497 155.864 29.8924 155.966C30.1012 154.157 29.5698 152.1 29.2091 150.215L31.5375 149.506C32.3664 151.613 33.1952 154.005 34.4543 155.833C34.3147 155.739 34.1482 155.692 33.9798 155.701C33.8828 155.702 33.7868 155.72 33.6951 155.751C33.619 155.775 33.5466 155.809 33.48 155.852C33.4275 155.89 33.3787 155.932 33.3344 155.979C33.2016 156.156 33.2395 156.181 33.2395 156.131C33.113 153.84 31.9741 151.613 31.1073 149.5L33.0624 148.456C34.3278 150.525 35.5932 152.784 37.2256 154.555C37.1169 154.508 36.9995 154.483 36.8808 154.483C36.7621 154.483 36.6447 154.508 36.536 154.555C36.4835 154.577 36.4328 154.602 36.3841 154.631L36.3335 154.669C36.2582 154.741 36.2017 154.83 36.169 154.929C35.958 154.025 35.585 153.168 35.0681 152.398C34.3763 151.208 33.6201 150.057 32.8029 148.949C32.7239 148.829 32.6721 148.693 32.6511 148.551C32.8093 148.639 32.1892 148.374 33.2838 147.463C34.3215 147.342 33.8343 147.463 34.0051 147.463C34.0947 147.499 34.1796 147.546 34.2582 147.602C34.777 148.064 35.4414 148.753 35.9412 149.24C37.0583 150.431 38.2967 151.502 39.6363 152.436H39.5477C39.4972 152.431 39.4464 152.431 39.3959 152.436C39.3265 152.454 39.2646 152.494 39.2187 152.55C39.1402 152.628 39.0892 152.731 39.0732 152.841C39.0732 152.955 39.0732 152.841 39.0352 152.752C38.7598 152.159 38.4066 151.606 37.9849 151.107C36.1551 148.907 34.1741 146.837 32.0563 144.913C33.6951 144.767 35.7577 144.913 37.2699 144.369C37.2699 144.369 37.2699 144.369 37.213 144.432L37.1624 144.508C37.1388 144.547 37.1217 144.59 37.1118 144.634C37.0645 144.769 37.0645 144.917 37.1118 145.052C37.194 145.235 37.2383 145.229 37.2383 145.235L37.1877 145.204C35.2452 144.286 32.4486 143.85 30.3164 143.47L29.8228 143.382L29.7406 142.907C28.7436 137.817 28.0485 132.672 27.659 127.5C27.6147 126.627 27.602 125.754 27.6273 124.875C27.931 122.11 29.9114 120.009 31.5881 118.01C33.9318 115.47 36.4521 113.1 39.1301 110.917C40.3449 109.904 41.661 108.86 42.9264 107.905C43.034 107.835 43.1669 107.671 43.3187 107.696L43.2997 107.671ZM43.1858 107.899C43.2238 107.956 43.3124 107.899 43.2554 107.937L43.1922 107.987C42.667 108.405 41.8635 109.095 41.3383 109.531C37.6116 112.885 29.1458 119.965 28.6017 124.906C28.7472 130.873 29.981 136.789 31.1326 142.622L30.5568 142.059C33.0181 142.439 35.7324 142.774 38.0039 143.837C38.2848 143.964 38.5098 144.189 38.6366 144.47C39.1618 146.368 35.2452 146.305 34.1127 146.475L34.6442 145.014C36.3496 146.547 37.9497 148.194 39.4338 149.943C40.0665 150.81 41.0156 151.727 40.9587 153.106C40.9173 153.381 40.7964 153.638 40.6108 153.845C40.4253 154.052 40.1833 154.2 39.9147 154.271C39.7692 154.314 39.617 154.331 39.4655 154.321C39.1903 154.301 38.9238 154.216 38.6872 154.074C37.2104 153.085 35.8425 151.942 34.6062 150.664L33.1952 149.304L33.1067 149.221C33.1829 149.281 33.2684 149.328 33.3597 149.361C33.5306 149.361 33.0371 149.475 34.0747 149.361C35.1567 148.45 34.5366 148.184 34.7074 148.272C34.6789 148.112 34.614 147.961 34.5176 147.83C35.8448 149.496 36.9842 151.304 37.9153 153.22C38.2886 154.093 38.6809 155.447 37.7571 156.232C37.5425 156.422 37.2708 156.536 36.9846 156.556C36.6984 156.575 36.4138 156.499 36.1753 156.34C35.5944 155.901 35.088 155.371 34.6758 154.77C33.4104 153.094 32.3158 151.354 31.2148 149.582L33.1763 148.538C34.1042 150.448 34.854 152.438 35.4161 154.486C35.7451 155.713 35.878 157.858 34.0684 158.016C33.7586 158 33.4576 157.907 33.1918 157.747C32.926 157.587 32.7034 157.365 32.5435 157.099C31.9101 156.187 31.3696 155.214 30.9301 154.195C30.3417 152.929 29.8165 151.664 29.3103 150.36L31.5628 149.582C32.0121 151.86 32.708 154.087 32.3158 156.542C32.2538 156.869 32.1028 157.172 31.8796 157.419C31.6563 157.666 31.3694 157.846 31.0503 157.94C30.8 157.999 30.5393 157.996 30.2903 157.932C30.0413 157.868 29.8115 157.745 29.6204 157.573C28.684 156.631 28.4941 155.511 28.0512 154.41C27.5709 152.839 26.9745 151.305 26.267 149.823C25.3691 148.064 24.9543 146.099 25.0648 144.128L25.2356 144.849C23.1793 141.218 21.2812 137.554 19.5412 133.758C17.8771 129.841 15.8588 125.862 15.9031 121.426C17.1685 110.835 26.2164 95.1684 35.3401 89.5246C40.7246 86.0383 47.3618 85.6587 53.3789 84.3236C55.7453 83.6909 57.8079 82.7988 58.8203 80.7678C59.2695 79.6605 59.2569 77.9775 59.3644 76.6867C59.4657 74.6684 59.491 72.6184 59.491 70.5873L60.535 71.7009C56.1502 71.296 53.9294 67.139 56.1059 63.3174C57.3714 61.3054 59.9782 60.8751 62.1737 61.2737L60.9526 62.0836C61.8637 59.1035 65.4702 57.2054 68.2794 56.6296C70.8103 56.0601 72.8603 54.2189 74.7268 52.5612C75.0285 54.1569 75.1789 55.7775 75.176 57.4015C75.3342 59.1478 74.3219 61.375 75.271 62.8619C75.9037 63.9122 77.3399 64.5639 78.5611 64.9688C79.0701 65.0933 79.5359 65.3535 79.9088 65.7217C80.1272 65.9619 80.245 66.2767 80.2378 66.6012C80.2317 66.7661 80.1921 66.9279 80.1214 67.077C80.0507 67.226 79.9503 67.359 79.8265 67.468C78.618 68.4677 76.7642 68.1008 75.3975 68.3222C73.8727 68.5373 76.4795 71.4478 76.897 71.9856C75.2647 72.0577 73.6316 71.8611 72.0631 71.4035C71.3544 71.2137 70.6395 70.929 69.9435 70.7202C70.0015 70.7027 70.0511 70.6644 70.0827 70.6127C70.127 70.5367 70.0827 70.5367 70.0827 70.6127C70.1934 71.005 70.4127 71.3582 70.7154 71.6313C72.0504 72.998 74.0435 73.5295 75.8341 74.1242L74.866 74.8076C74.5424 75.1187 74.2887 75.4951 74.1218 75.9119C73.9549 76.3286 73.8786 76.7761 73.898 77.2245C73.9034 77.4324 73.867 77.6392 73.791 77.8327C73.7149 78.0262 73.6006 78.2024 73.4551 78.3508C72.6515 79.0847 71.4936 78.9013 70.6078 78.6988C68.4407 78.0473 66.4632 76.8816 64.8438 75.3011L65.6347 75.01C65.4721 76.7884 65.5316 78.5802 65.8118 80.3438C66.0396 82.0332 66.5458 83.7795 68.1466 84.6463C71.3101 86.2977 75.2583 85.9118 78.6876 86.8102C86.6599 88.1642 92.1645 91.7011 97.4034 97.7626C97.9602 98.3953 99.6179 100.18 100.168 100.812L100.396 101.065C101.092 101.951 102.351 101.065 103.123 100.616C106.812 98.0283 109.722 94.4851 112.677 91.0747C117.353 85.4942 121.738 79.6415 125.964 73.7003L126.433 73.0676L127.065 73.5864L132.576 78.1926L133.089 78.6165L132.772 79.2113C126.844 90.2522 120.605 101.091 113.436 111.385C110.577 115.181 102.111 127.987 96.5809 125.305C91.5678 123.06 87.1496 119.673 83.6798 115.415L85.6159 115.2C85.1369 116.436 84.7478 117.705 84.4517 118.997C82.2498 128.38 82.2688 138.301 82.9205 147.886L82.9775 148.804L82.098 148.962C74.8027 150.297 60.111 152.974 52.8032 154.239L52.1704 154.346L51.9174 153.821C45.47 139.686 42.7176 123.324 43.1669 107.854L43.1858 107.899Z" fill="#F43B00"/>
<path d="M75.2285 54.3834C76.2417 53.1952 76.9979 51.81 77.4493 50.315C78.2655 47.5058 78.8603 46.3669 69.4391 48.6763C60.9354 50.7643 54.2539 50.2201 52.5582 54.7377C50.8625 59.2553 54.14 60.4701 51.9887 64.8612C49.8375 69.2523 53.8869 71.8211 55.2789 72.3589C56.6708 72.8967 60.1951 74.023 60.1381 75.668L60.1951 71.1251C60.1951 71.1251 56.5443 71.0682 55.7661 67.7591C54.9878 64.4499 57.6642 59.6982 61.7073 62.4063C61.7073 62.4063 63.0107 59.4198 65.763 58.4581C68.5153 57.4964 73.2417 56.1297 75.2285 54.3834Z" fill="#F43B00"/>
<path opacity="0.2" d="M74.4699 54.3697C75.7265 54.0556 76.5647 50.7239 76.8267 49.0973C76.155 47.1343 70.4311 53.6966 67.2342 54.8745C64.0373 56.0523 63.6443 55.0988 62.1289 55.9963C60.6135 56.8937 60.8398 58.5764 58.8206 59.6421C56.8013 60.7078 55.9042 60.203 55.0626 63.5683C54.2209 66.9337 55.2311 65.6437 55.3432 67.6068C55.4554 69.5699 53.268 70.3552 55.9042 71.3648C58.0132 72.1725 59.1013 73.0475 59.3818 73.384C59.5874 73.1971 59.9987 72.5315 59.9987 71.3648C59.9987 69.9065 59.1576 69.8504 57.531 69.2895C55.9044 68.7286 56.9145 66.2046 56.9145 64.6341C56.9145 63.0635 58.0357 62.2783 59.6623 62.1661C61.2889 62.0539 61.9045 62.11 62.1289 60.876C62.3532 59.6421 64.9345 57.9033 67.2342 57.9033C69.5339 57.9033 72.8993 54.7623 74.4699 54.3697Z" fill="white"/>
<path d="M57.6562 83.8112H66.6092" stroke="#F43B00" stroke-width="1.26544" stroke-miterlimit="10" stroke-linecap="round"/>
<path d="M24.9727 142.059L29.5409 139.629" stroke="#F43B00" stroke-width="1.26544" stroke-miterlimit="10" stroke-linecap="round"/>
<path d="M36.539 273.962C34.9319 279.106 32.3947 285.401 30.6991 290.533C30.3801 291.422 30.1243 292.334 29.9335 293.26C29.421 297.113 34.0651 296.986 36.8491 297.265C40.2658 297.492 44.0178 297.777 47.4218 297.853C51.9204 298.005 57.444 297.853 61.4238 297.644C62.002 297.497 62.5237 297.182 62.9234 296.739C62.974 296.632 62.9677 296.607 62.9234 296.543C62.664 296.006 61.7022 295.512 61.0758 295.215C59.2863 294.466 57.447 293.842 55.5712 293.348C50.8574 291.95 46.0804 290.45 41.3477 289.001L39.2281 288.318C38.6924 288.182 38.2208 287.864 37.894 287.419C37.5673 286.973 37.4059 286.427 37.4375 285.876C37.4691 284.705 38.4815 284.035 39.2281 283.301L41.3983 281.257C44.2835 278.53 47.2256 275.86 50.1804 273.202L50.8638 274.892C46.8334 274.708 40.5948 274.259 36.5137 273.962H36.539ZM36.3998 273.747C41.9108 273.342 47.7065 272.987 53.2491 272.861C49.9527 276.309 46.6182 279.783 43.2332 283.13C42.4992 283.876 40.7909 285.566 40.0696 286.293C40.1266 286.229 40.158 286.145 40.158 286.059C40.158 285.973 40.1266 285.89 40.0696 285.825C40.0275 285.774 39.973 285.735 39.9114 285.711H39.9557C41.2781 286.135 43.6571 286.977 45.0175 287.407C48.8138 288.717 52.5468 289.982 56.2925 291.323C58.2312 291.951 60.1077 292.755 61.8984 293.728C64.967 295.36 65.4859 297.935 61.5883 298.789C54.5019 298.543 47.4344 298.714 40.3607 299.087C35.862 299.201 27.5165 300.352 27.7063 293.595C27.9214 291.108 29.1869 288.78 30.0537 286.521C31.932 282.152 34.0441 277.888 36.3809 273.747H36.3998Z" fill="#F43B00"/>
<path d="M30.9299 286.932L39.5159 286.983L57.6243 292.886C57.6243 292.886 63.8882 294.86 63.6604 297.138C63.4326 299.416 46.229 298.321 46.229 298.321L30.9299 297.334C30.9299 297.334 28.2219 295.822 29.1077 291.975C29.9935 288.128 30.9299 286.932 30.9299 286.932Z" fill="white"/>
<path opacity="0.2" d="M161.456 230.393C161.456 230.393 159.83 254.436 159.678 256.758C159.526 259.08 154.654 323.048 154.654 323.048H142.633C142.633 323.048 148.77 309.413 148.77 308.451C148.77 307.489 150.301 304.585 151.681 299.068C153.06 293.551 152.446 294.639 152.446 292.475C152.446 290.311 153.079 290.02 153.079 288.951C153.079 287.882 150.782 286.192 151.396 282.82C152.01 279.447 153.655 278.986 153.75 276.531C153.845 274.076 152.775 276.992 153.845 274.082C154.914 271.171 155.382 266.723 155.072 264.882C154.762 263.041 156.148 262.737 156.451 259.365C156.755 255.993 154.768 252.468 155.996 245.11C157.223 237.751 158.906 236.22 158.293 234.537C157.744 233.225 157.637 231.771 157.989 230.393C158.192 229.163 158.292 227.919 158.286 226.672L161.456 230.393Z" fill="white"/>
<path opacity="0.2" d="M82.5039 151.676C82.5039 151.676 103.763 169.842 120.385 197.548C120.385 197.548 124.744 203.407 124.94 209.121C124.94 209.121 123.042 237.201 122.884 239.491C122.726 241.782 116.259 275.063 116.095 276.062L105.971 275.518C105.971 275.518 113.343 259.358 114.228 255.423C115.114 251.487 112.874 254.683 114.595 249.507C116.316 244.331 116.569 242.49 116.443 240.016C116.316 237.542 115.462 237.802 116.196 234.6C116.93 231.399 116.076 229.671 115.956 228.564C115.835 227.457 117.31 226.717 117.31 223.268C117.31 219.82 114.722 220.313 114.722 213.543C114.722 206.773 117.43 206.153 113.982 201.351C110.533 196.549 111.52 194.353 110.533 189.848C109.546 185.343 105.712 186.944 105.168 182.388C104.624 177.833 99.9479 178.693 98.9609 173.891C97.9739 169.089 96.7464 170.196 95.386 167.241C94.0257 164.286 92.2857 165.855 90.6849 162.534C89.0842 159.212 82.5039 151.676 82.5039 151.676Z" fill="white"/>
<path opacity="0.2" d="M76.8978 163.622C76.8978 163.622 75.3793 201.927 75.3793 206.375C75.3793 210.823 75.316 216.346 73.4811 221.731C72.0006 226.096 49.2734 285.635 48.4635 284.825L36.7266 283.984C36.7266 283.984 51.9118 268.621 52.7913 265.635C53.6707 262.649 51.8928 263.68 54.8982 260.972C57.9036 258.264 54.1453 254.645 57.7581 244.414C61.3709 234.183 63.0286 237.941 63.0286 231.165C63.0286 224.388 60.7319 225.299 63.6614 221.674C66.5908 218.048 68.122 213.695 68.122 205.419C68.122 197.143 71.6969 196.561 71.7159 191.569C71.7348 186.577 71.7159 186.906 72.4878 183.141C73.1896 179.219 73.4906 175.236 73.3862 171.253C73.3926 166.722 76.8978 163.622 76.8978 163.622Z" fill="white"/>
<path opacity="0.2" d="M43.2461 107.785L47.3651 104.431C47.3651 104.431 45.4669 113.871 47.3651 117.453C49.2632 121.034 49.82 121.61 49.6302 125.197C49.4404 128.785 49.3455 132.745 51.3765 132.935C53.4075 133.125 51.522 135.77 52.275 138.408C53.0279 141.047 59.4753 145.729 60.1966 152.075L52.604 153.486C52.604 153.486 44.2205 133.6 43.2461 107.785Z" fill="#F43B00"/>
<path d="M164.986 99.8821C163.934 99.3576 162.77 99.097 161.595 99.1228C159.697 99.1798 160.449 100.641 161.797 101.053C163.145 101.464 165.366 101.843 165.631 101.053C165.897 100.262 164.986 99.8821 164.986 99.8821Z" stroke="#F43B00" stroke-width="0.632718" stroke-miterlimit="10" stroke-linecap="round"/>
<path d="M163.902 99.6734C163.902 99.6734 163.156 100.148 163.687 101.458L165.313 101.369L165.674 100.566L163.902 99.6734Z" fill="#F43B00"/>
<path d="M182.668 174.366C175.872 174.201 168.394 171.772 164.49 165.868C164.148 165.236 163.775 164.603 163.465 163.97L163.522 163.938C163.939 164.483 164.389 165.09 164.787 165.653C169.45 171.284 175.645 173.689 182.668 174.366Z" fill="#F43B00"/>
<path d="M72.4593 61.5585C71.3119 61.2951 70.1176 61.3147 68.9794 61.6154C67.1445 62.1153 68.2265 63.3554 69.6121 63.444C70.9978 63.5325 73.2692 63.3744 73.3388 62.5455C73.4084 61.7166 72.4593 61.5585 72.4593 61.5585Z" stroke="#F43B00" stroke-width="0.632718" stroke-miterlimit="10" stroke-linecap="round"/>
<path d="M71.3571 61.6343C71.3571 61.6343 70.7244 62.2671 71.5659 63.4186L73.1224 62.8998L73.2869 62.0329L71.3571 61.6343Z" fill="#F43B00"/>
<path d="M215.84 106.5C227.785 109.847 239.851 113.308 251.614 117.345L252.075 117.503L251.867 117.921C248.912 123.615 245.451 130.575 242.749 136.365L239.883 142.622L239.75 142.907C233.752 141.009 227.773 139.066 221.806 137.086C215.84 135.106 210.076 133.182 204.242 131.132L203.559 130.898L203.875 130.265C207.608 122.673 211.942 114.061 215.846 106.538L215.84 106.5ZM215.89 106.614C212.841 113.612 208.177 123.938 205.02 130.771L204.647 129.892C210.518 131.828 216.369 133.825 222.198 135.884C228.032 137.915 233.866 139.965 239.668 142.097L239.231 142.281L242.325 136.162C245.185 130.468 248.507 123.394 251.114 117.56L251.367 118.136C239.377 114.719 227.697 110.708 215.89 106.614Z" fill="#F43B00"/>
<path d="M204.457 130.563C200.224 133.093 195.738 135.656 191.448 138.022L191.385 137.073C197.351 139.13 203.248 141.382 209.101 143.742C213.328 145.463 218.092 147.152 222.388 148.671L226.874 150.189H226.558C230.742 147.376 234.96 144.607 239.212 141.882L239.339 142.989C227.595 139.187 216.017 135.03 204.457 130.563ZM204.457 130.436C216.295 133.922 228.121 137.731 239.769 141.825L240.996 142.255C236.352 145.14 231.695 148.013 226.988 150.797L226.836 150.892L226.678 150.829L222.249 149.108C214.941 146.248 207.317 143.837 199.908 141.3C196.567 140.117 193.245 138.864 189.93 137.611C194.675 135.137 199.604 132.701 204.438 130.411L204.457 130.436Z" fill="#F43B00"/>
<path d="M208.246 148.949C208.96 148.077 209.727 147.248 210.543 146.469L210.378 146.874C210.22 146.115 210.106 145.267 210.011 144.489L210.821 144.697C213.567 145.419 216.079 146.868 218.914 147.279L216.756 149.474C214.728 151.47 212.584 153.344 210.334 155.087C209.519 153.083 208.822 151.034 208.246 148.949ZM208.373 148.949C209.455 150.715 210.372 152.252 211.163 153.809L210.201 153.593C212.721 151.286 215.398 149.155 218.211 147.216L218.313 147.671C216.414 147.004 214.453 146.529 212.46 146.254C211.804 146.118 211.156 145.949 210.518 145.748L211.226 145.147C211.27 145.678 211.296 146.21 211.308 146.747V147.051C210.404 147.715 209.499 148.272 208.366 148.949H208.373Z" fill="#F43B00"/>
<path d="M206.531 129.696L216.421 107.766L249.708 118.566L239.142 140.509L206.531 129.696Z" stroke="#F43B00" stroke-width="0.632718" stroke-miterlimit="10" stroke-linecap="round"/>
<path d="M186.293 134.22C192.786 131.253 199.467 128.717 206.293 126.627C213.164 124.729 220.15 123.204 226.774 120.528L226.426 120.882C226.474 120.721 226.58 120.584 226.724 120.497C226.867 120.41 227.038 120.381 227.203 120.414C227.368 120.447 227.514 120.541 227.612 120.677C227.711 120.813 227.755 120.981 227.736 121.148V121.319L227.597 121.483C221.806 128.639 215.489 135.352 208.698 141.566C206.42 143.622 204.104 145.64 201.649 147.526L201.466 147.349C208.786 137.453 217.53 128.759 226.774 120.699L226.622 121.034C226.616 121.139 226.648 121.243 226.712 121.327C226.776 121.41 226.869 121.468 226.972 121.489C227.075 121.509 227.183 121.492 227.274 121.44C227.366 121.388 227.435 121.304 227.47 121.205L227.122 121.559C220.162 123.312 213.645 126.197 206.989 128.728C203.629 129.924 200.213 130.923 196.79 131.891C193.367 132.859 189.906 133.752 186.375 134.422L186.299 134.182L186.293 134.22Z" fill="#F43B00"/>
<path d="M235.719 112.714C243.356 94.0548 251.606 75.3833 260.23 57.1673C269.031 39.3057 278.149 20.4697 285.906 2.15887L287.171 2.73465C275.118 30.5742 262.635 58.2746 249.423 85.6207C244.994 94.7255 240.565 103.824 235.959 112.828L235.725 112.72L235.719 112.714ZM235.719 112.714C251.201 75.3074 268.183 38.5528 285.906 2.15887L287.171 2.73465C281.667 14.016 276.187 25.6137 271.17 37.1418C265.475 50.4858 258.908 65.6774 252.663 78.743C247.291 90.1319 241.717 101.654 235.959 112.821L235.725 112.714H235.719Z" fill="#F43B00"/>
<path d="M298.639 11.5105C288.959 28.7647 278.671 45.943 268.092 62.6657C257.247 79.3062 246.339 95.9087 236.392 113.112L235.361 112.321L245.579 100.812C262.726 81.7232 280.044 62.7986 297.861 44.3359C325.935 15.3448 326.428 15.1297 299.36 45.7026C282.277 64.8803 264.738 83.5897 247.016 102.128L236.316 113.201L235.285 112.41C250.42 89.6828 263.321 65.532 278.032 42.5327C284.637 32.1118 291.464 21.5391 298.424 11.365L298.639 11.4979V11.5105Z" fill="#F43B00"/>
<path d="M326.09 62.2164C311.538 71.3718 296.523 80.1159 281.452 88.3666C266.191 96.3894 250.904 104.374 236.162 113.34L235.105 113.973L235.181 112.707C236.668 86.228 238.617 59.4893 241.42 33.162C245.178 -1.44137 245.438 -2.04878 243.419 33.3265C242.11 55.4716 240.136 77.5598 237.921 99.6226L236.491 112.853L235.51 112.22C256.624 101.42 276.46 88.2907 297.314 77.0283C306.729 71.9096 316.353 66.7466 325.964 62.0202L326.09 62.2417V62.2164Z" fill="#F43B00"/>
<path opacity="0.2" d="M240.134 108.892L300.912 42.5642C299.116 39.7486 303.443 32.8773 298.964 29.8719C294.484 26.8665 290.96 30.6249 288.397 27.8725L237.426 109.215L277.976 21.0898C267.758 23.3233 268.935 15.6041 258.932 13.3517C248.928 11.0992 243.683 18.0401 243.683 18.0401L235.844 112.771L242.74 108.892H240.134Z" fill="#F43B00"/>
<path d="M126.539 74.1115C126.802 73.4764 127.111 72.861 127.463 72.2703C128.119 71.0543 128.934 69.9309 129.886 68.9295C132.873 67.0314 136.618 67.2971 139.927 67.3794L141.927 67.4996L142.926 67.5502C143.395 67.5502 144.325 67.5502 144.04 68.2589C143.287 69.3535 141.882 69.7394 140.693 70.157C138.282 70.872 135.815 70.9795 133.467 71.84C133.348 71.8809 133.232 71.9296 133.119 71.9856L132.626 70.9289C134.758 70.2962 138.649 69.1763 139.371 72.226C137.991 73.0042 136.618 73.8015 135.226 74.5607L135.517 74.2317L134.34 77.0283L134.296 77.1359L134.233 77.2055C133.524 77.9648 132.809 78.743 132.082 79.4959C130.184 77.7623 128.285 75.8894 126.539 74.0988V74.1115ZM126.666 74.1115C128.633 75.5604 130.525 76.9271 132.404 78.395L131.664 78.4519C132.202 77.7686 132.759 77.1043 133.309 76.4336L133.202 76.6044L134.29 73.7762L134.372 73.5737C135.638 72.8144 136.903 72.0931 138.219 71.3655L137.915 72.1754C137.226 70.91 134.17 71.7641 133.005 72.0742L132.512 71.0238C132.695 70.9264 132.888 70.848 133.088 70.7897C136.479 69.5939 140.68 70.7391 143.578 68.2589C143.673 68.1513 143.711 67.9994 143.692 68.0248C143.673 68.0501 143.224 67.9741 142.92 67.9805C142.287 67.9805 140.573 68.069 139.934 68.107C137.318 68.2413 134.714 68.5499 132.139 69.0308C131.406 69.154 130.718 69.4682 130.146 69.9419C128.951 71.1979 127.835 72.5271 126.805 73.9217L126.729 74.0229L126.691 74.0735L126.666 74.1115Z" fill="#F43B00"/>
<path d="M138.466 70.2647C138.691 70.1296 138.953 70.0681 139.215 70.0884C139.477 70.1088 139.726 70.2102 139.927 70.3785C140.129 70.5468 140.273 70.7736 140.34 71.0276C140.407 71.2815 140.393 71.55 140.301 71.7958C140.187 72.1145 140.005 72.4047 139.768 72.6464C139.531 72.8881 139.245 73.0755 138.928 73.1958C138.612 73.3161 138.273 73.3663 137.936 73.3431C137.598 73.3199 137.27 73.2237 136.973 73.0613V72.9347C137.287 72.5558 137.688 72.2584 138.142 72.0678C138.596 71.8773 139.089 71.7991 139.579 71.8401C139.814 71.8401 140.035 71.7136 139.965 71.5807C139.896 71.4478 139.63 71.4036 139.459 71.3656C139.032 71.1603 138.681 70.8232 138.46 70.4039L138.491 70.2773L138.466 70.2647Z" fill="#F43B00"/>
<path d="M139.464 72.226C139.665 72.1177 139.901 72.0939 140.12 72.1598C140.339 72.2256 140.523 72.3757 140.631 72.5771C140.74 72.7785 140.763 73.0146 140.697 73.2335C140.632 73.4524 140.481 73.6362 140.28 73.7445C139.885 73.8504 139.504 74.0056 139.148 74.2064C138.689 74.6259 138.171 74.9755 137.61 75.244C136.769 75.6173 135.573 75.7818 134.801 75.1175L134.87 75.0099C135.383 74.7632 135.876 74.4341 136.402 74.2443C137.236 73.9938 138.099 73.8492 138.97 73.8141C139.141 73.7804 139.301 73.705 139.436 73.5946C139.57 73.4842 139.676 73.3423 139.742 73.1814C139.742 73.1434 139.742 73.0611 139.679 73.1814C139.616 73.3016 139.679 73.1814 139.628 73.1814C139.578 73.1814 139.571 73.1814 139.584 73.1181C139.559 72.8636 139.503 72.6131 139.42 72.3715L139.464 72.2576V72.226Z" fill="#F43B00"/>
<path d="M139.228 73.9596C140.133 74.2443 140.303 75.6869 139.335 75.9843C138.987 76.0792 138.646 75.9843 138.355 76.0792C137.754 76.2121 137.349 76.8322 136.76 77.022C136.484 77.1984 136.164 77.2921 135.836 77.2921C135.509 77.2921 135.188 77.1984 134.913 77.022C134.242 76.2754 135.109 75.4528 135.849 75.4781L135.925 75.5794C135.821 75.8379 135.759 76.1113 135.741 76.3893C135.741 76.3893 135.779 76.4272 135.805 76.3893C135.815 76.3169 135.801 76.243 135.764 76.1798C135.728 76.1166 135.67 76.0677 135.602 76.0413C135.672 75.94 136.235 75.959 136.463 75.9274C137.001 75.8325 137.728 76.0792 138.203 75.7629C138.466 75.5504 138.701 75.3035 138.899 75.0289C139.095 74.8391 139.032 74.5038 139.12 74.0925L139.228 74.0229V73.9596Z" fill="#F43B00"/>
<path d="M266.073 165.134C269.141 169.532 271.261 174.695 271.407 180.13C271.793 188.887 265.712 196.688 256.734 197.213C242.972 197.802 230.546 185.059 230.59 171.392C230.59 165.824 232.944 160.003 237.632 156.77C247.572 149.93 259.935 156.251 266.073 165.16V165.134ZM265.921 165.242C258.651 154.612 240.612 150.829 234.102 164.084C229.723 173.575 234.102 185.451 242.017 191.772C247.926 196.701 257.405 198.131 263.618 193.284C272.153 186.761 271.913 173.455 265.921 165.242Z" fill="#F43B00"/>
<path d="M246.456 234.436C245.715 238.757 244.032 242.997 241.021 246.287C236.244 251.703 228.082 252.747 222.571 247.793C212.517 238.669 214.744 219.029 227.835 213.803C230.028 212.95 232.412 212.705 234.733 213.095C237.054 213.485 239.226 214.494 241.021 216.018C246.279 220.447 247.487 227.976 246.456 234.455V234.436ZM246.266 234.404C248.506 220.991 235.092 208.197 223.368 218.877C221.113 221.104 219.391 223.811 218.33 226.797C217.268 229.782 216.894 232.969 217.237 236.119C217.813 242.345 222.564 248.571 228.898 249.248C237.509 250.279 245.045 242.579 246.266 234.404Z" fill="#F43B00"/>
<path d="M255.372 284.003C267.693 284.003 277.682 274.014 277.682 261.693C277.682 249.372 267.693 239.384 255.372 239.384C243.051 239.384 233.062 249.372 233.062 261.693C233.062 274.014 243.051 284.003 255.372 284.003Z" fill="white"/>
<path d="M277.494 265.262C274.925 281.428 257.481 290.368 243.384 281.124C226.661 269.843 229.983 244.167 250.008 239.023C266.313 235.125 280.202 249.058 277.494 265.262ZM277.304 265.262C280.132 246.521 258.139 233.518 242.84 244.35C233.184 251.026 230.356 265.072 237.537 274.594C248.68 289.59 274.235 283.876 277.304 265.262Z" fill="#F43B00"/>
<path d="M266.797 256.284C266.52 254.965 265.868 253.756 264.917 252.801C263.967 251.846 262.761 251.188 261.444 250.905C257.43 250.214 253.328 250.214 249.315 250.905C247.998 251.188 246.791 251.846 245.841 252.801C244.891 253.756 244.238 254.965 243.962 256.284C243.278 260.306 243.278 264.415 243.962 268.438C244.238 269.756 244.891 270.966 245.841 271.921C246.791 272.875 247.998 273.534 249.315 273.816C253.328 274.508 257.43 274.508 261.444 273.816C262.761 273.534 263.967 272.875 264.917 271.921C265.868 270.966 266.52 269.756 266.797 268.438C267.48 264.415 267.48 260.306 266.797 256.284ZM261.399 267.824V267.9C261.397 268.054 261.35 268.204 261.263 268.331C261.177 268.458 261.055 268.557 260.912 268.615C260.231 268.812 259.531 268.938 258.824 268.989H258.666C258.577 268.999 258.486 268.978 258.41 268.93C258.334 268.881 258.277 268.808 258.249 268.723C258.138 268.457 257.965 268.221 257.745 268.035C257.525 267.85 257.264 267.719 256.983 267.654C256.464 267.552 255.936 267.505 255.408 267.514C254.879 267.506 254.351 267.552 253.832 267.654C253.553 267.717 253.292 267.846 253.072 268.029C252.852 268.213 252.679 268.446 252.567 268.71C252.527 268.801 252.46 268.876 252.375 268.926C252.289 268.976 252.191 268.998 252.092 268.989H251.966C251.252 268.937 250.546 268.812 249.859 268.615C249.715 268.559 249.591 268.461 249.504 268.333C249.417 268.206 249.371 268.055 249.371 267.9V267.793C249.7 265.791 250.219 263.824 250.922 261.921C251.921 258.941 252.984 256.53 253.453 256.056C253.527 255.973 253.617 255.907 253.718 255.86C253.759 255.83 253.807 255.81 253.857 255.803C254.874 255.558 255.935 255.558 256.951 255.803C257 255.817 257.046 255.836 257.091 255.86C257.187 255.913 257.277 255.979 257.356 256.056C257.831 256.53 258.888 258.941 259.887 261.921C260.585 263.825 261.102 265.791 261.431 267.793L261.399 267.824Z" fill="#F43B00"/>
<path d="M235.888 229.38V227.153C236.182 227.015 236.432 226.796 236.606 226.522C236.781 226.247 236.874 225.928 236.875 225.603V225.552C236.876 225.327 236.832 225.103 236.746 224.894C236.66 224.686 236.534 224.496 236.375 224.336C236.215 224.176 236.026 224.049 235.818 223.963C235.609 223.876 235.386 223.831 235.16 223.831H235.103C234.877 223.831 234.654 223.876 234.445 223.963C234.237 224.049 234.048 224.176 233.888 224.336C233.729 224.496 233.603 224.686 233.517 224.894C233.431 225.103 233.388 225.327 233.388 225.552V225.603C233.389 225.928 233.482 226.247 233.657 226.522C233.832 226.796 234.081 227.015 234.376 227.153V229.38C233.53 229.512 232.733 229.863 232.066 230.399L225.967 225.635C226.012 225.478 226.035 225.317 226.036 225.154C226.038 224.771 225.925 224.396 225.713 224.076C225.501 223.757 225.199 223.508 224.845 223.361C224.492 223.213 224.102 223.174 223.726 223.248C223.35 223.322 223.005 223.506 222.733 223.776C222.462 224.047 222.277 224.392 222.202 224.767C222.127 225.143 222.164 225.533 222.311 225.887C222.457 226.241 222.705 226.544 223.024 226.757C223.342 226.97 223.717 227.084 224.1 227.084C224.436 227.083 224.766 226.994 225.056 226.824L231.079 231.513C230.538 232.331 230.256 233.293 230.27 234.273C230.283 235.254 230.592 236.208 231.155 237.011L229.32 238.846C229.172 238.802 229.019 238.776 228.865 238.77C228.549 238.769 228.24 238.861 227.977 239.036C227.714 239.21 227.509 239.459 227.387 239.75C227.265 240.041 227.233 240.362 227.294 240.671C227.354 240.981 227.506 241.266 227.729 241.49C227.951 241.713 228.235 241.866 228.545 241.928C228.854 241.99 229.175 241.959 229.467 241.838C229.759 241.718 230.008 241.513 230.183 241.251C230.359 240.988 230.453 240.68 230.453 240.364C230.452 240.21 230.429 240.056 230.383 239.909L232.193 238.093C232.784 238.548 233.472 238.861 234.203 239.009C234.934 239.157 235.69 239.135 236.411 238.947C237.133 238.758 237.802 238.406 238.367 237.919C238.932 237.432 239.378 236.822 239.671 236.136C239.964 235.45 240.096 234.706 240.057 233.961C240.018 233.216 239.81 232.489 239.447 231.837C239.084 231.185 238.577 230.625 237.965 230.199C237.352 229.773 236.65 229.493 235.913 229.38H235.888ZM235.16 236.72C234.553 236.652 233.991 236.367 233.578 235.918C233.165 235.469 232.928 234.885 232.911 234.275C232.894 233.665 233.098 233.069 233.486 232.597C233.874 232.126 234.419 231.81 235.021 231.709H235.16C235.763 231.795 236.315 232.095 236.715 232.556C237.114 233.016 237.334 233.605 237.334 234.214C237.334 234.824 237.114 235.413 236.715 235.873C236.315 236.333 235.763 236.634 235.16 236.72Z" fill="#F43B00"/>
<path opacity="0.2" d="M162.117 162.692C162.117 162.692 166.034 168.285 168.951 169.994C171.867 171.702 178.713 174.423 179.871 174.334C179.871 174.334 175.278 174.29 173.43 181.351C171.583 188.412 172.082 190.209 172.082 190.209L165.42 191.196C165.42 191.196 167.318 189.614 167.23 187.4C167.141 185.185 165.464 184.704 166.945 182.287C168.425 179.87 168.805 178.675 167.413 176.954C166.021 175.233 164.408 176.625 163.497 172.075C162.585 167.526 164.534 165.666 162.117 162.692Z" fill="#F43B00"/>
<path d="M259.979 167.298L254.5 171.196L255.202 163.983C253.923 163.44 252.563 163.111 251.178 163.008L250.476 170.221L245.99 163.894C245.403 164.16 244.844 164.482 244.319 164.856C243.793 165.228 243.305 165.652 242.864 166.121L247.35 172.449L240.301 170.753C240.121 171.412 239.998 172.085 239.934 172.765C239.856 173.471 239.839 174.182 239.884 174.891L246.926 176.586L241.447 180.49C241.447 180.49 242.162 181.756 242.592 182.389C243.021 182.991 243.493 183.562 244.003 184.097L249.482 180.193L248.78 187.412C250.058 187.956 251.418 188.283 252.804 188.38L253.506 181.167L257.992 187.495C258.576 187.227 259.133 186.905 259.656 186.533C260.179 186.156 260.666 185.733 261.111 185.267L256.626 178.94L263.674 180.642C263.852 179.981 263.974 179.306 264.041 178.624C264.098 177.925 264.098 177.222 264.041 176.523L256.993 174.821L262.478 170.924C262.145 170.263 261.762 169.628 261.333 169.026C260.924 168.417 260.472 167.84 259.979 167.298ZM255.613 176.555C255.181 177.273 254.606 177.896 253.924 178.383C253.24 178.867 252.465 179.205 251.646 179.377C250.881 178.811 250.211 178.128 249.659 177.352C249.105 176.582 248.677 175.727 248.394 174.821C248.822 174.103 249.392 173.481 250.071 172.993C250.754 172.509 251.529 172.17 252.348 171.999C253.113 172.564 253.781 173.247 254.329 174.024C254.887 174.795 255.321 175.649 255.613 176.555Z" fill="#F43B00"/>
<path d="M68.5977 59.559C70.33 58.546 72.2866 57.9786 74.2921 57.9077" stroke="#F43B00" stroke-width="0.632718" stroke-miterlimit="10" stroke-linecap="round"/>
<path d="M61.4601 64.9561C61.4601 64.9561 59.2836 64.8105 59.1317 66.1582C58.9799 67.5059 60.4984 67.9615 61.0931 67.9615" stroke="#F43B00" stroke-width="0.632718" stroke-miterlimit="10" stroke-linecap="round"/>
</g>
<defs>
<clipPath id="clip0_463_351398">
<rect width="310.19" height="340.434" fill="white" transform="translate(15.9023 2.15884)"/>
</clipPath>
</defs>
</svg>
