<svg width="29" height="29" viewBox="0 0 29 29" fill="none" xmlns="http://www.w3.org/2000/svg">
<path d="M18.8461 5.04395V8.36742C18.2052 8.36742 17.5775 8.37759 16.9503 8.36324C16.5976 8.35487 16.2927 8.43977 16.0733 8.72195C15.9937 8.82239 15.9035 8.95093 15.9005 9.06871C15.8849 9.80048 15.8927 10.5329 15.8927 11.2969H18.8688C18.7463 12.376 18.6297 13.4163 18.5101 14.4655H15.8921V23.8417H11.9845V14.4757H10.1055V11.3172H11.9803V10.9998C11.9803 10.1801 11.9762 9.36046 11.9803 8.5408C11.9953 6.68745 13.0834 5.37217 14.9242 5.17069C16.2126 5.0296 17.5189 5.07982 18.8461 5.04395Z" fill="white"/>
</svg>
