<svg width="199" height="22" viewBox="0 0 199 22" fill="none" xmlns="http://www.w3.org/2000/svg">
<g clip-path="url(#clip0_491_384161)">
<path d="M73.1833 20.6766H69.7253V18.4531C69.7253 13.8185 69.7253 9.17668 69.7253 4.53484C69.7253 3.24263 69.5521 2.23918 68 2.00818V0.92532H73.1327V10.902C73.7247 10.1152 74.064 9.60261 74.461 9.14781C75.0136 8.46382 75.7612 7.96418 76.6045 7.71531C77.4478 7.46644 78.3469 7.48012 79.1823 7.75454C80.9943 8.44035 81.348 9.98521 81.3985 11.66C81.4419 14.0423 81.3985 16.4246 81.3985 18.9152L83.2466 19.8248L83.326 20.5033C83.2322 20.6333 83.2105 20.7055 83.1816 20.7055C81.7447 20.8787 80.2955 20.927 78.8502 20.8499C77.8107 20.7127 77.8756 19.5721 77.8829 18.6842C77.8829 16.5184 77.8829 14.3527 77.8829 12.187C77.8829 11.2991 77.7818 10.3606 76.7206 10.0791C76.2687 9.94013 75.7804 9.98407 75.3605 10.2014C74.9407 10.4188 74.6229 10.7921 74.4755 11.2413C73.8874 12.7631 73.4639 14.3434 73.2121 15.9554C73.0967 17.5267 73.0871 19.104 73.1833 20.6766Z" fill="#87898F"/>
<path d="M53.7235 14.6126L52.8572 14.6704L51.9404 12.1654H47.674V18.9007C49.2982 19.832 50.9658 19.5432 52.5612 19.305C54.4887 19.0162 54.9363 17.2115 55.7593 15.6955L56.7194 16.0853C56.4667 17.5869 56.2141 19.074 55.9542 20.655H41.1046C41.1552 18.8863 43.1043 19.8897 43.7107 18.3882V4.54929C42.9888 3.44478 41.2923 4.19554 41.0469 2.57126H55.8676V7.57407C55.3622 7.06874 54.9435 6.85216 54.7919 6.46233C53.7524 4.00786 53.5286 3.83461 50.9297 3.82739H47.6595V10.57H51.9909L52.8356 8.15881L53.7235 8.10827V14.6126Z" fill="#87898F"/>
<path d="M170.26 2.55683C173.372 2.55683 176.194 2.34747 178.966 2.61458C180.13 2.71924 181.232 3.18029 182.124 3.93481C183.015 4.68934 183.652 5.70056 183.948 6.83049C184.322 7.90438 184.362 9.06671 184.062 10.1637C183.761 11.2607 183.135 12.2406 182.266 12.9739C181.905 13.3132 181.544 13.6453 181.096 14.0495C182.099 15.45 183.024 16.8216 184.041 18.1139C184.316 18.4604 184.944 18.5037 185.305 18.8358C185.666 19.1678 186.092 19.6154 186.027 19.9547C185.951 20.177 185.821 20.3773 185.65 20.5384C185.479 20.6994 185.271 20.8162 185.045 20.8788C184.494 20.9509 183.934 20.8626 183.432 20.6244C182.93 20.3862 182.508 20.0083 182.215 19.536C181.082 18.0272 179.97 16.5112 178.793 14.9086C177.754 14.8364 176.707 14.7787 175.66 14.692C174.426 14.591 174.166 14.0712 174.787 12.6491C175.718 12.5841 176.757 12.4902 177.797 12.4541C180.121 12.3603 181.89 10.7649 181.955 8.67859C181.922 7.6305 181.488 6.63506 180.743 5.89762C179.997 5.16019 178.997 4.73699 177.949 4.71532C176.165 4.64313 174.339 4.71532 172.419 4.71532C172.368 5.33616 172.296 5.87038 172.296 6.39737C172.296 10.5339 172.296 14.6704 172.296 18.8069C172.346 19.2443 172.302 19.6875 172.166 20.1063C172.063 20.2934 171.919 20.4552 171.746 20.5801C171.572 20.7049 171.373 20.7897 171.163 20.8282C170.954 20.7864 170.756 20.7004 170.583 20.5759C170.41 20.4514 170.265 20.2913 170.159 20.1063C170.008 19.7236 169.956 19.3089 170.008 18.9007C170.008 14.1169 170.008 9.3355 170.008 4.5565C170.054 3.88574 170.139 3.21814 170.26 2.55683Z" fill="#87898F"/>
<path d="M136.442 8.10828C134.998 4.6648 132.11 3.51697 128.905 4.83083C127.909 5.2351 127.122 5.87037 127.064 6.99654C127.062 7.4851 127.22 7.9609 127.513 8.35174C127.806 8.74259 128.219 9.02716 128.689 9.16226C130.212 9.79753 131.778 10.3173 133.323 10.9093C134.149 11.1904 134.95 11.5381 135.72 11.9488C139.041 13.8907 139.106 17.6085 135.9 19.7526C134.51 20.5784 132.911 20.9838 131.295 20.9197C129.68 20.8557 128.117 20.3249 126.797 19.3916C126.225 18.9627 125.753 18.4144 125.414 17.7849C125.075 17.1554 124.877 16.4597 124.834 15.746C124.732 14.3022 125.361 13.8835 126.783 14.5116C126.867 14.6625 126.935 14.8223 126.985 14.988C127.147 15.8018 127.515 16.5605 128.053 17.192C128.591 17.8236 129.282 18.307 130.06 18.5964C130.837 18.8857 131.676 18.9714 132.496 18.8453C133.316 18.7191 134.091 18.3853 134.745 17.8756C136.456 16.6051 136.449 14.7787 134.558 13.8041C133.063 13.0317 131.367 12.649 129.822 11.956C128.5 11.4492 127.256 10.759 126.126 9.90582C125.71 9.55299 125.374 9.11646 125.138 8.62473C124.903 8.13299 124.773 7.59711 124.759 7.05208C124.745 6.50706 124.846 5.96514 125.055 5.46173C125.264 4.95832 125.578 4.50473 125.974 4.13059C128.458 1.46676 134.493 1.45234 136.918 4.16669C137.437 4.80755 137.827 5.54305 138.066 6.33241C138.138 6.55913 138.157 6.79914 138.121 7.03428C138.086 7.26942 137.998 7.49351 137.864 7.68957C137.561 8.05774 136.925 8.00722 136.442 8.10828Z" fill="#87898F"/>
<path d="M154.904 15.9842L152.738 20.59L151.114 20.7416C151.004 20.1257 151.004 19.495 151.114 18.8791C152.507 15.7316 154.002 12.6274 155.445 9.49431C156.319 7.62458 157.178 5.74042 158.088 3.88513C158.421 3.31208 158.792 2.76218 159.199 2.23919C159.755 2.70843 160.289 2.9611 160.492 3.37258C163.199 8.79408 165.863 14.2372 168.692 19.9764L166.678 20.8426L164.224 15.9554L154.904 15.9842ZM163.112 13.703C161.863 11.1691 160.723 8.8446 159.416 6.18078C158.153 8.93123 157.084 11.2341 155.972 13.703H163.112Z" fill="#87898F"/>
<path d="M6.2589 4.22442C6.20115 4.8236 6.12175 5.27119 6.12175 5.71877C6.12175 9.53042 6.12175 13.3348 6.12175 17.1465C6.12175 19.1245 6.4827 19.3483 8.46794 19.5143C11.3556 19.7454 13.4563 18.8646 14.2071 15.7532L15.3693 16.0781C15.0806 17.6591 14.8135 19.1678 14.5319 20.7199H0.0216562V19.7887L2.33897 18.9585V4.28217L0 3.40144V2.57126H8.9083V3.40144L6.2589 4.22442Z" fill="#87898F"/>
<path d="M96.447 14.0784C96.3748 18.2943 93.4872 21.1964 89.4373 21.1314C88.5719 21.1631 87.7094 21.012 86.9062 20.6881C86.103 20.3642 85.3771 19.8747 84.7757 19.2516C84.1743 18.6284 83.7109 17.8855 83.4158 17.0713C83.1207 16.257 83.0005 15.3898 83.0629 14.526C83.1423 10.2595 86.0516 7.40801 90.217 7.50908C94.007 7.60293 96.512 10.2451 96.447 14.0784ZM92.7003 14.3527C92.6991 13.0399 92.5194 11.7333 92.1661 10.4689C92.0494 9.94271 91.7541 9.47322 91.3303 9.14024C90.9065 8.80726 90.3804 8.63136 89.8416 8.64247C89.2796 8.61947 88.7268 8.78958 88.2749 9.12451C87.8231 9.45943 87.4996 9.93898 87.3582 10.4833C86.5641 12.8079 85.7989 19.998 89.755 19.9691C91.5308 19.9691 92.1011 18.5253 92.4188 16.9949C92.6038 16.119 92.6982 15.2263 92.7003 14.3311V14.3527Z" fill="#87898F"/>
<path d="M122.614 14.526L112.161 21.3119C111.923 20.8138 111.598 20.4528 111.598 20.0847C111.562 16.0059 111.598 11.9199 111.598 7.55239C112.09 7.54643 112.578 7.62708 113.042 7.79063C115.994 9.66758 118.911 11.5878 121.827 13.5153C122.129 13.8199 122.393 14.1591 122.614 14.526Z" fill="#87898F"/>
<path d="M19.6745 14.6993C19.8117 18.7852 22.5621 19.897 26.8141 17.6302L27.2761 18.251C25.4353 20.5539 23.1902 21.5573 20.317 20.8499C19.1724 20.5613 18.142 19.9332 17.3612 19.048C16.5803 18.1628 16.0857 17.062 15.9423 15.8904C15.5091 12.7573 16.7147 9.96358 19.1692 8.54143C19.9445 8.04143 20.8185 7.71429 21.7316 7.58225C22.6447 7.45021 23.5755 7.51636 24.4607 7.77621C25.1136 7.9342 25.7033 8.28648 26.1518 8.78656C26.6003 9.28664 26.8866 9.91099 26.9729 10.5772C27.0324 11.2513 26.8532 11.925 26.4666 12.4805C26.08 13.0359 25.5106 13.438 24.8578 13.6164C23.593 14.0141 22.3026 14.3252 20.9956 14.5476C20.5697 14.6415 20.1076 14.6487 19.6745 14.6993ZM19.4146 13.2555L19.8333 13.6669C20.8801 13.2554 22.0784 13.0461 22.9231 12.3819C23.5727 11.7315 23.9716 10.8724 24.0492 9.95635C24.0926 9.5954 23.0819 8.68581 22.7137 8.76521C21.8155 8.9189 21.0002 9.38406 20.4108 10.0791C19.8478 10.967 19.725 12.1654 19.4146 13.2482V13.2555Z" fill="#87898F"/>
<path d="M35.3874 11.8261C35.1636 10.6782 35.2574 9.66035 34.781 9.17667C34.4408 8.97179 34.0629 8.83745 33.6698 8.78164C33.2766 8.72583 32.8763 8.7497 32.4925 8.85183C32.2058 8.95738 31.9482 9.12961 31.7411 9.35429C31.534 9.57896 31.3833 9.84966 31.3014 10.144C31.3066 10.4483 31.3733 10.7484 31.4973 11.0262C31.6214 11.3041 31.8003 11.5541 32.0233 11.7611C32.5311 12.1503 33.1027 12.4483 33.7125 12.6418C34.3478 12.9234 35.0192 13.1038 35.6328 13.407C37.6541 14.4033 38.5204 15.8399 38.2317 17.6446C37.9429 19.4494 36.6218 20.5756 34.4705 20.9293C32.7555 21.3284 30.9556 21.1324 29.3667 20.3734C28.9076 20.1906 28.5363 19.8385 28.3294 19.3898C28.1226 18.9411 28.0959 18.4301 28.2549 17.9623C28.3163 17.7499 28.4191 17.5518 28.5573 17.3793C28.6956 17.2069 28.8666 17.0635 29.0606 16.9575C29.2545 16.8514 29.4675 16.7849 29.6873 16.7616C29.9071 16.7382 30.1294 16.7587 30.3412 16.8217C30.4567 16.8217 30.5578 16.9733 30.6517 17.0454C30.4062 19.3772 31.2508 20.3662 33.2072 19.8753C33.8569 19.7093 34.7521 19.0523 34.8315 18.5109C34.8377 18.1267 34.7549 17.7462 34.5896 17.3993C34.4243 17.0524 34.1809 16.7484 33.8786 16.5112C32.7668 15.7243 31.3808 15.3417 30.2257 14.6054C29.6738 14.2881 29.2177 13.8277 28.9056 13.2728C28.5935 12.7178 28.437 12.089 28.4525 11.4525C28.4681 10.816 28.6551 10.1955 28.9938 9.6565C29.3326 9.11746 29.8106 8.67984 30.3773 8.3898C31.6606 7.83828 33.0542 7.5912 34.4489 7.6679C35.3637 7.70616 36.2313 8.08461 36.8817 8.7291C37.123 9.05539 37.2879 9.43178 37.3641 9.83039C37.4403 10.229 37.426 10.6397 37.3221 11.032C37.2511 11.2142 37.1438 11.3801 37.0068 11.5197C36.8698 11.6592 36.7058 11.7694 36.5249 11.8437C36.344 11.918 36.1499 11.9547 35.9543 11.9516C35.7588 11.9486 35.5659 11.9059 35.3874 11.8261Z" fill="#87898F"/>
<path d="M103.999 11.6095C104.533 9.74699 104.295 9.08283 103.067 8.72188C102.566 8.53344 102.012 8.53762 101.514 8.73363C101.015 8.92963 100.607 9.30354 100.368 9.78308C99.8622 11.0464 100.664 11.6889 101.624 12.1509C102.692 12.6707 103.847 13.0244 104.908 13.5586C106.72 14.4827 107.442 15.8037 107.218 17.5508C107.137 18.364 106.776 19.1238 106.196 19.7005C105.617 20.2771 104.856 20.6349 104.042 20.7127C102.556 20.9197 101.051 20.9464 99.559 20.7921C99.1976 20.7551 98.8475 20.6452 98.5299 20.469C98.2122 20.2928 97.9336 20.054 97.7109 19.767C97.3514 19.0799 97.2737 18.2798 97.4943 17.5363C97.7398 16.7422 98.5122 16.6628 99.6601 17.0238C99.6601 17.2692 99.6095 17.5291 99.5662 17.789C99.5229 18.0489 99.4579 18.2294 99.4146 18.4026C99.5594 18.751 99.7799 19.0627 100.06 19.3153C100.34 19.5678 100.673 19.7548 101.035 19.8626C101.396 19.9704 101.777 19.9964 102.15 19.9387C102.523 19.8809 102.878 19.7409 103.19 19.5288C103.435 19.3755 103.636 19.1626 103.776 18.9101C103.916 18.6575 103.989 18.3736 103.989 18.085C103.989 17.7963 103.916 17.5124 103.776 17.2598C103.636 17.0073 103.435 16.7944 103.19 16.6412C102.485 16.214 101.749 15.84 100.988 15.5222C100.402 15.2606 99.831 14.9665 99.2774 14.6415C98.7203 14.3125 98.2605 13.8413 97.9452 13.2763C97.6298 12.7113 97.4703 12.0726 97.4827 11.4257C97.4952 10.7788 97.6793 10.1467 98.0162 9.59428C98.3531 9.04184 98.8307 8.5888 99.4002 8.28151C100.364 7.73462 101.459 7.4629 102.567 7.496C103.674 7.5291 104.751 7.86575 105.681 8.46921C106.525 9.11893 106.98 9.97799 106.403 10.9959C105.825 12.0138 105.067 12.1654 103.999 11.6095Z" fill="#87898F"/>
<path d="M145.262 4.58538H138.729L138.613 2.78062C139.145 2.65406 139.686 2.5672 140.23 2.52074C144.374 2.52074 148.513 2.52074 152.647 2.52074C154.091 2.52074 154.344 2.8889 153.925 4.52041H147.623C147.579 5.30006 147.522 5.83426 147.514 6.36125C147.514 10.5844 147.514 14.8147 147.514 19.0379C147.512 19.606 147.286 20.1505 146.886 20.5539C146.099 21.1242 145.313 20.3878 145.305 19.1101C145.305 15.0241 145.305 10.9381 145.305 6.83771L145.262 4.58538Z" fill="#87898F"/>
<path d="M65.3828 11.9777C65.5183 11.5942 65.5961 11.1928 65.6138 10.7865C65.5055 10.1513 65.4261 9.15502 65.0435 8.9962C64.6813 8.84272 64.2907 8.76786 63.8974 8.77658C63.5042 8.78529 63.1173 8.87737 62.7622 9.04674C60.8564 10.3823 60.9575 12.5263 61.0224 14.5476C61.0802 16.2152 61.5711 17.7673 63.1882 18.5687C64.9929 19.4566 66.5739 18.7491 68.4292 17.7096C68.3787 18.0561 68.4292 18.5109 68.2487 18.7347C67.5363 19.6421 66.5801 20.3277 65.492 20.7112C64.404 21.0948 63.2293 21.1604 62.1053 20.9004C61.0077 20.7194 59.9881 20.2177 59.175 19.4586C58.3618 18.6994 57.7915 17.7166 57.5357 16.634C56.3229 12.3531 58.6907 8.36093 62.9355 7.58128C64.632 7.27086 66.3501 7.48743 67.4835 8.87349C67.719 9.23696 67.8743 9.64645 67.939 10.0747C68.0037 10.5029 67.9764 10.94 67.8589 11.3568C67.5485 12.418 66.48 12.317 65.3828 11.9777Z" fill="#87898F"/>
<path d="M194.004 20.063C192.394 21.0303 191.723 20.6622 191.715 19.0379C191.715 14.8581 191.715 10.6782 191.715 6.49841V4.54206H185.334C184.771 3.16322 185.168 2.54961 186.229 2.53517C190.459 2.49186 194.682 2.53517 199.007 2.53517V4.62869H194.011L194.004 20.063Z" fill="#87898F"/>
<path d="M19.4102 13.2482C19.7206 12.1798 19.8216 10.967 20.4064 10.0718C20.9957 9.37684 21.8111 8.91166 22.7093 8.75797C23.0774 8.67857 24.0881 9.58816 24.0448 9.94911C23.9672 10.8651 23.5683 11.7243 22.9186 12.3747C22.074 13.0389 20.8756 13.2482 19.8289 13.6597L19.4102 13.2482Z" fill="white"/>
</g>
<defs>
<clipPath id="clip0_491_384161">
<rect width="199" height="20.3793" fill="white" transform="translate(0 0.925323)"/>
</clipPath>
</defs>
</svg>
