<svg width="29" height="29" viewBox="0 0 29 29" fill="none" xmlns="http://www.w3.org/2000/svg">
<g clip-path="url(#clip0_709_85956)">
<path d="M24.6819 9.45647C24.7389 10.0176 24.7397 10.5866 24.7397 11.1517V17.8188C24.7397 18.7079 24.7397 19.6069 24.5369 20.4729C24.1603 22.086 23.0341 23.533 21.513 24.1894C20.3031 24.7114 18.9434 24.7261 17.6283 24.7333L12.0041 24.76C10.6544 24.7664 9.27275 24.7676 8.00111 24.3157C6.62067 23.8247 5.42674 22.775 4.85966 21.4241C4.36671 20.2497 4.35794 18.9362 4.35674 17.6626C4.35515 15.7054 4.35342 13.7483 4.35156 11.7913C4.35156 10.5699 4.35156 9.32815 4.69787 8.15653C5.08522 6.84543 5.88941 6.01096 6.97375 5.2506C8.15972 4.41771 9.57841 4.36153 10.9847 4.35953L17.8638 4.35156C18.8031 4.35156 19.7547 4.35156 20.6621 4.59306C22.5403 5.09399 24.0798 6.68683 24.5349 8.57815C24.6035 8.8673 24.6526 9.16073 24.6819 9.45647ZM22.9081 14.5418H22.9161C22.9161 13.0639 22.9161 11.5858 22.9161 10.1076C22.9161 9.65453 22.8671 9.21138 22.7236 8.779C22.2331 7.29854 20.8036 6.16279 19.0231 6.17235C16.0402 6.19028 13.0574 6.16956 10.0746 6.1859C9.63893 6.18776 9.20588 6.25286 8.78896 6.37918C7.31448 6.83547 6.16876 8.27528 6.17952 10.0682C6.19746 13.051 6.17673 16.0339 6.19307 19.0163C6.19451 19.4521 6.25962 19.8853 6.38635 20.3023C6.84384 21.7824 8.28963 22.9229 10.0753 22.9121C13.0578 22.8938 16.0406 22.9054 19.0235 22.9085C19.6563 22.9085 20.2628 22.799 20.8227 22.4985C22.1079 21.8083 22.8524 20.7391 22.895 19.2741C22.9428 17.698 22.9065 16.1195 22.9065 14.5418H22.9081Z" fill="white"/>
<path d="M19.796 14.5466C19.7928 17.4413 17.4265 19.7977 14.5305 19.7898C11.6441 19.781 9.29449 17.4214 9.29688 14.5338C9.30046 11.6391 11.6668 9.28267 14.5624 9.29104C17.4496 9.29941 19.7996 11.6602 19.796 14.5466ZM14.5516 17.9686C15.2292 17.9674 15.8912 17.7654 16.454 17.3881C17.0168 17.0108 17.4552 16.4751 17.7137 15.8488C17.9721 15.2224 18.0392 14.5335 17.9062 13.8691C17.7733 13.2047 17.4464 12.5946 16.9669 12.1159C16.4874 11.6372 15.8767 11.3114 15.2121 11.1796C14.5474 11.0479 13.8586 11.1161 13.2327 11.3757C12.6069 11.6352 12.072 12.0745 11.6956 12.638C11.3193 13.2014 11.1185 13.8638 11.1185 14.5414C11.1175 14.9922 11.2056 15.4388 11.3779 15.8555C11.5501 16.2721 11.8031 16.6506 12.1221 16.9691C12.4412 17.2877 12.8201 17.5399 13.2371 17.7115C13.654 17.883 14.1008 17.9704 14.5516 17.9686Z" fill="white"/>
<path d="M20.0165 10.4126C19.6651 10.4124 19.3281 10.2732 19.0791 10.0253C18.8301 9.77736 18.6893 9.44097 18.6875 9.08959C18.6875 8.36789 19.2952 7.76016 20.0161 7.75977C20.737 7.75937 21.3456 8.36789 21.3464 9.08919C21.3441 9.44062 21.2031 9.77692 20.954 10.0248C20.7049 10.2727 20.368 10.4121 20.0165 10.4126Z" fill="white"/>
</g>
<defs>
<clipPath id="clip0_709_85956">
<rect width="20.3893" height="20.4093" fill="white" transform="translate(4.35156 4.34961)"/>
</clipPath>
</defs>
</svg>
