<svg width="199" height="22" viewBox="0 0 199 22" fill="none" xmlns="http://www.w3.org/2000/svg">
<g clip-path="url(#clip0_962_236330)">
<path d="M73.1833 20.6771H69.7253V18.4536C69.7253 13.819 69.7253 9.17714 69.7253 4.5353C69.7253 3.24309 69.5521 2.23965 68 2.00864V0.925781H73.1327V10.9025C73.7247 10.1156 74.064 9.60308 74.461 9.14828C75.0136 8.46428 75.7612 7.96464 76.6045 7.71577C77.4478 7.4669 78.3469 7.48059 79.1823 7.75501C80.9943 8.44081 81.348 9.98567 81.3985 11.6605C81.4419 14.0428 81.3985 16.4251 81.3985 18.9156L83.2466 19.8252L83.326 20.5038C83.2322 20.6337 83.2105 20.7059 83.1816 20.7059C81.7447 20.8791 80.2955 20.9275 78.8502 20.8503C77.8107 20.7132 77.8756 19.5726 77.8829 18.6846C77.8829 16.5189 77.8829 14.3532 77.8829 12.1875C77.8829 11.2995 77.7818 10.3611 76.7206 10.0795C76.2687 9.94059 75.7804 9.98453 75.3605 10.2019C74.9407 10.4192 74.6229 10.7926 74.4755 11.2418C73.8874 12.7636 73.4639 14.3439 73.2121 15.9558C73.0967 17.5271 73.0871 19.1045 73.1833 20.6771Z" fill="black"/>
<path d="M53.7235 14.6127L52.8572 14.6704L51.9404 12.1654H47.674V18.9007C49.2982 19.832 50.9658 19.5433 52.5612 19.305C54.4887 19.0163 54.9363 17.2115 55.7593 15.6955L56.7194 16.0853C56.4667 17.5869 56.2141 19.074 55.9542 20.655H41.1046C41.1552 18.8863 43.1043 19.8898 43.7107 18.3882V4.54932C42.9888 3.44481 41.2923 4.19557 41.0469 2.57129H55.8676V7.5741C55.3622 7.06877 54.9435 6.85219 54.7919 6.46236C53.7524 4.00789 53.5286 3.83464 50.9297 3.82742H47.6595V10.57H51.9909L52.8356 8.15884L53.7235 8.1083V14.6127Z" fill="black"/>
<path d="M170.26 2.55753C173.372 2.55753 176.194 2.34817 178.966 2.61528C180.13 2.71993 181.232 3.18099 182.124 3.93551C183.015 4.69004 183.652 5.70126 183.948 6.83119C184.322 7.90508 184.362 9.06741 184.062 10.1644C183.761 11.2614 183.135 12.2413 182.266 12.9746C181.905 13.3139 181.544 13.646 181.096 14.0502C182.099 15.4507 183.024 16.8223 184.041 18.1146C184.316 18.4611 184.944 18.5044 185.305 18.8365C185.666 19.1685 186.092 19.6161 186.027 19.9554C185.951 20.1777 185.821 20.378 185.65 20.5391C185.479 20.7001 185.271 20.8169 185.045 20.8795C184.494 20.9516 183.934 20.8633 183.432 20.6251C182.93 20.3869 182.508 20.009 182.215 19.5367C181.082 18.0279 179.97 16.5119 178.793 14.9093C177.754 14.8371 176.707 14.7794 175.66 14.6927C174.426 14.5917 174.166 14.0719 174.787 12.6498C175.718 12.5848 176.757 12.4909 177.797 12.4548C180.121 12.361 181.89 10.7656 181.955 8.67928C181.922 7.6312 181.488 6.63576 180.743 5.89832C179.997 5.16088 178.997 4.73769 177.949 4.71602C176.165 4.64383 174.339 4.71602 172.419 4.71602C172.368 5.33686 172.296 5.87108 172.296 6.39807C172.296 10.5346 172.296 14.6711 172.296 18.8076C172.346 19.245 172.302 19.6882 172.166 20.107C172.063 20.2941 171.919 20.4559 171.746 20.5808C171.572 20.7056 171.373 20.7904 171.163 20.8289C170.954 20.7871 170.756 20.7011 170.583 20.5766C170.41 20.4521 170.265 20.292 170.159 20.107C170.008 19.7243 169.956 19.3096 170.008 18.9014C170.008 14.1176 170.008 9.3362 170.008 4.5572C170.054 3.88644 170.139 3.21883 170.26 2.55753Z" fill="black"/>
<path d="M136.442 8.10831C134.998 4.66482 132.11 3.51699 128.905 4.83086C127.909 5.23512 127.122 5.8704 127.064 6.99657C127.062 7.48512 127.22 7.96092 127.513 8.35177C127.806 8.74262 128.219 9.02718 128.689 9.16228C130.212 9.79755 131.778 10.3173 133.323 10.9093C134.149 11.1904 134.95 11.5381 135.72 11.9488C139.041 13.8908 139.106 17.6086 135.9 19.7526C134.51 20.5784 132.911 20.9838 131.295 20.9198C129.68 20.8557 128.117 20.3249 126.797 19.3917C126.225 18.9627 125.753 18.4145 125.414 17.785C125.075 17.1555 124.877 16.4597 124.834 15.746C124.732 14.3022 125.361 13.8835 126.783 14.5116C126.867 14.6625 126.935 14.8223 126.985 14.988C127.147 15.8018 127.515 16.5605 128.053 17.192C128.591 17.8236 129.282 18.307 130.06 18.5964C130.837 18.8858 131.676 18.9715 132.496 18.8453C133.316 18.7192 134.091 18.3854 134.745 17.8757C136.456 16.6051 136.449 14.7787 134.558 13.8041C133.063 13.0317 131.367 12.6491 129.822 11.956C128.5 11.4492 127.256 10.759 126.126 9.90584C125.71 9.55302 125.374 9.11649 125.138 8.62475C124.903 8.13301 124.773 7.59713 124.759 7.05211C124.745 6.50708 124.846 5.96516 125.055 5.46175C125.264 4.95834 125.578 4.50475 125.974 4.13061C128.458 1.46678 134.493 1.45236 136.918 4.16672C137.437 4.80757 137.827 5.54307 138.066 6.33243C138.138 6.55916 138.157 6.79916 138.121 7.03431C138.086 7.26945 137.998 7.49354 137.864 7.68959C137.561 8.05776 136.925 8.00724 136.442 8.10831Z" fill="black"/>
<path d="M154.904 15.9843L152.738 20.5901L151.114 20.7417C151.004 20.1257 151.004 19.4951 151.114 18.8791C152.507 15.7316 154.002 12.6274 155.445 9.49438C156.319 7.62465 157.178 5.74049 158.088 3.8852C158.421 3.31215 158.792 2.76225 159.199 2.23926C159.755 2.7085 160.289 2.96117 160.492 3.37265C163.199 8.79415 165.863 14.2373 168.692 19.9764L166.678 20.8427L164.224 15.9554L154.904 15.9843ZM163.112 13.7031C161.863 11.1692 160.723 8.84467 159.416 6.18085C158.153 8.9313 157.084 11.2342 155.972 13.7031H163.112Z" fill="black"/>
<path d="M6.2589 4.22445C6.20115 4.82364 6.12175 5.27122 6.12175 5.7188C6.12175 9.53045 6.12175 13.3349 6.12175 17.1465C6.12175 19.1245 6.4827 19.3483 8.46794 19.5144C11.3556 19.7454 13.4563 18.8647 14.2071 15.7533L15.3693 16.0781C15.0806 17.6591 14.8135 19.1679 14.5319 20.72H0.0216562V19.7887L2.33897 18.9585V4.2822L0 3.40147V2.57129H8.9083V3.40147L6.2589 4.22445Z" fill="black"/>
<path d="M96.447 14.0788C96.3748 18.2947 93.4872 21.1968 89.4373 21.1318C88.5719 21.1634 87.7094 21.0124 86.9062 20.6885C86.103 20.3646 85.3771 19.8751 84.7757 19.2519C84.1743 18.6287 83.7109 17.8858 83.4158 17.0716C83.1207 16.2574 83.0005 15.3901 83.0629 14.5263C83.1423 10.2599 86.0516 7.40837 90.217 7.50944C94.007 7.60329 96.512 10.2455 96.447 14.0788ZM92.7003 14.3531C92.6991 13.0403 92.5194 11.7337 92.1661 10.4692C92.0494 9.94307 91.7541 9.47358 91.3303 9.1406C90.9065 8.80762 90.3804 8.63172 89.8416 8.64283C89.2796 8.61983 88.7268 8.78994 88.2749 9.12487C87.8231 9.45979 87.4996 9.93934 87.3582 10.4837C86.5641 12.8082 85.7989 19.9984 89.755 19.9695C91.5308 19.9695 92.1011 18.5257 92.4188 16.9953C92.6038 16.1193 92.6982 15.2267 92.7003 14.3314V14.3531Z" fill="black"/>
<path d="M122.614 14.5266L112.161 21.3125C111.923 20.8144 111.598 20.4535 111.598 20.0853C111.562 16.0065 111.598 11.9206 111.598 7.55304C112.09 7.54708 112.578 7.62774 113.042 7.79128C115.994 9.66823 118.911 11.5885 121.827 13.516C122.129 13.8205 122.393 14.1598 122.614 14.5266Z" fill="black"/>
<path d="M19.6745 14.6998C19.8117 18.7857 22.5621 19.8975 26.8141 17.6307L27.2761 18.2515C25.4353 20.5544 23.1902 21.5578 20.317 20.8504C19.1724 20.5618 18.142 19.9337 17.3612 19.0485C16.5803 18.1633 16.0857 17.0625 15.9423 15.8909C15.5091 12.7578 16.7147 9.96407 19.1692 8.54192C19.9445 8.04193 20.8185 7.71479 21.7316 7.58275C22.6447 7.4507 23.5755 7.51686 24.4607 7.77671C25.1136 7.9347 25.7033 8.28698 26.1518 8.78706C26.6003 9.28714 26.8866 9.91148 26.9729 10.5777C27.0324 11.2518 26.8532 11.9255 26.4666 12.481C26.08 13.0364 25.5106 13.4385 24.8578 13.6169C23.593 14.0146 22.3026 14.3257 20.9956 14.5481C20.5697 14.642 20.1076 14.6492 19.6745 14.6998ZM19.4146 13.256L19.8333 13.6674C20.8801 13.2559 22.0784 13.0466 22.9231 12.3824C23.5727 11.732 23.9716 10.8729 24.0492 9.95685C24.0926 9.5959 23.0819 8.6863 22.7137 8.76571C21.8155 8.9194 21.0002 9.38456 20.4108 10.0796C19.8478 10.9675 19.725 12.1659 19.4146 13.2487V13.256Z" fill="black"/>
<path d="M35.3874 11.8261C35.1636 10.6783 35.2574 9.66041 34.781 9.17673C34.4408 8.97184 34.0629 8.83751 33.6698 8.7817C33.2766 8.72589 32.8763 8.74976 32.4925 8.85189C32.2058 8.95744 31.9482 9.12967 31.7411 9.35435C31.534 9.57902 31.3833 9.84972 31.3014 10.1441C31.3066 10.4484 31.3733 10.7484 31.4973 11.0263C31.6214 11.3042 31.8003 11.5541 32.0233 11.7612C32.5311 12.1504 33.1027 12.4484 33.7125 12.6419C34.3478 12.9234 35.0192 13.1039 35.6328 13.4071C37.6541 14.4033 38.5204 15.8399 38.2317 17.6447C37.9429 19.4494 36.6218 20.5756 34.4705 20.9293C32.7555 21.3285 30.9556 21.1324 29.3667 20.3735C28.9076 20.1907 28.5363 19.8385 28.3294 19.3898C28.1226 18.9411 28.0959 18.4301 28.2549 17.9623C28.3163 17.75 28.4191 17.5518 28.5573 17.3794C28.6956 17.207 28.8666 17.0636 29.0606 16.9575C29.2545 16.8515 29.4675 16.7849 29.6873 16.7616C29.9071 16.7383 30.1294 16.7587 30.3412 16.8217C30.4567 16.8217 30.5578 16.9733 30.6517 17.0455C30.4062 19.3773 31.2508 20.3662 33.2072 19.8754C33.8569 19.7093 34.7521 19.0524 34.8315 18.511C34.8377 18.1267 34.7549 17.7463 34.5896 17.3994C34.4243 17.0524 34.1809 16.7485 33.8786 16.5113C32.7668 15.7244 31.3808 15.3418 30.2257 14.6055C29.6738 14.2881 29.2177 13.8277 28.9056 13.2728C28.5935 12.7179 28.437 12.089 28.4525 11.4526C28.4681 10.8161 28.6551 10.1956 28.9938 9.65656C29.3326 9.11752 29.8106 8.6799 30.3773 8.38986C31.6606 7.83833 33.0542 7.59125 34.4489 7.66796C35.3637 7.70622 36.2313 8.08467 36.8817 8.72916C37.123 9.05545 37.2879 9.43183 37.3641 9.83045C37.4403 10.2291 37.426 10.6397 37.3221 11.032C37.2511 11.2143 37.1438 11.3802 37.0068 11.5197C36.8698 11.6593 36.7058 11.7695 36.5249 11.8438C36.344 11.918 36.1499 11.9547 35.9543 11.9517C35.7588 11.9487 35.5659 11.906 35.3874 11.8261Z" fill="black"/>
<path d="M103.999 11.6103C104.533 9.74782 104.295 9.08367 103.067 8.72272C102.566 8.53428 102.012 8.53846 101.514 8.73446C101.015 8.93047 100.607 9.30438 100.368 9.78392C99.8622 11.0473 100.664 11.6897 101.624 12.1518C102.692 12.6715 103.847 13.0253 104.908 13.5595C106.72 14.4835 107.442 15.8046 107.218 17.5516C107.137 18.3649 106.776 19.1247 106.196 19.7013C105.617 20.2779 104.856 20.6357 104.042 20.7135C102.556 20.9206 101.051 20.9472 99.559 20.793C99.1976 20.756 98.8475 20.646 98.5299 20.4698C98.2122 20.2936 97.9336 20.0548 97.7109 19.7678C97.3514 19.0807 97.2737 18.2806 97.4943 17.5372C97.7398 16.7431 98.5122 16.6637 99.6601 17.0246C99.6601 17.2701 99.6095 17.5299 99.5662 17.7898C99.5229 18.0497 99.4579 18.2302 99.4146 18.4035C99.5594 18.7518 99.7799 19.0636 100.06 19.3161C100.34 19.5687 100.673 19.7556 101.035 19.8635C101.396 19.9713 101.777 19.9973 102.15 19.9395C102.523 19.8818 102.878 19.7418 103.19 19.5296C103.435 19.3764 103.636 19.1635 103.776 18.9109C103.916 18.6584 103.989 18.3745 103.989 18.0858C103.989 17.7972 103.916 17.5132 103.776 17.2607C103.636 17.0081 103.435 16.7952 103.19 16.642C102.485 16.2149 101.749 15.8408 100.988 15.523C100.402 15.2614 99.831 14.9674 99.2774 14.6423C98.7203 14.3133 98.2605 13.8422 97.9452 13.2771C97.6298 12.7121 97.4703 12.0735 97.4827 11.4265C97.4952 10.7796 97.6793 10.1476 98.0162 9.59512C98.3531 9.04267 98.8307 8.58964 99.4002 8.28235C100.364 7.73546 101.459 7.46374 102.567 7.49684C103.674 7.52994 104.751 7.86659 105.681 8.47005C106.525 9.11976 106.98 9.97883 106.403 10.9967C105.825 12.0146 105.067 12.1662 103.999 11.6103Z" fill="black"/>
<path d="M145.262 4.58612H138.729L138.613 2.78136C139.145 2.6548 139.686 2.56795 140.23 2.52148C144.374 2.52148 148.513 2.52148 152.647 2.52148C154.091 2.52148 154.344 2.88965 153.925 4.52115H147.623C147.579 5.30081 147.522 5.83501 147.514 6.362C147.514 10.5851 147.514 14.8155 147.514 19.0386C147.512 19.6068 147.286 20.1512 146.886 20.5546C146.099 21.1249 145.313 20.3886 145.305 19.1108C145.305 15.0248 145.305 10.9389 145.305 6.83846L145.262 4.58612Z" fill="black"/>
<path d="M65.3828 11.9784C65.5183 11.595 65.5961 11.1936 65.6138 10.7873C65.5055 10.152 65.4261 9.15577 65.0435 8.99695C64.6813 8.84347 64.2907 8.76861 63.8974 8.77732C63.5042 8.78603 63.1173 8.87812 62.7622 9.04748C60.8564 10.383 60.9575 12.5271 61.0224 14.5484C61.0802 16.216 61.5711 17.7681 63.1882 18.5694C64.9929 19.4573 66.5739 18.7499 68.4292 17.7103C68.3787 18.0568 68.4292 18.5117 68.2487 18.7354C67.5363 19.6428 66.5801 20.3284 65.492 20.712C64.404 21.0955 63.2293 21.1611 62.1053 20.9012C61.0077 20.7202 59.9881 20.2185 59.175 19.4593C58.3618 18.7001 57.7915 17.7173 57.5357 16.6347C56.3229 12.3538 58.6907 8.36168 62.9355 7.58202C64.632 7.2716 66.3501 7.48818 67.4835 8.87424C67.719 9.2377 67.8743 9.64719 67.939 10.0754C68.0037 10.5036 67.9764 10.9408 67.8589 11.3576C67.5485 12.4188 66.48 12.3177 65.3828 11.9784Z" fill="black"/>
<path d="M194.004 20.0637C192.394 21.031 191.723 20.6628 191.715 19.0386C191.715 14.8587 191.715 10.6789 191.715 6.4991V4.54274H185.334C184.771 3.16391 185.168 2.55029 186.229 2.53585C190.459 2.49254 194.682 2.53585 199.007 2.53585V4.62937H194.011L194.004 20.0637Z" fill="black"/>
<path d="M19.4102 13.249C19.7206 12.1806 19.8216 10.9678 20.4064 10.0727C20.9957 9.37766 21.8111 8.91248 22.7093 8.75879C23.0774 8.67938 24.0881 9.58898 24.0448 9.94993C23.9672 10.866 23.5683 11.7251 22.9186 12.3755C22.074 13.0397 20.8756 13.249 19.8289 13.6605L19.4102 13.249Z" fill="white"/>
</g>
<defs>
<clipPath id="clip0_962_236330">
<rect width="199" height="20.3793" fill="white" transform="translate(0 0.925781)"/>
</clipPath>
</defs>
</svg>
