<svg width="17" height="17" viewBox="0 0 17 17" fill="none" xmlns="http://www.w3.org/2000/svg">
<path d="M14.554 13.635H12.1596V9.92229C12.1596 9.03695 12.1437 7.89725 10.9143 7.89725C9.66724 7.89725 9.47644 8.86186 9.47644 9.85783V13.6348H7.08207V5.99988H9.38066V7.04327H9.41284C9.64287 6.65383 9.97528 6.33346 10.3747 6.11628C10.774 5.8991 11.2254 5.79324 11.6808 5.80997C14.1075 5.80997 14.555 7.39049 14.555 9.44665L14.554 13.635ZM4.38044 4.95625C4.10562 4.95629 3.83696 4.87565 3.60843 4.72452C3.37991 4.57339 3.20179 4.35855 3.09658 4.10717C2.99137 3.8558 2.96379 3.57918 3.01736 3.31229C3.07092 3.0454 3.20322 2.80024 3.39751 2.60779C3.59179 2.41535 3.83935 2.28428 4.10887 2.23114C4.3784 2.17801 4.65777 2.2052 4.91169 2.30929C5.1656 2.41338 5.38264 2.58968 5.53535 2.8159C5.68807 3.04212 5.76962 3.3081 5.76967 3.58021C5.7697 3.76088 5.73379 3.93979 5.66399 4.10672C5.59419 4.27365 5.49188 4.42533 5.36288 4.55311C5.23388 4.68089 5.08071 4.78225 4.91214 4.85142C4.74358 4.92059 4.5629 4.95621 4.38044 4.95625ZM5.57761 13.635H3.18076V5.99988H5.57761V13.635ZM15.7477 0.00304323H1.9776C1.66506 -0.000449065 1.36389 0.119062 1.14029 0.335315C0.916698 0.551567 0.788971 0.846868 0.785156 1.15633V14.8473C0.78884 15.157 0.916492 15.4525 1.14008 15.6689C1.36367 15.8854 1.6649 16.0052 1.9776 16.0019H15.7477C16.061 16.0058 16.3631 15.8863 16.5875 15.6699C16.812 15.4534 16.9405 15.1576 16.9448 14.8473V1.15534C16.9404 0.845267 16.8118 0.54963 16.5873 0.333383C16.3628 0.117135 16.0608 -0.0020345 15.7477 0.00205501" fill="#87898F"/>
</svg>
