<svg width="141" height="24" viewBox="0 0 141 24" fill="none" xmlns="http://www.w3.org/2000/svg">
<path d="M49.3878 0.070915L41.5385 0.0706271L33.9568 10.9015V0H27.5293V23.1418H33.9568V13.0973L40.658 23.1478C40.6988 23.0634 40.7995 22.9608 40.8927 22.8658C40.9637 22.7934 41.0304 22.7255 41.0626 22.6737L41.0825 22.6746C41.0835 22.6522 41.0992 22.6205 41.1134 22.5916C41.1329 22.552 41.1498 22.5177 41.1228 22.5203L41.1943 22.4804C41.2436 22.3789 41.2362 22.3422 41.2249 22.2858C41.2179 22.251 41.2095 22.2088 41.2119 22.1392C41.2295 22.1145 41.2898 22.0888 41.3482 22.064C41.4192 22.0338 41.4872 22.0048 41.4719 21.9804C41.6163 21.8722 41.7073 21.6172 41.7741 21.428C41.7759 21.4263 41.7769 21.4227 41.7776 21.418C41.7846 21.3981 41.7914 21.3791 41.7979 21.3611C41.7818 21.3603 41.7802 21.3837 41.7789 21.4033C41.7786 21.4087 41.7782 21.4137 41.7776 21.418C41.7772 21.4193 41.7767 21.4206 41.7763 21.4219C41.7755 21.4239 41.7748 21.4259 41.7741 21.428C41.7713 21.4306 41.7667 21.4286 41.7587 21.4191C41.724 21.3776 41.7282 21.3579 41.7629 21.3262C41.7848 21.2977 41.7989 21.264 41.8039 21.2285C41.8243 21.2228 41.8431 21.2123 41.8585 21.1977C41.8738 21.1846 41.8859 21.1681 41.8939 21.1495C41.8603 21.148 41.8619 21.117 41.8638 21.081C41.8639 21.0779 41.8641 21.0749 41.8642 21.0718C41.9861 20.9685 41.995 20.8376 42.0047 20.6941C42.0101 20.6134 42.0159 20.5288 42.0421 20.4429C42.049 20.4406 42.0581 20.4376 42.0691 20.4341C42.171 20.4011 42.4292 20.3175 42.4642 20.2741C42.4287 20.2631 42.447 20.2186 42.4649 20.175C42.485 20.1259 42.5046 20.078 42.4464 20.0806C42.5899 19.9413 42.6979 19.7697 42.7616 19.5802L42.7373 19.6023C42.779 19.475 42.839 19.3602 42.8988 19.2458C42.9667 19.1161 43.0342 18.9868 43.0745 18.8404C43.0762 18.8341 43.0779 18.8278 43.0796 18.8215C43.1037 18.7327 43.1253 18.6535 43.2071 18.5542C43.2071 18.5542 43.2643 18.3413 43.3273 18.2508L43.332 18.148C43.3258 18.1116 43.3275 18.0743 43.337 18.0386C43.3569 18.0395 43.2077 17.9978 43.2273 18.0723C43.2273 18.0723 43.2671 18.1151 43.187 18.1214C43.1778 18.1557 43.164 18.1886 43.146 18.2192C43.1519 18.217 43.1582 18.216 43.1644 18.2163C43.1707 18.2166 43.1768 18.2182 43.1825 18.2209C43.1678 18.2286 43.1549 18.2393 43.1445 18.2524C43.1325 18.2625 43.1238 18.276 43.1195 18.2911C43.0056 18.5925 42.8644 18.8829 42.6978 19.1587C42.6943 19.0912 42.6974 19.0235 42.7071 18.9565C42.6677 19.0183 42.6316 19.0821 42.5987 19.1475C42.5912 19.1544 42.5761 19.1557 42.5612 19.157C42.5349 19.1593 42.5092 19.1615 42.5268 19.1941C42.5419 19.2221 42.5212 19.2475 42.4977 19.2762C42.4784 19.2997 42.4574 19.3255 42.4529 19.3568C42.4465 19.4022 42.4347 19.4089 42.4156 19.4197C42.4056 19.4254 42.3935 19.4322 42.3791 19.4464C42.3799 19.4296 42.3922 19.4076 42.4023 19.3896C42.414 19.3688 42.4227 19.3534 42.4064 19.358C42.398 19.3604 42.391 19.3613 42.3847 19.3621C42.3681 19.3642 42.3564 19.3658 42.3384 19.3914C42.3517 19.2424 42.383 19.0955 42.4315 18.9539C42.4604 18.809 42.5104 18.6691 42.58 18.5388C42.615 18.3543 42.6851 18.1782 42.7864 18.0201C42.8217 17.8697 42.8798 17.7256 42.9588 17.5928L42.982 17.5939C42.9829 17.5723 42.9965 17.5418 43.009 17.5137C43.0272 17.4728 43.0433 17.4366 43.0156 17.4393L43.2548 17.155C43.3313 16.99 43.5456 16.5545 43.5456 16.5545L43.8499 16.3658C43.8499 16.3658 43.9476 16.1276 43.9533 16.0916C43.9638 16.0893 43.9536 16.0076 43.9436 15.9283C43.9346 15.8558 43.9258 15.7853 43.9332 15.7788C43.948 15.7639 44.1179 15.5715 44.1267 15.5523C44.0975 15.551 44.1476 15.3018 44.1714 15.1833C44.1774 15.1536 44.1817 15.1321 44.1827 15.1248C44.3706 14.9602 43.5456 15.0236 43.5456 15.0236C42.7141 15.1192 42.0722 15.0417 41.4221 14.9633C40.7955 14.8876 40.1613 14.8111 39.3426 14.8878C39.3599 14.845 39.4141 14.7495 39.4885 14.6183C39.6363 14.3576 39.8641 13.956 40.0414 13.5471C40.1764 13.2356 40.1921 13.0678 40.2071 12.9086C40.2217 12.7535 40.2355 12.6066 40.3578 12.3431C40.382 12.3062 40.4124 12.1992 40.445 12.0844C40.4834 11.9489 40.525 11.8024 40.5633 11.7473C40.5747 11.7309 40.6499 11.5826 40.7268 11.4309C40.8076 11.2717 40.8902 11.1088 40.9028 11.0909C40.911 11.0794 40.9178 11.0593 40.9246 11.039C40.9316 11.0184 40.9386 10.9976 40.9471 10.9856C40.9567 10.9722 40.9747 10.9562 40.9926 10.9401C41.0105 10.9241 41.0285 10.9081 41.0382 10.8945C41.0658 10.8563 41.0795 10.8203 41.0932 10.7843C41.1073 10.747 41.1215 10.7098 41.1511 10.6703C41.1567 10.6628 41.169 10.6553 41.1813 10.6478C41.1935 10.6403 41.2057 10.6329 41.2113 10.6255C41.2208 10.6129 41.2363 10.6003 41.2517 10.5878C41.2667 10.5755 41.2817 10.5633 41.291 10.5512C41.3076 10.5295 41.3186 10.508 41.3294 10.4868C41.3403 10.4652 41.3512 10.4439 41.3678 10.4229C41.4689 10.2951 41.5652 10.1799 41.6479 10.0911C41.7461 9.98554 41.8297 10.0031 41.7958 10.1428C41.7958 10.1428 41.6479 10.3927 41.6376 10.5029C41.6311 10.5714 41.5808 10.6022 41.5411 10.6264C41.517 10.6411 41.4969 10.6534 41.4928 10.6703C41.4906 10.6798 41.4893 10.6884 41.488 10.6965C41.4835 10.7261 41.4802 10.7478 41.4338 10.7801C41.3892 10.811 41.3743 10.8495 41.3573 10.8936C41.3517 10.9081 41.3459 10.9231 41.3387 10.9386C41.3238 10.9711 41.3202 10.9914 41.3173 11.0082C41.3145 11.024 41.3123 11.0367 41.3016 11.0536C41.2796 11.0885 41.2338 11.1212 41.2338 11.1212L41.0533 11.4355C41.0546 11.4334 41.0544 11.4355 41.054 11.4401C41.0523 11.4589 41.0469 11.5188 41.1203 11.5053C41.116 11.5098 41.1269 11.5008 41.1425 11.4879C41.1696 11.4655 41.2108 11.4314 41.2113 11.436C41.2581 11.5394 41.3271 11.4448 41.4333 11.2992C41.4856 11.2276 41.5469 11.1435 41.619 11.0645C41.6269 11.056 41.6355 11.0513 41.6441 11.0467C41.6527 11.042 41.6614 11.0373 41.6692 11.0286C41.6738 11.0236 41.6775 11.0145 41.6812 11.0054C41.685 10.9964 41.6887 10.9875 41.6931 10.9825C41.7455 10.9238 41.7964 10.8654 41.8437 10.8104C41.852 10.8008 41.8579 10.7887 41.8637 10.7767C41.8693 10.7652 41.8748 10.7538 41.8823 10.745C41.8877 10.7386 41.8953 10.7349 41.9027 10.7312C41.9101 10.7276 41.9173 10.7241 41.9223 10.7181C41.9274 10.7121 41.9348 10.7079 41.942 10.7037C41.9491 10.6996 41.956 10.6956 41.9607 10.6901C41.9674 10.6821 41.9715 10.6726 41.9755 10.6633C41.9794 10.6544 41.9831 10.6458 41.9888 10.6389C42.0634 10.5494 42.1125 10.4885 42.1176 10.4822C42.1189 10.4806 42.1212 10.4788 42.124 10.4766C42.1324 10.47 42.1459 10.4594 42.1555 10.4365C42.1586 10.4291 42.1639 10.423 42.1694 10.4166C42.1757 10.4093 42.1823 10.4017 42.1864 10.3914C42.1902 10.3818 42.2006 10.3766 42.2113 10.3713C42.2224 10.3658 42.2338 10.3602 42.238 10.3493C42.2739 10.2561 42.3371 10.0924 42.3607 10.0414C42.3672 10.0272 42.4069 9.98767 42.4623 9.93254C42.6055 9.7899 42.8536 9.54286 42.9034 9.36018C42.9537 9.17589 43.0664 9.04217 43.1961 8.88841C43.2447 8.83084 43.2956 8.77047 43.3465 8.70358C43.401 8.63194 43.4708 8.54422 43.5426 8.4541C43.7168 8.23535 43.9023 8.00245 43.907 7.95091C43.907 7.95091 44.1566 7.3295 44.286 7.12883L44.8838 6.52562C44.8838 6.52562 45.0314 6.22599 45.1533 6.03654C45.2095 5.94925 45.2308 5.85259 45.2511 5.75998C45.2749 5.6516 45.2975 5.54877 45.3735 5.47299C45.3735 5.47299 45.6837 5.31125 45.7951 5.16807C45.7951 5.16807 45.9729 4.8169 46.0224 4.75478C46.0346 4.73948 46.0621 4.68335 46.0921 4.62197C46.1319 4.54073 46.1761 4.45028 46.1956 4.43313C46.2462 4.33277 46.4115 4.23707 46.5631 4.14932C46.6594 4.09363 46.75 4.04115 46.8024 3.99271C46.8024 3.99271 47.0987 3.57896 47.1552 3.28923C47.1822 3.33498 47.2027 3.27587 47.2242 3.21411C47.2444 3.15604 47.2654 3.09563 47.2934 3.11783C47.3003 3.10474 47.3106 3.08825 47.3221 3.0698C47.3592 3.01056 47.4088 2.93123 47.3984 2.88009C47.5635 2.72124 47.5819 2.64446 47.6305 2.44201C47.6342 2.42676 47.638 2.4108 47.6421 2.39405C47.6765 2.36904 47.714 2.3475 47.7294 2.37478C47.7433 2.3603 47.7533 2.34245 47.7583 2.32296C47.7642 2.30475 47.7651 2.28528 47.7609 2.2666C47.791 2.24442 47.816 2.21614 47.8344 2.1836C47.8557 2.15468 47.9292 2.14475 47.9292 2.14475C48.0181 2.05557 48.0158 2.01434 48.0121 1.94675C48.0099 1.90743 48.0073 1.8592 48.0218 1.78741C48.0782 1.78999 48.1178 1.72204 48.1504 1.66374C48.2043 1.63208 48.2689 1.60309 48.3356 1.57317C48.4716 1.51216 48.6162 1.44729 48.6964 1.34811L48.7001 1.26855C48.7131 1.29118 48.7394 1.25886 48.7688 1.22283C48.7882 1.1991 48.8088 1.17377 48.8279 1.16145C48.8241 1.15856 48.8195 1.1569 48.8148 1.15668C48.8101 1.15647 48.8054 1.15771 48.8014 1.16024C48.8386 1.103 48.8547 1.03857 48.8705 0.975394C48.8912 0.89216 48.9115 0.811092 48.9788 0.751471C49.0343 0.702375 49.0557 0.641094 49.078 0.577234C49.1033 0.504678 49.1298 0.428792 49.2088 0.363662C49.2548 0.303359 49.2715 0.270126 49.2902 0.232736C49.3083 0.196832 49.3282 0.157093 49.3779 0.0858657C49.3823 0.0809114 49.3855 0.0759263 49.3878 0.070915Z" fill="black"/>
<path d="M59.679 23.202V0.0683594L53.2807 0.0695571L53.1418 0.782079C53.1214 0.815282 53.0394 0.888545 52.9482 0.970073C52.7947 1.1074 52.6148 1.26818 52.6585 1.30047C52.6349 1.31799 52.6195 1.41615 52.6045 1.51228C52.5883 1.61622 52.5724 1.71779 52.5468 1.71254C52.4634 1.80522 52.1064 2.24891 52.1024 2.26288C52.1042 2.27951 52.103 2.29633 52.0989 2.31253C52.114 2.33356 52.1171 2.3371 52.1485 2.31602C52.1799 2.29495 52.1216 2.36736 52.0992 2.3558C52.117 2.43356 52.0619 2.50795 52.0619 2.50795C52.0619 2.50795 51.9387 2.73461 51.9435 2.80774L51.9387 2.87726C51.8672 2.96544 51.8141 3.09629 51.7713 3.20194C51.7473 3.26098 51.7266 3.31216 51.7076 3.34361C51.6774 3.39357 51.6381 3.42421 51.6056 3.44958C51.581 3.46876 51.5603 3.48494 51.5502 3.50417C51.5269 3.54887 51.5271 3.64819 51.5271 3.64819C51.5271 3.64819 51.4771 3.7846 51.4412 3.822C51.4412 3.822 51.3613 3.9677 51.354 4.07067C51.3245 4.11184 51.2772 4.18749 51.2915 4.22176C51.3057 4.25602 51.221 4.30319 51.221 4.30319C51.2158 4.30765 51.2128 4.31997 51.209 4.33577C51.2023 4.36359 51.193 4.40219 51.1647 4.42754C51.1434 4.45917 51.1435 4.47616 51.1435 4.49582C51.1435 4.51179 51.1436 4.52953 51.1322 4.55831L51.059 4.65296C51.0358 4.7293 51.0006 4.77172 50.9636 4.81634C50.9248 4.86308 50.884 4.91224 50.8529 5.00534C50.8366 5.02285 50.8327 5.09166 50.8281 5.17235C50.8215 5.28871 50.8135 5.42975 50.7649 5.47721C50.7649 5.47721 50.7098 5.54621 50.667 5.70905C50.6432 5.7994 50.6082 5.84768 50.5817 5.88417C50.5605 5.91346 50.5448 5.93515 50.5448 5.96489C50.5308 6.00147 50.5281 6.0518 50.5254 6.10039C50.5235 6.13484 50.5217 6.16842 50.5159 6.19559C50.484 6.26231 50.473 6.28301 50.4524 6.32158C50.4323 6.35922 50.4032 6.41388 50.3367 6.54493C50.3367 6.54493 50.2742 6.7199 50.1884 6.84155C50.1026 6.96319 49.9946 7.16555 49.9662 7.22482C49.9561 7.24569 49.951 7.28115 49.945 7.32199C49.934 7.39714 49.9203 7.49049 49.869 7.54456C49.7898 7.62802 49.75 7.72597 49.75 7.72597C49.6898 7.86134 49.7017 8.12067 49.7017 8.12067L49.869 8.15871C49.869 8.15871 49.8153 8.27548 50.1777 8.14138C50.187 8.14 50.2151 8.13973 50.2505 8.13939C50.3335 8.13861 50.4563 8.13744 50.4705 8.12067C50.5121 8.12359 50.5655 8.13368 50.6236 8.14463C50.7784 8.17386 50.9658 8.20923 51.0459 8.13099C51.1108 8.13512 51.2365 8.15005 51.2365 8.15005L52.1622 8.11135C52.1622 8.11135 52.2934 8.10758 52.2951 8.13099C52.2951 8.13099 52.4391 8.07196 52.4507 8.09606C52.5321 8.08144 52.5755 8.12563 52.6177 8.16857C52.6614 8.21306 52.7038 8.2562 52.7858 8.23117C52.7914 8.24041 52.8273 8.23333 52.872 8.22452C52.9449 8.21013 53.0412 8.19114 53.0671 8.23117C53.0028 8.29319 53.1162 8.37865 53.4085 8.16017C53.4702 8.14184 53.4727 8.19597 53.4754 8.25555C53.4775 8.30092 53.4798 8.34946 53.5084 8.37161C53.5095 8.35581 53.6007 8.35595 53.6778 8.35606C53.7299 8.35614 53.7756 8.35621 53.7826 8.35134C53.7479 8.37218 54.1294 8.39504 54.1294 8.39504C54.1294 8.39504 54.2851 8.41415 54.3449 8.54072C54.3241 8.5735 54.3607 8.59154 54.3959 8.60888C54.4052 8.61344 54.4143 8.61795 54.4223 8.62266C54.3928 8.71041 54.2142 8.79099 54.0341 8.84486C54.0005 8.84797 53.9265 8.83636 53.8393 8.82268C53.6461 8.79236 53.388 8.75189 53.3616 8.83885C53.3292 8.92083 53.2076 8.93306 53.095 8.9444C53.0253 8.95142 52.959 8.95809 52.9192 8.98073C52.7932 8.95649 52.4802 9.01568 52.4802 9.01568C52.4488 9.02506 52.4113 9.03295 52.3735 9.04093C52.2807 9.06047 52.1855 9.08053 52.1706 9.12436C52.1479 9.12277 52.1579 9.11068 52.1669 9.09984C52.1762 9.08856 52.1844 9.07863 52.1536 9.08325C52.0931 9.0923 51.7593 9.08325 51.7593 9.08325C51.6805 9.08033 51.6047 9.07732 51.5319 9.07443C50.7255 9.04241 50.2656 9.02415 49.7373 9.29208C49.7142 9.29045 49.685 9.43589 49.9389 9.41274C50.0115 9.42429 50.0857 9.41927 50.1561 9.39808C50.1547 9.41794 50.1506 9.47752 50.1734 9.43589C50.1858 9.41345 50.2136 9.41722 50.2355 9.42018C50.2543 9.42271 50.2686 9.42466 50.2651 9.40907L50.2663 9.39252C50.2663 9.39252 51.5276 9.3353 51.5477 9.33339C51.5308 9.343 51.2985 9.36421 51.0295 9.38878C50.6355 9.42477 50.1626 9.46795 50.1728 9.49239C50.197 9.48759 50.2665 9.49224 50.3718 9.49928C50.5894 9.51385 50.9597 9.53863 51.3966 9.51105C51.4255 9.50809 51.4524 9.50484 51.4784 9.5017C51.5523 9.49279 51.6187 9.48477 51.7011 9.48671C51.7233 9.4959 51.7618 9.4926 51.799 9.48942C51.8225 9.48742 51.8454 9.48545 51.8634 9.48671C51.9097 9.48997 52.013 9.47499 52.0057 9.4713C52.0057 9.4713 52.0934 9.454 52.1536 9.45823C52.2083 9.46208 52.2189 9.4754 52.2305 9.48997C52.2336 9.49391 52.2368 9.49794 52.241 9.50189C52.2605 9.52051 52.3681 9.58067 52.4661 9.51105C52.4912 9.51281 52.4965 9.52096 52.5017 9.52899C52.5061 9.53582 52.5105 9.54257 52.5269 9.54526C52.5508 9.54694 52.5699 9.52888 52.5852 9.51431C52.5997 9.50059 52.6109 9.48998 52.6198 9.50189C52.6291 9.51438 52.6521 9.5029 52.6789 9.48949C52.7049 9.47652 52.7345 9.46175 52.7588 9.46509C52.7768 9.46914 52.8102 9.46501 52.8405 9.46127C52.8851 9.45576 52.9229 9.45109 52.8945 9.47463C52.7536 9.5047 52.6049 9.5985 52.6049 9.5985C52.5721 9.62461 52.5269 9.67561 52.5883 9.666C52.8669 9.55965 52.9165 9.53939 52.9165 9.53939C53.1276 9.47106 53.5429 9.46039 53.8849 9.46751C54.227 9.47463 54.3317 9.67953 54.3186 9.92396C54.3118 10.0513 54.1569 10.1994 53.9988 10.3506C53.8533 10.4897 53.7051 10.6315 53.6668 10.7622C53.639 10.8569 53.1133 11.516 53.1133 11.516C53.1133 11.516 52.9947 11.7335 52.8701 11.8305C52.8701 11.8305 52.6834 11.9775 52.6057 12.0486C52.5531 12.1043 52.4928 12.2502 52.4328 12.3952C52.3821 12.518 52.3315 12.6402 52.2861 12.7069C52.2143 12.7941 52.136 12.9493 52.0601 13.0995C51.9938 13.2309 51.9294 13.3584 51.873 13.4336C51.8533 13.4526 51.819 13.4895 51.7789 13.5327C51.6881 13.6304 51.5671 13.7608 51.5148 13.7917C51.4317 13.8409 51.421 13.9063 51.4106 13.9701C51.4028 14.0182 51.3951 14.0654 51.3566 14.1041C51.3427 14.1182 51.3181 14.1337 51.2926 14.1496C51.2587 14.1709 51.2233 14.1931 51.2102 14.2139C51.093 14.4002 50.9249 14.5985 50.7689 14.7825C50.7127 14.8487 50.6582 14.9131 50.6081 14.9744C50.6068 14.9931 50.6272 14.9839 50.6418 14.9773C50.6583 14.97 50.6672 14.966 50.6289 15.0091C50.5913 15.0515 50.5572 15.0484 50.5226 15.0454C50.4908 15.0425 50.4585 15.0396 50.4227 15.0722C50.3799 15.1112 50.3997 15.1151 50.4158 15.1184C50.4277 15.1208 50.4376 15.1228 50.4181 15.1384C50.3983 15.1542 50.3862 15.1496 50.3759 15.1456C50.3624 15.1404 50.3521 15.1364 50.3318 15.1822C50.3114 15.2285 50.2927 15.2661 50.2731 15.3055C50.2585 15.3349 50.2433 15.3653 50.2266 15.4011C50.2037 15.4192 50.1887 15.4456 50.1849 15.4746C50.157 15.4938 50.1416 15.5593 50.1211 15.6462C50.105 15.7147 50.0858 15.7964 50.0549 15.8795C49.9847 16.0681 49.8033 16.3542 49.673 16.4542C49.5032 16.5658 49.3463 16.8922 49.3463 16.8922C49.3084 16.9458 49.0592 17.2786 49.0592 17.2786L48.738 17.7263C48.7119 17.7757 48.6115 17.9612 48.5272 18.0355C48.4157 18.1075 48.3259 18.4408 48.3259 18.4408C48.2747 18.5071 48.1377 18.6599 48.1377 18.6599C48.0976 18.7103 48.0026 18.7902 48.0026 18.7902C48.0026 18.7902 47.9817 18.8908 47.8875 18.9719C47.8734 18.9897 47.8607 19.0043 47.8491 19.0177C47.8147 19.0576 47.7896 19.0866 47.7621 19.1549C47.7346 19.2228 47.6235 19.3248 47.6235 19.3248L47.532 19.4699C47.5209 19.5068 47.4701 19.5619 47.4231 19.6131C47.3787 19.6614 47.3375 19.7062 47.3359 19.7287C47.3016 19.6963 47.2183 19.8999 47.2183 19.8999C47.2183 19.8999 47.1185 20.0117 47.0902 20.0895C47.0902 20.0895 46.9279 20.103 46.9039 20.1612C46.8778 20.2171 45.5876 22.0159 45.5876 22.0159L45.4424 22.4205C45.3928 22.5427 45.3085 22.6154 45.2194 22.6921C45.1648 22.7392 45.1083 22.7878 45.057 22.8504C45.0568 22.8529 45.0566 22.8556 45.0564 22.8586C45.0535 22.9025 45.0475 22.9931 45.0139 23.0282C44.9874 23.0125 45.0006 22.9857 45.0112 22.9642C45.021 22.9441 45.0286 22.9287 44.9995 22.9314C44.9334 23.0129 44.872 23.1486 44.8535 23.1913H45.0171L59.679 23.202Z" fill="black"/>
<path fill-rule="evenodd" clip-rule="evenodd" d="M94.8691 23.1828V0.0712891H104.16C105.31 0.0817436 106.457 0.180617 107.591 0.367036C107.973 0.46008 112.569 1.56332 112.569 5.6207C112.569 8.99023 110.246 10.7115 109.035 11.087C109.493 11.1635 113.505 12.1578 113.505 16.5508C113.505 21.4954 108.879 23.0366 105.551 23.1828H94.8691ZM101.293 17.959V13.5195H104.724C105.504 13.5195 107.074 13.9481 107.074 15.6562C107.074 17.4639 105.504 17.8925 104.724 17.959H101.293ZM101.293 5.16545V9.08327H104.393C105.093 9.02346 106.513 8.64796 106.513 7.04959C106.513 5.54427 105.093 5.16545 104.393 5.16545H101.293Z" fill="black"/>
<path fill-rule="evenodd" clip-rule="evenodd" d="M0.234375 23.1812L9.58933 0.0693359H16.0117L25.2565 23.1812H18.2476L16.7279 19.0525H8.59777L7.09424 23.1812H0.234375ZM12.7098 7.11605L10.2504 14.0801H15.2049L12.7098 7.11605Z" fill="black"/>
<path d="M63.5625 0.0712891V23.1876H69.9917L69.6964 8.17159H69.8855L74.9509 23.1876H79.414L84.6742 8.17159H84.9298L84.6577 23.1876H91.0877V0.0712891H81.8869L77.4296 14.0053L72.7426 0.0712891H63.5625Z" fill="black"/>
<path fill-rule="evenodd" clip-rule="evenodd" d="M140.232 11.5439C140.27 14.1183 139.454 16.6329 137.911 18.6953C135.681 21.6077 132.022 23.1966 128.009 23.1966C123.996 23.1966 120.39 21.7341 118.176 18.8343C116.613 16.7347 115.773 14.1857 115.782 11.5691C115.746 8.99251 116.563 6.47611 118.107 4.41137C120.333 1.49899 123.996 0.0585938 128.009 0.0585938C132.022 0.0585938 135.653 1.47688 137.867 4.37663C139.42 6.44226 140.251 8.96043 140.232 11.5439ZM128.007 17.6881C131.205 17.6881 133.797 14.9747 133.797 11.6276C133.797 8.28045 131.205 5.56707 128.007 5.56707C124.81 5.56707 122.218 8.28045 122.218 11.6276C122.218 14.9747 124.81 17.6881 128.007 17.6881Z" fill="black"/>
</svg>
