<svg width="120" height="39" viewBox="0 0 120 39" fill="none" xmlns="http://www.w3.org/2000/svg">
<g clip-path="url(#clip0_962_236311)">
<path d="M119.994 0.644876V34.3324C119.927 34.4072 119.844 34.4657 119.752 34.5032C119.659 34.5407 119.559 34.5563 119.459 34.5487C119.158 34.5487 118.86 34.5487 118.559 34.5487H1.48557C1.15237 34.5487 0.819178 34.5487 0.490956 34.5363C0.162734 34.5239 -0.00635383 34.3846 0.0135384 34.039C0.0135384 33.9395 0.0135384 33.8401 0.0135384 33.7406V1.2118C0.0135384 0.528009 -0.0535976 0.59515 0.627712 0.59515H119.447C119.63 0.565591 119.818 0.582688 119.994 0.644876Z" fill="black"/>
<path d="M119.993 35.5361C119.993 36.2821 119.993 37.028 119.993 37.774C119.993 37.9879 119.951 38.0674 119.744 38.0227C119.678 38.0164 119.612 38.0164 119.545 38.0227H0.0601997C-0.0541807 37.2494 0.0328497 36.4686 0.015444 35.6928C0.015444 35.4441 0.191987 35.3521 0.410802 35.3298C0.758916 35.2949 1.10952 35.3074 1.46012 35.3074H75.3971C89.8837 35.3074 104.371 35.3074 118.859 35.3074C119.242 35.3273 119.67 35.1905 119.993 35.5361Z" fill="black"/>
<path d="M33.8093 18.9836C33.8093 14.5327 33.8093 10.0843 33.7969 5.63344C33.7969 5.11127 33.9486 4.99192 34.4409 5.01181C36.0024 5.07397 37.5665 4.96954 39.1305 5.11874C42.9175 5.4768 45.6427 8.15479 46.048 11.9318C46.3588 14.8013 45.9336 17.4992 44.2154 19.8887C42.8423 21.8128 40.858 23.2152 38.5859 23.8672C38.2179 23.9766 38.1408 24.1457 38.1408 24.4913C38.1533 27.1643 38.1408 29.8398 38.1583 32.5128C38.1583 32.9206 38.0588 33.0549 37.6361 33.0425C36.5893 33.0102 35.5374 33.0425 34.4906 33.0425C33.8118 33.0425 33.8093 33.0425 33.8093 32.3835V18.9836Z" fill="white"/>
<path d="M99.4278 15.2481C99.7908 14.9547 100.099 14.7309 100.375 14.4748C100.514 14.3449 100.679 14.2445 100.858 14.1795C101.037 14.1146 101.227 14.0865 101.417 14.0968C104.47 14.1217 106.39 15.82 106.805 18.8685C106.887 19.5283 106.925 20.1929 106.917 20.8577C106.917 24.7267 106.917 28.5958 106.917 32.4648C106.917 32.9621 106.771 33.0765 106.301 33.0566C105.42 33.0193 104.538 33.0218 103.655 33.0566C103.215 33.074 103.098 32.9447 103.1 32.5046C103.118 28.3695 103.1 24.2344 103.1 20.1018C103.1 19.4354 103.1 18.774 102.79 18.1548C102.541 17.6327 102.168 17.2274 101.546 17.2199C100.925 17.2124 100.552 17.6277 100.303 18.1449C100.074 18.6441 99.9639 19.1898 99.9823 19.7388C99.9823 23.9659 99.9823 28.2079 99.9997 32.4424C99.9997 32.9646 99.848 33.079 99.3607 33.0566C98.4804 33.0193 97.5977 33.0342 96.715 33.0566C96.3793 33.0566 96.25 32.982 96.25 32.6215C96.2599 26.6919 96.2599 20.7632 96.25 14.8353C96.25 14.4947 96.3445 14.3654 96.7001 14.3753C97.3814 14.4002 98.0652 14.4101 98.7465 14.3753C99.2115 14.3504 99.4477 14.4648 99.3656 14.9671C99.3764 15.0627 99.3973 15.1569 99.4278 15.2481Z" fill="white"/>
<path d="M51.1915 31.9008C50.9429 32.1793 50.6569 32.4429 50.4257 32.7412C50.3375 32.8595 50.2207 32.9534 50.0864 33.0143C49.952 33.0752 49.8044 33.101 49.6573 33.0893C47.9764 33.0496 46.8053 32.1594 45.9648 30.8067C43.9184 27.5121 44.9379 22.7653 48.1704 20.3857C49.0181 19.7371 49.987 19.2645 51.02 18.9957C51.291 18.931 51.3532 18.8017 51.3532 18.5456C51.3532 17.5759 50.8559 17.0338 49.8612 16.9915C49.0951 16.9489 48.3268 17.0193 47.5811 17.2004C47.2404 17.2874 47.1459 17.1805 47.1683 16.8399C47.2081 16.1602 47.2272 15.4797 47.2255 14.7984C47.2255 14.5125 47.3175 14.3807 47.596 14.3285C48.8381 14.0677 50.1175 14.0374 51.3706 14.239C53.596 14.6592 54.8766 16.1635 55.0357 18.5183C55.1352 19.9804 55.0929 21.4424 55.0954 22.9045C55.0954 26.1097 55.0954 29.3148 55.0954 32.5224C55.0954 32.9228 55.0084 33.0744 54.5782 33.0595C53.6631 33.0247 52.7431 33.0222 51.8306 33.0595C51.3656 33.0819 51.2413 32.9103 51.2935 32.4926C51.3047 32.3137 51.3047 32.1343 51.2935 31.9555L51.1915 31.9008Z" fill="white"/>
<path d="M84.7182 23.5037C84.7331 21.6064 84.8798 19.7266 85.5214 17.9164C85.7875 17.0904 86.2218 16.3285 86.797 15.6786C88.1969 14.1742 89.93 13.7714 91.8546 14.3433C93.7791 14.9152 94.8881 16.3076 95.2164 18.2819C95.9772 22.8696 92.5458 25.6421 89.4675 26.3408C89.0647 26.4303 88.9826 26.5895 89.0448 26.9301C89.1248 27.5391 89.2733 28.1372 89.4874 28.7129C89.9474 29.8045 90.6138 30.2471 91.7974 30.2446C92.4737 30.2446 92.4339 30.1352 92.4364 30.8837C92.4364 31.4332 92.4165 31.9802 92.4364 32.5273C92.4538 32.9102 92.3295 33.0246 91.9391 33.0619C88.0129 33.3802 86.0535 31.187 85.2255 28.0391C85.0994 27.5577 85.0007 27.0696 84.9296 26.577C84.7687 25.5608 84.698 24.5323 84.7182 23.5037Z" fill="white"/>
<path d="M72.9658 33.0892C71.9667 33.0995 70.9722 32.9518 70.0192 32.6516C69.6985 32.5471 69.5915 32.4402 69.7954 32.1045C70.2007 31.4406 70.5712 30.7519 70.9368 30.0631C71.0735 29.802 71.2028 29.7075 71.5186 29.8144C72.1373 30.0254 72.802 30.0633 73.4407 29.9238C74.7909 29.6478 75.3727 28.519 74.9525 27.032C74.6094 25.8111 73.8186 24.8638 72.9633 23.9661C72.3267 23.2898 71.633 22.6632 71.081 21.9098C69.9496 20.3756 69.6288 18.6947 70.4345 16.9367C71.2401 15.1787 72.8041 14.3035 74.7088 14.0971C75.8548 13.9685 77.015 14.0925 78.1079 14.4601C78.4461 14.572 78.4709 14.6914 78.3019 14.9773C77.9388 15.6139 77.5915 16.2546 77.26 16.8994C77.1332 17.1481 77.0114 17.1953 76.7627 17.0958C76.3799 16.9783 75.9773 16.9394 75.5791 16.9815C74.2563 17.0163 73.5899 18.1178 74.1792 19.3163C74.5258 19.9424 74.9803 20.5022 75.5219 20.9698C76.422 21.8352 77.3346 22.6856 78.0656 23.705C79.1896 25.274 79.6297 27.0221 79.1796 28.8919C78.6276 31.1845 76.9741 32.388 74.7635 32.9325C74.1723 33.0541 73.5691 33.1066 72.9658 33.0892Z" fill="white"/>
<path d="M13.1719 22.74C13.1719 19.5075 13.1719 16.2626 13.1719 13.0226C13.1719 12.6148 13.2738 12.4731 13.6965 12.488C14.5942 12.5179 15.4968 12.5228 16.3944 12.488C16.847 12.4681 16.9439 12.6198 16.9439 13.05C16.929 18.2137 16.929 23.3799 16.9439 28.5485C16.9439 29.0633 16.9688 29.5805 16.9439 30.0927C16.9191 30.4806 17.0683 30.5651 17.4413 30.5601C18.7914 30.5403 20.1416 30.5602 21.4893 30.5427C21.8623 30.5427 21.9866 30.6397 21.9692 31.0177C21.9394 31.5647 21.9518 32.1142 21.9692 32.6613C21.9692 32.9248 21.9095 33.0492 21.6112 33.0492C18.9307 33.0392 16.2494 33.0392 13.5672 33.0492C13.157 33.0492 13.2141 32.8005 13.2141 32.5519V22.74H13.1719Z" fill="white"/>
<path d="M21.2422 24.5627C21.2695 22.939 21.3939 21.1188 22.1398 19.4106C22.7664 17.9734 23.7561 16.9464 25.3723 16.6754C26.3995 16.4967 27.456 16.7196 28.3234 17.2982C29.1907 17.8767 29.8025 18.7666 30.0321 19.7836C30.8477 23.2224 28.7739 26.4524 25.2256 27.2307C24.885 27.3053 24.7631 27.4172 24.8377 27.7454C24.9123 28.0737 24.9496 28.3994 25.0466 28.7152C25.4917 30.1723 26.3172 30.7392 27.8365 30.6025C28.1572 30.5751 28.2467 30.6398 28.2343 30.9506C28.2144 31.4976 28.2144 32.0471 28.2343 32.5942C28.2467 32.895 28.1199 32.9995 27.8414 33.0417C25.238 33.4346 23.0698 32.2286 22.0627 29.8093C21.4038 28.1905 21.2472 26.4922 21.2422 24.5627Z" fill="white"/>
<path d="M60.0265 15.8102C60.4666 15.5068 60.8098 15.2458 61.1753 15.0195C61.84 14.6359 62.5912 14.4272 63.3585 14.4128C63.6071 14.3979 63.7638 14.4575 63.7588 14.7584C63.7588 15.5566 63.7588 16.3523 63.7588 17.1504C63.7588 17.2996 63.7588 17.4637 63.5475 17.4762C63.1385 17.4901 62.7378 17.5957 62.375 17.785C62.0123 17.9744 61.6966 18.2427 61.4513 18.5703C60.8247 19.3809 60.6432 20.3332 60.6432 21.3353C60.6432 25.0203 60.6432 28.7054 60.6432 32.3904C60.6432 33.1364 60.7178 33.0369 59.9693 33.0419C59.1363 33.0419 58.3034 33.0195 57.4828 33.0543C57.0477 33.0717 56.9233 32.9548 56.9258 32.5073C56.9432 27.38 56.9258 22.2503 56.9258 17.1206C56.9258 16.3896 56.9383 15.6585 56.9258 14.93C56.9258 14.6341 57.0153 14.5172 57.3187 14.5073C58.0821 14.4824 58.8479 14.4426 59.6113 14.3879C59.9271 14.363 60.0738 14.4451 60.0464 14.7882C60.0191 15.1314 60.0265 15.4124 60.0265 15.8102Z" fill="white"/>
<path d="M68.7543 23.7124C68.7543 26.6515 68.7543 29.5881 68.7543 32.5272C68.7543 32.9424 68.64 33.0667 68.2247 33.0543C67.3097 33.022 66.3946 33.0245 65.4895 33.0543C65.1091 33.0543 65.0171 32.9474 65.0196 32.5794C65.032 28.9938 65.0196 25.4082 65.0196 21.8227C65.0196 19.5002 65.0196 17.1753 65.0196 14.8604C65.0196 14.4998 65.1016 14.3631 65.487 14.3631C66.4021 14.3904 67.3196 14.3929 68.2347 14.3631C68.6524 14.3506 68.7668 14.4899 68.7643 14.8977C68.7469 17.8367 68.7543 20.7758 68.7543 23.7124Z" fill="white"/>
<path d="M83.7457 23.7252C83.7457 26.6294 83.7457 29.5362 83.7457 32.4405C83.7457 32.9005 83.6562 33.0845 83.1514 33.0571C82.3209 33.0124 81.4879 33.0571 80.6649 33.0422C79.9363 33.0422 80.0184 33.1267 80.0184 32.4156C80.0184 27.1226 80.0184 21.8279 80.0184 16.5316C80.0184 15.9498 80.0358 15.3679 80.0184 14.7911C80.006 14.4579 80.1253 14.3634 80.4461 14.3683C81.3959 14.3858 82.3458 14.3932 83.2932 14.3683C83.686 14.3683 83.7606 14.5151 83.7581 14.8657C83.7407 17.8172 83.7457 20.7712 83.7457 23.7252Z" fill="white"/>
<path d="M65.0234 10.6062C65.0234 10.1089 65.0359 9.61155 65.0234 9.11424C65.0234 8.83077 65.1179 8.73877 65.3989 8.74126C66.3935 8.75369 67.3881 8.74126 68.3952 8.74126C68.6438 8.74126 68.7607 8.81586 68.7582 9.08192C68.7582 10.1113 68.7582 11.1408 68.7582 12.1702C68.7582 12.4188 68.6563 12.491 68.4275 12.491C67.3931 12.491 66.3612 12.491 65.3293 12.491C65.0806 12.491 65.0234 12.3691 65.0259 12.1528C65.0309 11.6356 65.0234 11.1209 65.0234 10.6062Z" fill="white"/>
<path d="M80.0156 10.6132C80.0156 10.1159 80.0156 9.61855 80.0156 9.12124C80.0156 8.84524 80.0927 8.73584 80.3811 8.73832C81.3758 8.75324 82.3704 8.75076 83.3799 8.73832C83.6659 8.73832 83.7554 8.84772 83.7529 9.12124C83.7429 10.1159 83.7429 11.1105 83.7529 12.1051C83.7529 12.3811 83.6609 12.488 83.3774 12.4855C82.3828 12.4739 81.3832 12.4739 80.3787 12.4855C80.0877 12.4855 80.0082 12.3736 80.0181 12.1026C80.0281 11.6103 80.0156 11.1105 80.0156 10.6132Z" fill="white"/>
<path d="M38.1482 14.3164C38.1482 12.4391 38.1482 10.5617 38.1482 8.6844C38.1482 8.28656 38.2551 8.15974 38.6579 8.20948C39.2076 8.26173 39.7317 8.46661 40.1711 8.80097C40.6104 9.13534 40.9476 9.58588 41.1445 10.1017C41.7586 11.5116 41.7984 13.0085 41.7039 14.5054C41.6094 16.0023 41.316 17.4345 40.498 18.72C40.0772 19.4449 39.4336 20.0144 38.6629 20.3437C38.3148 20.483 38.1358 20.4681 38.1407 19.9956C38.1631 18.1034 38.1482 16.2086 38.1482 14.3164Z" fill="black"/>
<path d="M51.3002 25.6071C51.3002 26.6862 51.3002 27.7629 51.3002 28.8396C51.3106 29.0237 51.2811 29.2079 51.2137 29.3796C51.1463 29.5512 51.0427 29.7063 50.9098 29.8342C50.4125 30.3315 49.7934 30.2917 49.3557 29.7397C49.0301 29.2941 48.8362 28.7659 48.7963 28.2155C48.5824 26.4252 48.7789 24.707 49.7909 23.1529C50.049 22.7437 50.3874 22.3909 50.7855 22.116C50.9148 22.0265 51.064 21.8673 51.2256 21.9593C51.3872 22.0513 51.2977 22.2329 51.2977 22.3746C51.3027 23.4488 51.3002 24.5279 51.3002 25.6071Z" fill="black"/>
<path d="M88.8158 21.8304C88.8581 20.7538 88.8854 19.5254 89.2137 18.3319C89.298 17.9421 89.4726 17.5776 89.7234 17.2676C89.8253 17.1343 89.9605 17.03 90.1155 16.9654C90.2704 16.9008 90.4396 16.878 90.6061 16.8994C90.7726 16.9208 90.9306 16.9856 91.0641 17.0874C91.1977 17.1891 91.3021 17.3242 91.367 17.479C92.1701 19.1052 91.4068 22.0592 89.9149 23.0762C89.6264 23.2701 89.2833 23.5461 88.97 23.3969C88.6567 23.2477 88.8531 22.825 88.8183 22.5242C88.7984 22.3451 88.8158 22.1611 88.8158 21.8304Z" fill="black"/>
<path d="M24.6143 23.2203C24.6068 22.2587 24.7187 21.2998 24.9475 20.3657C25.0244 20.0081 25.1884 19.675 25.4249 19.396C25.5115 19.2825 25.6268 19.1943 25.759 19.1404C25.8912 19.0864 26.0354 19.0688 26.1766 19.0894C26.3179 19.1099 26.4511 19.1679 26.5624 19.2572C26.6738 19.3465 26.7592 19.464 26.8099 19.5974C27.5434 21.1192 26.7825 23.7002 25.3379 24.5705C25.1563 24.6799 24.95 24.8614 24.7486 24.757C24.5471 24.6525 24.6267 24.374 24.6168 24.1701C24.6043 23.8494 24.6143 23.5336 24.6143 23.2203Z" fill="black"/>
</g>
<defs>
<clipPath id="clip0_962_236311">
<rect width="120" height="37.4546" fill="white" transform="translate(0 0.587891)"/>
</clipPath>
</defs>
</svg>
