<svg width="86" height="69" viewBox="0 0 86 69" fill="none" xmlns="http://www.w3.org/2000/svg">
<g clip-path="url(#clip0_962_236272)">
<path d="M59.62 8.40423C58.5741 8.1611 57.519 7.83997 56.4409 7.684C53.115 7.22525 49.8762 7.50968 46.8072 9.02354C45.3429 9.746 44.0415 10.7599 42.9829 12.0031C41.9243 13.2463 41.1307 14.6926 40.6509 16.2534C39.3978 19.8885 39.2985 23.8219 40.3664 27.5156C41.9583 33.1077 46.665 36.6905 52.5783 37.0071C54.8608 37.1814 57.1566 36.9957 59.3815 36.4566C54.505 42.6496 45.4081 46.393 36.068 43.6956C31.4446 42.3905 27.3702 39.6191 24.4579 35.7985C21.5457 31.9778 19.9532 27.3146 19.9201 22.5107C19.8537 17.7458 21.323 13.0861 24.1106 9.22119C26.8982 5.35625 30.8559 2.49139 35.3982 1.05053C44.8025 -1.87627 54.4132 1.64232 59.62 8.40423Z" fill="black"/>
<path d="M63.8871 27.7633C63.3458 28.1807 62.7678 28.5661 62.2586 29.0248C60.7585 30.3735 59.2675 31.7544 57.3316 32.4471C52.0515 34.3646 47.1383 31.1534 46.6153 25.4787C46.6153 25.2906 46.574 25.098 46.5603 24.9053C46.5144 23.9878 46.7392 23.7538 47.6796 23.7538C51.8083 23.7538 55.9829 23.7538 60.1392 23.7538C61.5659 23.7538 62.9971 23.6667 64.5752 23.6162C64.355 24.9924 64.1165 26.3687 63.8917 27.7908L63.8871 27.7633Z" fill="black"/>
<path d="M53.5528 20.2763H47.5891C46.6716 20.2763 46.4284 19.969 46.5477 19.0882C46.6999 17.628 47.1696 16.2189 47.924 14.9595C49.5341 12.4134 51.9334 11.5739 54.8051 11.9592C57.6769 12.3446 59.4247 14.1108 60.2459 16.822C60.4603 17.5807 60.6137 18.3554 60.7046 19.1386C60.8239 20.0011 60.5716 20.258 59.677 20.2626C57.6264 20.2809 55.5896 20.2763 53.5528 20.2763Z" fill="black"/>
<path d="M52.8974 57.2196C53.4895 56.5714 54.2638 56.1176 55.1186 55.9178C55.9734 55.718 56.8687 55.7816 57.6867 56.1002C58.2685 56.3165 58.7741 56.6986 59.141 57.1992C59.5079 57.6998 59.72 58.297 59.7511 58.9169C59.93 60.9859 59.93 63.0686 60.0034 65.2063H58.3473C58.3473 63.7705 58.3473 62.3621 58.3473 60.9538C58.3428 60.5229 58.3152 60.0926 58.2647 59.6647C58.1042 58.2885 57.3472 57.6049 55.971 57.637C54.5948 57.6692 53.8241 58.3389 53.7644 59.7564C53.7048 61.2611 53.7644 62.775 53.7369 64.2843V65.2018H52.0717C52.0717 63.4585 52.0992 61.7612 52.0717 60.0638C52.0304 58.1967 50.9798 57.3801 49.1357 57.7242C48.7238 57.7676 48.3419 57.9598 48.0615 58.2647C47.7811 58.5695 47.6215 58.9662 47.6126 59.3803C47.5163 60.4537 47.5255 61.5318 47.5025 62.5915C47.5025 63.431 47.5025 64.2659 47.5025 65.1742H45.8281C45.9153 62.9998 45.9153 60.8253 46.1263 58.6692C46.1674 58.0234 46.4217 57.4096 46.8493 56.9239C47.2768 56.4382 47.8535 56.1082 48.4889 55.9856C50.0165 55.6369 51.5028 55.7057 52.6864 56.9535L52.8974 57.2196Z" fill="black"/>
<path d="M1.54594 65.3114V68.9813H0.0229056C0.0229056 65.6967 -0.0459099 62.4671 0.0550142 59.2422C0.0963013 57.8659 0.761483 56.6044 2.23406 56.1548C3.70663 55.7052 5.32601 55.6135 6.5371 56.8429C7.08661 57.4057 7.44735 58.1256 7.56928 58.9027C7.72371 60.1233 7.69589 61.3602 7.48671 62.5726C7.161 64.3296 5.8765 65.2334 4.07822 65.2701C3.27083 65.3251 2.45884 65.3114 1.54594 65.3114ZM1.41291 63.4764C2.49096 63.4764 3.37634 63.5268 4.25713 63.4764C4.66059 63.4849 5.05321 63.3454 5.36086 63.0843C5.66851 62.8231 5.86989 62.4583 5.92697 62.0589C6.05539 61.1197 6.05539 60.1675 5.92697 59.2284C5.76182 58.1458 5.00947 57.7283 3.73416 57.7375C2.55059 57.7375 1.77073 58.2283 1.64228 59.2789C1.47713 60.6184 1.4863 62.0084 1.41291 63.4672V63.4764Z" fill="black"/>
<path d="M62.9202 65.3117V68.9817H61.3329C61.3329 68.7294 61.3008 68.5 61.3008 68.266C61.3008 65.7246 61.3008 63.1831 61.3008 60.6417C61.2999 60.1161 61.3428 59.5913 61.4292 59.0728C61.8421 56.6047 63.4202 55.7606 65.6222 55.9028C67.604 56.0313 68.705 56.9717 68.971 58.9214C69.1379 60.1494 69.1069 61.3961 68.8793 62.6143C68.549 64.3483 67.2278 65.2613 65.4479 65.2888C64.6405 65.3209 63.8285 65.3117 62.9202 65.3117ZM63.0349 63.4767C63.9523 63.4767 64.8698 63.5226 65.7369 63.4767C66.1506 63.4749 66.5488 63.3187 66.8535 63.0387C67.1581 62.7587 67.3472 62.375 67.3838 61.9629C67.4989 61.204 67.5282 60.4346 67.4709 59.6691C67.3654 58.3434 66.7048 57.7562 65.4433 57.7241C63.9294 57.6828 63.1862 58.1828 63.0578 59.5957C62.9477 60.8481 63.0349 62.1188 63.0349 63.4676V63.4767Z" fill="black"/>
<path d="M43.1336 62.8851L44.2438 63.9402C42.6015 65.9908 38.459 65.9541 37.2433 63.5962C36.5589 62.1774 36.3965 60.5629 36.7846 59.0362C37.3488 56.3663 39.9178 55.1094 42.3813 56.2838C43.9318 57.0269 44.3676 58.4536 44.5098 60.0225C44.542 60.3712 44.5098 60.729 44.5098 61.174H38.5783C38.4688 61.6096 38.504 62.069 38.6786 62.4828C38.8532 62.8965 39.1578 63.2423 39.5462 63.4677C40.5463 64.0733 41.8766 63.8714 43.1336 62.8851ZM38.5003 59.8482H42.629C42.6565 58.3114 41.8216 57.3939 40.482 57.426C39.2021 57.4582 38.4039 58.4261 38.5003 59.8482Z" fill="black"/>
<path d="M29.4737 62.8937L30.7307 64.0497C30.0013 64.4672 29.4003 64.9948 28.7076 65.1737C25.8955 65.9031 22.9045 65.0498 22.9779 60.6275C22.9941 59.7445 23.1729 58.8721 23.5054 58.0539C23.7961 57.3202 24.3265 56.7064 25.0103 56.3124C25.6942 55.9184 26.4912 55.7675 27.2718 55.8841C28.0717 55.9143 28.8378 56.2147 29.4451 56.7362C30.0525 57.2577 30.4652 57.9696 30.616 58.7558C30.7903 59.5127 30.8224 60.3018 30.9325 61.178H24.7991C24.8312 62.2331 25.1019 63.091 26.0377 63.5176C27.2672 64.0864 28.4186 63.8341 29.4737 62.8937ZM28.9599 59.8568C29.0379 58.4072 28.1617 57.4163 26.8726 57.4254C25.5836 57.4346 24.7349 58.4163 24.8542 59.8568H28.9599Z" fill="black"/>
<path d="M8.88672 60.5132C8.96471 59.9214 9.0014 59.3204 9.12985 58.7424C9.47391 57.1139 10.451 56.1138 12.1392 55.9119C14.5568 55.6275 16.2679 56.5771 16.6304 59.1002C16.7702 60.0939 16.7702 61.1022 16.6304 62.0958C16.2634 64.674 14.4146 65.5318 12.1713 65.2474C10.1529 64.9951 9.07022 63.6189 8.96012 61.3802C8.96012 61.0958 8.96012 60.8068 8.96012 60.5178L8.88672 60.5132ZM15.144 60.6003C15.144 60.3388 15.144 60.0728 15.144 59.8113C15.0385 58.3983 14.355 57.7286 13.0154 57.7056C11.5199 57.6781 10.8135 58.2653 10.685 59.7333C10.6299 60.4012 10.6437 61.073 10.7263 61.738C10.7559 62.2134 10.9691 62.6586 11.3209 62.9797C11.6728 63.3007 12.1357 63.4723 12.6117 63.4583C14.2449 63.573 15.0752 62.8298 15.1532 61.1646C15.1532 60.9994 15.144 60.8068 15.144 60.6141V60.6003Z" fill="black"/>
<path d="M83.0124 60.5129C82.9252 61.2744 82.916 61.8341 82.7968 62.3479C82.338 64.3801 81.1223 65.3205 79.0075 65.3114C76.989 65.3114 75.622 64.2929 75.3375 62.2974C75.1708 61.023 75.2064 59.7302 75.4431 58.4669C75.7412 56.8108 77.1129 55.9071 78.9341 55.8658C80.8654 55.8245 82.1453 56.6273 82.627 58.3063C82.8019 59.033 82.9306 59.77 83.0124 60.5129ZM81.3334 60.6276H81.3792C81.3196 60.1688 81.2967 59.6734 81.1911 59.21C80.9709 58.2375 80.2737 57.7604 79.1727 57.742C77.8744 57.7145 77.1312 58.0769 76.9799 59.1183C76.8353 60.1511 76.8492 61.2 77.0211 62.2286C77.1087 62.4801 77.2489 62.7101 77.4324 62.9032C77.616 63.0962 77.8386 63.2478 78.0854 63.3479C79.7874 64.0544 81.2462 63.0543 81.3288 61.2193C81.3379 60.9946 81.3334 60.8019 81.3334 60.6092V60.6276Z" fill="black"/>
<path d="M64.5892 23.203C64.7576 18.088 63.2231 13.0618 60.2266 8.91309C61.8679 9.59944 63.3133 10.6823 64.4333 12.0647C66.3449 14.3771 67.3117 17.3267 67.1399 20.3221C67.0435 22.102 66.2315 23.0104 64.5892 23.203Z" fill="black"/>
<path d="M18.2147 52.127H19.7698V61.3844C19.7698 62.8249 20.1506 63.2194 21.6048 63.3846C21.8388 63.4075 22.0636 63.4488 22.3113 63.4809V65.1507C19.8754 65.5177 18.2101 64.2011 18.1826 61.8111C18.1321 58.7191 18.1826 55.6272 18.1826 52.5352C18.1734 52.4205 18.1963 52.3059 18.2147 52.127Z" fill="black"/>
<path d="M74.5161 63.4954C74.5161 63.7293 74.5391 63.9541 74.5436 64.156C74.5436 64.4863 74.5436 64.8166 74.5436 65.1377C74.1009 65.2516 73.6395 65.2729 73.1882 65.2005C72.7369 65.1281 72.3053 64.9634 71.9205 64.7167C71.5356 64.4701 71.2057 64.1467 70.9514 63.7669C70.6971 63.3871 70.5239 62.9589 70.4424 62.5091C70.4067 62.3215 70.3868 62.1312 70.3828 61.9402C70.3828 58.7015 70.3828 55.4673 70.3828 52.1689H71.9655C71.9655 52.4304 72.0022 52.7057 72.0022 52.9809C72.0022 55.7334 72.0022 58.4492 72.0022 61.1833C72.0022 62.8853 72.3462 63.2568 74.0711 63.4357C74.2088 63.4495 74.3464 63.4724 74.5161 63.4954Z" fill="black"/>
<path d="M63.8691 27.7814C64.0572 27.7447 64.2453 27.6988 64.438 27.6805C65.6353 27.5612 66.4611 28.3778 66.25 29.5614C66.143 30.1739 65.9353 30.7645 65.6353 31.3092C64.3508 33.6029 62.3553 35.1168 59.9102 36.0893C61.7827 33.6098 63.1355 30.7778 63.8875 27.7631L63.8691 27.7814Z" fill="black"/>
<path d="M85.7703 65.22H84.2656V55.9258H85.7703V65.22Z" fill="black"/>
<path d="M16.1395 54.0587L15.4192 55.0083L12.7585 53.5357L10.1207 54.9945L9.38672 54.0541L12.7493 52.1641L16.1395 54.0587Z" fill="black"/>
<path d="M84.2773 53.9252V52.1865H85.8325V53.9252H84.2773Z" fill="black"/>
</g>
<defs>
<clipPath id="clip0_962_236272">
<rect width="85.8314" height="69" fill="white"/>
</clipPath>
</defs>
</svg>
