<svg width="57" height="33" viewBox="0 0 57 33" fill="none" xmlns="http://www.w3.org/2000/svg">
<path d="M15.941 4.92681C19.0283 4.80605 21.8735 5.22873 24.7187 5.77218C26.9585 6.19486 29.1377 6.79869 31.317 7.58368C33.799 8.48943 36.0993 9.63671 38.2181 11.2067C39.4893 12.1124 40.7605 13.1389 41.9107 14.2258C42.6977 14.9504 43.5452 15.6147 44.2111 16.3996C44.5743 16.8223 44.998 17.245 45.3612 17.7281C45.8455 18.2715 46.3298 18.815 46.8141 19.3584C47.3589 20.0226 47.9037 20.6869 48.4485 21.3511C48.9933 22.0153 49.4776 22.6191 49.9619 23.2833C50.2646 23.6456 50.5067 24.0683 50.8094 24.4306C51.1726 24.9137 51.5358 25.4571 51.899 25.9402C52.9281 27.2083 53.594 28.5971 54.2599 30.0463C54.381 30.3482 54.381 30.7105 54.381 31.0124C54.381 31.5558 54.7442 32.0389 55.2285 32.2201C55.3496 32.2804 55.5312 32.2804 55.6522 32.2201C56.076 32.0389 56.4392 31.7974 56.6208 31.4351C56.7419 31.1935 56.8024 31.0124 56.7419 30.7105C56.6208 30.167 56.4997 29.5632 56.1971 29.0801C55.6522 28.114 55.1074 27.1479 54.5626 26.1817C53.7756 24.7325 52.8071 23.4041 51.778 22.1361C50.2041 20.1434 48.5696 18.1508 46.8746 16.2185C45.4823 14.6485 43.9084 13.3201 42.2739 11.9917C40.9421 10.9048 39.6104 9.93863 38.1575 9.03288C35.7966 7.64406 33.3147 6.61754 30.7117 5.77218C27.8665 4.86643 25.0213 4.20221 22.0551 3.83991C19.8758 3.538 17.6966 3.35685 15.5173 3.47761C13.0353 3.59838 10.6139 3.83991 8.1925 4.44375C7.95036 4.50413 7.70821 4.56451 7.46607 4.56451C6.92126 4.6249 6.67912 4.50413 6.55804 3.9003C6.37644 3.23608 6.25536 2.57186 6.07376 1.90765C5.95269 1.54535 5.95269 1.18305 6.07376 0.760365C6.13429 0.579215 6.01323 0.337682 5.83162 0.277298C5.52894 0.156532 5.2868 0.0961487 4.98412 0.0357654C4.56037 -0.0850012 3.95502 0.0961488 3.77341 0.639599C3.53127 1.3642 3.04699 1.90765 2.56271 2.4511C1.83628 3.23608 1.1704 4.08145 0.504506 4.86643C0.262364 5.10796 0.141293 5.40988 0.0202222 5.77218C-0.0403132 6.01371 0.0202261 6.37601 0.262368 6.55716C0.565045 6.7987 0.867715 7.04023 1.352 6.91946C1.77575 6.85908 2.13896 6.97985 2.44164 7.22138C3.34967 7.8856 4.0761 8.67058 4.80252 9.57633C4.98413 9.81786 5.10519 10.1802 5.2868 10.4821C5.58947 11.0859 6.1343 11.3878 6.73965 11.569C6.80019 11.569 6.98179 11.5086 6.98179 11.4482C7.1634 11.1463 7.28447 10.8444 7.46607 10.5425C7.64768 10.2405 7.70821 9.87824 7.58714 9.57633C7.345 8.79134 7.28447 7.94598 7.1634 7.161C7.10286 6.91946 7.10286 6.67793 7.04233 6.43639C6.98179 6.0741 7.1634 5.83256 7.58714 5.7118C9.82695 5.16835 12.1273 4.86643 14.4882 4.80605C15.2146 4.92681 15.6384 4.92681 15.941 4.92681Z" fill="black"/>
</svg>
